<?xml version="1.0" encoding="UTF-8" standalone="no"?>
<!-- Created with Inkscape (http://www.inkscape.org/) -->

<svg
   width="53.016666mm"
   height="59.978127mm"
   viewBox="0 0 53.016666 59.978127"
   version="1.1"
   id="svg1"
   inkscape:version="1.3.2 (091e20e, 2023-11-25, custom)"
   sodipodi:docname="2euler.svg"
   inkscape:export-filename="2euler.pdf"
   inkscape:export-xdpi="96"
   inkscape:export-ydpi="96"
   xmlns:inkscape="http://www.inkscape.org/namespaces/inkscape"
   xmlns:sodipodi="http://sodipodi.sourceforge.net/DTD/sodipodi-0.dtd"
   xmlns="http://www.w3.org/2000/svg"
   xmlns:svg="http://www.w3.org/2000/svg">
  <sodipodi:namedview
     id="namedview1"
     pagecolor="#ffffff"
     bordercolor="#999999"
     borderopacity="1"
     inkscape:showpageshadow="2"
     inkscape:pageopacity="0"
     inkscape:pagecheckerboard="0"
     inkscape:deskcolor="#d1d1d1"
     inkscape:document-units="mm"
     showgrid="true"
     inkscape:zoom="4"
     inkscape:cx="-1.125"
     inkscape:cy="99.625"
     inkscape:window-width="3840"
     inkscape:window-height="1577"
     inkscape:window-x="-8"
     inkscape:window-y="-8"
     inkscape:window-maximized="1"
     inkscape:current-layer="svg1"
     inkscape:lockguides="false">
    <inkscape:grid
       id="grid1"
       units="cm"
       originx="-115.75978"
       originy="-144.35722"
       spacingx="9.9999998"
       spacingy="10"
       empcolor="#0099e5"
       empopacity="0.30196078"
       color="#0099e5"
       opacity="0.14901961"
       empspacing="5"
       dotted="false"
       gridanglex="30"
       gridanglez="30"
       visible="true" />
  </sodipodi:namedview>
  <defs
     id="defs1" />
  <g
     inkscape:label="Layer 1"
     inkscape:groupmode="layer"
     id="layer1"
     transform="translate(-115.75979,-144.35722)" />
  <path
     sodipodi:cx="39.293228"
     sodipodi:cy="7.4723587"
     sodipodi:rx="15.527388"
     sodipodi:ry="26.458334"
     sodipodi:type="arc"
     sodipodi:arc-type="arc"
     sodipodi:start="1.5707963"
     sodipodi:end="4.712389"
     sodipodi:open="true"
     d="m 39.293228,33.930693 a 15.527388,26.458334 0 0 1 -13.447112,-13.229167 15.527388,26.458334 0 0 1 0,-26.4583344 15.527388,26.458334 0 0 1 13.447112,-13.2291666"
     style="fill:none;stroke:#000000;stroke-width:0.1;stroke-dasharray:none"
     transform="rotate(37.4537)"
     id="path313" />
  <path
     sodipodi:cx="35.813988"
     sodipodi:cy="-17.808762"
     sodipodi:rx="19.961338"
     sodipodi:ry="26.458334"
     sodipodi:type="arc"
     sodipodi:arc-type="arc"
     sodipodi:start="1.5707963"
     sodipodi:end="4.712389"
     sodipodi:open="true"
     d="m 35.813988,8.6495724 a 19.961338,26.458334 0 0 1 -17.287026,-13.2291668 19.961338,26.458334 0 0 1 0,-26.4583346 19.961338,26.458334 0 0 1 17.287026,-13.229167"
     style="fill:none;stroke:#000000;stroke-width:0.1;stroke-dasharray:none"
     transform="rotate(74.6602)"
     id="path314" />
  <path
     sodipodi:cx="9.2952471"
     sodipodi:cy="38.902348"
     sodipodi:rx="13.029186"
     sodipodi:ry="26.458334"
     sodipodi:type="arc"
     sodipodi:arc-type="arc"
     sodipodi:start="4.712389"
     sodipodi:end="1.5707963"
     sodipodi:open="true"
     d="M 9.2952471,12.444014 A 13.029186,26.458334 0 0 1 22.324433,38.902348 13.029186,26.458334 0 0 1 9.2952471,65.360682"
     style="fill:none;stroke:#000000;stroke-width:0.1;stroke-dasharray:none"
     transform="rotate(-28.3408)"
     id="path316" />
  <path
     sodipodi:cx="23.12001"
     sodipodi:cy="32.638302"
     sodipodi:rx="3.5205462"
     sodipodi:ry="26.458334"
     sodipodi:type="arc"
     sodipodi:arc-type="arc"
     sodipodi:start="4.712389"
     sodipodi:end="1.5707963"
     sodipodi:open="true"
     d="M 23.12001,6.1799679 A 3.5205462,26.458334 0 0 1 26.640557,32.638302 3.5205462,26.458334 0 0 1 23.12001,59.096636"
     style="fill:none;stroke:#000000;stroke-width:0.1;stroke-dasharray:none"
     transform="rotate(-6.46635)"
     id="path317" />
  <path
     sodipodi:cx="26.508333"
     sodipodi:cy="45.044682"
     sodipodi:rx="17.54512"
     sodipodi:ry="11.278786"
     sodipodi:type="arc"
     sodipodi:arc-type="arc"
     sodipodi:start="1.2442246"
     sodipodi:end="1.8973681"
     sodipodi:open="true"
     d="m 32.13677,55.727357 a 17.54512,11.278786 0 0 1 -11.256874,0"
     style="fill:none;stroke:#000000;stroke-width:0.1;stroke-dasharray:none"
     id="path318" />
  <path
     sodipodi:cx="26.508333"
     sodipodi:cy="41.387348"
     sodipodi:rx="21.774782"
     sodipodi:ry="13.99756"
     sodipodi:type="arc"
     sodipodi:arc-type="arc"
     sodipodi:start="0.61773306"
     sodipodi:end="2.5238596"
     sodipodi:open="true"
     d="M 44.258995,49.494576 A 21.774782,13.99756 0 0 1 26.508333,55.384908 21.774782,13.99756 0 0 1 8.7576714,49.494576"
     style="fill:none;stroke:#000000;stroke-width:0.1;stroke-dasharray:none"
     id="path319" />
  <path
     sodipodi:cx="26.508333"
     sodipodi:cy="37.060902"
     sodipodi:rx="24.738972"
     sodipodi:ry="15.902905"
     sodipodi:type="arc"
     sodipodi:arc-type="arc"
     sodipodi:start="0.32386027"
     sodipodi:end="2.8177324"
     sodipodi:open="true"
     d="M 49.961226,42.12166 A 24.738972,15.902905 0 0 1 26.508333,52.963807 24.738972,15.902905 0 0 1 3.0554406,42.121659"
     style="fill:none;stroke:#000000;stroke-width:0.1;stroke-dasharray:none"
     id="path320" />
  <path
     sodipodi:cx="26.508333"
     sodipodi:cy="32.316746"
     sodipodi:rx="26.265423"
     sodipodi:ry="16.884089"
     sodipodi:type="arc"
     sodipodi:arc-type="arc"
     sodipodi:start="0.10206224"
     sodipodi:end="3.0395304"
     sodipodi:open="true"
     d="M 52.637075,34.036983 A 26.265423,16.884089 0 0 1 26.508333,49.200834 26.265423,16.884089 0 0 1 0.37959124,34.036984"
     style="fill:none;stroke:#000000;stroke-width:0.1;stroke-dasharray:none"
     id="path321" />
  <path
     sodipodi:cx="26.508333"
     sodipodi:cy="27.430609"
     sodipodi:rx="26.265423"
     sodipodi:ry="16.884089"
     sodipodi:type="arc"
     sodipodi:arc-type="arc"
     sodipodi:start="6.1811231"
     sodipodi:end="3.2436549"
     sodipodi:open="true"
     d="m 52.637075,25.710372 a 26.265423,16.884089 0 0 1 -12.229926,16.046676 26.265423,16.884089 0 0 1 -27.797633,0 A 26.265423,16.884089 0 0 1 0.37959122,25.710371"
     style="fill:none;stroke:#000000;stroke-width:0.1;stroke-dasharray:none"
     id="path322" />
  <path
     sodipodi:cx="26.508333"
     sodipodi:cy="22.686453"
     sodipodi:rx="24.738972"
     sodipodi:ry="15.902905"
     sodipodi:type="arc"
     sodipodi:arc-type="arc"
     sodipodi:start="5.959325"
     sodipodi:end="3.4654529"
     sodipodi:open="true"
     d="M 49.961225,17.625694 A 24.738972,15.902905 0 0 1 41.11418,35.521879 24.738972,15.902905 0 0 1 11.902488,35.52188 24.738972,15.902905 0 0 1 3.0554406,17.625695"
     style="fill:none;stroke:#000000;stroke-width:0.1;stroke-dasharray:none"
     id="path323" />
  <path
     sodipodi:cx="26.508333"
     sodipodi:cy="18.359991"
     sodipodi:rx="21.774782"
     sodipodi:ry="13.99756"
     sodipodi:type="arc"
     sodipodi:arc-type="arc"
     sodipodi:start="5.6654522"
     sodipodi:end="3.7593257"
     sodipodi:open="true"
     d="m 44.258994,10.252763 a 21.774782,13.99756 0 0 1 -3.237675,18.542425 21.774782,13.99756 0 0 1 -29.025971,1e-6 21.774782,13.99756 0 0 1 -3.2376766,-18.542425"
     style="fill:none;stroke:#000000;stroke-width:0.1;stroke-dasharray:none"
     id="path324" />
  <path
     sodipodi:cx="26.508333"
     sodipodi:cy="14.702657"
     sodipodi:rx="17.54512"
     sodipodi:ry="11.278786"
     sodipodi:type="arc"
     sodipodi:arc-type="arc"
     sodipodi:start="5.0389607"
     sodipodi:end="4.3858172"
     sodipodi:open="true"
     d="M 32.13677,4.0199809 A 17.54512,11.278786 0 0 1 43.820076,16.53615 17.54512,11.278786 0 0 1 26.508333,25.981442 17.54512,11.278786 0 0 1 9.1965903,16.536151 17.54512,11.278786 0 0 1 20.879896,4.0199811"
     style="fill:none;stroke:#000000;stroke-width:0.1;stroke-dasharray:none"
     id="path325" />
  <ellipse
     style="fill:none;stroke:#000000;stroke-width:0.1;stroke-dasharray:none"
     id="path326"
     cx="26.508333"
     cy="11.927022"
     rx="12.2958"
     ry="7.9045882" />
  <ellipse
     style="fill:none;stroke:#000000;stroke-width:0.1;stroke-dasharray:none"
     id="path327"
     cx="26.508333"
     cy="10.194379"
     rx="6.3318934"
     ry="4.0710626" />
  <circle
     style="fill:none;stroke:#000000;stroke-width:0.1;stroke-dasharray:none"
     id="path328"
     cx="26.508333"
     cy="29.873678"
     r="26.458334" />
  <ellipse
     style="fill:none;stroke:#ff0000;stroke-width:0.5;stroke-linecap:round;stroke-dasharray:0.5, 1.5;stroke-dashoffset:0;stroke-opacity:0.501832"
     transform="rotate(13.1678)"
     id="path345"
     cx="32.627163"
     cy="23.095116"
     rx="6.9331532"
     ry="26.458334" />
  <path
     style="fill:none;stroke:#ff0000;stroke-width:0.5;stroke-linecap:round;stroke-dasharray:none;stroke-dashoffset:0;stroke-opacity:1"
     transform="rotate(13.1678)"
     id="ellipse363"
     sodipodi:type="arc"
     sodipodi:cx="32.627163"
     sodipodi:cy="23.095116"
     sodipodi:rx="6.9331532"
     sodipodi:ry="26.458334"
     sodipodi:start="1.5262405"
     sodipodi:end="4.7175873"
     sodipodi:open="true"
     sodipodi:arc-type="arc"
     d="M 32.935973,49.527191 A 6.9331532,26.458334 0 0 1 26.722176,36.959943 6.9331532,26.458334 0 0 1 26.583794,10.127704 6.9331532,26.458334 0 0 1 32.663204,-3.3628608" />
  <ellipse
     style="fill:none;stroke:#00ff00;stroke-width:0.5;stroke-linecap:round;stroke-dasharray:0.5, 1.5;stroke-dashoffset:0;stroke-opacity:0.496337"
     transform="rotate(-60.4798)"
     id="path348"
     cx="-12.794426"
     cy="37.653706"
     rx="19.046934"
     ry="26.458334" />
  <path
     style="fill:none;stroke:#00ff00;stroke-width:0.5;stroke-linecap:round;stroke-dasharray:none;stroke-dashoffset:0;stroke-opacity:1"
     transform="rotate(-60.4798)"
     id="ellipse364"
     sodipodi:type="arc"
     sodipodi:cx="-12.794426"
     sodipodi:cy="37.653706"
     sodipodi:rx="19.046934"
     sodipodi:ry="26.458334"
     sodipodi:start="4.7112906"
     sodipodi:end="1.6155314"
     sodipodi:open="true"
     sodipodi:arc-type="arc"
     d="M -12.815347,11.195388 A 19.046934,26.458334 0 0 1 3.8340775,24.750759 19.046934,26.458334 0 0 1 3.4130521,51.552007 19.046934,26.458334 0 0 1 -13.646208,64.085569" />
  <path
     style="fill:#0000ff;fill-opacity:0.286885;stroke:#000000;stroke-width:0.1;stroke-linecap:round;stroke-linejoin:round;stroke-dasharray:0.1, 0.3;stroke-dashoffset:0;stroke-opacity:0.496337;paint-order:markers fill stroke"
     d="m 26.679532,0.05 0.132293,59.928127"
     id="path364"
     sodipodi:nodetypes="cc" />
</svg>
