<?xml version="1.0" encoding="UTF-8" standalone="no"?>
<!-- Created with Inkscape (http://www.inkscape.org/) -->

<svg
   width="53.016666mm"
   height="59.978127mm"
   viewBox="0 0 53.016666 59.978127"
   version="1.1"
   id="svg1"
   inkscape:version="1.3.2 (091e20e, 2023-11-25, custom)"
   sodipodi:docname="3vennSphere.svg"
   inkscape:export-filename="3vennSphere.pdf"
   inkscape:export-xdpi="96"
   inkscape:export-ydpi="96"
   xmlns:inkscape="http://www.inkscape.org/namespaces/inkscape"
   xmlns:sodipodi="http://sodipodi.sourceforge.net/DTD/sodipodi-0.dtd"
   xmlns="http://www.w3.org/2000/svg"
   xmlns:svg="http://www.w3.org/2000/svg">
  <sodipodi:namedview
     id="namedview1"
     pagecolor="#ffffff"
     bordercolor="#999999"
     borderopacity="1"
     inkscape:showpageshadow="2"
     inkscape:pageopacity="0"
     inkscape:pagecheckerboard="0"
     inkscape:deskcolor="#d1d1d1"
     inkscape:document-units="mm"
     showgrid="true"
     inkscape:zoom="4"
     inkscape:cx="135.875"
     inkscape:cy="141.875"
     inkscape:window-width="3840"
     inkscape:window-height="1577"
     inkscape:window-x="-8"
     inkscape:window-y="-8"
     inkscape:window-maximized="1"
     inkscape:current-layer="svg1"
     inkscape:lockguides="false">
    <inkscape:grid
       id="grid1"
       units="cm"
       originx="-53.698063"
       originy="-143.76191"
       spacingx="9.9999998"
       spacingy="10"
       empcolor="#0099e5"
       empopacity="0.30196078"
       color="#0099e5"
       opacity="0.14901961"
       empspacing="5"
       dotted="false"
       gridanglex="30"
       gridanglez="30"
       visible="true" />
  </sodipodi:namedview>
  <defs
     id="defs1" />
  <g
     inkscape:label="Layer 1"
     inkscape:groupmode="layer"
     id="layer1"
     transform="translate(-53.698069,-143.76191)" />
  <path
     style="fill:none;stroke:#0000ff;stroke-width:1;stroke-linecap:round;stroke-dasharray:1, 3;stroke-dashoffset:0;stroke-opacity:0.20040485"
     id="ellipse115"
     sodipodi:type="arc"
     sodipodi:cx="26.57448"
     sodipodi:cy="31.915382"
     sodipodi:rx="26.458334"
     sodipodi:ry="17.008089"
     sodipodi:start="3.1415927"
     sodipodi:end="6.2781101"
     sodipodi:open="true"
     sodipodi:arc-type="arc"
     d="M 0.11614609,31.915382 A 26.458334,17.008089 0 0 1 26.50734,14.907348 26.458334,17.008089 0 0 1 53.032473,31.829063" />
  <path
     style="fill:#0000ff;fill-opacity:0.286885;stroke:#000000;stroke-width:0.1;stroke-linecap:round;stroke-linejoin:round;stroke-dasharray:0.1, 0.3;stroke-dashoffset:0;stroke-opacity:0.496337;paint-order:markers fill stroke"
     d="m 26.233441,0.05 0.132293,59.928128"
     id="path364"
     sodipodi:nodetypes="cc" />
  <path
     style="fill:#0000ff;fill-opacity:0.165992;stroke:none;stroke-width:3;stroke-linecap:round;stroke-linejoin:round;paint-order:markers fill stroke"
     d="m 17.016408,47.095833 c 3.638021,0.720886 7.540625,1.152484 11.178646,0.992187 3.219097,-0.230026 6.372049,-0.550329 9.591146,-1.653645 C 36.746164,36.756967 36.427705,33.276273 34.214324,27.185938 27.265093,34.041264 23.480679,38.564819 17.016408,47.095833 Z"
     id="path45"
     sodipodi:nodetypes="ccccc" />
  <ellipse
     style="fill:none;stroke:#ff0000;stroke-width:1;stroke-linecap:round;stroke-dasharray:1, 3;stroke-dashoffset:0;stroke-opacity:0.20040485"
     transform="rotate(13.1678)"
     id="path345"
     cx="32.854603"
     cy="23.992952"
     rx="6.9331532"
     ry="26.458334" />
  <g
     inkscape:label="WireframeSphere"
     transform="translate(61.764065,32.246113)"
     id="g52"
     style="display:inline" />
  <path
     sodipodi:cx="38.534695"
     sodipodi:cy="13.191407"
     sodipodi:rx="13.694037"
     sodipodi:ry="26.458334"
     sodipodi:type="arc"
     sodipodi:arc-type="arc"
     sodipodi:start="1.5707963"
     sodipodi:end="4.712389"
     sodipodi:open="true"
     d="M 38.534695,39.649741 A 13.694037,26.458334 0 0 1 26.67531,26.420574 a 13.694037,26.458334 0 0 1 0,-26.45833388 13.694037,26.458334 0 0 1 11.859385,-13.22916712"
     style="fill:none;stroke:#000000;stroke-width:0.1;stroke-dasharray:none"
     transform="rotate(30.4984)"
     id="path98" />
  <path
     sodipodi:cx="40.596245"
     sodipodi:cy="-3.2986188"
     sodipodi:rx="18.370281"
     sodipodi:ry="26.458334"
     sodipodi:type="arc"
     sodipodi:arc-type="arc"
     sodipodi:start="1.5707963"
     sodipodi:end="4.712389"
     sodipodi:open="true"
     d="m 40.596245,23.159715 a 18.370281,26.458334 0 0 1 -15.90913,-13.2291665 18.370281,26.458334 0 0 1 0,-26.4583345 18.370281,26.458334 0 0 1 15.90913,-13.229167"
     style="fill:none;stroke:#000000;stroke-width:0.1;stroke-dasharray:none"
     transform="rotate(54.0411)"
     id="path99" />
  <path
     sodipodi:cx="32.648525"
     sodipodi:cy="-24.351791"
     sodipodi:rx="20.249968"
     sodipodi:ry="26.458334"
     sodipodi:type="arc"
     sodipodi:arc-type="arc"
     sodipodi:start="1.5707963"
     sodipodi:end="4.712389"
     sodipodi:open="true"
     d="m 32.648525,2.1065426 a 20.249968,26.458334 0 0 1 -17.536986,-13.2291666 20.249968,26.458334 0 0 1 0,-26.458334 20.249968,26.458334 0 0 1 17.536986,-13.229167"
     style="fill:none;stroke:#000000;stroke-width:0.1;stroke-dasharray:none"
     transform="rotate(86.1142)"
     id="path100" />
  <path
     sodipodi:cx="3.9429426"
     sodipodi:cy="40.538734"
     sodipodi:rx="14.944328"
     sodipodi:ry="26.458334"
     sodipodi:type="arc"
     sodipodi:arc-type="arc"
     sodipodi:start="4.712389"
     sodipodi:end="1.5707963"
     sodipodi:open="true"
     d="M 3.9429426,14.0804 A 14.944328,26.458334 0 0 1 18.887271,40.538734 14.944328,26.458334 0 0 1 3.9429426,66.997068"
     style="fill:none;stroke:#000000;stroke-width:0.1;stroke-dasharray:none"
     transform="rotate(-35.0489)"
     id="path102" />
  <path
     sodipodi:cx="16.513662"
     sodipodi:cy="37.232174"
     sodipodi:rx="8.5667362"
     sodipodi:ry="26.458334"
     sodipodi:type="arc"
     sodipodi:arc-type="arc"
     sodipodi:start="4.712389"
     sodipodi:end="1.5707963"
     sodipodi:open="true"
     d="m 16.513662,10.77384 a 8.5667362,26.458334 0 0 1 8.566737,26.458334 8.5667362,26.458334 0 0 1 -8.566737,26.458334"
     style="fill:none;stroke:#000000;stroke-width:0.1;stroke-dasharray:none"
     transform="rotate(-16.6854)"
     id="path103" />
  <path
     sodipodi:cx="25.630392"
     sodipodi:cy="31.654682"
     sodipodi:rx="0.88508904"
     sodipodi:ry="26.458334"
     sodipodi:type="arc"
     sodipodi:arc-type="arc"
     sodipodi:start="4.712389"
     sodipodi:end="1.5707963"
     sodipodi:open="true"
     d="M 25.630392,5.1963482 A 0.88508904,26.458334 0 0 1 26.515481,31.654682 0.88508904,26.458334 0 0 1 25.630392,58.113016"
     style="fill:none;stroke:#000000;stroke-width:0.1;stroke-dasharray:none"
     transform="rotate(-1.60757)"
     id="path104" />
  <path
     sodipodi:cx="26.508333"
     sodipodi:cy="43.560249"
     sodipodi:rx="20.685959"
     sodipodi:ry="13.297677"
     sodipodi:type="arc"
     sodipodi:arc-type="arc"
     sodipodi:start="0.73307734"
     sodipodi:end="2.4085153"
     sodipodi:open="true"
     d="M 41.880456,52.458518 A 20.685959,13.297677 0 0 1 26.508333,56.857926 20.685959,13.297677 0 0 1 11.136211,52.458518"
     style="fill:none;stroke:#000000;stroke-width:0.1;stroke-dasharray:none"
     id="path105" />
  <path
     sodipodi:cx="26.508333"
     sodipodi:cy="39.717266"
     sodipodi:rx="23.838135"
     sodipodi:ry="15.323857"
     sodipodi:type="arc"
     sodipodi:arc-type="arc"
     sodipodi:start="0.41598277"
     sodipodi:end="2.7256099"
     sodipodi:open="true"
     d="M 48.313543,45.90947 A 23.838135,15.323857 0 0 1 26.508333,55.041123 23.838135,15.323857 0 0 1 4.7031231,45.909469"
     style="fill:none;stroke:#000000;stroke-width:0.1;stroke-dasharray:none"
     id="path106" />
  <path
     sodipodi:cx="26.508333"
     sodipodi:cy="35.433308"
     sodipodi:rx="25.794968"
     sodipodi:ry="16.581686"
     sodipodi:type="arc"
     sodipodi:arc-type="arc"
     sodipodi:start="0.19270958"
     sodipodi:end="2.9488831"
     sodipodi:open="true"
     d="M 51.825808,38.609016 A 25.794968,16.581686 0 0 1 26.508333,52.014994 25.794968,16.581686 0 0 1 1.1908586,38.609015"
     style="fill:none;stroke:#000000;stroke-width:0.1;stroke-dasharray:none"
     id="path107" />
  <path
     style="fill:none;stroke:#0000ff;stroke-width:1;stroke-dasharray:none;stroke-opacity:1;stroke-linecap:round"
     id="path108"
     sodipodi:type="arc"
     sodipodi:cx="26.508333"
     sodipodi:cy="30.923195"
     sodipodi:rx="26.458334"
     sodipodi:ry="17.008089"
     sodipodi:start="0"
     sodipodi:end="3.1373423"
     sodipodi:open="true"
     sodipodi:arc-type="arc"
     d="M 52.966667,30.923195 A 26.458334,17.008089 0 0 1 26.564562,47.931246 26.458334,17.008089 0 0 1 0.05023823,30.995485" />
  <path
     sodipodi:cx="26.508333"
     sodipodi:cy="26.413084"
     sodipodi:rx="25.794968"
     sodipodi:ry="16.581686"
     sodipodi:type="arc"
     sodipodi:arc-type="arc"
     sodipodi:start="6.0904757"
     sodipodi:end="3.3343022"
     sodipodi:open="true"
     d="M 51.825808,23.237375 A 25.794968,16.581686 0 0 1 40.813217,40.211419 25.794968,16.581686 0 0 1 12.203451,40.21142 25.794968,16.581686 0 0 1 1.1908585,23.237376"
     style="fill:none;stroke:#000000;stroke-width:0.1;stroke-dasharray:none"
     id="path109" />
  <path
     sodipodi:cx="26.508333"
     sodipodi:cy="22.129128"
     sodipodi:rx="23.838135"
     sodipodi:ry="15.323857"
     sodipodi:type="arc"
     sodipodi:arc-type="arc"
     sodipodi:start="5.8672025"
     sodipodi:end="3.5575754"
     sodipodi:open="true"
     d="m 48.313543,15.936924 a 23.838135,15.323857 0 0 1 -7.14713,18.27667 23.838135,15.323857 0 0 1 -29.316159,10e-7 23.838135,15.323857 0 0 1 -7.147131,-18.276671"
     style="fill:none;stroke:#000000;stroke-width:0.1;stroke-dasharray:none"
     id="path110" />
  <path
     sodipodi:cx="26.508333"
     sodipodi:cy="18.286142"
     sodipodi:rx="20.685959"
     sodipodi:ry="13.297677"
     sodipodi:type="arc"
     sodipodi:arc-type="arc"
     sodipodi:start="5.550108"
     sodipodi:end="3.87467"
     sodipodi:open="true"
     d="M 41.880456,9.387874 A 20.685959,13.297677 0 0 1 40.878201,27.851571 20.685959,13.297677 0 0 1 12.138465,27.85157 20.685959,13.297677 0 0 1 11.136211,9.3878737"
     style="fill:none;stroke:#000000;stroke-width:0.1;stroke-dasharray:none"
     id="path111" />
  <ellipse
     style="fill:none;stroke:#000000;stroke-width:0.1;stroke-dasharray:none"
     id="path112"
     cx="26.508333"
     cy="15.076832"
     rx="16.496502"
     ry="10.604747" />
  <ellipse
     style="fill:none;stroke:#000000;stroke-width:0.1;stroke-dasharray:none"
     id="path113"
     cx="26.508333"
     cy="12.662126"
     rx="11.47984"
     ry="7.3800993" />
  <ellipse
     style="fill:none;stroke:#000000;stroke-width:0.1;stroke-dasharray:none"
     id="path114"
     cx="26.508333"
     cy="11.163103"
     rx="5.8875332"
     ry="3.7854333" />
  <circle
     style="fill:none;stroke:#000000;stroke-width:0.1;stroke-dasharray:none"
     id="path115"
     cx="26.508333"
     cy="30.923195"
     r="26.458334" />
  <ellipse
     style="display:inline;fill:none;stroke:#00ff00;stroke-width:1;stroke-linecap:round;stroke-dasharray:1, 3;stroke-dashoffset:0;stroke-opacity:0.19635628"
     transform="rotate(-60.479801)"
     id="path348"
     cx="-13.87208"
     cy="38.435394"
     rx="19.046934"
     ry="26.458334" />
  <path
     style="fill:none;stroke:#00ff00;stroke-width:1;stroke-linecap:round;stroke-dasharray:none;stroke-dashoffset:0;stroke-opacity:1"
     transform="rotate(-60.479801)"
     id="ellipse364"
     sodipodi:type="arc"
     sodipodi:cx="-13.814523"
     sodipodi:cy="38.402805"
     sodipodi:rx="19.046934"
     sodipodi:ry="26.458334"
     sodipodi:start="4.7112906"
     sodipodi:end="1.6155314"
     sodipodi:open="true"
     sodipodi:arc-type="arc"
     d="M -13.835444,11.944487 A 19.046934,26.458334 0 0 1 2.8139808,25.499859 19.046934,26.458334 0 0 1 2.3929553,52.301107 19.046934,26.458334 0 0 1 -14.666305,64.834669" />
  <path
     style="fill:none;stroke:#ff0000;stroke-width:1;stroke-linecap:round;stroke-dasharray:none;stroke-dashoffset:0;stroke-opacity:1"
     transform="rotate(13.1678)"
     id="ellipse363"
     sodipodi:type="arc"
     sodipodi:cx="32.869671"
     sodipodi:cy="24.05736"
     sodipodi:rx="6.9331532"
     sodipodi:ry="26.458334"
     sodipodi:start="1.5262405"
     sodipodi:end="4.7175873"
     sodipodi:open="true"
     sodipodi:arc-type="arc"
     d="M 33.178481,50.489435 A 6.9331532,26.458334 0 0 1 26.964684,37.922187 6.9331532,26.458334 0 0 1 26.826302,11.089948 6.9331532,26.458334 0 0 1 32.905711,-2.4006168" />
</svg>
