<?xml version="1.0" encoding="UTF-8" standalone="no"?>
<!-- Created with Inkscape (http://www.inkscape.org/) -->

<svg
   version="1.1"
   id="svg1"
   width="290.66666"
   height="290.66666"
   viewBox="0 0 290.66666 290.66666"
   sodipodi:docname="4-VD-2symm-black.svg"
   inkscape:version="1.3.2 (091e20e, 2023-11-25, custom)"
   xmlns:inkscape="http://www.inkscape.org/namespaces/inkscape"
   xmlns:sodipodi="http://sodipodi.sourceforge.net/DTD/sodipodi-0.dtd"
   xmlns="http://www.w3.org/2000/svg"
   xmlns:svg="http://www.w3.org/2000/svg">
  <defs
     id="defs1" />
  <sodipodi:namedview
     id="namedview1"
     pagecolor="#ffffff"
     bordercolor="#000000"
     borderopacity="0.25"
     inkscape:showpageshadow="2"
     inkscape:pageopacity="0.0"
     inkscape:pagecheckerboard="0"
     inkscape:deskcolor="#d1d1d1"
     inkscape:zoom="4.751147"
     inkscape:cx="145.33333"
     inkscape:cy="145.33333"
     inkscape:window-width="3840"
     inkscape:window-height="1577"
     inkscape:window-x="-8"
     inkscape:window-y="-8"
     inkscape:window-maximized="1"
     inkscape:current-layer="g1">
    <inkscape:page
       x="0"
       y="0"
       inkscape:label="1"
       id="page1"
       width="290.66666"
       height="290.66666"
       margin="0"
       bleed="0" />
  </sodipodi:namedview>
  <g
     id="g1"
     inkscape:groupmode="layer"
     inkscape:label="1">
    <path
       id="path1"
       d="m 370,1090 -1.801,0.6 -3,2.4 -6,3 -9.597,5.4 -12.602,7.2 -15,9 -18,10.2 -19.199,12 -20.403,12.6 -20.398,13.2 -20.398,13.2 -19.801,13.2 -18.602,13.2 -16.801,12.6 -15.597,12.6 -14.403,12 -13.199,12.6 -11.398,12 L 103,1279 93.3984,1291 85,1303.6 77.1992,1316.8 70,1330 l -6,13.2 -6,13.2 -4.8008,14.4 -4.8008,14.4 -4.7968,15.6 -3.6016,15.6 -3.6016,16.8 -3,17.4 -2.3984,18 -1.8008,18 L 28,1505.8 26.8008,1525 v 19.2 19.2 L 28,1583.2 29.1992,1603 31,1622.2 l 2.3984,19.2 3,18.6 3.6016,18.6 3.6016,18 4.7968,17.4 4.8008,16.8 4.8008,16.8 6,16.2 6,16.2 6.6016,15.6 7.1992,15.6 7.8008,15.6 7.7968,15.6 8.9996,15.6 9.602,15 10.199,15.6 10.801,15.6 11.398,15 12.602,15 12.602,14.4 13.199,15 13.801,13.8 13.796,13.8 15,13.2 14.403,12.6 15,12.6 15,11.4 15.597,10.8 15.602,10.2 15,9.6 15.602,9 15.597,7.8 15.602,7.8 15.597,7.2 15.602,6.6 16.199,6 16.199,6 16.801,4.8 16.801,4.8 17.398,4.8 18,3.6 18.602,3.6 18.602,3 19.199,2.4 19.199,1.8 19.801,1.2 19.801,1.2 H 635.801 655 l 19.199,-1.2 19.199,-1.2 18,-1.8 18,-2.4 17.403,-3 16.801,-3.6 15.597,-3.6 15.602,-4.8 14.398,-4.8 14.403,-4.8 13.199,-6 13.199,-6 13.199,-7.2 13.199,-7.8 12.602,-8.4 12,-9.6 12,-10.8 12,-11.4 12.602,-13.2 12,-14.4 12.597,-15.6 12.602,-16.8 13.199,-18.6 13.2,-19.8 13.2,-20.4 13.2,-20.4 12.6,-20.4 12,-19.2 10.2,-18 9,-15 7.2,-12.6 5.4,-9.6 3,-6 2.4,-3 0.6,-1.8"
       style="display:inline;fill:none;stroke:#000000;stroke-width:18;stroke-linecap:round;stroke-linejoin:bevel;stroke-miterlimit:10;stroke-dasharray:none;stroke-opacity:1"
       transform="matrix(0.13333333,0,0,-0.13333333,0,290.66667)" />
    <path
       id="path2"
       d="m 1090,1810 1.8,-0.6 3,-1.2 6.6,-2.4 9.6,-4.2 12.6,-4.8 15.6,-6 18.6,-7.8 20.4,-7.8 21.6,-9 21.6,-8.4 21.6,-9 21,-9 19.8,-8.4 19.2,-8.4 17.4,-7.8 16.8,-7.2 15,-7.2 14.4,-7.2 13.2,-6.6 12.6,-6.6 12,-6.6 12,-7.2 11.4,-6.6 12,-7.8 12,-7.8 11.4,-7.8 12,-8.4 12,-9 12,-9.6 11.4,-9.6 12,-10.2 12,-10.2 11.4,-11.4 11.4,-10.8 10.8,-11.4 11.4,-11.4 10.2,-12 10.2,-12 9.6,-11.4 9.6,-12 9,-12 8.4,-12 7.8,-11.4 7.8,-12 7.8,-12.6 6.6,-10.8 7.2,-12 6.6,-12 6.6,-12.6 6.6,-13.2 7.2,-14.4 7.2,-15 7.2,-16.8 7.8,-17.4 8.4,-19.2 8.4,-19.8 9,-21 9,-21.6 8.4,-21.6 9,-21.6 7.8,-20.4 7.8,-18.6 6,-15.6 4.8,-12.6 4.2,-9.6 2.4,-6.6 1.2,-3 0.6,-1.8"
       style="display:inline;fill:none;stroke:#000000;stroke-width:18;stroke-linecap:round;stroke-linejoin:bevel;stroke-miterlimit:10;stroke-dasharray:none;stroke-opacity:1"
       transform="matrix(0.13333333,0,0,-0.13333333,0,290.66667)" />
    <path
       id="path3"
       d="m 1810,1090 -1.8,-0.6 -3,-1.8 -6.6,-3.6 -9.6,-4.8 -12.6,-6.6 -15.6,-7.8 -18,-9.6 -20.4,-10.2 -21,-10.8 -21.6,-11.4 -21.6,-11.4 -20.4,-10.8 -19.8,-10.198 -18.6,-10.203 -17.4,-9.597 -16.2,-9 -14.4,-7.801 -13.8,-8.399 -13.2,-7.203 -12,-7.199 -10.8,-7.199 -11.4,-7.199 L 1480,910 1468.6,902.199 1457.8,895 1447,887.199 1436.8,879.402 1426,871 l -10.2,-8.398 -10.8,-9 -10.2,-9 -10.2,-9.602 -10.2,-9.598 -10.2,-9.601 -9.6,-10.199 -9.6,-10.2 -9.6,-10.203 -9,-10.199 -9,-10.801 L 1309,754 1300.6,743.199 1292.8,733 1285,722.199 1277.8,711.402 1270,700 l -6.6,-10.199 -7.2,-11.399 -7.2,-10.8 -7.2,-12 -7.2,-13.2 -8.4,-13.8 -7.8,-14.403 -9,-16.199 -9.6,-17.398 -10.2,-18.602 -10.2,-19.801 -10.8,-20.398 -11.4,-21.602 -11.4,-21.597 -10.8,-21 -10.2,-20.403 -9.6,-18 -7.8,-15.597 -6.6,-12.602 -4.8,-9.598 -3.6,-6.601 -1.8,-3 L 1090,370"
       style="display:inline;fill:none;stroke:#000000;stroke-width:18;stroke-linecap:round;stroke-linejoin:bevel;stroke-miterlimit:10;stroke-dasharray:none;stroke-opacity:1"
       transform="matrix(0.13333333,0,0,-0.13333333,0,290.66667)" />
    <path
       id="path4"
       d="m 1090,370 -1.8,-0.598 -3.6,-1.203 -6,-2.398 -9.6,-3 -13.2,-4.199 -15.6,-5.403 -19.2,-6 -20.4,-6.597 -21.6,-7.2 -22.199,-6.601 -22.199,-6.602 -21.602,-6 -21,-6 -19.199,-4.797 -18.602,-4.203 -17.398,-3.597 -16.199,-3 -15,-2.403 -15,-1.797 -13.801,-1.203 -13.199,-0.597 h -13.204 l -12.597,0.597 -14.403,1.801 -13.796,1.801 -14.403,2.398 -14.398,3 -14.403,3.602 -15,4.199 -15,5.402 -15,5.399 -15,6.601 -15,6.598 -15,7.199 L 562,343 l -14.398,8.402 -14.403,9 -13.199,9 -13.199,9 -13.199,9.598 -12,9.602 -11.403,9.597 -11.398,10.203 L 448,427 437.801,437.199 427,448 l -9.602,10.801 -10.199,11.398 -9.597,11.403 -9.602,12 -9.602,13.199 -9,13.199 -9,13.199 -9,14.403 L 343,562 l -7.801,14.402 -7.199,15 -6.602,15 -6.597,15 -5.403,15 -5.398,15 -4.199,15 -3.602,14.399 -3,14.398 -2.398,14.403 -1.801,13.8 -1.199,13.797 -1.199,13.203 v 13.2 l 0.597,13.199 1.199,13.801 1.801,15 2.403,15 3,16.199 3.597,17.398 4.199,18.602 4.801,19.199 6,21 6,21.602 6.602,22.199 6.597,22.199 7.204,21.6 6.597,20.4 6,19.2 5.403,15.6 4.199,13.2 3,9.6 2.398,6 1.199,3.6 0.602,1.8"
       style="display:inline;fill:none;stroke:#000000;stroke-width:18;stroke-linecap:round;stroke-linejoin:bevel;stroke-miterlimit:10;stroke-dasharray:none;stroke-opacity:1"
       transform="matrix(0.13333333,0,0,-0.13333333,0,290.66667)" />
    <path
       id="path5"
       d="m 550,1630 v 6.6 l 0.602,7.2 0.597,12 0.602,15 1.199,18 1.199,21 1.801,22.2 1.801,22.2 2.398,22.2 2.403,21.6 3,19.8 3,18 3.597,16.8 4.199,15 4.204,13.8 4.796,12 4.801,10.2 6,9.6 6.602,9 7.199,7.8 7.801,7.2 8.398,6.6 9.602,6 9.597,5.4 10.801,4.8 12,4.2 12,4.2 12.602,3 13.199,2.4 13.801,2.4 14.398,1.2 14.403,1.2 H 763 777.398 l 13.801,-1.2 13.801,-1.2 13.801,-1.8 13.199,-1.8 12.602,-3 12,-3 12,-3 11.398,-3.6 12,-4.2 12,-4.8 12,-5.4 11.398,-6.6 12,-6.6 12,-7.8 13.204,-9 13.199,-9.6 13.801,-10.8 14.998,-12 14.4,-12 14.4,-12.6 13.8,-12 12.6,-10.8 10.2,-9.6 8.4,-7.2 5.4,-4.8 3,-3 1.2,-1.2"
       style="display:none;fill:none;stroke:#ff0000;stroke-width:18;stroke-linecap:butt;stroke-linejoin:bevel;stroke-miterlimit:10;stroke-dasharray:none;stroke-dashoffset:0;stroke-opacity:1"
       transform="matrix(0.13333333,0,0,-0.13333333,0,290.66667)" />
    <path
       id="path6"
       d="m 370,1090 1.801,1.8 3.597,4.2 6.602,6.6 9.602,9.6 11.398,12.6 13.199,13.8 13.199,15 13.801,15 13.199,14.4 11.403,13.8 10.801,12.6 9.597,11.4 7.801,10.8 7.199,10.2 6.602,9.6 5.398,9.6 4.801,9 4.801,10.2 4.199,10.8 4.199,10.8 3,10.8 3,11.4 3,12 1.801,12 1.801,12 1.199,12 1.199,12 0.602,12 0.597,11.4 0.602,10.8 v 10.8 10.8 10.2 10.2 10.8 10.8 12 12.6 13.8 15 16.2 16.8 16.8 15 12.6 9.6 5.4 1.8 0.6"
       style="display:none;fill:none;stroke:#ff0000;stroke-width:18;stroke-linecap:round;stroke-linejoin:bevel;stroke-miterlimit:10;stroke-dasharray:none;stroke-dashoffset:0;stroke-opacity:1"
       transform="matrix(0.13333333,0,0,-0.13333333,0,290.66667)" />
    <path
       id="path7"
       d="m 1090,1810 0.6,1.8 2.4,3 3,6 5.4,9.6 7.2,12.6 9,15 10.2,18 12,19.2 12.6,20.4 13.2,20.4 13.2,20.4 13.2,19.8 13.2,18.6 12.6,16.8 12.6,15.6 12,14.4 12.6,13.2 12,11.4 12,10.8 12,9.6 12.6,8.4 13.2,7.8 13.2,7.2 13.2,6 13.2,6 14.4,4.8 14.4,4.8 15.6,4.8 15.6,3.6 16.8,3.6 17.4,3 18,2.4 18,1.8 19.2,1.2 19.2,1.2 h 19.2 19.2 l 19.8,-1.2 19.8,-1.2 19.2,-1.8 19.2,-2.4 18.6,-3 18.6,-3.6 18,-3.6 17.4,-4.8 16.8,-4.8 16.8,-4.8 16.2,-6 16.2,-6 15.6,-6.6 15.6,-7.2 15.6,-7.8 15.6,-7.8 15.6,-9 15,-9.6 15.6,-10.2 15.6,-10.8 15,-11.4 15,-12.6 14.4,-12.6 15,-13.2 13.8,-13.8 13.8,-13.8 13.2,-15 12.6,-14.4 12.6,-15 11.4,-15 10.8,-15.6 10.2,-15.6 9.6,-15 9,-15.6 7.8,-15.6 7.8,-15.6 7.2,-15.6 6.6,-15.6 6,-16.2 6,-16.2 4.8,-16.8 4.8,-16.8 4.8,-17.4 3.6,-18 3.6,-18.6 3,-18.6 2.4,-19.2 1.8,-19.2 1.2,-19.8 1.2,-19.8 v -19.2 -19.2 l -1.2,-19.2 -1.2,-19.2 -1.8,-18 -2.4,-18 -3,-17.4 -3.6,-16.8 -3.6,-15.6 -4.8,-15.6 -4.8,-14.4 -4.8,-14.4 -6,-13.2 -6,-13.2 -7.2,-13.2 -7.8,-13.2 -8.4,-12.6 -9.6,-12 -10.8,-12 -11.4,-12 -13.2,-12.6 -14.4,-12 -15.6,-12.6 -16.8,-12.6 -18.6,-13.2 -19.8,-13.2 -20.4,-13.2 -20.4,-13.2 -20.4,-12.6 -19.2,-12 -18,-10.2 -15,-9 -12.6,-7.2 -9.6,-5.4 -6,-3 -3,-2.4 -1.8,-0.6"
       style="display:none;fill:none;stroke:#ff0000;stroke-width:18;stroke-linecap:round;stroke-linejoin:bevel;stroke-miterlimit:10;stroke-dasharray:none;stroke-dashoffset:0;stroke-opacity:1"
       transform="matrix(0.13333333,0,0,-0.13333333,0,290.66667)" />
    <path
       id="path8"
       d="m 1810,1090 1.2,-1.2 3,-3 4.8,-5.4 7.2,-8.4 9.6,-10.2 10.8,-12.6 12,-13.8 12.6,-14.4 12,-14.4 12,-14.998 10.8,-13.801 9.6,-13.199 9,-13.2 7.8,-12 6.6,-12 6.6,-11.402 5.4,-12 4.8,-12 4.2,-12 3.6,-11.398 3,-12 3,-12 3,-12.602 1.8,-13.199 1.8,-13.801 1.2,-13.801 1.2,-13.797 V 763 748.602 l -1.2,-14.403 -1.2,-14.398 -2.4,-13.801 -2.4,-13.199 -3,-12.602 -4.2,-12 -4.2,-12 -4.8,-10.797 -5.4,-9.601 -6,-9.602 -6.6,-8.398 -7.2,-7.801 -7.8,-7.199 -9,-6.602 -9.6,-6 -10.2,-4.797 -12,-4.8 -13.8,-4.2 -15,-4.203 -16.8,-3.597 -18,-3 -19.8,-3 -21.6,-2.403 -22.2,-2.398 -22.2,-1.801 -22.2,-1.801 -21,-1.199 -18,-1.199 -15,-0.602 -12,-0.597 -7.2,-0.602 h -4.8 -1.8"
       style="display:none;fill:none;stroke:#ff0000;stroke-width:18;stroke-linecap:round;stroke-linejoin:bevel;stroke-miterlimit:10;stroke-dasharray:none;stroke-dashoffset:0;stroke-opacity:1"
       transform="matrix(0.13333333,0,0,-0.13333333,0,290.66667)" />
    <path
       id="path9"
       d="m 1630,550 h -211.8 l -10.8,-0.598 -11.4,-0.601 -12,-0.602 -12,-1.199 -12,-1.199 -12,-1.801 -12,-1.801 -12,-3 -11.4,-3 -10.8,-3 L 1291,529 1280.2,524.801 1270,520 l -9,-4.801 -9.6,-5.398 -9.6,-6.602 -10.2,-7.199 -10.8,-7.801 -11.4,-9.597 -12.6,-10.801 -13.8,-11.399 -14.4,-13.203 -15,-13.797 -15,-13.203 -13.8,-13.199 -12.6,-11.398 -9.6,-9.602 -6.6,-6.598 -4.2,-3.601 L 1090,370"
       style="display:none;fill:none;stroke:#ff0000;stroke-width:18;stroke-linecap:round;stroke-linejoin:bevel;stroke-miterlimit:10;stroke-dasharray:none;stroke-dashoffset:0;stroke-opacity:1"
       transform="matrix(0.13333333,0,0,-0.13333333,0,290.66667)" />
    <path
       id="path10"
       d="m 1090,370 -0.6,1.801 -1.8,3 -3.6,6.601 -4.8,9.598 -6.6,12.602 -7.8,15.597 -9.6,18 -10.2,20.403 -10.8,21 -11.4,21.597 -11.4,21.602 -10.8,20.398 -10.202,19.801 -10.199,18.602 -9.597,17.398 -9,16.199 -7.801,14.403 -8.403,13.8 -7.199,13.2 -7.199,12 -7.199,10.8 -7.199,11.399 L 910,700 902.199,711.402 895,722.199 887.199,733 879.398,743.199 871,754 l -8.398,10.199 -9,10.801 -9,10.199 -9.602,10.203 -9.602,10.2 -9.597,10.199 -10.199,9.601 -10.204,9.598 -10.199,9.602 -10.199,9 -10.801,9 L 754,871 743.199,879.402 733,887.199 722.199,895 711.398,902.199 700,910 l -10.199,6.602 -11.403,7.199 -10.796,7.199 -12,7.199 -13.204,7.203 -13.796,8.399 -14.403,7.801 -16.199,9 -17.398,9.597 -18.602,10.203 -19.801,10.198 -20.398,10.8 -21.602,11.4 -21.597,11.4 -21,10.8 -20.403,10.2 -18,9.6 -15.597,7.8 -12.602,6.6 -9.602,4.8 -6.597,3.6 -3,1.8 -1.801,0.6"
       style="display:none;fill:none;stroke:#ff0000;stroke-width:18;stroke-linecap:round;stroke-linejoin:bevel;stroke-miterlimit:10;stroke-dasharray:none;stroke-dashoffset:0;stroke-opacity:1"
       transform="matrix(0.13333333,0,0,-0.13333333,0,290.66667)" />
    <path
       id="path11"
       d="m 370,1090 -1.199,1.2 -3,3 -4.801,5.4 -7.199,8.4 -9.602,10.2 -10.801,12.6 -12,13.8 -12.597,14.4 -12,14.4 -12,15 -10.801,13.8 -9.602,13.2 -9,13.2 -7.796,12 -6.602,12 -6.602,11.4 -5.398,12 -4.801,12 -4.199,12 -3.602,11.4 -3,12 -3,12 -3,12.6 -1.796,13.2 -1.801,13.8 -1.199,13.8 -1.204,13.8 v 14.4 14.4 l 1.204,14.4 1.199,14.4 2.398,13.8 2.403,13.2 3,12.6 4.199,12 4.199,12 4.801,10.8 5.398,9.6 6,9.6 6.602,8.4 7.199,7.8 7.801,7.2 9,6.6 9.597,6 10.204,4.8 12,4.8 13.796,4.2 15,4.2 16.801,3.6 18,3 19.801,3 21.602,2.4 22.199,2.4 22.199,1.8 22.199,1.8 21,1.2 18,1.2 15,0.6 12,0.6 7.199,0.6 h 4.801 1.801"
       style="display:none;fill:none;stroke:#0000ff;stroke-width:18.9;stroke-linecap:round;stroke-linejoin:bevel;stroke-miterlimit:10;stroke-dasharray:none;stroke-dashoffset:27;stroke-opacity:1"
       transform="matrix(0.13333333,0,0,-0.13333333,0,290.66667)" />
    <path
       id="path12"
       d="m 550,1630 h 211.801 l 10.801,0.6 11.398,0.6 12,0.6 12,1.2 12,1.2 12,1.8 12,1.8 12,3 11.398,3 10.801,3 10.801,4.2 10.801,4.2 10.199,4.8 9,4.8 9.602,5.4 9.597,6.6 10.199,7.2 10.801,7.8 11.403,9.6 12.597,10.8 13.801,11.4 14.4,13.2 15,13.8 15,13.2 13.8,13.2 12.6,11.4 9.6,9.6 6.6,6.6 4.2,3.6 1.8,1.8"
       style="display:none;fill:none;stroke:#0000ff;stroke-width:18.9;stroke-linecap:round;stroke-linejoin:bevel;stroke-miterlimit:10;stroke-dasharray:none;stroke-dashoffset:27;stroke-opacity:1"
       transform="matrix(0.13333333,0,0,-0.13333333,0,290.66667)" />
    <path
       id="path13"
       d="m 1090,1810 0.6,-1.8 1.8,-3 3.6,-6.6 4.8,-9.6 6.6,-12.6 7.8,-15.6 9.6,-18 10.2,-20.4 10.8,-21 11.4,-21.6 11.4,-21.6 10.8,-20.4 10.2,-19.8 10.2,-18.6 9.6,-17.4 9,-16.2 7.8,-14.4 8.4,-13.8 7.2,-13.2 7.2,-12 7.2,-10.8 7.2,-11.4 6.6,-10.2 7.8,-11.4 7.2,-10.8 7.8,-10.8 7.8,-10.2 8.4,-10.8 8.4,-10.2 9,-10.8 9,-10.2 9.6,-10.2 9.6,-10.2 9.6,-10.2 10.2,-9.6 10.2,-9.6 10.2,-9.6 10.2,-9 10.8,-9 10.2,-8.4 10.8,-8.4 10.2,-7.8 10.8,-7.8 10.8,-7.2 11.4,-7.8 10.2,-6.6 11.4,-7.2 10.8,-7.2 12,-7.2 13.2,-7.2 13.8,-8.4 14.4,-7.8 16.2,-9 17.4,-9.6 18.6,-10.2 19.8,-10.2 20.4,-10.8 21.6,-11.4 21.6,-11.4 21,-10.8 20.4,-10.2 18,-9.6 15.6,-7.8 12.6,-6.6 9.6,-4.8 6.6,-3.6 3,-1.8 1.8,-0.6"
       style="display:none;fill:none;stroke:#0000ff;stroke-width:18.9;stroke-linecap:round;stroke-linejoin:bevel;stroke-miterlimit:10;stroke-dasharray:none;stroke-dashoffset:27;stroke-opacity:1"
       transform="matrix(0.13333333,0,0,-0.13333333,0,290.66667)" />
    <path
       id="path14"
       d="m 1810,1090 1.8,-0.6 3,-2.4 6,-3 9.6,-5.4 12.6,-7.2 15,-9 18,-10.2 19.2,-12 20.4,-12.6 20.4,-13.2 20.4,-13.2 19.8,-13.2 18.6,-13.199 16.8,-12.602 15.6,-12.597 14.4,-12 13.2,-12.602 11.4,-12 10.8,-12 9.6,-12 8.4,-12.598 7.8,-13.203 7.2,-13.199 6,-13.199 6,-13.199 4.8,-14.403 4.8,-14.398 4.8,-15.602 3.6,-15.597 3.6,-16.801 3,-17.399 2.4,-18 1.8,-18 1.2,-19.203 1.2,-19.199 v -19.199 -19.199 l -1.2,-19.801 -1.2,-19.801 -1.8,-19.199 -2.4,-19.199 -3,-18.602 -3.6,-18.598 -3.6,-18 -4.8,-17.402 -4.8,-16.801 -4.8,-16.797 -6,-16.203 -6,-16.199 -6.6,-15.598 -7.2,-15.601 -7.8,-15.602 -7.8,-15.597 -9,-15.602 -9.6,-15 -10.2,-15.598 -10.8,-15.601 -11.4,-15 -12.6,-15 -12.6,-14.399 -13.2,-15 -13.8,-13.8 -13.8,-13.801 -15,-13.199 L 1934.2,163 1919.2,150.402 1904.2,139 1888.6,128.199 1873,118 l -15,-9.598 -15.6,-8.9997 -15.6,-7.8007 -15.6,-7.8008 -15.6,-7.1992 L 1780,70 l -16.2,-6 -16.2,-6 -16.8,-4.8008 -16.8,-4.7969 -17.4,-4.8007 -18,-3.6016 -18.6,-3.5977 -18.6,-3 L 1622.2,31 1603,29.1992 1583.2,28 1563.4,26.8008 H 1544.2 1525 L 1505.8,28 l -19.2,1.1992 -18,1.8008 -18,2.4023 -17.4,3 -16.8,3.5977 -15.6,3.6016 -15.6,4.8007 -14.4,4.7969 -14.4,4.8008 -13.2,6 -13.2,6 -13.2,7.1992 L 1303.6,85 1291,93.4023 1279,103 l -12,10.801 -12,11.398 -12.6,13.203 -12,14.399 -12.6,15.601 -12.6,16.797 -13.2,18.602 -13.2,19.801 -13.2,20.398 -13.2,20.402 -12.6,20.399 -12,19.199 -10.2,18 -9,15 -7.2,12.602 -5.4,9.597 -3,6 -2.4,3 -0.6,1.801"
       style="display:none;fill:none;stroke:#0000ff;stroke-width:18.9;stroke-linecap:round;stroke-linejoin:bevel;stroke-miterlimit:10;stroke-dasharray:none;stroke-dashoffset:27;stroke-opacity:1"
       transform="matrix(0.13333333,0,0,-0.13333333,0,290.66667)" />
    <path
       id="path15"
       d="m 1090,370 -1.8,0.602 -3,1.199 -6.6,2.398 -9.6,4.203 -12.6,4.797 -15.6,6 -18.6,7.801 -20.4,7.801 -21.601,9 -21.597,8.398 -21.602,9 -21,9 -19.801,8.403 L 877,457 l -17.398,7.801 -16.801,7.199 -15,7.199 -14.403,7.203 -13.199,6.598 -12.597,6.602 -12,6.597 -12,7.203 -10.801,6.598 -12.602,7.801 -12,7.801 -11.398,7.8 -12,8.399 -12,9 -12,9.601 -11.403,9.598 -12,10.199 -12,10.203 L 634,611.801 622.602,622.602 611.801,634 l -11.403,11.402 -10.199,12 -10.199,12 -9.602,11.399 -9.597,12 -9,12 -8.403,12 -7.796,11.398 -7.801,12 -7.801,12 -6.602,11.403 -7.199,12 -6.597,12 -6.602,12.597 -6.602,13.203 -7.199,14.399 -7.199,15 -7.199,16.801 L 457,877 l -8.398,19.199 -8.403,19.801 -9,21 -9,21.602 -8.398,21.597 -9,21.601 -7.801,20.4 -7.801,18.6 -6,15.6 -4.801,12.6 -4.199,9.6 -2.398,6.6 -1.199,3 -0.602,1.8"
       style="display:none;fill:none;stroke:#0000ff;stroke-width:18.9;stroke-linecap:round;stroke-linejoin:bevel;stroke-miterlimit:10;stroke-dasharray:none;stroke-dashoffset:27;stroke-opacity:1"
       transform="matrix(0.13333333,0,0,-0.13333333,0,290.66667)" />
    <path
       id="path16"
       d="m 1090,370 -0.6,-1.801 -2.4,-3 -3,-6 -5.4,-9.597 -7.2,-12.602 -9,-15 -10.2,-18 -12,-19.199 -12.6,-20.399 L 1014.4,244 1001.2,223.602 988,203.801 974.801,185.199 962.199,168.402 949.602,152.801 937.602,138.402 925,125.199 913,113.801 901,103 889,93.4023 876.398,85 863.199,77.1992 850,70 836.801,64 823.602,58 809.199,53.1992 794.801,48.4023 779.199,43.6016 763.602,40 l -16.801,-3.5977 -17.403,-3 -18,-2.4023 -18,-1.8008 L 674.199,28 655,26.8008 H 635.801 616.602 L 596.801,28 577,29.1992 557.801,31 538.602,33.4023 520,36.4023 501.398,40 l -18,3.6016 L 466,48.4023 449.199,53.1992 432.398,58 416.199,64 400,70 384.398,76.6016 368.801,83.8008 353.199,91.6016 337.602,99.4023 322,108.402 307,118 291.398,128.199 275.801,139 l -15,11.402 -15,12.598 -14.403,12.602 -15,13.199 -13.796,13.801 -13.801,13.8 -13.199,15 -12.602,14.399 -12.602,15 -11.398,15 -10.801,15.601 L 118,307 l -9.602,15 -8.9996,15.602 -7.7968,15.597 -7.8008,15.602 -7.1992,15.601 L 70,400 64,416.199 58,432.402 53.1992,449.199 48.3984,466 43.6016,483.402 40,501.402 36.3984,520 l -3,18.602 L 31,557.801 29.1992,577 28,596.801 26.8008,616.602 V 635.801 655 L 28,674.199 l 1.1992,19.203 1.8008,18 2.3984,18 3,17.399 3.6016,16.801 3.6016,15.597 4.7968,15.602 4.8008,14.398 L 58,823.602 64,836.801 70,850 77.1992,863.199 85,876.402 93.3984,889 103,901 l 10.801,12 11.398,12 13.199,12.602 14.403,12 15.597,12.597 16.801,12.602 18.602,13.199 19.801,13.2 20.398,13.2 20.398,13.2 20.403,12.6 19.199,12 18,10.2 15,9 12.602,7.2 9.597,5.4 6,3 3,2.4 1.801,0.6"
       style="display:none;fill:none;stroke:#00ff00;stroke-width:18;stroke-linecap:round;stroke-linejoin:bevel;stroke-miterlimit:10;stroke-dasharray:none;stroke-opacity:1"
       transform="matrix(0.13333333,0,0,-0.13333333,0,290.66667)" />
    <path
       id="path17"
       d="m 370,1090 1.801,0.6 3,1.8 6.597,3.6 9.602,4.8 12.602,6.6 15.597,7.8 18,9.6 20.403,10.2 21,10.8 21.597,11.4 21.602,11.4 20.398,10.8 19.801,10.2 18.602,10.2 17.398,9.6 16.199,9 14.403,7.8 13.796,8.4 13.204,7.2 12,7.2 10.796,7.2 11.403,7.2 10.199,6.6 11.398,7.8 10.801,7.2 10.801,7.8 10.199,7.8 10.801,8.4 10.199,8.4 10.801,9 10.199,9 10.199,9.6 10.204,9.6 10.199,9.6 9.597,10.2 9.602,10.2 9.602,10.2 9,10.2 9,10.8 8.398,10.2 8.398,10.8 7.801,10.2 7.801,10.8 7.199,10.8 7.801,11.4 6.602,10.2 7.199,11.4 7.199,10.8 7.199,12 7.199,13.2 8.403,13.8 7.801,14.4 9,16.2 9.597,17.4 10.199,18.6 10.202,19.8 10.8,20.4 11.4,21.6 11.4,21.6 10.8,21 10.2,20.4 9.6,18 7.8,15.6 6.6,12.6 4.8,9.6 3.6,6.6 1.8,3 0.6,1.8"
       style="display:none;fill:none;stroke:#00ff00;stroke-width:18;stroke-linecap:round;stroke-linejoin:bevel;stroke-miterlimit:10;stroke-dasharray:none;stroke-opacity:1"
       transform="matrix(0.13333333,0,0,-0.13333333,0,290.66667)" />
    <path
       id="path18"
       d="m 1090,1810 1.8,0.6 3.6,1.2 6,2.4 9.6,3 13.2,4.2 15.6,5.4 19.2,6 20.4,6.6 21.6,7.2 22.2,6.6 22.2,6.6 21.6,6 21,6 19.2,4.8 18.6,4.2 17.4,3.6 16.2,3 15,2.4 15,1.8 13.8,1.2 13.2,0.6 h 13.2 l 13.2,-1.2 13.8,-1.2 13.8,-1.8 14.4,-2.4 14.4,-3 14.4,-3.6 15,-4.2 15,-5.4 15,-5.4 15,-6.6 15,-6.6 15,-7.2 14.4,-7.8 14.4,-8.4 14.4,-9 13.2,-9 13.2,-9 13.2,-9.6 12,-9.6 11.4,-9.6 11.4,-10.2 10.8,-9.6 10.8,-10.8 10.2,-10.2 9.6,-10.8 10.2,-11.4 9.6,-11.4 9.6,-12 9.6,-13.2 9,-13.2 9,-13.2 9,-14.4 8.4,-14.4 7.8,-14.4 7.2,-15 6.6,-15 6.6,-15 5.4,-15 5.4,-15 4.2,-15 3.6,-14.4 3,-14.4 2.4,-14.4 1.8,-13.8 1.8,-14.4 0.6,-12.6 v -13.2 l -0.6,-13.2 -1.2,-13.8 -1.8,-15 -2.4,-15 -3,-16.2 -3.6,-17.4 -4.2,-18.6 -4.8,-19.2 -6,-21 -6,-21.6 -6.6,-22.2 -6.6,-22.2 -7.2,-21.6 -6.6,-20.4 -6,-19.2 -5.4,-15.6 -4.2,-13.2 -3,-9.6 -2.4,-6 -1.2,-3.6 -0.6,-1.8"
       style="display:none;fill:none;stroke:#00ff00;stroke-width:18;stroke-linecap:round;stroke-linejoin:bevel;stroke-miterlimit:10;stroke-dasharray:none;stroke-opacity:1"
       transform="matrix(0.13333333,0,0,-0.13333333,0,290.66667)" />
    <path
       id="path19"
       d="m 1630,550 v -6.598 l -0.6,-7.203 -0.6,-12 -0.6,-15 -1.2,-18 -1.2,-21 -1.8,-22.199 -1.8,-22.199 -2.4,-22.199 -2.4,-21.602 -3,-19.801 -3,-18 -3.6,-16.797 -4.2,-15 -4.2,-13.8 -4.8,-12 -4.8,-10.2 -6,-9.601 -6.6,-9 -7.2,-7.801 -7.8,-7.199 -8.4,-6.602 -9.6,-6 -9.6,-5.398 -10.8,-4.801 -12,-4.199 -12,-4.199 -12.6,-3 -13.2,-2.403 -13.8,-2.398 -14.4,-1.199 -14.4,-1.2 h -14.4 -14.4 l -13.8,1.2 -13.8,1.199 -13.8,1.801 -13.2,1.8 -12.6,3 -12,3 -12,3 -11.4,3.598 -12,4.199 -12,4.801 -12,5.402 -11.4,6.598 -12,6.602 -12,7.8 -13.2,9 -13.2,9.598 -13.8,10.801 -15,12 -14.4,12 -14.4,12.601 -13.8,12 -12.6,10.797 -10.2,9.602 -8.4,7.199 -5.4,4.801 -3,3 -1.2,1.199"
       style="display:none;fill:none;stroke:#00ff00;stroke-width:18;stroke-linecap:round;stroke-linejoin:bevel;stroke-miterlimit:10;stroke-dasharray:none;stroke-opacity:1"
       transform="matrix(0.13333333,0,0,-0.13333333,0,290.66667)" />
    <path
       id="path20"
       d="m 1810,1090 -1.8,-1.8 -3.6,-4.2 -6.6,-6.6 -9.6,-9.6 -11.4,-12.6 -13.2,-13.8 -13.2,-15 -13.8,-15 -13.2,-14.4 -11.4,-13.801 -10.8,-12.597 -9.6,-11.403 -7.8,-10.797 -7.2,-10.203 -6.6,-9.597 -5.4,-9.602 -4.8,-9 -4.8,-10.199 -4.2,-10.801 -4.2,-10.801 -3,-10.797 -3,-11.402 -3,-12 -1.8,-12 -1.8,-12 -1.2,-12 -1.2,-12 -0.6,-12 -0.6,-11.398 -0.6,-10.801 V 751 740.199 730 719.801 709 v -10.801 -12 -12.597 -13.801 -15 -16.199 -16.801 -16.801 -15 -12.598 -9.601 -5.399 -1.8 V 550"
       style="display:none;fill:none;stroke:#00ff00;stroke-width:18;stroke-linecap:round;stroke-linejoin:bevel;stroke-miterlimit:10;stroke-dasharray:none;stroke-opacity:1"
       transform="matrix(0.13333333,0,0,-0.13333333,0,290.66667)" />
    <path
       id="path21"
       d="M 5.719013,8.9292525 9.6607091,6.9047373 H 10.042164 V 21.27712 c 0,0.949515 0.03576,1.5393 0.111257,1.773541 0.08344,0.234242 0.242382,0.418289 0.476818,0.55214 0.242382,0.125487 0.731121,0.192414 1.462242,0.200779 v 0.468483 H 6.0051039 V 23.80358 C 6.7680128,23.79518 7.2607249,23.72829 7.48324,23.602801 7.7057551,23.481498 7.8567474,23.318365 7.944164,23.117588 8.039527,22.908444 8.0872095,22.29356 8.0872095,21.27712 v -9.185609 c 0,-1.238134 -0.043709,-2.032881 -0.1271515,-2.3926089 C 7.9044287,9.4311976 7.8050922,9.238786 7.6580732,9.113299 7.5070808,8.9919967 7.3322476,8.9292525 7.1335734,8.9292525 c -0.2980114,0 -0.7112537,0.1296689 -1.239727,0.3848247 z M 278.74505,10.485284 c 0.46489,-1.1377444 1.04898,-2.0161491 1.74833,-2.6435812 0.69932,-0.6232487 1.57349,-0.9369655 2.62248,-0.9369655 1.30331,0 2.29668,0.4433856 2.98808,1.3217903 0.51655,0.6692612 0.7788,1.3803512 0.7788,2.1249044 0,1.238133 -0.73908,2.522278 -2.20927,3.848251 0.99337,0.401557 1.74834,0.98716 2.25694,1.756811 0.50861,0.761285 0.76292,1.652238 0.76292,2.677044 0,1.472375 -0.44503,2.752337 -1.33509,3.831521 -1.16821,1.405447 -2.85297,2.108172 -5.05429,2.108172 -1.08077,0 -1.82381,-0.142218 -2.22513,-0.418288 -0.39339,-0.288619 -0.58808,-0.59397 -0.58808,-0.920234 0,-0.242608 0.0953,-0.455934 0.28609,-0.635798 0.19073,-0.18823 0.41324,-0.284436 0.66754,-0.284436 0.19869,0 0.4053,0.03346 0.61986,0.100387 0.12709,0.04601 0.42915,0.200778 0.90596,0.468482 0.47682,0.259339 0.8106,0.409922 1.00131,0.451752 0.2861,0.100387 0.59604,0.150584 0.93775,0.150584 0.80266,0 1.50992,-0.326266 2.11389,-0.987161 0.60396,-0.669261 0.90595,-1.455643 0.90595,-2.359145 0,-0.656713 -0.14304,-1.296693 -0.42913,-1.924126 -0.20265,-0.468483 -0.42515,-0.824028 -0.66754,-1.070818 -0.34968,-0.33463 -0.82252,-0.635798 -1.41457,-0.903502 -0.59601,-0.27607 -1.20396,-0.418289 -1.8278,-0.418289 h -0.38145 v -0.368092 c 0.63576,-0.08784 1.26357,-0.326266 1.89138,-0.719457 0.63575,-0.389007 1.09668,-0.85749 1.38276,-1.405449 0.2861,-0.556321 0.42915,-1.171207 0.42915,-1.840468 0,-0.85749 -0.26226,-1.5476662 -0.77881,-2.0747084 -0.5086,-0.5354089 -1.14436,-0.8031133 -1.90727,-0.8031133 -1.23178,0 -2.25693,0.6943582 -3.08343,2.0747097 z m 3.84632,267.503666 -1.12847,3.27938 h -9.53636 v -0.46847 c 2.80528,-2.68542 4.78408,-4.88563 5.92845,-6.59223 1.14436,-1.70661 1.71653,-3.26684 1.71653,-4.68483 0,-1.07919 -0.31787,-1.96594 -0.95363,-2.66031 -0.62781,-0.69018 -1.37483,-1.03736 -2.24105,-1.03736 -0.7947,0 -1.50992,0.2468 -2.14568,0.73619 -0.62781,0.48104 -1.09271,1.1963 -1.39866,2.14164 h -0.44503 c 0.19867,-1.54766 0.70728,-2.7356 1.52582,-3.56382 0.82648,-0.82403 1.85958,-1.23814 3.09931,-1.23814 1.3033,0 2.39203,0.44758 3.27415,1.33852 0.87814,0.88259 1.31919,1.92413 1.31919,3.12881 0,0.86166 -0.19071,1.71917 -0.57217,2.57664 -0.5841,1.36362 -1.53773,2.80255 -2.86092,4.31674 -1.98276,2.27549 -3.21852,3.64748 -3.70329,4.11595 h 4.2119 c 0.85827,0 1.46225,-0.0335 1.81192,-0.10045 0.34966,-0.067 0.6596,-0.20077 0.93773,-0.40156 0.27418,-0.20914 0.51655,-0.50613 0.73113,-0.88676 z m -262.26583,3.42996 v 1.77355 h -2.177469 v 4.50077 h -1.954955 v -4.50077 H 9.3428304 v -1.60622 l 7.5019366,-11.26032 h 1.303304 v 11.09299 z m -4.132424,0 v -8.44942 l -5.674135,8.44942 z m 0,0"
       style="display:none;fill:#000000;fill-opacity:1;fill-rule:nonzero;stroke:none;stroke-width:1.39156"
       aria-label="13&#10;2&#10;4" />
  </g>
</svg>
