<?xml version="1.0" encoding="UTF-8" standalone="no"?>
<!-- Created with Inkscape (http://www.inkscape.org/) -->

<svg
   version="1.1"
   id="svg1"
   width="650.66669"
   height="512"
   viewBox="0 0 650.66669 512"
   sodipodi:docname="4venn_coverC2.svg"
   inkscape:version="1.3.2 (091e20e, 2023-11-25, custom)"
   xmlns:inkscape="http://www.inkscape.org/namespaces/inkscape"
   xmlns:sodipodi="http://sodipodi.sourceforge.net/DTD/sodipodi-0.dtd"
   xmlns="http://www.w3.org/2000/svg"
   xmlns:svg="http://www.w3.org/2000/svg">
  <defs
     id="defs1" />
  <sodipodi:namedview
     id="namedview1"
     pagecolor="#ffffff"
     bordercolor="#000000"
     borderopacity="0.25"
     inkscape:showpageshadow="2"
     inkscape:pageopacity="0.0"
     inkscape:pagecheckerboard="0"
     inkscape:deskcolor="#d1d1d1"
     inkscape:zoom="2.6972656"
     inkscape:cx="325.32947"
     inkscape:cy="256"
     inkscape:window-width="3840"
     inkscape:window-height="1577"
     inkscape:window-x="-8"
     inkscape:window-y="-8"
     inkscape:window-maximized="1"
     inkscape:current-layer="g1">
    <inkscape:page
       x="0"
       y="0"
       inkscape:label="1"
       id="page1"
       width="650.66669"
       height="512"
       margin="0"
       bleed="0"
       inkscape:export-filename="4venn_coverC2.pdf"
       inkscape:export-xdpi="96"
       inkscape:export-ydpi="96" />
  </sodipodi:namedview>
  <g
     id="g1"
     inkscape:groupmode="layer"
     inkscape:label="1">
    <path
       id="path1"
       d="m 637,495 h 60.602 l 16.199,0.602 h 62.398 l 25.199,0.597 H 829 l 29.398,0.602 31.801,0.601 h 34.199 l 35.403,0.598 37.199,0.602 38.4,1.199 40.2,0.601 41.4,1.2 42.6,0.597 43.2,1.203 44.4,1.2 45,1.8 46.2,1.2 46.2,1.8 46.8,1.797 47.4,2.403 47.4,2.398 48,2.402 48.6,2.399 48.6,3 48.6,3.601 49.2,3 49.8,4.2 49.2,3.597 50.4,4.801 50.4,4.801 50.4,4.801 51,5.398 51.6,6 51.6,6.602 52.2,6.597 52.8,7.199 52.8,7.801 53.4,8.403 53.4,9 53.4,9.597 52.8,10.199 53.4,10.801 52.2,10.801 51.6,12 50.4,12 67.2,17.398 63,18 59.4,18.602 55.2,18.602 51,18.597 46.8,18.602 43.2,18.597 39,18 36,18 32.4,18 29.4,18 27,18 24,17.403 22.2,17.398 19.8,17.403 18,16.796 16.2,17.403 15,16.801 13.2,16.798 11.4,16.8 10.8,16.2 9.6,15.6 8.4,15.6 7.8,15.6 6.6,14.4 5.4,13.8 5.4,13.2 4.2,12 3.6,11.4 3,10.8 3,9 1.8,8.4 1.8,7.2 1.2,6 1.2,4.8 0.6,3.6 0.6,3 v 1.8 l 0.6,1.2 v 1.2"
       style="fill:none;stroke:#ff0000;stroke-width:9;stroke-linecap:butt;stroke-linejoin:bevel;stroke-miterlimit:10;stroke-dasharray:none;stroke-opacity:1"
       transform="matrix(0.13333333,0,0,-0.13333333,0,512)" />
    <path
       id="path2"
       d="m 637,3375 h 6.602 l 4.199,0.6 h 13.801 l 10.199,0.6 h 11.398 l 14.403,0.6 h 16.199 l 18,0.6 21,0.6 23.398,0.6 25.199,0.6 27.602,0.6 29.398,0.6 31.801,0.6 h 34.199 l 35.403,0.6 37.199,0.6 38.4,0.6 h 40.2 l 41.4,0.6 h 42.6 43.2 44.4 45 46.2 l 46.2,-0.6 46.8,-0.6 47.4,-1.2 47.4,-0.6 48,-1.2 48.6,-1.8 48.6,-1.8 48.6,-1.8 49.2,-2.4 49.8,-3 49.2,-2.4 50.4,-3.6 50.4,-3.6 50.4,-4.2 51,-4.8 51.6,-4.8 51.6,-5.4 52.2,-6 52.8,-6.6 52.8,-7.2 53.4,-7.8 53.4,-8.4 53.4,-9 52.8,-9.6 53.4,-10.2 52.2,-11.4 51.6,-11.4 50.4,-12 64.2,-16.8 60.6,-17.4 57,-18 53.4,-18 49.2,-18.6 45.6,-18.6 42.6,-18.6 38.4,-18.6 35.4,-18.6 32.4,-18.6 29.4,-18 27,-18.6 24.6,-18 22.2,-18 20.4,-18 18.6,-18 16.8,-18 15,-18 13.8,-18 12.6,-17.4 10.8,-17.4 10.2,-17.4 9,-16.8 8.4,-16.8 7.2,-16.2 6.6,-15.6 5.4,-14.4 5.4,-14.4 4.2,-13.8 3.6,-12 3,-12 3,-10.2 1.8,-9.6 1.8,-7.8 1.8,-7.2 1.2,-6 0.6,-4.8 0.6,-3.6 0.6,-3 0.6,-1.8 v -1.2 -1.2"
       style="fill:none;stroke:#00ff00;stroke-width:9;stroke-linecap:butt;stroke-linejoin:bevel;stroke-miterlimit:10;stroke-dasharray:none;stroke-opacity:1"
       transform="matrix(0.13333333,0,0,-0.13333333,0,512)" />
    <path
       id="path3"
       d="m 637,495 h 21 l 9,0.602 h 11.398 l 13.204,0.597 15.597,0.602 16.801,0.601 18.602,0.598 20.398,1.199 21.602,1.203 22.796,1.797 24,1.801 25.204,2.402 25.796,2.399 26.403,3 27,3.601 27.597,4.2 28.801,4.8 29.401,4.797 30,6 30.6,7.199 31.8,7.801 32.4,8.403 34.2,10.199 34.8,10.801 36,12.597 37.2,13.199 39,15.602 39,16.801 40.2,18 40.2,19.199 39.6,20.398 38.4,21 37.2,21.602 35.4,22.199 33,21.602 31.8,21.597 30,21 27.6,21 27,21 25.2,21 24,20.403 22.8,20.398 21.6,20.403 21,19.796 19.8,19.801 19.2,19.801 18,19.2 18,19.2 16.8,18.6 15.6,18 15,17.4 13.8,16.2 13.2,15.6 12,14.4 10.8,13.2 9.6,12 7.8,10.2 7.2,9 6,7.2 4.2,6 3.6,4.2 2.4,3 1.2,1.8 0.6,1.2 0.6,0.6"
       style="fill:none;stroke:#00ff00;stroke-width:9;stroke-linecap:butt;stroke-linejoin:bevel;stroke-miterlimit:10;stroke-dasharray:none;stroke-opacity:1"
       transform="matrix(0.13333333,0,0,-0.13333333,0,512)" />
    <path
       id="path4"
       d="m 3517,2655 720,-720"
       style="fill:none;stroke:#0000ff;stroke-width:9;stroke-linecap:butt;stroke-linejoin:miter;stroke-miterlimit:10;stroke-dasharray:none;stroke-opacity:1"
       transform="matrix(0.13333333,0,0,-0.13333333,0,512)" />
    <path
       id="path5"
       d="M 4237,1935 3517,1215"
       style="fill:#ffffff;fill-opacity:1;fill-rule:evenodd;stroke:#ffd600;stroke-width:9;stroke-linecap:butt;stroke-linejoin:miter;stroke-miterlimit:10;stroke-dasharray:none;stroke-opacity:1"
       transform="matrix(0.13333333,0,0,-0.13333333,0,512)" />
    <path
       id="path6"
       d="M 1357,1215 637,495"
       style="fill:#ffffff;fill-opacity:1;fill-rule:evenodd;stroke:#ffd600;stroke-width:9;stroke-linecap:butt;stroke-linejoin:miter;stroke-miterlimit:10;stroke-dasharray:none;stroke-opacity:1"
       transform="matrix(0.13333333,0,0,-0.13333333,0,512)" />
    <path
       id="path7"
       d="m 637,3375 720,-720"
       style="fill:#ffffff;fill-opacity:1;fill-rule:evenodd;stroke:#0000ff;stroke-width:9;stroke-linecap:butt;stroke-linejoin:miter;stroke-miterlimit:10;stroke-dasharray:none;stroke-opacity:1"
       transform="matrix(0.13333333,0,0,-0.13333333,0,512)" />
    <path
       id="path8"
       d="M 2797,1935 2077,1215"
       style="fill:#ffffff;fill-opacity:1;fill-rule:evenodd;stroke:#ff0000;stroke-width:9;stroke-linecap:butt;stroke-linejoin:miter;stroke-miterlimit:10;stroke-dasharray:none;stroke-opacity:1"
       transform="matrix(0.13333333,0,0,-0.13333333,0,512)" />
    <path
       id="path9"
       d="m 2077,2655 720,-720"
       style="fill:#ffffff;fill-opacity:1;fill-rule:evenodd;stroke:#0000ff;stroke-width:9;stroke-linecap:butt;stroke-linejoin:miter;stroke-miterlimit:10;stroke-dasharray:none;stroke-opacity:1"
       transform="matrix(0.13333333,0,0,-0.13333333,0,512)" />
    <path
       id="path10"
       d="m 637,3375 h 31.801 l 11.398,-0.6 h 14.403 l 16.199,-0.6 18.597,-0.6 h 20.403 L 772,3372 l 24,-0.6 25.199,-1.2 27,-1.2 28.199,-1.2 28.801,-1.8 30,-2.4 30.602,-2.4 31.199,-2.4 31.2,-3 32.4,-3.6 32.4,-4.2 32.4,-4.2 33,-4.8 33.6,-6 34.2,-6 34.2,-7.2 34.8,-7.8 35.4,-8.4 36,-9.6 36.6,-10.8 37.2,-12 37.2,-12.6 37.8,-14.4 37.8,-15 37.2,-16.8 36.6,-17.4 39,-20.4 37.2,-21 34.2,-21.6 32.4,-22.2 29.4,-21.6 27,-21.6 24.6,-21 22.2,-21 20.4,-21 19.2,-21 16.8,-20.4 15.6,-20.4 14.4,-20.4 13.2,-19.8 12,-19.8 10.8,-19.8 10.2,-19.2 9.6,-19.2 8.4,-18.6 7.8,-18 7.2,-17.4 6.6,-16.2 5.4,-15.6 5.4,-14.4 4.2,-13.2 4.2,-12 3,-10.2 3,-9 1.8,-7.2 1.8,-6 1.2,-4.2 0.6,-3 0.6,-1.8 0.6,-1.2 v -0.6"
       style="fill:none;stroke:#ffd600;stroke-width:9;stroke-linecap:butt;stroke-linejoin:bevel;stroke-miterlimit:10;stroke-dasharray:none;stroke-opacity:1"
       transform="matrix(0.13333333,0,0,-0.13333333,0,512)" />
    <path
       id="path11"
       d="M 3517,2655 V 1935"
       style="fill:#ffffff;fill-opacity:1;fill-rule:evenodd;stroke:#ffd600;stroke-width:27;stroke-linecap:butt;stroke-linejoin:bevel;stroke-miterlimit:10;stroke-dasharray:none;stroke-opacity:1"
       transform="matrix(0.13333333,0,0,-0.13333333,0,512)" />
    <path
       id="path12"
       d="M 637,3375 V 2655"
       style="fill:#ffffff;fill-opacity:1;fill-rule:evenodd;stroke:#ff0000;stroke-width:27;stroke-linecap:butt;stroke-linejoin:bevel;stroke-miterlimit:10;stroke-dasharray:none;stroke-opacity:1"
       transform="matrix(0.13333333,0,0,-0.13333333,0,512)" />
    <path
       id="path13"
       d="M 1357,2655 V 1935"
       style="fill:#ffffff;fill-opacity:1;fill-rule:evenodd;stroke:#ff0000;stroke-width:27;stroke-linecap:butt;stroke-linejoin:bevel;stroke-miterlimit:10;stroke-dasharray:none;stroke-opacity:1"
       transform="matrix(0.13333333,0,0,-0.13333333,0,512)" />
    <path
       id="path14"
       d="M 2077,2655 V 1935"
       style="fill:#ffffff;fill-opacity:1;fill-rule:evenodd;stroke:#ff0000;stroke-width:27;stroke-linecap:butt;stroke-linejoin:bevel;stroke-miterlimit:10;stroke-dasharray:none;stroke-opacity:1"
       transform="matrix(0.13333333,0,0,-0.13333333,0,512)" />
    <path
       id="path15"
       d="M 2077,1935 V 1215"
       style="fill:#ffffff;fill-opacity:1;fill-rule:evenodd;stroke:#0000ff;stroke-width:27;stroke-linecap:butt;stroke-linejoin:bevel;stroke-miterlimit:10;stroke-dasharray:none;stroke-opacity:1"
       transform="matrix(0.13333333,0,0,-0.13333333,0,512)" />
    <path
       id="path16"
       d="M 1357,1935 V 1215"
       style="fill:#ffffff;fill-opacity:1;fill-rule:evenodd;stroke:#00ff00;stroke-width:27;stroke-linecap:butt;stroke-linejoin:bevel;stroke-miterlimit:10;stroke-dasharray:none;stroke-opacity:1"
       transform="matrix(0.13333333,0,0,-0.13333333,0,512)" />
    <path
       id="path17"
       d="M 637,2655 V 1935"
       style="fill:#ffffff;fill-opacity:1;fill-rule:evenodd;stroke:#00ff00;stroke-width:27;stroke-linecap:butt;stroke-linejoin:bevel;stroke-miterlimit:10;stroke-dasharray:none;stroke-opacity:1"
       transform="matrix(0.13333333,0,0,-0.13333333,0,512)" />
    <path
       id="path18"
       d="M 637,1215 V 495"
       style="fill:#ffffff;fill-opacity:1;fill-rule:evenodd;stroke:#0000ff;stroke-width:27;stroke-linecap:butt;stroke-linejoin:bevel;stroke-miterlimit:10;stroke-dasharray:none;stroke-opacity:1"
       transform="matrix(0.13333333,0,0,-0.13333333,0,512)" />
    <path
       id="path19"
       d="M 3517,1935 V 1215"
       style="fill:#ffffff;fill-opacity:1;fill-rule:evenodd;stroke:#0000ff;stroke-width:27;stroke-linecap:butt;stroke-linejoin:bevel;stroke-miterlimit:10;stroke-dasharray:none;stroke-opacity:1"
       transform="matrix(0.13333333,0,0,-0.13333333,0,512)" />
    <path
       id="path20"
       d="M 637,1935 V 1215"
       style="fill:#ffffff;fill-opacity:1;fill-rule:evenodd;stroke:#ffd600;stroke-width:27;stroke-linecap:butt;stroke-linejoin:bevel;stroke-miterlimit:10;stroke-dasharray:none;stroke-opacity:1"
       transform="matrix(0.13333333,0,0,-0.13333333,0,512)" />
    <path
       id="path21"
       d="m 0.51539219,-4.7109375 c 0,-1.0839844 0.1640625,-2.0185547 0.49218751,-2.8007812 0.328125,-0.788086 0.7646484,-1.3769532 1.3125,-1.7695313 0.421875,-0.3046875 0.8583984,-0.4570313 1.3125,-0.4570313 0.7265625,0 1.3828125,0.375 1.96875,1.125 0.7265625,0.9228516 1.0898437,2.1738282 1.0898437,3.7500001 0,1.1103515 -0.1611328,2.0507812 -0.4804687,2.8242187 -0.3222656,0.7734375 -0.7324219,1.3359375 -1.2304688,1.6875 -0.4921875,0.34570312 -0.9667968,0.515625 -1.4179687,0.515625 -0.9140625,0 -1.6728516,-0.53320313 -2.2734375,-1.6054687 C 0.77320469,-2.3466797 0.51539219,-3.4365234 0.51539219,-4.7109375 Z m 1.38281251,0.1757813 c 0,1.3124999 0.1582031,2.3847656 0.4804687,3.2109375 0.272461,0.70312495 0.6708985,1.05468745 1.1953125,1.05468745 0.2578125,0 0.5185547,-0.11132813 0.7851563,-0.33984375 0.2724609,-0.234375 0.4804687,-0.6152344 0.6210937,-1.1484375 0.2167969,-0.8027344 0.328125,-1.9394531 0.328125,-3.4101562 0,-1.0839844 -0.1142578,-1.9921875 -0.3398437,-2.71875 -0.1640625,-0.5390626 -0.3837891,-0.9199219 -0.65625,-1.1484376 -0.1875,-0.1552734 -0.4189453,-0.234375 -0.6914063,-0.234375 -0.3222656,0 -0.6064453,0.1464844 -0.8554687,0.4335938 -0.3369141,0.3837891 -0.5683594,0.9931641 -0.6914063,1.828125 -0.1171875,0.8378906 -0.1757812,1.6611328 -0.1757812,2.4726563 z m 5.8183594,-0.1757813 c 0,-1.0839844 0.1640625,-2.0185547 0.4921875,-2.8007812 0.328125,-0.788086 0.7646484,-1.3769532 1.3125,-1.7695313 0.421875,-0.3046875 0.8583984,-0.4570313 1.3125004,-0.4570313 0.726562,0 1.382812,0.375 1.96875,1.125 0.726562,0.9228516 1.089843,2.1738282 1.089843,3.7500001 0,1.1103515 -0.161132,2.0507812 -0.480468,2.8242187 -0.322266,0.7734375 -0.732422,1.3359375 -1.230469,1.6875 -0.492188,0.34570312 -0.966797,0.515625 -1.417969,0.515625 -0.9140624,0 -1.6728515,-0.53320313 -2.2734374,-1.6054687 -0.515625,-0.9052735 -0.7734375,-1.9951172 -0.7734375,-3.2695313 z m 1.3828125,0.1757813 c 0,1.3124999 0.1582031,2.3847656 0.4804687,3.2109375 0.272461,0.70312495 0.6708987,1.05468745 1.1953127,1.05468745 0.257812,0 0.518555,-0.11132813 0.785156,-0.33984375 0.272461,-0.234375 0.480469,-0.6152344 0.621094,-1.1484375 0.216797,-0.8027344 0.328125,-1.9394531 0.328125,-3.4101562 0,-1.0839844 -0.114258,-1.9921875 -0.339844,-2.71875 -0.164062,-0.5390626 -0.383789,-0.9199219 -0.65625,-1.1484376 -0.1875,-0.1552734 -0.418945,-0.234375 -0.691406,-0.234375 -0.322266,0 -0.606445,0.1464844 -0.8554689,0.4335938 -0.3369141,0.3837891 -0.5683594,0.9931641 -0.6914063,1.828125 -0.1171875,0.8378906 -0.1757812,1.6611328 -0.1757812,2.4726563 z m 5.8154294,-0.1757813 c 0,-1.0839844 0.164063,-2.0185547 0.492188,-2.8007812 0.328125,-0.788086 0.764648,-1.3769532 1.3125,-1.7695313 0.421875,-0.3046875 0.858398,-0.4570313 1.3125,-0.4570313 0.726562,0 1.382812,0.375 1.96875,1.125 0.726562,0.9228516 1.089844,2.1738282 1.089844,3.7500001 0,1.1103515 -0.161133,2.0507812 -0.480469,2.8242187 -0.322266,0.7734375 -0.732422,1.3359375 -1.230469,1.6875 -0.492187,0.34570312 -0.966797,0.515625 -1.417969,0.515625 -0.914062,0 -1.672851,-0.53320313 -2.273437,-1.6054687 -0.515625,-0.9052735 -0.773438,-1.9951172 -0.773438,-3.2695313 z m 1.382813,0.1757813 c 0,1.3124999 0.158203,2.3847656 0.480469,3.2109375 0.27246,0.70312495 0.670898,1.05468745 1.195312,1.05468745 0.257813,0 0.518555,-0.11132813 0.785156,-0.33984375 0.272461,-0.234375 0.480469,-0.6152344 0.621094,-1.1484375 0.216797,-0.8027344 0.328125,-1.9394531 0.328125,-3.4101562 0,-1.0839844 -0.114258,-1.9921875 -0.339844,-2.71875 -0.164062,-0.5390626 -0.383789,-0.9199219 -0.65625,-1.1484376 -0.1875,-0.1552734 -0.418945,-0.234375 -0.691406,-0.234375 -0.322266,0 -0.606445,0.1464844 -0.855469,0.4335938 -0.336914,0.3837891 -0.568359,0.9931641 -0.691406,1.828125 -0.117187,0.8378906 -0.175781,1.6611328 -0.175781,2.4726563 z m 5.818359,-0.1757813 c 0,-1.0839844 0.164063,-2.0185547 0.492188,-2.8007812 0.328125,-0.788086 0.764648,-1.3769532 1.3125,-1.7695313 0.421875,-0.3046875 0.858398,-0.4570313 1.3125,-0.4570313 0.726562,0 1.382812,0.375 1.96875,1.125 0.726562,0.9228516 1.089843,2.1738282 1.089843,3.7500001 0,1.1103515 -0.161132,2.0507812 -0.480468,2.8242187 -0.322266,0.7734375 -0.732422,1.3359375 -1.230469,1.6875 -0.492188,0.34570312 -0.966797,0.515625 -1.417969,0.515625 -0.914062,0 -1.672851,-0.53320313 -2.273437,-1.6054687 -0.515625,-0.9052735 -0.773438,-1.9951172 -0.773438,-3.2695313 z m 1.382813,0.1757813 c 0,1.3124999 0.158203,2.3847656 0.480468,3.2109375 0.272461,0.70312495 0.670899,1.05468745 1.195313,1.05468745 0.257812,0 0.518555,-0.11132813 0.785156,-0.33984375 0.272461,-0.234375 0.480469,-0.6152344 0.621094,-1.1484375 0.216797,-0.8027344 0.328125,-1.9394531 0.328125,-3.4101562 0,-1.0839844 -0.114258,-1.9921875 -0.339844,-2.71875 -0.164062,-0.5390626 -0.383789,-0.9199219 -0.65625,-1.1484376 -0.1875,-0.1552734 -0.418945,-0.234375 -0.691406,-0.234375 -0.322266,0 -0.606445,0.1464844 -0.855469,0.4335938 -0.336914,0.3837891 -0.568359,0.9931641 -0.691406,1.828125 -0.117188,0.8378906 -0.175781,1.6611328 -0.175781,2.4726563 z M -2.8127328,-152.60156 l 2.32031249,-1.13672 h 0.234375 v 8.0625 c 0,0.5332 0.0175781,0.86426 0.0585938,0.99609 0.046875,0.13477 0.140625,0.23438 0.28125,0.30469 0.140625,0.0703 0.42480469,0.11133 0.85546875,0.11719 V -144 H -2.6486703 v -0.25781 c 0.4511719,-0.006 0.7441406,-0.0469 0.8789062,-0.11719 0.131836,-0.0703 0.2226563,-0.1582 0.2695313,-0.26953 0.052734,-0.11719 0.082031,-0.45996 0.082031,-1.03125 v -5.15625 c 0,-0.69434 -0.023437,-1.13965 -0.070312,-1.33594 -0.032227,-0.14648 -0.09375,-0.25781 -0.1875,-0.32812 -0.087891,-0.0703 -0.1875,-0.10547 -0.3046875,-0.10547 -0.1728515,0 -0.4160156,0.0762 -0.7265625,0.22265 z m 7.2011719,0 2.3203125,-1.13672 h 0.234375 v 8.0625 c 0,0.5332 0.017578,0.86426 0.058594,0.99609 0.046875,0.13477 0.140625,0.23438 0.28125,0.30469 0.140625,0.0703 0.4248047,0.11133 0.8554688,0.11719 V -144 H 4.5525016 v -0.25781 c 0.4511718,-0.006 0.7441406,-0.0469 0.8789062,-0.11719 0.131836,-0.0703 0.2226563,-0.1582 0.2695313,-0.26953 0.052734,-0.11719 0.082031,-0.45996 0.082031,-1.03125 v -5.15625 c 0,-0.69434 -0.023437,-1.13965 -0.070312,-1.33594 -0.032226,-0.14648 -0.09375,-0.25781 -0.1875,-0.32812 -0.087891,-0.0703 -0.1875,-0.10547 -0.3046875,-0.10547 -0.1728515,0 -0.4160156,0.0762 -0.7265625,0.22265 z m 6.0263669,3.89062 c 0,-1.08398 0.164063,-2.01855 0.492188,-2.80078 0.328125,-0.78808 0.764648,-1.37695 1.3125,-1.76953 0.421875,-0.30469 0.858398,-0.45703 1.3125,-0.45703 0.726562,0 1.382812,0.375 1.96875,1.125 0.726562,0.92285 1.089844,2.17383 1.089844,3.75 0,1.11035 -0.161133,2.05078 -0.480469,2.82422 -0.322266,0.77344 -0.732422,1.33594 -1.230469,1.6875 -0.492187,0.3457 -0.966797,0.51562 -1.417969,0.51562 -0.914062,0 -1.672851,-0.5332 -2.273437,-1.60547 -0.515625,-0.90527 -0.773438,-1.99511 -0.773438,-3.26953 z m 1.382813,0.17578 c 0,1.3125 0.158203,2.38477 0.480469,3.21094 0.27246,0.70313 0.670898,1.05469 1.195312,1.05469 0.257813,0 0.518555,-0.11133 0.785156,-0.33984 0.272461,-0.23438 0.480469,-0.61524 0.621094,-1.14844 0.216797,-0.80274 0.328125,-1.93946 0.328125,-3.41016 0,-1.08398 -0.114258,-1.99219 -0.339844,-2.71875 -0.164062,-0.53906 -0.383789,-0.91992 -0.65625,-1.14844 -0.1875,-0.15527 -0.418945,-0.23437 -0.691406,-0.23437 -0.322266,0 -0.606445,0.14648 -0.855469,0.43359 -0.336914,0.38379 -0.568359,0.99317 -0.691406,1.82813 -0.117187,0.83789 -0.175781,1.66113 -0.175781,2.47265 z m 5.818359,-0.17578 c 0,-1.08398 0.164063,-2.01855 0.492188,-2.80078 0.328125,-0.78808 0.764648,-1.37695 1.3125,-1.76953 0.421875,-0.30469 0.858398,-0.45703 1.3125,-0.45703 0.726562,0 1.382812,0.375 1.96875,1.125 0.726562,0.92285 1.089843,2.17383 1.089843,3.75 0,1.11035 -0.161132,2.05078 -0.480468,2.82422 -0.322266,0.77344 -0.732422,1.33594 -1.230469,1.6875 -0.492188,0.3457 -0.966797,0.51562 -1.417969,0.51562 -0.914062,0 -1.672851,-0.5332 -2.273437,-1.60547 -0.515625,-0.90527 -0.773438,-1.99511 -0.773438,-3.26953 z m 1.382813,0.17578 c 0,1.3125 0.158203,2.38477 0.480468,3.21094 0.272461,0.70313 0.670899,1.05469 1.195313,1.05469 0.257812,0 0.518555,-0.11133 0.785156,-0.33984 0.272461,-0.23438 0.480469,-0.61524 0.621094,-1.14844 0.216797,-0.80274 0.328125,-1.93946 0.328125,-3.41016 0,-1.08398 -0.114258,-1.99219 -0.339844,-2.71875 -0.164062,-0.53906 -0.383789,-0.91992 -0.65625,-1.14844 -0.1875,-0.15527 -0.418945,-0.23437 -0.691406,-0.23437 -0.322266,0 -0.606445,0.14648 -0.855469,0.43359 -0.336914,0.38379 -0.568359,0.99317 -0.691406,1.82813 -0.117188,0.83789 -0.175781,1.66113 -0.175781,2.47265 z m -21.8115238,-76.0664 2.32031249,-1.13672 h 0.234375 v 8.0625 c 0,0.5332 0.0175781,0.86426 0.0585938,0.99609 0.046875,0.13477 0.140625,0.23438 0.28125,0.30469 0.140625,0.0703 0.42480469,0.11133 0.85546875,0.11719 V -216 H -2.6486703 v -0.25781 c 0.4511719,-0.006 0.7441406,-0.0469 0.8789062,-0.11719 0.131836,-0.0703 0.2226563,-0.1582 0.2695313,-0.26953 0.052734,-0.11719 0.082031,-0.45996 0.082031,-1.03125 v -5.15625 c 0,-0.69434 -0.023437,-1.13965 -0.070312,-1.33594 -0.032227,-0.14648 -0.09375,-0.25781 -0.1875,-0.32812 -0.087891,-0.0703 -0.1875,-0.10547 -0.3046875,-0.10547 -0.1728515,0 -0.4160156,0.0762 -0.7265625,0.22265 z m 7.2011719,0 2.3203125,-1.13672 h 0.234375 v 8.0625 c 0,0.5332 0.017578,0.86426 0.058594,0.99609 0.046875,0.13477 0.140625,0.23438 0.28125,0.30469 0.140625,0.0703 0.4248047,0.11133 0.8554688,0.11719 V -216 H 4.5525016 v -0.25781 c 0.4511718,-0.006 0.7441406,-0.0469 0.8789062,-0.11719 0.131836,-0.0703 0.2226563,-0.1582 0.2695313,-0.26953 0.052734,-0.11719 0.082031,-0.45996 0.082031,-1.03125 v -5.15625 c 0,-0.69434 -0.023437,-1.13965 -0.070312,-1.33594 -0.032226,-0.14648 -0.09375,-0.25781 -0.1875,-0.32812 -0.087891,-0.0703 -0.1875,-0.10547 -0.3046875,-0.10547 -0.1728515,0 -0.4160156,0.0762 -0.7265625,0.22265 z m 7.1982419,0 2.320313,-1.13672 h 0.234375 v 8.0625 c 0,0.5332 0.01758,0.86426 0.05859,0.99609 0.04687,0.13477 0.140625,0.23438 0.28125,0.30469 0.140625,0.0703 0.424804,0.11133 0.855468,0.11719 V -216 H 11.75074 v -0.25781 c 0.451172,-0.006 0.74414,-0.0469 0.878906,-0.11719 0.131836,-0.0703 0.222656,-0.1582 0.269531,-0.26953 0.05274,-0.11719 0.08203,-0.45996 0.08203,-1.03125 v -5.15625 c 0,-0.69434 -0.02344,-1.13965 -0.07031,-1.33594 -0.03223,-0.14648 -0.09375,-0.25781 -0.1875,-0.32812 -0.08789,-0.0703 -0.1875,-0.10547 -0.304687,-0.10547 -0.172852,0 -0.416016,0.0762 -0.726563,0.22265 z m 6.029297,3.89062 c 0,-1.08398 0.164063,-2.01855 0.492188,-2.80078 0.328125,-0.78808 0.764648,-1.37695 1.3125,-1.76953 0.421875,-0.30469 0.858398,-0.45703 1.3125,-0.45703 0.726562,0 1.382812,0.375 1.96875,1.125 0.726562,0.92285 1.089843,2.17383 1.089843,3.75 0,1.11035 -0.161132,2.05078 -0.480468,2.82422 -0.322266,0.77344 -0.732422,1.33594 -1.230469,1.6875 -0.492188,0.3457 -0.966797,0.51562 -1.417969,0.51562 -0.914062,0 -1.672851,-0.5332 -2.273437,-1.60547 -0.515625,-0.90527 -0.773438,-1.99511 -0.773438,-3.26953 z m 1.382813,0.17578 c 0,1.3125 0.158203,2.38477 0.480468,3.21094 0.272461,0.70313 0.670899,1.05469 1.195313,1.05469 0.257812,0 0.518555,-0.11133 0.785156,-0.33984 0.272461,-0.23438 0.480469,-0.61524 0.621094,-1.14844 0.216797,-0.80274 0.328125,-1.93946 0.328125,-3.41016 0,-1.08398 -0.114258,-1.99219 -0.339844,-2.71875 -0.164062,-0.53906 -0.383789,-0.91992 -0.65625,-1.14844 -0.1875,-0.15527 -0.418945,-0.23437 -0.691406,-0.23437 -0.322266,0 -0.606445,0.14648 -0.855469,0.43359 -0.336914,0.38379 -0.568359,0.99317 -0.691406,1.82813 -0.117188,0.83789 -0.175781,1.66113 -0.175781,2.47265 z m -21.8115238,-76.0664 2.32031249,-1.13672 h 0.234375 v 8.0625 c 0,0.5332 0.0175781,0.86426 0.0585938,0.99609 0.046875,0.13477 0.140625,0.23438 0.28125,0.30469 0.140625,0.0703 0.42480469,0.11133 0.85546875,0.11719 V -288 H -2.6486703 v -0.25781 c 0.4511719,-0.006 0.7441406,-0.0469 0.8789062,-0.11719 0.131836,-0.0703 0.2226563,-0.1582 0.2695313,-0.26953 0.052734,-0.11719 0.082031,-0.45996 0.082031,-1.03125 v -5.15625 c 0,-0.69434 -0.023437,-1.13965 -0.070312,-1.33594 -0.032227,-0.14648 -0.09375,-0.25781 -0.1875,-0.32812 -0.087891,-0.0703 -0.1875,-0.10547 -0.3046875,-0.10547 -0.1728515,0 -0.4160156,0.0762 -0.7265625,0.22265 z m 7.2011719,0 2.3203125,-1.13672 h 0.234375 v 8.0625 c 0,0.5332 0.017578,0.86426 0.058594,0.99609 0.046875,0.13477 0.140625,0.23438 0.28125,0.30469 0.140625,0.0703 0.4248047,0.11133 0.8554688,0.11719 V -288 H 4.5525016 v -0.25781 c 0.4511718,-0.006 0.7441406,-0.0469 0.8789062,-0.11719 0.131836,-0.0703 0.2226563,-0.1582 0.2695313,-0.26953 0.052734,-0.11719 0.082031,-0.45996 0.082031,-1.03125 v -5.15625 c 0,-0.69434 -0.023437,-1.13965 -0.070312,-1.33594 -0.032226,-0.14648 -0.09375,-0.25781 -0.1875,-0.32812 -0.087891,-0.0703 -0.1875,-0.10547 -0.3046875,-0.10547 -0.1728515,0 -0.4160156,0.0762 -0.7265625,0.22265 z m 7.1982419,0 2.320313,-1.13672 h 0.234375 v 8.0625 c 0,0.5332 0.01758,0.86426 0.05859,0.99609 0.04687,0.13477 0.140625,0.23438 0.28125,0.30469 0.140625,0.0703 0.424804,0.11133 0.855468,0.11719 V -288 H 11.75074 v -0.25781 c 0.451172,-0.006 0.74414,-0.0469 0.878906,-0.11719 0.131836,-0.0703 0.222656,-0.1582 0.269531,-0.26953 0.05274,-0.11719 0.08203,-0.45996 0.08203,-1.03125 v -5.15625 c 0,-0.69434 -0.02344,-1.13965 -0.07031,-1.33594 -0.03223,-0.14648 -0.09375,-0.25781 -0.1875,-0.32812 -0.08789,-0.0703 -0.1875,-0.10547 -0.304687,-0.10547 -0.172852,0 -0.416016,0.0762 -0.726563,0.22265 z m 7.201172,0 2.320313,-1.13672 h 0.234375 v 8.0625 c 0,0.5332 0.01758,0.86426 0.05859,0.99609 0.04687,0.13477 0.140625,0.23438 0.28125,0.30469 0.140625,0.0703 0.424805,0.11133 0.855469,0.11719 V -288 h -3.585937 v -0.25781 c 0.451172,-0.006 0.74414,-0.0469 0.878906,-0.11719 0.131836,-0.0703 0.222656,-0.1582 0.269531,-0.26953 0.05274,-0.11719 0.08203,-0.45996 0.08203,-1.03125 v -5.15625 c 0,-0.69434 -0.02344,-1.13965 -0.07031,-1.33594 -0.03223,-0.14648 -0.09375,-0.25781 -0.1875,-0.32812 -0.08789,-0.0703 -0.1875,-0.10547 -0.304688,-0.10547 -0.172851,0 -0.416015,0.0762 -0.726562,0.22265 z m 173.698247,144 2.32031,-1.13672 h 0.23437 v 8.0625 c 0,0.5332 0.0176,0.86426 0.0586,0.99609 0.0469,0.13477 0.14062,0.23438 0.28125,0.30469 0.14062,0.0703 0.4248,0.11133 0.85547,0.11719 V -144 h -3.58594 v -0.25781 c 0.45117,-0.006 0.74414,-0.0469 0.8789,-0.11719 0.13184,-0.0703 0.22266,-0.1582 0.26954,-0.26953 0.0527,-0.11719 0.082,-0.45996 0.082,-1.03125 v -5.15625 c 0,-0.69434 -0.0234,-1.13965 -0.0703,-1.33594 -0.0322,-0.14648 -0.0937,-0.25781 -0.1875,-0.32812 -0.0879,-0.0703 -0.1875,-0.10547 -0.30468,-0.10547 -0.17286,0 -0.41602,0.0762 -0.72657,0.22265 z m 6.02636,3.89062 c 0,-1.08398 0.16406,-2.01855 0.49219,-2.80078 0.32812,-0.78808 0.76465,-1.37695 1.3125,-1.76953 0.42187,-0.30469 0.8584,-0.45703 1.3125,-0.45703 0.72656,0 1.38281,0.375 1.96875,1.125 0.72656,0.92285 1.08984,2.17383 1.08984,3.75 0,1.11035 -0.16113,2.05078 -0.48047,2.82422 -0.32226,0.77344 -0.73242,1.33594 -1.23046,1.6875 -0.49219,0.3457 -0.9668,0.51562 -1.41797,0.51562 -0.91407,0 -1.67285,-0.5332 -2.27344,-1.60547 -0.51563,-0.90527 -0.77344,-1.99511 -0.77344,-3.26953 z m 1.38281,0.17578 c 0,1.3125 0.15821,2.38477 0.48047,3.21094 0.27246,0.70313 0.6709,1.05469 1.19532,1.05469 0.25781,0 0.51855,-0.11133 0.78515,-0.33984 0.27246,-0.23438 0.48047,-0.61524 0.6211,-1.14844 0.21679,-0.80274 0.32812,-1.93946 0.32812,-3.41016 0,-1.08398 -0.11426,-1.99219 -0.33984,-2.71875 -0.16407,-0.53906 -0.38379,-0.91992 -0.65625,-1.14844 -0.1875,-0.15527 -0.41895,-0.23437 -0.69141,-0.23437 -0.32226,0 -0.60644,0.14648 -0.85547,0.43359 -0.33691,0.38379 -0.56836,0.99317 -0.6914,1.82813 -0.11719,0.83789 -0.17579,1.66113 -0.17579,2.47265 z m 6.99024,-4.0664 2.32031,-1.13672 h 0.23438 v 8.0625 c 0,0.5332 0.0176,0.86426 0.0586,0.99609 0.0469,0.13477 0.14063,0.23438 0.28125,0.30469 0.14063,0.0703 0.42481,0.11133 0.85547,0.11719 V -144 h -3.58594 v -0.25781 c 0.45117,-0.006 0.74414,-0.0469 0.87891,-0.11719 0.13183,-0.0703 0.22265,-0.1582 0.26953,-0.26953 0.0527,-0.11719 0.082,-0.45996 0.082,-1.03125 v -5.15625 c 0,-0.69434 -0.0234,-1.13965 -0.0703,-1.33594 -0.0322,-0.14648 -0.0937,-0.25781 -0.1875,-0.32812 -0.0879,-0.0703 -0.1875,-0.10547 -0.30469,-0.10547 -0.17285,0 -0.41602,0.0762 -0.72656,0.22265 z m 6.0293,3.89062 c 0,-1.08398 0.16406,-2.01855 0.49218,-2.80078 0.32813,-0.78808 0.76465,-1.37695 1.3125,-1.76953 0.42188,-0.30469 0.8584,-0.45703 1.3125,-0.45703 0.72657,0 1.38282,0.375 1.96875,1.125 0.72657,0.92285 1.08985,2.17383 1.08985,3.75 0,1.11035 -0.16114,2.05078 -0.48047,2.82422 -0.32227,0.77344 -0.73242,1.33594 -1.23047,1.6875 -0.49219,0.3457 -0.9668,0.51562 -1.41797,0.51562 -0.91406,0 -1.67285,-0.5332 -2.27344,-1.60547 -0.51562,-0.90527 -0.77343,-1.99511 -0.77343,-3.26953 z m 1.38281,0.17578 c 0,1.3125 0.1582,2.38477 0.48047,3.21094 0.27246,0.70313 0.6709,1.05469 1.19531,1.05469 0.25781,0 0.51855,-0.11133 0.78516,-0.33984 0.27246,-0.23438 0.48046,-0.61524 0.62109,-1.14844 0.2168,-0.80274 0.32812,-1.93946 0.32812,-3.41016 0,-1.08398 -0.11425,-1.99219 -0.33984,-2.71875 -0.16406,-0.53906 -0.38379,-0.91992 -0.65625,-1.14844 -0.1875,-0.15527 -0.41894,-0.23437 -0.69141,-0.23437 -0.32226,0 -0.60644,0.14648 -0.85546,0.43359 -0.33692,0.38379 -0.56836,0.99317 -0.69141,1.82813 -0.11719,0.83789 -0.17578,1.66113 -0.17578,2.47265 z m -21.81152,-89.5664 2.32031,-1.13672 h 0.23437 v 8.0625 c 0,0.5332 0.0176,0.86426 0.0586,0.99609 0.0469,0.13477 0.14062,0.23438 0.28125,0.30469 0.14062,0.0703 0.4248,0.11133 0.85547,0.11719 V -229.5 h -3.58594 v -0.25781 c 0.45117,-0.006 0.74414,-0.0469 0.8789,-0.11719 0.13184,-0.0703 0.22266,-0.1582 0.26954,-0.26953 0.0527,-0.11719 0.082,-0.45996 0.082,-1.03125 v -5.15625 c 0,-0.69434 -0.0234,-1.13965 -0.0703,-1.33594 -0.0322,-0.14648 -0.0937,-0.25781 -0.1875,-0.32812 -0.0879,-0.0703 -0.1875,-0.10547 -0.30468,-0.10547 -0.17286,0 -0.41602,0.0762 -0.72657,0.22265 z m 6.02636,3.89062 c 0,-1.08398 0.16406,-2.01855 0.49219,-2.80078 0.32812,-0.78808 0.76465,-1.37695 1.3125,-1.76953 0.42187,-0.30469 0.8584,-0.45703 1.3125,-0.45703 0.72656,0 1.38281,0.375 1.96875,1.125 0.72656,0.92285 1.08984,2.17383 1.08984,3.75 0,1.11035 -0.16113,2.05078 -0.48047,2.82422 -0.32226,0.77344 -0.73242,1.33594 -1.23046,1.6875 -0.49219,0.3457 -0.9668,0.51562 -1.41797,0.51562 -0.91407,0 -1.67285,-0.5332 -2.27344,-1.60547 -0.51563,-0.90527 -0.77344,-1.99511 -0.77344,-3.26953 z m 1.38281,0.17578 c 0,1.3125 0.15821,2.38477 0.48047,3.21094 0.27246,0.70313 0.6709,1.05469 1.19532,1.05469 0.25781,0 0.51855,-0.11133 0.78515,-0.33984 0.27246,-0.23438 0.48047,-0.61524 0.6211,-1.14844 0.21679,-0.80274 0.32812,-1.93946 0.32812,-3.41016 0,-1.08398 -0.11426,-1.99219 -0.33984,-2.71875 -0.16407,-0.53906 -0.38379,-0.91992 -0.65625,-1.14844 -0.1875,-0.15527 -0.41895,-0.23437 -0.69141,-0.23437 -0.32226,0 -0.60644,0.14648 -0.85547,0.43359 -0.33691,0.38379 -0.56836,0.99317 -0.6914,1.82813 -0.11719,0.83789 -0.17579,1.66113 -0.17579,2.47265 z m 6.99024,-4.0664 2.32031,-1.13672 h 0.23438 v 8.0625 c 0,0.5332 0.0176,0.86426 0.0586,0.99609 0.0469,0.13477 0.14063,0.23438 0.28125,0.30469 0.14063,0.0703 0.42481,0.11133 0.85547,0.11719 V -229.5 h -3.58594 v -0.25781 c 0.45117,-0.006 0.74414,-0.0469 0.87891,-0.11719 0.13183,-0.0703 0.22265,-0.1582 0.26953,-0.26953 0.0527,-0.11719 0.082,-0.45996 0.082,-1.03125 v -5.15625 c 0,-0.69434 -0.0234,-1.13965 -0.0703,-1.33594 -0.0322,-0.14648 -0.0937,-0.25781 -0.1875,-0.32812 -0.0879,-0.0703 -0.1875,-0.10547 -0.30469,-0.10547 -0.17285,0 -0.41602,0.0762 -0.72656,0.22265 z m 7.20117,0 2.32031,-1.13672 h 0.23438 v 8.0625 c 0,0.5332 0.0176,0.86426 0.0586,0.99609 0.0469,0.13477 0.14063,0.23438 0.28125,0.30469 0.14063,0.0703 0.42481,0.11133 0.85547,0.11719 V -229.5 h -3.58594 v -0.25781 c 0.45118,-0.006 0.74414,-0.0469 0.87891,-0.11719 0.13184,-0.0703 0.22266,-0.1582 0.26953,-0.26953 0.0527,-0.11719 0.082,-0.45996 0.082,-1.03125 v -5.15625 c 0,-0.69434 -0.0234,-1.13965 -0.0703,-1.33594 -0.0322,-0.14648 -0.0937,-0.25781 -0.1875,-0.32812 -0.0879,-0.0703 -0.1875,-0.10547 -0.30469,-0.10547 -0.17285,0 -0.41601,0.0762 -0.72656,0.22265 z m 49.22754,89.39062 c 0,-1.08398 0.16406,-2.01855 0.49219,-2.80078 0.32812,-0.78808 0.76465,-1.37695 1.3125,-1.76953 0.42187,-0.30469 0.8584,-0.45703 1.3125,-0.45703 0.72656,0 1.38281,0.375 1.96875,1.125 0.72656,0.92285 1.08984,2.17383 1.08984,3.75 0,1.11035 -0.16113,2.05078 -0.48047,2.82422 -0.32226,0.77344 -0.73242,1.33594 -1.23047,1.6875 -0.49218,0.3457 -0.96679,0.51562 -1.41796,0.51562 -0.91407,0 -1.67286,-0.5332 -2.27344,-1.60547 -0.51563,-0.90527 -0.77344,-1.99511 -0.77344,-3.26953 z m 1.38281,0.17578 c 0,1.3125 0.15821,2.38477 0.48047,3.21094 0.27246,0.70313 0.6709,1.05469 1.19531,1.05469 0.25782,0 0.51856,-0.11133 0.78516,-0.33984 0.27246,-0.23438 0.48047,-0.61524 0.62109,-1.14844 0.2168,-0.80274 0.32813,-1.93946 0.32813,-3.41016 0,-1.08398 -0.11426,-1.99219 -0.33984,-2.71875 -0.16407,-0.53906 -0.38379,-0.91992 -0.65625,-1.14844 -0.1875,-0.15527 -0.41895,-0.23437 -0.69141,-0.23437 -0.32227,0 -0.60645,0.14648 -0.85547,0.43359 -0.33691,0.38379 -0.56836,0.99317 -0.69141,1.82813 -0.11718,0.83789 -0.17578,1.66113 -0.17578,2.47265 z m 5.81543,-0.17578 c 0,-1.08398 0.16407,-2.01855 0.49219,-2.80078 0.32813,-0.78808 0.76465,-1.37695 1.3125,-1.76953 0.42188,-0.30469 0.8584,-0.45703 1.3125,-0.45703 0.72656,0 1.38281,0.375 1.96875,1.125 0.72656,0.92285 1.08984,2.17383 1.08984,3.75 0,1.11035 -0.16113,2.05078 -0.48046,2.82422 -0.32227,0.77344 -0.73243,1.33594 -1.23047,1.6875 -0.49219,0.3457 -0.9668,0.51562 -1.41797,0.51562 -0.91406,0 -1.67285,-0.5332 -2.27344,-1.60547 -0.51562,-0.90527 -0.77344,-1.99511 -0.77344,-3.26953 z m 1.38282,0.17578 c 0,1.3125 0.1582,2.38477 0.48046,3.21094 0.27246,0.70313 0.6709,1.05469 1.19532,1.05469 0.25781,0 0.51855,-0.11133 0.78515,-0.33984 0.27246,-0.23438 0.48047,-0.61524 0.6211,-1.14844 0.21679,-0.80274 0.32812,-1.93946 0.32812,-3.41016 0,-1.08398 -0.11426,-1.99219 -0.33984,-2.71875 -0.16406,-0.53906 -0.38379,-0.91992 -0.65625,-1.14844 -0.1875,-0.15527 -0.41895,-0.23437 -0.69141,-0.23437 -0.32226,0 -0.60644,0.14648 -0.85547,0.43359 -0.33691,0.38379 -0.56836,0.99317 -0.6914,1.82813 -0.11719,0.83789 -0.17578,1.66113 -0.17578,2.47265 z m 6.99023,-4.0664 2.32031,-1.13672 h 0.23438 v 8.0625 c 0,0.5332 0.0176,0.86426 0.0586,0.99609 0.0469,0.13477 0.14063,0.23438 0.28125,0.30469 0.14063,0.0703 0.42481,0.11133 0.85547,0.11719 V -144 h -3.58594 v -0.25781 c 0.45117,-0.006 0.74414,-0.0469 0.87891,-0.11719 0.13183,-0.0703 0.22265,-0.1582 0.26953,-0.26953 0.0527,-0.11719 0.082,-0.45996 0.082,-1.03125 v -5.15625 c 0,-0.69434 -0.0234,-1.13965 -0.0703,-1.33594 -0.0322,-0.14648 -0.0937,-0.25781 -0.1875,-0.32812 -0.0879,-0.0703 -0.1875,-0.10547 -0.30469,-0.10547 -0.17285,0 -0.41601,0.0762 -0.72656,0.22265 z m 7.20117,0 2.32031,-1.13672 h 0.23438 v 8.0625 c 0,0.5332 0.0176,0.86426 0.0586,0.99609 0.0469,0.13477 0.14063,0.23438 0.28125,0.30469 0.14063,0.0703 0.42481,0.11133 0.85547,0.11719 V -144 h -3.58594 v -0.25781 c 0.45118,-0.006 0.74414,-0.0469 0.87891,-0.11719 0.13184,-0.0703 0.22266,-0.1582 0.26953,-0.26953 0.0527,-0.11719 0.082,-0.45996 0.082,-1.03125 v -5.15625 c 0,-0.69434 -0.0234,-1.13965 -0.0703,-1.33594 -0.0322,-0.14648 -0.0937,-0.25781 -0.1875,-0.32812 -0.0879,-0.0703 -0.1875,-0.10547 -0.30469,-0.10547 -0.17285,0 -0.41601,0.0762 -0.72656,0.22265 z m 49.22754,80.390623 c 0,-1.083985 0.16406,-2.018555 0.49219,-2.800782 0.32812,-0.788086 0.76465,-1.376953 1.3125,-1.769531 0.42187,-0.304687 0.8584,-0.457031 1.3125,-0.457031 0.72656,0 1.38281,0.375 1.96875,1.125 0.72656,0.922851 1.08984,2.173828 1.08984,3.75 0,1.110351 -0.16113,2.050781 -0.48047,2.824219 -0.32226,0.773437 -0.73242,1.335937 -1.23047,1.6875 -0.49218,0.345703 -0.96679,0.515625 -1.41796,0.515625 -0.91407,0 -1.67286,-0.533204 -2.27344,-1.605469 -0.51563,-0.905274 -0.77344,-1.995117 -0.77344,-3.269531 z m 1.38281,0.175781 c 0,1.3125 0.15821,2.384765 0.48047,3.210937 0.27246,0.703125 0.6709,1.054688 1.19531,1.054688 0.25782,0 0.51856,-0.111328 0.78516,-0.339844 0.27246,-0.234375 0.48047,-0.615234 0.62109,-1.148437 0.2168,-0.802735 0.32813,-1.939454 0.32813,-3.410157 0,-1.083984 -0.11426,-1.992187 -0.33984,-2.71875 -0.16407,-0.539062 -0.38379,-0.919922 -0.65625,-1.148437 -0.1875,-0.155274 -0.41895,-0.234375 -0.69141,-0.234375 -0.32227,0 -0.60645,0.146484 -0.85547,0.433594 -0.33691,0.383789 -0.56836,0.993164 -0.69141,1.828125 -0.11718,0.83789 -0.17578,1.661132 -0.17578,2.472656 z m 5.81543,-0.175781 c 0,-1.083985 0.16407,-2.018555 0.49219,-2.800782 0.32813,-0.788086 0.76465,-1.376953 1.3125,-1.769531 0.42188,-0.304687 0.8584,-0.457031 1.3125,-0.457031 0.72656,0 1.38281,0.375 1.96875,1.125 0.72656,0.922851 1.08984,2.173828 1.08984,3.75 0,1.110351 -0.16113,2.050781 -0.48046,2.824219 -0.32227,0.773437 -0.73243,1.335937 -1.23047,1.6875 -0.49219,0.345703 -0.9668,0.515625 -1.41797,0.515625 -0.91406,0 -1.67285,-0.533204 -2.27344,-1.605469 -0.51562,-0.905274 -0.77344,-1.995117 -0.77344,-3.269531 z m 1.38282,0.175781 c 0,1.3125 0.1582,2.384765 0.48046,3.210937 0.27246,0.703125 0.6709,1.054688 1.19532,1.054688 0.25781,0 0.51855,-0.111328 0.78515,-0.339844 0.27246,-0.234375 0.48047,-0.615234 0.6211,-1.148437 0.21679,-0.802735 0.32812,-1.939454 0.32812,-3.410157 0,-1.083984 -0.11426,-1.992187 -0.33984,-2.71875 -0.16406,-0.539062 -0.38379,-0.919922 -0.65625,-1.148437 -0.1875,-0.155274 -0.41895,-0.234375 -0.69141,-0.234375 -0.32226,0 -0.60644,0.146484 -0.85547,0.433594 -0.33691,0.383789 -0.56836,0.993164 -0.6914,1.828125 -0.11719,0.83789 -0.17578,1.661132 -0.17578,2.472656 z m 5.81835,-0.175781 c 0,-1.083985 0.16407,-2.018555 0.49219,-2.800782 0.32813,-0.788086 0.76465,-1.376953 1.3125,-1.769531 0.42188,-0.304687 0.8584,-0.457031 1.3125,-0.457031 0.72656,0 1.38281,0.375 1.96875,1.125 0.72656,0.922851 1.08985,2.173828 1.08985,3.75 0,1.110351 -0.16114,2.050781 -0.48047,2.824219 -0.32227,0.773437 -0.73242,1.335937 -1.23047,1.6875 -0.49219,0.345703 -0.9668,0.515625 -1.41797,0.515625 -0.91406,0 -1.67285,-0.533204 -2.27344,-1.605469 -0.51562,-0.905274 -0.77344,-1.995117 -0.77344,-3.269531 z m 1.38282,0.175781 c 0,1.3125 0.1582,2.384765 0.48047,3.210937 0.27246,0.703125 0.67089,1.054688 1.19531,1.054688 0.25781,0 0.51855,-0.111328 0.78515,-0.339844 0.27247,-0.234375 0.48047,-0.615234 0.6211,-1.148437 0.2168,-0.802735 0.32812,-1.939454 0.32812,-3.410157 0,-1.083984 -0.11425,-1.992187 -0.33984,-2.71875 -0.16406,-0.539062 -0.38379,-0.919922 -0.65625,-1.148437 -0.1875,-0.155274 -0.41895,-0.234375 -0.69141,-0.234375 -0.32226,0 -0.60644,0.146484 -0.85547,0.433594 -0.33691,0.383789 -0.56835,0.993164 -0.6914,1.828125 -0.11719,0.83789 -0.17578,1.661132 -0.17578,2.472656 z m 6.99023,-4.066406 2.32031,-1.136719 h 0.23438 v 8.0625 c 0,0.533203 0.0176,0.864258 0.0586,0.996094 0.0469,0.134765 0.14063,0.234375 0.28125,0.304687 0.14063,0.07031 0.42481,0.111328 0.85547,0.117188 V -67.5 h -3.58594 v -0.257812 c 0.45118,-0.0059 0.74414,-0.04687 0.87891,-0.117188 0.13184,-0.07031 0.22266,-0.158203 0.26953,-0.269531 0.0527,-0.117188 0.082,-0.459961 0.082,-1.03125 v -5.15625 c 0,-0.694336 -0.0234,-1.139649 -0.0703,-1.335938 -0.0322,-0.146484 -0.0937,-0.257812 -0.1875,-0.328125 -0.0879,-0.07031 -0.1875,-0.105468 -0.30469,-0.105468 -0.17285,0 -0.41601,0.07617 -0.72656,0.222656 z m -21.60058,-76.499998 2.32031,-1.13672 h 0.23437 v 8.0625 c 0,0.5332 0.0176,0.86426 0.0586,0.99609 0.0469,0.13477 0.14062,0.23438 0.28125,0.30469 0.14062,0.0703 0.4248,0.11133 0.85547,0.11719 V -144 h -3.58594 v -0.25781 c 0.45117,-0.006 0.74414,-0.0469 0.8789,-0.11719 0.13184,-0.0703 0.22266,-0.1582 0.26954,-0.26953 0.0527,-0.11719 0.082,-0.45996 0.082,-1.03125 v -5.15625 c 0,-0.69434 -0.0234,-1.13965 -0.0703,-1.33594 -0.0322,-0.14648 -0.0937,-0.25781 -0.1875,-0.32812 -0.0879,-0.0703 -0.1875,-0.10547 -0.30468,-0.10547 -0.17285,0 -0.41602,0.0762 -0.72657,0.22265 z m 6.02636,3.89062 c 0,-1.08398 0.16407,-2.01855 0.49219,-2.80078 0.32813,-0.78808 0.76465,-1.37695 1.3125,-1.76953 0.42188,-0.30469 0.8584,-0.45703 1.3125,-0.45703 0.72656,0 1.38281,0.375 1.96875,1.125 0.72656,0.92285 1.08984,2.17383 1.08984,3.75 0,1.11035 -0.16113,2.05078 -0.48046,2.82422 -0.32227,0.77344 -0.73243,1.33594 -1.23047,1.6875 -0.49219,0.3457 -0.9668,0.51562 -1.41797,0.51562 -0.91406,0 -1.67285,-0.5332 -2.27344,-1.60547 -0.51562,-0.90527 -0.77344,-1.99511 -0.77344,-3.26953 z m 1.38282,0.17578 c 0,1.3125 0.1582,2.38477 0.48046,3.21094 0.27246,0.70313 0.6709,1.05469 1.19532,1.05469 0.25781,0 0.51855,-0.11133 0.78515,-0.33984 0.27246,-0.23438 0.48047,-0.61524 0.6211,-1.14844 0.21679,-0.80274 0.32812,-1.93946 0.32812,-3.41016 0,-1.08398 -0.11426,-1.99219 -0.33984,-2.71875 -0.16406,-0.53906 -0.38379,-0.91992 -0.65625,-1.14844 -0.1875,-0.15527 -0.41895,-0.23437 -0.69141,-0.23437 -0.32226,0 -0.60644,0.14648 -0.85547,0.43359 -0.33691,0.38379 -0.56836,0.99317 -0.6914,1.82813 -0.11719,0.83789 -0.17578,1.66113 -0.17578,2.47265 z m 5.81835,-0.17578 c 0,-1.08398 0.16407,-2.01855 0.49219,-2.80078 0.32813,-0.78808 0.76465,-1.37695 1.3125,-1.76953 0.42188,-0.30469 0.8584,-0.45703 1.3125,-0.45703 0.72656,0 1.38281,0.375 1.96875,1.125 0.72656,0.92285 1.08985,2.17383 1.08985,3.75 0,1.11035 -0.16114,2.05078 -0.48047,2.82422 -0.32227,0.77344 -0.73242,1.33594 -1.23047,1.6875 -0.49219,0.3457 -0.9668,0.51562 -1.41797,0.51562 -0.91406,0 -1.67285,-0.5332 -2.27344,-1.60547 -0.51562,-0.90527 -0.77344,-1.99511 -0.77344,-3.26953 z m 1.38282,0.17578 c 0,1.3125 0.1582,2.38477 0.48047,3.21094 0.27246,0.70313 0.67089,1.05469 1.19531,1.05469 0.25781,0 0.51855,-0.11133 0.78515,-0.33984 0.27247,-0.23438 0.48047,-0.61524 0.6211,-1.14844 0.2168,-0.80274 0.32812,-1.93946 0.32812,-3.41016 0,-1.08398 -0.11425,-1.99219 -0.33984,-2.71875 -0.16406,-0.53906 -0.38379,-0.91992 -0.65625,-1.14844 -0.1875,-0.15527 -0.41895,-0.23437 -0.69141,-0.23437 -0.32226,0 -0.60644,0.14648 -0.85547,0.43359 -0.33691,0.38379 -0.56835,0.99317 -0.6914,1.82813 -0.11719,0.83789 -0.17578,1.66113 -0.17578,2.47265 z m 6.99023,-4.0664 2.32031,-1.13672 h 0.23438 v 8.0625 c 0,0.5332 0.0176,0.86426 0.0586,0.99609 0.0469,0.13477 0.14063,0.23438 0.28125,0.30469 0.14063,0.0703 0.42481,0.11133 0.85547,0.11719 V -144 h -3.58594 v -0.25781 c 0.45118,-0.006 0.74414,-0.0469 0.87891,-0.11719 0.13184,-0.0703 0.22266,-0.1582 0.26953,-0.26953 0.0527,-0.11719 0.082,-0.45996 0.082,-1.03125 v -5.15625 c 0,-0.69434 -0.0234,-1.13965 -0.0703,-1.33594 -0.0322,-0.14648 -0.0937,-0.25781 -0.1875,-0.32812 -0.0879,-0.0703 -0.1875,-0.10547 -0.30469,-0.10547 -0.17285,0 -0.41601,0.0762 -0.72656,0.22265 z m 53.72754,3.89062 c 0,-1.08398 0.16406,-2.01855 0.49219,-2.80078 0.32812,-0.78808 0.76465,-1.37695 1.3125,-1.76953 0.42187,-0.30469 0.8584,-0.45703 1.3125,-0.45703 0.72656,0 1.38281,0.375 1.96875,1.125 0.72656,0.92285 1.08984,2.17383 1.08984,3.75 0,1.11035 -0.16113,2.05078 -0.48047,2.82422 -0.32226,0.77344 -0.73242,1.33594 -1.23047,1.6875 -0.49218,0.3457 -0.96679,0.51562 -1.41796,0.51562 -0.91407,0 -1.67286,-0.5332 -2.27344,-1.60547 -0.51563,-0.90527 -0.77344,-1.99511 -0.77344,-3.26953 z m 1.38281,0.17578 c 0,1.3125 0.15821,2.38477 0.48047,3.21094 0.27246,0.70313 0.6709,1.05469 1.19531,1.05469 0.25782,0 0.51856,-0.11133 0.78516,-0.33984 0.27246,-0.23438 0.48047,-0.61524 0.62109,-1.14844 0.2168,-0.80274 0.32813,-1.93946 0.32813,-3.41016 0,-1.08398 -0.11426,-1.99219 -0.33984,-2.71875 -0.16407,-0.53906 -0.38379,-0.91992 -0.65625,-1.14844 -0.1875,-0.15527 -0.41895,-0.23437 -0.69141,-0.23437 -0.32227,0 -0.60645,0.14648 -0.85547,0.43359 -0.33691,0.38379 -0.56836,0.99317 -0.69141,1.82813 -0.11718,0.83789 -0.17578,1.66113 -0.17578,2.47265 z m 6.98731,-4.0664 2.32031,-1.13672 h 0.23438 v 8.0625 c 0,0.5332 0.0176,0.86426 0.0586,0.99609 0.0469,0.13477 0.14062,0.23438 0.28125,0.30469 0.14062,0.0703 0.4248,0.11133 0.85547,0.11719 V -144 h -3.58594 v -0.25781 c 0.45117,-0.006 0.74414,-0.0469 0.87891,-0.11719 0.13183,-0.0703 0.22265,-0.1582 0.26953,-0.26953 0.0527,-0.11719 0.082,-0.45996 0.082,-1.03125 v -5.15625 c 0,-0.69434 -0.0234,-1.13965 -0.0703,-1.33594 -0.0322,-0.14648 -0.0937,-0.25781 -0.1875,-0.32812 -0.0879,-0.0703 -0.1875,-0.10547 -0.30469,-0.10547 -0.17285,0 -0.41602,0.0762 -0.72656,0.22265 z m 6.02929,3.89062 c 0,-1.08398 0.16407,-2.01855 0.49219,-2.80078 0.32813,-0.78808 0.76465,-1.37695 1.3125,-1.76953 0.42188,-0.30469 0.8584,-0.45703 1.3125,-0.45703 0.72656,0 1.38281,0.375 1.96875,1.125 0.72656,0.92285 1.08985,2.17383 1.08985,3.75 0,1.11035 -0.16114,2.05078 -0.48047,2.82422 -0.32227,0.77344 -0.73242,1.33594 -1.23047,1.6875 -0.49219,0.3457 -0.9668,0.51562 -1.41797,0.51562 -0.91406,0 -1.67285,-0.5332 -2.27344,-1.60547 -0.51562,-0.90527 -0.77344,-1.99511 -0.77344,-3.26953 z m 1.38282,0.17578 c 0,1.3125 0.1582,2.38477 0.48047,3.21094 0.27246,0.70313 0.67089,1.05469 1.19531,1.05469 0.25781,0 0.51855,-0.11133 0.78515,-0.33984 0.27247,-0.23438 0.48047,-0.61524 0.6211,-1.14844 0.2168,-0.80274 0.32812,-1.93946 0.32812,-3.41016 0,-1.08398 -0.11425,-1.99219 -0.33984,-2.71875 -0.16406,-0.53906 -0.38379,-0.91992 -0.65625,-1.14844 -0.1875,-0.15527 -0.41895,-0.23437 -0.69141,-0.23437 -0.32226,0 -0.60644,0.14648 -0.85547,0.43359 -0.33691,0.38379 -0.56835,0.99317 -0.6914,1.82813 -0.11719,0.83789 -0.17578,1.66113 -0.17578,2.47265 z m 6.99023,-4.0664 2.32031,-1.13672 h 0.23438 v 8.0625 c 0,0.5332 0.0176,0.86426 0.0586,0.99609 0.0469,0.13477 0.14063,0.23438 0.28125,0.30469 0.14063,0.0703 0.42481,0.11133 0.85547,0.11719 V -144 h -3.58594 v -0.25781 c 0.45118,-0.006 0.74414,-0.0469 0.87891,-0.11719 0.13184,-0.0703 0.22266,-0.1582 0.26953,-0.26953 0.0527,-0.11719 0.082,-0.45996 0.082,-1.03125 v -5.15625 c 0,-0.69434 -0.0234,-1.13965 -0.0703,-1.33594 -0.0322,-0.14648 -0.0937,-0.25781 -0.1875,-0.32812 -0.0879,-0.0703 -0.1875,-0.10547 -0.30469,-0.10547 -0.17285,0 -0.41601,0.0762 -0.72656,0.22265 z m -315.27246,-81.60938 c 0,-1.08398 0.16406,-2.01855 0.49219,-2.80078 0.32812,-0.78808 0.76465,-1.37695 1.3125,-1.76953 0.42187,-0.30469 0.8584,-0.45703 1.3125,-0.45703 0.72656,0 1.38281,0.375 1.96875,1.125 0.72656,0.92285 1.08984,2.17383 1.08984,3.75 0,1.11035 -0.16113,2.05078 -0.48047,2.82422 -0.32226,0.77344 -0.73242,1.33594 -1.23047,1.6875 -0.49218,0.3457 -0.96679,0.51562 -1.41796,0.51562 -0.91407,0 -1.67286,-0.5332 -2.27344,-1.60547 -0.51563,-0.90527 -0.77344,-1.99511 -0.77344,-3.26953 z m 1.38281,0.17578 c 0,1.3125 0.15821,2.38477 0.48047,3.21094 0.27246,0.70313 0.6709,1.05469 1.19531,1.05469 0.25782,0 0.51856,-0.11133 0.78516,-0.33984 0.27246,-0.23438 0.48047,-0.61524 0.62109,-1.14844 0.2168,-0.80274 0.32813,-1.93946 0.32813,-3.41016 0,-1.08398 -0.11426,-1.99219 -0.33984,-2.71875 -0.16407,-0.53906 -0.38379,-0.91992 -0.65625,-1.14844 -0.1875,-0.15527 -0.41895,-0.23437 -0.69141,-0.23437 -0.32227,0 -0.60645,0.14648 -0.85547,0.43359 -0.33691,0.38379 -0.56836,0.99317 -0.69141,1.82813 -0.11718,0.83789 -0.17578,1.66113 -0.17578,2.47265 z m 6.98731,-4.0664 2.32031,-1.13672 h 0.23437 v 8.0625 c 0,0.5332 0.0176,0.86426 0.0586,0.99609 0.0469,0.13477 0.14062,0.23438 0.28125,0.30469 0.14062,0.0703 0.4248,0.11133 0.85547,0.11719 V -229.5 h -3.58594 v -0.25781 c 0.45117,-0.006 0.74414,-0.0469 0.87891,-0.11719 0.13183,-0.0703 0.22265,-0.1582 0.26953,-0.26953 0.0527,-0.11719 0.082,-0.45996 0.082,-1.03125 v -5.15625 c 0,-0.69434 -0.0234,-1.13965 -0.0703,-1.33594 -0.0322,-0.14648 -0.0937,-0.25781 -0.1875,-0.32812 -0.0879,-0.0703 -0.1875,-0.10547 -0.30469,-0.10547 -0.17285,0 -0.41602,0.0762 -0.72656,0.22265 z m 7.20117,0 2.32031,-1.13672 h 0.23438 v 8.0625 c 0,0.5332 0.0176,0.86426 0.0586,0.99609 0.0469,0.13477 0.14063,0.23438 0.28125,0.30469 0.14063,0.0703 0.42481,0.11133 0.85547,0.11719 V -229.5 h -3.58594 v -0.25781 c 0.45117,-0.006 0.74414,-0.0469 0.87891,-0.11719 0.13183,-0.0703 0.22265,-0.1582 0.26953,-0.26953 0.0527,-0.11719 0.082,-0.45996 0.082,-1.03125 v -5.15625 c 0,-0.69434 -0.0234,-1.13965 -0.0703,-1.33594 -0.0322,-0.14648 -0.0937,-0.25781 -0.1875,-0.32812 -0.0879,-0.0703 -0.1875,-0.10547 -0.30469,-0.10547 -0.17285,0 -0.41602,0.0762 -0.72656,0.22265 z m 7.20117,0 2.32031,-1.13672 h 0.23438 v 8.0625 c 0,0.5332 0.0176,0.86426 0.0586,0.99609 0.0469,0.13477 0.14063,0.23438 0.28125,0.30469 0.14063,0.0703 0.42481,0.11133 0.85547,0.11719 V -229.5 h -3.58594 v -0.25781 c 0.45118,-0.006 0.74414,-0.0469 0.87891,-0.11719 0.13184,-0.0703 0.22266,-0.1582 0.26953,-0.26953 0.0527,-0.11719 0.082,-0.45996 0.082,-1.03125 v -5.15625 c 0,-0.69434 -0.0234,-1.13965 -0.0703,-1.33594 -0.0322,-0.14648 -0.0937,-0.25781 -0.1875,-0.32812 -0.0879,-0.0703 -0.1875,-0.10547 -0.30469,-0.10547 -0.17285,0 -0.41601,0.0762 -0.72656,0.22265 z m -22.77246,89.39062 c 0,-1.08398 0.16406,-2.01855 0.49219,-2.80078 0.32812,-0.78808 0.76465,-1.37695 1.3125,-1.76953 0.42187,-0.30469 0.8584,-0.45703 1.3125,-0.45703 0.72656,0 1.38281,0.375 1.96875,1.125 0.72656,0.92285 1.08984,2.17383 1.08984,3.75 0,1.11035 -0.16113,2.05078 -0.48047,2.82422 -0.32226,0.77344 -0.73242,1.33594 -1.23047,1.6875 -0.49218,0.3457 -0.96679,0.51562 -1.41796,0.51562 -0.91407,0 -1.67286,-0.5332 -2.27344,-1.60547 -0.51563,-0.90527 -0.77344,-1.99511 -0.77344,-3.26953 z m 1.38281,0.17578 c 0,1.3125 0.15821,2.38477 0.48047,3.21094 0.27246,0.70313 0.6709,1.05469 1.19531,1.05469 0.25782,0 0.51856,-0.11133 0.78516,-0.33984 0.27246,-0.23438 0.48047,-0.61524 0.62109,-1.14844 0.2168,-0.80274 0.32813,-1.93946 0.32813,-3.41016 0,-1.08398 -0.11426,-1.99219 -0.33984,-2.71875 -0.16407,-0.53906 -0.38379,-0.91992 -0.65625,-1.14844 -0.1875,-0.15527 -0.41895,-0.23437 -0.69141,-0.23437 -0.32227,0 -0.60645,0.14648 -0.85547,0.43359 -0.33691,0.38379 -0.56836,0.99317 -0.69141,1.82813 -0.11718,0.83789 -0.17578,1.66113 -0.17578,2.47265 z m 6.98731,-4.0664 2.32031,-1.13672 h 0.23437 v 8.0625 c 0,0.5332 0.0176,0.86426 0.0586,0.99609 0.0469,0.13477 0.14062,0.23438 0.28125,0.30469 0.14062,0.0703 0.4248,0.11133 0.85547,0.11719 V -144 h -3.58594 v -0.25781 c 0.45117,-0.006 0.74414,-0.0469 0.87891,-0.11719 0.13183,-0.0703 0.22265,-0.1582 0.26953,-0.26953 0.0527,-0.11719 0.082,-0.45996 0.082,-1.03125 v -5.15625 c 0,-0.69434 -0.0234,-1.13965 -0.0703,-1.33594 -0.0322,-0.14648 -0.0937,-0.25781 -0.1875,-0.32812 -0.0879,-0.0703 -0.1875,-0.10547 -0.30469,-0.10547 -0.17285,0 -0.41602,0.0762 -0.72656,0.22265 z m 7.20117,0 2.32031,-1.13672 h 0.23438 v 8.0625 c 0,0.5332 0.0176,0.86426 0.0586,0.99609 0.0469,0.13477 0.14063,0.23438 0.28125,0.30469 0.14063,0.0703 0.42481,0.11133 0.85547,0.11719 V -144 h -3.58594 v -0.25781 c 0.45117,-0.006 0.74414,-0.0469 0.87891,-0.11719 0.13183,-0.0703 0.22265,-0.1582 0.26953,-0.26953 0.0527,-0.11719 0.082,-0.45996 0.082,-1.03125 v -5.15625 c 0,-0.69434 -0.0234,-1.13965 -0.0703,-1.33594 -0.0322,-0.14648 -0.0937,-0.25781 -0.1875,-0.32812 -0.0879,-0.0703 -0.1875,-0.10547 -0.30469,-0.10547 -0.17285,0 -0.41602,0.0762 -0.72656,0.22265 z m 6.0293,3.89062 c 0,-1.08398 0.16406,-2.01855 0.49218,-2.80078 0.32813,-0.78808 0.76465,-1.37695 1.3125,-1.76953 0.42188,-0.30469 0.8584,-0.45703 1.3125,-0.45703 0.72657,0 1.38282,0.375 1.96875,1.125 0.72657,0.92285 1.08985,2.17383 1.08985,3.75 0,1.11035 -0.16114,2.05078 -0.48047,2.82422 -0.32227,0.77344 -0.73242,1.33594 -1.23047,1.6875 -0.49219,0.3457 -0.9668,0.51562 -1.41797,0.51562 -0.91406,0 -1.67285,-0.5332 -2.27344,-1.60547 -0.51562,-0.90527 -0.77343,-1.99511 -0.77343,-3.26953 z m 1.38281,0.17578 c 0,1.3125 0.1582,2.38477 0.48047,3.21094 0.27246,0.70313 0.6709,1.05469 1.19531,1.05469 0.25781,0 0.51855,-0.11133 0.78516,-0.33984 0.27246,-0.23438 0.48046,-0.61524 0.62109,-1.14844 0.2168,-0.80274 0.32812,-1.93946 0.32812,-3.41016 0,-1.08398 -0.11425,-1.99219 -0.33984,-2.71875 -0.16406,-0.53906 -0.38379,-0.91992 -0.65625,-1.14844 -0.1875,-0.15527 -0.41894,-0.23437 -0.69141,-0.23437 -0.32226,0 -0.60644,0.14648 -0.85546,0.43359 -0.33692,0.38379 -0.56836,0.99317 -0.69141,1.82813 -0.11719,0.83789 -0.17578,1.66113 -0.17578,2.47265 z m -22.9834,76.324223 c 0,-1.083985 0.16406,-2.018555 0.49219,-2.800782 0.32812,-0.788086 0.76465,-1.376953 1.3125,-1.769531 0.42187,-0.304687 0.8584,-0.457031 1.3125,-0.457031 0.72656,0 1.38281,0.375 1.96875,1.125 0.72656,0.922851 1.08984,2.173828 1.08984,3.75 0,1.110351 -0.16113,2.050781 -0.48047,2.824219 -0.32226,0.773437 -0.73242,1.335937 -1.23047,1.6875 -0.49218,0.345703 -0.96679,0.515625 -1.41796,0.515625 -0.91407,0 -1.67286,-0.533204 -2.27344,-1.605469 -0.51563,-0.905274 -0.77344,-1.995117 -0.77344,-3.269531 z m 1.38281,0.175781 c 0,1.3125 0.15821,2.384765 0.48047,3.210937 0.27246,0.703125 0.6709,1.054688 1.19531,1.054688 0.25782,0 0.51856,-0.111328 0.78516,-0.339844 0.27246,-0.234375 0.48047,-0.615234 0.62109,-1.148437 0.2168,-0.802735 0.32813,-1.939454 0.32813,-3.410157 0,-1.083984 -0.11426,-1.992187 -0.33984,-2.71875 -0.16407,-0.539062 -0.38379,-0.919922 -0.65625,-1.148437 -0.1875,-0.155274 -0.41895,-0.234375 -0.69141,-0.234375 -0.32227,0 -0.60645,0.146484 -0.85547,0.433594 -0.33691,0.383789 -0.56836,0.993164 -0.69141,1.828125 -0.11718,0.83789 -0.17578,1.661132 -0.17578,2.472656 z m 6.98731,-4.066406 2.32031,-1.136719 h 0.23437 v 8.0625 c 0,0.533203 0.0176,0.864258 0.0586,0.996094 0.0469,0.134765 0.14062,0.234375 0.28125,0.304687 0.14062,0.07031 0.4248,0.111328 0.85547,0.117188 V -67.5 h -3.58594 v -0.257812 c 0.45117,-0.0059 0.74414,-0.04687 0.87891,-0.117188 0.13183,-0.07031 0.22265,-0.158203 0.26953,-0.269531 0.0527,-0.117188 0.082,-0.459961 0.082,-1.03125 v -5.15625 c 0,-0.694336 -0.0234,-1.139649 -0.0703,-1.335938 -0.0322,-0.146484 -0.0937,-0.257812 -0.1875,-0.328125 -0.0879,-0.07031 -0.1875,-0.105468 -0.30469,-0.105468 -0.17285,0 -0.41602,0.07617 -0.72656,0.222656 z m 6.02929,3.890625 c 0,-1.083985 0.16407,-2.018555 0.49219,-2.800782 0.32813,-0.788086 0.76465,-1.376953 1.3125,-1.769531 0.42188,-0.304687 0.8584,-0.457031 1.3125,-0.457031 0.72656,0 1.38281,0.375 1.96875,1.125 0.72656,0.922851 1.08985,2.173828 1.08985,3.75 0,1.110351 -0.16114,2.050781 -0.48047,2.824219 -0.32227,0.773437 -0.73243,1.335937 -1.23047,1.6875 -0.49219,0.345703 -0.9668,0.515625 -1.41797,0.515625 -0.91406,0 -1.67285,-0.533204 -2.27344,-1.605469 -0.51562,-0.905274 -0.77344,-1.995117 -0.77344,-3.269531 z m 1.38282,0.175781 c 0,1.3125 0.1582,2.384765 0.48047,3.210937 0.27246,0.703125 0.67089,1.054688 1.19531,1.054688 0.25781,0 0.51855,-0.111328 0.78515,-0.339844 0.27247,-0.234375 0.48047,-0.615234 0.6211,-1.148437 0.21679,-0.802735 0.32812,-1.939454 0.32812,-3.410157 0,-1.083984 -0.11425,-1.992187 -0.33984,-2.71875 -0.16406,-0.539062 -0.38379,-0.919922 -0.65625,-1.148437 -0.1875,-0.155274 -0.41895,-0.234375 -0.69141,-0.234375 -0.32226,0 -0.60644,0.146484 -0.85547,0.433594 -0.33691,0.383789 -0.56836,0.993164 -0.6914,1.828125 -0.11719,0.83789 -0.17578,1.661132 -0.17578,2.472656 z m 5.81836,-0.175781 c 0,-1.083985 0.16406,-2.018555 0.49218,-2.800782 0.32813,-0.788086 0.76465,-1.376953 1.3125,-1.769531 0.42188,-0.304687 0.8584,-0.457031 1.3125,-0.457031 0.72657,0 1.38282,0.375 1.96875,1.125 0.72657,0.922851 1.08985,2.173828 1.08985,3.75 0,1.110351 -0.16114,2.050781 -0.48047,2.824219 -0.32227,0.773437 -0.73242,1.335937 -1.23047,1.6875 -0.49219,0.345703 -0.9668,0.515625 -1.41797,0.515625 -0.91406,0 -1.67285,-0.533204 -2.27344,-1.605469 -0.51562,-0.905274 -0.77343,-1.995117 -0.77343,-3.269531 z m 1.38281,0.175781 c 0,1.3125 0.1582,2.384765 0.48047,3.210937 0.27246,0.703125 0.6709,1.054688 1.19531,1.054688 0.25781,0 0.51855,-0.111328 0.78516,-0.339844 0.27246,-0.234375 0.48046,-0.615234 0.62109,-1.148437 0.2168,-0.802735 0.32812,-1.939454 0.32812,-3.410157 0,-1.083984 -0.11425,-1.992187 -0.33984,-2.71875 -0.16406,-0.539062 -0.38379,-0.919922 -0.65625,-1.148437 -0.1875,-0.155274 -0.41894,-0.234375 -0.69141,-0.234375 -0.32226,0 -0.60644,0.146484 -0.85546,0.433594 -0.33692,0.383789 -0.56836,0.993164 -0.69141,1.828125 -0.11719,0.83789 -0.17578,1.661132 -0.17578,2.472656 z m 194.18848,-166.066404 2.32031,-1.13672 h 0.23437 v 8.0625 c 0,0.5332 0.0176,0.86426 0.0586,0.99609 0.0469,0.13477 0.14062,0.23438 0.28125,0.30469 0.14062,0.0703 0.4248,0.11133 0.85547,0.11719 V -229.5 h -3.58594 v -0.25781 c 0.45117,-0.006 0.74414,-0.0469 0.8789,-0.11719 0.13184,-0.0703 0.22266,-0.1582 0.26954,-0.26953 0.0527,-0.11719 0.082,-0.45996 0.082,-1.03125 v -5.15625 c 0,-0.69434 -0.0234,-1.13965 -0.0703,-1.33594 -0.0322,-0.14648 -0.0937,-0.25781 -0.1875,-0.32812 -0.0879,-0.0703 -0.1875,-0.10547 -0.30468,-0.10547 -0.17285,0 -0.41602,0.0762 -0.72657,0.22265 z m 7.19824,0 2.32031,-1.13672 h 0.23438 v 8.0625 c 0,0.5332 0.0176,0.86426 0.0586,0.99609 0.0469,0.13477 0.14062,0.23438 0.28125,0.30469 0.14062,0.0703 0.4248,0.11133 0.85547,0.11719 V -229.5 h -3.58594 v -0.25781 c 0.45117,-0.006 0.74414,-0.0469 0.87891,-0.11719 0.13183,-0.0703 0.22265,-0.1582 0.26953,-0.26953 0.0527,-0.11719 0.082,-0.45996 0.082,-1.03125 v -5.15625 c 0,-0.69434 -0.0234,-1.13965 -0.0703,-1.33594 -0.0322,-0.14648 -0.0937,-0.25781 -0.1875,-0.32812 -0.0879,-0.0703 -0.1875,-0.10547 -0.30469,-0.10547 -0.17285,0 -0.41602,0.0762 -0.72656,0.22265 z m 6.02929,3.89062 c 0,-1.08398 0.16407,-2.01855 0.49219,-2.80078 0.32813,-0.78808 0.76465,-1.37695 1.3125,-1.76953 0.42188,-0.30469 0.8584,-0.45703 1.3125,-0.45703 0.72656,0 1.38281,0.375 1.96875,1.125 0.72656,0.92285 1.08985,2.17383 1.08985,3.75 0,1.11035 -0.16114,2.05078 -0.48047,2.82422 -0.32227,0.77344 -0.73242,1.33594 -1.23047,1.6875 -0.49219,0.3457 -0.9668,0.51562 -1.41797,0.51562 -0.91406,0 -1.67285,-0.5332 -2.27344,-1.60547 -0.51562,-0.90527 -0.77344,-1.99511 -0.77344,-3.26953 z m 1.38282,0.17578 c 0,1.3125 0.1582,2.38477 0.48047,3.21094 0.27246,0.70313 0.67089,1.05469 1.19531,1.05469 0.25781,0 0.51855,-0.11133 0.78515,-0.33984 0.27247,-0.23438 0.48047,-0.61524 0.6211,-1.14844 0.2168,-0.80274 0.32812,-1.93946 0.32812,-3.41016 0,-1.08398 -0.11425,-1.99219 -0.33984,-2.71875 -0.16406,-0.53906 -0.38379,-0.91992 -0.65625,-1.14844 -0.1875,-0.15527 -0.41895,-0.23437 -0.69141,-0.23437 -0.32226,0 -0.60644,0.14648 -0.85547,0.43359 -0.33691,0.38379 -0.56835,0.99317 -0.6914,1.82813 -0.11719,0.83789 -0.17578,1.66113 -0.17578,2.47265 z m 6.99023,-4.0664 2.32031,-1.13672 h 0.23438 v 8.0625 c 0,0.5332 0.0176,0.86426 0.0586,0.99609 0.0469,0.13477 0.14063,0.23438 0.28125,0.30469 0.14063,0.0703 0.42481,0.11133 0.85547,0.11719 V -229.5 h -3.58594 v -0.25781 c 0.45118,-0.006 0.74414,-0.0469 0.87891,-0.11719 0.13184,-0.0703 0.22266,-0.1582 0.26953,-0.26953 0.0527,-0.11719 0.082,-0.45996 0.082,-1.03125 v -5.15625 c 0,-0.69434 -0.0234,-1.13965 -0.0703,-1.33594 -0.0322,-0.14648 -0.0937,-0.25781 -0.1875,-0.32812 -0.0879,-0.0703 -0.1875,-0.10547 -0.30469,-0.10547 -0.17285,0 -0.41601,0.0762 -0.72656,0.22265 z M 191.31422,-72.210937 c 0,-1.083985 0.16406,-2.018555 0.49219,-2.800782 0.32812,-0.788086 0.76465,-1.376953 1.3125,-1.769531 0.42187,-0.304687 0.8584,-0.457031 1.3125,-0.457031 0.72656,0 1.38281,0.375 1.96875,1.125 0.72656,0.922851 1.08984,2.173828 1.08984,3.75 0,1.110351 -0.16113,2.050781 -0.48047,2.824219 -0.32226,0.773437 -0.73242,1.335937 -1.23047,1.6875 -0.49218,0.345703 -0.96679,0.515625 -1.41796,0.515625 -0.91407,0 -1.67286,-0.533204 -2.27344,-1.605469 -0.51563,-0.905274 -0.77344,-1.995117 -0.77344,-3.269531 z m 1.38281,0.175781 c 0,1.3125 0.15821,2.384765 0.48047,3.210937 0.27246,0.703125 0.6709,1.054688 1.19531,1.054688 0.25782,0 0.51856,-0.111328 0.78516,-0.339844 0.27246,-0.234375 0.48047,-0.615234 0.62109,-1.148437 0.2168,-0.802735 0.32813,-1.939454 0.32813,-3.410157 0,-1.083984 -0.11426,-1.992187 -0.33984,-2.71875 -0.16407,-0.539062 -0.38379,-0.919922 -0.65625,-1.148437 -0.1875,-0.155274 -0.41895,-0.234375 -0.69141,-0.234375 -0.32227,0 -0.60645,0.146484 -0.85547,0.433594 -0.33691,0.383789 -0.56836,0.993164 -0.69141,1.828125 -0.11718,0.83789 -0.17578,1.661132 -0.17578,2.472656 z m 5.81543,-0.175781 c 0,-1.083985 0.16406,-2.018555 0.49219,-2.800782 0.32812,-0.788086 0.76465,-1.376953 1.3125,-1.769531 0.42187,-0.304687 0.8584,-0.457031 1.3125,-0.457031 0.72656,0 1.38281,0.375 1.96875,1.125 0.72656,0.922851 1.08984,2.173828 1.08984,3.75 0,1.110351 -0.16113,2.050781 -0.48047,2.824219 -0.32226,0.773437 -0.73242,1.335937 -1.23046,1.6875 -0.49219,0.345703 -0.9668,0.515625 -1.41797,0.515625 -0.91407,0 -1.67285,-0.533204 -2.27344,-1.605469 -0.51563,-0.905274 -0.77344,-1.995117 -0.77344,-3.269531 z m 1.38281,0.175781 c 0,1.3125 0.15821,2.384765 0.48047,3.210937 0.27246,0.703125 0.6709,1.054688 1.19532,1.054688 0.25781,0 0.51855,-0.111328 0.78515,-0.339844 0.27246,-0.234375 0.48047,-0.615234 0.6211,-1.148437 0.21679,-0.802735 0.32812,-1.939454 0.32812,-3.410157 0,-1.083984 -0.11426,-1.992187 -0.33984,-2.71875 -0.16407,-0.539062 -0.38379,-0.919922 -0.65625,-1.148437 -0.1875,-0.155274 -0.41895,-0.234375 -0.69141,-0.234375 -0.32226,0 -0.60644,0.146484 -0.85547,0.433594 -0.33691,0.383789 -0.56836,0.993164 -0.6914,1.828125 -0.11719,0.83789 -0.17579,1.661132 -0.17579,2.472656 z m 6.99024,-4.066406 2.32031,-1.136719 h 0.23438 v 8.0625 c 0,0.533203 0.0176,0.864258 0.0586,0.996094 0.0469,0.134765 0.14063,0.234375 0.28125,0.304687 0.14063,0.07031 0.42481,0.111328 0.85547,0.117188 V -67.5 h -3.58594 v -0.257812 c 0.45117,-0.0059 0.74414,-0.04687 0.87891,-0.117188 0.13183,-0.07031 0.22265,-0.158203 0.26953,-0.269531 0.0527,-0.117188 0.082,-0.459961 0.082,-1.03125 v -5.15625 c 0,-0.694336 -0.0234,-1.139649 -0.0703,-1.335938 -0.0322,-0.146484 -0.0937,-0.257812 -0.1875,-0.328125 -0.0879,-0.07031 -0.1875,-0.105468 -0.30469,-0.105468 -0.17285,0 -0.41602,0.07617 -0.72656,0.222656 z m 6.0293,3.890625 c 0,-1.083985 0.16406,-2.018555 0.49218,-2.800782 0.32813,-0.788086 0.76465,-1.376953 1.3125,-1.769531 0.42188,-0.304687 0.8584,-0.457031 1.3125,-0.457031 0.72657,0 1.38282,0.375 1.96875,1.125 0.72657,0.922851 1.08985,2.173828 1.08985,3.75 0,1.110351 -0.16114,2.050781 -0.48047,2.824219 -0.32227,0.773437 -0.73242,1.335937 -1.23047,1.6875 -0.49219,0.345703 -0.9668,0.515625 -1.41797,0.515625 -0.91406,0 -1.67285,-0.533204 -2.27344,-1.605469 -0.51562,-0.905274 -0.77343,-1.995117 -0.77343,-3.269531 z m 1.38281,0.175781 c 0,1.3125 0.1582,2.384765 0.48047,3.210937 0.27246,0.703125 0.6709,1.054688 1.19531,1.054688 0.25781,0 0.51855,-0.111328 0.78516,-0.339844 0.27246,-0.234375 0.48046,-0.615234 0.62109,-1.148437 0.2168,-0.802735 0.32812,-1.939454 0.32812,-3.410157 0,-1.083984 -0.11425,-1.992187 -0.33984,-2.71875 -0.16406,-0.539062 -0.38379,-0.919922 -0.65625,-1.148437 -0.1875,-0.155274 -0.41894,-0.234375 -0.69141,-0.234375 -0.32226,0 -0.60644,0.146484 -0.85546,0.433594 -0.33692,0.383789 -0.56836,0.993164 -0.69141,1.828125 -0.11719,0.83789 -0.17578,1.661132 -0.17578,2.472656 z m -217.1103528,-8.566406 2.32031249,-1.136719 h 0.234375 v 8.0625 c 0,0.533203 0.0175781,0.864258 0.0585938,0.996094 0.046875,0.134765 0.140625,0.234375 0.28125,0.304687 0.140625,0.07031 0.42480469,0.111328 0.85546875,0.117188 V -72 H -2.6486703 v -0.257812 c 0.4511719,-0.0059 0.7441406,-0.04687 0.8789062,-0.117188 0.131836,-0.07031 0.2226563,-0.158203 0.2695313,-0.269531 0.052734,-0.117188 0.082031,-0.459961 0.082031,-1.03125 v -5.15625 c 0,-0.694336 -0.023437,-1.139649 -0.070312,-1.335938 -0.032227,-0.146484 -0.09375,-0.257812 -0.1875,-0.328125 -0.087891,-0.07031 -0.1875,-0.105468 -0.3046875,-0.105468 -0.1728515,0 -0.4160156,0.07617 -0.7265625,0.222656 z m 6.0292969,3.890625 c 0,-1.083985 0.1640625,-2.018555 0.4921875,-2.800782 0.328125,-0.788086 0.7646484,-1.376953 1.3125,-1.769531 0.421875,-0.304687 0.8583984,-0.457031 1.3125,-0.457031 0.7265625,0 1.3828125,0.375 1.96875,1.125 0.7265625,0.922851 1.0898437,2.173828 1.0898437,3.75 0,1.110351 -0.1611328,2.050781 -0.4804687,2.824219 -0.3222657,0.773437 -0.7324219,1.335937 -1.2304688,1.6875 -0.4921875,0.345703 -0.9667969,0.515625 -1.4179687,0.515625 -0.9140625,0 -1.6728516,-0.533204 -2.2734375,-1.605469 -0.515625,-0.905274 -0.7734375,-1.995117 -0.7734375,-3.269531 z m 1.3828125,0.175781 c 0,1.3125 0.1582031,2.384765 0.4804687,3.210937 0.272461,0.703125 0.6708985,1.054688 1.1953125,1.054688 0.2578125,0 0.5185547,-0.111328 0.7851563,-0.339844 0.2724609,-0.234375 0.4804687,-0.615234 0.6210937,-1.148437 0.2167969,-0.802735 0.328125,-1.939454 0.328125,-3.410157 0,-1.083984 -0.1142578,-1.992187 -0.3398437,-2.71875 -0.1640625,-0.539062 -0.3837891,-0.919922 -0.65625,-1.148437 -0.1875,-0.155274 -0.4189453,-0.234375 -0.6914063,-0.234375 -0.3222656,0 -0.6064453,0.146484 -0.8554687,0.433594 -0.3369141,0.383789 -0.5683594,0.993164 -0.6914063,1.828125 -0.1171875,0.83789 -0.1757812,1.661132 -0.1757812,2.472656 z m 5.8154294,-0.175781 c 0,-1.083985 0.164063,-2.018555 0.492188,-2.800782 0.328125,-0.788086 0.764648,-1.376953 1.3125,-1.769531 0.421875,-0.304687 0.858398,-0.457031 1.3125,-0.457031 0.726562,0 1.382812,0.375 1.96875,1.125 0.726562,0.922851 1.089844,2.173828 1.089844,3.75 0,1.110351 -0.161133,2.050781 -0.480469,2.824219 -0.322266,0.773437 -0.732422,1.335937 -1.230469,1.6875 -0.492187,0.345703 -0.966797,0.515625 -1.417969,0.515625 -0.914062,0 -1.672851,-0.533204 -2.273437,-1.605469 -0.515625,-0.905274 -0.773438,-1.995117 -0.773438,-3.269531 z m 1.382813,0.175781 c 0,1.3125 0.158203,2.384765 0.480469,3.210937 0.27246,0.703125 0.670898,1.054688 1.195312,1.054688 0.257813,0 0.518555,-0.111328 0.785156,-0.339844 0.272461,-0.234375 0.480469,-0.615234 0.621094,-1.148437 0.216797,-0.802735 0.328125,-1.939454 0.328125,-3.410157 0,-1.083984 -0.114258,-1.992187 -0.339844,-2.71875 -0.164062,-0.539062 -0.383789,-0.919922 -0.65625,-1.148437 -0.1875,-0.155274 -0.418945,-0.234375 -0.691406,-0.234375 -0.322266,0 -0.606445,0.146484 -0.855469,0.433594 -0.336914,0.383789 -0.568359,0.993164 -0.691406,1.828125 -0.117187,0.83789 -0.175781,1.661132 -0.175781,2.472656 z m 5.818359,-0.175781 c 0,-1.083985 0.164063,-2.018555 0.492188,-2.800782 0.328125,-0.788086 0.764648,-1.376953 1.3125,-1.769531 0.421875,-0.304687 0.858398,-0.457031 1.3125,-0.457031 0.726562,0 1.382812,0.375 1.96875,1.125 0.726562,0.922851 1.089843,2.173828 1.089843,3.75 0,1.110351 -0.161132,2.050781 -0.480468,2.824219 -0.322266,0.773437 -0.732422,1.335937 -1.230469,1.6875 -0.492188,0.345703 -0.966797,0.515625 -1.417969,0.515625 -0.914062,0 -1.672851,-0.533204 -2.273437,-1.605469 -0.515625,-0.905274 -0.773438,-1.995117 -0.773438,-3.269531 z m 1.382813,0.175781 c 0,1.3125 0.158203,2.384765 0.480468,3.210937 0.272461,0.703125 0.670899,1.054688 1.195313,1.054688 0.257812,0 0.518555,-0.111328 0.785156,-0.339844 0.272461,-0.234375 0.480469,-0.615234 0.621094,-1.148437 0.216797,-0.802735 0.328125,-1.939454 0.328125,-3.410157 0,-1.083984 -0.114258,-1.992187 -0.339844,-2.71875 -0.164062,-0.539062 -0.383789,-0.919922 -0.65625,-1.148437 -0.1875,-0.155274 -0.418945,-0.234375 -0.691406,-0.234375 -0.322266,0 -0.606445,0.146484 -0.855469,0.433594 -0.336914,0.383789 -0.568359,0.993164 -0.691406,1.828125 -0.117188,0.83789 -0.175781,1.661132 -0.175781,2.472656 z m 0,0"
       style="fill:#000000;fill-opacity:1;fill-rule:nonzero;stroke:none"
       aria-label="0000&#10;1100&#10;1110&#10;1111&#10;1010&#10;1011&#10;0011&#10;0001&#10;10010101&#10;0111&#10;0110&#10;0100&#10;1101&#10;0010&#10;1000"
       transform="matrix(1.3333333,0,0,1.3333333,34.535467,458)" />
    <path
       id="path22"
       d="m 682,3375 c 0,-24.85 -20.148,-45 -45,-45 -24.852,0 -45,20.15 -45,45 0,24.85 20.148,45 45,45 24.852,0 45,-20.15 45,-45"
       style="fill:#ffffff;fill-opacity:1;fill-rule:evenodd;stroke:none"
       transform="matrix(0.13333333,0,0,-0.13333333,0,512)" />
    <path
       id="path23"
       d="m 682,3375 c 0,-24.85 -20.148,-45 -45,-45 -24.852,0 -45,20.15 -45,45 0,24.85 20.148,45 45,45 24.852,0 45,-20.15 45,-45 z"
       style="fill:none;stroke:#000000;stroke-width:9;stroke-linecap:butt;stroke-linejoin:bevel;stroke-miterlimit:10;stroke-dasharray:none;stroke-opacity:1"
       transform="matrix(0.13333333,0,0,-0.13333333,0,512)" />
    <path
       id="path24"
       d="m 682,1935 c 0,-24.85 -20.148,-45 -45,-45 -24.852,0 -45,20.15 -45,45 0,24.85 20.148,45 45,45 24.852,0 45,-20.15 45,-45"
       style="fill:#ffffff;fill-opacity:1;fill-rule:evenodd;stroke:none"
       transform="matrix(0.13333333,0,0,-0.13333333,0,512)" />
    <path
       id="path25"
       d="m 682,1935 c 0,-24.85 -20.148,-45 -45,-45 -24.852,0 -45,20.15 -45,45 0,24.85 20.148,45 45,45 24.852,0 45,-20.15 45,-45 z"
       style="fill:none;stroke:#000000;stroke-width:9;stroke-linecap:butt;stroke-linejoin:bevel;stroke-miterlimit:10;stroke-dasharray:none;stroke-opacity:1"
       transform="matrix(0.13333333,0,0,-0.13333333,0,512)" />
    <path
       id="path26"
       d="m 1402,1935 c 0,-24.85 -20.15,-45 -45,-45 -24.85,0 -45,20.15 -45,45 0,24.85 20.15,45 45,45 24.85,0 45,-20.15 45,-45"
       style="fill:#ffffff;fill-opacity:1;fill-rule:evenodd;stroke:none"
       transform="matrix(0.13333333,0,0,-0.13333333,0,512)" />
    <path
       id="path27"
       d="m 1402,1935 c 0,-24.85 -20.15,-45 -45,-45 -24.85,0 -45,20.15 -45,45 0,24.85 20.15,45 45,45 24.85,0 45,-20.15 45,-45 z"
       style="fill:none;stroke:#000000;stroke-width:9;stroke-linecap:butt;stroke-linejoin:bevel;stroke-miterlimit:10;stroke-dasharray:none;stroke-opacity:1"
       transform="matrix(0.13333333,0,0,-0.13333333,0,512)" />
    <path
       id="path28"
       d="m 3562,1935 c 0,-24.85 -20.15,-45 -45,-45 -24.85,0 -45,20.15 -45,45 0,24.85 20.15,45 45,45 24.85,0 45,-20.15 45,-45"
       style="fill:#ffffff;fill-opacity:1;fill-rule:evenodd;stroke:none"
       transform="matrix(0.13333333,0,0,-0.13333333,0,512)" />
    <path
       id="path29"
       d="m 3562,1935 c 0,-24.85 -20.15,-45 -45,-45 -24.85,0 -45,20.15 -45,45 0,24.85 20.15,45 45,45 24.85,0 45,-20.15 45,-45 z"
       style="fill:none;stroke:#000000;stroke-width:9;stroke-linecap:butt;stroke-linejoin:bevel;stroke-miterlimit:10;stroke-dasharray:none;stroke-opacity:1"
       transform="matrix(0.13333333,0,0,-0.13333333,0,512)" />
    <path
       id="path30"
       d="m 4282,1935 c 0,-24.85 -20.15,-45 -45,-45 -24.85,0 -45,20.15 -45,45 0,24.85 20.15,45 45,45 24.85,0 45,-20.15 45,-45"
       style="fill:#ffffff;fill-opacity:1;fill-rule:evenodd;stroke:none"
       transform="matrix(0.13333333,0,0,-0.13333333,0,512)" />
    <path
       id="path31"
       d="m 4282,1935 c 0,-24.85 -20.15,-45 -45,-45 -24.85,0 -45,20.15 -45,45 0,24.85 20.15,45 45,45 24.85,0 45,-20.15 45,-45 z"
       style="fill:none;stroke:#000000;stroke-width:9;stroke-linecap:butt;stroke-linejoin:bevel;stroke-miterlimit:10;stroke-dasharray:none;stroke-opacity:1"
       transform="matrix(0.13333333,0,0,-0.13333333,0,512)" />
    <path
       id="path32"
       d="m 682,495 c 0,-24.852 -20.148,-45 -45,-45 -24.852,0 -45,20.148 -45,45 0,24.852 20.148,45 45,45 24.852,0 45,-20.148 45,-45"
       style="fill:#ffffff;fill-opacity:1;fill-rule:evenodd;stroke:none"
       transform="matrix(0.13333333,0,0,-0.13333333,0,512)" />
    <path
       id="path33"
       d="m 682,495 c 0,-24.852 -20.148,-45 -45,-45 -24.852,0 -45,20.148 -45,45 0,24.852 20.148,45 45,45 24.852,0 45,-20.148 45,-45 z"
       style="fill:none;stroke:#000000;stroke-width:9;stroke-linecap:butt;stroke-linejoin:bevel;stroke-miterlimit:10;stroke-dasharray:none;stroke-opacity:1"
       transform="matrix(0.13333333,0,0,-0.13333333,0,512)" />
    <path
       id="path34"
       d="m 682,2655 c 0,-24.85 -20.148,-45 -45,-45 -24.852,0 -45,20.15 -45,45 0,24.85 20.148,45 45,45 24.852,0 45,-20.15 45,-45"
       style="fill:#ffffff;fill-opacity:1;fill-rule:evenodd;stroke:none"
       transform="matrix(0.13333333,0,0,-0.13333333,0,512)" />
    <path
       id="path35"
       d="m 682,2655 c 0,-24.85 -20.148,-45 -45,-45 -24.852,0 -45,20.15 -45,45 0,24.85 20.148,45 45,45 24.852,0 45,-20.15 45,-45 z"
       style="fill:none;stroke:#000000;stroke-width:9;stroke-linecap:butt;stroke-linejoin:bevel;stroke-miterlimit:10;stroke-dasharray:none;stroke-opacity:1"
       transform="matrix(0.13333333,0,0,-0.13333333,0,512)" />
    <path
       id="path36"
       d="m 682,1215 c 0,-24.85 -20.148,-45 -45,-45 -24.852,0 -45,20.15 -45,45 0,24.85 20.148,45 45,45 24.852,0 45,-20.15 45,-45"
       style="fill:#ffffff;fill-opacity:1;fill-rule:evenodd;stroke:none"
       transform="matrix(0.13333333,0,0,-0.13333333,0,512)" />
    <path
       id="path37"
       d="m 682,1215 c 0,-24.85 -20.148,-45 -45,-45 -24.852,0 -45,20.15 -45,45 0,24.85 20.148,45 45,45 24.852,0 45,-20.15 45,-45 z"
       style="fill:none;stroke:#000000;stroke-width:9;stroke-linecap:butt;stroke-linejoin:bevel;stroke-miterlimit:10;stroke-dasharray:none;stroke-opacity:1"
       transform="matrix(0.13333333,0,0,-0.13333333,0,512)" />
    <path
       id="path38"
       d="m 1402,2655 c 0,-24.85 -20.15,-45 -45,-45 -24.85,0 -45,20.15 -45,45 0,24.85 20.15,45 45,45 24.85,0 45,-20.15 45,-45"
       style="fill:#ffffff;fill-opacity:1;fill-rule:evenodd;stroke:none"
       transform="matrix(0.13333333,0,0,-0.13333333,0,512)" />
    <path
       id="path39"
       d="m 1402,2655 c 0,-24.85 -20.15,-45 -45,-45 -24.85,0 -45,20.15 -45,45 0,24.85 20.15,45 45,45 24.85,0 45,-20.15 45,-45 z"
       style="fill:none;stroke:#000000;stroke-width:9;stroke-linecap:butt;stroke-linejoin:bevel;stroke-miterlimit:10;stroke-dasharray:none;stroke-opacity:1"
       transform="matrix(0.13333333,0,0,-0.13333333,0,512)" />
    <path
       id="path40"
       d="m 1402,1215 c 0,-24.85 -20.15,-45 -45,-45 -24.85,0 -45,20.15 -45,45 0,24.85 20.15,45 45,45 24.85,0 45,-20.15 45,-45"
       style="fill:#ffffff;fill-opacity:1;fill-rule:evenodd;stroke:none"
       transform="matrix(0.13333333,0,0,-0.13333333,0,512)" />
    <path
       id="path41"
       d="m 1402,1215 c 0,-24.85 -20.15,-45 -45,-45 -24.85,0 -45,20.15 -45,45 0,24.85 20.15,45 45,45 24.85,0 45,-20.15 45,-45 z"
       style="fill:none;stroke:#000000;stroke-width:9;stroke-linecap:butt;stroke-linejoin:bevel;stroke-miterlimit:10;stroke-dasharray:none;stroke-opacity:1"
       transform="matrix(0.13333333,0,0,-0.13333333,0,512)" />
    <path
       id="path42"
       d="m 2122,1935 c 0,-24.85 -20.15,-45 -45,-45 -24.85,0 -45,20.15 -45,45 0,24.85 20.15,45 45,45 24.85,0 45,-20.15 45,-45"
       style="fill:#ffffff;fill-opacity:1;fill-rule:evenodd;stroke:none"
       transform="matrix(0.13333333,0,0,-0.13333333,0,512)" />
    <path
       id="path43"
       d="m 2122,1935 c 0,-24.85 -20.15,-45 -45,-45 -24.85,0 -45,20.15 -45,45 0,24.85 20.15,45 45,45 24.85,0 45,-20.15 45,-45 z"
       style="fill:none;stroke:#000000;stroke-width:9;stroke-linecap:butt;stroke-linejoin:bevel;stroke-miterlimit:10;stroke-dasharray:none;stroke-opacity:1"
       transform="matrix(0.13333333,0,0,-0.13333333,0,512)" />
    <path
       id="path44"
       d="m 2842,1935 c 0,-24.85 -20.15,-45 -45,-45 -24.85,0 -45,20.15 -45,45 0,24.85 20.15,45 45,45 24.85,0 45,-20.15 45,-45"
       style="fill:#ffffff;fill-opacity:1;fill-rule:evenodd;stroke:none"
       transform="matrix(0.13333333,0,0,-0.13333333,0,512)" />
    <path
       id="path45"
       d="m 2842,1935 c 0,-24.85 -20.15,-45 -45,-45 -24.85,0 -45,20.15 -45,45 0,24.85 20.15,45 45,45 24.85,0 45,-20.15 45,-45 z"
       style="fill:none;stroke:#000000;stroke-width:9;stroke-linecap:butt;stroke-linejoin:bevel;stroke-miterlimit:10;stroke-dasharray:none;stroke-opacity:1"
       transform="matrix(0.13333333,0,0,-0.13333333,0,512)" />
    <path
       id="path46"
       d="m 2122,2655 c 0,-24.85 -20.15,-45 -45,-45 -24.85,0 -45,20.15 -45,45 0,24.85 20.15,45 45,45 24.85,0 45,-20.15 45,-45"
       style="fill:#ffffff;fill-opacity:1;fill-rule:evenodd;stroke:none"
       transform="matrix(0.13333333,0,0,-0.13333333,0,512)" />
    <path
       id="path47"
       d="m 2122,2655 c 0,-24.85 -20.15,-45 -45,-45 -24.85,0 -45,20.15 -45,45 0,24.85 20.15,45 45,45 24.85,0 45,-20.15 45,-45 z"
       style="fill:none;stroke:#000000;stroke-width:9;stroke-linecap:butt;stroke-linejoin:bevel;stroke-miterlimit:10;stroke-dasharray:none;stroke-opacity:1"
       transform="matrix(0.13333333,0,0,-0.13333333,0,512)" />
    <path
       id="path48"
       d="m 2122,1215 c 0,-24.85 -20.15,-45 -45,-45 -24.85,0 -45,20.15 -45,45 0,24.85 20.15,45 45,45 24.85,0 45,-20.15 45,-45"
       style="fill:#ffffff;fill-opacity:1;fill-rule:evenodd;stroke:none"
       transform="matrix(0.13333333,0,0,-0.13333333,0,512)" />
    <path
       id="path49"
       d="m 2122,1215 c 0,-24.85 -20.15,-45 -45,-45 -24.85,0 -45,20.15 -45,45 0,24.85 20.15,45 45,45 24.85,0 45,-20.15 45,-45 z"
       style="fill:none;stroke:#000000;stroke-width:9;stroke-linecap:butt;stroke-linejoin:bevel;stroke-miterlimit:10;stroke-dasharray:none;stroke-opacity:1"
       transform="matrix(0.13333333,0,0,-0.13333333,0,512)" />
    <path
       id="path50"
       d="m 3562,1215 c 0,-24.85 -20.15,-45 -45,-45 -24.85,0 -45,20.15 -45,45 0,24.85 20.15,45 45,45 24.85,0 45,-20.15 45,-45"
       style="fill:#ffffff;fill-opacity:1;fill-rule:evenodd;stroke:none"
       transform="matrix(0.13333333,0,0,-0.13333333,0,512)" />
    <path
       id="path51"
       d="m 3562,1215 c 0,-24.85 -20.15,-45 -45,-45 -24.85,0 -45,20.15 -45,45 0,24.85 20.15,45 45,45 24.85,0 45,-20.15 45,-45 z"
       style="fill:none;stroke:#000000;stroke-width:9;stroke-linecap:butt;stroke-linejoin:bevel;stroke-miterlimit:10;stroke-dasharray:none;stroke-opacity:1"
       transform="matrix(0.13333333,0,0,-0.13333333,0,512)" />
    <path
       id="path52"
       d="m 3562,2655 c 0,-24.85 -20.15,-45 -45,-45 -24.85,0 -45,20.15 -45,45 0,24.85 20.15,45 45,45 24.85,0 45,-20.15 45,-45"
       style="fill:#ffffff;fill-opacity:1;fill-rule:evenodd;stroke:none"
       transform="matrix(0.13333333,0,0,-0.13333333,0,512)" />
    <path
       id="path53"
       d="m 3562,2655 c 0,-24.85 -20.15,-45 -45,-45 -24.85,0 -45,20.15 -45,45 0,24.85 20.15,45 45,45 24.85,0 45,-20.15 45,-45 z"
       style="fill:none;stroke:#000000;stroke-width:9;stroke-linecap:butt;stroke-linejoin:bevel;stroke-miterlimit:10;stroke-dasharray:none;stroke-opacity:1"
       transform="matrix(0.13333333,0,0,-0.13333333,0,512)" />
    <path
       id="path54"
       d="m 2707,3150 h 180 v 180 h -180 z"
       style="fill:#ffffff;fill-opacity:1;fill-rule:evenodd;stroke:#000000;stroke-width:4.5;stroke-linecap:butt;stroke-linejoin:bevel;stroke-miterlimit:10;stroke-dasharray:none;stroke-opacity:1"
       transform="matrix(0.13333333,0,0,-0.13333333,0,512)" />
    <path
       id="path55"
       d="m 2707,585 h 180 v 180 h -180 z"
       style="fill:#ffffff;fill-opacity:1;fill-rule:evenodd;stroke:#000000;stroke-width:4.5;stroke-linecap:butt;stroke-linejoin:bevel;stroke-miterlimit:10;stroke-dasharray:none;stroke-opacity:1"
       transform="matrix(0.13333333,0,0,-0.13333333,0,512)" />
    <path
       id="path56"
       d="m 2347,1485 h 180 v 180 h -180 z"
       style="fill:#ffffff;fill-opacity:1;fill-rule:evenodd;stroke:#000000;stroke-width:4.5;stroke-linecap:butt;stroke-linejoin:bevel;stroke-miterlimit:10;stroke-dasharray:none;stroke-opacity:1"
       transform="matrix(0.13333333,0,0,-0.13333333,0,512)" />
    <path
       id="path57"
       d="m 1987,1485 h 180 v 180 h -180 z"
       style="fill:#ffffff;fill-opacity:1;fill-rule:evenodd;stroke:#000000;stroke-width:4.5;stroke-linecap:butt;stroke-linejoin:bevel;stroke-miterlimit:10;stroke-dasharray:none;stroke-opacity:1"
       transform="matrix(0.13333333,0,0,-0.13333333,0,512)" />
    <path
       id="path58"
       d="m 1267,1485 h 180 v 180 h -180 z"
       style="fill:#ffffff;fill-opacity:1;fill-rule:evenodd;stroke:#000000;stroke-width:4.5;stroke-linecap:butt;stroke-linejoin:bevel;stroke-miterlimit:10;stroke-dasharray:none;stroke-opacity:1"
       transform="matrix(0.13333333,0,0,-0.13333333,0,512)" />
    <path
       id="path59"
       d="m 1627,765 h 180 v 180 h -180 z"
       style="fill:#ffffff;fill-opacity:1;fill-rule:evenodd;stroke:#000000;stroke-width:4.5;stroke-linecap:butt;stroke-linejoin:bevel;stroke-miterlimit:10;stroke-dasharray:none;stroke-opacity:1"
       transform="matrix(0.13333333,0,0,-0.13333333,0,512)" />
    <path
       id="path60"
       d="m 907,765 h 180 V 945 H 907 Z"
       style="fill:#ffffff;fill-opacity:1;fill-rule:evenodd;stroke:#000000;stroke-width:4.5;stroke-linecap:butt;stroke-linejoin:bevel;stroke-miterlimit:10;stroke-dasharray:none;stroke-opacity:1"
       transform="matrix(0.13333333,0,0,-0.13333333,0,512)" />
    <path
       id="path61"
       d="m 547,1485 h 180 v 180 H 547 Z"
       style="fill:#ffffff;fill-opacity:1;fill-rule:evenodd;stroke:#000000;stroke-width:4.5;stroke-linecap:butt;stroke-linejoin:bevel;stroke-miterlimit:10;stroke-dasharray:none;stroke-opacity:1"
       transform="matrix(0.13333333,0,0,-0.13333333,0,512)" />
    <path
       id="path62"
       d="m 547,2205 h 180 v 180 H 547 Z"
       style="fill:#ffffff;fill-opacity:1;fill-rule:evenodd;stroke:#000000;stroke-width:4.5;stroke-linecap:butt;stroke-linejoin:bevel;stroke-miterlimit:10;stroke-dasharray:none;stroke-opacity:1"
       transform="matrix(0.13333333,0,0,-0.13333333,0,512)" />
    <path
       id="path63"
       d="m 1267,2205 h 180 v 180 h -180 z"
       style="fill:#ffffff;fill-opacity:1;fill-rule:evenodd;stroke:#000000;stroke-width:4.5;stroke-linecap:butt;stroke-linejoin:bevel;stroke-miterlimit:10;stroke-dasharray:none;stroke-opacity:1"
       transform="matrix(0.13333333,0,0,-0.13333333,0,512)" />
    <path
       id="path64"
       d="m 1987,2205 h 180 v 180 h -180 z"
       style="fill:#ffffff;fill-opacity:1;fill-rule:evenodd;stroke:#000000;stroke-width:4.5;stroke-linecap:butt;stroke-linejoin:bevel;stroke-miterlimit:10;stroke-dasharray:none;stroke-opacity:1"
       transform="matrix(0.13333333,0,0,-0.13333333,0,512)" />
    <path
       id="path65"
       d="m 2347,2205 h 180 v 180 h -180 z"
       style="fill:#ffffff;fill-opacity:1;fill-rule:evenodd;stroke:#000000;stroke-width:4.5;stroke-linecap:butt;stroke-linejoin:bevel;stroke-miterlimit:10;stroke-dasharray:none;stroke-opacity:1"
       transform="matrix(0.13333333,0,0,-0.13333333,0,512)" />
    <path
       id="path66"
       d="m 3427,2205 h 180 v 180 h -180 z"
       style="fill:#ffffff;fill-opacity:1;fill-rule:evenodd;stroke:#000000;stroke-width:4.5;stroke-linecap:butt;stroke-linejoin:bevel;stroke-miterlimit:10;stroke-dasharray:none;stroke-opacity:1"
       transform="matrix(0.13333333,0,0,-0.13333333,0,512)" />
    <path
       id="path67"
       d="m 3427,1485 h 180 v 180 h -180 z"
       style="fill:#ffffff;fill-opacity:1;fill-rule:evenodd;stroke:#000000;stroke-width:4.5;stroke-linecap:butt;stroke-linejoin:bevel;stroke-miterlimit:10;stroke-dasharray:none;stroke-opacity:1"
       transform="matrix(0.13333333,0,0,-0.13333333,0,512)" />
    <path
       id="path68"
       d="m 3787,1485 h 180 v 180 h -180 z"
       style="fill:#ffffff;fill-opacity:1;fill-rule:evenodd;stroke:#000000;stroke-width:4.5;stroke-linecap:butt;stroke-linejoin:bevel;stroke-miterlimit:10;stroke-dasharray:none;stroke-opacity:1"
       transform="matrix(0.13333333,0,0,-0.13333333,0,512)" />
    <path
       id="path69"
       d="m 3787,2205 h 180 v 180 h -180 z"
       style="fill:#ffffff;fill-opacity:1;fill-rule:evenodd;stroke:#000000;stroke-width:4.5;stroke-linecap:butt;stroke-linejoin:bevel;stroke-miterlimit:10;stroke-dasharray:none;stroke-opacity:1"
       transform="matrix(0.13333333,0,0,-0.13333333,0,512)" />
    <path
       id="path70"
       d="M 547,765 H 727 V 945 H 547 Z"
       style="fill:#ffffff;fill-opacity:1;fill-rule:evenodd;stroke:#000000;stroke-width:4.5;stroke-linecap:butt;stroke-linejoin:bevel;stroke-miterlimit:10;stroke-dasharray:none;stroke-opacity:1"
       transform="matrix(0.13333333,0,0,-0.13333333,0,512)" />
    <path
       id="path71"
       d="m 1627,3060 h 180 v 180 h -180 z"
       style="fill:#ffffff;fill-opacity:1;fill-rule:evenodd;stroke:#000000;stroke-width:4.5;stroke-linecap:butt;stroke-linejoin:bevel;stroke-miterlimit:10;stroke-dasharray:none;stroke-opacity:1"
       transform="matrix(0.13333333,0,0,-0.13333333,0,512)" />
    <path
       id="path72"
       d="m 907,2925 h 180 v 180 H 907 Z"
       style="fill:#ffffff;fill-opacity:1;fill-rule:evenodd;stroke:#000000;stroke-width:4.5;stroke-linecap:butt;stroke-linejoin:bevel;stroke-miterlimit:10;stroke-dasharray:none;stroke-opacity:1"
       transform="matrix(0.13333333,0,0,-0.13333333,0,512)" />
    <path
       id="path73"
       d="m 547,2925 h 180 v 180 H 547 Z"
       style="fill:#ffffff;fill-opacity:1;fill-rule:evenodd;stroke:#000000;stroke-width:4.5;stroke-linecap:butt;stroke-linejoin:bevel;stroke-miterlimit:10;stroke-dasharray:none;stroke-opacity:1"
       transform="matrix(0.13333333,0,0,-0.13333333,0,512)" />
    <path
       id="path74"
       d="M 0.3171875,-3.140625 4.278125,-8.5078125 h 0.75 V -3.140625 H 5.7898437 V -1.875 H 5.028125 V 0 H 3.3289062 V -1.875 H 0.3171875 Z m 0.59765625,0 H 3.3289062 V -6.4335937 Z M -106.13594,-22.183594 v -0.210937 c 0.46875,-0.140625 0.79102,-0.269531 0.97266,-0.386719 0.17871,-0.117187 0.33398,-0.292969 0.46875,-0.527344 0.13183,-0.240234 0.19922,-0.483398 0.19922,-0.726562 0,-0.342774 -0.12598,-0.635742 -0.375,-0.878906 -0.25196,-0.240235 -0.55957,-0.363282 -0.92578,-0.363282 -0.58008,0 -1.06641,0.301758 -1.46485,0.902344 l -0.22265,-0.08203 c 0.28711,-0.679688 0.66211,-1.189453 1.125,-1.535156 0.45996,-0.342774 0.97558,-0.515625 1.54687,-0.515625 0.57715,0 1.05469,0.175781 1.42969,0.527343 0.375,0.351563 0.5625,0.761719 0.5625,1.230469 0,0.313477 -0.0908,0.615234 -0.26953,0.902344 -0.17285,0.28125 -0.44239,0.527344 -0.8086,0.738281 0.47461,0.234375 0.83789,0.524414 1.08985,0.867188 0.25781,0.345703 0.38672,0.773437 0.38672,1.289062 0,0.867188 -0.31641,1.605469 -0.94922,2.214844 -0.63282,0.609375 -1.47657,0.914062 -2.53125,0.914062 -0.70313,0 -1.21875,-0.117187 -1.54688,-0.351562 -0.23437,-0.164063 -0.35156,-0.375 -0.35156,-0.632813 0,-0.1875 0.0644,-0.345703 0.19922,-0.480468 0.14062,-0.131836 0.29883,-0.199219 0.48047,-0.199219 0.13183,0 0.25781,0.0293 0.375,0.08203 0.0615,0.04102 0.29297,0.222656 0.6914,0.550781 0.4043,0.322266 0.7793,0.480469 1.125,0.480469 0.30469,0 0.56543,-0.117187 0.78516,-0.351562 0.2168,-0.240235 0.32812,-0.550782 0.32812,-0.925782 0,-0.5625 -0.19921,-1.078125 -0.59765,-1.546875 -0.39258,-0.474609 -0.9668,-0.802734 -1.72266,-0.984375 z m 38.238284,-76.324218 v 6.820312 c 0,0.509766 0.02344,0.832031 0.07031,0.972656 0.04687,0.140625 0.140625,0.257813 0.28125,0.351563 0.140625,0.09375 0.369141,0.140625 0.691406,0.140625 h 0.1875 V -90 h -4.394531 v -0.222656 h 0.222656 c 0.357422,0 0.612305,-0.03809 0.761719,-0.117188 0.155274,-0.08496 0.257813,-0.199218 0.304688,-0.339843 0.05273,-0.146485 0.08203,-0.483399 0.08203,-1.007813 v -4.324219 c 0,-0.389648 -0.02051,-0.632812 -0.05859,-0.726562 -0.03223,-0.09375 -0.09961,-0.175781 -0.199219,-0.246094 -0.102539,-0.07031 -0.219726,-0.105469 -0.351562,-0.105469 -0.205078,0 -0.457031,0.06738 -0.761719,0.199219 l -0.105469,-0.222656 3.070313,-1.394531 z m 32.214843,5.367187 3.960938,-5.367187 h 0.75 v 5.367187 h 0.761719 V -91.875 h -0.761719 V -90 h -1.699219 v -1.875 h -3.011719 z m 0.597657,0 h 2.414062 v -3.292969 z M 77.215625,-162 h -4.910156 v -0.14062 c 1.505859,-1.78711 2.419922,-2.99122 2.742187,-3.60938 0.319336,-0.61523 0.480469,-1.22168 0.480469,-1.81641 0,-0.42773 -0.134766,-0.78515 -0.398438,-1.0664 -0.266601,-0.28711 -0.591796,-0.4336 -0.972656,-0.4336 -0.632812,0 -1.125,0.31641 -1.476562,0.94922 l -0.222657,-0.082 c 0.216797,-0.78808 0.553711,-1.37109 1.007813,-1.74609 0.451172,-0.375 0.972656,-0.5625 1.558594,-0.5625 0.421875,0 0.808593,0.0996 1.160156,0.29297 0.351562,0.19629 0.624023,0.46582 0.820312,0.80859 0.19336,0.3457 0.292969,0.66504 0.292969,0.96094 0,0.54785 -0.152344,1.10156 -0.457031,1.66406 -0.416016,0.75879 -1.318359,1.81348 -2.707031,3.16406 h 1.792968 c 0.445313,0 0.732422,-0.0147 0.867188,-0.0469 0.131836,-0.0381 0.240234,-0.0996 0.328125,-0.1875 0.08496,-0.0937 0.199219,-0.28125 0.339844,-0.5625 h 0.222656 z m -1.113281,63.492188 v 6.820312 c 0,0.509766 0.02344,0.832031 0.07031,0.972656 0.04687,0.140625 0.140625,0.257813 0.28125,0.351563 0.140625,0.09375 0.369141,0.140625 0.691406,0.140625 h 0.1875 V -90 h -4.394531 v -0.222656 h 0.222656 c 0.357422,0 0.612305,-0.03809 0.761719,-0.117188 0.155274,-0.08496 0.257813,-0.199218 0.304688,-0.339843 0.05273,-0.146485 0.08203,-0.483399 0.08203,-1.007813 v -4.324219 c 0,-0.389648 -0.02051,-0.632812 -0.05859,-0.726562 -0.03223,-0.09375 -0.09961,-0.175781 -0.199219,-0.246094 -0.102539,-0.07031 -0.219726,-0.105469 -0.351562,-0.105469 -0.205078,0 -0.457031,0.06738 -0.761719,0.199219 l -0.105469,-0.222656 3.070313,-1.394531 z M 113.21562,-90 h -4.91015 v -0.140625 c 1.50586,-1.787109 2.41992,-2.991211 2.74219,-3.609375 0.31933,-0.615234 0.48046,-1.22168 0.48046,-1.816406 0,-0.427735 -0.13476,-0.785156 -0.39843,-1.066406 -0.2666,-0.28711 -0.5918,-0.433594 -0.97266,-0.433594 -0.63281,0 -1.125,0.316406 -1.47656,0.949219 l -0.22266,-0.08203 c 0.2168,-0.788086 0.55371,-1.371093 1.00781,-1.746093 0.45118,-0.375 0.97266,-0.5625 1.5586,-0.5625 0.42187,0 0.80859,0.09961 1.16015,0.292968 0.35157,0.196289 0.62403,0.465821 0.82032,0.808594 0.19336,0.345703 0.29297,0.665039 0.29297,0.960938 0,0.547851 -0.15235,1.101562 -0.45704,1.664062 -0.41601,0.758789 -1.31835,1.813477 -2.70703,3.164063 h 1.79297 c 0.44531,0 0.73242,-0.01465 0.86719,-0.04687 0.13184,-0.03809 0.24023,-0.09961 0.32812,-0.1875 0.085,-0.09375 0.19922,-0.28125 0.33985,-0.5625 h 0.22265 z m -1.11328,-80.50781 v 6.82031 c 0,0.50977 0.0234,0.83203 0.0703,0.97266 0.0469,0.14062 0.14062,0.25781 0.28125,0.35156 0.14062,0.0937 0.36914,0.14062 0.6914,0.14062 h 0.1875 V -162 h -4.39453 v -0.22266 h 0.22266 c 0.35742,0 0.6123,-0.0381 0.76172,-0.11718 0.15527,-0.085 0.25781,-0.19922 0.30468,-0.33985 0.0527,-0.14648 0.082,-0.4834 0.082,-1.00781 v -4.32422 c 0,-0.38965 -0.0205,-0.63281 -0.0586,-0.72656 -0.0322,-0.0937 -0.0996,-0.17578 -0.19922,-0.24609 -0.10254,-0.0703 -0.21972,-0.10547 -0.35156,-0.10547 -0.20508,0 -0.45703,0.0674 -0.76172,0.19922 l -0.10547,-0.22266 3.07031,-1.39453 z m -327.78515,-66.63281 3.96094,-5.36719 h 0.75 v 5.36719 h 0.76171 v 1.26562 h -0.76171 V -234 h -1.69922 v -1.875 h -3.01172 z m 0.59765,0 h 2.41407 v -3.29297 z m 39.1875,-5.36719 v 6.82031 c 0,0.50977 0.0234,0.83203 0.0703,0.97266 0.0469,0.14062 0.14062,0.25781 0.28125,0.35156 0.14062,0.0937 0.36914,0.14062 0.6914,0.14062 h 0.1875 V -234 h -4.39453 v -0.22266 h 0.22266 c 0.35742,0 0.6123,-0.0381 0.76172,-0.11718 0.15527,-0.085 0.25781,-0.19922 0.30468,-0.33985 0.0527,-0.14648 0.082,-0.4834 0.082,-1.00781 v -4.32422 c 0,-0.38965 -0.0205,-0.63281 -0.0586,-0.72656 -0.0322,-0.0937 -0.0996,-0.17578 -0.19922,-0.24609 -0.10254,-0.0703 -0.21972,-0.10547 -0.35156,-0.10547 -0.20508,0 -0.45703,0.0674 -0.76172,0.19922 l -0.10547,-0.22266 3.07032,-1.39453 z m 32.21485,77.36719 3.96094,-5.36719 h 0.75 v 5.36719 h 0.76171 v 1.26562 h -0.76171 V -162 h -1.69922 v -1.875 h -3.01172 z m 0.59765,0 h 2.41407 v -3.29297 z m 71.402347,0 3.960938,-5.36719 h 0.75 v 5.36719 h 0.761719 v 1.26562 h -0.761719 V -162 h -1.699219 v -1.875 h -3.011719 z m 0.597657,0 h 2.414062 v -3.29297 z m 39.1875,-5.36719 v 6.82031 c 0,0.50977 0.02344,0.83203 0.07031,0.97266 0.04687,0.14062 0.140625,0.25781 0.28125,0.35156 0.140625,0.0937 0.369141,0.14062 0.691406,0.14062 h 0.1875 V -162 h -4.394531 v -0.22266 h 0.222656 c 0.357422,0 0.612305,-0.0381 0.761719,-0.11718 0.155274,-0.085 0.257813,-0.19922 0.304688,-0.33985 0.05273,-0.14648 0.08203,-0.4834 0.08203,-1.00781 v -4.32422 c 0,-0.38965 -0.02051,-0.63281 -0.05859,-0.72656 -0.03223,-0.0937 -0.09961,-0.17578 -0.199219,-0.24609 -0.102539,-0.0703 -0.219726,-0.10547 -0.351562,-0.10547 -0.205078,0 -0.457031,0.0674 -0.761719,0.19922 l -0.105469,-0.22266 3.070313,-1.39453 z m 33.7617185,-90.17578 v -0.21094 c 0.46875,-0.14063 0.7910156,-0.26953 0.9726562,-0.38672 0.178711,-0.11719 0.3339844,-0.29297 0.46875,-0.52734 0.131836,-0.24024 0.1992188,-0.4834 0.1992188,-0.72657 0,-0.34277 -0.1259766,-0.63574 -0.375,-0.8789 -0.2519531,-0.24024 -0.5595703,-0.36328 -0.9257813,-0.36328 -0.5800781,0 -1.0664062,0.30175 -1.4648437,0.90234 l -0.22265625,-0.082 c 0.28710937,-0.67969 0.66210935,-1.18945 1.12499995,-1.53516 0.459961,-0.34277 0.975586,-0.51562 1.546875,-0.51562 0.5771485,0 1.0546875,0.17578 1.4296875,0.52734 0.375,0.35156 0.5625,0.76172 0.5625,1.23047 0,0.31348 -0.09082,0.61523 -0.2695312,0.90234 -0.1728516,0.28125 -0.4423828,0.52735 -0.8085938,0.73829 0.4746094,0.23437 0.8378907,0.52441 1.0898438,0.86718 0.2578125,0.34571 0.3867187,0.77344 0.3867187,1.28907 0,0.86718 -0.3164062,1.60546 -0.9492187,2.21484 -0.6328125,0.60937 -1.4765625,0.91406 -2.53125,0.91406 -0.703125,0 -1.21875,-0.11719 -1.546875,-0.35156 C 0.3171875,-256.83984 0.2,-257.05078 0.2,-257.30859 c 0,-0.1875 0.0644531,-0.34571 0.19921875,-0.48047 0.140625,-0.13184 0.29882812,-0.19922 0.48046875,-0.19922 0.1318359,0 0.2578125,0.0293 0.375,0.082 0.061523,0.041 0.2929687,0.22266 0.6914062,0.55078 0.4042969,0.32227 0.7792969,0.48047 1.125,0.48047 0.3046875,0 0.5654297,-0.11719 0.7851563,-0.35156 0.2167969,-0.24024 0.328125,-0.55078 0.328125,-0.92578 0,-0.5625 -0.1992188,-1.07813 -0.5976563,-1.54688 -0.3925781,-0.47461 -0.9667968,-0.80273 -1.7226562,-0.98437 z M -102.78438,-247.5 h -4.91015 v -0.14062 c 1.50586,-1.78711 2.41992,-2.99122 2.74219,-3.60938 0.31933,-0.61523 0.48046,-1.22168 0.48046,-1.81641 0,-0.42773 -0.13476,-0.78515 -0.39843,-1.0664 -0.2666,-0.28711 -0.5918,-0.4336 -0.97266,-0.4336 -0.63281,0 -1.125,0.31641 -1.47656,0.94922 l -0.22266,-0.082 c 0.2168,-0.78808 0.55371,-1.37109 1.00781,-1.74609 0.45118,-0.375 0.97266,-0.5625 1.5586,-0.5625 0.42187,0 0.80859,0.0996 1.16015,0.29297 0.35157,0.19629 0.62403,0.46582 0.82032,0.80859 0.19336,0.3457 0.29297,0.66504 0.29297,0.96094 0,0.54785 -0.15235,1.10156 -0.45704,1.66406 -0.41601,0.75879 -1.31835,1.81348 -2.70703,3.16406 h 1.79297 c 0.44531,0 0.73242,-0.0147 0.86719,-0.0469 0.13184,-0.0381 0.24023,-0.0996 0.32812,-0.1875 0.085,-0.0937 0.19922,-0.28125 0.33985,-0.5625 h 0.22265 z m -111.35156,81.31641 v -0.21094 c 0.46875,-0.14063 0.79102,-0.26953 0.97266,-0.38672 0.17871,-0.11719 0.33398,-0.29297 0.46875,-0.52734 0.13183,-0.24024 0.19922,-0.4834 0.19922,-0.72657 0,-0.34277 -0.12598,-0.63574 -0.375,-0.8789 -0.25196,-0.24024 -0.55957,-0.36328 -0.92578,-0.36328 -0.58008,0 -1.06641,0.30175 -1.46485,0.90234 l -0.22265,-0.082 c 0.28711,-0.67969 0.66211,-1.18945 1.125,-1.53516 0.45996,-0.34277 0.97558,-0.51562 1.54687,-0.51562 0.57715,0 1.05469,0.17578 1.42969,0.52734 0.375,0.35156 0.5625,0.76172 0.5625,1.23047 0,0.31348 -0.0908,0.61523 -0.26953,0.90234 -0.17285,0.28125 -0.44239,0.52735 -0.8086,0.73829 0.47461,0.23437 0.83789,0.52441 1.08985,0.86718 0.25781,0.34571 0.38672,0.77344 0.38672,1.28907 0,0.86718 -0.31641,1.60546 -0.94922,2.21484 -0.63281,0.60937 -1.47656,0.91406 -2.53125,0.91406 -0.70313,0 -1.21875,-0.11719 -1.54688,-0.35156 -0.23437,-0.16406 -0.35156,-0.375 -0.35156,-0.63281 0,-0.1875 0.0645,-0.34571 0.19922,-0.48047 0.14062,-0.13184 0.29883,-0.19922 0.48047,-0.19922 0.13183,0 0.25781,0.0293 0.375,0.082 0.0615,0.041 0.29297,0.22266 0.6914,0.55078 0.4043,0.32227 0.7793,0.48047 1.125,0.48047 0.30469,0 0.56543,-0.11719 0.78516,-0.35156 0.2168,-0.24024 0.32813,-0.55078 0.32813,-0.92578 0,-0.5625 -0.19922,-1.07813 -0.59766,-1.54688 -0.39258,-0.47461 -0.9668,-0.80273 -1.72266,-0.98437 z M -210.78437,-90 h -4.91016 v -0.140625 c 1.50586,-1.787109 2.41992,-2.991211 2.74219,-3.609375 0.31933,-0.615234 0.48047,-1.22168 0.48047,-1.816406 0,-0.427735 -0.13477,-0.785156 -0.39844,-1.066406 -0.2666,-0.28711 -0.5918,-0.433594 -0.97266,-0.433594 -0.63281,0 -1.125,0.316406 -1.47656,0.949219 l -0.22266,-0.08203 c 0.2168,-0.788086 0.55371,-1.371093 1.00782,-1.746093 0.45117,-0.375 0.97265,-0.5625 1.55859,-0.5625 0.42187,0 0.80859,0.09961 1.16016,0.292968 0.35156,0.196289 0.62402,0.465821 0.82031,0.808594 0.19336,0.345703 0.29297,0.665039 0.29297,0.960938 0,0.547851 -0.15235,1.101562 -0.45703,1.664062 -0.41602,0.758789 -1.31836,1.813477 -2.70704,3.164063 h 1.79297 c 0.44532,0 0.73242,-0.01465 0.86719,-0.04687 0.13184,-0.03809 0.24023,-0.09961 0.32813,-0.1875 0.085,-0.09375 0.19921,-0.28125 0.33984,-0.5625 h 0.22266 z m 68.64843,-4.183594 v -0.210937 c 0.46875,-0.140625 0.79102,-0.269531 0.97266,-0.386719 0.17871,-0.117187 0.33398,-0.292969 0.46875,-0.527344 0.13183,-0.240234 0.19922,-0.483398 0.19922,-0.726562 0,-0.342774 -0.12598,-0.635742 -0.375,-0.878906 -0.25196,-0.240235 -0.55957,-0.363282 -0.92578,-0.363282 -0.58008,0 -1.06641,0.301758 -1.46485,0.902344 l -0.22265,-0.08203 c 0.28711,-0.679688 0.66211,-1.189453 1.125,-1.535156 0.45996,-0.342774 0.97558,-0.515625 1.54687,-0.515625 0.57715,0 1.05469,0.175781 1.42969,0.527343 0.375,0.351563 0.5625,0.761719 0.5625,1.230469 0,0.313477 -0.0908,0.615234 -0.26953,0.902344 -0.17285,0.28125 -0.44239,0.527344 -0.8086,0.738281 0.47461,0.234375 0.83789,0.524414 1.08985,0.867188 0.25781,0.345703 0.38672,0.773437 0.38672,1.289062 0,0.867188 -0.31641,1.605469 -0.94922,2.214844 -0.63281,0.609375 -1.47656,0.914062 -2.53125,0.914062 -0.70313,0 -1.21875,-0.117187 -1.54688,-0.351562 -0.23437,-0.164063 -0.35156,-0.375 -0.35156,-0.632813 0,-0.1875 0.0645,-0.345703 0.19922,-0.480468 0.14062,-0.131836 0.29883,-0.199219 0.48047,-0.199219 0.13183,0 0.25781,0.0293 0.375,0.08203 0.0615,0.04102 0.29297,0.222656 0.6914,0.550781 0.4043,0.322266 0.7793,0.480469 1.125,0.480469 0.30469,0 0.56543,-0.117187 0.78516,-0.351562 0.2168,-0.240235 0.32813,-0.550782 0.32813,-0.925782 0,-0.5625 -0.19922,-1.078125 -0.59766,-1.546875 -0.39258,-0.474609 -0.9668,-0.802734 -1.72266,-0.984375 z M -174.78437,-18 h -4.91016 v -0.140625 c 1.50586,-1.787109 2.41992,-2.991211 2.74219,-3.609375 0.31933,-0.615234 0.48047,-1.22168 0.48047,-1.816406 0,-0.427735 -0.13477,-0.785156 -0.39844,-1.066406 -0.2666,-0.28711 -0.5918,-0.433594 -0.97266,-0.433594 -0.63281,0 -1.125,0.316406 -1.47656,0.949219 l -0.22266,-0.08203 c 0.2168,-0.788086 0.55371,-1.371093 1.00782,-1.746093 0.45117,-0.375 0.97265,-0.5625 1.55859,-0.5625 0.42187,0 0.80859,0.09961 1.16016,0.292968 0.35156,0.196289 0.62402,0.465821 0.82031,0.808594 0.19336,0.345703 0.29297,0.665039 0.29297,0.960938 0,0.547851 -0.15235,1.101562 -0.45703,1.664062 -0.41602,0.758789 -1.31836,1.813477 -2.70704,3.164063 h 1.79297 c 0.44532,0 0.73242,-0.01465 0.86719,-0.04687 0.13184,-0.03809 0.24023,-0.09961 0.32813,-0.1875 0.085,-0.09375 0.19921,-0.28125 0.33984,-0.5625 h 0.22266 z m -37.11329,-8.507812 v 6.820312 c 0,0.509766 0.0234,0.832031 0.0703,0.972656 0.0469,0.140625 0.14062,0.257813 0.28125,0.351563 0.14062,0.09375 0.36914,0.140625 0.6914,0.140625 h 0.1875 V -18 h -4.39453 v -0.222656 h 0.22266 c 0.35742,0 0.6123,-0.03809 0.76172,-0.117188 0.15527,-0.08496 0.25781,-0.199218 0.30468,-0.339843 0.0527,-0.146485 0.082,-0.483399 0.082,-1.007813 v -4.324219 c 0,-0.389648 -0.0205,-0.632812 -0.0586,-0.726562 -0.0322,-0.09375 -0.0996,-0.175781 -0.19922,-0.246094 -0.10254,-0.07031 -0.21972,-0.105469 -0.35156,-0.105469 -0.20508,0 -0.45703,0.06738 -0.76172,0.199219 l -0.10547,-0.222656 3.07032,-1.394531 z m 0,0"
       style="fill:#000000;fill-opacity:1;fill-rule:nonzero;stroke:none"
       aria-label="4&#10;3&#10;14&#10;2&#10;12&#10;1&#10;41&#10;441&#10;3&#10;2&#10;3&#10;23&#10;21"
       transform="matrix(1.3333333,0,0,1.3333333,368.73333,428)" />
  </g>
</svg>
