<?xml version="1.0" encoding="UTF-8" standalone="no"?>
<!-- Created with Inkscape (http://www.inkscape.org/) -->

<svg
   version="1.1"
   id="svg1"
   width="650.66669"
   height="512"
   viewBox="0 0 650.66669 512"
   sodipodi:docname="4venn_overlay.svg"
   inkscape:version="1.3.2 (091e20e, 2023-11-25, custom)"
   xmlns:inkscape="http://www.inkscape.org/namespaces/inkscape"
   xmlns:sodipodi="http://sodipodi.sourceforge.net/DTD/sodipodi-0.dtd"
   xmlns="http://www.w3.org/2000/svg"
   xmlns:svg="http://www.w3.org/2000/svg">
  <defs
     id="defs1">
    <clipPath
       clipPathUnits="userSpaceOnUse"
       id="clipPath2">
      <path
         d="M 0,3840 H 4880 V 0 H 0 Z M 4633,1953 v -36 h 111 l -90,18 90,18 z"
         clip-rule="evenodd"
         id="path2" />
    </clipPath>
    <clipPath
       clipPathUnits="userSpaceOnUse"
       id="clipPath6">
      <path
         d="M 0,3840 H 4880 V 0 H 0 Z M 241,1917 v 36 H 130 l 90,-18 -90,-18 z"
         clip-rule="evenodd"
         id="path6" />
    </clipPath>
  </defs>
  <sodipodi:namedview
     id="namedview1"
     pagecolor="#ffffff"
     bordercolor="#000000"
     borderopacity="0.25"
     inkscape:showpageshadow="2"
     inkscape:pageopacity="0.0"
     inkscape:pagecheckerboard="0"
     inkscape:deskcolor="#d1d1d1"
     inkscape:zoom="2.6972656"
     inkscape:cx="325.51484"
     inkscape:cy="256"
     inkscape:window-width="3840"
     inkscape:window-height="1577"
     inkscape:window-x="-8"
     inkscape:window-y="-8"
     inkscape:window-maximized="1"
     inkscape:current-layer="g1">
    <inkscape:page
       x="0"
       y="0"
       inkscape:label="1"
       id="page1"
       width="650.66669"
       height="512"
       margin="0"
       bleed="0"
       inkscape:export-filename="4venn_overlay.pdf"
       inkscape:export-xdpi="96"
       inkscape:export-ydpi="96" />
  </sodipodi:namedview>
  <g
     id="g1"
     inkscape:groupmode="layer"
     inkscape:label="1">
    <path
       id="path1"
       d="M 4867,1935 H 4642"
       style="fill:none;stroke:#000000;stroke-width:4.5;stroke-linecap:butt;stroke-linejoin:miter;stroke-miterlimit:10;stroke-dasharray:none;stroke-opacity:1"
       transform="matrix(0.13333333,0,0,-0.13333333,0,512)"
       clip-path="url(#clipPath2)" />
    <path
       id="path3"
       d="m 4744,1953 -90,-18 90,-18 -18,18 18,18"
       style="fill:#000000;fill-opacity:1;fill-rule:evenodd;stroke:none"
       transform="matrix(0.13333333,0,0,-0.13333333,0,512)" />
    <path
       id="path4"
       d="m 4744,1953 -90,-18 90,-18 -18,18 z"
       style="fill:none;stroke:#000000;stroke-width:4.5;stroke-linecap:butt;stroke-linejoin:miter;stroke-miterlimit:10;stroke-dasharray:none;stroke-opacity:1"
       transform="matrix(0.13333333,0,0,-0.13333333,0,512)" />
    <path
       id="path5"
       d="M 7,1935 H 232"
       style="fill:none;stroke:#000000;stroke-width:4.5;stroke-linecap:butt;stroke-linejoin:miter;stroke-miterlimit:10;stroke-dasharray:none;stroke-opacity:1"
       transform="matrix(0.13333333,0,0,-0.13333333,0,512)"
       clip-path="url(#clipPath6)" />
    <path
       id="path7"
       d="m 130,1917 90,18 -90,18 18,-18 -18,-18"
       style="fill:#000000;fill-opacity:1;fill-rule:evenodd;stroke:none"
       transform="matrix(0.13333333,0,0,-0.13333333,0,512)" />
    <path
       id="path8"
       d="m 130,1917 90,18 -90,18 18,-18 z"
       style="fill:none;stroke:#000000;stroke-width:4.5;stroke-linecap:butt;stroke-linejoin:miter;stroke-miterlimit:10;stroke-dasharray:none;stroke-opacity:1"
       transform="matrix(0.13333333,0,0,-0.13333333,0,512)" />
    <path
       id="path9"
       d="m 1717,1935 v -16.2 l 0.6,-8.4 v -10.2 l 0.6,-13.2 v -15 l 0.6,-16.8 1.2,-18.6 1.2,-20.4 1.2,-22.2 1.8,-23.4 1.8,-24 2.4,-25.2 2.4,-25.8 3.6,-27 3.6,-27 4.8,-27 4.8,-28.2 6,-28.2 6.6,-28.8 7.8,-28.8 8.4,-30 10.2,-30 10.8,-31.2 12.6,-31.8 14.4,-31.8 15.6,-33 17.4,-32.4 19.2,-33 20.4,-32.4 21.6,-31.2 22.2,-29.4 21.6,-27 21.6,-25.2 19.8,-22.8 18.6,-20.4 16.8,-18 15.6,-16.2 13.2,-13.8 12.6,-12.602 10.8,-10.796 9.6,-9 8.4,-8.403 7.2,-7.199 7.2,-6.602 6.6,-6 6.6,-5.398 6.6,-5.398 6.6,-4.801 7.8,-4.801 8.4,-5.398 9.6,-5.403 10.8,-5.398 12,-6 14.4,-6 16.2,-6.602 18.6,-6.597 21,-6.602 22.8,-6.602 25.8,-6 27.6,-5.398 29.4,-4.801 30.6,-3 31.8,-1.199 31.8,1.199 30.6,3 29.4,4.801 27.6,5.398 25.8,6 22.8,6.602 21,6.602 18.6,6.597 16.2,6.602 14.4,6 12,6 10.8,5.398 9.6,5.403 8.4,5.398 7.8,4.801 6.6,4.801 6.6,5.398 6.6,5.398 6.6,6 7.2,6.602 7.2,7.199 8.4,8.403 9.6,9 10.8,10.796 12.6,12.602 13.2,13.8 15.6,16.2 16.8,18 18.6,20.4 19.8,22.8 21.6,25.2 21.6,27 22.2,29.4 21.6,31.2 20.4,32.4 19.2,33 17.4,32.4 15.6,33 14.4,31.8 12.6,31.8 10.8,31.2 10.2,30 8.4,30 7.8,28.8 6.6,28.8 6,28.2 4.8,28.2 4.8,27 3.6,27 3.6,27 2.4,25.8 2.4,25.2 1.8,24 1.8,23.4 1.2,22.2 1.2,20.4 1.2,18.6 0.6,16.8 v 15 l 0.6,13.2 v 10.2 l 0.6,8.4 v 6.6 4.8 2.4 1.8 0.6"
       style="fill:none;stroke:#00ff00;stroke-width:30.00000075;stroke-linecap:butt;stroke-linejoin:bevel;stroke-miterlimit:10;stroke-dasharray:none;stroke-opacity:1"
       transform="matrix(0.13333333,0,0,-0.13333333,0,512)" />
    <path
       id="path10"
       d="m 3157,1935 v 16.2 l 0.6,8.4 v 10.2 l 0.6,13.2 v 15 l 0.6,16.8 1.2,18.6 1.2,20.4 1.2,22.2 1.8,23.4 1.8,24 2.4,25.2 2.4,25.8 3.6,27 3.6,27 4.8,27 4.8,28.2 6,28.2 6.6,28.8 7.8,28.8 8.4,30 10.2,30 10.8,31.2 12.6,31.8 14.4,31.8 15.6,33 17.4,32.4 19.2,33 20.4,32.4 21.6,31.2 22.2,29.4 21.6,27 21.6,25.2 19.8,22.8 18.6,20.4 16.8,18 15.6,16.2 13.2,13.8 12.6,12.6 10.8,10.8 9.6,9 8.4,8.4 7.2,7.2 7.2,6.6 6.6,6 6.6,5.4 6.6,5.4 6.6,4.8 7.8,4.8 8.4,5.4 9.6,5.4 10.8,5.4 12,6 14.4,6 16.2,6.6 18.6,6.6 21,6.6 22.8,6.6 25.8,6 27.6,5.4 29.4,4.8 30.6,3 31.8,1.2 31.8,-1.2 30.6,-3 29.4,-4.8 27.6,-5.4 25.8,-6 22.8,-6.6 21,-6.6 18.6,-6.6 16.2,-6.6 14.4,-6 12,-6 10.8,-5.4 9.6,-5.4 8.4,-5.4 7.8,-4.8 6.6,-4.8 6.6,-5.4 6.6,-5.4 6.6,-6 7.2,-6.6 7.2,-7.2 8.4,-8.4 9.6,-9 10.8,-10.8 12.6,-12.6 13.2,-13.8 15.6,-16.2 16.8,-18 18.6,-20.4 19.8,-22.8 21.6,-25.2 21.6,-27 22.2,-29.4 21.6,-31.2 20.4,-32.4 19.2,-33 17.4,-32.4 15.6,-33 14.4,-31.8 12.6,-31.8 10.8,-31.2 10.2,-30 8.4,-30 7.8,-28.8 6.6,-28.8 6,-28.2 4.8,-28.2 4.8,-27 3.6,-27 3.6,-27 2.4,-25.8 2.4,-25.2 1.8,-24 1.8,-23.4 1.2,-22.2 1.2,-20.4 1.2,-18.6 0.6,-16.8 v -15 l 0.6,-13.2 v -10.2 l 0.6,-8.4 v -6.6 -4.8 -2.4 -1.8 -0.6"
       style="fill:none;stroke:#00ff00;stroke-width:30.00000075;stroke-linecap:butt;stroke-linejoin:bevel;stroke-miterlimit:10;stroke-dasharray:none;stroke-opacity:1"
       transform="matrix(0.13333333,0,0,-0.13333333,0,512)" />
    <path
       id="path11"
       d="m 277,1935 c 0,198.82 161.18,360 360,360 198.82,0 360,-161.18 360,-360"
       style="fill:none;stroke:#00ff00;stroke-width:30.00000075;stroke-linecap:butt;stroke-linejoin:bevel;stroke-miterlimit:10;stroke-dasharray:none;stroke-opacity:1"
       transform="matrix(0.13333333,0,0,-0.13333333,0,512)" />
    <path
       id="path12"
       d="m 997,1935 c 0,-198.82 161.18,-360 360,-360 198.82,0 360,161.18 360,360"
       style="fill:none;stroke:#00ff00;stroke-width:30.00000075;stroke-linecap:butt;stroke-linejoin:bevel;stroke-miterlimit:10;stroke-dasharray:none;stroke-opacity:1"
       transform="matrix(0.13333333,0,0,-0.13333333,0,512)" />
    <path
       id="path13"
       d="m 1717,1935 c 0,-198.82 161.18,-360 360,-360 198.82,0 360,161.18 360,360"
       style="fill:none;stroke:#0000ff;stroke-width:30.00000075;stroke-linecap:butt;stroke-linejoin:bevel;stroke-miterlimit:10;stroke-dasharray:none;stroke-opacity:1"
       transform="matrix(0.13333333,0,0,-0.13333333,0,512)" />
    <path
       id="path14"
       d="m 3157,1935 c 0,-198.82 161.18,-360 360,-360 198.82,0 360,161.18 360,360"
       style="fill:none;stroke:#0000ff;stroke-width:30.00000075;stroke-linecap:butt;stroke-linejoin:bevel;stroke-miterlimit:10;stroke-dasharray:none;stroke-opacity:1"
       transform="matrix(0.13333333,0,0,-0.13333333,0,512)" />
    <path
       id="path15"
       d="m 3877,1935 c 0,198.82 161.18,360 360,360 198.82,0 360,-161.18 360,-360"
       style="fill:none;stroke:#0000ff;stroke-width:30.00000075;stroke-linecap:butt;stroke-linejoin:bevel;stroke-miterlimit:10;stroke-dasharray:none;stroke-opacity:1"
       transform="matrix(0.13333333,0,0,-0.13333333,0,512)" />
    <path
       id="path16"
       d="m 2437,1935 c 0,198.82 161.18,360 360,360 198.82,0 360,-161.18 360,-360"
       style="fill:none;stroke:#0000ff;stroke-width:30.00000075;stroke-linecap:butt;stroke-linejoin:bevel;stroke-miterlimit:10;stroke-dasharray:none;stroke-opacity:1"
       transform="matrix(0.13333333,0,0,-0.13333333,0,512)" />
    <path
       id="path17"
       d="m 997,1935 v 34.8 l 0.602,13.2 v 15 l 0.597,16.8 v 18.6 l 0.602,20.4 0.597,22.2 1.202,23.4 0.6,24 1.2,25.2 1.8,25.8 1.2,27 2.4,27 1.8,27 3,28.2 2.4,28.2 3.6,28.8 3.6,28.8 4.8,30 4.8,30 5.4,31.2 6.6,31.8 6.6,31.8 8.4,33 8.4,32.4 9.6,33 10.2,32.4 13.2,37.8 13.2,34.8 13.2,31.2 12.6,28.8 10.8,24.6 10.2,21.6 9,18.6 7.8,15.6 6.6,13.8 6,11.4 4.8,9.6 4.8,8.4 3.6,7.2 4.2,6.6 4.2,6 4.2,6.6 4.8,6 5.4,6 6.6,7.2 7.8,7.2 9,7.2 10.8,7.8 12.6,8.4 13.8,7.8 15.6,7.2 17.4,6.6 18.6,4.2 19.2,1.8 19.2,-1.8 18.6,-4.2 17.4,-6.6 15.6,-7.2 13.8,-7.8 12.6,-8.4 10.8,-7.8 9,-7.2 7.8,-7.2 6.6,-7.2 5.4,-6 4.8,-6 4.2,-6.6 4.2,-6 4.2,-6.6 3.6,-7.2 4.8,-8.4 4.8,-9.6 6,-11.4 6.6,-13.8 7.8,-15.6 9,-18.6 10.2,-21.6 10.8,-24.6 12.6,-28.8 13.2,-31.2 13.2,-34.8 13.2,-37.8 10.2,-32.4 9.6,-33 8.4,-32.4 8.4,-33 6.6,-31.8 6.6,-31.8 5.4,-31.2 4.8,-30 4.8,-30 3.6,-28.8 3.6,-28.8 2.4,-28.2 3,-28.2 1.8,-27 2.4,-27 1.2,-27 1.8,-25.8 1.2,-25.2 0.6,-24 1.2,-23.4 0.6,-22.2 0.6,-20.4 v -18.6 l 0.6,-16.8 v -15 l 0.6,-13.2 v -10.2 -8.4 -6.6 -4.8 -2.4 -1.8 -0.6"
       style="fill:none;stroke:#0000ff;stroke-width:30.00000075;stroke-linecap:butt;stroke-linejoin:bevel;stroke-miterlimit:10;stroke-dasharray:none;stroke-opacity:1"
       transform="matrix(0.13333333,0,0,-0.13333333,0,512)" />
    <path
       id="path18"
       d="m 277,1935 v -34.8 l 0.602,-13.2 v -15 l 0.597,-16.8 v -18.6 l 0.602,-20.4 0.597,-22.2 1.204,-23.4 0.597,-24 1.199,-25.2 1.801,-25.8 1.199,-27 2.403,-27 1.801,-27 3,-28.2 2.398,-28.2 3.602,-28.8 3.597,-28.8 4.801,-30 4.801,-30 5.398,-31.2 6.602,-31.8 6.597,-31.8 8.403,-33 8.398,-32.4 9.602,-33 10.199,-32.4 13.199,-37.8 13.199,-34.8 13.204,-31.2 12.597,-28.8 10.801,-24.6 10.199,-21.6 9,-18.6 7.801,-15.6 6.602,-13.801 6,-11.398 4.796,-9.602 4.801,-8.398 3.602,-7.199 L 487,945 l 4.199,-6 4.199,-6.602 4.801,-6 5.403,-6 6.597,-7.199 L 520,906 l 9,-7.199 10.801,-7.801 12.597,-8.398 13.801,-7.801 15.602,-7.199 L 599.199,861 617.801,856.801 637,855 l 19.199,1.801 18.602,4.199 17.398,6.602 15.602,7.199 13.801,7.801 12.597,8.398 10.801,7.801 9,7.199 7.801,7.199 6.597,7.199 5.403,6 4.801,6 4.199,6.602 4.199,6 4.199,6.602 3.602,7.199 4.801,8.398 4.796,9.602 6,11.398 6.602,13.801 7.801,15.6 9,18.6 10.199,21.6 10.801,24.6 12.597,28.8 13.204,31.2 13.199,34.8 13.199,37.8 10.199,32.4 9.602,33 8.398,32.4 8.403,33 6.597,31.8 6.602,31.8 5.398,31.2 4.801,30 4.801,30 3.597,28.8 3.602,28.8 2.398,28.2 3,28.2 1.801,27 2.403,27 1.199,27 1.801,25.8 1.199,25.2 0.597,24 1.204,23.4 0.597,22.2 0.602,20.4 v 18.6 l 0.597,16.8 v 15 l 0.602,13.2 v 10.2 8.4 6.6 4.8 2.4 1.8 0.6"
       style="fill:none;stroke:#0000ff;stroke-width:30.00000075;stroke-linecap:butt;stroke-linejoin:bevel;stroke-miterlimit:10;stroke-dasharray:none;stroke-opacity:1"
       transform="matrix(0.13333333,0,0,-0.13333333,0,512)" />
    <path
       id="path19"
       d="m 3157,1935 v -16.2 l 0.6,-8.4 v -10.2 l 0.6,-13.2 v -15 l 0.6,-16.8 1.2,-18.6 1.2,-20.4 1.2,-22.2 1.8,-23.4 1.8,-24 2.4,-25.2 2.4,-25.8 3.6,-27 3.6,-27 4.8,-27 4.8,-28.2 6,-28.2 6.6,-28.8 7.8,-28.8 8.4,-30 10.2,-30 10.8,-31.2 12.6,-31.8 14.4,-31.8 15.6,-33 17.4,-32.4 19.2,-33 20.4,-32.4 21.6,-31.2 22.2,-29.4 21.6,-27 21.6,-25.2 19.8,-22.8 18.6,-20.4 16.8,-18 15.6,-16.2 13.2,-13.8 12.6,-12.602 10.8,-10.796 9.6,-9 8.4,-8.403 7.2,-7.199 7.2,-6.602 6.6,-6 6.6,-5.398 6.6,-5.398 6.6,-4.801 7.8,-4.801 8.4,-5.398 9.6,-5.403 10.8,-5.398 12,-6 14.4,-6 16.2,-6.602 18.6,-6.597 21,-6.602 22.8,-6.602 25.8,-6 27.6,-5.398 29.4,-4.801 30.6,-3 31.8,-1.199 31.8,1.199 30.6,3 29.4,4.801 27.6,5.398 25.8,6 22.8,6.602 21,6.602 18.6,6.597 16.2,6.602 14.4,6 12,6 10.8,5.398 9.6,5.403 8.4,5.398 7.8,4.801 6.6,4.801 6.6,5.398 6.6,5.398 6.6,6 7.2,6.602 7.2,7.199 8.4,8.403 9.6,9 10.8,10.796 12.6,12.602 13.2,13.8 15.6,16.2 16.8,18 18.6,20.4 19.8,22.8 21.6,25.2 21.6,27 22.2,29.4 21.6,31.2 20.4,32.4 19.2,33 17.4,32.4 15.6,33 14.4,31.8 12.6,31.8 10.8,31.2 10.2,30 8.4,30 7.8,28.8 6.6,28.8 6,28.2 4.8,28.2 4.8,27 3.6,27 3.6,27 2.4,25.8 2.4,25.2 1.8,24 1.8,23.4 1.2,22.2 1.2,20.4 1.2,18.6 0.6,16.8 v 15 l 0.6,13.2 v 10.2 l 0.6,8.4 v 6.6 4.8 2.4 1.8 0.6"
       style="fill:none;stroke:#ff0000;stroke-width:30.00000075;stroke-linecap:butt;stroke-linejoin:bevel;stroke-miterlimit:10;stroke-dasharray:none;stroke-opacity:1"
       transform="matrix(0.13333333,0,0,-0.13333333,0,512)" />
    <path
       id="path20"
       d="m 997,1935 c 0,198.82 161.18,360 360,360 198.82,0 360,-161.18 360,-360"
       style="fill:none;stroke:#ff0000;stroke-width:30.00000075;stroke-linecap:butt;stroke-linejoin:bevel;stroke-miterlimit:10;stroke-dasharray:none;stroke-opacity:1"
       transform="matrix(0.13333333,0,0,-0.13333333,0,512)" />
    <path
       id="path21"
       d="m 2437,1935 c 0,-198.82 161.18,-360 360,-360 198.82,0 360,161.18 360,360"
       style="fill:none;stroke:#ff0000;stroke-width:30.00000075;stroke-linecap:butt;stroke-linejoin:bevel;stroke-miterlimit:10;stroke-dasharray:none;stroke-opacity:1"
       transform="matrix(0.13333333,0,0,-0.13333333,0,512)" />
    <path
       id="path22"
       d="m 1717,1935 c 0,198.82 161.18,360 360,360 198.82,0 360,-161.18 360,-360"
       style="fill:none;stroke:#ff0000;stroke-width:30.00000075;stroke-linecap:butt;stroke-linejoin:bevel;stroke-miterlimit:10;stroke-dasharray:none;stroke-opacity:1"
       transform="matrix(0.13333333,0,0,-0.13333333,0,512)" />
    <path
       id="path23"
       d="m 277,1935 v 34.8 l 0.602,13.2 v 15 l 0.597,16.8 v 18.6 l 0.602,20.4 0.597,22.2 1.204,23.4 0.597,24 1.199,25.2 1.801,25.8 1.199,27 2.403,27 1.801,27 3,28.2 2.398,28.2 3.602,28.8 3.597,28.8 4.801,30 4.801,30 5.398,31.2 6.602,31.8 6.597,31.8 8.403,33 8.398,32.4 9.602,33 10.199,32.4 13.199,37.8 13.199,34.8 13.204,31.2 12.597,28.8 10.801,24.6 10.199,21.6 9,18.6 7.801,15.6 6.602,13.8 6,11.4 4.796,9.6 4.801,8.4 3.602,7.2 4.199,6.6 4.199,6 4.199,6.6 4.801,6 5.403,6 6.597,7.2 7.801,7.2 9,7.2 10.801,7.8 12.597,8.4 13.801,7.8 15.602,7.2 17.398,6.6 18.602,4.2 19.199,1.8 19.199,-1.8 18.602,-4.2 17.398,-6.6 15.602,-7.2 13.801,-7.8 12.597,-8.4 10.801,-7.8 9,-7.2 7.801,-7.2 6.597,-7.2 5.403,-6 4.801,-6 4.199,-6.6 4.199,-6 4.199,-6.6 3.602,-7.2 4.801,-8.4 4.796,-9.6 6,-11.4 6.602,-13.8 7.801,-15.6 9,-18.6 10.199,-21.6 10.801,-24.6 12.597,-28.8 13.204,-31.2 13.199,-34.8 13.199,-37.8 10.199,-32.4 9.602,-33 8.398,-32.4 8.403,-33 6.597,-31.8 6.602,-31.8 5.398,-31.2 4.801,-30 4.801,-30 3.597,-28.8 3.602,-28.8 2.398,-28.2 3,-28.2 1.801,-27 2.403,-27 1.199,-27 1.801,-25.8 1.199,-25.2 0.597,-24 1.204,-23.4 0.597,-22.2 0.602,-20.4 v -18.6 l 0.597,-16.8 v -15 L 997,1969.8 v -10.2 -8.4 -6.6 -4.8 -2.4 -1.8 -0.6"
       style="fill:none;stroke:#ff0000;stroke-width:30.00000075;stroke-linecap:butt;stroke-linejoin:bevel;stroke-miterlimit:10;stroke-dasharray:none;stroke-opacity:1"
       transform="matrix(0.13333333,0,0,-0.13333333,0,512)" />
    <path
       id="path24"
       d="m 1717,1935 v 16.2 l 0.6,8.4 v 10.2 l 0.6,13.2 v 15 l 0.6,16.8 1.2,18.6 1.2,20.4 1.2,22.2 1.8,23.4 1.8,24 2.4,25.2 2.4,25.8 3.6,27 3.6,27 4.8,27 4.8,28.2 6,28.2 6.6,28.8 7.8,28.8 8.4,30 10.2,30 10.8,31.2 12.6,31.8 14.4,31.8 15.6,33 17.4,32.4 19.2,33 20.4,32.4 21.6,31.2 22.2,29.4 21.6,27 21.6,25.2 19.8,22.8 18.6,20.4 16.8,18 15.6,16.2 13.2,13.8 12.6,12.6 10.8,10.8 9.6,9 8.4,8.4 7.2,7.2 7.2,6.6 6.6,6 6.6,5.4 6.6,5.4 6.6,4.8 7.8,4.8 8.4,5.4 9.6,5.4 10.8,5.4 12,6 14.4,6 16.2,6.6 18.6,6.6 21,6.6 22.8,6.6 25.8,6 27.6,5.4 29.4,4.8 30.6,3 31.8,1.2 31.8,-1.2 30.6,-3 29.4,-4.8 27.6,-5.4 25.8,-6 22.8,-6.6 21,-6.6 18.6,-6.6 16.2,-6.6 14.4,-6 12,-6 10.8,-5.4 9.6,-5.4 8.4,-5.4 7.8,-4.8 6.6,-4.8 6.6,-5.4 6.6,-5.4 6.6,-6 7.2,-6.6 7.2,-7.2 8.4,-8.4 9.6,-9 10.8,-10.8 12.6,-12.6 13.2,-13.8 15.6,-16.2 16.8,-18 18.6,-20.4 19.8,-22.8 21.6,-25.2 21.6,-27 22.2,-29.4 21.6,-31.2 20.4,-32.4 19.2,-33 17.4,-32.4 15.6,-33 14.4,-31.8 12.6,-31.8 10.8,-31.2 10.2,-30 8.4,-30 7.8,-28.8 6.6,-28.8 6,-28.2 4.8,-28.2 4.8,-27 3.6,-27 3.6,-27 2.4,-25.8 2.4,-25.2 1.8,-24 1.8,-23.4 1.2,-22.2 1.2,-20.4 1.2,-18.6 0.6,-16.8 v -15 l 0.6,-13.2 v -10.2 l 0.6,-8.4 v -6.6 -4.8 -2.4 -1.8 -0.6"
       style="fill:none;stroke:#ffd600;stroke-width:30.00000075;stroke-linecap:butt;stroke-linejoin:bevel;stroke-miterlimit:10;stroke-dasharray:none;stroke-opacity:1"
       transform="matrix(0.13333333,0,0,-0.13333333,0,512)" />
    <path
       id="path25"
       d="m 3877,1935 c 0,-198.82 161.18,-360 360,-360 198.82,0 360,161.18 360,360"
       style="fill:none;stroke:#ffd600;stroke-width:30.00000075;stroke-linecap:butt;stroke-linejoin:bevel;stroke-miterlimit:10;stroke-dasharray:none;stroke-opacity:1"
       transform="matrix(0.13333333,0,0,-0.13333333,0,512)" />
    <path
       id="path26"
       d="m 277,1935 c 0,-198.82 161.18,-360 360,-360 198.82,0 360,161.18 360,360"
       style="fill:none;stroke:#ffd600;stroke-width:30.00000075;stroke-linecap:butt;stroke-linejoin:bevel;stroke-miterlimit:10;stroke-dasharray:none;stroke-opacity:1"
       transform="matrix(0.13333333,0,0,-0.13333333,0,512)" />
    <path
       id="path27"
       d="m 3157,1935 c 0,198.82 161.18,360 360,360 198.82,0 360,-161.18 360,-360"
       style="fill:none;stroke:#ffd600;stroke-width:30.00000075;stroke-linecap:butt;stroke-linejoin:bevel;stroke-miterlimit:10;stroke-dasharray:none;stroke-opacity:1"
       transform="matrix(0.13333333,0,0,-0.13333333,0,512)" />
    <path
       id="path28"
       d="m 997,1935 v -34.8 l 0.602,-13.2 v -15 l 0.597,-16.8 v -18.6 l 0.602,-20.4 0.597,-22.2 1.202,-23.4 0.6,-24 1.2,-25.2 1.8,-25.8 1.2,-27 2.4,-27 1.8,-27 3,-28.2 2.4,-28.2 3.6,-28.8 3.6,-28.8 4.8,-30 4.8,-30 5.4,-31.2 6.6,-31.8 6.6,-31.8 8.4,-33 8.4,-32.4 9.6,-33 10.2,-32.4 13.2,-37.8 13.2,-34.8 13.2,-31.2 12.6,-28.8 10.8,-24.6 10.2,-21.6 9,-18.6 7.8,-15.6 6.6,-13.801 6,-11.398 4.8,-9.602 4.8,-8.398 3.6,-7.199 4.2,-6.602 4.2,-6 4.2,-6.602 4.8,-6 5.4,-6 6.6,-7.199 7.8,-7.199 9,-7.199 10.8,-7.801 12.6,-8.398 13.8,-7.801 15.6,-7.199 17.4,-6.602 18.6,-4.199 19.2,-1.801 19.2,1.801 18.6,4.199 17.4,6.602 15.6,7.199 13.8,7.801 12.6,8.398 10.8,7.801 9,7.199 7.8,7.199 6.6,7.199 5.4,6 4.8,6 4.2,6.602 4.2,6 4.2,6.602 3.6,7.199 4.8,8.398 4.8,9.602 6,11.398 6.6,13.801 7.8,15.6 9,18.6 10.2,21.6 10.8,24.6 12.6,28.8 13.2,31.2 13.2,34.8 13.2,37.8 10.2,32.4 9.6,33 8.4,32.4 8.4,33 6.6,31.8 6.6,31.8 5.4,31.2 4.8,30 4.8,30 3.6,28.8 3.6,28.8 2.4,28.2 3,28.2 1.8,27 2.4,27 1.2,27 1.8,25.8 1.2,25.2 0.6,24 1.2,23.4 0.6,22.2 0.6,20.4 v 18.6 l 0.6,16.8 v 15 l 0.6,13.2 v 10.2 8.4 6.6 4.8 2.4 1.8 0.6"
       style="fill:none;stroke:#ffd600;stroke-width:30.00000075;stroke-linecap:butt;stroke-linejoin:bevel;stroke-miterlimit:10;stroke-dasharray:none;stroke-opacity:1"
       transform="matrix(0.13333333,0,0,-0.13333333,0,512)" />
    <path
       id="path29"
       d="m 637,495 h 21 l 9,0.602 h 11.398 l 13.204,0.597 15.597,0.602 16.801,0.601 18.602,0.598 20.398,1.199 21.602,1.203 22.796,1.797 24,1.801 25.204,2.402 25.796,2.399 26.403,3 27,3.601 27.597,4.2 28.801,4.8 29.401,4.797 30,6 30.6,7.199 31.8,7.801 32.4,8.403 34.2,10.199 34.8,10.801 36,12.597 37.2,13.199 39,15.602 39,16.801 40.2,18 40.2,19.199 39.6,20.398 38.4,21 37.2,21.602 35.4,22.199 33,21.602 31.8,21.597 30,21 27.6,21 27,21 25.2,21 24,20.403 22.8,20.398 21.6,20.403 21,19.796 19.8,19.801 19.2,19.801 18,19.2 18,19.2 16.8,18.6 15.6,18 15,17.4 13.8,16.2 13.2,15.6 12,14.4 10.8,13.2 9.6,12 7.8,10.2 7.2,9 6,7.2 4.2,6 3.6,4.2 2.4,3 1.2,1.8 0.6,1.2 0.6,0.6"
       style="fill:none;stroke:#000000;stroke-width:9;stroke-linecap:butt;stroke-linejoin:bevel;stroke-miterlimit:10;stroke-dasharray:none;stroke-opacity:1"
       transform="matrix(0.13333333,0,0,-0.13333333,0,512)" />
    <path
       id="path30"
       d="m 3517,2655 720,-720"
       style="fill:none;stroke:#000000;stroke-width:9;stroke-linecap:butt;stroke-linejoin:miter;stroke-miterlimit:10;stroke-dasharray:none;stroke-opacity:1"
       transform="matrix(0.13333333,0,0,-0.13333333,0,512)" />
    <path
       id="path31"
       d="m 637,3375 720,-720"
       style="fill:#ffffff;fill-opacity:1;fill-rule:evenodd;stroke:#000000;stroke-width:9;stroke-linecap:butt;stroke-linejoin:miter;stroke-miterlimit:10;stroke-dasharray:none;stroke-opacity:1"
       transform="matrix(0.13333333,0,0,-0.13333333,0,512)" />
    <path
       id="path32"
       d="m 2077,2655 720,-720"
       style="fill:#ffffff;fill-opacity:1;fill-rule:evenodd;stroke:#000000;stroke-width:9;stroke-linecap:butt;stroke-linejoin:miter;stroke-miterlimit:10;stroke-dasharray:none;stroke-opacity:1"
       transform="matrix(0.13333333,0,0,-0.13333333,0,512)" />
    <path
       id="path33"
       d="M 2797,1935 2077,1215"
       style="fill:#ffffff;fill-opacity:1;fill-rule:evenodd;stroke:#000000;stroke-width:9;stroke-linecap:butt;stroke-linejoin:miter;stroke-miterlimit:10;stroke-dasharray:none;stroke-opacity:1"
       transform="matrix(0.13333333,0,0,-0.13333333,0,512)" />
    <path
       id="path34"
       d="M 1357,1215 637,495"
       style="fill:#ffffff;fill-opacity:1;fill-rule:evenodd;stroke:#000000;stroke-width:9;stroke-linecap:butt;stroke-linejoin:miter;stroke-miterlimit:10;stroke-dasharray:none;stroke-opacity:1"
       transform="matrix(0.13333333,0,0,-0.13333333,0,512)" />
    <path
       id="path35"
       d="M 4237,1935 3517,1215"
       style="fill:#ffffff;fill-opacity:1;fill-rule:evenodd;stroke:#000000;stroke-width:9;stroke-linecap:butt;stroke-linejoin:miter;stroke-miterlimit:10;stroke-dasharray:none;stroke-opacity:1"
       transform="matrix(0.13333333,0,0,-0.13333333,0,512)" />
    <path
       id="path36"
       d="m 637,3375 h 6.602 l 4.199,0.6 h 13.801 l 10.199,0.6 h 11.398 l 14.403,0.6 h 16.199 l 18,0.6 21,0.6 23.398,0.6 25.199,0.6 27.602,0.6 29.398,0.6 31.801,0.6 h 34.199 l 35.403,0.6 37.199,0.6 38.4,0.6 h 40.2 l 41.4,0.6 h 42.6 43.2 44.4 45 46.2 l 46.2,-0.6 46.8,-0.6 47.4,-1.2 47.4,-0.6 48,-1.2 48.6,-1.8 48.6,-1.8 48.6,-1.8 49.2,-2.4 49.8,-3 49.2,-2.4 50.4,-3.6 50.4,-3.6 50.4,-4.2 51,-4.8 51.6,-4.8 51.6,-5.4 52.2,-6 52.8,-6.6 52.8,-7.2 53.4,-7.8 53.4,-8.4 53.4,-9 52.8,-9.6 53.4,-10.2 52.2,-11.4 51.6,-11.4 50.4,-12 64.2,-16.8 60.6,-17.4 57,-18 53.4,-18 49.2,-18.6 45.6,-18.6 42.6,-18.6 38.4,-18.6 35.4,-18.6 32.4,-18.6 29.4,-18 27,-18.6 24.6,-18 22.2,-18 20.4,-18 18.6,-18 16.8,-18 15,-18 13.8,-18 12.6,-17.4 10.8,-17.4 10.2,-17.4 9,-16.8 8.4,-16.8 7.2,-16.2 6.6,-15.6 5.4,-14.4 5.4,-14.4 4.2,-13.8 3.6,-12 3,-12 3,-10.2 1.8,-9.6 1.8,-7.8 1.8,-7.2 1.2,-6 0.6,-4.8 0.6,-3.6 0.6,-3 0.6,-1.8 v -1.2 -1.2"
       style="fill:none;stroke:#000000;stroke-width:9;stroke-linecap:butt;stroke-linejoin:bevel;stroke-miterlimit:10;stroke-dasharray:none;stroke-opacity:1"
       transform="matrix(0.13333333,0,0,-0.13333333,0,512)" />
    <path
       id="path37"
       d="m 637,3375 h 31.801 l 11.398,-0.6 h 14.403 l 16.199,-0.6 18.597,-0.6 h 20.403 L 772,3372 l 24,-0.6 25.199,-1.2 27,-1.2 28.199,-1.2 28.801,-1.8 30,-2.4 30.602,-2.4 31.199,-2.4 31.2,-3 32.4,-3.6 32.4,-4.2 32.4,-4.2 33,-4.8 33.6,-6 34.2,-6 34.2,-7.2 34.8,-7.8 35.4,-8.4 36,-9.6 36.6,-10.8 37.2,-12 37.2,-12.6 37.8,-14.4 37.8,-15 37.2,-16.8 36.6,-17.4 39,-20.4 37.2,-21 34.2,-21.6 32.4,-22.2 29.4,-21.6 27,-21.6 24.6,-21 22.2,-21 20.4,-21 19.2,-21 16.8,-20.4 15.6,-20.4 14.4,-20.4 13.2,-19.8 12,-19.8 10.8,-19.8 10.2,-19.2 9.6,-19.2 8.4,-18.6 7.8,-18 7.2,-17.4 6.6,-16.2 5.4,-15.6 5.4,-14.4 4.2,-13.2 4.2,-12 3,-10.2 3,-9 1.8,-7.2 1.8,-6 1.2,-4.2 0.6,-3 0.6,-1.8 0.6,-1.2 v -0.6"
       style="fill:none;stroke:#000000;stroke-width:9;stroke-linecap:butt;stroke-linejoin:bevel;stroke-miterlimit:10;stroke-dasharray:none;stroke-opacity:1"
       transform="matrix(0.13333333,0,0,-0.13333333,0,512)" />
    <path
       id="path38"
       d="m 637,495 h 60.602 l 16.199,0.602 h 62.398 l 25.199,0.597 H 829 l 29.398,0.602 31.801,0.601 h 34.199 l 35.403,0.598 37.199,0.602 38.4,1.199 40.2,0.601 41.4,1.2 42.6,0.597 43.2,1.203 44.4,1.2 45,1.8 46.2,1.2 46.2,1.8 46.8,1.797 47.4,2.403 47.4,2.398 48,2.402 48.6,2.399 48.6,3 48.6,3.601 49.2,3 49.8,4.2 49.2,3.597 50.4,4.801 50.4,4.801 50.4,4.801 51,5.398 51.6,6 51.6,6.602 52.2,6.597 52.8,7.199 52.8,7.801 53.4,8.403 53.4,9 53.4,9.597 52.8,10.199 53.4,10.801 52.2,10.801 51.6,12 50.4,12 67.2,17.398 63,18 59.4,18.602 55.2,18.602 51,18.597 46.8,18.602 43.2,18.597 39,18 36,18 32.4,18 29.4,18 27,18 24,17.403 22.2,17.398 19.8,17.403 18,16.796 16.2,17.403 15,16.801 13.2,16.798 11.4,16.8 10.8,16.2 9.6,15.6 8.4,15.6 7.8,15.6 6.6,14.4 5.4,13.8 5.4,13.2 4.2,12 3.6,11.4 3,10.8 3,9 1.8,8.4 1.8,7.2 1.2,6 1.2,4.8 0.6,3.6 0.6,3 v 1.8 l 0.6,1.2 v 1.2"
       style="fill:none;stroke:#000000;stroke-width:9;stroke-linecap:butt;stroke-linejoin:bevel;stroke-miterlimit:10;stroke-dasharray:none;stroke-opacity:1"
       transform="matrix(0.13333333,0,0,-0.13333333,0,512)" />
    <path
       id="path39"
       d="M 2077,2655 V 1215"
       style="fill:#ffffff;fill-opacity:1;fill-rule:evenodd;stroke:#000000;stroke-width:27;stroke-linecap:butt;stroke-linejoin:bevel;stroke-miterlimit:10;stroke-dasharray:none;stroke-opacity:1"
       transform="matrix(0.13333333,0,0,-0.13333333,0,512)" />
    <path
       id="path40"
       d="M 637,3375 V 495"
       style="fill:#ffffff;fill-opacity:1;fill-rule:evenodd;stroke:#000000;stroke-width:27;stroke-linecap:butt;stroke-linejoin:bevel;stroke-miterlimit:10;stroke-dasharray:none;stroke-opacity:1"
       transform="matrix(0.13333333,0,0,-0.13333333,0,512)" />
    <path
       id="path41"
       d="M 1357,2655 V 1215"
       style="fill:#ffffff;fill-opacity:1;fill-rule:evenodd;stroke:#000000;stroke-width:27;stroke-linecap:butt;stroke-linejoin:bevel;stroke-miterlimit:10;stroke-dasharray:none;stroke-opacity:1"
       transform="matrix(0.13333333,0,0,-0.13333333,0,512)" />
    <path
       id="path42"
       d="M 3517,2655 V 1215"
       style="fill:#ffffff;fill-opacity:1;fill-rule:evenodd;stroke:#000000;stroke-width:27;stroke-linecap:butt;stroke-linejoin:bevel;stroke-miterlimit:10;stroke-dasharray:none;stroke-opacity:1"
       transform="matrix(0.13333333,0,0,-0.13333333,0,512)" />
    <path
       id="path43"
       d="m 682,1215 c 0,-24.85 -20.148,-45 -45,-45 -24.852,0 -45,20.15 -45,45 0,24.85 20.148,45 45,45 24.852,0 45,-20.15 45,-45"
       style="fill:#ffffff;fill-opacity:1;fill-rule:evenodd;stroke:none"
       transform="matrix(0.13333333,0,0,-0.13333333,0,512)" />
    <path
       id="path44"
       d="m 682,1215 c 0,-24.85 -20.148,-45 -45,-45 -24.852,0 -45,20.15 -45,45 0,24.85 20.148,45 45,45 24.852,0 45,-20.15 45,-45 z"
       style="fill:none;stroke:#000000;stroke-width:9;stroke-linecap:butt;stroke-linejoin:bevel;stroke-miterlimit:10;stroke-dasharray:none;stroke-opacity:1"
       transform="matrix(0.13333333,0,0,-0.13333333,0,512)" />
    <path
       id="path45"
       d="m 3562,1215 c 0,-24.85 -20.15,-45 -45,-45 -24.85,0 -45,20.15 -45,45 0,24.85 20.15,45 45,45 24.85,0 45,-20.15 45,-45"
       style="fill:#ffffff;fill-opacity:1;fill-rule:evenodd;stroke:none"
       transform="matrix(0.13333333,0,0,-0.13333333,0,512)" />
    <path
       id="path46"
       d="m 3562,1215 c 0,-24.85 -20.15,-45 -45,-45 -24.85,0 -45,20.15 -45,45 0,24.85 20.15,45 45,45 24.85,0 45,-20.15 45,-45 z"
       style="fill:none;stroke:#000000;stroke-width:9;stroke-linecap:butt;stroke-linejoin:bevel;stroke-miterlimit:10;stroke-dasharray:none;stroke-opacity:1"
       transform="matrix(0.13333333,0,0,-0.13333333,0,512)" />
    <path
       id="path47"
       d="m 682,495 c 0,-24.852 -20.148,-45 -45,-45 -24.852,0 -45,20.148 -45,45 0,24.852 20.148,45 45,45 24.852,0 45,-20.148 45,-45"
       style="fill:#ffffff;fill-opacity:1;fill-rule:evenodd;stroke:none"
       transform="matrix(0.13333333,0,0,-0.13333333,0,512)" />
    <path
       id="path48"
       d="m 682,495 c 0,-24.852 -20.148,-45 -45,-45 -24.852,0 -45,20.148 -45,45 0,24.852 20.148,45 45,45 24.852,0 45,-20.148 45,-45 z"
       style="fill:none;stroke:#000000;stroke-width:9;stroke-linecap:butt;stroke-linejoin:bevel;stroke-miterlimit:10;stroke-dasharray:none;stroke-opacity:1"
       transform="matrix(0.13333333,0,0,-0.13333333,0,512)" />
    <path
       id="path49"
       d="m 4282,1935 c 0,-24.85 -20.15,-45 -45,-45 -24.85,0 -45,20.15 -45,45 0,24.85 20.15,45 45,45 24.85,0 45,-20.15 45,-45"
       style="fill:#ffffff;fill-opacity:1;fill-rule:evenodd;stroke:none"
       transform="matrix(0.13333333,0,0,-0.13333333,0,512)" />
    <path
       id="path50"
       d="m 4282,1935 c 0,-24.85 -20.15,-45 -45,-45 -24.85,0 -45,20.15 -45,45 0,24.85 20.15,45 45,45 24.85,0 45,-20.15 45,-45 z"
       style="fill:none;stroke:#000000;stroke-width:9;stroke-linecap:butt;stroke-linejoin:bevel;stroke-miterlimit:10;stroke-dasharray:none;stroke-opacity:1"
       transform="matrix(0.13333333,0,0,-0.13333333,0,512)" />
    <path
       id="path51"
       d="m 3562,1935 c 0,-24.85 -20.15,-45 -45,-45 -24.85,0 -45,20.15 -45,45 0,24.85 20.15,45 45,45 24.85,0 45,-20.15 45,-45"
       style="fill:#ffffff;fill-opacity:1;fill-rule:evenodd;stroke:none"
       transform="matrix(0.13333333,0,0,-0.13333333,0,512)" />
    <path
       id="path52"
       d="m 3562,1935 c 0,-24.85 -20.15,-45 -45,-45 -24.85,0 -45,20.15 -45,45 0,24.85 20.15,45 45,45 24.85,0 45,-20.15 45,-45 z"
       style="fill:none;stroke:#000000;stroke-width:9;stroke-linecap:butt;stroke-linejoin:bevel;stroke-miterlimit:10;stroke-dasharray:none;stroke-opacity:1"
       transform="matrix(0.13333333,0,0,-0.13333333,0,512)" />
    <path
       id="path53"
       d="m 1402,1935 c 0,-24.85 -20.15,-45 -45,-45 -24.85,0 -45,20.15 -45,45 0,24.85 20.15,45 45,45 24.85,0 45,-20.15 45,-45"
       style="fill:#ffffff;fill-opacity:1;fill-rule:evenodd;stroke:none"
       transform="matrix(0.13333333,0,0,-0.13333333,0,512)" />
    <path
       id="path54"
       d="m 1402,1935 c 0,-24.85 -20.15,-45 -45,-45 -24.85,0 -45,20.15 -45,45 0,24.85 20.15,45 45,45 24.85,0 45,-20.15 45,-45 z"
       style="fill:none;stroke:#000000;stroke-width:9;stroke-linecap:butt;stroke-linejoin:bevel;stroke-miterlimit:10;stroke-dasharray:none;stroke-opacity:1"
       transform="matrix(0.13333333,0,0,-0.13333333,0,512)" />
    <path
       id="path55"
       d="m 682,1935 c 0,-24.85 -20.148,-45 -45,-45 -24.852,0 -45,20.15 -45,45 0,24.85 20.148,45 45,45 24.852,0 45,-20.15 45,-45"
       style="fill:#ffffff;fill-opacity:1;fill-rule:evenodd;stroke:none"
       transform="matrix(0.13333333,0,0,-0.13333333,0,512)" />
    <path
       id="path56"
       d="m 682,1935 c 0,-24.85 -20.148,-45 -45,-45 -24.852,0 -45,20.15 -45,45 0,24.85 20.148,45 45,45 24.852,0 45,-20.15 45,-45 z"
       style="fill:none;stroke:#000000;stroke-width:9;stroke-linecap:butt;stroke-linejoin:bevel;stroke-miterlimit:10;stroke-dasharray:none;stroke-opacity:1"
       transform="matrix(0.13333333,0,0,-0.13333333,0,512)" />
    <path
       id="path57"
       d="m 3562,2655 c 0,-24.85 -20.15,-45 -45,-45 -24.85,0 -45,20.15 -45,45 0,24.85 20.15,45 45,45 24.85,0 45,-20.15 45,-45"
       style="fill:#ffffff;fill-opacity:1;fill-rule:evenodd;stroke:none"
       transform="matrix(0.13333333,0,0,-0.13333333,0,512)" />
    <path
       id="path58"
       d="m 3562,2655 c 0,-24.85 -20.15,-45 -45,-45 -24.85,0 -45,20.15 -45,45 0,24.85 20.15,45 45,45 24.85,0 45,-20.15 45,-45 z"
       style="fill:none;stroke:#000000;stroke-width:9;stroke-linecap:butt;stroke-linejoin:bevel;stroke-miterlimit:10;stroke-dasharray:none;stroke-opacity:1"
       transform="matrix(0.13333333,0,0,-0.13333333,0,512)" />
    <path
       id="path59"
       d="m 2842,1935 c 0,-24.85 -20.15,-45 -45,-45 -24.85,0 -45,20.15 -45,45 0,24.85 20.15,45 45,45 24.85,0 45,-20.15 45,-45"
       style="fill:#ffffff;fill-opacity:1;fill-rule:evenodd;stroke:none"
       transform="matrix(0.13333333,0,0,-0.13333333,0,512)" />
    <path
       id="path60"
       d="m 2842,1935 c 0,-24.85 -20.15,-45 -45,-45 -24.85,0 -45,20.15 -45,45 0,24.85 20.15,45 45,45 24.85,0 45,-20.15 45,-45 z"
       style="fill:none;stroke:#000000;stroke-width:9;stroke-linecap:butt;stroke-linejoin:bevel;stroke-miterlimit:10;stroke-dasharray:none;stroke-opacity:1"
       transform="matrix(0.13333333,0,0,-0.13333333,0,512)" />
    <path
       id="path61"
       d="m 2122,2655 c 0,-24.85 -20.15,-45 -45,-45 -24.85,0 -45,20.15 -45,45 0,24.85 20.15,45 45,45 24.85,0 45,-20.15 45,-45"
       style="fill:#ffffff;fill-opacity:1;fill-rule:evenodd;stroke:none"
       transform="matrix(0.13333333,0,0,-0.13333333,0,512)" />
    <path
       id="path62"
       d="m 2122,2655 c 0,-24.85 -20.15,-45 -45,-45 -24.85,0 -45,20.15 -45,45 0,24.85 20.15,45 45,45 24.85,0 45,-20.15 45,-45 z"
       style="fill:none;stroke:#000000;stroke-width:9;stroke-linecap:butt;stroke-linejoin:bevel;stroke-miterlimit:10;stroke-dasharray:none;stroke-opacity:1"
       transform="matrix(0.13333333,0,0,-0.13333333,0,512)" />
    <path
       id="path63"
       d="m 2122,1215 c 0,-24.85 -20.15,-45 -45,-45 -24.85,0 -45,20.15 -45,45 0,24.85 20.15,45 45,45 24.85,0 45,-20.15 45,-45"
       style="fill:#ffffff;fill-opacity:1;fill-rule:evenodd;stroke:none"
       transform="matrix(0.13333333,0,0,-0.13333333,0,512)" />
    <path
       id="path64"
       d="m 2122,1215 c 0,-24.85 -20.15,-45 -45,-45 -24.85,0 -45,20.15 -45,45 0,24.85 20.15,45 45,45 24.85,0 45,-20.15 45,-45 z"
       style="fill:none;stroke:#000000;stroke-width:9;stroke-linecap:butt;stroke-linejoin:bevel;stroke-miterlimit:10;stroke-dasharray:none;stroke-opacity:1"
       transform="matrix(0.13333333,0,0,-0.13333333,0,512)" />
    <path
       id="path65"
       d="m 1402,1215 c 0,-24.85 -20.15,-45 -45,-45 -24.85,0 -45,20.15 -45,45 0,24.85 20.15,45 45,45 24.85,0 45,-20.15 45,-45"
       style="fill:#ffffff;fill-opacity:1;fill-rule:evenodd;stroke:none"
       transform="matrix(0.13333333,0,0,-0.13333333,0,512)" />
    <path
       id="path66"
       d="m 1402,1215 c 0,-24.85 -20.15,-45 -45,-45 -24.85,0 -45,20.15 -45,45 0,24.85 20.15,45 45,45 24.85,0 45,-20.15 45,-45 z"
       style="fill:none;stroke:#000000;stroke-width:9;stroke-linecap:butt;stroke-linejoin:bevel;stroke-miterlimit:10;stroke-dasharray:none;stroke-opacity:1"
       transform="matrix(0.13333333,0,0,-0.13333333,0,512)" />
    <path
       id="path67"
       d="m 1402,2655 c 0,-24.85 -20.15,-45 -45,-45 -24.85,0 -45,20.15 -45,45 0,24.85 20.15,45 45,45 24.85,0 45,-20.15 45,-45"
       style="fill:#ffffff;fill-opacity:1;fill-rule:evenodd;stroke:none"
       transform="matrix(0.13333333,0,0,-0.13333333,0,512)" />
    <path
       id="path68"
       d="m 1402,2655 c 0,-24.85 -20.15,-45 -45,-45 -24.85,0 -45,20.15 -45,45 0,24.85 20.15,45 45,45 24.85,0 45,-20.15 45,-45 z"
       style="fill:none;stroke:#000000;stroke-width:9;stroke-linecap:butt;stroke-linejoin:bevel;stroke-miterlimit:10;stroke-dasharray:none;stroke-opacity:1"
       transform="matrix(0.13333333,0,0,-0.13333333,0,512)" />
    <path
       id="path69"
       d="m 682,3375 c 0,-24.85 -20.148,-45 -45,-45 -24.852,0 -45,20.15 -45,45 0,24.85 20.148,45 45,45 24.852,0 45,-20.15 45,-45"
       style="fill:#ffffff;fill-opacity:1;fill-rule:evenodd;stroke:none"
       transform="matrix(0.13333333,0,0,-0.13333333,0,512)" />
    <path
       id="path70"
       d="m 682,3375 c 0,-24.85 -20.148,-45 -45,-45 -24.852,0 -45,20.15 -45,45 0,24.85 20.148,45 45,45 24.852,0 45,-20.15 45,-45 z"
       style="fill:none;stroke:#000000;stroke-width:9;stroke-linecap:butt;stroke-linejoin:bevel;stroke-miterlimit:10;stroke-dasharray:none;stroke-opacity:1"
       transform="matrix(0.13333333,0,0,-0.13333333,0,512)" />
    <path
       id="path71"
       d="m 682,2655 c 0,-24.85 -20.148,-45 -45,-45 -24.852,0 -45,20.15 -45,45 0,24.85 20.148,45 45,45 24.852,0 45,-20.15 45,-45"
       style="fill:#ffffff;fill-opacity:1;fill-rule:evenodd;stroke:none"
       transform="matrix(0.13333333,0,0,-0.13333333,0,512)" />
    <path
       id="path72"
       d="m 682,2655 c 0,-24.85 -20.148,-45 -45,-45 -24.852,0 -45,20.15 -45,45 0,24.85 20.148,45 45,45 24.852,0 45,-20.15 45,-45 z"
       style="fill:none;stroke:#000000;stroke-width:9;stroke-linecap:butt;stroke-linejoin:bevel;stroke-miterlimit:10;stroke-dasharray:none;stroke-opacity:1"
       transform="matrix(0.13333333,0,0,-0.13333333,0,512)" />
    <path
       id="path73"
       d="m 2122,1935 c 0,-24.85 -20.15,-45 -45,-45 -24.85,0 -45,20.15 -45,45 0,24.85 20.15,45 45,45 24.85,0 45,-20.15 45,-45"
       style="fill:#ffffff;fill-opacity:1;fill-rule:evenodd;stroke:none"
       transform="matrix(0.13333333,0,0,-0.13333333,0,512)" />
    <path
       id="path74"
       d="m 2122,1935 c 0,-24.85 -20.15,-45 -45,-45 -24.85,0 -45,20.15 -45,45 0,24.85 20.15,45 45,45 24.85,0 45,-20.15 45,-45 z"
       style="fill:none;stroke:#000000;stroke-width:9;stroke-linecap:butt;stroke-linejoin:bevel;stroke-miterlimit:10;stroke-dasharray:none;stroke-opacity:1"
       transform="matrix(0.13333333,0,0,-0.13333333,0,512)" />
    <path
       id="path75"
       d="m 3202,1935 c 0,-24.85 -20.15,-45 -45,-45 -24.85,0 -45,20.15 -45,45 0,24.85 20.15,45 45,45 24.85,0 45,-20.15 45,-45"
       style="fill:#ff0000;fill-opacity:1;fill-rule:evenodd;stroke:none"
       transform="matrix(0.13333333,0,0,-0.13333333,0,512)" />
    <path
       id="path76"
       d="m 3202,1935 c 0,-24.85 -20.15,-45 -45,-45 -24.85,0 -45,20.15 -45,45 0,24.85 20.15,45 45,45 24.85,0 45,-20.15 45,-45 z"
       style="fill:none;stroke:#000000;stroke-width:9;stroke-linecap:butt;stroke-linejoin:bevel;stroke-miterlimit:10;stroke-dasharray:none;stroke-opacity:1"
       transform="matrix(0.13333333,0,0,-0.13333333,0,512)" />
    <path
       id="path77"
       d="m 1762,1935 c 0,-24.85 -20.15,-45 -45,-45 -24.85,0 -45,20.15 -45,45 0,24.85 20.15,45 45,45 24.85,0 45,-20.15 45,-45"
       style="fill:#ff0000;fill-opacity:1;fill-rule:evenodd;stroke:none"
       transform="matrix(0.13333333,0,0,-0.13333333,0,512)" />
    <path
       id="path78"
       d="m 1762,1935 c 0,-24.85 -20.15,-45 -45,-45 -24.85,0 -45,20.15 -45,45 0,24.85 20.15,45 45,45 24.85,0 45,-20.15 45,-45 z"
       style="fill:none;stroke:#000000;stroke-width:9;stroke-linecap:butt;stroke-linejoin:bevel;stroke-miterlimit:10;stroke-dasharray:none;stroke-opacity:1"
       transform="matrix(0.13333333,0,0,-0.13333333,0,512)" />
    <path
       id="path79"
       d="m 1042,1935 c 0,-24.85 -20.15,-45 -45,-45 -24.852,0 -45,20.15 -45,45 0,24.85 20.148,45 45,45 24.85,0 45,-20.15 45,-45"
       style="fill:#ff0000;fill-opacity:1;fill-rule:evenodd;stroke:none"
       transform="matrix(0.13333333,0,0,-0.13333333,0,512)" />
    <path
       id="path80"
       d="m 1042,1935 c 0,-24.85 -20.15,-45 -45,-45 -24.852,0 -45,20.15 -45,45 0,24.85 20.148,45 45,45 24.85,0 45,-20.15 45,-45 z"
       style="fill:none;stroke:#000000;stroke-width:9;stroke-linecap:butt;stroke-linejoin:bevel;stroke-miterlimit:10;stroke-dasharray:none;stroke-opacity:1"
       transform="matrix(0.13333333,0,0,-0.13333333,0,512)" />
    <path
       id="path81"
       d="m 4642,1935 c 0,-24.85 -20.15,-45 -45,-45 -24.85,0 -45,20.15 -45,45 0,24.85 20.15,45 45,45 24.85,0 45,-20.15 45,-45"
       style="fill:#ff0000;fill-opacity:1;fill-rule:evenodd;stroke:none"
       transform="matrix(0.13333333,0,0,-0.13333333,0,512)" />
    <path
       id="path82"
       d="m 4642,1935 c 0,-24.85 -20.15,-45 -45,-45 -24.85,0 -45,20.15 -45,45 0,24.85 20.15,45 45,45 24.85,0 45,-20.15 45,-45 z"
       style="fill:none;stroke:#000000;stroke-width:9;stroke-linecap:butt;stroke-linejoin:bevel;stroke-miterlimit:10;stroke-dasharray:none;stroke-opacity:1"
       transform="matrix(0.13333333,0,0,-0.13333333,0,512)" />
    <path
       id="path83"
       d="m 322,1935 c 0,-24.85 -20.148,-45 -45,-45 -24.852,0 -45,20.15 -45,45 0,24.85 20.148,45 45,45 24.852,0 45,-20.15 45,-45"
       style="fill:#ff0000;fill-opacity:1;fill-rule:evenodd;stroke:none"
       transform="matrix(0.13333333,0,0,-0.13333333,0,512)" />
    <path
       id="path84"
       d="m 322,1935 c 0,-24.85 -20.148,-45 -45,-45 -24.852,0 -45,20.15 -45,45 0,24.85 20.148,45 45,45 24.852,0 45,-20.15 45,-45 z"
       style="fill:none;stroke:#000000;stroke-width:9;stroke-linecap:butt;stroke-linejoin:bevel;stroke-miterlimit:10;stroke-dasharray:none;stroke-opacity:1"
       transform="matrix(0.13333333,0,0,-0.13333333,0,512)" />
    <path
       id="path85"
       d="m 3922,1935 c 0,-24.85 -20.15,-45 -45,-45 -24.85,0 -45,20.15 -45,45 0,24.85 20.15,45 45,45 24.85,0 45,-20.15 45,-45"
       style="fill:#ff0000;fill-opacity:1;fill-rule:evenodd;stroke:none"
       transform="matrix(0.13333333,0,0,-0.13333333,0,512)" />
    <path
       id="path86"
       d="m 3922,1935 c 0,-24.85 -20.15,-45 -45,-45 -24.85,0 -45,20.15 -45,45 0,24.85 20.15,45 45,45 24.85,0 45,-20.15 45,-45 z"
       style="fill:none;stroke:#000000;stroke-width:9;stroke-linecap:butt;stroke-linejoin:bevel;stroke-miterlimit:10;stroke-dasharray:none;stroke-opacity:1"
       transform="matrix(0.13333333,0,0,-0.13333333,0,512)" />
    <path
       id="path87"
       d="m 2482,1935 c 0,-24.85 -20.15,-45 -45,-45 -24.85,0 -45,20.15 -45,45 0,24.85 20.15,45 45,45 24.85,0 45,-20.15 45,-45"
       style="fill:#ff0000;fill-opacity:1;fill-rule:evenodd;stroke:none"
       transform="matrix(0.13333333,0,0,-0.13333333,0,512)" />
    <path
       id="path88"
       d="m 2482,1935 c 0,-24.85 -20.15,-45 -45,-45 -24.85,0 -45,20.15 -45,45 0,24.85 20.15,45 45,45 24.85,0 45,-20.15 45,-45 z"
       style="fill:none;stroke:#000000;stroke-width:9;stroke-linecap:butt;stroke-linejoin:bevel;stroke-miterlimit:10;stroke-dasharray:none;stroke-opacity:1"
       transform="matrix(0.13333333,0,0,-0.13333333,0,512)" />
  </g>
</svg>
