<?xml version="1.0" encoding="UTF-8" standalone="no"?>
<!-- Created with Inkscape (http://www.inkscape.org/) -->

<svg
   version="1.1"
   id="svg1"
   width="648"
   height="511.20312"
   viewBox="0 0 648 511.20312"
   sodipodi:docname="4venn_curves.svg"
   inkscape:version="1.3.2 (091e20e, 2023-11-25, custom)"
   xmlns:inkscape="http://www.inkscape.org/namespaces/inkscape"
   xmlns:sodipodi="http://sodipodi.sourceforge.net/DTD/sodipodi-0.dtd"
   xmlns="http://www.w3.org/2000/svg"
   xmlns:svg="http://www.w3.org/2000/svg">
  <defs
     id="defs1">
    <clipPath
       clipPathUnits="userSpaceOnUse"
       id="clipPath2">
      <path
         d="M 0,3840 H 4880 V 0 H 0 Z M 4633,1953 v -36 h 111 l -90,18 90,18 z"
         clip-rule="evenodd"
         id="path2" />
    </clipPath>
    <clipPath
       clipPathUnits="userSpaceOnUse"
       id="clipPath6">
      <path
         d="M 0,3840 H 4880 V 0 H 0 Z M 241,1917 v 36 H 130 l 90,-18 -90,-18 z"
         clip-rule="evenodd"
         id="path6" />
    </clipPath>
  </defs>
  <sodipodi:namedview
     id="namedview1"
     pagecolor="#ffffff"
     bordercolor="#000000"
     borderopacity="0.25"
     inkscape:showpageshadow="2"
     inkscape:pageopacity="0.0"
     inkscape:pagecheckerboard="0"
     inkscape:deskcolor="#d1d1d1"
     inkscape:zoom="2.6972656"
     inkscape:cx="324.03186"
     inkscape:cy="256"
     inkscape:window-width="3840"
     inkscape:window-height="1577"
     inkscape:window-x="-8"
     inkscape:window-y="-8"
     inkscape:window-maximized="1"
     inkscape:current-layer="g1">
    <inkscape:page
       x="0"
       y="0"
       inkscape:label="1"
       id="page1"
       width="648"
       height="511.20312"
       margin="0"
       bleed="0"
       inkscape:export-filename="4venn_curves.pdf"
       inkscape:export-xdpi="96"
       inkscape:export-ydpi="96" />
  </sodipodi:namedview>
  <g
     id="g1"
     inkscape:groupmode="layer"
     inkscape:label="1"
     transform="translate(-0.93333333)">
    <path
       id="path1"
       d="M 4867,1935 H 4642"
       style="fill:none;stroke:#000000;stroke-width:4.5;stroke-linecap:butt;stroke-linejoin:miter;stroke-miterlimit:10;stroke-dasharray:none;stroke-opacity:1"
       transform="matrix(0.13333333,0,0,-0.13333333,0,512)"
       clip-path="url(#clipPath2)" />
    <path
       id="path3"
       d="m 4744,1953 -90,-18 90,-18 -18,18 18,18"
       style="fill:#000000;fill-opacity:1;fill-rule:evenodd;stroke:none"
       transform="matrix(0.13333333,0,0,-0.13333333,0,512)" />
    <path
       id="path4"
       d="m 4744,1953 -90,-18 90,-18 -18,18 z"
       style="fill:none;stroke:#000000;stroke-width:4.5;stroke-linecap:butt;stroke-linejoin:miter;stroke-miterlimit:10;stroke-dasharray:none;stroke-opacity:1"
       transform="matrix(0.13333333,0,0,-0.13333333,0,512)" />
    <path
       id="path5"
       d="M 7,1935 H 232"
       style="fill:none;stroke:#000000;stroke-width:4.5;stroke-linecap:butt;stroke-linejoin:miter;stroke-miterlimit:10;stroke-dasharray:none;stroke-opacity:1"
       transform="matrix(0.13333333,0,0,-0.13333333,0,512)"
       clip-path="url(#clipPath6)" />
    <path
       id="path7"
       d="m 130,1917 90,18 -90,18 18,-18 -18,-18"
       style="fill:#000000;fill-opacity:1;fill-rule:evenodd;stroke:none"
       transform="matrix(0.13333333,0,0,-0.13333333,0,512)" />
    <path
       id="path8"
       d="m 130,1917 90,18 -90,18 18,-18 z"
       style="fill:none;stroke:#000000;stroke-width:4.5;stroke-linecap:butt;stroke-linejoin:miter;stroke-miterlimit:10;stroke-dasharray:none;stroke-opacity:1"
       transform="matrix(0.13333333,0,0,-0.13333333,0,512)" />
    <path
       id="path9"
       d="m 58.189936,337.51561 3.09375,-1.51562 h 0.3125 v 10.75 c 0,0.71094 0.02344,1.15234 0.07813,1.32812 0.0625,0.17969 0.1875,0.3125 0.375,0.40625 0.1875,0.0937 0.566406,0.14844 1.140625,0.15625 v 0.34375 h -4.78125 v -0.34375 c 0.601562,-0.008 0.992187,-0.0625 1.171875,-0.15625 0.175781,-0.0937 0.296875,-0.21093 0.359375,-0.35937 0.07031,-0.15625 0.109374,-0.61328 0.109374,-1.375 v -6.875 c 0,-0.92578 -0.03125,-1.51953 -0.09375,-1.78125 -0.04297,-0.19531 -0.125,-0.34375 -0.25,-0.4375 -0.117188,-0.0937 -0.25,-0.14063 -0.40625,-0.14063 -0.230469,0 -0.554687,0.10157 -0.96875,0.29688 z m 8.039062,5.1875 c 0,-1.44531 0.21875,-2.6914 0.65625,-3.73437 0.4375,-1.05078 1.019531,-1.83594 1.75,-2.35938 0.5625,-0.40625 1.144531,-0.60937 1.75,-0.60937 0.96875,0 1.84375,0.5 2.625,1.5 0.96875,1.23047 1.453124,2.89844 1.453124,5 0,1.48047 -0.214842,2.73437 -0.640624,3.76562 -0.429688,1.03125 -0.976562,1.78125 -1.640625,2.25 -0.656251,0.46094 -1.289063,0.6875 -1.890625,0.6875 -1.21875,0 -2.230469,-0.71093 -3.03125,-2.14062 -0.6875,-1.20703 -1.03125,-2.66016 -1.03125,-4.35938 z m 1.84375,0.23438 c 0,1.75 0.210937,3.17969 0.640625,4.28125 0.363281,0.9375 0.894531,1.40625 1.59375,1.40625 0.343749,0 0.691407,-0.14844 1.046875,-0.45313 0.363281,-0.3125 0.640625,-0.82031 0.828125,-1.53125 0.289063,-1.07031 0.4375,-2.58593 0.4375,-4.54687 0,-1.44531 -0.152344,-2.65625 -0.453125,-3.625 -0.21875,-0.71875 -0.511719,-1.22656 -0.875,-1.53125 -0.25,-0.20703 -0.558594,-0.3125 -0.921875,-0.3125 -0.429688,0 -0.808593,0.19531 -1.140625,0.57812 -0.449219,0.51172 -0.757813,1.32422 -0.921875,2.4375 -0.15625,1.11719 -0.234375,2.21485 -0.234375,3.29688 z m 7.753906,-0.23438 c 0,-1.44531 0.21875,-2.6914 0.65625,-3.73437 0.4375,-1.05078 1.019531,-1.83594 1.75,-2.35938 0.5625,-0.40625 1.144531,-0.60937 1.75,-0.60937 0.96875,0 1.843749,0.5 2.625,1.5 0.968749,1.23047 1.453125,2.89844 1.453125,5 0,1.48047 -0.214844,2.73437 -0.640625,3.76562 -0.429688,1.03125 -0.976563,1.78125 -1.640625,2.25 -0.656249,0.46094 -1.289063,0.6875 -1.890625,0.6875 -1.21875,0 -2.230468,-0.71093 -3.03125,-2.14062 -0.6875,-1.20703 -1.03125,-2.66016 -1.03125,-4.35938 z m 1.84375,0.23438 c 0,1.75 0.210938,3.17969 0.640626,4.28125 0.36328,0.9375 0.89453,1.40625 1.593749,1.40625 0.343751,0 0.691407,-0.14844 1.046875,-0.45313 0.363281,-0.3125 0.640625,-0.82031 0.828125,-1.53125 0.289062,-1.07031 0.4375,-2.58593 0.4375,-4.54687 0,-1.44531 -0.152344,-2.65625 -0.453126,-3.625 -0.218749,-0.71875 -0.511718,-1.22656 -0.874999,-1.53125 -0.25,-0.20703 -0.558594,-0.3125 -0.921875,-0.3125 -0.429688,0 -0.808593,0.19531 -1.140625,0.57812 -0.449219,0.51172 -0.757812,1.32422 -0.921875,2.4375 -0.156249,1.11719 -0.234375,2.21485 -0.234375,3.29688 z m 7.757812,-0.23438 c 0,-1.44531 0.218751,-2.6914 0.656251,-3.73437 0.4375,-1.05078 1.01953,-1.83594 1.75,-2.35938 0.5625,-0.40625 1.14453,-0.60937 1.75,-0.60937 0.968749,0 1.843749,0.5 2.625,1.5 0.968749,1.23047 1.453124,2.89844 1.453124,5 0,1.48047 -0.214843,2.73437 -0.640624,3.76562 -0.429688,1.03125 -0.976563,1.78125 -1.640626,2.25 -0.65625,0.46094 -1.289062,0.6875 -1.890625,0.6875 -1.218749,0 -2.230468,-0.71093 -3.031249,-2.14062 -0.6875,-1.20703 -1.031251,-2.66016 -1.031251,-4.35938 z m 1.843751,0.23438 c 0,1.75 0.210937,3.17969 0.640624,4.28125 0.363281,0.9375 0.894532,1.40625 1.59375,1.40625 0.34375,0 0.691407,-0.14844 1.046875,-0.45313 0.363281,-0.3125 0.640625,-0.82031 0.828125,-1.53125 0.289063,-1.07031 0.4375,-2.58593 0.4375,-4.54687 0,-1.44531 -0.152344,-2.65625 -0.453125,-3.625 -0.218749,-0.71875 -0.511719,-1.22656 -0.875,-1.53125 -0.25,-0.20703 -0.558593,-0.3125 -0.921875,-0.3125 -0.429688,0 -0.808593,0.19531 -1.140625,0.57812 -0.449219,0.51172 -0.757812,1.32422 -0.921875,2.4375 -0.15625,1.11719 -0.234374,2.21485 -0.234374,3.29688 z m 223.753903,-0.23438 c 0,-1.44531 0.21874,-2.6914 0.65625,-3.73437 0.43749,-1.05078 1.01953,-1.83594 1.75,-2.35938 0.56249,-0.40625 1.14453,-0.60937 1.75,-0.60937 0.96875,0 1.84375,0.5 2.625,1.5 0.96875,1.23047 1.45312,2.89844 1.45312,5 0,1.48047 -0.21484,2.73437 -0.64063,3.76562 -0.42968,1.03125 -0.97656,1.78125 -1.64062,2.25 -0.65624,0.46094 -1.28906,0.6875 -1.89062,0.6875 -1.21876,0 -2.23048,-0.71093 -3.03125,-2.14062 -0.68751,-1.20703 -1.03125,-2.66016 -1.03125,-4.35938 z m 1.84374,0.23438 c 0,1.75 0.21095,3.17969 0.64063,4.28125 0.36328,0.9375 0.89453,1.40625 1.59375,1.40625 0.34376,0 0.69141,-0.14844 1.04688,-0.45313 0.36328,-0.3125 0.64062,-0.82031 0.82812,-1.53125 0.28906,-1.07031 0.4375,-2.58593 0.4375,-4.54687 0,-1.44531 -0.15234,-2.65625 -0.45312,-3.625 -0.21876,-0.71875 -0.51172,-1.22656 -0.875,-1.53125 -0.25,-0.20703 -0.5586,-0.3125 -0.92188,-0.3125 -0.42969,0 -0.8086,0.19531 -1.14062,0.57812 -0.44922,0.51172 -0.75782,1.32422 -0.92188,2.4375 -0.15624,1.11719 -0.23438,2.21485 -0.23438,3.29688 z m 7.75782,-0.23438 c 0,-1.44531 0.21874,-2.6914 0.65625,-3.73437 0.43749,-1.05078 1.01953,-1.83594 1.75,-2.35938 0.56249,-0.40625 1.14453,-0.60937 1.75,-0.60937 0.96875,0 1.84375,0.5 2.625,1.5 0.96875,1.23047 1.45312,2.89844 1.45312,5 0,1.48047 -0.21484,2.73437 -0.64063,3.76562 -0.42968,1.03125 -0.97656,1.78125 -1.64061,2.25 -0.65625,0.46094 -1.28907,0.6875 -1.89063,0.6875 -1.21876,0 -2.23046,-0.71093 -3.03125,-2.14062 -0.68751,-1.20703 -1.03125,-2.66016 -1.03125,-4.35938 z m 1.84374,0.23438 c 0,1.75 0.21095,3.17969 0.64063,4.28125 0.36328,0.9375 0.89453,1.40625 1.59376,1.40625 0.34375,0 0.6914,-0.14844 1.04687,-0.45313 0.36328,-0.3125 0.64062,-0.82031 0.82813,-1.53125 0.28905,-1.07031 0.43749,-2.58593 0.43749,-4.54687 0,-1.44531 -0.15234,-2.65625 -0.45312,-3.625 -0.21876,-0.71875 -0.51172,-1.22656 -0.875,-1.53125 -0.25,-0.20703 -0.5586,-0.3125 -0.92188,-0.3125 -0.42968,0 -0.80858,0.19531 -1.14062,0.57812 -0.44922,0.51172 -0.75782,1.32422 -0.92187,2.4375 -0.15625,1.11719 -0.23439,2.21485 -0.23439,3.29688 z m 9.31642,-5.42188 3.09374,-1.51562 h 0.31251 v 10.75 c 0,0.71094 0.0235,1.15234 0.0781,1.32812 0.0625,0.17969 0.18751,0.3125 0.375,0.40625 0.18751,0.0937 0.56642,0.14844 1.14063,0.15625 v 0.34375 h -4.78125 v -0.34375 c 0.60156,-0.008 0.99218,-0.0625 1.17188,-0.15625 0.17577,-0.0937 0.29686,-0.21093 0.35937,-0.35937 0.0703,-0.15625 0.10933,-0.61328 0.10933,-1.375 v -6.875 c 0,-0.92578 -0.0312,-1.51953 -0.0937,-1.78125 -0.0429,-0.19531 -0.12493,-0.34375 -0.25,-0.4375 -0.1172,-0.0937 -0.25,-0.14063 -0.40625,-0.14063 -0.23047,0 -0.5547,0.10157 -0.96875,0.29688 z m 8.03906,5.1875 c 0,-1.44531 0.21875,-2.6914 0.65624,-3.73437 0.43751,-1.05078 1.01954,-1.83594 1.75,-2.35938 0.56251,-0.40625 1.14454,-0.60937 1.75,-0.60937 0.96876,0 1.84376,0.5 2.625,1.5 0.96876,1.23047 1.45314,2.89844 1.45314,5 0,1.48047 -0.21486,2.73437 -0.64063,3.76562 -0.42969,1.03125 -0.97656,1.78125 -1.64063,2.25 -0.65625,0.46094 -1.28906,0.6875 -1.89062,0.6875 -1.21875,0 -2.23047,-0.71093 -3.03126,-2.14062 -0.68749,-1.20703 -1.03124,-2.66016 -1.03124,-4.35938 z m 1.84375,0.23438 c 0,1.75 0.21093,3.17969 0.64063,4.28125 0.36328,0.9375 0.89453,1.40625 1.59374,1.40625 0.34375,0 0.6914,-0.14844 1.04688,-0.45313 0.36328,-0.3125 0.64062,-0.82031 0.82812,-1.53125 0.28907,-1.07031 0.4375,-2.58593 0.4375,-4.54687 0,-1.44531 -0.15234,-2.65625 -0.45312,-3.625 -0.21875,-0.71875 -0.51172,-1.22656 -0.875,-1.53125 -0.25,-0.20703 -0.55859,-0.3125 -0.92188,-0.3125 -0.42968,0 -0.80859,0.19531 -1.14062,0.57812 -0.44922,0.51172 -0.75781,1.32422 -0.92188,2.4375 -0.15625,1.11719 -0.23437,2.21485 -0.23437,3.29688 z M 58.189936,157.51562 61.283686,156 h 0.3125 v 10.75 c 0,0.71093 0.02344,1.15234 0.07813,1.32812 0.0625,0.17969 0.1875,0.3125 0.375,0.40625 0.1875,0.0937 0.566406,0.14844 1.140625,0.15625 v 0.34375 h -4.78125 v -0.34375 c 0.601562,-0.008 0.992187,-0.0625 1.171875,-0.15625 0.175781,-0.0937 0.296875,-0.21093 0.359375,-0.35937 0.07031,-0.15626 0.109374,-0.61328 0.109374,-1.375 v -6.875 c 0,-0.92579 -0.03125,-1.51954 -0.09375,-1.78126 -0.04297,-0.1953 -0.125,-0.34374 -0.25,-0.43749 -0.117188,-0.0937 -0.25,-0.14063 -0.40625,-0.14063 -0.230469,0 -0.554687,0.1016 -0.96875,0.29687 z m 9.601562,0 L 70.885248,156 h 0.3125 v 10.75 c 0,0.71093 0.02344,1.15234 0.07812,1.32812 0.06249,0.17969 0.1875,0.3125 0.375,0.40625 0.1875,0.0937 0.566407,0.14844 1.140626,0.15625 v 0.34375 h -4.781246 v -0.34375 c 0.601562,-0.008 0.992187,-0.0625 1.171875,-0.15625 0.175781,-0.0937 0.296875,-0.21093 0.359375,-0.35937 0.07031,-0.15626 0.109373,-0.61328 0.109373,-1.375 v -6.875 c 0,-0.92579 -0.03125,-1.51954 -0.09375,-1.78126 -0.04297,-0.1953 -0.125,-0.34374 -0.25,-0.43749 -0.117188,-0.0937 -0.25,-0.14063 -0.40625,-0.14063 -0.230468,0 -0.554687,0.1016 -0.96875,0.29687 z m 9.597656,0 L 80.482904,156 h 0.3125 v 10.75 c 0,0.71093 0.02344,1.15234 0.07812,1.32812 0.06249,0.17969 0.1875,0.3125 0.375,0.40625 0.1875,0.0937 0.566405,0.14844 1.140624,0.15625 v 0.34375 h -4.781249 v -0.34375 c 0.601563,-0.008 0.992187,-0.0625 1.171875,-0.15625 0.175781,-0.0937 0.296874,-0.21093 0.359374,-0.35937 0.07032,-0.15626 0.109374,-0.61328 0.109374,-1.375 v -6.875 c 0,-0.92579 -0.03125,-1.51954 -0.09375,-1.78126 -0.04297,-0.1953 -0.125,-0.34374 -0.25,-0.43749 -0.117187,-0.0937 -0.25,-0.14063 -0.406249,-0.14063 -0.23047,0 -0.554688,0.1016 -0.968751,0.29687 z m 8.039062,5.1875 c 0,-1.44531 0.218751,-2.6914 0.656251,-3.73438 0.4375,-1.05077 1.01953,-1.83593 1.75,-2.35937 0.5625,-0.40625 1.14453,-0.60937 1.75,-0.60937 0.968749,0 1.843749,0.5 2.625,1.5 0.968749,1.23046 1.453124,2.89844 1.453124,5 0,1.48046 -0.214843,2.73437 -0.640624,3.76562 -0.429688,1.03126 -0.976563,1.78126 -1.640626,2.25 -0.65625,0.46094 -1.289062,0.6875 -1.890625,0.6875 -1.218749,0 -2.230468,-0.71094 -3.031249,-2.14063 -0.6875,-1.20703 -1.031251,-2.66015 -1.031251,-4.35937 z m 1.843751,0.23437 c 0,1.75 0.210937,3.17969 0.640624,4.28125 0.363281,0.93751 0.894532,1.40626 1.59375,1.40626 0.34375,0 0.691407,-0.14844 1.046875,-0.45312 0.363281,-0.31251 0.640625,-0.82032 0.828125,-1.53126 0.289063,-1.07032 0.4375,-2.58594 0.4375,-4.54688 0,-1.4453 -0.152344,-2.65625 -0.453125,-3.625 -0.218749,-0.71874 -0.511719,-1.22656 -0.875,-1.53125 -0.25,-0.20703 -0.558593,-0.31249 -0.921875,-0.31249 -0.429688,0 -0.808593,0.1953 -1.140625,0.57812 -0.449219,0.51172 -0.757812,1.32422 -0.921875,2.4375 -0.15625,1.11719 -0.234374,2.21484 -0.234374,3.29687 z m 79.753903,-0.23437 c 0,-1.44531 0.21875,-2.6914 0.65625,-3.73438 0.4375,-1.05077 1.01953,-1.83593 1.75,-2.35937 0.5625,-0.40625 1.14453,-0.60937 1.75,-0.60937 0.96875,0 1.84375,0.5 2.625,1.5 0.96875,1.23046 1.45313,2.89844 1.45313,5 0,1.48046 -0.21485,2.73437 -0.64063,3.76562 -0.42969,1.03126 -0.97656,1.78126 -1.64062,2.25 -0.65625,0.46094 -1.28907,0.6875 -1.89063,0.6875 -1.21875,0 -2.23047,-0.71094 -3.03125,-2.14063 -0.6875,-1.20703 -1.03125,-2.66015 -1.03125,-4.35937 z m 1.84375,0.23437 c 0,1.75 0.21094,3.17969 0.64063,4.28125 0.36328,0.93751 0.89453,1.40626 1.59375,1.40626 0.34375,0 0.6914,-0.14844 1.04687,-0.45312 0.36328,-0.31251 0.64063,-0.82032 0.82813,-1.53126 0.28906,-1.07032 0.4375,-2.58594 0.4375,-4.54688 0,-1.4453 -0.15235,-2.65625 -0.45313,-3.625 -0.21875,-0.71874 -0.51172,-1.22656 -0.875,-1.53125 -0.25,-0.20703 -0.55859,-0.31249 -0.92187,-0.31249 -0.42969,0 -0.8086,0.1953 -1.14063,0.57812 -0.44922,0.51172 -0.75781,1.32422 -0.92187,2.4375 -0.15625,1.11719 -0.23438,2.21484 -0.23438,3.29687 z m 9.32031,-5.42187 L 181.28368,156 h 0.3125 v 10.75 c 0,0.71093 0.0234,1.15234 0.0781,1.32812 0.0625,0.17969 0.1875,0.3125 0.375,0.40625 0.1875,0.0937 0.56641,0.14844 1.14063,0.15625 v 0.34375 h -4.78125 v -0.34375 c 0.60157,-0.008 0.99219,-0.0625 1.17188,-0.15625 0.17578,-0.0937 0.29687,-0.21093 0.35937,-0.35937 0.0703,-0.15626 0.10938,-0.61328 0.10938,-1.375 v -6.875 c 0,-0.92579 -0.0313,-1.51954 -0.0937,-1.78126 -0.043,-0.1953 -0.125,-0.34374 -0.25,-0.43749 -0.11719,-0.0937 -0.25,-0.14063 -0.40625,-0.14063 -0.23047,0 -0.55469,0.1016 -0.96875,0.29687 z m 9.59766,0 L 190.88134,156 h 0.3125 v 10.75 c 0,0.71093 0.0235,1.15234 0.0781,1.32812 0.0625,0.17969 0.1875,0.3125 0.375,0.40625 0.1875,0.0937 0.56641,0.14844 1.14062,0.15625 v 0.34375 h -4.78125 v -0.34375 c 0.60156,-0.008 0.99219,-0.0625 1.17188,-0.15625 0.17577,-0.0937 0.29687,-0.21093 0.35937,-0.35937 0.0703,-0.15626 0.10934,-0.61328 0.10934,-1.375 v -6.875 c 0,-0.92579 -0.0312,-1.51954 -0.0937,-1.78126 -0.0429,-0.1953 -0.12493,-0.34374 -0.25,-0.43749 -0.11718,-0.0937 -0.25,-0.14063 -0.40625,-0.14063 -0.23047,0 -0.55469,0.1016 -0.96875,0.29687 z m 9.60156,0 L 200.4829,156 h 0.3125 v 10.75 c 0,0.71093 0.0235,1.15234 0.0781,1.32812 0.0625,0.17969 0.1875,0.3125 0.375,0.40625 0.1875,0.0937 0.56641,0.14844 1.14062,0.15625 v 0.34375 h -4.78125 v -0.34375 c 0.60157,-0.008 0.99219,-0.0625 1.17188,-0.15625 0.17579,-0.0937 0.29688,-0.21093 0.35937,-0.35937 0.0703,-0.15626 0.10934,-0.61328 0.10934,-1.375 v -6.875 c 0,-0.92579 -0.0312,-1.51954 -0.0937,-1.78126 -0.0429,-0.1953 -0.12493,-0.34374 -0.25,-0.43749 -0.1172,-0.0937 -0.25,-0.14063 -0.40625,-0.14063 -0.23047,0 -0.55468,0.1016 -0.96875,0.29687 z M 310.18993,1.5156266 313.28368,0 h 0.31249 v 10.75 c 0,0.710933 0.0235,1.152346 0.0781,1.32812 0.0625,0.179693 0.18749,0.312506 0.375,0.406253 0.18749,0.09373 0.5664,0.14844 1.14062,0.156253 v 0.343747 h -4.78125 v -0.343747 c 0.60156,-0.008 0.99219,-0.06253 1.17188,-0.156253 0.17577,-0.09373 0.29687,-0.210933 0.35937,-0.359373 0.0703,-0.156254 0.10934,-0.61328 0.10934,-1.375 V 3.8749999 c 0,-0.9257866 -0.0312,-1.5195333 -0.0937,-1.7812533 C 311.9126,1.89844 311.8306,1.75 311.70553,1.6562533 c -0.1172,-0.093733 -0.25,-0.1406267 -0.40625,-0.1406267 -0.23047,0 -0.55469,0.1016 -0.96875,0.2968667 z m 9.60156,0 L 322.88524,0 h 0.31251 v 10.75 c 0,0.710933 0.0235,1.152346 0.0781,1.32812 0.0625,0.179693 0.18751,0.312506 0.375,0.406253 0.18751,0.09373 0.5664,0.14844 1.14063,0.156253 v 0.343747 h -4.78126 v -0.343747 c 0.60156,-0.008 0.99219,-0.06253 1.17188,-0.156253 0.17578,-0.09373 0.29687,-0.210933 0.35938,-0.359373 0.0703,-0.156254 0.10933,-0.61328 0.10933,-1.375 V 3.8749999 c 0,-0.9257866 -0.0312,-1.5195333 -0.0937,-1.7812533 -0.0429,-0.1953066 -0.12494,-0.3437466 -0.25,-0.4374933 -0.1172,-0.093733 -0.25,-0.1406267 -0.40626,-0.1406267 -0.23046,0 -0.55469,0.1016 -0.96874,0.2968667 z m 9.59766,0 L 332.48289,0 h 0.31251 v 10.75 c 0,0.710933 0.0235,1.152346 0.0781,1.32812 0.0625,0.179693 0.18751,0.312506 0.375,0.406253 0.18751,0.09373 0.56642,0.14844 1.14063,0.156253 v 0.343747 h -4.78125 v -0.343747 c 0.60157,-0.008 0.99218,-0.06253 1.17188,-0.156253 0.17578,-0.09373 0.29688,-0.210933 0.35937,-0.359373 0.0703,-0.156254 0.10933,-0.61328 0.10933,-1.375 V 3.8749999 c 0,-0.9257866 -0.0312,-1.5195333 -0.0937,-1.7812533 -0.0429,-0.1953066 -0.12493,-0.3437466 -0.25,-0.4374933 -0.1172,-0.093733 -0.25,-0.1406267 -0.40625,-0.1406267 -0.23047,0 -0.55468,0.1016 -0.96875,0.2968667 z m 9.60156,0 L 342.08447,0 h 0.31249 v 10.75 c 0,0.710933 0.0235,1.152346 0.0781,1.32812 0.0625,0.179693 0.18751,0.312506 0.375,0.406253 0.18751,0.09373 0.56642,0.14844 1.14063,0.156253 v 0.343747 h -4.78124 v -0.343747 c 0.60156,-0.008 0.99219,-0.06253 1.17187,-0.156253 0.17578,-0.09373 0.29688,-0.210933 0.35937,-0.359373 0.0703,-0.156254 0.10933,-0.61328 0.10933,-1.375 V 3.8749999 c 0,-0.9257866 -0.0312,-1.5195333 -0.0937,-1.7812533 -0.0429,-0.1953066 -0.12493,-0.3437466 -0.25,-0.4374933 -0.1172,-0.093733 -0.25,-0.1406267 -0.40625,-0.1406267 -0.23047,0 -0.55468,0.1016 -0.96875,0.2968667 z M 308.62743,504.70311 c 0,-1.44531 0.21874,-2.6914 0.65625,-3.73438 0.43749,-1.05077 1.01953,-1.83593 1.75,-2.35937 0.56249,-0.40625 1.14453,-0.60937 1.75,-0.60937 0.96875,0 1.84375,0.5 2.625,1.5 0.96875,1.23046 1.45312,2.89844 1.45312,5 0,1.48046 -0.21484,2.73437 -0.64063,3.76562 -0.42968,1.03126 -0.97656,1.78126 -1.64061,2.25 -0.65625,0.46094 -1.28907,0.6875 -1.89063,0.6875 -1.21876,0 -2.23046,-0.71094 -3.03125,-2.14063 -0.68751,-1.20703 -1.03125,-2.66015 -1.03125,-4.35937 z m 1.84374,0.23437 c 0,1.75 0.21095,3.17969 0.64063,4.28125 0.36328,0.93751 0.89453,1.40626 1.59376,1.40626 0.34375,0 0.6914,-0.14844 1.04687,-0.45312 0.36328,-0.31251 0.64062,-0.82032 0.82813,-1.53126 0.28905,-1.07032 0.43749,-2.58594 0.43749,-4.54688 0,-1.4453 -0.15234,-2.65625 -0.45312,-3.625 -0.21876,-0.71874 -0.51172,-1.22656 -0.875,-1.53125 -0.25,-0.20703 -0.5586,-0.31249 -0.92188,-0.31249 -0.42968,0 -0.80858,0.1953 -1.14062,0.57812 -0.44922,0.51172 -0.75782,1.32422 -0.92187,2.4375 -0.15625,1.11719 -0.23439,2.21484 -0.23439,3.29687 z m 7.75782,-0.23437 c 0,-1.44531 0.21876,-2.6914 0.65625,-3.73438 0.43751,-1.05077 1.01953,-1.83593 1.75,-2.35937 0.56251,-0.40625 1.14453,-0.60937 1.75,-0.60937 0.96875,0 1.84375,0.5 2.625,1.5 0.96875,1.23046 1.45313,2.89844 1.45313,5 0,1.48046 -0.21485,2.73437 -0.64062,3.76562 -0.4297,1.03126 -0.97658,1.78126 -1.64063,2.25 -0.65625,0.46094 -1.28907,0.6875 -1.89063,0.6875 -1.21874,0 -2.23046,-0.71094 -3.03125,-2.14063 -0.68749,-1.20703 -1.03125,-2.66015 -1.03125,-4.35937 z m 1.84376,0.23437 c 0,1.75 0.21093,3.17969 0.64062,4.28125 0.36328,0.93751 0.89452,1.40626 1.59375,1.40626 0.34375,0 0.6914,-0.14844 1.04687,-0.45312 0.36328,-0.31251 0.64062,-0.82032 0.82813,-1.53126 0.28905,-1.07032 0.43749,-2.58594 0.43749,-4.54688 0,-1.4453 -0.15234,-2.65625 -0.45312,-3.625 -0.21874,-0.71874 -0.51172,-1.22656 -0.875,-1.53125 -0.25,-0.20703 -0.5586,-0.31249 -0.92188,-0.31249 -0.42968,0 -0.80858,0.1953 -1.14062,0.57812 -0.44922,0.51172 -0.75782,1.32422 -0.92187,2.4375 -0.15625,1.11719 -0.23437,2.21484 -0.23437,3.29687 z m 7.7539,-0.23437 c 0,-1.44531 0.21875,-2.6914 0.65624,-3.73438 0.43751,-1.05077 1.01954,-1.83593 1.75,-2.35937 0.56251,-0.40625 1.14454,-0.60937 1.75,-0.60937 0.96876,0 1.84376,0.5 2.625,1.5 0.96876,1.23046 1.45314,2.89844 1.45314,5 0,1.48046 -0.21486,2.73437 -0.64063,3.76562 -0.42969,1.03126 -0.97656,1.78126 -1.64063,2.25 -0.65625,0.46094 -1.28906,0.6875 -1.89062,0.6875 -1.21875,0 -2.23047,-0.71094 -3.03126,-2.14063 -0.68749,-1.20703 -1.03124,-2.66015 -1.03124,-4.35937 z m 1.84375,0.23437 c 0,1.75 0.21093,3.17969 0.64063,4.28125 0.36328,0.93751 0.89453,1.40626 1.59374,1.40626 0.34375,0 0.6914,-0.14844 1.04688,-0.45312 0.36328,-0.31251 0.64062,-0.82032 0.82812,-1.53126 0.28907,-1.07032 0.4375,-2.58594 0.4375,-4.54688 0,-1.4453 -0.15234,-2.65625 -0.45312,-3.625 -0.21875,-0.71874 -0.51172,-1.22656 -0.875,-1.53125 -0.25,-0.20703 -0.55859,-0.31249 -0.92188,-0.31249 -0.42968,0 -0.80859,0.1953 -1.14062,0.57812 -0.44922,0.51172 -0.75781,1.32422 -0.92188,2.4375 -0.15625,1.11719 -0.23437,2.21484 -0.23437,3.29687 z m 7.75781,-0.23437 c 0,-1.44531 0.21875,-2.6914 0.65626,-3.73438 0.43749,-1.05077 1.01952,-1.83593 1.75,-2.35937 0.56249,-0.40625 1.14452,-0.60937 1.75,-0.60937 0.96874,0 1.84374,0.5 2.625,1.5 0.96874,1.23046 1.45312,2.89844 1.45312,5 0,1.48046 -0.21484,2.73437 -0.64063,3.76562 -0.42969,1.03126 -0.97656,1.78126 -1.64063,2.25 -0.65625,0.46094 -1.28906,0.6875 -1.89062,0.6875 -1.21875,0 -2.23047,-0.71094 -3.03124,-2.14063 -0.68751,-1.20703 -1.03126,-2.66015 -1.03126,-4.35937 z m 1.84375,0.23437 c 0,1.75 0.21093,3.17969 0.64063,4.28125 0.36328,0.93751 0.89453,1.40626 1.59374,1.40626 0.34375,0 0.69142,-0.14844 1.04688,-0.45312 0.36328,-0.31251 0.64063,-0.82032 0.82812,-1.53126 0.28907,-1.07032 0.43751,-2.58594 0.43751,-4.54688 0,-1.4453 -0.15235,-2.65625 -0.45313,-3.625 -0.21875,-0.71874 -0.51172,-1.22656 -0.875,-1.53125 -0.25,-0.20703 -0.55859,-0.31249 -0.92187,-0.31249 -0.42969,0 -0.8086,0.1953 -1.14063,0.57812 -0.44922,0.51172 -0.75781,1.32422 -0.92188,2.4375 -0.15625,1.11719 -0.23437,2.21484 -0.23437,3.29687 z M 167.02587,342.70311 c 0,-1.44531 0.21875,-2.6914 0.65625,-3.73437 0.4375,-1.05078 1.01953,-1.83594 1.75,-2.35938 0.5625,-0.40625 1.14453,-0.60937 1.75,-0.60937 0.96875,0 1.84375,0.5 2.625,1.5 0.96875,1.23047 1.45313,2.89844 1.45313,5 0,1.48047 -0.21485,2.73437 -0.64063,3.76562 -0.42969,1.03125 -0.97656,1.78125 -1.64062,2.25 -0.65625,0.46094 -1.28907,0.6875 -1.89063,0.6875 -1.21875,0 -2.23047,-0.71093 -3.03125,-2.14062 -0.6875,-1.20703 -1.03125,-2.66016 -1.03125,-4.35938 z m 1.84375,0.23438 c 0,1.75 0.21094,3.17969 0.64063,4.28125 0.36328,0.9375 0.89453,1.40625 1.59375,1.40625 0.34375,0 0.6914,-0.14844 1.04687,-0.45313 0.36328,-0.3125 0.64063,-0.82031 0.82813,-1.53125 0.28906,-1.07031 0.4375,-2.58593 0.4375,-4.54687 0,-1.44531 -0.15235,-2.65625 -0.45313,-3.625 -0.21875,-0.71875 -0.51172,-1.22656 -0.875,-1.53125 -0.25,-0.20703 -0.55859,-0.3125 -0.92187,-0.3125 -0.42969,0 -0.8086,0.19531 -1.14063,0.57812 -0.44922,0.51172 -0.75781,1.32422 -0.92187,2.4375 -0.15625,1.11719 -0.23438,2.21485 -0.23438,3.29688 z m 9.31641,-5.42188 3.09375,-1.51562 h 0.3125 v 10.75 c 0,0.71094 0.0234,1.15234 0.0781,1.32812 0.0625,0.17969 0.1875,0.3125 0.375,0.40625 0.1875,0.0937 0.5664,0.14844 1.14062,0.15625 v 0.34375 h -4.78124 v -0.34375 c 0.60156,-0.008 0.99218,-0.0625 1.17187,-0.15625 0.17578,-0.0937 0.29688,-0.21093 0.35938,-0.35937 0.0703,-0.15625 0.10937,-0.61328 0.10937,-1.375 v -6.875 c 0,-0.92578 -0.0312,-1.51953 -0.0937,-1.78125 -0.043,-0.19531 -0.125,-0.34375 -0.25,-0.4375 -0.11718,-0.0937 -0.25,-0.14063 -0.40625,-0.14063 -0.23047,0 -0.55468,0.10157 -0.96875,0.29688 z m 8.03906,5.1875 c 0,-1.44531 0.21875,-2.6914 0.65625,-3.73437 0.4375,-1.05078 1.01953,-1.83594 1.75,-2.35938 0.5625,-0.40625 1.14453,-0.60937 1.75,-0.60937 0.96874,0 1.84374,0.5 2.625,1.5 0.96874,1.23047 1.45313,2.89844 1.45313,5 0,1.48047 -0.21485,2.73437 -0.64063,3.76562 -0.42969,1.03125 -0.97657,1.78125 -1.64062,2.25 -0.65626,0.46094 -1.28907,0.6875 -1.89063,0.6875 -1.21875,0 -2.23047,-0.71093 -3.03125,-2.14062 -0.6875,-1.20703 -1.03125,-2.66016 -1.03125,-4.35938 z m 1.84375,0.23438 c 0,1.75 0.21094,3.17969 0.64062,4.28125 0.36329,0.9375 0.89453,1.40625 1.59376,1.40625 0.34374,0 0.6914,-0.14844 1.04686,-0.45313 0.3633,-0.3125 0.64063,-0.82031 0.82814,-1.53125 0.28905,-1.07031 0.43749,-2.58593 0.43749,-4.54687 0,-1.44531 -0.15233,-2.65625 -0.45312,-3.625 -0.21875,-0.71875 -0.51172,-1.22656 -0.875,-1.53125 -0.25,-0.20703 -0.5586,-0.3125 -0.92188,-0.3125 -0.42968,0 -0.80859,0.19531 -1.14062,0.57812 -0.44922,0.51172 -0.75781,1.32422 -0.92188,2.4375 -0.15625,1.11719 -0.23437,2.21485 -0.23437,3.29688 z m 7.75782,-0.23438 c 0,-1.44531 0.21874,-2.6914 0.65624,-3.73437 0.4375,-1.05078 1.01953,-1.83594 1.75,-2.35938 0.5625,-0.40625 1.14453,-0.60937 1.75,-0.60937 0.96876,0 1.84376,0.5 2.625,1.5 0.96876,1.23047 1.45313,2.89844 1.45313,5 0,1.48047 -0.21485,2.73437 -0.64063,3.76562 -0.42969,1.03125 -0.97656,1.78125 -1.64062,2.25 -0.65626,0.46094 -1.28907,0.6875 -1.89063,0.6875 -1.21875,0 -2.23047,-0.71093 -3.03125,-2.14062 -0.6875,-1.20703 -1.03124,-2.66016 -1.03124,-4.35938 z m 1.84374,0.23438 c 0,1.75 0.21094,3.17969 0.64063,4.28125 0.36328,0.9375 0.89453,1.40625 1.59375,1.40625 0.34374,0 0.6914,-0.14844 1.04688,-0.45313 0.36328,-0.3125 0.64061,-0.82031 0.82812,-1.53125 0.28906,-1.07031 0.43749,-2.58593 0.43749,-4.54687 0,-1.44531 -0.15233,-2.65625 -0.45312,-3.625 -0.21875,-0.71875 -0.51172,-1.22656 -0.875,-1.53125 -0.25,-0.20703 -0.55859,-0.3125 -0.92188,-0.3125 -0.42968,0 -0.80859,0.19531 -1.14061,0.57812 -0.44923,0.51172 -0.75782,1.32422 -0.92188,2.4375 -0.15626,1.11719 -0.23438,2.21485 -0.23438,3.29688 z m -30.64453,-90.23437 c 0,-1.44532 0.21875,-2.69141 0.65625,-3.73438 0.4375,-1.05078 1.01953,-1.83594 1.75,-2.35937 0.5625,-0.40625 1.14453,-0.60938 1.75,-0.60938 0.96875,0 1.84375,0.5 2.625,1.5 0.96875,1.23047 1.45313,2.89844 1.45313,5 0,1.48047 -0.21485,2.73438 -0.64063,3.76563 -0.42969,1.03125 -0.97656,1.78125 -1.64062,2.25 -0.65625,0.46093 -1.28907,0.6875 -1.89063,0.6875 -1.21875,0 -2.23047,-0.71094 -3.03125,-2.14063 -0.6875,-1.20703 -1.03125,-2.66015 -1.03125,-4.35937 z m 1.84375,0.23437 c 0,1.75 0.21094,3.17969 0.64063,4.28125 0.36328,0.9375 0.89453,1.40625 1.59375,1.40625 0.34375,0 0.6914,-0.14844 1.04687,-0.45312 0.36328,-0.3125 0.64063,-0.82032 0.82813,-1.53125 0.28906,-1.07032 0.4375,-2.58594 0.4375,-4.54688 0,-1.44531 -0.15235,-2.65625 -0.45313,-3.625 -0.21875,-0.71875 -0.51172,-1.22656 -0.875,-1.53125 -0.25,-0.20703 -0.55859,-0.3125 -0.92187,-0.3125 -0.42969,0 -0.8086,0.19531 -1.14063,0.57813 -0.44922,0.51172 -0.75781,1.32422 -0.92187,2.4375 -0.15625,1.11718 -0.23438,2.21484 -0.23438,3.29687 z m 9.31641,-5.42187 3.09375,-1.51563 h 0.3125 v 10.75 c 0,0.71094 0.0234,1.15235 0.0781,1.32813 0.0625,0.17968 0.1875,0.3125 0.375,0.40625 0.1875,0.0937 0.5664,0.14843 1.14062,0.15625 v 0.34375 h -4.78124 v -0.34375 c 0.60156,-0.008 0.99218,-0.0625 1.17187,-0.15625 0.17578,-0.0937 0.29688,-0.21094 0.35938,-0.35938 0.0703,-0.15625 0.10937,-0.61328 0.10937,-1.375 v -6.875 c 0,-0.92578 -0.0312,-1.51953 -0.0937,-1.78125 -0.043,-0.19531 -0.125,-0.34375 -0.25,-0.4375 -0.11718,-0.0937 -0.25,-0.14062 -0.40625,-0.14062 -0.23047,0 -0.55468,0.10156 -0.96875,0.29687 z m 9.60156,0 3.09375,-1.51563 h 0.3125 v 10.75 c 0,0.71094 0.0235,1.15235 0.0781,1.32813 0.0625,0.17968 0.1875,0.3125 0.375,0.40625 0.1875,0.0937 0.56641,0.14843 1.14062,0.15625 v 0.34375 h -4.78125 v -0.34375 c 0.60156,-0.008 0.99219,-0.0625 1.17188,-0.15625 0.17577,-0.0937 0.29687,-0.21094 0.35937,-0.35938 0.0703,-0.15625 0.10934,-0.61328 0.10934,-1.375 v -6.875 c 0,-0.92578 -0.0312,-1.51953 -0.0937,-1.78125 -0.0429,-0.19531 -0.12493,-0.34375 -0.25,-0.4375 -0.11718,-0.0937 -0.25,-0.14062 -0.40625,-0.14062 -0.23047,0 -0.55469,0.10156 -0.96875,0.29687 z m 8.03907,5.1875 c 0,-1.44532 0.21874,-2.69141 0.65624,-3.73438 0.4375,-1.05078 1.01953,-1.83594 1.75,-2.35937 0.5625,-0.40625 1.14453,-0.60938 1.75,-0.60938 0.96876,0 1.84376,0.5 2.625,1.5 0.96876,1.23047 1.45313,2.89844 1.45313,5 0,1.48047 -0.21485,2.73438 -0.64063,3.76563 -0.42969,1.03125 -0.97656,1.78125 -1.64062,2.25 -0.65626,0.46093 -1.28907,0.6875 -1.89063,0.6875 -1.21875,0 -2.23047,-0.71094 -3.03125,-2.14063 -0.6875,-1.20703 -1.03124,-2.66015 -1.03124,-4.35937 z m 1.84374,0.23437 c 0,1.75 0.21094,3.17969 0.64063,4.28125 0.36328,0.9375 0.89453,1.40625 1.59375,1.40625 0.34374,0 0.6914,-0.14844 1.04688,-0.45312 0.36328,-0.3125 0.64061,-0.82032 0.82812,-1.53125 0.28906,-1.07032 0.43749,-2.58594 0.43749,-4.54688 0,-1.44531 -0.15233,-2.65625 -0.45312,-3.625 -0.21875,-0.71875 -0.51172,-1.22656 -0.875,-1.53125 -0.25,-0.20703 -0.55859,-0.3125 -0.92188,-0.3125 -0.42968,0 -0.80859,0.19531 -1.14061,0.57813 -0.44923,0.51172 -0.75782,1.32422 -0.92188,2.4375 -0.15626,1.11718 -0.23438,2.21484 -0.23438,3.29687 z M 312.58837,157.51562 315.68212,156 h 0.31249 v 10.75 c 0,0.71093 0.0235,1.15234 0.0781,1.32812 0.0625,0.17969 0.18749,0.3125 0.375,0.40625 0.18749,0.0937 0.5664,0.14844 1.14062,0.15625 v 0.34375 h -4.78125 v -0.34375 c 0.60156,-0.008 0.99219,-0.0625 1.17187,-0.15625 0.17578,-0.0937 0.29688,-0.21093 0.35938,-0.35937 0.0703,-0.15626 0.10934,-0.61328 0.10934,-1.375 v -6.875 c 0,-0.92579 -0.0312,-1.51954 -0.0937,-1.78126 -0.0429,-0.1953 -0.12493,-0.34374 -0.25,-0.43749 -0.1172,-0.0937 -0.25,-0.14063 -0.40624,-0.14063 -0.23048,0 -0.55469,0.1016 -0.96876,0.29687 z m 8.03515,5.1875 c 0,-1.44531 0.21875,-2.6914 0.65625,-3.73438 0.4375,-1.05077 1.01954,-1.83593 1.75,-2.35937 0.5625,-0.40625 1.14454,-0.60937 1.75,-0.60937 0.96875,0 1.84375,0.5 2.625,1.5 0.96875,1.23046 1.45312,2.89844 1.45312,5 0,1.48046 -0.21484,2.73437 -0.64062,3.76562 -0.42968,1.03126 -0.97656,1.78126 -1.64062,2.25 -0.65625,0.46094 -1.28906,0.6875 -1.89062,0.6875 -1.21876,0 -2.23047,-0.71094 -3.03126,-2.14063 -0.6875,-1.20703 -1.03125,-2.66015 -1.03125,-4.35937 z m 1.84375,0.23437 c 0,1.75 0.21094,3.17969 0.64062,4.28125 0.36328,0.93751 0.89454,1.40626 1.59376,1.40626 0.34375,0 0.6914,-0.14844 1.04687,-0.45312 0.36328,-0.31251 0.64063,-0.82032 0.82813,-1.53126 0.28906,-1.07032 0.4375,-2.58594 0.4375,-4.54688 0,-1.4453 -0.15235,-2.65625 -0.45312,-3.625 -0.21876,-0.71874 -0.51172,-1.22656 -0.875,-1.53125 -0.25,-0.20703 -0.5586,-0.31249 -0.92188,-0.31249 -0.42968,0 -0.80859,0.1953 -1.14063,0.57812 -0.44921,0.51172 -0.75781,1.32422 -0.92187,2.4375 -0.15625,1.11719 -0.23438,2.21484 -0.23438,3.29687 z m 9.32032,-5.42187 L 334.88133,156 h 0.31251 v 10.75 c 0,0.71093 0.0235,1.15234 0.0781,1.32812 0.0625,0.17969 0.18751,0.3125 0.375,0.40625 0.18751,0.0937 0.56642,0.14844 1.14063,0.15625 v 0.34375 h -4.78125 v -0.34375 c 0.60156,-0.008 0.99218,-0.0625 1.17188,-0.15625 0.17577,-0.0937 0.29686,-0.21093 0.35937,-0.35937 0.0703,-0.15626 0.10933,-0.61328 0.10933,-1.375 v -6.875 c 0,-0.92579 -0.0312,-1.51954 -0.0937,-1.78126 -0.0429,-0.1953 -0.12493,-0.34374 -0.25,-0.43749 -0.1172,-0.0937 -0.25,-0.14063 -0.40625,-0.14063 -0.23047,0 -0.5547,0.1016 -0.96875,0.29687 z m 9.60156,0 L 344.48289,156 h 0.31251 v 10.75 c 0,0.71093 0.0235,1.15234 0.0781,1.32812 0.0625,0.17969 0.18751,0.3125 0.375,0.40625 0.18751,0.0937 0.56642,0.14844 1.14063,0.15625 v 0.34375 h -4.78125 v -0.34375 c 0.60157,-0.008 0.99218,-0.0625 1.17188,-0.15625 0.17578,-0.0937 0.29688,-0.21093 0.35937,-0.35937 0.0703,-0.15626 0.10933,-0.61328 0.10933,-1.375 v -6.875 c 0,-0.92579 -0.0312,-1.51954 -0.0937,-1.78126 -0.0429,-0.1953 -0.12493,-0.34374 -0.25,-0.43749 -0.1172,-0.0937 -0.25,-0.14063 -0.40625,-0.14063 -0.23047,0 -0.55468,0.1016 -0.96875,0.29687 z m 163.19922,0 L 507.68211,156 h 0.3125 v 10.75 c 0,0.71093 0.0235,1.15234 0.0781,1.32812 0.0625,0.17969 0.18749,0.3125 0.375,0.40625 0.18749,0.0937 0.5664,0.14844 1.14063,0.15625 v 0.34375 h -4.78126 v -0.34375 c 0.60156,-0.008 0.99219,-0.0625 1.17187,-0.15625 0.17579,-0.0937 0.29688,-0.21093 0.35939,-0.35937 0.0703,-0.15626 0.10933,-0.61328 0.10933,-1.375 v -6.875 c 0,-0.92579 -0.0312,-1.51954 -0.0937,-1.78126 -0.0429,-0.1953 -0.12494,-0.34374 -0.25,-0.43749 -0.1172,-0.0937 -0.25,-0.14063 -0.40624,-0.14063 -0.23047,0 -0.5547,0.1016 -0.96876,0.29687 z m 9.59765,0 L 517.27977,156 h 0.3125 v 10.75 c 0,0.71093 0.0235,1.15234 0.0781,1.32812 0.0625,0.17969 0.18749,0.3125 0.375,0.40625 0.18749,0.0937 0.5664,0.14844 1.14062,0.15625 v 0.34375 h -4.78125 v -0.34375 c 0.60156,-0.008 0.99219,-0.0625 1.17188,-0.15625 0.17577,-0.0937 0.29687,-0.21093 0.35937,-0.35937 0.0703,-0.15626 0.10934,-0.61328 0.10934,-1.375 v -6.875 c 0,-0.92579 -0.0312,-1.51954 -0.0937,-1.78126 -0.0429,-0.1953 -0.12493,-0.34374 -0.25,-0.43749 -0.1172,-0.0937 -0.25,-0.14063 -0.40625,-0.14063 -0.23047,0 -0.55469,0.1016 -0.96875,0.29687 z m 8.03905,5.1875 c 0,-1.44531 0.21876,-2.6914 0.65626,-3.73438 0.4375,-1.05077 1.01953,-1.83593 1.75,-2.35937 0.5625,-0.40625 1.14453,-0.60937 1.75,-0.60937 0.96874,0 1.84374,0.5 2.625,1.5 0.96874,1.23046 1.45313,2.89844 1.45313,5 0,1.48046 -0.21485,2.73437 -0.64063,3.76562 -0.42969,1.03126 -0.97656,1.78126 -1.64062,2.25 -0.65626,0.46094 -1.28907,0.6875 -1.89063,0.6875 -1.21875,0 -2.23047,-0.71094 -3.03125,-2.14063 -0.6875,-1.20703 -1.03126,-2.66015 -1.03126,-4.35937 z m 1.84376,0.23437 c 0,1.75 0.21094,3.17969 0.64063,4.28125 0.36328,0.93751 0.89452,1.40626 1.59375,1.40626 0.34374,0 0.6914,-0.14844 1.04686,-0.45312 0.3633,-0.31251 0.64063,-0.82032 0.82814,-1.53126 0.28906,-1.07032 0.43749,-2.58594 0.43749,-4.54688 0,-1.4453 -0.15233,-2.65625 -0.45312,-3.625 -0.21875,-0.71874 -0.51172,-1.22656 -0.875,-1.53125 -0.25,-0.20703 -0.5586,-0.31249 -0.92188,-0.31249 -0.42968,0 -0.80859,0.1953 -1.14063,0.57812 -0.44921,0.51172 -0.7578,1.32422 -0.92186,2.4375 -0.15626,1.11719 -0.23438,2.21484 -0.23438,3.29687 z m 9.32031,-5.42187 L 536.48289,156 h 0.3125 v 10.75 c 0,0.71093 0.0235,1.15234 0.0781,1.32812 0.0625,0.17969 0.1875,0.3125 0.375,0.40625 0.1875,0.0937 0.56641,0.14844 1.14062,0.15625 v 0.34375 h -4.78125 v -0.34375 c 0.60157,-0.008 0.99219,-0.0625 1.17188,-0.15625 0.17579,-0.0937 0.29688,-0.21093 0.35937,-0.35937 0.0703,-0.15626 0.10934,-0.61328 0.10934,-1.375 v -6.875 c 0,-0.92579 -0.0312,-1.51954 -0.0937,-1.78126 -0.0429,-0.1953 -0.12493,-0.34374 -0.25,-0.43749 -0.1172,-0.0937 -0.25,-0.14063 -0.40625,-0.14063 -0.23047,0 -0.55468,0.1016 -0.96875,0.29687 z m -30.36328,185.18749 c 0,-1.44531 0.21875,-2.6914 0.65625,-3.73437 0.4375,-1.05078 1.01954,-1.83594 1.75,-2.35938 0.5625,-0.40625 1.14454,-0.60937 1.75,-0.60937 0.96875,0 1.84375,0.5 2.625,1.5 0.96875,1.23047 1.45312,2.89844 1.45312,5 0,1.48047 -0.21484,2.73437 -0.64062,3.76562 -0.42968,1.03125 -0.97656,1.78125 -1.64063,2.25 -0.65624,0.46094 -1.28905,0.6875 -1.89061,0.6875 -1.21876,0 -2.23048,-0.71093 -3.03126,-2.14062 -0.6875,-1.20703 -1.03125,-2.66016 -1.03125,-4.35938 z m 1.84375,0.23438 c 0,1.75 0.21094,3.17969 0.64062,4.28125 0.36328,0.9375 0.89454,1.40625 1.59375,1.40625 0.34376,0 0.69141,-0.14844 1.04688,-0.45313 0.36328,-0.3125 0.64063,-0.82031 0.82812,-1.53125 0.28907,-1.07031 0.43751,-2.58593 0.43751,-4.54687 0,-1.44531 -0.15235,-2.65625 -0.45312,-3.625 -0.21876,-0.71875 -0.51172,-1.22656 -0.875,-1.53125 -0.25,-0.20703 -0.5586,-0.3125 -0.92188,-0.3125 -0.4297,0 -0.8086,0.19531 -1.14063,0.57812 -0.44921,0.51172 -0.75781,1.32422 -0.92188,2.4375 -0.15624,1.11719 -0.23437,2.21485 -0.23437,3.29688 z m 7.7539,-0.23438 c 0,-1.44531 0.21876,-2.6914 0.65626,-3.73437 0.4375,-1.05078 1.01953,-1.83594 1.75,-2.35938 0.5625,-0.40625 1.14453,-0.60937 1.75,-0.60937 0.96874,0 1.84374,0.5 2.625,1.5 0.96874,1.23047 1.45312,2.89844 1.45312,5 0,1.48047 -0.21484,2.73437 -0.64062,3.76562 -0.42969,1.03125 -0.97657,1.78125 -1.64062,2.25 -0.65626,0.46094 -1.28907,0.6875 -1.89063,0.6875 -1.21875,0 -2.23047,-0.71093 -3.03125,-2.14062 -0.6875,-1.20703 -1.03126,-2.66016 -1.03126,-4.35938 z m 1.84376,0.23438 c 0,1.75 0.21094,3.17969 0.64062,4.28125 0.36328,0.9375 0.89453,1.40625 1.59376,1.40625 0.34374,0 0.6914,-0.14844 1.04686,-0.45313 0.36328,-0.3125 0.64063,-0.82031 0.82814,-1.53125 0.28905,-1.07031 0.43749,-2.58593 0.43749,-4.54687 0,-1.44531 -0.15235,-2.65625 -0.45312,-3.625 -0.21875,-0.71875 -0.51172,-1.22656 -0.875,-1.53125 -0.25,-0.20703 -0.5586,-0.3125 -0.92188,-0.3125 -0.42968,0 -0.80859,0.19531 -1.14063,0.57812 -0.44921,0.51172 -0.75781,1.32422 -0.92186,2.4375 -0.15626,1.11719 -0.23438,2.21485 -0.23438,3.29688 z m 7.7578,-0.23438 c 0,-1.44531 0.21876,-2.6914 0.65626,-3.73437 0.4375,-1.05078 1.01953,-1.83594 1.75,-2.35938 0.5625,-0.40625 1.14453,-0.60937 1.75,-0.60937 0.96874,0 1.84374,0.5 2.625,1.5 0.96874,1.23047 1.45313,2.89844 1.45313,5 0,1.48047 -0.21485,2.73437 -0.64063,3.76562 -0.42969,1.03125 -0.97656,1.78125 -1.64062,2.25 -0.65626,0.46094 -1.28907,0.6875 -1.89063,0.6875 -1.21875,0 -2.23047,-0.71093 -3.03125,-2.14062 -0.6875,-1.20703 -1.03126,-2.66016 -1.03126,-4.35938 z m 1.84376,0.23438 c 0,1.75 0.21094,3.17969 0.64063,4.28125 0.36328,0.9375 0.89452,1.40625 1.59375,1.40625 0.34374,0 0.6914,-0.14844 1.04686,-0.45313 0.3633,-0.3125 0.64063,-0.82031 0.82814,-1.53125 0.28906,-1.07031 0.43749,-2.58593 0.43749,-4.54687 0,-1.44531 -0.15233,-2.65625 -0.45312,-3.625 -0.21875,-0.71875 -0.51172,-1.22656 -0.875,-1.53125 -0.25,-0.20703 -0.5586,-0.3125 -0.92188,-0.3125 -0.42968,0 -0.80859,0.19531 -1.14063,0.57812 -0.44921,0.51172 -0.7578,1.32422 -0.92186,2.4375 -0.15626,1.11719 -0.23438,2.21485 -0.23438,3.29688 z m 9.32031,-5.42188 3.09375,-1.51562 h 0.3125 v 10.75 c 0,0.71094 0.0235,1.15234 0.0781,1.32812 0.0625,0.17969 0.1875,0.3125 0.375,0.40625 0.1875,0.0937 0.56641,0.14844 1.14062,0.15625 v 0.34375 h -4.78125 v -0.34375 c 0.60157,-0.008 0.99219,-0.0625 1.17188,-0.15625 0.17579,-0.0937 0.29688,-0.21093 0.35937,-0.35937 0.0703,-0.15625 0.10934,-0.61328 0.10934,-1.375 v -6.875 c 0,-0.92578 -0.0312,-1.51953 -0.0937,-1.78125 -0.0429,-0.19531 -0.12493,-0.34375 -0.25,-0.4375 -0.1172,-0.0937 -0.25,-0.14063 -0.40625,-0.14063 -0.23047,0 -0.55468,0.10157 -0.96875,0.29688 z m 17.63672,-84.81249 c 0,-1.44532 0.21875,-2.69141 0.65625,-3.73438 0.4375,-1.05078 1.01954,-1.83594 1.75,-2.35937 0.5625,-0.40625 1.14454,-0.60938 1.75,-0.60938 0.96875,0 1.84375,0.5 2.625,1.5 0.96875,1.23047 1.45312,2.89844 1.45312,5 0,1.48047 -0.21484,2.73438 -0.64062,3.76563 -0.42968,1.03125 -0.97656,1.78125 -1.64063,2.25 -0.65624,0.46093 -1.28905,0.6875 -1.89061,0.6875 -1.21876,0 -2.23048,-0.71094 -3.03126,-2.14063 -0.6875,-1.20703 -1.03125,-2.66015 -1.03125,-4.35937 z m 1.84375,0.23437 c 0,1.75 0.21094,3.17969 0.64062,4.28125 0.36328,0.9375 0.89454,1.40625 1.59375,1.40625 0.34376,0 0.69141,-0.14844 1.04688,-0.45312 0.36328,-0.3125 0.64063,-0.82032 0.82812,-1.53125 0.28907,-1.07032 0.43751,-2.58594 0.43751,-4.54688 0,-1.44531 -0.15235,-2.65625 -0.45312,-3.625 -0.21876,-0.71875 -0.51172,-1.22656 -0.875,-1.53125 -0.25,-0.20703 -0.5586,-0.3125 -0.92188,-0.3125 -0.4297,0 -0.8086,0.19531 -1.14063,0.57813 -0.44921,0.51172 -0.75781,1.32422 -0.92188,2.4375 -0.15624,1.11718 -0.23437,2.21484 -0.23437,3.29687 z m 9.31641,-5.42187 3.09375,-1.51563 h 0.3125 v 10.75 c 0,0.71094 0.0235,1.15235 0.0781,1.32813 0.0625,0.17968 0.18749,0.3125 0.375,0.40625 0.18749,0.0937 0.5664,0.14843 1.14062,0.15625 v 0.34375 h -4.78125 v -0.34375 c 0.60156,-0.008 0.99219,-0.0625 1.17188,-0.15625 0.17577,-0.0937 0.29687,-0.21094 0.35937,-0.35938 0.0703,-0.15625 0.10934,-0.61328 0.10934,-1.375 v -6.875 c 0,-0.92578 -0.0312,-1.51953 -0.0937,-1.78125 -0.0429,-0.19531 -0.12493,-0.34375 -0.25,-0.4375 -0.1172,-0.0937 -0.25,-0.14062 -0.40625,-0.14062 -0.23047,0 -0.55469,0.10156 -0.96875,0.29687 z m 8.03905,5.1875 c 0,-1.44532 0.21876,-2.69141 0.65626,-3.73438 0.4375,-1.05078 1.01953,-1.83594 1.75,-2.35937 0.5625,-0.40625 1.14453,-0.60938 1.75,-0.60938 0.96874,0 1.84374,0.5 2.625,1.5 0.96874,1.23047 1.45313,2.89844 1.45313,5 0,1.48047 -0.21485,2.73438 -0.64063,3.76563 -0.42969,1.03125 -0.97656,1.78125 -1.64062,2.25 -0.65626,0.46093 -1.28907,0.6875 -1.89063,0.6875 -1.21875,0 -2.23047,-0.71094 -3.03125,-2.14063 -0.6875,-1.20703 -1.03126,-2.66015 -1.03126,-4.35937 z m 1.84376,0.23437 c 0,1.75 0.21094,3.17969 0.64063,4.28125 0.36328,0.9375 0.89452,1.40625 1.59375,1.40625 0.34374,0 0.6914,-0.14844 1.04686,-0.45312 0.3633,-0.3125 0.64063,-0.82032 0.82814,-1.53125 0.28906,-1.07032 0.43749,-2.58594 0.43749,-4.54688 0,-1.44531 -0.15233,-2.65625 -0.45312,-3.625 -0.21875,-0.71875 -0.51172,-1.22656 -0.875,-1.53125 -0.25,-0.20703 -0.5586,-0.3125 -0.92188,-0.3125 -0.42968,0 -0.80859,0.19531 -1.14063,0.57813 -0.44921,0.51172 -0.7578,1.32422 -0.92186,2.4375 -0.15626,1.11718 -0.23438,2.21484 -0.23438,3.29687 z m 9.32031,-5.42187 3.09375,-1.51563 h 0.3125 v 10.75 c 0,0.71094 0.0235,1.15235 0.0781,1.32813 0.0625,0.17968 0.1875,0.3125 0.375,0.40625 0.1875,0.0937 0.56641,0.14843 1.14062,0.15625 v 0.34375 h -4.78125 v -0.34375 c 0.60157,-0.008 0.99219,-0.0625 1.17188,-0.15625 0.17579,-0.0937 0.29688,-0.21094 0.35937,-0.35938 0.0703,-0.15625 0.10934,-0.61328 0.10934,-1.375 v -6.875 c 0,-0.92578 -0.0312,-1.51953 -0.0937,-1.78125 -0.0429,-0.19531 -0.12493,-0.34375 -0.25,-0.4375 -0.1172,-0.0937 -0.25,-0.14062 -0.40625,-0.14062 -0.23047,0 -0.55468,0.10156 -0.96875,0.29687 z m -222.36327,5.1875 c 0,-1.44532 0.21874,-2.69141 0.65625,-3.73438 0.43749,-1.05078 1.01953,-1.83594 1.75,-2.35937 0.56249,-0.40625 1.14453,-0.60938 1.75,-0.60938 0.96875,0 1.84375,0.5 2.625,1.5 0.96875,1.23047 1.45312,2.89844 1.45312,5 0,1.48047 -0.21484,2.73438 -0.64063,3.76563 -0.42968,1.03125 -0.97656,1.78125 -1.64062,2.25 -0.65624,0.46093 -1.28906,0.6875 -1.89062,0.6875 -1.21876,0 -2.23048,-0.71094 -3.03125,-2.14063 -0.68751,-1.20703 -1.03125,-2.66015 -1.03125,-4.35937 z m 1.84374,0.23437 c 0,1.75 0.21095,3.17969 0.64063,4.28125 0.36328,0.9375 0.89453,1.40625 1.59375,1.40625 0.34376,0 0.69141,-0.14844 1.04688,-0.45312 0.36328,-0.3125 0.64062,-0.82032 0.82812,-1.53125 0.28906,-1.07032 0.4375,-2.58594 0.4375,-4.54688 0,-1.44531 -0.15234,-2.65625 -0.45312,-3.625 -0.21876,-0.71875 -0.51172,-1.22656 -0.875,-1.53125 -0.25,-0.20703 -0.5586,-0.3125 -0.92188,-0.3125 -0.42969,0 -0.8086,0.19531 -1.14062,0.57813 -0.44922,0.51172 -0.75782,1.32422 -0.92188,2.4375 -0.15624,1.11718 -0.23438,2.21484 -0.23438,3.29687 z m 7.75391,-0.23437 c 0,-1.44532 0.21874,-2.69141 0.65625,-3.73438 0.43749,-1.05078 1.01953,-1.83594 1.75,-2.35937 0.56249,-0.40625 1.14453,-0.60938 1.75,-0.60938 0.96875,0 1.84375,0.5 2.625,1.5 0.96875,1.23047 1.45312,2.89844 1.45312,5 0,1.48047 -0.21484,2.73438 -0.64063,3.76563 -0.42968,1.03125 -0.97656,1.78125 -1.64061,2.25 -0.65625,0.46093 -1.28907,0.6875 -1.89063,0.6875 -1.21876,0 -2.23046,-0.71094 -3.03125,-2.14063 -0.68751,-1.20703 -1.03125,-2.66015 -1.03125,-4.35937 z m 1.84374,0.23437 c 0,1.75 0.21095,3.17969 0.64063,4.28125 0.36328,0.9375 0.89453,1.40625 1.59376,1.40625 0.34375,0 0.6914,-0.14844 1.04687,-0.45312 0.36328,-0.3125 0.64062,-0.82032 0.82813,-1.53125 0.28905,-1.07032 0.43749,-2.58594 0.43749,-4.54688 0,-1.44531 -0.15234,-2.65625 -0.45312,-3.625 -0.21876,-0.71875 -0.51172,-1.22656 -0.875,-1.53125 -0.25,-0.20703 -0.5586,-0.3125 -0.92188,-0.3125 -0.42968,0 -0.80858,0.19531 -1.14062,0.57813 -0.44922,0.51172 -0.75782,1.32422 -0.92187,2.4375 -0.15625,1.11718 -0.23439,2.21484 -0.23439,3.29687 z m 9.32032,-5.42187 3.09375,-1.51563 h 0.31251 v 10.75 c 0,0.71094 0.0235,1.15235 0.0781,1.32813 0.0625,0.17968 0.18751,0.3125 0.375,0.40625 0.18751,0.0937 0.56641,0.14843 1.14063,0.15625 v 0.34375 h -4.78126 v -0.34375 c 0.60156,-0.008 0.99219,-0.0625 1.17188,-0.15625 0.17578,-0.0937 0.29687,-0.21094 0.35938,-0.35938 0.0703,-0.15625 0.10933,-0.61328 0.10933,-1.375 v -6.875 c 0,-0.92578 -0.0312,-1.51953 -0.0937,-1.78125 -0.0429,-0.19531 -0.12494,-0.34375 -0.25,-0.4375 -0.1172,-0.0937 -0.25,-0.14062 -0.40626,-0.14062 -0.23046,0 -0.55469,0.10156 -0.96874,0.29687 z m 9.60156,0 3.09375,-1.51563 h 0.31251 v 10.75 c 0,0.71094 0.0235,1.15235 0.0781,1.32813 0.0625,0.17968 0.18751,0.3125 0.375,0.40625 0.18751,0.0937 0.56641,0.14843 1.14063,0.15625 v 0.34375 h -4.78126 v -0.34375 c 0.60158,-0.008 0.99219,-0.0625 1.17188,-0.15625 0.17579,-0.0937 0.29688,-0.21094 0.35938,-0.35938 0.0703,-0.15625 0.10933,-0.61328 0.10933,-1.375 v -6.875 c 0,-0.92578 -0.0312,-1.51953 -0.0937,-1.78125 -0.0429,-0.19531 -0.12494,-0.34375 -0.25,-0.4375 -0.1172,-0.0937 -0.25,-0.14062 -0.40626,-0.14062 -0.23046,0 -0.55468,0.10156 -0.96874,0.29687 z m 67.19923,0 3.09375,-1.51563 h 0.31249 v 10.75 c 0,0.71094 0.0235,1.15235 0.0781,1.32813 0.0625,0.17968 0.1875,0.3125 0.375,0.40625 0.1875,0.0937 0.5664,0.14843 1.14063,0.15625 v 0.34375 h -4.78125 v -0.34375 c 0.60156,-0.008 0.99218,-0.0625 1.17186,-0.15625 0.17579,-0.0937 0.29688,-0.21094 0.35939,-0.35938 0.0703,-0.15625 0.10933,-0.61328 0.10933,-1.375 v -6.875 c 0,-0.92578 -0.0312,-1.51953 -0.0937,-1.78125 -0.0429,-0.19531 -0.12493,-0.34375 -0.25,-0.4375 -0.1172,-0.0937 -0.25,-0.14062 -0.40624,-0.14062 -0.23047,0 -0.55469,0.10156 -0.96876,0.29687 z m 8.03515,5.1875 c 0,-1.44532 0.21876,-2.69141 0.65625,-3.73438 0.43751,-1.05078 1.01953,-1.83594 1.75,-2.35937 0.56251,-0.40625 1.14453,-0.60938 1.75,-0.60938 0.96875,0 1.84375,0.5 2.625,1.5 0.96875,1.23047 1.45312,2.89844 1.45312,5 0,1.48047 -0.21484,2.73438 -0.64061,3.76563 -0.4297,1.03125 -0.97658,1.78125 -1.64063,2.25 -0.65625,0.46093 -1.28907,0.6875 -1.89063,0.6875 -1.21874,0 -2.23046,-0.71094 -3.03125,-2.14063 -0.68749,-1.20703 -1.03125,-2.66015 -1.03125,-4.35937 z m 1.84376,0.23437 c 0,1.75 0.21093,3.17969 0.64061,4.28125 0.36328,0.9375 0.89453,1.40625 1.59376,1.40625 0.34375,0 0.6914,-0.14844 1.04687,-0.45312 0.36328,-0.3125 0.64062,-0.82032 0.82813,-1.53125 0.28905,-1.07032 0.43749,-2.58594 0.43749,-4.54688 0,-1.44531 -0.15234,-2.65625 -0.45312,-3.625 -0.21874,-0.71875 -0.51172,-1.22656 -0.875,-1.53125 -0.25,-0.20703 -0.5586,-0.3125 -0.92188,-0.3125 -0.42968,0 -0.80858,0.19531 -1.14062,0.57813 -0.44922,0.51172 -0.75782,1.32422 -0.92187,2.4375 -0.15625,1.11718 -0.23437,2.21484 -0.23437,3.29687 z m 7.7578,-0.23437 c 0,-1.44532 0.21876,-2.69141 0.65625,-3.73438 0.43751,-1.05078 1.01953,-1.83594 1.75,-2.35937 0.56251,-0.40625 1.14453,-0.60938 1.75,-0.60938 0.96875,0 1.84375,0.5 2.625,1.5 0.96875,1.23047 1.45313,2.89844 1.45313,5 0,1.48047 -0.21485,2.73438 -0.64062,3.76563 -0.4297,1.03125 -0.97656,1.78125 -1.64063,2.25 -0.65625,0.46093 -1.28907,0.6875 -1.89063,0.6875 -1.21874,0 -2.23046,-0.71094 -3.03125,-2.14063 -0.68749,-1.20703 -1.03125,-2.66015 -1.03125,-4.35937 z m 1.84376,0.23437 c 0,1.75 0.21093,3.17969 0.64062,4.28125 0.36328,0.9375 0.89452,1.40625 1.59375,1.40625 0.34375,0 0.6914,-0.14844 1.04687,-0.45312 0.36329,-0.3125 0.64062,-0.82032 0.82813,-1.53125 0.28907,-1.07032 0.43749,-2.58594 0.43749,-4.54688 0,-1.44531 -0.15233,-2.65625 -0.45312,-3.625 -0.21874,-0.71875 -0.51172,-1.22656 -0.875,-1.53125 -0.25,-0.20703 -0.5586,-0.3125 -0.92188,-0.3125 -0.42968,0 -0.80858,0.19531 -1.14062,0.57813 -0.44922,0.51172 -0.7578,1.32422 -0.92187,2.4375 -0.15625,1.11718 -0.23437,2.21484 -0.23437,3.29687 z m 9.3203,-5.42187 3.09375,-1.51563 h 0.31251 v 10.75 c 0,0.71094 0.0235,1.15235 0.0781,1.32813 0.0625,0.17968 0.18751,0.3125 0.375,0.40625 0.18751,0.0937 0.56641,0.14843 1.14063,0.15625 v 0.34375 h -4.78126 v -0.34375 c 0.60158,-0.008 0.99219,-0.0625 1.17188,-0.15625 0.17579,-0.0937 0.29688,-0.21094 0.35938,-0.35938 0.0703,-0.15625 0.10933,-0.61328 0.10933,-1.375 v -6.875 c 0,-0.92578 -0.0312,-1.51953 -0.0937,-1.78125 -0.0429,-0.19531 -0.12494,-0.34375 -0.25,-0.4375 -0.1172,-0.0937 -0.25,-0.14062 -0.40626,-0.14062 -0.23046,0 -0.55468,0.10156 -0.96874,0.29687 z m -220.80077,0 3.09375,-1.51563 h 0.31249 v 10.75 c 0,0.71094 0.0235,1.15235 0.0781,1.32813 0.0625,0.17968 0.18749,0.3125 0.375,0.40625 0.18749,0.0937 0.5664,0.14843 1.14062,0.15625 v 0.34375 h -4.78125 v -0.34375 c 0.60156,-0.008 0.99219,-0.0625 1.17187,-0.15625 0.17578,-0.0937 0.29688,-0.21094 0.35938,-0.35938 0.0703,-0.15625 0.10934,-0.61328 0.10934,-1.375 v -6.875 c 0,-0.92578 -0.0312,-1.51953 -0.0937,-1.78125 -0.0429,-0.19531 -0.12493,-0.34375 -0.25,-0.4375 -0.1172,-0.0937 -0.25,-0.14062 -0.40624,-0.14062 -0.23048,0 -0.55469,0.10156 -0.96876,0.29687 z m 8.03515,5.1875 c 0,-1.44532 0.21875,-2.69141 0.65625,-3.73438 0.4375,-1.05078 1.01954,-1.83594 1.75,-2.35937 0.5625,-0.40625 1.14454,-0.60938 1.75,-0.60938 0.96875,0 1.84375,0.5 2.625,1.5 0.96875,1.23047 1.45312,2.89844 1.45312,5 0,1.48047 -0.21484,2.73438 -0.64062,3.76563 -0.42968,1.03125 -0.97656,1.78125 -1.64062,2.25 -0.65625,0.46093 -1.28906,0.6875 -1.89062,0.6875 -1.21876,0 -2.23047,-0.71094 -3.03126,-2.14063 -0.6875,-1.20703 -1.03125,-2.66015 -1.03125,-4.35937 z m 1.84375,0.23437 c 0,1.75 0.21094,3.17969 0.64062,4.28125 0.36328,0.9375 0.89454,1.40625 1.59376,1.40625 0.34375,0 0.6914,-0.14844 1.04687,-0.45312 0.36328,-0.3125 0.64063,-0.82032 0.82813,-1.53125 0.28906,-1.07032 0.4375,-2.58594 0.4375,-4.54688 0,-1.44531 -0.15235,-2.65625 -0.45312,-3.625 -0.21876,-0.71875 -0.51172,-1.22656 -0.875,-1.53125 -0.25,-0.20703 -0.5586,-0.3125 -0.92188,-0.3125 -0.42968,0 -0.80859,0.19531 -1.14063,0.57813 -0.44921,0.51172 -0.75781,1.32422 -0.92187,2.4375 -0.15625,1.11718 -0.23438,2.21484 -0.23438,3.29687 z m 9.32032,-5.42187 3.09374,-1.51563 h 0.31251 v 10.75 c 0,0.71094 0.0235,1.15235 0.0781,1.32813 0.0625,0.17968 0.18751,0.3125 0.375,0.40625 0.18751,0.0937 0.56642,0.14843 1.14063,0.15625 v 0.34375 h -4.78125 v -0.34375 c 0.60156,-0.008 0.99218,-0.0625 1.17188,-0.15625 0.17577,-0.0937 0.29686,-0.21094 0.35937,-0.35938 0.0703,-0.15625 0.10933,-0.61328 0.10933,-1.375 v -6.875 c 0,-0.92578 -0.0312,-1.51953 -0.0937,-1.78125 -0.0429,-0.19531 -0.12493,-0.34375 -0.25,-0.4375 -0.1172,-0.0937 -0.25,-0.14062 -0.40625,-0.14062 -0.23047,0 -0.5547,0.10156 -0.96875,0.29687 z m 8.03906,5.1875 c 0,-1.44532 0.21875,-2.69141 0.65624,-3.73438 0.43751,-1.05078 1.01954,-1.83594 1.75,-2.35937 0.56251,-0.40625 1.14454,-0.60938 1.75,-0.60938 0.96876,0 1.84376,0.5 2.625,1.5 0.96876,1.23047 1.45314,2.89844 1.45314,5 0,1.48047 -0.21486,2.73438 -0.64063,3.76563 -0.42969,1.03125 -0.97656,1.78125 -1.64063,2.25 -0.65625,0.46093 -1.28906,0.6875 -1.89062,0.6875 -1.21875,0 -2.23047,-0.71094 -3.03126,-2.14063 -0.68749,-1.20703 -1.03124,-2.66015 -1.03124,-4.35937 z m 1.84375,0.23437 c 0,1.75 0.21093,3.17969 0.64063,4.28125 0.36328,0.9375 0.89453,1.40625 1.59374,1.40625 0.34375,0 0.6914,-0.14844 1.04688,-0.45312 0.36328,-0.3125 0.64062,-0.82032 0.82812,-1.53125 0.28907,-1.07032 0.4375,-2.58594 0.4375,-4.54688 0,-1.44531 -0.15234,-2.65625 -0.45312,-3.625 -0.21875,-0.71875 -0.51172,-1.22656 -0.875,-1.53125 -0.25,-0.20703 -0.55859,-0.3125 -0.92188,-0.3125 -0.42968,0 -0.80859,0.19531 -1.14062,0.57813 -0.44922,0.51172 -0.75781,1.32422 -0.92188,2.4375 -0.15625,1.11718 -0.23437,2.21484 -0.23437,3.29687 z m -235.480464,-5.42187 3.09375,-1.51563 h 0.3125 v 10.75 c 0,0.71094 0.02344,1.15235 0.07813,1.32813 0.0625,0.17968 0.1875,0.3125 0.375,0.40625 0.1875,0.0937 0.566406,0.14843 1.140625,0.15625 v 0.34375 h -4.78125 v -0.34375 c 0.601562,-0.008 0.992187,-0.0625 1.171875,-0.15625 0.175781,-0.0937 0.296875,-0.21094 0.359375,-0.35938 0.07031,-0.15625 0.109374,-0.61328 0.109374,-1.375 v -6.875 c 0,-0.92578 -0.03125,-1.51953 -0.09375,-1.78125 -0.04297,-0.19531 -0.125,-0.34375 -0.25,-0.4375 -0.117188,-0.0937 -0.25,-0.14062 -0.40625,-0.14062 -0.230469,0 -0.554687,0.10156 -0.96875,0.29687 z m 9.597656,0 3.09375,-1.51563 h 0.3125 v 10.75 c 0,0.71094 0.02344,1.15235 0.07812,1.32813 0.06249,0.17968 0.1875,0.3125 0.375,0.40625 0.1875,0.0937 0.566405,0.14843 1.140624,0.15625 v 0.34375 h -4.781244 v -0.34375 c 0.601562,-0.008 0.992187,-0.0625 1.171875,-0.15625 0.175781,-0.0937 0.296874,-0.21094 0.359374,-0.35938 0.07031,-0.15625 0.109373,-0.61328 0.109373,-1.375 v -6.875 c 0,-0.92578 -0.03125,-1.51953 -0.09375,-1.78125 -0.04297,-0.19531 -0.125,-0.34375 -0.25,-0.4375 -0.117188,-0.0937 -0.25,-0.14062 -0.40625,-0.14062 -0.230469,0 -0.554687,0.10156 -0.96875,0.29687 z m 8.039062,5.1875 c 0,-1.44532 0.21875,-2.69141 0.65625,-3.73438 0.4375,-1.05078 1.019531,-1.83594 1.75,-2.35937 0.5625,-0.40625 1.144531,-0.60938 1.75,-0.60938 0.96875,0 1.843749,0.5 2.625,1.5 0.968749,1.23047 1.453125,2.89844 1.453125,5 0,1.48047 -0.214844,2.73438 -0.640625,3.76563 -0.429688,1.03125 -0.976563,1.78125 -1.640625,2.25 -0.656249,0.46093 -1.289063,0.6875 -1.890625,0.6875 -1.21875,0 -2.230468,-0.71094 -3.03125,-2.14063 -0.6875,-1.20703 -1.03125,-2.66015 -1.03125,-4.35937 z m 1.84375,0.23437 c 0,1.75 0.210938,3.17969 0.640626,4.28125 0.36328,0.9375 0.89453,1.40625 1.593749,1.40625 0.343751,0 0.691407,-0.14844 1.046875,-0.45312 0.363281,-0.3125 0.640625,-0.82032 0.828125,-1.53125 0.289062,-1.07032 0.4375,-2.58594 0.4375,-4.54688 0,-1.44531 -0.152344,-2.65625 -0.453126,-3.625 -0.218749,-0.71875 -0.511718,-1.22656 -0.874999,-1.53125 -0.25,-0.20703 -0.558594,-0.3125 -0.921875,-0.3125 -0.429688,0 -0.808593,0.19531 -1.140625,0.57813 -0.449219,0.51172 -0.757812,1.32422 -0.921875,2.4375 -0.156249,1.11718 -0.234375,2.21484 -0.234375,3.29687 z m 7.757812,-0.23437 c 0,-1.44532 0.218751,-2.69141 0.656251,-3.73438 0.4375,-1.05078 1.01953,-1.83594 1.75,-2.35937 0.5625,-0.40625 1.14453,-0.60938 1.75,-0.60938 0.968749,0 1.843749,0.5 2.625,1.5 0.968749,1.23047 1.453124,2.89844 1.453124,5 0,1.48047 -0.214843,2.73438 -0.640624,3.76563 -0.429688,1.03125 -0.976563,1.78125 -1.640626,2.25 -0.65625,0.46093 -1.289062,0.6875 -1.890625,0.6875 -1.218749,0 -2.230468,-0.71094 -3.031249,-2.14063 -0.6875,-1.20703 -1.031251,-2.66015 -1.031251,-4.35937 z m 1.843751,0.23437 c 0,1.75 0.210937,3.17969 0.640624,4.28125 0.363281,0.9375 0.894532,1.40625 1.59375,1.40625 0.34375,0 0.691407,-0.14844 1.046875,-0.45312 0.363281,-0.3125 0.640625,-0.82032 0.828125,-1.53125 0.289063,-1.07032 0.4375,-2.58594 0.4375,-4.54688 0,-1.44531 -0.152344,-2.65625 -0.453125,-3.625 -0.218749,-0.71875 -0.511719,-1.22656 -0.875,-1.53125 -0.25,-0.20703 -0.558593,-0.3125 -0.921875,-0.3125 -0.429688,0 -0.808593,0.19531 -1.140625,0.57813 -0.449219,0.51172 -0.757812,1.32422 -0.921875,2.4375 -0.15625,1.11718 -0.234374,2.21484 -0.234374,3.29687 z m 0,0"
       style="fill:#000000;fill-opacity:1;fill-rule:nonzero;stroke:none;stroke-width:1.33333"
       aria-label="10000010&#10;11100111&#10;1111&#10;0000&#10;0100&#10;0110&#10;10111101&#10;0001&#10;01010011100110101100" />
    <path
       id="path10"
       d="m 1717,1935 v -16.2 l 0.6,-8.4 v -10.2 l 0.6,-13.2 v -15 l 0.6,-16.8 1.2,-18.6 1.2,-20.4 1.2,-22.2 1.8,-23.4 1.8,-24 2.4,-25.2 2.4,-25.8 3.6,-27 3.6,-27 4.8,-27 4.8,-28.2 6,-28.2 6.6,-28.8 7.8,-28.8 8.4,-30 10.2,-30 10.8,-31.2 12.6,-31.8 14.4,-31.8 15.6,-33 17.4,-32.4 19.2,-33 20.4,-32.4 21.6,-31.2 22.2,-29.4 21.6,-27 21.6,-25.2 19.8,-22.8 18.6,-20.4 16.8,-18 15.6,-16.2 13.2,-13.8 12.6,-12.602 10.8,-10.796 9.6,-9 8.4,-8.403 7.2,-7.199 7.2,-6.602 6.6,-6 6.6,-5.398 6.6,-5.398 6.6,-4.801 7.8,-4.801 8.4,-5.398 9.6,-5.403 10.8,-5.398 12,-6 14.4,-6 16.2,-6.602 18.6,-6.597 21,-6.602 22.8,-6.602 25.8,-6 27.6,-5.398 29.4,-4.801 30.6,-3 31.8,-1.199 31.8,1.199 30.6,3 29.4,4.801 27.6,5.398 25.8,6 22.8,6.602 21,6.602 18.6,6.597 16.2,6.602 14.4,6 12,6 10.8,5.398 9.6,5.403 8.4,5.398 7.8,4.801 6.6,4.801 6.6,5.398 6.6,5.398 6.6,6 7.2,6.602 7.2,7.199 8.4,8.403 9.6,9 10.8,10.796 12.6,12.602 13.2,13.8 15.6,16.2 16.8,18 18.6,20.4 19.8,22.8 21.6,25.2 21.6,27 22.2,29.4 21.6,31.2 20.4,32.4 19.2,33 17.4,32.4 15.6,33 14.4,31.8 12.6,31.8 10.8,31.2 10.2,30 8.4,30 7.8,28.8 6.6,28.8 6,28.2 4.8,28.2 4.8,27 3.6,27 3.6,27 2.4,25.8 2.4,25.2 1.8,24 1.8,23.4 1.2,22.2 1.2,20.4 1.2,18.6 0.6,16.8 v 15 l 0.6,13.2 v 10.2 l 0.6,8.4 v 6.6 4.8 2.4 1.8 0.6"
       style="fill:none;stroke:#00ff00;stroke-width:30;stroke-linecap:butt;stroke-linejoin:bevel;stroke-miterlimit:10;stroke-dasharray:none;stroke-opacity:1"
       transform="matrix(0.13333333,0,0,-0.13333333,0,512)" />
    <path
       id="path11"
       d="m 3157,1935 v 16.2 l 0.6,8.4 v 10.2 l 0.6,13.2 v 15 l 0.6,16.8 1.2,18.6 1.2,20.4 1.2,22.2 1.8,23.4 1.8,24 2.4,25.2 2.4,25.8 3.6,27 3.6,27 4.8,27 4.8,28.2 6,28.2 6.6,28.8 7.8,28.8 8.4,30 10.2,30 10.8,31.2 12.6,31.8 14.4,31.8 15.6,33 17.4,32.4 19.2,33 20.4,32.4 21.6,31.2 22.2,29.4 21.6,27 21.6,25.2 19.8,22.8 18.6,20.4 16.8,18 15.6,16.2 13.2,13.8 12.6,12.6 10.8,10.8 9.6,9 8.4,8.4 7.2,7.2 7.2,6.6 6.6,6 6.6,5.4 6.6,5.4 6.6,4.8 7.8,4.8 8.4,5.4 9.6,5.4 10.8,5.4 12,6 14.4,6 16.2,6.6 18.6,6.6 21,6.6 22.8,6.6 25.8,6 27.6,5.4 29.4,4.8 30.6,3 31.8,1.2 31.8,-1.2 30.6,-3 29.4,-4.8 27.6,-5.4 25.8,-6 22.8,-6.6 21,-6.6 18.6,-6.6 16.2,-6.6 14.4,-6 12,-6 10.8,-5.4 9.6,-5.4 8.4,-5.4 7.8,-4.8 6.6,-4.8 6.6,-5.4 6.6,-5.4 6.6,-6 7.2,-6.6 7.2,-7.2 8.4,-8.4 9.6,-9 10.8,-10.8 12.6,-12.6 13.2,-13.8 15.6,-16.2 16.8,-18 18.6,-20.4 19.8,-22.8 21.6,-25.2 21.6,-27 22.2,-29.4 21.6,-31.2 20.4,-32.4 19.2,-33 17.4,-32.4 15.6,-33 14.4,-31.8 12.6,-31.8 10.8,-31.2 10.2,-30 8.4,-30 7.8,-28.8 6.6,-28.8 6,-28.2 4.8,-28.2 4.8,-27 3.6,-27 3.6,-27 2.4,-25.8 2.4,-25.2 1.8,-24 1.8,-23.4 1.2,-22.2 1.2,-20.4 1.2,-18.6 0.6,-16.8 v -15 l 0.6,-13.2 v -10.2 l 0.6,-8.4 v -6.6 -4.8 -2.4 -1.8 -0.6"
       style="fill:none;stroke:#00ff00;stroke-width:30;stroke-linecap:butt;stroke-linejoin:bevel;stroke-miterlimit:10;stroke-dasharray:none;stroke-opacity:1"
       transform="matrix(0.13333333,0,0,-0.13333333,0,512)" />
    <path
       id="path12"
       d="m 277,1935 c 0,198.82 161.18,360 360,360 198.82,0 360,-161.18 360,-360"
       style="fill:none;stroke:#00ff00;stroke-width:30;stroke-linecap:butt;stroke-linejoin:bevel;stroke-miterlimit:10;stroke-dasharray:none;stroke-opacity:1"
       transform="matrix(0.13333333,0,0,-0.13333333,0,512)" />
    <path
       id="path13"
       d="m 997,1935 c 0,-198.82 161.18,-360 360,-360 198.82,0 360,161.18 360,360"
       style="fill:none;stroke:#00ff00;stroke-width:30;stroke-linecap:butt;stroke-linejoin:bevel;stroke-miterlimit:10;stroke-dasharray:none;stroke-opacity:1"
       transform="matrix(0.13333333,0,0,-0.13333333,0,512)" />
    <path
       id="path14"
       d="m 1717,1935 c 0,-198.82 161.18,-360 360,-360 198.82,0 360,161.18 360,360"
       style="fill:none;stroke:#0000ff;stroke-width:30;stroke-linecap:butt;stroke-linejoin:bevel;stroke-miterlimit:10;stroke-dasharray:none;stroke-opacity:1"
       transform="matrix(0.13333333,0,0,-0.13333333,0,512)" />
    <path
       id="path15"
       d="m 3157,1935 c 0,-198.82 161.18,-360 360,-360 198.82,0 360,161.18 360,360"
       style="fill:none;stroke:#0000ff;stroke-width:30;stroke-linecap:butt;stroke-linejoin:bevel;stroke-miterlimit:10;stroke-dasharray:none;stroke-opacity:1"
       transform="matrix(0.13333333,0,0,-0.13333333,0,512)" />
    <path
       id="path16"
       d="m 3877,1935 c 0,198.82 161.18,360 360,360 198.82,0 360,-161.18 360,-360"
       style="fill:none;stroke:#0000ff;stroke-width:30;stroke-linecap:butt;stroke-linejoin:bevel;stroke-miterlimit:10;stroke-dasharray:none;stroke-opacity:1"
       transform="matrix(0.13333333,0,0,-0.13333333,0,512)" />
    <path
       id="path17"
       d="m 2437,1935 c 0,198.82 161.18,360 360,360 198.82,0 360,-161.18 360,-360"
       style="fill:none;stroke:#0000ff;stroke-width:30;stroke-linecap:butt;stroke-linejoin:bevel;stroke-miterlimit:10;stroke-dasharray:none;stroke-opacity:1"
       transform="matrix(0.13333333,0,0,-0.13333333,0,512)" />
    <path
       id="path18"
       d="m 997,1935 v 34.8 l 0.602,13.2 v 15 l 0.597,16.8 v 18.6 l 0.602,20.4 0.597,22.2 1.202,23.4 0.6,24 1.2,25.2 1.8,25.8 1.2,27 2.4,27 1.8,27 3,28.2 2.4,28.2 3.6,28.8 3.6,28.8 4.8,30 4.8,30 5.4,31.2 6.6,31.8 6.6,31.8 8.4,33 8.4,32.4 9.6,33 10.2,32.4 13.2,37.8 13.2,34.8 13.2,31.2 12.6,28.8 10.8,24.6 10.2,21.6 9,18.6 7.8,15.6 6.6,13.8 6,11.4 4.8,9.6 4.8,8.4 3.6,7.2 4.2,6.6 4.2,6 4.2,6.6 4.8,6 5.4,6 6.6,7.2 7.8,7.2 9,7.2 10.8,7.8 12.6,8.4 13.8,7.8 15.6,7.2 17.4,6.6 18.6,4.2 19.2,1.8 19.2,-1.8 18.6,-4.2 17.4,-6.6 15.6,-7.2 13.8,-7.8 12.6,-8.4 10.8,-7.8 9,-7.2 7.8,-7.2 6.6,-7.2 5.4,-6 4.8,-6 4.2,-6.6 4.2,-6 4.2,-6.6 3.6,-7.2 4.8,-8.4 4.8,-9.6 6,-11.4 6.6,-13.8 7.8,-15.6 9,-18.6 10.2,-21.6 10.8,-24.6 12.6,-28.8 13.2,-31.2 13.2,-34.8 13.2,-37.8 10.2,-32.4 9.6,-33 8.4,-32.4 8.4,-33 6.6,-31.8 6.6,-31.8 5.4,-31.2 4.8,-30 4.8,-30 3.6,-28.8 3.6,-28.8 2.4,-28.2 3,-28.2 1.8,-27 2.4,-27 1.2,-27 1.8,-25.8 1.2,-25.2 0.6,-24 1.2,-23.4 0.6,-22.2 0.6,-20.4 v -18.6 l 0.6,-16.8 v -15 l 0.6,-13.2 v -10.2 -8.4 -6.6 -4.8 -2.4 -1.8 -0.6"
       style="fill:none;stroke:#0000ff;stroke-width:30;stroke-linecap:butt;stroke-linejoin:bevel;stroke-miterlimit:10;stroke-dasharray:none;stroke-opacity:1"
       transform="matrix(0.13333333,0,0,-0.13333333,0,512)" />
    <path
       id="path19"
       d="m 277,1935 v -34.8 l 0.602,-13.2 v -15 l 0.597,-16.8 v -18.6 l 0.602,-20.4 0.597,-22.2 1.204,-23.4 0.597,-24 1.199,-25.2 1.801,-25.8 1.199,-27 2.403,-27 1.801,-27 3,-28.2 2.398,-28.2 3.602,-28.8 3.597,-28.8 4.801,-30 4.801,-30 5.398,-31.2 6.602,-31.8 6.597,-31.8 8.403,-33 8.398,-32.4 9.602,-33 10.199,-32.4 13.199,-37.8 13.199,-34.8 13.204,-31.2 12.597,-28.8 10.801,-24.6 10.199,-21.6 9,-18.6 7.801,-15.6 6.602,-13.801 6,-11.398 4.796,-9.602 4.801,-8.398 3.602,-7.199 L 487,945 l 4.199,-6 4.199,-6.602 4.801,-6 5.403,-6 6.597,-7.199 L 520,906 l 9,-7.199 10.801,-7.801 12.597,-8.398 13.801,-7.801 15.602,-7.199 L 599.199,861 617.801,856.801 637,855 l 19.199,1.801 18.602,4.199 17.398,6.602 15.602,7.199 13.801,7.801 12.597,8.398 10.801,7.801 9,7.199 7.801,7.199 6.597,7.199 5.403,6 4.801,6 4.199,6.602 4.199,6 4.199,6.602 3.602,7.199 4.801,8.398 4.796,9.602 6,11.398 6.602,13.801 7.801,15.6 9,18.6 10.199,21.6 10.801,24.6 12.597,28.8 13.204,31.2 13.199,34.8 13.199,37.8 10.199,32.4 9.602,33 8.398,32.4 8.403,33 6.597,31.8 6.602,31.8 5.398,31.2 4.801,30 4.801,30 3.597,28.8 3.602,28.8 2.398,28.2 3,28.2 1.801,27 2.403,27 1.199,27 1.801,25.8 1.199,25.2 0.597,24 1.204,23.4 0.597,22.2 0.602,20.4 v 18.6 l 0.597,16.8 v 15 l 0.602,13.2 v 10.2 8.4 6.6 4.8 2.4 1.8 0.6"
       style="fill:none;stroke:#0000ff;stroke-width:30;stroke-linecap:butt;stroke-linejoin:bevel;stroke-miterlimit:10;stroke-dasharray:none;stroke-opacity:1"
       transform="matrix(0.13333333,0,0,-0.13333333,0,512)" />
    <path
       id="path20"
       d="m 3157,1935 v -16.2 l 0.6,-8.4 v -10.2 l 0.6,-13.2 v -15 l 0.6,-16.8 1.2,-18.6 1.2,-20.4 1.2,-22.2 1.8,-23.4 1.8,-24 2.4,-25.2 2.4,-25.8 3.6,-27 3.6,-27 4.8,-27 4.8,-28.2 6,-28.2 6.6,-28.8 7.8,-28.8 8.4,-30 10.2,-30 10.8,-31.2 12.6,-31.8 14.4,-31.8 15.6,-33 17.4,-32.4 19.2,-33 20.4,-32.4 21.6,-31.2 22.2,-29.4 21.6,-27 21.6,-25.2 19.8,-22.8 18.6,-20.4 16.8,-18 15.6,-16.2 13.2,-13.8 12.6,-12.602 10.8,-10.796 9.6,-9 8.4,-8.403 7.2,-7.199 7.2,-6.602 6.6,-6 6.6,-5.398 6.6,-5.398 6.6,-4.801 7.8,-4.801 8.4,-5.398 9.6,-5.403 10.8,-5.398 12,-6 14.4,-6 16.2,-6.602 18.6,-6.597 21,-6.602 22.8,-6.602 25.8,-6 27.6,-5.398 29.4,-4.801 30.6,-3 31.8,-1.199 31.8,1.199 30.6,3 29.4,4.801 27.6,5.398 25.8,6 22.8,6.602 21,6.602 18.6,6.597 16.2,6.602 14.4,6 12,6 10.8,5.398 9.6,5.403 8.4,5.398 7.8,4.801 6.6,4.801 6.6,5.398 6.6,5.398 6.6,6 7.2,6.602 7.2,7.199 8.4,8.403 9.6,9 10.8,10.796 12.6,12.602 13.2,13.8 15.6,16.2 16.8,18 18.6,20.4 19.8,22.8 21.6,25.2 21.6,27 22.2,29.4 21.6,31.2 20.4,32.4 19.2,33 17.4,32.4 15.6,33 14.4,31.8 12.6,31.8 10.8,31.2 10.2,30 8.4,30 7.8,28.8 6.6,28.8 6,28.2 4.8,28.2 4.8,27 3.6,27 3.6,27 2.4,25.8 2.4,25.2 1.8,24 1.8,23.4 1.2,22.2 1.2,20.4 1.2,18.6 0.6,16.8 v 15 l 0.6,13.2 v 10.2 l 0.6,8.4 v 6.6 4.8 2.4 1.8 0.6"
       style="fill:none;stroke:#ff0000;stroke-width:30;stroke-linecap:butt;stroke-linejoin:bevel;stroke-miterlimit:10;stroke-dasharray:none;stroke-opacity:1"
       transform="matrix(0.13333333,0,0,-0.13333333,0,512)" />
    <path
       id="path21"
       d="m 997,1935 c 0,198.82 161.18,360 360,360 198.82,0 360,-161.18 360,-360"
       style="fill:none;stroke:#ff0000;stroke-width:30;stroke-linecap:butt;stroke-linejoin:bevel;stroke-miterlimit:10;stroke-dasharray:none;stroke-opacity:1"
       transform="matrix(0.13333333,0,0,-0.13333333,0,512)" />
    <path
       id="path22"
       d="m 2437,1935 c 0,-198.82 161.18,-360 360,-360 198.82,0 360,161.18 360,360"
       style="fill:none;stroke:#ff0000;stroke-width:30;stroke-linecap:butt;stroke-linejoin:bevel;stroke-miterlimit:10;stroke-dasharray:none;stroke-opacity:1"
       transform="matrix(0.13333333,0,0,-0.13333333,0,512)" />
    <path
       id="path23"
       d="m 1717,1935 c 0,198.82 161.18,360 360,360 198.82,0 360,-161.18 360,-360"
       style="fill:none;stroke:#ff0000;stroke-width:30;stroke-linecap:butt;stroke-linejoin:bevel;stroke-miterlimit:10;stroke-dasharray:none;stroke-opacity:1"
       transform="matrix(0.13333333,0,0,-0.13333333,0,512)" />
    <path
       id="path24"
       d="m 277,1935 v 34.8 l 0.602,13.2 v 15 l 0.597,16.8 v 18.6 l 0.602,20.4 0.597,22.2 1.204,23.4 0.597,24 1.199,25.2 1.801,25.8 1.199,27 2.403,27 1.801,27 3,28.2 2.398,28.2 3.602,28.8 3.597,28.8 4.801,30 4.801,30 5.398,31.2 6.602,31.8 6.597,31.8 8.403,33 8.398,32.4 9.602,33 10.199,32.4 13.199,37.8 13.199,34.8 13.204,31.2 12.597,28.8 10.801,24.6 10.199,21.6 9,18.6 7.801,15.6 6.602,13.8 6,11.4 4.796,9.6 4.801,8.4 3.602,7.2 4.199,6.6 4.199,6 4.199,6.6 4.801,6 5.403,6 6.597,7.2 7.801,7.2 9,7.2 10.801,7.8 12.597,8.4 13.801,7.8 15.602,7.2 17.398,6.6 18.602,4.2 19.199,1.8 19.199,-1.8 18.602,-4.2 17.398,-6.6 15.602,-7.2 13.801,-7.8 12.597,-8.4 10.801,-7.8 9,-7.2 7.801,-7.2 6.597,-7.2 5.403,-6 4.801,-6 4.199,-6.6 4.199,-6 4.199,-6.6 3.602,-7.2 4.801,-8.4 4.796,-9.6 6,-11.4 6.602,-13.8 7.801,-15.6 9,-18.6 10.199,-21.6 10.801,-24.6 12.597,-28.8 13.204,-31.2 13.199,-34.8 13.199,-37.8 10.199,-32.4 9.602,-33 8.398,-32.4 8.403,-33 6.597,-31.8 6.602,-31.8 5.398,-31.2 4.801,-30 4.801,-30 3.597,-28.8 3.602,-28.8 2.398,-28.2 3,-28.2 1.801,-27 2.403,-27 1.199,-27 1.801,-25.8 1.199,-25.2 0.597,-24 1.204,-23.4 0.597,-22.2 0.602,-20.4 v -18.6 l 0.597,-16.8 v -15 L 997,1969.8 v -10.2 -8.4 -6.6 -4.8 -2.4 -1.8 -0.6"
       style="fill:none;stroke:#ff0000;stroke-width:30;stroke-linecap:butt;stroke-linejoin:bevel;stroke-miterlimit:10;stroke-dasharray:none;stroke-opacity:1"
       transform="matrix(0.13333333,0,0,-0.13333333,0,512)" />
    <path
       id="path25"
       d="m 1717,1935 v 16.2 l 0.6,8.4 v 10.2 l 0.6,13.2 v 15 l 0.6,16.8 1.2,18.6 1.2,20.4 1.2,22.2 1.8,23.4 1.8,24 2.4,25.2 2.4,25.8 3.6,27 3.6,27 4.8,27 4.8,28.2 6,28.2 6.6,28.8 7.8,28.8 8.4,30 10.2,30 10.8,31.2 12.6,31.8 14.4,31.8 15.6,33 17.4,32.4 19.2,33 20.4,32.4 21.6,31.2 22.2,29.4 21.6,27 21.6,25.2 19.8,22.8 18.6,20.4 16.8,18 15.6,16.2 13.2,13.8 12.6,12.6 10.8,10.8 9.6,9 8.4,8.4 7.2,7.2 7.2,6.6 6.6,6 6.6,5.4 6.6,5.4 6.6,4.8 7.8,4.8 8.4,5.4 9.6,5.4 10.8,5.4 12,6 14.4,6 16.2,6.6 18.6,6.6 21,6.6 22.8,6.6 25.8,6 27.6,5.4 29.4,4.8 30.6,3 31.8,1.2 31.8,-1.2 30.6,-3 29.4,-4.8 27.6,-5.4 25.8,-6 22.8,-6.6 21,-6.6 18.6,-6.6 16.2,-6.6 14.4,-6 12,-6 10.8,-5.4 9.6,-5.4 8.4,-5.4 7.8,-4.8 6.6,-4.8 6.6,-5.4 6.6,-5.4 6.6,-6 7.2,-6.6 7.2,-7.2 8.4,-8.4 9.6,-9 10.8,-10.8 12.6,-12.6 13.2,-13.8 15.6,-16.2 16.8,-18 18.6,-20.4 19.8,-22.8 21.6,-25.2 21.6,-27 22.2,-29.4 21.6,-31.2 20.4,-32.4 19.2,-33 17.4,-32.4 15.6,-33 14.4,-31.8 12.6,-31.8 10.8,-31.2 10.2,-30 8.4,-30 7.8,-28.8 6.6,-28.8 6,-28.2 4.8,-28.2 4.8,-27 3.6,-27 3.6,-27 2.4,-25.8 2.4,-25.2 1.8,-24 1.8,-23.4 1.2,-22.2 1.2,-20.4 1.2,-18.6 0.6,-16.8 v -15 l 0.6,-13.2 v -10.2 l 0.6,-8.4 v -6.6 -4.8 -2.4 -1.8 -0.6"
       style="fill:none;stroke:#ffd600;stroke-width:30;stroke-linecap:butt;stroke-linejoin:bevel;stroke-miterlimit:10;stroke-dasharray:none;stroke-opacity:1"
       transform="matrix(0.13333333,0,0,-0.13333333,0,512)" />
    <path
       id="path26"
       d="m 3877,1935 c 0,-198.82 161.18,-360 360,-360 198.82,0 360,161.18 360,360"
       style="fill:none;stroke:#ffd600;stroke-width:30;stroke-linecap:butt;stroke-linejoin:bevel;stroke-miterlimit:10;stroke-dasharray:none;stroke-opacity:1"
       transform="matrix(0.13333333,0,0,-0.13333333,0,512)" />
    <path
       id="path27"
       d="m 277,1935 c 0,-198.82 161.18,-360 360,-360 198.82,0 360,161.18 360,360"
       style="fill:none;stroke:#ffd600;stroke-width:30;stroke-linecap:butt;stroke-linejoin:bevel;stroke-miterlimit:10;stroke-dasharray:none;stroke-opacity:1"
       transform="matrix(0.13333333,0,0,-0.13333333,0,512)" />
    <path
       id="path28"
       d="m 3157,1935 c 0,198.82 161.18,360 360,360 198.82,0 360,-161.18 360,-360"
       style="fill:none;stroke:#ffd600;stroke-width:30;stroke-linecap:butt;stroke-linejoin:bevel;stroke-miterlimit:10;stroke-dasharray:none;stroke-opacity:1"
       transform="matrix(0.13333333,0,0,-0.13333333,0,512)" />
    <path
       id="path29"
       d="m 997,1935 v -34.8 l 0.602,-13.2 v -15 l 0.597,-16.8 v -18.6 l 0.602,-20.4 0.597,-22.2 1.202,-23.4 0.6,-24 1.2,-25.2 1.8,-25.8 1.2,-27 2.4,-27 1.8,-27 3,-28.2 2.4,-28.2 3.6,-28.8 3.6,-28.8 4.8,-30 4.8,-30 5.4,-31.2 6.6,-31.8 6.6,-31.8 8.4,-33 8.4,-32.4 9.6,-33 10.2,-32.4 13.2,-37.8 13.2,-34.8 13.2,-31.2 12.6,-28.8 10.8,-24.6 10.2,-21.6 9,-18.6 7.8,-15.6 6.6,-13.801 6,-11.398 4.8,-9.602 4.8,-8.398 3.6,-7.199 4.2,-6.602 4.2,-6 4.2,-6.602 4.8,-6 5.4,-6 6.6,-7.199 7.8,-7.199 9,-7.199 10.8,-7.801 12.6,-8.398 13.8,-7.801 15.6,-7.199 17.4,-6.602 18.6,-4.199 19.2,-1.801 19.2,1.801 18.6,4.199 17.4,6.602 15.6,7.199 13.8,7.801 12.6,8.398 10.8,7.801 9,7.199 7.8,7.199 6.6,7.199 5.4,6 4.8,6 4.2,6.602 4.2,6 4.2,6.602 3.6,7.199 4.8,8.398 4.8,9.602 6,11.398 6.6,13.801 7.8,15.6 9,18.6 10.2,21.6 10.8,24.6 12.6,28.8 13.2,31.2 13.2,34.8 13.2,37.8 10.2,32.4 9.6,33 8.4,32.4 8.4,33 6.6,31.8 6.6,31.8 5.4,31.2 4.8,30 4.8,30 3.6,28.8 3.6,28.8 2.4,28.2 3,28.2 1.8,27 2.4,27 1.2,27 1.8,25.8 1.2,25.2 0.6,24 1.2,23.4 0.6,22.2 0.6,20.4 v 18.6 l 0.6,16.8 v 15 l 0.6,13.2 v 10.2 8.4 6.6 4.8 2.4 1.8 0.6"
       style="fill:none;stroke:#ffd600;stroke-width:30;stroke-linecap:butt;stroke-linejoin:bevel;stroke-miterlimit:10;stroke-dasharray:none;stroke-opacity:1"
       transform="matrix(0.13333333,0,0,-0.13333333,0,512)" />
    <path
       id="path30"
       d="m 3202,1935 c 0,-24.85 -20.15,-45 -45,-45 -24.85,0 -45,20.15 -45,45 0,24.85 20.15,45 45,45 24.85,0 45,-20.15 45,-45"
       style="fill:#ff0000;fill-opacity:1;fill-rule:evenodd;stroke:none"
       transform="matrix(0.13333333,0,0,-0.13333333,0,512)" />
    <path
       id="path31"
       d="m 3202,1935 c 0,-24.85 -20.15,-45 -45,-45 -24.85,0 -45,20.15 -45,45 0,24.85 20.15,45 45,45 24.85,0 45,-20.15 45,-45 z"
       style="fill:none;stroke:#000000;stroke-width:9;stroke-linecap:butt;stroke-linejoin:bevel;stroke-miterlimit:10;stroke-dasharray:none;stroke-opacity:1"
       transform="matrix(0.13333333,0,0,-0.13333333,0,512)" />
    <path
       id="path32"
       d="m 1762,1935 c 0,-24.85 -20.15,-45 -45,-45 -24.85,0 -45,20.15 -45,45 0,24.85 20.15,45 45,45 24.85,0 45,-20.15 45,-45"
       style="fill:#ff0000;fill-opacity:1;fill-rule:evenodd;stroke:none"
       transform="matrix(0.13333333,0,0,-0.13333333,0,512)" />
    <path
       id="path33"
       d="m 1762,1935 c 0,-24.85 -20.15,-45 -45,-45 -24.85,0 -45,20.15 -45,45 0,24.85 20.15,45 45,45 24.85,0 45,-20.15 45,-45 z"
       style="fill:none;stroke:#000000;stroke-width:9;stroke-linecap:butt;stroke-linejoin:bevel;stroke-miterlimit:10;stroke-dasharray:none;stroke-opacity:1"
       transform="matrix(0.13333333,0,0,-0.13333333,0,512)" />
    <path
       id="path34"
       d="m 1042,1935 c 0,-24.85 -20.15,-45 -45,-45 -24.852,0 -45,20.15 -45,45 0,24.85 20.148,45 45,45 24.85,0 45,-20.15 45,-45"
       style="fill:#ff0000;fill-opacity:1;fill-rule:evenodd;stroke:none"
       transform="matrix(0.13333333,0,0,-0.13333333,0,512)" />
    <path
       id="path35"
       d="m 1042,1935 c 0,-24.85 -20.15,-45 -45,-45 -24.852,0 -45,20.15 -45,45 0,24.85 20.148,45 45,45 24.85,0 45,-20.15 45,-45 z"
       style="fill:none;stroke:#000000;stroke-width:9;stroke-linecap:butt;stroke-linejoin:bevel;stroke-miterlimit:10;stroke-dasharray:none;stroke-opacity:1"
       transform="matrix(0.13333333,0,0,-0.13333333,0,512)" />
    <path
       id="path36"
       d="m 4642,1935 c 0,-24.85 -20.15,-45 -45,-45 -24.85,0 -45,20.15 -45,45 0,24.85 20.15,45 45,45 24.85,0 45,-20.15 45,-45"
       style="fill:#ff0000;fill-opacity:1;fill-rule:evenodd;stroke:none"
       transform="matrix(0.13333333,0,0,-0.13333333,0,512)" />
    <path
       id="path37"
       d="m 4642,1935 c 0,-24.85 -20.15,-45 -45,-45 -24.85,0 -45,20.15 -45,45 0,24.85 20.15,45 45,45 24.85,0 45,-20.15 45,-45 z"
       style="fill:none;stroke:#000000;stroke-width:9;stroke-linecap:butt;stroke-linejoin:bevel;stroke-miterlimit:10;stroke-dasharray:none;stroke-opacity:1"
       transform="matrix(0.13333333,0,0,-0.13333333,0,512)" />
    <path
       id="path38"
       d="m 322,1935 c 0,-24.85 -20.148,-45 -45,-45 -24.852,0 -45,20.15 -45,45 0,24.85 20.148,45 45,45 24.852,0 45,-20.15 45,-45"
       style="fill:#ff0000;fill-opacity:1;fill-rule:evenodd;stroke:none"
       transform="matrix(0.13333333,0,0,-0.13333333,0,512)" />
    <path
       id="path39"
       d="m 322,1935 c 0,-24.85 -20.148,-45 -45,-45 -24.852,0 -45,20.15 -45,45 0,24.85 20.148,45 45,45 24.852,0 45,-20.15 45,-45 z"
       style="fill:none;stroke:#000000;stroke-width:9;stroke-linecap:butt;stroke-linejoin:bevel;stroke-miterlimit:10;stroke-dasharray:none;stroke-opacity:1"
       transform="matrix(0.13333333,0,0,-0.13333333,0,512)" />
    <path
       id="path40"
       d="m 3922,1935 c 0,-24.85 -20.15,-45 -45,-45 -24.85,0 -45,20.15 -45,45 0,24.85 20.15,45 45,45 24.85,0 45,-20.15 45,-45"
       style="fill:#ff0000;fill-opacity:1;fill-rule:evenodd;stroke:none"
       transform="matrix(0.13333333,0,0,-0.13333333,0,512)" />
    <path
       id="path41"
       d="m 3922,1935 c 0,-24.85 -20.15,-45 -45,-45 -24.85,0 -45,20.15 -45,45 0,24.85 20.15,45 45,45 24.85,0 45,-20.15 45,-45 z"
       style="fill:none;stroke:#000000;stroke-width:9;stroke-linecap:butt;stroke-linejoin:bevel;stroke-miterlimit:10;stroke-dasharray:none;stroke-opacity:1"
       transform="matrix(0.13333333,0,0,-0.13333333,0,512)" />
    <path
       id="path42"
       d="m 2482,1935 c 0,-24.85 -20.15,-45 -45,-45 -24.85,0 -45,20.15 -45,45 0,24.85 20.15,45 45,45 24.85,0 45,-20.15 45,-45"
       style="fill:#ff0000;fill-opacity:1;fill-rule:evenodd;stroke:none"
       transform="matrix(0.13333333,0,0,-0.13333333,0,512)" />
    <path
       id="path43"
       d="m 2482,1935 c 0,-24.85 -20.15,-45 -45,-45 -24.85,0 -45,20.15 -45,45 0,24.85 20.15,45 45,45 24.85,0 45,-20.15 45,-45 z"
       style="fill:none;stroke:#000000;stroke-width:9;stroke-linecap:butt;stroke-linejoin:bevel;stroke-miterlimit:10;stroke-dasharray:none;stroke-opacity:1"
       transform="matrix(0.13333333,0,0,-0.13333333,0,512)" />
  </g>
</svg>
