<?xml version="1.0" encoding="UTF-8" standalone="no"?>
<!-- Created with Inkscape (http://www.inkscape.org/) -->

<svg
   version="1.1"
   id="svg1"
   width="664.79999"
   height="638.15997"
   viewBox="0 0 664.79999 638.15997"
   sodipodi:docname="5vennQuadrangulatedThick.svg"
   inkscape:version="1.3.2 (091e20e, 2023-11-25, custom)"
   xmlns:inkscape="http://www.inkscape.org/namespaces/inkscape"
   xmlns:sodipodi="http://sodipodi.sourceforge.net/DTD/sodipodi-0.dtd"
   xmlns="http://www.w3.org/2000/svg"
   xmlns:svg="http://www.w3.org/2000/svg">
  <defs
     id="defs1" />
  <sodipodi:namedview
     id="namedview1"
     pagecolor="#ffffff"
     bordercolor="#000000"
     borderopacity="0.25"
     inkscape:showpageshadow="2"
     inkscape:pageopacity="0.0"
     inkscape:pagecheckerboard="0"
     inkscape:deskcolor="#d1d1d1"
     inkscape:zoom="2.1640342"
     inkscape:cx="332.24984"
     inkscape:cy="393.01597"
     inkscape:window-width="3840"
     inkscape:window-height="1577"
     inkscape:window-x="-8"
     inkscape:window-y="-8"
     inkscape:window-maximized="1"
     inkscape:current-layer="layer6">
    <inkscape:page
       x="0"
       y="0"
       inkscape:label="1"
       id="page1"
       width="664.79999"
       height="638.15997"
       margin="0"
       bleed="0" />
  </sodipodi:namedview>
  <g
     inkscape:groupmode="layer"
     id="layer6"
     inkscape:label="Dual Edges">
    <path
       id="path1"
       d="m 1378.05,2943.26 c -19.11,-94.75 -28.73,-191.18 -28.73,-287.84 0,-169.02 29.42,-336.75 86.96,-495.68"
       style="fill:none;stroke:#00ff00;stroke-width:30.00000075;stroke-linecap:butt;stroke-linejoin:miter;stroke-miterlimit:10;stroke-dasharray:none;stroke-opacity:1"
       transform="matrix(0.13333333,0,0,-0.13333333,0,638.16)" />
    <path
       id="path2"
       d="m 3339.3,2763.38 c 233.93,-133.97 417.42,-341 522.32,-589.33"
       style="fill:none;stroke:#00ff00;stroke-width:30.00000075;stroke-linecap:butt;stroke-linejoin:miter;stroke-miterlimit:10;stroke-dasharray:none;stroke-opacity:1"
       transform="matrix(0.13333333,0,0,-0.13333333,0,638.16)" />
    <path
       id="path3"
       d="M 3363.4,1553.84 C 3271.19,1307.2 3134.02,1079.8 2958.85,883.199"
       style="fill:none;stroke:#00ff00;stroke-width:30.00000075;stroke-linecap:butt;stroke-linejoin:miter;stroke-miterlimit:10;stroke-dasharray:none;stroke-opacity:1"
       transform="matrix(0.13333333,0,0,-0.13333333,0,638.16)" />
    <path
       id="path4"
       d="m 2175.37,1174.23 c -33.49,-2.58 -67.06,-3.87 -100.65,-3.87 -235.71,0 -467.07,63.51 -669.75,183.85"
       style="fill:none;stroke:#00ff00;stroke-width:30.00000075;stroke-linecap:butt;stroke-linejoin:miter;stroke-miterlimit:10;stroke-dasharray:none;stroke-opacity:1"
       transform="matrix(0.13333333,0,0,-0.13333333,0,638.16)" />
    <path
       id="path5"
       d="m 2822.8,3159 787.2,-202.2 9,-4.8"
       style="fill:none;stroke:#00ff00;stroke-width:30.00000075;stroke-linecap:butt;stroke-linejoin:miter;stroke-miterlimit:10;stroke-dasharray:none;stroke-opacity:1"
       transform="matrix(0.13333333,0,0,-0.13333333,0,638.16)" />
    <path
       id="path6"
       d="m 2503,2889 841.8,-117"
       style="fill:none;stroke:#00ff00;stroke-width:30.00000075;stroke-linecap:butt;stroke-linejoin:miter;stroke-miterlimit:10;stroke-dasharray:none;stroke-opacity:1"
       transform="matrix(0.13333333,0,0,-0.13333333,0,638.16)" />
    <path
       id="path7"
       d="m 3529,2160 94.8,-810"
       style="fill:none;stroke:#00ff00;stroke-width:30.00000075;stroke-linecap:butt;stroke-linejoin:miter;stroke-miterlimit:10;stroke-dasharray:none;stroke-opacity:1"
       transform="matrix(0.13333333,0,0,-0.13333333,0,638.16)" />
    <path
       id="path8"
       d="M 3187,2371.2 3362.8,1557"
       style="fill:none;stroke:#00ff00;stroke-width:30.00000075;stroke-linecap:butt;stroke-linejoin:miter;stroke-miterlimit:10;stroke-dasharray:none;stroke-opacity:1"
       transform="matrix(0.13333333,0,0,-0.13333333,0,638.16)" />
    <path
       id="path9"
       d="M 2849.8,1188 2071,873"
       style="fill:none;stroke:#00ff00;stroke-width:30.00000075;stroke-linecap:butt;stroke-linejoin:miter;stroke-miterlimit:10;stroke-dasharray:none;stroke-opacity:1"
       transform="matrix(0.13333333,0,0,-0.13333333,0,638.16)" />
    <path
       id="path10"
       d="M 2939.8,1579.2 2170,1170"
       style="fill:none;stroke:#00ff00;stroke-width:30.00000075;stroke-linecap:butt;stroke-linejoin:miter;stroke-miterlimit:10;stroke-dasharray:none;stroke-opacity:1"
       transform="matrix(0.13333333,0,0,-0.13333333,0,638.16)" />
    <path
       id="path11"
       d="M 1121.8,2169 1666,1561.2"
       style="fill:none;stroke:#00ff00;stroke-width:30.00000075;stroke-linecap:butt;stroke-linejoin:miter;stroke-miterlimit:10;stroke-dasharray:none;stroke-opacity:1"
       transform="matrix(0.13333333,0,0,-0.13333333,0,638.16)" />
    <path
       id="path12"
       d="m 1441,2164.2 634.8,-567"
       style="fill:none;stroke:#00ff00;stroke-width:30.00000075;stroke-linecap:butt;stroke-linejoin:miter;stroke-miterlimit:10;stroke-dasharray:none;stroke-opacity:1"
       transform="matrix(0.13333333,0,0,-0.13333333,0,638.16)" />
    <path
       id="path13"
       d="M 2093.8,3474 1643.2,2754"
       style="fill:none;stroke:#00ff00;stroke-width:30.00000075;stroke-linecap:butt;stroke-linejoin:miter;stroke-miterlimit:10;stroke-dasharray:none;stroke-opacity:1"
       transform="matrix(0.13333333,0,0,-0.13333333,0,638.16)" />
    <path
       id="path14"
       d="M 2179,3159 1796.2,2385"
       style="fill:none;stroke:#00ff00;stroke-width:30.00000075;stroke-linecap:butt;stroke-linejoin:miter;stroke-miterlimit:10;stroke-dasharray:none;stroke-opacity:1"
       transform="matrix(0.13333333,0,0,-0.13333333,0,638.16)" />
    <path
       id="path15"
       d="M 2902.09,3469.08 C 2634.81,3443.81 2381.3,3338.8 2174.45,3167.68"
       style="fill:none;stroke:#00ff00;stroke-width:30.00000075;stroke-linecap:butt;stroke-linejoin:miter;stroke-miterlimit:10;stroke-dasharray:none;stroke-opacity:1"
       transform="matrix(0.13333333,0,0,-0.13333333,0,638.16)" />
    <path
       id="path16"
       d="m 1435.67,708.166 c -351.82,120.456 -588.19,451.214 -588.19,823.094 0,246.57 104.623,481.55 287.86,646.54"
       style="fill:none;stroke:#00ff00;stroke-width:30.00000075;stroke-linecap:butt;stroke-linejoin:miter;stroke-miterlimit:10;stroke-dasharray:none;stroke-opacity:1"
       transform="matrix(0.13333333,0,0,-0.13333333,0,638.16)" />
    <path
       id="path17"
       d="m 2503.36,3964.33 c 82.87,25.49 169.08,38.45 255.78,38.45 480.42,0 869.88,-389.46 869.88,-869.88 0,-60.78 -6.37,-121.4 -19.01,-180.86"
       style="fill:none;stroke:#00ff00;stroke-width:30.00000075;stroke-linecap:butt;stroke-linejoin:miter;stroke-miterlimit:10;stroke-dasharray:none;stroke-opacity:1"
       transform="matrix(0.13333333,0,0,-0.13333333,0,638.16)" />
    <path
       id="path18"
       d="m 4227.4,2724.01 c 102.97,-146.51 158.22,-321.22 158.22,-500.29 0,-445.31 -336.24,-818.75 -779.11,-865.29"
       style="fill:none;stroke:#00ff00;stroke-width:30.00000075;stroke-linecap:butt;stroke-linejoin:miter;stroke-miterlimit:10;stroke-dasharray:none;stroke-opacity:1"
       transform="matrix(0.13333333,0,0,-0.13333333,0,638.16)" />
    <path
       id="path19"
       d="m 473.68872,543.74614 c -21.90533,29.17493 -56.26133,46.34186 -92.744,46.34186 -45.80533,0 -87.31866,-26.95946 -105.94933,-68.8044"
       style="fill:none;stroke:#00ff00;stroke-width:4;stroke-linecap:butt;stroke-linejoin:miter;stroke-miterlimit:10;stroke-dasharray:none;stroke-opacity:1" />
    <path
       id="path20"
       d="m 102.6832,273.93544 c 0.9952,-63.33733 52.6244,-114.16133 115.96973,-114.16133 20.36,0 40.36,5.35867 57.992,15.53867"
       style="fill:none;stroke:#00ff00;stroke-width:4;stroke-linecap:butt;stroke-linejoin:miter;stroke-miterlimit:10;stroke-dasharray:none;stroke-opacity:1" />
    <path
       id="path21"
       d="m 1406.8,1353.6 36.6,-638.4"
       style="fill:none;stroke:#ff0000;stroke-width:30.00000075;stroke-linecap:butt;stroke-linejoin:miter;stroke-miterlimit:10;stroke-dasharray:none;stroke-opacity:1"
       transform="matrix(0.13333333,0,0,-0.13333333,0,638.16)" />
    <path
       id="path22"
       d="m 2077.6,1588.2 -412.8,-33"
       style="fill:none;stroke:#ff0000;stroke-width:30.00000075;stroke-linecap:butt;stroke-linejoin:miter;stroke-miterlimit:10;stroke-dasharray:none;stroke-opacity:1"
       transform="matrix(0.13333333,0,0,-0.13333333,0,638.16)" />
    <path
       id="path23"
       d="m 1121.2,2172 327.6,-12"
       style="fill:none;stroke:#ff0000;stroke-width:30.00000075;stroke-linecap:butt;stroke-linejoin:miter;stroke-miterlimit:10;stroke-dasharray:none;stroke-opacity:1"
       transform="matrix(0.13333333,0,0,-0.13333333,0,638.16)" />
    <path
       id="path24"
       d="M 1120,2167.2 774.4,2705.4"
       style="fill:none;stroke:#ff0000;stroke-width:30.00000075;stroke-linecap:butt;stroke-linejoin:miter;stroke-miterlimit:10;stroke-dasharray:none;stroke-opacity:1"
       transform="matrix(0.13333333,0,0,-0.13333333,0,638.16)" />
    <path
       id="path25"
       d="m 1799.8,2382 -354,-216.6"
       style="fill:none;stroke:#ff0000;stroke-width:30.00000075;stroke-linecap:butt;stroke-linejoin:miter;stroke-miterlimit:10;stroke-dasharray:none;stroke-opacity:1"
       transform="matrix(0.13333333,0,0,-0.13333333,0,638.16)" />
    <path
       id="path26"
       d="M 1373.2,2946 1645,2763"
       style="fill:none;stroke:#ff0000;stroke-width:30.00000075;stroke-linecap:butt;stroke-linejoin:miter;stroke-miterlimit:10;stroke-dasharray:none;stroke-opacity:1"
       transform="matrix(0.13333333,0,0,-0.13333333,0,638.16)" />
    <path
       id="path27"
       d="M 3574,719.4 4050.4,64.2002"
       style="fill:none;stroke:#ff0000;stroke-width:30.00000075;stroke-linecap:butt;stroke-linejoin:miter;stroke-miterlimit:10;stroke-dasharray:none;stroke-opacity:1"
       transform="matrix(0.13333333,0,0,-0.13333333,0,638.16)" />
    <path
       id="path28"
       d="M 2955.4,881.4 3574,719.4"
       style="fill:none;stroke:#ff0000;stroke-width:30.00000075;stroke-linecap:butt;stroke-linejoin:miter;stroke-miterlimit:10;stroke-dasharray:none;stroke-opacity:1"
       transform="matrix(0.13333333,0,0,-0.13333333,0,638.16)" />
    <path
       id="path29"
       d="m 2087.8,3474 90,-315"
       style="fill:none;stroke:#ff0000;stroke-width:30.00000075;stroke-linecap:butt;stroke-linejoin:miter;stroke-miterlimit:10;stroke-dasharray:none;stroke-opacity:1"
       transform="matrix(0.13333333,0,0,-0.13333333,0,638.16)" />
    <path
       id="path30"
       d="m 2083,3474 405,495"
       style="fill:none;stroke:#ff0000;stroke-width:30.00000075;stroke-linecap:butt;stroke-linejoin:miter;stroke-miterlimit:10;stroke-dasharray:none;stroke-opacity:1"
       transform="matrix(0.13333333,0,0,-0.13333333,0,638.16)" />
    <path
       id="path31"
       d="m 2497,2893.8 -315,270"
       style="fill:none;stroke:#ff0000;stroke-width:30.00000075;stroke-linecap:butt;stroke-linejoin:miter;stroke-miterlimit:10;stroke-dasharray:none;stroke-opacity:1"
       transform="matrix(0.13333333,0,0,-0.13333333,0,638.16)" />
    <path
       id="path32"
       d="M 777.4,2713.8 7,2964"
       style="fill:none;stroke:#ff0000;stroke-width:30.00000075;stroke-linecap:butt;stroke-linejoin:miter;stroke-miterlimit:10;stroke-dasharray:none;stroke-opacity:1"
       transform="matrix(0.13333333,0,0,-0.13333333,0,638.16)" />
    <path
       id="path33"
       d="m 2902,3474 -90,-315"
       style="fill:none;stroke:#ff0000;stroke-width:30.00000075;stroke-linecap:butt;stroke-linejoin:miter;stroke-miterlimit:10;stroke-dasharray:none;stroke-opacity:1"
       transform="matrix(0.13333333,0,0,-0.13333333,0,638.16)" />
    <path
       id="path34"
       d="m 2902,3474 -405,495"
       style="fill:none;stroke:#ff0000;stroke-width:30.00000075;stroke-linecap:butt;stroke-linejoin:miter;stroke-miterlimit:10;stroke-dasharray:none;stroke-opacity:1"
       transform="matrix(0.13333333,0,0,-0.13333333,0,638.16)" />
    <path
       id="path35"
       d="m 2939.2,1593 -95.4,-403.8"
       style="fill:none;stroke:#ff0000;stroke-width:30.00000075;stroke-linecap:butt;stroke-linejoin:miter;stroke-miterlimit:10;stroke-dasharray:none;stroke-opacity:1"
       transform="matrix(0.13333333,0,0,-0.13333333,0,638.16)" />
    <path
       id="path36"
       d="m 3611.2,2950.2 -271.8,-183"
       style="fill:none;stroke:#ff0000;stroke-width:30.00000075;stroke-linecap:butt;stroke-linejoin:miter;stroke-miterlimit:10;stroke-dasharray:none;stroke-opacity:1"
       transform="matrix(0.13333333,0,0,-0.13333333,0,638.16)" />
    <path
       id="path37"
       d="m 3609.4,2954.4 595.8,-232.2"
       style="fill:none;stroke:#ff0000;stroke-width:30.00000075;stroke-linecap:butt;stroke-linejoin:miter;stroke-miterlimit:10;stroke-dasharray:none;stroke-opacity:1"
       transform="matrix(0.13333333,0,0,-0.13333333,0,638.16)" />
    <path
       id="path38"
       d="m 3185.8,2381.4 159.6,383.4"
       style="fill:none;stroke:#ff0000;stroke-width:30.00000075;stroke-linecap:butt;stroke-linejoin:miter;stroke-miterlimit:10;stroke-dasharray:none;stroke-opacity:1"
       transform="matrix(0.13333333,0,0,-0.13333333,0,638.16)" />
    <path
       id="path39"
       d="M 3862.6,2175.6 3535,2164.2"
       style="fill:none;stroke:#ff0000;stroke-width:30.00000075;stroke-linecap:butt;stroke-linejoin:miter;stroke-miterlimit:10;stroke-dasharray:none;stroke-opacity:1"
       transform="matrix(0.13333333,0,0,-0.13333333,0,638.16)" />
    <path
       id="path51"
       d="m 1406.8,1353.6 258,201.6"
       style="fill:none;stroke:#ff0000;stroke-width:30.00000075;stroke-linecap:butt;stroke-linejoin:miter;stroke-miterlimit:10;stroke-dasharray:none;stroke-opacity:1"
       transform="matrix(0.13333333,0,0,-0.13333333,0,638.16)" />
    <path
       id="path52"
       d="M 1443.4,715.2 967,60.0002"
       style="fill:none;stroke:#ff0000;stroke-width:30.00000075;stroke-linecap:butt;stroke-linejoin:miter;stroke-miterlimit:10;stroke-dasharray:none;stroke-opacity:1"
       transform="matrix(0.13333333,0,0,-0.13333333,0,638.16)" />
    <path
       id="path53"
       d="M 1804,2380.2 1645,2763"
       style="fill:none;stroke:#ff0000;stroke-width:30.00000075;stroke-linecap:butt;stroke-linejoin:miter;stroke-miterlimit:10;stroke-dasharray:none;stroke-opacity:1"
       transform="matrix(0.13333333,0,0,-0.13333333,0,638.16)" />
    <path
       id="path54"
       d="m 3614.2,1360.2 -258,201.6"
       style="fill:none;stroke:#ff0000;stroke-width:30.00000075;stroke-linecap:butt;stroke-linejoin:miter;stroke-miterlimit:10;stroke-dasharray:none;stroke-opacity:1"
       transform="matrix(0.13333333,0,0,-0.13333333,0,638.16)" />
    <path
       id="path55"
       d="m 2497,2889 315,270"
       style="fill:none;stroke:#ff0000;stroke-width:30.00000075;stroke-linecap:butt;stroke-linejoin:miter;stroke-miterlimit:10;stroke-dasharray:none;stroke-opacity:1"
       transform="matrix(0.13333333,0,0,-0.13333333,0,638.16)" />
    <path
       id="path56"
       d="m 2497,2169 v 720"
       style="fill:none;stroke:#ff0000;stroke-width:30.00000075;stroke-linecap:butt;stroke-linejoin:miter;stroke-miterlimit:10;stroke-dasharray:none;stroke-opacity:1"
       transform="matrix(0.13333333,0,0,-0.13333333,0,638.16)" />
    <path
       id="path57"
       d="m 2497,2169 -684.6,222.6"
       style="fill:none;stroke:#ff0000;stroke-width:30.00000075;stroke-linecap:butt;stroke-linejoin:miter;stroke-miterlimit:10;stroke-dasharray:none;stroke-opacity:1"
       transform="matrix(0.13333333,0,0,-0.13333333,0,638.16)" />
    <path
       id="path58"
       d="m 2497,2169 438,-585"
       style="fill:none;stroke:#ff0000;stroke-width:30.00000075;stroke-linecap:butt;stroke-linejoin:miter;stroke-miterlimit:10;stroke-dasharray:none;stroke-opacity:1"
       transform="matrix(0.13333333,0,0,-0.13333333,0,638.16)" />
    <path
       id="path59"
       d="m 2497,2169 685.2,222.6"
       style="fill:none;stroke:#ff0000;stroke-width:30.00000075;stroke-linecap:butt;stroke-linejoin:miter;stroke-miterlimit:10;stroke-dasharray:none;stroke-opacity:1"
       transform="matrix(0.13333333,0,0,-0.13333333,0,638.16)" />
    <path
       id="path60"
       d="M 2497,2169 2074,1586.4"
       style="fill:none;stroke:#ff0000;stroke-width:30.00000075;stroke-linecap:butt;stroke-linejoin:miter;stroke-miterlimit:10;stroke-dasharray:none;stroke-opacity:1"
       transform="matrix(0.13333333,0,0,-0.13333333,0,638.16)" />
    <path
       id="path40"
       d="M 4208.2,2713.8 4978.6,2964"
       style="fill:none;stroke:#ff0000;stroke-width:29.94002932;stroke-linecap:butt;stroke-linejoin:miter;stroke-miterlimit:10;stroke-dasharray:none;stroke-opacity:1"
       transform="matrix(0.13333333,0,0,-0.13333333,0,638.16)" />
    <path
       id="path41"
       d="m 3862.6,2175.6 345.6,538.2"
       style="fill:none;stroke:#ff0000;stroke-width:30.00000075;stroke-linecap:butt;stroke-linejoin:miter;stroke-miterlimit:10;stroke-dasharray:none;stroke-opacity:1"
       transform="matrix(0.13333333,0,0,-0.13333333,0,638.16)" />
    <path
       id="path42"
       d="m 3181,2380.2 354,-216"
       style="fill:none;stroke:#ff0000;stroke-width:30.00000075;stroke-linecap:butt;stroke-linejoin:miter;stroke-miterlimit:10;stroke-dasharray:none;stroke-opacity:1"
       transform="matrix(0.13333333,0,0,-0.13333333,0,638.16)" />
    <path
       id="path43"
       d="m 2065,874.8 112.2,307.8"
       style="fill:none;stroke:#ff0000;stroke-width:30.00000075;stroke-linecap:butt;stroke-linejoin:miter;stroke-miterlimit:10;stroke-dasharray:none;stroke-opacity:1"
       transform="matrix(0.13333333,0,0,-0.13333333,0,638.16)" />
    <path
       id="path44"
       d="m 2069.2,871.8 -618.6,-162"
       style="fill:none;stroke:#ff0000;stroke-width:30.00000075;stroke-linecap:butt;stroke-linejoin:miter;stroke-miterlimit:10;stroke-dasharray:none;stroke-opacity:1"
       transform="matrix(0.13333333,0,0,-0.13333333,0,638.16)" />
    <path
       id="path45"
       d="m 3617.8,1363.2 -36.6,-639"
       style="fill:none;stroke:#ff0000;stroke-width:30.00000075;stroke-linecap:butt;stroke-linejoin:miter;stroke-miterlimit:10;stroke-dasharray:none;stroke-opacity:1"
       transform="matrix(0.13333333,0,0,-0.13333333,0,638.16)" />
    <path
       id="path46"
       d="m 2942.2,1588.8 414,-33"
       style="fill:none;stroke:#ff0000;stroke-width:30.00000075;stroke-linecap:butt;stroke-linejoin:miter;stroke-miterlimit:10;stroke-dasharray:none;stroke-opacity:1"
       transform="matrix(0.13333333,0,0,-0.13333333,0,638.16)" />
    <path
       id="path47"
       d="m 2955.4,881.4 -111.6,307.8"
       style="fill:none;stroke:#ff0000;stroke-width:30.00000075;stroke-linecap:butt;stroke-linejoin:miter;stroke-miterlimit:10;stroke-dasharray:none;stroke-opacity:1"
       transform="matrix(0.13333333,0,0,-0.13333333,0,638.16)" />
    <path
       id="path48"
       d="m 2497,3969 v 810"
       style="fill:none;stroke:#ff0000;stroke-width:30.00000075;stroke-linecap:butt;stroke-linejoin:miter;stroke-miterlimit:10;stroke-dasharray:none;stroke-opacity:1"
       transform="matrix(0.13333333,0,0,-0.13333333,0,638.16)" />
    <path
       id="path49"
       d="M 1373.2,2946 777.4,2713.8"
       style="fill:none;stroke:#ff0000;stroke-width:30.00000075;stroke-linecap:butt;stroke-linejoin:miter;stroke-miterlimit:10;stroke-dasharray:none;stroke-opacity:1"
       transform="matrix(0.13333333,0,0,-0.13333333,0,638.16)" />
    <path
       id="path50"
       d="m 2074.6,1585.2 96.6,-403.8"
       style="fill:none;stroke:#ff0000;stroke-width:30.00000075;stroke-linecap:butt;stroke-linejoin:miter;stroke-miterlimit:10;stroke-dasharray:none;stroke-opacity:1"
       transform="matrix(0.13333333,0,0,-0.13333333,0,638.16)" />
  </g>
  <g
     id="g1"
     inkscape:groupmode="layer"
     inkscape:label="1">
    <path
       id="path61"
       d="m 2512.6,2898 c 0,-11.27 -9.13,-20.4 -20.4,-20.4 -11.27,0 -20.4,9.13 -20.4,20.4 0,11.27 9.13,20.4 20.4,20.4 11.27,0 20.4,-9.13 20.4,-20.4"
       style="fill:#ffffff;fill-opacity:1;fill-rule:evenodd;stroke:none"
       transform="matrix(0.13333333,0,0,-0.13333333,0,638.16)" />
    <path
       id="path62"
       d="m 2512.6,2898 c 0,-11.27 -9.13,-20.4 -20.4,-20.4 -11.27,0 -20.4,9.13 -20.4,20.4 0,11.27 9.13,20.4 20.4,20.4 11.27,0 20.4,-9.13 20.4,-20.4 z"
       style="fill:none;stroke:#000000;stroke-width:4.5;stroke-linecap:butt;stroke-linejoin:miter;stroke-miterlimit:10;stroke-dasharray:none;stroke-opacity:1"
       transform="matrix(0.13333333,0,0,-0.13333333,0,638.16)" />
    <path
       id="path63"
       d="m 1685.2,1557 c 0,-11.27 -9.13,-20.4 -20.4,-20.4 -11.27,0 -20.4,9.13 -20.4,20.4 0,11.27 9.13,20.4 20.4,20.4 11.27,0 20.4,-9.13 20.4,-20.4"
       style="fill:#ffffff;fill-opacity:1;fill-rule:evenodd;stroke:none"
       transform="matrix(0.13333333,0,0,-0.13333333,0,638.16)" />
    <path
       id="path64"
       d="m 1685.2,1557 c 0,-11.27 -9.13,-20.4 -20.4,-20.4 -11.27,0 -20.4,9.13 -20.4,20.4 0,11.27 9.13,20.4 20.4,20.4 11.27,0 20.4,-9.13 20.4,-20.4 z"
       style="fill:none;stroke:#000000;stroke-width:4.5;stroke-linecap:butt;stroke-linejoin:miter;stroke-miterlimit:10;stroke-dasharray:none;stroke-opacity:1"
       transform="matrix(0.13333333,0,0,-0.13333333,0,638.16)" />
    <path
       id="path65"
       d="m 2193.4,1179 c 0,-11.27 -9.13,-20.4 -20.4,-20.4 -11.27,0 -20.4,9.13 -20.4,20.4 0,11.27 9.13,20.4 20.4,20.4 11.27,0 20.4,-9.13 20.4,-20.4"
       style="fill:#ffffff;fill-opacity:1;fill-rule:evenodd;stroke:none"
       transform="matrix(0.13333333,0,0,-0.13333333,0,638.16)" />
    <path
       id="path66"
       d="m 2193.4,1179 c 0,-11.27 -9.13,-20.4 -20.4,-20.4 -11.27,0 -20.4,9.13 -20.4,20.4 0,11.27 9.13,20.4 20.4,20.4 11.27,0 20.4,-9.13 20.4,-20.4 z"
       style="fill:none;stroke:#000000;stroke-width:4.5;stroke-linecap:butt;stroke-linejoin:miter;stroke-miterlimit:10;stroke-dasharray:none;stroke-opacity:1"
       transform="matrix(0.13333333,0,0,-0.13333333,0,638.16)" />
    <path
       id="path67"
       d="m 2081.2,868.2 c 0,-11.266 -9.13,-20.4 -20.4,-20.4 -11.27,0 -20.4,9.134 -20.4,20.4 0,11.267 9.13,20.4 20.4,20.4 11.27,0 20.4,-9.133 20.4,-20.4"
       style="fill:#ffffff;fill-opacity:1;fill-rule:evenodd;stroke:none"
       transform="matrix(0.13333333,0,0,-0.13333333,0,638.16)" />
    <path
       id="path68"
       d="m 2081.2,868.2 c 0,-11.266 -9.13,-20.4 -20.4,-20.4 -11.27,0 -20.4,9.134 -20.4,20.4 0,11.267 9.13,20.4 20.4,20.4 11.27,0 20.4,-9.133 20.4,-20.4 z"
       style="fill:none;stroke:#000000;stroke-width:4.5;stroke-linecap:butt;stroke-linejoin:miter;stroke-miterlimit:10;stroke-dasharray:none;stroke-opacity:1"
       transform="matrix(0.13333333,0,0,-0.13333333,0,638.16)" />
    <path
       id="path69"
       d="m 1464.4,2160 c 0,-11.27 -9.13,-20.4 -20.4,-20.4 -11.27,0 -20.4,9.13 -20.4,20.4 0,11.27 9.13,20.4 20.4,20.4 11.27,0 20.4,-9.13 20.4,-20.4"
       style="fill:#ffffff;fill-opacity:1;fill-rule:evenodd;stroke:none"
       transform="matrix(0.13333333,0,0,-0.13333333,0,638.16)" />
    <path
       id="path70"
       d="m 1464.4,2160 c 0,-11.27 -9.13,-20.4 -20.4,-20.4 -11.27,0 -20.4,9.13 -20.4,20.4 0,11.27 9.13,20.4 20.4,20.4 11.27,0 20.4,-9.13 20.4,-20.4 z"
       style="fill:none;stroke:#000000;stroke-width:4.5;stroke-linecap:butt;stroke-linejoin:miter;stroke-miterlimit:10;stroke-dasharray:none;stroke-opacity:1"
       transform="matrix(0.13333333,0,0,-0.13333333,0,638.16)" />
    <path
       id="path71"
       d="m 3561.4,2164.2 c 0,-11.27 -9.13,-20.4 -20.4,-20.4 -11.27,0 -20.4,9.13 -20.4,20.4 0,11.27 9.13,20.4 20.4,20.4 11.27,0 20.4,-9.13 20.4,-20.4"
       style="fill:#ffffff;fill-opacity:1;fill-rule:evenodd;stroke:none"
       transform="matrix(0.13333333,0,0,-0.13333333,0,638.16)" />
    <path
       id="path72"
       d="m 3561.4,2164.2 c 0,-11.27 -9.13,-20.4 -20.4,-20.4 -11.27,0 -20.4,9.13 -20.4,20.4 0,11.27 9.13,20.4 20.4,20.4 11.27,0 20.4,-9.13 20.4,-20.4 z"
       style="fill:none;stroke:#000000;stroke-width:4.5;stroke-linecap:butt;stroke-linejoin:miter;stroke-miterlimit:10;stroke-dasharray:none;stroke-opacity:1"
       transform="matrix(0.13333333,0,0,-0.13333333,0,638.16)" />
    <path
       id="path73"
       d="m 3885.4,2173.2 c 0,-11.27 -9.13,-20.4 -20.4,-20.4 -11.27,0 -20.4,9.13 -20.4,20.4 0,11.27 9.13,20.4 20.4,20.4 11.27,0 20.4,-9.13 20.4,-20.4"
       style="fill:#ffffff;fill-opacity:1;fill-rule:evenodd;stroke:none"
       transform="matrix(0.13333333,0,0,-0.13333333,0,638.16)" />
    <path
       id="path74"
       d="m 3885.4,2173.2 c 0,-11.27 -9.13,-20.4 -20.4,-20.4 -11.27,0 -20.4,9.13 -20.4,20.4 0,11.27 9.13,20.4 20.4,20.4 11.27,0 20.4,-9.13 20.4,-20.4 z"
       style="fill:none;stroke:#000000;stroke-width:4.5;stroke-linecap:butt;stroke-linejoin:miter;stroke-miterlimit:10;stroke-dasharray:none;stroke-opacity:1"
       transform="matrix(0.13333333,0,0,-0.13333333,0,638.16)" />
    <path
       id="path75"
       d="m 4231.6,2718 c 0,-11.27 -9.13,-20.4 -20.4,-20.4 -11.27,0 -20.4,9.13 -20.4,20.4 0,11.27 9.13,20.4 20.4,20.4 11.27,0 20.4,-9.13 20.4,-20.4"
       style="fill:#ffffff;fill-opacity:1;fill-rule:evenodd;stroke:none"
       transform="matrix(0.13333333,0,0,-0.13333333,0,638.16)" />
    <path
       id="path76"
       d="m 4231.6,2718 c 0,-11.27 -9.13,-20.4 -20.4,-20.4 -11.27,0 -20.4,9.13 -20.4,20.4 0,11.27 9.13,20.4 20.4,20.4 11.27,0 20.4,-9.13 20.4,-20.4 z"
       style="fill:none;stroke:#000000;stroke-width:4.5;stroke-linecap:butt;stroke-linejoin:miter;stroke-miterlimit:10;stroke-dasharray:none;stroke-opacity:1"
       transform="matrix(0.13333333,0,0,-0.13333333,0,638.16)" />
    <path
       id="path77"
       d="m 3629.2,2952 c 0,-11.27 -9.13,-20.4 -20.4,-20.4 -11.27,0 -20.4,9.13 -20.4,20.4 0,11.27 9.13,20.4 20.4,20.4 11.27,0 20.4,-9.13 20.4,-20.4"
       style="fill:#ffffff;fill-opacity:1;fill-rule:evenodd;stroke:none"
       transform="matrix(0.13333333,0,0,-0.13333333,0,638.16)" />
    <path
       id="path78"
       d="m 3629.2,2952 c 0,-11.27 -9.13,-20.4 -20.4,-20.4 -11.27,0 -20.4,9.13 -20.4,20.4 0,11.27 9.13,20.4 20.4,20.4 11.27,0 20.4,-9.13 20.4,-20.4 z"
       style="fill:none;stroke:#000000;stroke-width:4.5;stroke-linecap:butt;stroke-linejoin:miter;stroke-miterlimit:10;stroke-dasharray:none;stroke-opacity:1"
       transform="matrix(0.13333333,0,0,-0.13333333,0,638.16)" />
    <path
       id="path79"
       d="m 3368.2,2758.8 c 0,-11.27 -9.13,-20.4 -20.4,-20.4 -11.27,0 -20.4,9.13 -20.4,20.4 0,11.27 9.13,20.4 20.4,20.4 11.27,0 20.4,-9.13 20.4,-20.4"
       style="fill:#ffffff;fill-opacity:1;fill-rule:evenodd;stroke:none"
       transform="matrix(0.13333333,0,0,-0.13333333,0,638.16)" />
    <path
       id="path80"
       d="m 3368.2,2758.8 c 0,-11.27 -9.13,-20.4 -20.4,-20.4 -11.27,0 -20.4,9.13 -20.4,20.4 0,11.27 9.13,20.4 20.4,20.4 11.27,0 20.4,-9.13 20.4,-20.4 z"
       style="fill:none;stroke:#000000;stroke-width:4.5;stroke-linecap:butt;stroke-linejoin:miter;stroke-miterlimit:10;stroke-dasharray:none;stroke-opacity:1"
       transform="matrix(0.13333333,0,0,-0.13333333,0,638.16)" />
    <path
       id="path81"
       d="m 1819.6,2389.2 c 0,-11.27 -9.13,-20.4 -20.4,-20.4 -11.27,0 -20.4,9.13 -20.4,20.4 0,11.27 9.13,20.4 20.4,20.4 11.27,0 20.4,-9.13 20.4,-20.4"
       style="fill:#ffffff;fill-opacity:1;fill-rule:evenodd;stroke:none"
       transform="matrix(0.13333333,0,0,-0.13333333,0,638.16)" />
    <path
       id="path82"
       d="m 1819.6,2389.2 c 0,-11.27 -9.13,-20.4 -20.4,-20.4 -11.27,0 -20.4,9.13 -20.4,20.4 0,11.27 9.13,20.4 20.4,20.4 11.27,0 20.4,-9.13 20.4,-20.4 z"
       style="fill:none;stroke:#000000;stroke-width:4.5;stroke-linecap:butt;stroke-linejoin:miter;stroke-miterlimit:10;stroke-dasharray:none;stroke-opacity:1"
       transform="matrix(0.13333333,0,0,-0.13333333,0,638.16)" />
    <path
       id="path83"
       d="m 3206.2,2385 c 0,-11.27 -9.13,-20.4 -20.4,-20.4 -11.27,0 -20.4,9.13 -20.4,20.4 0,11.27 9.13,20.4 20.4,20.4 11.27,0 20.4,-9.13 20.4,-20.4"
       style="fill:#ffffff;fill-opacity:1;fill-rule:evenodd;stroke:none"
       transform="matrix(0.13333333,0,0,-0.13333333,0,638.16)" />
    <path
       id="path84"
       d="m 3206.2,2385 c 0,-11.27 -9.13,-20.4 -20.4,-20.4 -11.27,0 -20.4,9.13 -20.4,20.4 0,11.27 9.13,20.4 20.4,20.4 11.27,0 20.4,-9.13 20.4,-20.4 z"
       style="fill:none;stroke:#000000;stroke-width:4.5;stroke-linecap:butt;stroke-linejoin:miter;stroke-miterlimit:10;stroke-dasharray:none;stroke-opacity:1"
       transform="matrix(0.13333333,0,0,-0.13333333,0,638.16)" />
    <path
       id="path85"
       d="m 2836.6,3159 c 0,-11.27 -9.13,-20.4 -20.4,-20.4 -11.27,0 -20.4,9.13 -20.4,20.4 0,11.27 9.13,20.4 20.4,20.4 11.27,0 20.4,-9.13 20.4,-20.4"
       style="fill:#ffffff;fill-opacity:1;fill-rule:evenodd;stroke:none"
       transform="matrix(0.13333333,0,0,-0.13333333,0,638.16)" />
    <path
       id="path86"
       d="m 2836.6,3159 c 0,-11.27 -9.13,-20.4 -20.4,-20.4 -11.27,0 -20.4,9.13 -20.4,20.4 0,11.27 9.13,20.4 20.4,20.4 11.27,0 20.4,-9.13 20.4,-20.4 z"
       style="fill:none;stroke:#000000;stroke-width:4.5;stroke-linecap:butt;stroke-linejoin:miter;stroke-miterlimit:10;stroke-dasharray:none;stroke-opacity:1"
       transform="matrix(0.13333333,0,0,-0.13333333,0,638.16)" />
    <path
       id="path87"
       d="m 2917.6,3483 c 0,-11.27 -9.13,-20.4 -20.4,-20.4 -11.27,0 -20.4,9.13 -20.4,20.4 0,11.27 9.13,20.4 20.4,20.4 11.27,0 20.4,-9.13 20.4,-20.4"
       style="fill:#ffffff;fill-opacity:1;fill-rule:evenodd;stroke:none"
       transform="matrix(0.13333333,0,0,-0.13333333,0,638.16)" />
    <path
       id="path88"
       d="m 2917.6,3483 c 0,-11.27 -9.13,-20.4 -20.4,-20.4 -11.27,0 -20.4,9.13 -20.4,20.4 0,11.27 9.13,20.4 20.4,20.4 11.27,0 20.4,-9.13 20.4,-20.4 z"
       style="fill:none;stroke:#000000;stroke-width:4.5;stroke-linecap:butt;stroke-linejoin:miter;stroke-miterlimit:10;stroke-dasharray:none;stroke-opacity:1"
       transform="matrix(0.13333333,0,0,-0.13333333,0,638.16)" />
    <path
       id="path89"
       d="m 2512.6,3973.8 c 0,-11.27 -9.13,-20.4 -20.4,-20.4 -11.27,0 -20.4,9.13 -20.4,20.4 0,11.27 9.13,20.4 20.4,20.4 11.27,0 20.4,-9.13 20.4,-20.4"
       style="fill:#ffffff;fill-opacity:1;fill-rule:evenodd;stroke:none"
       transform="matrix(0.13333333,0,0,-0.13333333,0,638.16)" />
    <path
       id="path90"
       d="m 2512.6,3973.8 c 0,-11.27 -9.13,-20.4 -20.4,-20.4 -11.27,0 -20.4,9.13 -20.4,20.4 0,11.27 9.13,20.4 20.4,20.4 11.27,0 20.4,-9.13 20.4,-20.4 z"
       style="fill:none;stroke:#000000;stroke-width:4.5;stroke-linecap:butt;stroke-linejoin:miter;stroke-miterlimit:10;stroke-dasharray:none;stroke-opacity:1"
       transform="matrix(0.13333333,0,0,-0.13333333,0,638.16)" />
    <path
       id="path91"
       d="m 2108.2,3478.2 c 0,-11.27 -9.13,-20.4 -20.4,-20.4 -11.27,0 -20.4,9.13 -20.4,20.4 0,11.27 9.13,20.4 20.4,20.4 11.27,0 20.4,-9.13 20.4,-20.4"
       style="fill:#ffffff;fill-opacity:1;fill-rule:evenodd;stroke:none"
       transform="matrix(0.13333333,0,0,-0.13333333,0,638.16)" />
    <path
       id="path92"
       d="m 2108.2,3478.2 c 0,-11.27 -9.13,-20.4 -20.4,-20.4 -11.27,0 -20.4,9.13 -20.4,20.4 0,11.27 9.13,20.4 20.4,20.4 11.27,0 20.4,-9.13 20.4,-20.4 z"
       style="fill:none;stroke:#000000;stroke-width:4.5;stroke-linecap:butt;stroke-linejoin:miter;stroke-miterlimit:10;stroke-dasharray:none;stroke-opacity:1"
       transform="matrix(0.13333333,0,0,-0.13333333,0,638.16)" />
    <path
       id="path93"
       d="m 2198.2,3168 c 0,-11.27 -9.13,-20.4 -20.4,-20.4 -11.27,0 -20.4,9.13 -20.4,20.4 0,11.27 9.13,20.4 20.4,20.4 11.27,0 20.4,-9.13 20.4,-20.4"
       style="fill:#ffffff;fill-opacity:1;fill-rule:evenodd;stroke:none"
       transform="matrix(0.13333333,0,0,-0.13333333,0,638.16)" />
    <path
       id="path94"
       d="m 2198.2,3168 c 0,-11.27 -9.13,-20.4 -20.4,-20.4 -11.27,0 -20.4,9.13 -20.4,20.4 0,11.27 9.13,20.4 20.4,20.4 11.27,0 20.4,-9.13 20.4,-20.4 z"
       style="fill:none;stroke:#000000;stroke-width:4.5;stroke-linecap:butt;stroke-linejoin:miter;stroke-miterlimit:10;stroke-dasharray:none;stroke-opacity:1"
       transform="matrix(0.13333333,0,0,-0.13333333,0,638.16)" />
    <path
       id="path95"
       d="m 785.2,2709 c 0,-11.27 -9.133,-20.4 -20.4,-20.4 -11.267,0 -20.4,9.13 -20.4,20.4 0,11.27 9.133,20.4 20.4,20.4 11.267,0 20.4,-9.13 20.4,-20.4"
       style="fill:#ffffff;fill-opacity:1;fill-rule:evenodd;stroke:none"
       transform="matrix(0.13333333,0,0,-0.13333333,0,638.16)" />
    <path
       id="path96"
       d="m 785.2,2709 c 0,-11.27 -9.133,-20.4 -20.4,-20.4 -11.267,0 -20.4,9.13 -20.4,20.4 0,11.27 9.133,20.4 20.4,20.4 11.267,0 20.4,-9.13 20.4,-20.4 z"
       style="fill:none;stroke:#000000;stroke-width:4.5;stroke-linecap:butt;stroke-linejoin:miter;stroke-miterlimit:10;stroke-dasharray:none;stroke-opacity:1"
       transform="matrix(0.13333333,0,0,-0.13333333,0,638.16)" />
    <path
       id="path97"
       d="m 1396.6,2943 c 0,-11.27 -9.13,-20.4 -20.4,-20.4 -11.27,0 -20.4,9.13 -20.4,20.4 0,11.27 9.13,20.4 20.4,20.4 11.27,0 20.4,-9.13 20.4,-20.4"
       style="fill:#ffffff;fill-opacity:1;fill-rule:evenodd;stroke:none"
       transform="matrix(0.13333333,0,0,-0.13333333,0,638.16)" />
    <path
       id="path98"
       d="m 1396.6,2943 c 0,-11.27 -9.13,-20.4 -20.4,-20.4 -11.27,0 -20.4,9.13 -20.4,20.4 0,11.27 9.13,20.4 20.4,20.4 11.27,0 20.4,-9.13 20.4,-20.4 z"
       style="fill:none;stroke:#000000;stroke-width:4.5;stroke-linecap:butt;stroke-linejoin:miter;stroke-miterlimit:10;stroke-dasharray:none;stroke-opacity:1"
       transform="matrix(0.13333333,0,0,-0.13333333,0,638.16)" />
    <path
       id="path99"
       d="m 2517.4,2164.2 c 0,-11.27 -9.13,-20.4 -20.4,-20.4 -11.27,0 -20.4,9.13 -20.4,20.4 0,11.27 9.13,20.4 20.4,20.4 11.27,0 20.4,-9.13 20.4,-20.4"
       style="fill:#ffffff;fill-opacity:1;fill-rule:evenodd;stroke:none"
       transform="matrix(0.13333333,0,0,-0.13333333,0,638.16)" />
    <path
       id="path100"
       d="m 2517.4,2164.2 c 0,-11.27 -9.13,-20.4 -20.4,-20.4 -11.27,0 -20.4,9.13 -20.4,20.4 0,11.27 9.13,20.4 20.4,20.4 11.27,0 20.4,-9.13 20.4,-20.4 z"
       style="fill:none;stroke:#000000;stroke-width:4.5;stroke-linecap:butt;stroke-linejoin:miter;stroke-miterlimit:10;stroke-dasharray:none;stroke-opacity:1"
       transform="matrix(0.13333333,0,0,-0.13333333,0,638.16)" />
    <path
       id="path101"
       d="m 1136.2,2169 c 0,-11.27 -9.13,-20.4 -20.4,-20.4 -11.27,0 -20.4,9.13 -20.4,20.4 0,11.27 9.13,20.4 20.4,20.4 11.27,0 20.4,-9.13 20.4,-20.4"
       style="fill:#ffffff;fill-opacity:1;fill-rule:evenodd;stroke:none"
       transform="matrix(0.13333333,0,0,-0.13333333,0,638.16)" />
    <path
       id="path102"
       d="m 1136.2,2169 c 0,-11.27 -9.13,-20.4 -20.4,-20.4 -11.27,0 -20.4,9.13 -20.4,20.4 0,11.27 9.13,20.4 20.4,20.4 11.27,0 20.4,-9.13 20.4,-20.4 z"
       style="fill:none;stroke:#000000;stroke-width:4.5;stroke-linecap:butt;stroke-linejoin:miter;stroke-miterlimit:10;stroke-dasharray:none;stroke-opacity:1"
       transform="matrix(0.13333333,0,0,-0.13333333,0,638.16)" />
    <path
       id="path103"
       d="m 2103.4,1584 c 0,-11.27 -9.13,-20.4 -20.4,-20.4 -11.27,0 -20.4,9.13 -20.4,20.4 0,11.27 9.13,20.4 20.4,20.4 11.27,0 20.4,-9.13 20.4,-20.4"
       style="fill:#ffffff;fill-opacity:1;fill-rule:evenodd;stroke:none"
       transform="matrix(0.13333333,0,0,-0.13333333,0,638.16)" />
    <path
       id="path104"
       d="m 2103.4,1584 c 0,-11.27 -9.13,-20.4 -20.4,-20.4 -11.27,0 -20.4,9.13 -20.4,20.4 0,11.27 9.13,20.4 20.4,20.4 11.27,0 20.4,-9.13 20.4,-20.4 z"
       style="fill:none;stroke:#000000;stroke-width:4.5;stroke-linecap:butt;stroke-linejoin:miter;stroke-miterlimit:10;stroke-dasharray:none;stroke-opacity:1"
       transform="matrix(0.13333333,0,0,-0.13333333,0,638.16)" />
    <path
       id="path105"
       d="m 1658.2,2758.2 c 0,-11.27 -9.13,-20.4 -20.4,-20.4 -11.27,0 -20.4,9.13 -20.4,20.4 0,11.27 9.13,20.4 20.4,20.4 11.27,0 20.4,-9.13 20.4,-20.4"
       style="fill:#ffffff;fill-opacity:1;fill-rule:evenodd;stroke:none"
       transform="matrix(0.13333333,0,0,-0.13333333,0,638.16)" />
    <path
       id="path106"
       d="m 1658.2,2758.2 c 0,-11.27 -9.13,-20.4 -20.4,-20.4 -11.27,0 -20.4,9.13 -20.4,20.4 0,11.27 9.13,20.4 20.4,20.4 11.27,0 20.4,-9.13 20.4,-20.4 z"
       style="fill:none;stroke:#000000;stroke-width:4.5;stroke-linecap:butt;stroke-linejoin:miter;stroke-miterlimit:10;stroke-dasharray:none;stroke-opacity:1"
       transform="matrix(0.13333333,0,0,-0.13333333,0,638.16)" />
    <path
       id="path107"
       d="m 1428.4,1354.2 c 0,-11.27 -9.13,-20.4 -20.4,-20.4 -11.27,0 -20.4,9.13 -20.4,20.4 0,11.27 9.13,20.4 20.4,20.4 11.27,0 20.4,-9.13 20.4,-20.4"
       style="fill:#ffffff;fill-opacity:1;fill-rule:evenodd;stroke:none"
       transform="matrix(0.13333333,0,0,-0.13333333,0,638.16)" />
    <path
       id="path108"
       d="m 1428.4,1354.2 c 0,-11.27 -9.13,-20.4 -20.4,-20.4 -11.27,0 -20.4,9.13 -20.4,20.4 0,11.27 9.13,20.4 20.4,20.4 11.27,0 20.4,-9.13 20.4,-20.4 z"
       style="fill:none;stroke:#000000;stroke-width:4.5;stroke-linecap:butt;stroke-linejoin:miter;stroke-miterlimit:10;stroke-dasharray:none;stroke-opacity:1"
       transform="matrix(0.13333333,0,0,-0.13333333,0,638.16)" />
    <path
       id="path109"
       d="m 1469.2,706.2 c 0,-11.266 -9.13,-20.4 -20.4,-20.4 -11.27,0 -20.4,9.134 -20.4,20.4 0,11.267 9.13,20.4 20.4,20.4 11.27,0 20.4,-9.133 20.4,-20.4"
       style="fill:#ffffff;fill-opacity:1;fill-rule:evenodd;stroke:none"
       transform="matrix(0.13333333,0,0,-0.13333333,0,638.16)" />
    <path
       id="path110"
       d="m 1469.2,706.2 c 0,-11.266 -9.13,-20.4 -20.4,-20.4 -11.27,0 -20.4,9.134 -20.4,20.4 0,11.267 9.13,20.4 20.4,20.4 11.27,0 20.4,-9.133 20.4,-20.4 z"
       style="fill:none;stroke:#000000;stroke-width:4.5;stroke-linecap:butt;stroke-linejoin:miter;stroke-miterlimit:10;stroke-dasharray:none;stroke-opacity:1"
       transform="matrix(0.13333333,0,0,-0.13333333,0,638.16)" />
    <path
       id="path111"
       d="m 2981.2,882 c 0,-11.267 -9.13,-20.4 -20.4,-20.4 -11.27,0 -20.4,9.133 -20.4,20.4 0,11.267 9.13,20.4 20.4,20.4 11.27,0 20.4,-9.133 20.4,-20.4"
       style="fill:#ffffff;fill-opacity:1;fill-rule:evenodd;stroke:none"
       transform="matrix(0.13333333,0,0,-0.13333333,0,638.16)" />
    <path
       id="path112"
       d="m 2981.2,882 c 0,-11.267 -9.13,-20.4 -20.4,-20.4 -11.27,0 -20.4,9.133 -20.4,20.4 0,11.267 9.13,20.4 20.4,20.4 11.27,0 20.4,-9.133 20.4,-20.4 z"
       style="fill:none;stroke:#000000;stroke-width:4.5;stroke-linecap:butt;stroke-linejoin:miter;stroke-miterlimit:10;stroke-dasharray:none;stroke-opacity:1"
       transform="matrix(0.13333333,0,0,-0.13333333,0,638.16)" />
    <path
       id="path113"
       d="m 3593.2,724.2 c 0,-11.266 -9.13,-20.4 -20.4,-20.4 -11.27,0 -20.4,9.134 -20.4,20.4 0,11.267 9.13,20.4 20.4,20.4 11.27,0 20.4,-9.133 20.4,-20.4"
       style="fill:#ffffff;fill-opacity:1;fill-rule:evenodd;stroke:none"
       transform="matrix(0.13333333,0,0,-0.13333333,0,638.16)" />
    <path
       id="path114"
       d="m 3593.2,724.2 c 0,-11.266 -9.13,-20.4 -20.4,-20.4 -11.27,0 -20.4,9.134 -20.4,20.4 0,11.267 9.13,20.4 20.4,20.4 11.27,0 20.4,-9.133 20.4,-20.4 z"
       style="fill:none;stroke:#000000;stroke-width:4.5;stroke-linecap:butt;stroke-linejoin:miter;stroke-miterlimit:10;stroke-dasharray:none;stroke-opacity:1"
       transform="matrix(0.13333333,0,0,-0.13333333,0,638.16)" />
    <path
       id="path115"
       d="m 3642.4,1354.2 c 0,-11.27 -9.13,-20.4 -20.4,-20.4 -11.27,0 -20.4,9.13 -20.4,20.4 0,11.27 9.13,20.4 20.4,20.4 11.27,0 20.4,-9.13 20.4,-20.4"
       style="fill:#ffffff;fill-opacity:1;fill-rule:evenodd;stroke:none"
       transform="matrix(0.13333333,0,0,-0.13333333,0,638.16)" />
    <path
       id="path116"
       d="m 3642.4,1354.2 c 0,-11.27 -9.13,-20.4 -20.4,-20.4 -11.27,0 -20.4,9.13 -20.4,20.4 0,11.27 9.13,20.4 20.4,20.4 11.27,0 20.4,-9.13 20.4,-20.4 z"
       style="fill:none;stroke:#000000;stroke-width:4.5;stroke-linecap:butt;stroke-linejoin:miter;stroke-miterlimit:10;stroke-dasharray:none;stroke-opacity:1"
       transform="matrix(0.13333333,0,0,-0.13333333,0,638.16)" />
    <path
       id="path117"
       d="m 2864.2,1183.2 c 0,-11.27 -9.13,-20.4 -20.4,-20.4 -11.27,0 -20.4,9.13 -20.4,20.4 0,11.27 9.13,20.4 20.4,20.4 11.27,0 20.4,-9.13 20.4,-20.4"
       style="fill:#ffffff;fill-opacity:1;fill-rule:evenodd;stroke:none"
       transform="matrix(0.13333333,0,0,-0.13333333,0,638.16)" />
    <path
       id="path118"
       d="m 2864.2,1183.2 c 0,-11.27 -9.13,-20.4 -20.4,-20.4 -11.27,0 -20.4,9.13 -20.4,20.4 0,11.27 9.13,20.4 20.4,20.4 11.27,0 20.4,-9.13 20.4,-20.4 z"
       style="fill:none;stroke:#000000;stroke-width:4.5;stroke-linecap:butt;stroke-linejoin:miter;stroke-miterlimit:10;stroke-dasharray:none;stroke-opacity:1"
       transform="matrix(0.13333333,0,0,-0.13333333,0,638.16)" />
    <path
       id="path119"
       d="m 3377.2,1552.2 c 0,-11.27 -9.13,-20.4 -20.4,-20.4 -11.27,0 -20.4,9.13 -20.4,20.4 0,11.27 9.13,20.4 20.4,20.4 11.27,0 20.4,-9.13 20.4,-20.4"
       style="fill:#ffffff;fill-opacity:1;fill-rule:evenodd;stroke:none"
       transform="matrix(0.13333333,0,0,-0.13333333,0,638.16)" />
    <path
       id="path120"
       d="m 3377.2,1552.2 c 0,-11.27 -9.13,-20.4 -20.4,-20.4 -11.27,0 -20.4,9.13 -20.4,20.4 0,11.27 9.13,20.4 20.4,20.4 11.27,0 20.4,-9.13 20.4,-20.4 z"
       style="fill:none;stroke:#000000;stroke-width:4.5;stroke-linecap:butt;stroke-linejoin:miter;stroke-miterlimit:10;stroke-dasharray:none;stroke-opacity:1"
       transform="matrix(0.13333333,0,0,-0.13333333,0,638.16)" />
    <path
       id="path121"
       d="m 2954.2,1579.2 c 0,-11.27 -9.13,-20.4 -20.4,-20.4 -11.27,0 -20.4,9.13 -20.4,20.4 0,11.27 9.13,20.4 20.4,20.4 11.27,0 20.4,-9.13 20.4,-20.4"
       style="fill:#ffffff;fill-opacity:1;fill-rule:evenodd;stroke:none"
       transform="matrix(0.13333333,0,0,-0.13333333,0,638.16)" />
    <path
       id="path122"
       d="m 2954.2,1579.2 c 0,-11.27 -9.13,-20.4 -20.4,-20.4 -11.27,0 -20.4,9.13 -20.4,20.4 0,11.27 9.13,20.4 20.4,20.4 11.27,0 20.4,-9.13 20.4,-20.4 z"
       style="fill:none;stroke:#000000;stroke-width:4.5;stroke-linecap:butt;stroke-linejoin:miter;stroke-miterlimit:10;stroke-dasharray:none;stroke-opacity:1"
       transform="matrix(0.13333333,0,0,-0.13333333,0,638.16)" />
  </g>
</svg>
