<?xml version="1.0" encoding="UTF-8" standalone="no"?>
<!-- Created with Inkscape (http://www.inkscape.org/) -->

<svg
   version="1.1"
   id="svg1"
   width="664.79999"
   height="638.15997"
   viewBox="0 0 664.79999 638.15997"
   sodipodi:docname="5vennQuadOverlay.svg"
   inkscape:version="1.3.2 (091e20e, 2023-11-25, custom)"
   xmlns:inkscape="http://www.inkscape.org/namespaces/inkscape"
   xmlns:sodipodi="http://sodipodi.sourceforge.net/DTD/sodipodi-0.dtd"
   xmlns="http://www.w3.org/2000/svg"
   xmlns:svg="http://www.w3.org/2000/svg">
  <defs
     id="defs1" />
  <sodipodi:namedview
     id="namedview1"
     pagecolor="#ffffff"
     bordercolor="#000000"
     borderopacity="0.25"
     inkscape:showpageshadow="2"
     inkscape:pageopacity="0.0"
     inkscape:pagecheckerboard="0"
     inkscape:deskcolor="#d1d1d1"
     inkscape:zoom="2.1640342"
     inkscape:cx="332.24983"
     inkscape:cy="319.07998"
     inkscape:window-width="3840"
     inkscape:window-height="1577"
     inkscape:window-x="-8"
     inkscape:window-y="-8"
     inkscape:window-maximized="1"
     inkscape:current-layer="g1">
    <inkscape:page
       x="0"
       y="0"
       inkscape:label="1"
       id="page1"
       width="664.79999"
       height="638.15997"
       margin="0"
       bleed="0"
       inkscape:export-filename="5vennQuadOverlay.pdf"
       inkscape:export-xdpi="96"
       inkscape:export-ydpi="96" />
  </sodipodi:namedview>
  <g
     id="g1"
     inkscape:groupmode="layer"
     inkscape:label="1">
    <path
       id="path1"
       d="m 1904.8,2926.2 12,-13.8 12.6,-13.2 12.6,-13.8 13.2,-13.8 12.6,-13.2 13.2,-13.2 13.8,-13.2 13.8,-13.2 13.8,-13.2 14.4,-13.2 14.4,-12.6 15,-12.6 15,-12 15,-12 15,-12 15.6,-11.4 15,-10.8 15.6,-10.8 15.6,-9.6 15,-9.6 15.6,-9 15,-9 15,-7.8 15,-7.8 15,-7.2 15.6,-6.6 15,-6.6 15.6,-6 14.4,-5.4 15,-5.4 15,-4.8 15.6,-4.8 16.2,-4.2 16.8,-4.8 16.8,-4.2 17.4,-3.6 18.6,-4.2 18.6,-3.6 19.2,-4.2 19.2,-3 20.4,-3.6 20.4,-3.6 20.4,-3 21,-3 21,-3 21,-2.4 21.6,-3 21,-2.4 21,-2.4 21.6,-2.4 21,-1.8 20.4,-2.4 21,-2.4 20.4,-1.8 21,-1.8 20.4,-2.4 20.4,-1.8 20.4,-2.4 19.2,-1.8 19.8,-1.8 19.8,-2.4 20.4,-1.8 20.4,-2.4 21,-2.4 21.6,-3 21.6,-3 22.2,-3 22.2,-3.6 22.2,-3.6 22.8,-3.6 22.8,-4.2 22.8,-4.2 22.8,-4.8 22.8,-5.4 22.2,-4.8 22.2,-6 22.2,-6 21.6,-6 21,-6.6 20.4,-6.6 19.8,-7.2 19.2,-7.2 18.6,-7.8 18,-8.4 17.4,-7.8 16.8,-9 16.2,-9 15.6,-9 15,-9.6 14.4,-10.2 13.2,-10.2 12.6,-10.2 12.6,-10.8 12.6,-11.4 12,-12 11.4,-12.6 12,-13.8 11.4,-13.8 11.4,-15 11.4,-15 11.4,-16.2 11.4,-16.8 11.4,-17.4 10.8,-18.6 10.8,-18.6 11.4,-19.8 10.8,-19.8 10.2,-20.4 10.8,-21 10.8,-21.6 10.2,-22.2 10.8,-22.2 10.2,-22.2 10.2,-22.8 10.2,-23.4 10.2,-23.4 10.2,-23.4 10.2,-23.4 10.2,-24 10.2,-24 10.2,-24.6 10.2,-24 10.8,-25.2 10.8,-25.2 8.4,-19.8 9,-20.4 8.4,-20.4 9,-21 9,-21 9,-22.2 9.6,-22.2 9,-22.8 9,-22.8 9,-24 9,-24 9,-24.6 9,-24.6 8.4,-25.8 8.4,-25.8 7.8,-25.8 7.8,-26.4 7.2,-27 6.6,-27 6,-27 6,-27 4.8,-27.6 4.8,-27.6 3.6,-27 3,-27.6 2.4,-27 1.8,-27.6 0.6,-27 v -26.4 l -0.6,-26.4 -1.8,-26.4 -3,-25.8 -3,-25.8 -4.8,-25.2 -5.4,-24.6 -6.6,-24.6 -7.2,-24 -8.4,-23.4 -9,-23.4 -10.8,-22.8 -11.4,-22.2 -12.6,-22.2 -13.8,-22.2 -14.4,-21.6 -15,-19.8 -15.6,-19.2 -16.8,-19.8 -18,-19.2 -18.6,-19.2 -20.4,-19.2 -20.4,-18.6 -22.2,-18.6 -23.4,-19.2 -24,-18 -25.2,-18.6 -25.8,-18 -27,-18 -28.2,-18 -28.8,-17.4 -30,-17.4 -30.6,-16.8 -31.2,-16.8 -31.8,-16.2 -32.4,-15.6 -33,-15 -34.2,-15 -33.6,-14.4 -34.8,-13.8 -34.8,-13.2 -34.8,-12.6 -34.8,-12 -35.4,-11.4 -34.8,-10.2 -34.8,-10.2 -34.8,-9 -34.8,-8.4 -34.2,-7.8 -34.2,-7.2 -33.6,-5.9998 -33,-5.4002 -32.4,-4.7998 -32.4,-3.6001 -31.8,-3.6001 -30.6,-2.3999 -30.6,-1.1999 -29.4,-0.6001 h -29.4 l -28.2,0.6001 -28.2,1.1999 -27,2.3999 -27,3.6001 -25.8,3.6001 -29.4,5.3999 -28.2,6.6001 -27.6,7.1998 -27.6,9 -27,9 -25.8,10.8 -26.4,11.4 -25.2,12.6 -25.2,13.8 -24,14.4 -24,15.6 -24,16.2 -22.8,16.8 -22.8,18.6 -22.2,18.6 -21,19.2 -21,20.4 -20.4,21 -19.8,21 -19.2,22.2 -18.6,22.2 -17.4,22.8 -17.4,22.8 -16.2,23.4 -15.6,22.8 -14.4,23.4 -14.4,23.4 -13.2,23.4 -12.6,22.8 -12,22.8 -11.4,22.8 -10.2,22.2 -9.6,22.2 -9.6,21.6 -8.4,21 -7.8,21 -7.2,20.4 -6.6,19.8 -6,19.2 -5.4,19.2 -5.4,18 -4.2,18 -6.6,25.8 -5.4,25.2 -4.2,24.6 -3.6,24 -3,23.4 -2.4,22.8 -1.2,22.2 -1.2,21.6 -0.6,21.6 v 21 l 0.6,20.4 1.2,20.4 1.2,19.2 1.2,19.2 1.8,18.6 1.2,17.4 1.8,17.4 1.8,16.8 1.8,16.2 1.2,15.6 1.2,15.6 1.2,14.4 0.6,14.4 v 27.6 l -0.6,13.2 -1.2,13.2 -1.8,13.2 -2.4,12.6 -3,12.6 -3.6,12.6 -4.2,13.2 -4.8,13.2 -6,13.8 -6,14.4 -6.6,14.4 -7.8,15 -8.4,15.6 -9,15.6 -9.6,16.2 -10.2,16.2 -10.8,16.8 -11.4,17.4 -12,16.8 -12,18 -13.2,17.4 -13.2,18 -13.2,17.4 -13.8,18 -14.4,18 -14.4,18 -14.4,18 -15,18 -14.4,17.4 -15,18 -15.6,18 -15,18.6 -15.6,18 -13.8,15.6 -13.2,16.2 -13.8,16.2 -13.8,16.2 -14.4,17.4 -14.4,17.4 -15,17.4 -15,18.6 -15,18.6 -15,19.2 -15.6,19.2 -15,20.4 -15.6,20.4 -15,20.4 -15,21.6 -15,21 -14.4,22.2 -14.4,21.6 -13.8,22.2 -13.8,22.2 -12.6,22.2 -12.6,22.2 -12,22.2 -10.8,22.2 -10.8,22.2 -9.6,22.2 -9,21.6 -8.4,21.6 -7.2,21.6 -6.6,21 -6,21 -4.8,21 -4.2,21 -3,20.4 -2.4,21 -1.8,20.4 -0.6,20.4 v 21 l 1.2,21 1.8,21 2.4,21 3.6,21.6 4.2,21.6 4.8,21.6 6,21.6 6.6,22.2 7.2,21.6 8.4,21.6 8.4,21.6 9.6,21.6 10.2,21.6 10.8,21 11.4,20.4 11.4,19.8 12,19.8 12.6,18.6 13.2,18.6 13.2,17.4 13.2,16.8 13.2,16.2 13.8,15 13.8,14.4 13.8,13.2 13.2,12 13.8,11.4 13.8,10.2 13.2,9.6 13.2,8.4 13.2,7.2 13.2,6.6 12.6,5.4 12.6,4.2 15,4.2 15,3 15,1.8 h 15 l 15,-1.2 15,-2.4 15,-3 15,-4.8 15.6,-6 15,-6.6 15.6,-7.8 15,-9 15.6,-10.2 15,-10.8 15.6,-11.4 15,-12 15,-13.2 14.4,-13.2 14.4,-13.8 14.4,-13.8 13.8,-14.4 13.8,-14.4 13.2,-13.8 13.2,-14.4 12.6,-14.4 12.6,-13.8 12,-13.8 12,-13.8 12,-13.8 z"
       style="fill:none;stroke:#000000;stroke-width:27;stroke-linecap:butt;stroke-linejoin:bevel;stroke-miterlimit:10;stroke-dasharray:none;stroke-opacity:1"
       transform="matrix(0.13333333,0,0,-0.13333333,0,638.16)" />
    <path
       id="path2"
       d="m 1554.4,1881.6 16.8,7.8 16.8,7.8 16.8,7.8 16.8,7.8 16.8,8.4 16.8,8.4 16.8,9 16.8,9 16.8,9 16.8,9.6 16.8,10.2 16.2,9.6 16.8,10.8 15.6,10.2 16.2,11.4 15.6,10.8 15,11.4 15,11.4 13.8,11.4 13.8,11.4 13.8,12 12.6,11.4 12.6,12 12,12 11.4,12 10.8,12.6 10.8,12 10.8,13.2 9.6,12 9.6,12.6 9,12.6 9.6,13.8 9,13.8 9.6,14.4 9,15 9.6,15.6 9.6,16.2 9,16.2 9.6,17.4 9.6,17.4 9,18 9.6,18 9.6,19.2 9,18.6 9,19.2 9.6,19.2 9,19.2 9,19.8 8.4,19.2 9,19.2 8.4,19.2 9,19.2 8.4,19.2 7.8,19.2 8.4,18.6 8.4,19.2 8.4,18.6 8.4,19.2 7.8,17.4 7.8,18.6 8.4,18 7.8,18.6 9,18.6 9,19.2 9,19.8 9.6,19.8 9.6,19.8 10.2,19.8 10.2,20.4 10.8,20.4 10.8,20.4 11.4,20.4 11.4,20.4 12,19.8 12,19.8 12,19.2 12.6,19.2 12.6,18.6 12.6,18 12.6,17.4 13.2,16.8 12.6,15.6 13.2,15.6 13.2,15 13.2,13.8 13.8,13.2 13.2,12.6 13.8,12 13.8,10.8 13.8,10.8 13.8,9.6 13.8,9 13.8,8.4 15,8.4 15,7.8 15.6,7.2 16.8,7.2 16.8,6.6 17.4,6 18,6.6 19.2,5.4 19.2,5.4 20.4,5.4 20.4,4.8 21.6,4.8 21.6,4.2 22.8,4.2 22.8,3.6 23.4,4.2 23.4,3 24,3.6 24.6,3 24.6,2.4 24.6,3 25.2,2.4 25.2,3 25.8,2.4 25.8,1.8 25.8,2.4 25.8,2.4 26.4,2.4 26.4,2.4 27,2.4 27.6,2.4 21,1.8 22.2,1.8 22.2,2.4 22.8,1.8 22.8,2.4 23.4,1.8 24,1.8 24.6,1.8 25.2,1.2 25.2,1.8 25.8,0.6 25.8,1.2 26.4,0.6 h 54 l 27,-0.6 27.6,-0.6 27.6,-1.8 27.6,-1.8 28.2,-2.4 27.6,-3 27.6,-3.6 27.6,-4.2 27,-4.8 27,-5.4 27,-6.6 25.8,-6.6 26.4,-7.8 25.2,-7.8 25.2,-9.6 24,-9.6 24,-10.2 22.8,-11.4 22.8,-12 22.2,-12.6 21,-13.8 20.4,-14.4 19.8,-15.6 19.2,-15.6 18.6,-17.4 18,-18 17.4,-18.6 16.2,-19.8 16.2,-21 14.4,-19.8 13.8,-21 13.2,-22.2 12.6,-22.8 12.6,-24 12,-24.6 11.4,-25.8 10.8,-27 10.8,-27.6 10.2,-28.8 9.6,-29.4 9.6,-30.6 8.4,-31.2 8.4,-31.8 7.8,-33 7.2,-33.6 6.6,-34.2 6,-34.8 5.4,-35.4 5.4,-36 4.2,-36 3.6,-36.6 3,-37.2 2.4,-37.2 1.8,-36.6 1.2,-37.2 0.6,-37.2 v -36.6 l -0.6,-36.6 -1.8,-36.6 -1.8,-36 -2.4,-35.4 -3.6,-34.8 -3.6,-34.8 -4.8,-33.6 -4.8,-33 -5.4,-33 -6.6,-31.2 -6.6,-31.2 -7.2,-30 -8.4,-29.4 -8.4,-28.8 -9,-27.6 -9.6,-27 -9.6,-25.8 -10.8,-25.2 -11.4,-24.6 -11.4,-23.4 -14.4,-25.8 -15,-25.2 -15.6,-24 -16.8,-23.4 -17.4,-22.8 -18,-21.6 -19.2,-21 -19.8,-20.4 -20.4,-19.8 -21,-18.6 -22.2,-18 -22.8,-17.4 -23.4,-16.8 -24.6,-15.6 -24.6,-15.6 -25.2,-14.4 -25.8,-13.8 -25.8,-12.6 -26.4,-12 -27,-11.4 -27,-10.8 -27,-10.2 -27,-9 -27,-8.4 -27,-7.2 -26.4,-7.2 -26.4,-6 -26.4,-5.4 -25.8,-5.4 -25.8,-4.2 -24.6,-3.6 -24.6,-3 -24,-2.4 -23.4,-1.8 -22.8,-1.8 -22.2,-0.6 -21.6,-0.6 -21,-0.6 -20.4,0.6 h -19.2 l -19.2,1.2 -18.6,1.2 -26.4,1.8 -25.8,3 -24.6,3.6 -24,3.6 -22.8,4.2 -22.2,5.4 -22.2,5.4 -21,5.4 -20.4,6 -19.8,6.6 -19.8,7.2 -18.6,6.6 -18,7.2 -18,7.2 -16.8,7.2 -16.8,7.2 -15.6,7.2 -15.6,6.6 -15,6.6 -14.4,6.6 -13.8,5.4 -13.8,5.4 -13.2,5.4 -13.2,4.2 -13.2,4.2 -12.6,3.6 -13.2,2.4 -13.2,2.4 -12.6,1.8 -12.6,1.2 -13.2,0.6 h -13.8 l -14.4,-0.6 -15,-1.2 -15,-1.2 -16.2,-2.4 -16.8,-2.4 -16.8,-3 -18,-3.6 -18,-4.2 -19.2,-4.8 -19.2,-4.8 -19.8,-6 -19.8,-6 -20.4,-6 -21,-7.2 -21,-6.6 -21,-7.8 -21,-7.2 -21.6,-8.4 -21.6,-7.8 -21.6,-8.4 -21.6,-8.4 -21.6,-8.4 -21.6,-9 -21.6,-9 -22.2,-9 -22.2,-9 -19.2,-7.8 -19.2,-7.8 -19.8,-8.4 -19.8,-8.4 -21,-8.4 -21,-8.4 -21,-8.4 -22.2,-8.4 -22.2,-8.4 -22.8,-8.4 -23.4,-9 -24,-8.4 -24,-7.8 -24.6,-8.4 -24.6,-7.8 -25.2,-7.2 -25.2,-7.2 -25.2,-7.2 -25.2,-6 -25.2,-6 -25.2,-5.4 -25.2,-4.8 -24.6,-4.8 -24.6,-3.6 -24.6,-3 -24,-2.4 -23.4,-1.8 -22.8,-1.2 -22.8,-0.6 -22.2,0.6 -22.2,0.6 -21.6,1.8 -21,2.4 -20.4,3.6 -20.4,4.2 -19.8,4.8 -20.4,5.4 -19.2,6.6 -19.8,7.2 -19.8,8.4 -19.2,9 -19.2,10.2 -19.2,10.8 -19.2,11.4 -18.6,12 -18.6,13.2 -18.6,13.8 -18.6,14.4 -17.4,15 -18,15.6 -16.8,16.2 -16.8,16.8 -16.2,16.8 -15,17.4 -15,17.4 -14.4,18 -13.2,18 -12.6,18 -12,18 -10.8,17.4 -10.2,18 -9.6,17.4 -8.4,16.8 -7.2,16.8 -6.6,16.8 -5.4,15.6 -4.8,15.6 -4.2,15.6 -3,14.4 -1.8,14.4 -1.2,13.8 -0.6,13.8 0.6,15.6 2.4,15 3,14.4 4.2,14.4 6,13.8 6.6,13.8 7.8,13.2 9,13.2 10.2,12.6 11.4,12.6 12.6,12 13.2,12 14.4,11.4 15,11.4 15.6,10.8 16.2,10.2 16.8,10.2 16.8,10.2 18,9.6 17.4,9 18,9 18,8.4 17.4,8.4 18,7.8 17.4,7.8 16.8,7.8 17.4,7.2 16.2,7.2 16.8,7.2 z"
       style="fill:none;stroke:#000000;stroke-width:27;stroke-linecap:butt;stroke-linejoin:bevel;stroke-miterlimit:10;stroke-dasharray:none;stroke-opacity:1"
       transform="matrix(0.13333333,0,0,-0.13333333,0,638.16)" />
    <path
       id="path3"
       d="m 2524,1210.8 -2.4,18.6 -1.8,18.6 -2.4,18.6 -2.4,18 -2.4,18.6 -3,18.6 -3,18.6 -3.6,18.6 -3.6,19.2 -4.2,18.6 -4.2,19.2 -4.2,18.6 -4.8,19.2 -5.4,18.6 -5.4,18 -5.4,18.6 -6,17.4 -6.6,18 -6.6,16.8 -6.6,16.8 -7.2,16.2 -7.2,16.2 -7.2,15.6 -7.8,15 -7.8,14.4 -8.4,14.4 -8.4,14.4 -9,13.8 -8.4,12.6 -9,13.2 -9.6,12.6 -9.6,13.2 -10.8,13.2 -10.8,13.2 -11.4,13.8 -11.4,13.8 -12.6,13.8 -12.6,13.8 -13.8,14.4 -13.8,14.4 -13.8,14.4 -14.4,14.4 -15,15 -15,14.4 -15.6,15 -15.6,14.4 -15.6,14.4 -15.6,15 -15.6,14.4 -16.2,13.8 -15.6,14.4 -15.6,13.8 -15.6,13.8 -15,13.8 -15.6,13.8 -15.6,13.8 -15,13.8 -15.6,13.8 -14.4,12.6 -15,13.2 -15,13.8 -15,13.2 -15,14.4 -15.6,14.4 -15.6,14.4 -15.6,15 -16.2,15.6 -16.2,15.6 -15.6,16.2 -16.2,16.8 -16.2,16.8 -15.6,16.8 -15.6,17.4 -15.6,17.4 -15,17.4 -15,17.4 -13.8,18 -13.8,17.4 -13.2,17.4 -12.6,18 -12,17.4 -11.4,17.4 -10.8,16.8 -9.6,17.4 -9,16.8 -9,16.8 -7.8,16.8 -6.6,16.8 -6.6,16.2 -6,16.8 -4.8,15.6 -4.2,16.2 -3.6,16.2 -3,16.2 -3,16.8 -1.8,17.4 -1.8,18 -1.2,18 -0.6,18.6 v 39 l 1.2,20.4 1.2,20.4 1.8,21.6 1.8,21.6 3,22.2 3,22.2 3,23.4 3.6,22.8 4.2,24 4.8,24 4.2,24 4.8,24 5.4,24.6 5.4,24.6 5.4,25.2 5.4,24.6 6,25.2 5.4,25.2 6,25.8 6,25.8 6,25.8 6,26.4 6,26.4 4.8,21 4.8,21.6 4.8,21.6 5.4,22.2 5.4,22.8 5.4,22.8 5.4,23.4 6,24 6,24 6.6,24.6 7.2,24.6 7.2,25.2 7.2,25.2 8.4,25.8 8.4,25.8 9,25.8 9.6,25.8 9.6,25.8 10.2,25.8 11.4,25.2 11.4,25.8 12,25.2 12,24.6 13.2,24.6 13.8,24 13.8,23.4 15,22.8 15,22.2 15.6,21.6 16.2,21 16.8,20.4 17.4,19.2 18,18.6 18.6,18 18.6,16.8 19.8,15.6 19.8,15 21,14.4 21,13.2 22.2,12.6 22.2,11.4 23.4,10.8 24,9.6 24.6,8.4 23.4,7.8 24,6.6 25.2,5.4 25.8,5.4 26.4,4.2 27.6,3.6 28.2,3 28.8,2.4 29.4,1.8 30.6,0.6 h 31.2 l 31.8,-0.6 32.4,-1.2 33,-1.8 33.6,-3 34.2,-3.6 34.8,-4.2 34.8,-4.8 35.4,-6 35.4,-6 36,-7.2 36,-7.8 36,-8.4 36,-9 36,-10.2 35.4,-10.2 35.4,-10.8 34.8,-11.4 34.8,-12 34.2,-12.6 33.6,-13.2 33,-13.2 32.4,-14.4 31.2,-13.8 30.6,-15 30,-15 29.4,-15.6 28.2,-15.6 27.6,-16.2 26.4,-16.2 25.2,-16.2 24.6,-17.4 23.4,-16.8 22.8,-17.4 21.6,-17.4 20.4,-18 19.8,-18.6 19.2,-18 20.4,-21.6 19.2,-22.2 18,-22.2 16.8,-22.8 16.2,-24 15,-24 14.4,-24.6 13.2,-24.6 12,-25.8 11.4,-26.4 10.2,-26.4 9.6,-27 9,-27.6 7.2,-27.6 7.2,-28.2 6,-28.8 4.8,-28.8 4.2,-28.8 3.6,-28.8 2.4,-28.8 1.8,-28.8 1.2,-28.8 v -57 l -1.2,-27.6 -1.8,-27.6 -2.4,-27.6 -2.4,-26.4 -3.6,-26.4 -3.6,-25.2 -4.8,-25.2 -4.2,-24 -5.4,-23.4 -5.4,-22.8 -5.4,-22.2 -6,-21.6 -6,-20.4 -6,-20.4 -6.6,-19.2 -6.6,-18.6 -6.6,-17.4 -6.6,-17.4 -10.8,-24.6 -10.2,-23.4 -10.8,-22.8 -10.8,-21 -11.4,-21 -12,-19.8 -11.4,-18.6 -12,-18.6 -12.6,-17.4 -12,-16.8 -12.6,-16.8 -12.6,-15.6 -12.6,-15 -12,-14.4 -12,-13.8 -12,-13.8 -11.4,-13.2 -11.4,-12 -10.8,-12.6 -10.8,-11.4 -9.6,-12 -9.6,-10.8 -9,-11.4 -7.8,-11.4 -7.8,-10.8 -7.8,-11.4 -6.6,-11.4 -6,-12 -5.4,-11.4 -5.4,-12 -4.2,-12 -4.2,-13.2 -4.2,-13.8 -3.6,-14.4 -3.6,-15 -3,-15.6 -2.4,-16.8 -2.4,-17.4 -1.8,-18 -1.8,-18.6 -1.2,-19.2 -1.2,-19.8 -1.2,-20.4 -0.6,-21 v -43.8 l 0.6,-21.6 v -22.8 l 1.2,-22.2 0.6,-22.8 1.2,-23.4 1.2,-22.8 1.2,-23.4 1.8,-22.8 1.2,-23.4 1.8,-23.4 1.8,-24 1.8,-24 1.8,-20.4 1.8,-21 1.2,-21 1.8,-21.6 1.8,-22.2 1.2,-22.8 1.2,-22.8 1.8,-23.4 1.2,-24 0.6,-24.6 1.2,-24.6 0.6,-25.2 v -25.8 l 0.6,-25.8 -0.6,-25.8 -0.6,-26.4 -0.6,-25.8 -1.8,-26.4 -1.8,-25.8 -1.8,-25.8 -2.4,-25.8 -3.6,-25.2 -3,-25.2 -4.2,-24.6 -4.8,-24 -4.8,-23.4 -5.4,-22.8 -6.6,-22.2 -6.6,-21.6 -6.6,-21.6 -7.8,-20.4 -8.4,-19.8 -9,-19.2 -9.6,-18.6 -10.2,-18 -10.8,-18 -11.4,-16.8 -12.6,-16.8 -12.6,-16.2 -14.4,-16.2 -14.4,-15.6 -15.6,-15 -15.6,-15 -16.8,-14.4 -18,-14.4 -18,-13.8 -18.6,-13.2 -19.2,-13.2 -20.4,-12 -19.8,-12 -21,-11.4 -21,-10.8 -21,-9.6 -21.6,-9.6 -21,-8.4 -21.6,-8.4 -21,-7.2 -21,-6.6 -20.4,-5.4 -20.4,-4.8 -19.8,-4.2 -19.8,-3.6 -18.6,-3 -18.6,-1.8 -17.4,-1.2 H 2782 l -15.6,1.2 -15,1.8 -14.4,2.4 -13.2,3 -13.2,3.6 -14.4,5.4 -13.8,6.6 -12.6,7.8 -12.6,8.4 -11.4,9.6 -10.8,10.8 -10.2,11.4 -9.6,13.2 -9,13.2 -8.4,15 -7.8,15 -7.2,16.8 -6.6,16.8 -6,17.4 -5.4,18.6 -4.8,18.6 -4.8,19.2 -4.2,19.2 -3.6,19.8 -3,19.8 -3,19.8 -2.4,19.2 -2.4,19.8 -2.4,19.2 -1.8,18.6 -1.8,18.6 -1.8,18.6 -1.8,18 -1.8,18 z"
       style="fill:none;stroke:#000000;stroke-width:27;stroke-linecap:butt;stroke-linejoin:bevel;stroke-miterlimit:10;stroke-dasharray:none;stroke-opacity:1"
       transform="matrix(0.13333333,0,0,-0.13333333,0,638.16)" />
    <path
       id="path4"
       d="m 3436.6,1929 -18.6,4.2 -18,3.6 -18.6,3.6 -18,3 -18.6,3.6 -18.6,3 -18.6,3 -18.6,2.4 -19.2,2.4 -19.2,1.8 -19.2,1.8 -19.2,1.8 -19.8,1.2 -19.2,1.2 H 3154 l -19.2,0.6 h -18.6 l -18.6,-0.6 -18.6,-1.2 -18,-1.2 -17.4,-1.8 -17.4,-1.8 -16.8,-2.4 -16.8,-2.4 -16.8,-3 -16.2,-3.6 -16.2,-3.6 -15.6,-4.2 -15,-4.2 -15,-4.2 -15,-5.4 -15.6,-5.4 -15.6,-5.4 -16.2,-6.6 -16.2,-6.6 -16.8,-6.6 -17.4,-7.8 -16.8,-7.8 -18,-8.4 -18,-8.4 -18,-9 -18.6,-9.6 -18.6,-9.6 -18.6,-9.6 -18.6,-10.2 -18.6,-10.2 -18.6,-10.2 -18.6,-10.8 -18.6,-10.2 -18.6,-10.8 -18,-10.2 -18.6,-10.8 -18,-10.2 -18,-10.8 -17.4,-10.2 -18,-10.2 -17.4,-10.8 -18,-10.2 -16.8,-10.2 -17.4,-9.6 -17.4,-10.2 -17.4,-10.2 -18,-10.2 -18.6,-10.2 -18.6,-10.2 -19.2,-10.2 -19.8,-10.8 -19.8,-10.2 -20.4,-10.2 -20.4,-10.2 -21,-10.2 -21,-9.6 -21.6,-9.6 -21,-9.6 -21.6,-9 -21,-8.4 -21,-7.8 -21.6,-7.8 -20.4,-7.2 -21,-6.6 -19.8,-6 -20.4,-5.4 -19.2,-4.2 -19.8,-4.2 -18.6,-3.6 -18.6,-3 -18.6,-2.4 -18,-1.8 -17.4,-0.6 -18,-0.6 -16.2,0.6 -16.8,0.6 -16.2,1.8 -16.8,1.8 -16.8,3 -16.8,3 -17.4,4.2 -18,4.2 -18,5.4 -18,5.4 -18.6,6.6 -19.2,7.2 -19.2,7.2 -19.8,8.4 -19.8,9 -20.4,9 -20.4,10.2 -20.4,10.2 -21,10.8 -21.6,10.8 -21,11.4 -21.6,12 -21.6,12 -21.6,12.6 -22.2,12.6 -21.6,13.2 -22.2,12.6 -22.2,13.2 -22.2,13.2 -22.2,13.8 -22.8,13.8 -22.8,13.2 -23.4,14.4 -23.4,13.8 -18.6,10.8 -18.6,11.4 -19.2,11.4 -19.8,12 -19.8,12 -19.8,12 -21,12.6 -20.4,13.2 -21,13.2 -21.6,13.8 -21,14.4 -21.6,14.4 -22.2,15 -21.6,15.6 -21.6,16.2 -22.2,16.2 -21.6,16.8 -21.6,17.4 -21,18 -21,18 -20.4,19.2 -20.4,19.2 -19.8,19.2 -19.2,19.8 -18.6,20.4 -18,21 -17.4,21 -16.2,21 -16.2,21.6 -14.4,22.2 -14.4,22.2 -12.6,22.2 -12.6,22.8 -10.8,23.4 -10.2,22.8 -9.6,23.4 -7.8,24 -7.2,24 -6,24.6 -5.4,24.6 -3.6,24.6 -3,25.8 -1.8,25.8 -0.6,25.8 v 24.6 l 1.2,25.2 2.4,25.8 3,25.8 4.2,26.4 4.8,27.6 6,27.6 6.6,28.2 7.8,28.2 8.4,29.4 9.6,29.4 10.2,30.6 11.4,30 12,31.2 13.2,31.2 13.8,31.2 15,31.8 15.6,31.8 16.2,31.8 17.4,31.8 17.4,31.8 18.6,31.8 19.2,31.8 19.8,31.2 20.4,31.2 20.4,30.6 21.6,30 21.6,30 22.2,29.4 22.8,28.2 22.2,28.2 23.4,27 22.8,26.4 23.4,25.8 24,24.6 23.4,24 23.4,22.8 24,22.2 23.4,21 24,19.8 23.4,19.2 23.4,18 24,17.4 23.4,16.2 23.4,15 23.4,14.4 23.4,13.2 23.4,12 26.4,12.6 27,11.4 27,10.2 27,9.6 27.6,7.8 27.6,7.2 27.6,5.4 27.6,4.8 28.2,4.2 28.2,2.4 28.8,1.8 28.8,0.6 28.8,-0.6 28.8,-1.2 28.8,-1.8 28.8,-3.6 28.8,-3.6 28.8,-5.4 28.8,-5.4 28.2,-6.6 28.2,-7.2 27.6,-7.8 27,-8.4 27,-9 26.4,-10.2 25.2,-9.6 25.2,-10.8 24.6,-10.8 24,-11.4 22.8,-11.4 22.8,-12 21.6,-12 20.4,-12 20.4,-12 19.2,-12 18.6,-12.6 17.4,-12 17.4,-12 16.2,-12 15.6,-12 15,-12 14.4,-12 20.4,-17.4 18.6,-16.8 18,-17.4 17.4,-17.4 16.2,-16.8 15,-17.4 14.4,-16.8 13.8,-17.4 12.6,-16.8 12.6,-16.8 11.4,-17.4 11.4,-16.2 10.2,-16.8 10.2,-16.2 9.6,-15.6 9,-15.6 9,-15 8.4,-15 8.4,-13.8 7.8,-13.2 7.8,-13.2 8.4,-12.6 7.8,-12 7.8,-11.4 8.4,-10.8 8.4,-10.2 8.4,-10.2 9.6,-9.6 9,-8.4 10.2,-8.4 10.2,-8.4 11.4,-7.8 11.4,-8.4 12.6,-7.8 13.2,-7.8 14.4,-7.8 15,-7.2 15.6,-7.8 16.2,-7.2 17.4,-7.8 18,-7.2 18.6,-7.2 19.2,-7.2 19.8,-6.6 20.4,-7.2 21,-6.6 21,-6.6 21.6,-6.6 21.6,-6 21.6,-6 22.2,-6.6 22.2,-5.4 22.8,-6 22.2,-6 22.8,-5.4 22.8,-6 23.4,-5.4 23.4,-6 19.8,-4.8 20.4,-4.8 21,-4.8 21,-5.4 21,-5.4 22.2,-5.4 22.2,-5.4 22.8,-6 23.4,-6.6 23.4,-6.6 24,-6.6 24,-7.2 24.6,-7.8 24,-7.8 25.2,-8.4 24.6,-8.4 24.6,-9 24,-9.6 24.6,-9.6 23.4,-9.6 24,-10.8 22.8,-10.8 22.8,-10.8 22.2,-11.4 21.6,-12 20.4,-12 20.4,-12 19.2,-13.2 18.6,-12.6 18,-13.2 16.8,-13.8 16.2,-14.4 15.6,-14.4 15,-14.4 13.8,-15.6 13.8,-15.6 12.6,-16.2 12,-16.8 11.4,-18 10.8,-18 10.8,-18.6 9.6,-19.2 9,-19.8 9,-21 7.8,-21 7.8,-21.6 6.6,-21.6 6,-22.8 6,-22.2 4.8,-23.4 4.2,-22.8 3.6,-23.4 3,-23.4 2.4,-22.8 1.8,-23.4 1.2,-22.2 v -44.4 l -1.2,-21.6 -1.2,-21 -2.4,-20.4 -2.4,-19.2 -3.6,-19.2 -3.6,-17.4 -4.2,-17.4 -5.4,-16.2 -4.8,-15.6 -6,-14.4 -6.6,-13.8 -6.6,-13.2 -7.2,-12 -7.2,-10.8 -10.2,-12 -10.2,-11.4 -11.4,-9.6 -12,-9 -12.6,-8.4 -13.2,-6.6 -14.4,-6 -15,-5.4 -15.6,-4.2 -16.8,-3.6 -16.8,-2.4 -18,-1.8 -18,-1.2 -18.6,-0.6 -19.2,0.6 -19.2,1.2 -19.8,1.2 -19.8,2.4 -19.8,2.4 -19.8,3 -19.2,3.6 -19.8,3.6 -19.2,3.6 -18.6,3.6 -18.6,4.2 -18.6,4.2 -18,4.2 -18,3.6 -17.4,4.2 z"
       style="fill:none;stroke:#000000;stroke-width:27;stroke-linecap:butt;stroke-linejoin:bevel;stroke-miterlimit:10;stroke-dasharray:none;stroke-opacity:1"
       transform="matrix(0.13333333,0,0,-0.13333333,0,638.16)" />
    <path
       id="path5"
       d="m 3047.2,2959.8 -9,-16.2 -9.6,-16.2 -9,-16.2 -9,-16.2 -8.4,-16.8 -8.4,-16.2 -9,-17.4 -7.8,-16.8 -8.4,-17.4 -7.8,-18 -7.8,-17.4 -7.2,-18 -7.2,-18 -7.2,-18 -6,-18 -6.6,-18 -5.4,-18 -5.4,-18 -4.8,-18 -4.2,-17.4 -4.2,-17.4 -3.6,-16.8 -3,-16.8 -2.4,-16.8 -2.4,-16.8 -1.8,-16.2 -1.2,-16.8 -1.2,-16.2 -0.6,-15.6 v -48 l 0.6,-16.8 1.2,-17.4 1.2,-17.4 1.8,-18 1.8,-18.6 1.8,-18.6 2.4,-19.8 3,-19.2 3,-20.4 3,-20.4 3.6,-20.4 3.6,-21 3.6,-21 3.6,-21 4.2,-21 4.2,-21 4.2,-20.4 4.8,-21 4.2,-20.4 4.2,-21 4.8,-20.4 4.2,-19.8 4.2,-20.4 4.8,-19.8 4.2,-20.4 4.2,-20.4 4.2,-18.6 4.2,-19.2 4.2,-19.8 4.2,-19.8 4.2,-20.4 4.2,-21 3.6,-21 4.2,-21.6 3.6,-21.6 3.6,-22.2 3.6,-22.8 3.6,-22.2 3,-23.4 3,-22.8 2.4,-23.4 2.4,-22.8 1.8,-23.4 1.2,-22.8 1.2,-22.8 1.2,-22.2 v -43.8 l -0.6,-21 -1.2,-20.4 -1.8,-20.4 -1.8,-19.8 -2.4,-18.6 -3,-18.6 -3.6,-18.6 -4.2,-17.4 -4.2,-17.4 -5.4,-16.8 -5.4,-15.6 -6,-15 -6,-15.6 -7.2,-15 -7.8,-15 -8.4,-15.6 -9,-15 -10.2,-15.6 -10.2,-15.6 -11.4,-15.6 -11.4,-15.6 -12.6,-15.6 -13.2,-16.2 -13.8,-16.2 -15,-16.2 -15,-16.2 -15.6,-16.8 -16.2,-16.2 -16.8,-16.8 -16.8,-16.8 -18,-16.8 -18,-16.8 -18,-16.8 -18.6,-16.8 -18.6,-16.8 -19.2,-16.8 -19.2,-16.8 -19.2,-17.4 -19.8,-16.8 -19.8,-17.4 -19.8,-16.8 -19.8,-18 -20.4,-17.4 -21,-18 -16.2,-14.4 -16.2,-14.4 -16.8,-15 -17.4,-14.4 -17.4,-15.6 -18,-15 -18,-15.6 -19.2,-16.2 -19.2,-15.6 -19.2,-16.2 -20.4,-15.6 -20.4,-16.2 -21,-16.2 -21.6,-15.6 -22.2,-16.2 -22.2,-15.6 -22.8,-15 -23.4,-15 -23.4,-15 -24,-14.4 -24,-13.8 -24.6,-13.2 -24.6,-12.6 -25.2,-12.6 -24.6,-11.4 -25.2,-10.8 -25.8,-9.6 -25.2,-9 -25.2,-8.4 -25.8,-7.2 -25.2,-6.6 -25.2,-5.4 -25.8,-4.8 -25.2,-3.6 -25.2,-2.4 -25.2,-1.2 -25.2,-0.6 -25.2,0.6 -24.6,1.8 -25.2,3 -24.6,3.6 -25.2,5.4 -25.2,6 -25.2,7.8 -23.4,7.8 -23.4,9 -23.4,9.6 -24,11.4 -24,12 -24.6,12.6 -24,14.4 -25.2,15 -24.6,16.2 -25.2,17.4 -25.2,18 -25.2,19.2 -25.8,19.8 -25.2,21.6 -25.8,21.6 -25.2,23.4 -25.8,23.4 -25.2,24.6 -25.2,25.8 -25.2,25.8 -25.2,27 -24,27 -24.6,28.2 -23.4,28.2 -23.4,29.4 -22.8,29.4 -22.2,29.4 -21.6,30 -21,30 -20.4,30 -19.2,30.6 -18.6,30 -18,30 -17.4,30.6 -16.2,30 -15.6,29.4 -14.4,30 -13.2,28.8 -13.2,29.4 -11.4,28.8 -10.8,28.2 -10.2,28.2 -9,27.6 -7.8,27 -7.2,27 -6.6,27 -4.8,26.4 -4.8,25.8 -3.6,29.4 -2.4,28.8 -1.8,28.8 -0.6,28.8 1.2,28.2 1.8,28.8 3,27.6 4.2,28.2 4.8,28.2 6.6,27.6 7.2,27.6 7.8,27.6 9.6,27 10.2,27 10.8,27 12,26.4 12.6,26.4 13.8,25.8 13.8,25.2 15,25.2 15.6,24 16.2,24 16.2,23.4 17.4,22.8 17.4,22.2 17.4,21 18,20.4 17.4,20.4 18.6,19.2 18,18 18,18 18,16.8 18,16.2 17.4,15 18,14.4 16.8,14.4 17.4,12.6 16.8,12.6 16.2,12 16.2,11.4 16.2,10.2 15.6,10.2 22.8,13.8 22.2,12.6 22.2,12 21.6,10.8 21,10.2 21,9 20.4,8.4 21,7.8 19.8,7.2 20.4,6 19.2,6 19.8,5.4 18.6,4.8 18.6,4.8 18,4.2 17.4,3.6 17.4,4.2 16.2,3.6 16.2,3 15,3.6 15,3.6 14.4,3.6 13.8,3.6 13.2,4.2 12.6,4.8 12.6,4.8 12,5.4 12,5.4 11.4,6 10.8,7.2 11.4,7.2 10.8,7.8 11.4,9 11.4,9.6 11.4,10.2 12,10.8 12,12 12,12.6 12,13.2 12.6,14.4 12,15 12.6,15 13.2,16.2 12.6,16.8 12.6,17.4 13.2,17.4 12.6,18 12.6,18.6 12.6,18.6 12.6,19.2 12.6,19.2 12.6,19.2 12.6,19.8 12.6,19.2 12.6,19.8 12,20.4 12.6,20.4 12.6,20.4 10.8,17.4 10.8,18 11.4,18 11.4,18.6 11.4,18.6 12,19.2 12.6,19.2 12.6,19.8 13.2,20.4 13.8,20.4 13.8,20.4 14.4,21 14.4,20.4 15,21 15.6,21 15.6,20.4 16.2,21 16.8,20.4 16.2,19.8 17.4,19.8 16.8,19.2 17.4,18.6 17.4,18 18,17.4 18,16.8 17.4,16.2 18,15 18,15 18.6,13.2 18,13.2 18,12 18.6,10.8 18.6,10.8 18.6,9 18.6,9 19.2,7.8 19.8,7.2 19.8,6 19.8,5.4 21,4.8 21,4.2 21,3.6 22.2,2.4 22.2,1.8 22.2,1.2 22.8,0.6 23.4,-0.6 22.8,-0.6 23.4,-1.8 23.4,-2.4 23.4,-3 23.4,-3.6 22.8,-4.2 22.8,-5.4 22.2,-5.4 22.2,-6 21.6,-6.6 20.4,-7.2 20.4,-7.2 19.2,-7.8 18.6,-8.4 18,-9 16.8,-8.4 15.6,-9.6 15,-9 14.4,-10.2 12.6,-9.6 12.6,-10.2 10.8,-10.2 10.2,-10.2 9,-10.2 8.4,-10.8 8.4,-13.2 7.2,-13.2 6,-13.8 4.8,-14.4 4.2,-14.4 2.4,-15 1.2,-15 0.6,-16.2 -1.2,-16.2 -1.8,-16.8 -2.4,-16.8 -4.2,-17.4 -4.8,-18 -5.4,-18 -6,-18 -7.2,-18 -7.2,-18 -8.4,-18 -8.4,-18 -9,-18 -9,-17.4 -9.6,-17.4 -9.6,-17.4 -9.6,-16.8 -9.6,-16.2 -9.6,-16.2 -9,-16.2 -9.6,-15.6 -9,-15 z"
       style="fill:none;stroke:#000000;stroke-width:27;stroke-linecap:butt;stroke-linejoin:bevel;stroke-miterlimit:10;stroke-dasharray:none;stroke-opacity:1"
       transform="matrix(0.13333333,0,0,-0.13333333,0,638.16)" />
    <path
       id="path6"
       d="m 1378.05,2943.26 c -19.11,-94.75 -28.73,-191.18 -28.73,-287.84 0,-169.02 29.42,-336.75 86.96,-495.68"
       style="fill:none;stroke:#00ff00;stroke-width:4.5;stroke-linecap:butt;stroke-linejoin:bevel;stroke-miterlimit:10;stroke-dasharray:none;stroke-opacity:1"
       transform="matrix(0.13333333,0,0,-0.13333333,0,638.16)" />
    <path
       id="path7"
       d="m 3339.3,2763.38 c 233.93,-133.97 417.42,-341 522.32,-589.33"
       style="fill:none;stroke:#00ff00;stroke-width:4.5;stroke-linecap:butt;stroke-linejoin:bevel;stroke-miterlimit:10;stroke-dasharray:none;stroke-opacity:1"
       transform="matrix(0.13333333,0,0,-0.13333333,0,638.16)" />
    <path
       id="path8"
       d="M 3363.4,1553.84 C 3271.19,1307.2 3134.02,1079.8 2958.85,883.199"
       style="fill:none;stroke:#00ff00;stroke-width:4.5;stroke-linecap:butt;stroke-linejoin:bevel;stroke-miterlimit:10;stroke-dasharray:none;stroke-opacity:1"
       transform="matrix(0.13333333,0,0,-0.13333333,0,638.16)" />
    <path
       id="path9"
       d="m 2175.37,1174.23 c -33.49,-2.58 -67.06,-3.87 -100.65,-3.87 -235.71,0 -467.07,63.51 -669.75,183.85"
       style="fill:none;stroke:#00ff00;stroke-width:4.5;stroke-linecap:butt;stroke-linejoin:bevel;stroke-miterlimit:10;stroke-dasharray:none;stroke-opacity:1"
       transform="matrix(0.13333333,0,0,-0.13333333,0,638.16)" />
    <path
       id="path10"
       d="m 2822.8,3159 787.2,-202.2 9,-4.8"
       style="fill:none;stroke:#00ff00;stroke-width:4.5;stroke-linecap:butt;stroke-linejoin:miter;stroke-miterlimit:10;stroke-dasharray:none;stroke-opacity:1"
       transform="matrix(0.13333333,0,0,-0.13333333,0,638.16)" />
    <path
       id="path11"
       d="m 2503,2889 841.8,-117"
       style="fill:none;stroke:#00ff00;stroke-width:4.5;stroke-linecap:butt;stroke-linejoin:miter;stroke-miterlimit:10;stroke-dasharray:none;stroke-opacity:1"
       transform="matrix(0.13333333,0,0,-0.13333333,0,638.16)" />
    <path
       id="path12"
       d="m 3529,2160 94.8,-810"
       style="fill:none;stroke:#00ff00;stroke-width:4.5;stroke-linecap:butt;stroke-linejoin:miter;stroke-miterlimit:10;stroke-dasharray:none;stroke-opacity:1"
       transform="matrix(0.13333333,0,0,-0.13333333,0,638.16)" />
    <path
       id="path13"
       d="M 3187,2371.2 3362.8,1557"
       style="fill:none;stroke:#00ff00;stroke-width:4.5;stroke-linecap:butt;stroke-linejoin:miter;stroke-miterlimit:10;stroke-dasharray:none;stroke-opacity:1"
       transform="matrix(0.13333333,0,0,-0.13333333,0,638.16)" />
    <path
       id="path14"
       d="M 2849.8,1188 2071,873"
       style="fill:none;stroke:#00ff00;stroke-width:4.5;stroke-linecap:butt;stroke-linejoin:miter;stroke-miterlimit:10;stroke-dasharray:none;stroke-opacity:1"
       transform="matrix(0.13333333,0,0,-0.13333333,0,638.16)" />
    <path
       id="path15"
       d="M 2939.8,1579.2 2170,1170"
       style="fill:none;stroke:#00ff00;stroke-width:4.5;stroke-linecap:butt;stroke-linejoin:miter;stroke-miterlimit:10;stroke-dasharray:none;stroke-opacity:1"
       transform="matrix(0.13333333,0,0,-0.13333333,0,638.16)" />
    <path
       id="path16"
       d="M 1121.8,2169 1666,1561.2"
       style="fill:none;stroke:#00ff00;stroke-width:4.5;stroke-linecap:butt;stroke-linejoin:miter;stroke-miterlimit:10;stroke-dasharray:none;stroke-opacity:1"
       transform="matrix(0.13333333,0,0,-0.13333333,0,638.16)" />
    <path
       id="path17"
       d="m 1441,2164.2 634.8,-567"
       style="fill:none;stroke:#00ff00;stroke-width:4.5;stroke-linecap:butt;stroke-linejoin:miter;stroke-miterlimit:10;stroke-dasharray:none;stroke-opacity:1"
       transform="matrix(0.13333333,0,0,-0.13333333,0,638.16)" />
    <path
       id="path18"
       d="M 2093.8,3474 1643.2,2754"
       style="fill:none;stroke:#00ff00;stroke-width:4.5;stroke-linecap:butt;stroke-linejoin:miter;stroke-miterlimit:10;stroke-dasharray:none;stroke-opacity:1"
       transform="matrix(0.13333333,0,0,-0.13333333,0,638.16)" />
    <path
       id="path19"
       d="M 2179,3159 1796.2,2385"
       style="fill:none;stroke:#00ff00;stroke-width:4.5;stroke-linecap:butt;stroke-linejoin:miter;stroke-miterlimit:10;stroke-dasharray:none;stroke-opacity:1"
       transform="matrix(0.13333333,0,0,-0.13333333,0,638.16)" />
    <path
       id="path20"
       d="M 2902.09,3469.08 C 2634.81,3443.81 2381.3,3338.8 2174.45,3167.68"
       style="fill:none;stroke:#00ff00;stroke-width:4.5;stroke-linecap:butt;stroke-linejoin:miter;stroke-miterlimit:10;stroke-dasharray:none;stroke-opacity:1"
       transform="matrix(0.13333333,0,0,-0.13333333,0,638.16)" />
    <path
       id="path21"
       d="m 1435.67,708.166 c -351.82,120.456 -588.19,451.214 -588.19,823.094 0,246.57 104.623,481.55 287.86,646.54"
       style="fill:none;stroke:#00ff00;stroke-width:4.5;stroke-linecap:butt;stroke-linejoin:miter;stroke-miterlimit:10;stroke-dasharray:none;stroke-opacity:1"
       transform="matrix(0.13333333,0,0,-0.13333333,0,638.16)" />
    <path
       id="path22"
       d="m 2503.36,3964.33 c 82.87,25.49 169.08,38.45 255.78,38.45 480.42,0 869.88,-389.46 869.88,-869.88 0,-60.78 -6.37,-121.4 -19.01,-180.86"
       style="fill:none;stroke:#00ff00;stroke-width:4.5;stroke-linecap:butt;stroke-linejoin:miter;stroke-miterlimit:10;stroke-dasharray:none;stroke-opacity:1"
       transform="matrix(0.13333333,0,0,-0.13333333,0,638.16)" />
    <path
       id="path23"
       d="m 4227.4,2724.01 c 102.97,-146.51 158.22,-321.22 158.22,-500.29 0,-445.31 -336.24,-818.75 -779.11,-865.29"
       style="fill:none;stroke:#00ff00;stroke-width:4.5;stroke-linecap:butt;stroke-linejoin:miter;stroke-miterlimit:10;stroke-dasharray:none;stroke-opacity:1"
       transform="matrix(0.13333333,0,0,-0.13333333,0,638.16)" />
    <path
       id="path24"
       d="M 3573.46,708.104 C 3409.17,489.292 3151.5,360.54 2877.88,360.54 c -343.54,0 -654.89,202.196 -794.62,516.033"
       style="fill:none;stroke:#00ff00;stroke-width:4.5;stroke-linecap:butt;stroke-linejoin:miter;stroke-miterlimit:10;stroke-dasharray:none;stroke-opacity:1"
       transform="matrix(0.13333333,0,0,-0.13333333,0,638.16)" />
    <path
       id="path25"
       d="m 783.987,2735.15 c 7.464,475.03 394.683,856.21 869.773,856.21 152.7,0 302.7,-40.19 434.94,-116.54"
       style="fill:none;stroke:#00ff00;stroke-width:4.5;stroke-linecap:butt;stroke-linejoin:miter;stroke-miterlimit:10;stroke-dasharray:none;stroke-opacity:1"
       transform="matrix(0.13333333,0,0,-0.13333333,0,638.16)" />
    <path
       id="path26"
       d="m 1406.8,1353.6 36.6,-638.4"
       style="fill:none;stroke:#ff0000;stroke-width:4.5;stroke-linecap:butt;stroke-linejoin:miter;stroke-miterlimit:10;stroke-dasharray:none;stroke-opacity:1"
       transform="matrix(0.13333333,0,0,-0.13333333,0,638.16)" />
    <path
       id="path27"
       d="m 2077.6,1588.2 -412.8,-33"
       style="fill:none;stroke:#ff0000;stroke-width:4.5;stroke-linecap:butt;stroke-linejoin:miter;stroke-miterlimit:10;stroke-dasharray:none;stroke-opacity:1"
       transform="matrix(0.13333333,0,0,-0.13333333,0,638.16)" />
    <path
       id="path28"
       d="m 1121.2,2172 327.6,-12"
       style="fill:none;stroke:#ff0000;stroke-width:4.5;stroke-linecap:butt;stroke-linejoin:miter;stroke-miterlimit:10;stroke-dasharray:none;stroke-opacity:1"
       transform="matrix(0.13333333,0,0,-0.13333333,0,638.16)" />
    <path
       id="path29"
       d="M 1120,2167.2 774.4,2705.4"
       style="fill:none;stroke:#ff0000;stroke-width:4.5;stroke-linecap:butt;stroke-linejoin:miter;stroke-miterlimit:10;stroke-dasharray:none;stroke-opacity:1"
       transform="matrix(0.13333333,0,0,-0.13333333,0,638.16)" />
    <path
       id="path30"
       d="m 1799.8,2382 -354,-216.6"
       style="fill:none;stroke:#ff0000;stroke-width:4.5;stroke-linecap:butt;stroke-linejoin:miter;stroke-miterlimit:10;stroke-dasharray:none;stroke-opacity:1"
       transform="matrix(0.13333333,0,0,-0.13333333,0,638.16)" />
    <path
       id="path31"
       d="M 1373.2,2946 1645,2763"
       style="fill:none;stroke:#ff0000;stroke-width:4.5;stroke-linecap:butt;stroke-linejoin:miter;stroke-miterlimit:10;stroke-dasharray:none;stroke-opacity:1"
       transform="matrix(0.13333333,0,0,-0.13333333,0,638.16)" />
    <path
       id="path32"
       d="M 3574,719.4 4050.4,64.2002"
       style="fill:none;stroke:#ff0000;stroke-width:4.5;stroke-linecap:butt;stroke-linejoin:miter;stroke-miterlimit:10;stroke-dasharray:none;stroke-opacity:1"
       transform="matrix(0.13333333,0,0,-0.13333333,0,638.16)" />
    <path
       id="path33"
       d="M 2955.4,881.4 3574,719.4"
       style="fill:none;stroke:#ff0000;stroke-width:4.5;stroke-linecap:butt;stroke-linejoin:miter;stroke-miterlimit:10;stroke-dasharray:none;stroke-opacity:1"
       transform="matrix(0.13333333,0,0,-0.13333333,0,638.16)" />
    <path
       id="path34"
       d="m 2087.8,3474 90,-315"
       style="fill:none;stroke:#ff0000;stroke-width:4.5;stroke-linecap:butt;stroke-linejoin:miter;stroke-miterlimit:10;stroke-dasharray:none;stroke-opacity:1"
       transform="matrix(0.13333333,0,0,-0.13333333,0,638.16)" />
    <path
       id="path35"
       d="m 2083,3474 405,495"
       style="fill:none;stroke:#ff0000;stroke-width:4.5;stroke-linecap:butt;stroke-linejoin:miter;stroke-miterlimit:10;stroke-dasharray:none;stroke-opacity:1"
       transform="matrix(0.13333333,0,0,-0.13333333,0,638.16)" />
    <path
       id="path36"
       d="m 2497,2893.8 -315,270"
       style="fill:none;stroke:#ff0000;stroke-width:4.5;stroke-linecap:butt;stroke-linejoin:miter;stroke-miterlimit:10;stroke-dasharray:none;stroke-opacity:1"
       transform="matrix(0.13333333,0,0,-0.13333333,0,638.16)" />
    <path
       id="path37"
       d="M 777.4,2713.8 7,2964"
       style="fill:none;stroke:#ff0000;stroke-width:4.5;stroke-linecap:butt;stroke-linejoin:miter;stroke-miterlimit:10;stroke-dasharray:none;stroke-opacity:1"
       transform="matrix(0.13333333,0,0,-0.13333333,0,638.16)" />
    <path
       id="path38"
       d="m 2902,3474 -90,-315"
       style="fill:none;stroke:#ff0000;stroke-width:4.5;stroke-linecap:butt;stroke-linejoin:miter;stroke-miterlimit:10;stroke-dasharray:none;stroke-opacity:1"
       transform="matrix(0.13333333,0,0,-0.13333333,0,638.16)" />
    <path
       id="path39"
       d="m 2902,3474 -405,495"
       style="fill:none;stroke:#ff0000;stroke-width:4.5;stroke-linecap:butt;stroke-linejoin:miter;stroke-miterlimit:10;stroke-dasharray:none;stroke-opacity:1"
       transform="matrix(0.13333333,0,0,-0.13333333,0,638.16)" />
    <path
       id="path40"
       d="m 2939.2,1593 -95.4,-403.8"
       style="fill:none;stroke:#ff0000;stroke-width:4.5;stroke-linecap:butt;stroke-linejoin:miter;stroke-miterlimit:10;stroke-dasharray:none;stroke-opacity:1"
       transform="matrix(0.13333333,0,0,-0.13333333,0,638.16)" />
    <path
       id="path41"
       d="m 3611.2,2950.2 -271.8,-183"
       style="fill:none;stroke:#ff0000;stroke-width:4.5;stroke-linecap:butt;stroke-linejoin:miter;stroke-miterlimit:10;stroke-dasharray:none;stroke-opacity:1"
       transform="matrix(0.13333333,0,0,-0.13333333,0,638.16)" />
    <path
       id="path42"
       d="m 3609.4,2954.4 595.8,-232.2"
       style="fill:none;stroke:#ff0000;stroke-width:4.5;stroke-linecap:butt;stroke-linejoin:miter;stroke-miterlimit:10;stroke-dasharray:none;stroke-opacity:1"
       transform="matrix(0.13333333,0,0,-0.13333333,0,638.16)" />
    <path
       id="path43"
       d="m 3185.8,2381.4 159.6,383.4"
       style="fill:none;stroke:#ff0000;stroke-width:4.5;stroke-linecap:butt;stroke-linejoin:miter;stroke-miterlimit:10;stroke-dasharray:none;stroke-opacity:1"
       transform="matrix(0.13333333,0,0,-0.13333333,0,638.16)" />
    <path
       id="path44"
       d="M 3862.6,2175.6 3535,2164.2"
       style="fill:none;stroke:#ff0000;stroke-width:4.5;stroke-linecap:butt;stroke-linejoin:miter;stroke-miterlimit:10;stroke-dasharray:none;stroke-opacity:1"
       transform="matrix(0.13333333,0,0,-0.13333333,0,638.16)" />
    <path
       id="path45"
       d="M 4208.2,2713.8 4978.6,2964"
       style="fill:none;stroke:#ff0000;stroke-width:4.5;stroke-linecap:butt;stroke-linejoin:miter;stroke-miterlimit:10;stroke-dasharray:none;stroke-opacity:1"
       transform="matrix(0.13333333,0,0,-0.13333333,0,638.16)" />
    <path
       id="path46"
       d="m 3862.6,2175.6 345.6,538.2"
       style="fill:none;stroke:#ff0000;stroke-width:4.5;stroke-linecap:butt;stroke-linejoin:miter;stroke-miterlimit:10;stroke-dasharray:none;stroke-opacity:1"
       transform="matrix(0.13333333,0,0,-0.13333333,0,638.16)" />
    <path
       id="path47"
       d="m 3181,2380.2 354,-216"
       style="fill:none;stroke:#ff0000;stroke-width:4.5;stroke-linecap:butt;stroke-linejoin:miter;stroke-miterlimit:10;stroke-dasharray:none;stroke-opacity:1"
       transform="matrix(0.13333333,0,0,-0.13333333,0,638.16)" />
    <path
       id="path48"
       d="m 2065,874.8 112.2,307.8"
       style="fill:none;stroke:#ff0000;stroke-width:4.5;stroke-linecap:butt;stroke-linejoin:miter;stroke-miterlimit:10;stroke-dasharray:none;stroke-opacity:1"
       transform="matrix(0.13333333,0,0,-0.13333333,0,638.16)" />
    <path
       id="path49"
       d="m 2069.2,871.8 -618.6,-162"
       style="fill:none;stroke:#ff0000;stroke-width:4.5;stroke-linecap:butt;stroke-linejoin:miter;stroke-miterlimit:10;stroke-dasharray:none;stroke-opacity:1"
       transform="matrix(0.13333333,0,0,-0.13333333,0,638.16)" />
    <path
       id="path50"
       d="m 3617.8,1363.2 -36.6,-639"
       style="fill:none;stroke:#ff0000;stroke-width:4.5;stroke-linecap:butt;stroke-linejoin:miter;stroke-miterlimit:10;stroke-dasharray:none;stroke-opacity:1"
       transform="matrix(0.13333333,0,0,-0.13333333,0,638.16)" />
    <path
       id="path51"
       d="m 2942.2,1588.8 414,-33"
       style="fill:none;stroke:#ff0000;stroke-width:4.5;stroke-linecap:butt;stroke-linejoin:miter;stroke-miterlimit:10;stroke-dasharray:none;stroke-opacity:1"
       transform="matrix(0.13333333,0,0,-0.13333333,0,638.16)" />
    <path
       id="path52"
       d="m 2955.4,881.4 -111.6,307.8"
       style="fill:none;stroke:#ff0000;stroke-width:4.5;stroke-linecap:butt;stroke-linejoin:miter;stroke-miterlimit:10;stroke-dasharray:none;stroke-opacity:1"
       transform="matrix(0.13333333,0,0,-0.13333333,0,638.16)" />
    <path
       id="path53"
       d="m 2497,3969 v 810"
       style="fill:none;stroke:#ff0000;stroke-width:4.5;stroke-linecap:butt;stroke-linejoin:miter;stroke-miterlimit:10;stroke-dasharray:none;stroke-opacity:1"
       transform="matrix(0.13333333,0,0,-0.13333333,0,638.16)" />
    <path
       id="path54"
       d="M 1373.2,2946 777.4,2713.8"
       style="fill:none;stroke:#ff0000;stroke-width:4.5;stroke-linecap:butt;stroke-linejoin:miter;stroke-miterlimit:10;stroke-dasharray:none;stroke-opacity:1"
       transform="matrix(0.13333333,0,0,-0.13333333,0,638.16)" />
    <path
       id="path55"
       d="m 2074.6,1585.2 96.6,-403.8"
       style="fill:none;stroke:#ff0000;stroke-width:4.5;stroke-linecap:butt;stroke-linejoin:miter;stroke-miterlimit:10;stroke-dasharray:none;stroke-opacity:1"
       transform="matrix(0.13333333,0,0,-0.13333333,0,638.16)" />
    <path
       id="path56"
       d="m 1406.8,1353.6 258,201.6"
       style="fill:none;stroke:#ff0000;stroke-width:4.5;stroke-linecap:butt;stroke-linejoin:miter;stroke-miterlimit:10;stroke-dasharray:none;stroke-opacity:1"
       transform="matrix(0.13333333,0,0,-0.13333333,0,638.16)" />
    <path
       id="path57"
       d="M 1443.4,715.2 967,60.0002"
       style="fill:none;stroke:#ff0000;stroke-width:4.5;stroke-linecap:butt;stroke-linejoin:miter;stroke-miterlimit:10;stroke-dasharray:none;stroke-opacity:1"
       transform="matrix(0.13333333,0,0,-0.13333333,0,638.16)" />
    <path
       id="path58"
       d="M 1804,2380.2 1645,2763"
       style="fill:none;stroke:#ff0000;stroke-width:4.5;stroke-linecap:butt;stroke-linejoin:miter;stroke-miterlimit:10;stroke-dasharray:none;stroke-opacity:1"
       transform="matrix(0.13333333,0,0,-0.13333333,0,638.16)" />
    <path
       id="path59"
       d="m 3614.2,1360.2 -258,201.6"
       style="fill:none;stroke:#ff0000;stroke-width:4.5;stroke-linecap:butt;stroke-linejoin:miter;stroke-miterlimit:10;stroke-dasharray:none;stroke-opacity:1"
       transform="matrix(0.13333333,0,0,-0.13333333,0,638.16)" />
    <path
       id="path60"
       d="m 2497,2889 315,270"
       style="fill:none;stroke:#ff0000;stroke-width:4.5;stroke-linecap:butt;stroke-linejoin:miter;stroke-miterlimit:10;stroke-dasharray:none;stroke-opacity:1"
       transform="matrix(0.13333333,0,0,-0.13333333,0,638.16)" />
    <path
       id="path61"
       d="m 2497,2169 v 720"
       style="fill:none;stroke:#ff0000;stroke-width:4.5;stroke-linecap:butt;stroke-linejoin:miter;stroke-miterlimit:10;stroke-dasharray:none;stroke-opacity:1"
       transform="matrix(0.13333333,0,0,-0.13333333,0,638.16)" />
    <path
       id="path62"
       d="m 2497,2169 -684.6,222.6"
       style="fill:none;stroke:#ff0000;stroke-width:4.5;stroke-linecap:butt;stroke-linejoin:miter;stroke-miterlimit:10;stroke-dasharray:none;stroke-opacity:1"
       transform="matrix(0.13333333,0,0,-0.13333333,0,638.16)" />
    <path
       id="path63"
       d="m 2497,2169 438,-585"
       style="fill:none;stroke:#ff0000;stroke-width:4.5;stroke-linecap:butt;stroke-linejoin:miter;stroke-miterlimit:10;stroke-dasharray:none;stroke-opacity:1"
       transform="matrix(0.13333333,0,0,-0.13333333,0,638.16)" />
    <path
       id="path64"
       d="m 2497,2169 685.2,222.6"
       style="fill:none;stroke:#ff0000;stroke-width:4.5;stroke-linecap:butt;stroke-linejoin:miter;stroke-miterlimit:10;stroke-dasharray:none;stroke-opacity:1"
       transform="matrix(0.13333333,0,0,-0.13333333,0,638.16)" />
    <path
       id="path65"
       d="M 2497,2169 2074,1586.4"
       style="fill:none;stroke:#ff0000;stroke-width:4.5;stroke-linecap:butt;stroke-linejoin:miter;stroke-miterlimit:10;stroke-dasharray:none;stroke-opacity:1"
       transform="matrix(0.13333333,0,0,-0.13333333,0,638.16)" />
    <path
       id="path66"
       d="m 2512.6,2898 c 0,-11.27 -9.13,-20.4 -20.4,-20.4 -11.27,0 -20.4,9.13 -20.4,20.4 0,11.27 9.13,20.4 20.4,20.4 11.27,0 20.4,-9.13 20.4,-20.4"
       style="fill:#ffffff;fill-opacity:1;fill-rule:evenodd;stroke:none"
       transform="matrix(0.13333333,0,0,-0.13333333,0,638.16)" />
    <path
       id="path67"
       d="m 2512.6,2898 c 0,-11.27 -9.13,-20.4 -20.4,-20.4 -11.27,0 -20.4,9.13 -20.4,20.4 0,11.27 9.13,20.4 20.4,20.4 11.27,0 20.4,-9.13 20.4,-20.4 z"
       style="fill:none;stroke:#000000;stroke-width:4.5;stroke-linecap:butt;stroke-linejoin:miter;stroke-miterlimit:10;stroke-dasharray:none;stroke-opacity:1"
       transform="matrix(0.13333333,0,0,-0.13333333,0,638.16)" />
    <path
       id="path68"
       d="m 1685.2,1557 c 0,-11.27 -9.13,-20.4 -20.4,-20.4 -11.27,0 -20.4,9.13 -20.4,20.4 0,11.27 9.13,20.4 20.4,20.4 11.27,0 20.4,-9.13 20.4,-20.4"
       style="fill:#ffffff;fill-opacity:1;fill-rule:evenodd;stroke:none"
       transform="matrix(0.13333333,0,0,-0.13333333,0,638.16)" />
    <path
       id="path69"
       d="m 1685.2,1557 c 0,-11.27 -9.13,-20.4 -20.4,-20.4 -11.27,0 -20.4,9.13 -20.4,20.4 0,11.27 9.13,20.4 20.4,20.4 11.27,0 20.4,-9.13 20.4,-20.4 z"
       style="fill:none;stroke:#000000;stroke-width:4.5;stroke-linecap:butt;stroke-linejoin:miter;stroke-miterlimit:10;stroke-dasharray:none;stroke-opacity:1"
       transform="matrix(0.13333333,0,0,-0.13333333,0,638.16)" />
    <path
       id="path70"
       d="m 2193.4,1179 c 0,-11.27 -9.13,-20.4 -20.4,-20.4 -11.27,0 -20.4,9.13 -20.4,20.4 0,11.27 9.13,20.4 20.4,20.4 11.27,0 20.4,-9.13 20.4,-20.4"
       style="fill:#ffffff;fill-opacity:1;fill-rule:evenodd;stroke:none"
       transform="matrix(0.13333333,0,0,-0.13333333,0,638.16)" />
    <path
       id="path71"
       d="m 2193.4,1179 c 0,-11.27 -9.13,-20.4 -20.4,-20.4 -11.27,0 -20.4,9.13 -20.4,20.4 0,11.27 9.13,20.4 20.4,20.4 11.27,0 20.4,-9.13 20.4,-20.4 z"
       style="fill:none;stroke:#000000;stroke-width:4.5;stroke-linecap:butt;stroke-linejoin:miter;stroke-miterlimit:10;stroke-dasharray:none;stroke-opacity:1"
       transform="matrix(0.13333333,0,0,-0.13333333,0,638.16)" />
    <path
       id="path72"
       d="m 2081.2,868.2 c 0,-11.266 -9.13,-20.4 -20.4,-20.4 -11.27,0 -20.4,9.134 -20.4,20.4 0,11.267 9.13,20.4 20.4,20.4 11.27,0 20.4,-9.133 20.4,-20.4"
       style="fill:#ffffff;fill-opacity:1;fill-rule:evenodd;stroke:none"
       transform="matrix(0.13333333,0,0,-0.13333333,0,638.16)" />
    <path
       id="path73"
       d="m 2081.2,868.2 c 0,-11.266 -9.13,-20.4 -20.4,-20.4 -11.27,0 -20.4,9.134 -20.4,20.4 0,11.267 9.13,20.4 20.4,20.4 11.27,0 20.4,-9.133 20.4,-20.4 z"
       style="fill:none;stroke:#000000;stroke-width:4.5;stroke-linecap:butt;stroke-linejoin:miter;stroke-miterlimit:10;stroke-dasharray:none;stroke-opacity:1"
       transform="matrix(0.13333333,0,0,-0.13333333,0,638.16)" />
    <path
       id="path74"
       d="m 1464.4,2160 c 0,-11.27 -9.13,-20.4 -20.4,-20.4 -11.27,0 -20.4,9.13 -20.4,20.4 0,11.27 9.13,20.4 20.4,20.4 11.27,0 20.4,-9.13 20.4,-20.4"
       style="fill:#ffffff;fill-opacity:1;fill-rule:evenodd;stroke:none"
       transform="matrix(0.13333333,0,0,-0.13333333,0,638.16)" />
    <path
       id="path75"
       d="m 1464.4,2160 c 0,-11.27 -9.13,-20.4 -20.4,-20.4 -11.27,0 -20.4,9.13 -20.4,20.4 0,11.27 9.13,20.4 20.4,20.4 11.27,0 20.4,-9.13 20.4,-20.4 z"
       style="fill:none;stroke:#000000;stroke-width:4.5;stroke-linecap:butt;stroke-linejoin:miter;stroke-miterlimit:10;stroke-dasharray:none;stroke-opacity:1"
       transform="matrix(0.13333333,0,0,-0.13333333,0,638.16)" />
    <path
       id="path76"
       d="m 3561.4,2164.2 c 0,-11.27 -9.13,-20.4 -20.4,-20.4 -11.27,0 -20.4,9.13 -20.4,20.4 0,11.27 9.13,20.4 20.4,20.4 11.27,0 20.4,-9.13 20.4,-20.4"
       style="fill:#ffffff;fill-opacity:1;fill-rule:evenodd;stroke:none"
       transform="matrix(0.13333333,0,0,-0.13333333,0,638.16)" />
    <path
       id="path77"
       d="m 3561.4,2164.2 c 0,-11.27 -9.13,-20.4 -20.4,-20.4 -11.27,0 -20.4,9.13 -20.4,20.4 0,11.27 9.13,20.4 20.4,20.4 11.27,0 20.4,-9.13 20.4,-20.4 z"
       style="fill:none;stroke:#000000;stroke-width:4.5;stroke-linecap:butt;stroke-linejoin:miter;stroke-miterlimit:10;stroke-dasharray:none;stroke-opacity:1"
       transform="matrix(0.13333333,0,0,-0.13333333,0,638.16)" />
    <path
       id="path78"
       d="m 3885.4,2173.2 c 0,-11.27 -9.13,-20.4 -20.4,-20.4 -11.27,0 -20.4,9.13 -20.4,20.4 0,11.27 9.13,20.4 20.4,20.4 11.27,0 20.4,-9.13 20.4,-20.4"
       style="fill:#ffffff;fill-opacity:1;fill-rule:evenodd;stroke:none"
       transform="matrix(0.13333333,0,0,-0.13333333,0,638.16)" />
    <path
       id="path79"
       d="m 3885.4,2173.2 c 0,-11.27 -9.13,-20.4 -20.4,-20.4 -11.27,0 -20.4,9.13 -20.4,20.4 0,11.27 9.13,20.4 20.4,20.4 11.27,0 20.4,-9.13 20.4,-20.4 z"
       style="fill:none;stroke:#000000;stroke-width:4.5;stroke-linecap:butt;stroke-linejoin:miter;stroke-miterlimit:10;stroke-dasharray:none;stroke-opacity:1"
       transform="matrix(0.13333333,0,0,-0.13333333,0,638.16)" />
    <path
       id="path80"
       d="m 4231.6,2718 c 0,-11.27 -9.13,-20.4 -20.4,-20.4 -11.27,0 -20.4,9.13 -20.4,20.4 0,11.27 9.13,20.4 20.4,20.4 11.27,0 20.4,-9.13 20.4,-20.4"
       style="fill:#ffffff;fill-opacity:1;fill-rule:evenodd;stroke:none"
       transform="matrix(0.13333333,0,0,-0.13333333,0,638.16)" />
    <path
       id="path81"
       d="m 4231.6,2718 c 0,-11.27 -9.13,-20.4 -20.4,-20.4 -11.27,0 -20.4,9.13 -20.4,20.4 0,11.27 9.13,20.4 20.4,20.4 11.27,0 20.4,-9.13 20.4,-20.4 z"
       style="fill:none;stroke:#000000;stroke-width:4.5;stroke-linecap:butt;stroke-linejoin:miter;stroke-miterlimit:10;stroke-dasharray:none;stroke-opacity:1"
       transform="matrix(0.13333333,0,0,-0.13333333,0,638.16)" />
    <path
       id="path82"
       d="m 3629.2,2952 c 0,-11.27 -9.13,-20.4 -20.4,-20.4 -11.27,0 -20.4,9.13 -20.4,20.4 0,11.27 9.13,20.4 20.4,20.4 11.27,0 20.4,-9.13 20.4,-20.4"
       style="fill:#ffffff;fill-opacity:1;fill-rule:evenodd;stroke:none"
       transform="matrix(0.13333333,0,0,-0.13333333,0,638.16)" />
    <path
       id="path83"
       d="m 3629.2,2952 c 0,-11.27 -9.13,-20.4 -20.4,-20.4 -11.27,0 -20.4,9.13 -20.4,20.4 0,11.27 9.13,20.4 20.4,20.4 11.27,0 20.4,-9.13 20.4,-20.4 z"
       style="fill:none;stroke:#000000;stroke-width:4.5;stroke-linecap:butt;stroke-linejoin:miter;stroke-miterlimit:10;stroke-dasharray:none;stroke-opacity:1"
       transform="matrix(0.13333333,0,0,-0.13333333,0,638.16)" />
    <path
       id="path84"
       d="m 3368.2,2758.8 c 0,-11.27 -9.13,-20.4 -20.4,-20.4 -11.27,0 -20.4,9.13 -20.4,20.4 0,11.27 9.13,20.4 20.4,20.4 11.27,0 20.4,-9.13 20.4,-20.4"
       style="fill:#ffffff;fill-opacity:1;fill-rule:evenodd;stroke:none"
       transform="matrix(0.13333333,0,0,-0.13333333,0,638.16)" />
    <path
       id="path85"
       d="m 3368.2,2758.8 c 0,-11.27 -9.13,-20.4 -20.4,-20.4 -11.27,0 -20.4,9.13 -20.4,20.4 0,11.27 9.13,20.4 20.4,20.4 11.27,0 20.4,-9.13 20.4,-20.4 z"
       style="fill:none;stroke:#000000;stroke-width:4.5;stroke-linecap:butt;stroke-linejoin:miter;stroke-miterlimit:10;stroke-dasharray:none;stroke-opacity:1"
       transform="matrix(0.13333333,0,0,-0.13333333,0,638.16)" />
    <path
       id="path86"
       d="m 1819.6,2389.2 c 0,-11.27 -9.13,-20.4 -20.4,-20.4 -11.27,0 -20.4,9.13 -20.4,20.4 0,11.27 9.13,20.4 20.4,20.4 11.27,0 20.4,-9.13 20.4,-20.4"
       style="fill:#ffffff;fill-opacity:1;fill-rule:evenodd;stroke:none"
       transform="matrix(0.13333333,0,0,-0.13333333,0,638.16)" />
    <path
       id="path87"
       d="m 1819.6,2389.2 c 0,-11.27 -9.13,-20.4 -20.4,-20.4 -11.27,0 -20.4,9.13 -20.4,20.4 0,11.27 9.13,20.4 20.4,20.4 11.27,0 20.4,-9.13 20.4,-20.4 z"
       style="fill:none;stroke:#000000;stroke-width:4.5;stroke-linecap:butt;stroke-linejoin:miter;stroke-miterlimit:10;stroke-dasharray:none;stroke-opacity:1"
       transform="matrix(0.13333333,0,0,-0.13333333,0,638.16)" />
    <path
       id="path88"
       d="m 3206.2,2385 c 0,-11.27 -9.13,-20.4 -20.4,-20.4 -11.27,0 -20.4,9.13 -20.4,20.4 0,11.27 9.13,20.4 20.4,20.4 11.27,0 20.4,-9.13 20.4,-20.4"
       style="fill:#ffffff;fill-opacity:1;fill-rule:evenodd;stroke:none"
       transform="matrix(0.13333333,0,0,-0.13333333,0,638.16)" />
    <path
       id="path89"
       d="m 3206.2,2385 c 0,-11.27 -9.13,-20.4 -20.4,-20.4 -11.27,0 -20.4,9.13 -20.4,20.4 0,11.27 9.13,20.4 20.4,20.4 11.27,0 20.4,-9.13 20.4,-20.4 z"
       style="fill:none;stroke:#000000;stroke-width:4.5;stroke-linecap:butt;stroke-linejoin:miter;stroke-miterlimit:10;stroke-dasharray:none;stroke-opacity:1"
       transform="matrix(0.13333333,0,0,-0.13333333,0,638.16)" />
    <path
       id="path90"
       d="m 2836.6,3159 c 0,-11.27 -9.13,-20.4 -20.4,-20.4 -11.27,0 -20.4,9.13 -20.4,20.4 0,11.27 9.13,20.4 20.4,20.4 11.27,0 20.4,-9.13 20.4,-20.4"
       style="fill:#ffffff;fill-opacity:1;fill-rule:evenodd;stroke:none"
       transform="matrix(0.13333333,0,0,-0.13333333,0,638.16)" />
    <path
       id="path91"
       d="m 2836.6,3159 c 0,-11.27 -9.13,-20.4 -20.4,-20.4 -11.27,0 -20.4,9.13 -20.4,20.4 0,11.27 9.13,20.4 20.4,20.4 11.27,0 20.4,-9.13 20.4,-20.4 z"
       style="fill:none;stroke:#000000;stroke-width:4.5;stroke-linecap:butt;stroke-linejoin:miter;stroke-miterlimit:10;stroke-dasharray:none;stroke-opacity:1"
       transform="matrix(0.13333333,0,0,-0.13333333,0,638.16)" />
    <path
       id="path92"
       d="m 2917.6,3483 c 0,-11.27 -9.13,-20.4 -20.4,-20.4 -11.27,0 -20.4,9.13 -20.4,20.4 0,11.27 9.13,20.4 20.4,20.4 11.27,0 20.4,-9.13 20.4,-20.4"
       style="fill:#ffffff;fill-opacity:1;fill-rule:evenodd;stroke:none"
       transform="matrix(0.13333333,0,0,-0.13333333,0,638.16)" />
    <path
       id="path93"
       d="m 2917.6,3483 c 0,-11.27 -9.13,-20.4 -20.4,-20.4 -11.27,0 -20.4,9.13 -20.4,20.4 0,11.27 9.13,20.4 20.4,20.4 11.27,0 20.4,-9.13 20.4,-20.4 z"
       style="fill:none;stroke:#000000;stroke-width:4.5;stroke-linecap:butt;stroke-linejoin:miter;stroke-miterlimit:10;stroke-dasharray:none;stroke-opacity:1"
       transform="matrix(0.13333333,0,0,-0.13333333,0,638.16)" />
    <path
       id="path94"
       d="m 2512.6,3973.8 c 0,-11.27 -9.13,-20.4 -20.4,-20.4 -11.27,0 -20.4,9.13 -20.4,20.4 0,11.27 9.13,20.4 20.4,20.4 11.27,0 20.4,-9.13 20.4,-20.4"
       style="fill:#ffffff;fill-opacity:1;fill-rule:evenodd;stroke:none"
       transform="matrix(0.13333333,0,0,-0.13333333,0,638.16)" />
    <path
       id="path95"
       d="m 2512.6,3973.8 c 0,-11.27 -9.13,-20.4 -20.4,-20.4 -11.27,0 -20.4,9.13 -20.4,20.4 0,11.27 9.13,20.4 20.4,20.4 11.27,0 20.4,-9.13 20.4,-20.4 z"
       style="fill:none;stroke:#000000;stroke-width:4.5;stroke-linecap:butt;stroke-linejoin:miter;stroke-miterlimit:10;stroke-dasharray:none;stroke-opacity:1"
       transform="matrix(0.13333333,0,0,-0.13333333,0,638.16)" />
    <path
       id="path96"
       d="m 2108.2,3478.2 c 0,-11.27 -9.13,-20.4 -20.4,-20.4 -11.27,0 -20.4,9.13 -20.4,20.4 0,11.27 9.13,20.4 20.4,20.4 11.27,0 20.4,-9.13 20.4,-20.4"
       style="fill:#ffffff;fill-opacity:1;fill-rule:evenodd;stroke:none"
       transform="matrix(0.13333333,0,0,-0.13333333,0,638.16)" />
    <path
       id="path97"
       d="m 2108.2,3478.2 c 0,-11.27 -9.13,-20.4 -20.4,-20.4 -11.27,0 -20.4,9.13 -20.4,20.4 0,11.27 9.13,20.4 20.4,20.4 11.27,0 20.4,-9.13 20.4,-20.4 z"
       style="fill:none;stroke:#000000;stroke-width:4.5;stroke-linecap:butt;stroke-linejoin:miter;stroke-miterlimit:10;stroke-dasharray:none;stroke-opacity:1"
       transform="matrix(0.13333333,0,0,-0.13333333,0,638.16)" />
    <path
       id="path98"
       d="m 2198.2,3168 c 0,-11.27 -9.13,-20.4 -20.4,-20.4 -11.27,0 -20.4,9.13 -20.4,20.4 0,11.27 9.13,20.4 20.4,20.4 11.27,0 20.4,-9.13 20.4,-20.4"
       style="fill:#ffffff;fill-opacity:1;fill-rule:evenodd;stroke:none"
       transform="matrix(0.13333333,0,0,-0.13333333,0,638.16)" />
    <path
       id="path99"
       d="m 2198.2,3168 c 0,-11.27 -9.13,-20.4 -20.4,-20.4 -11.27,0 -20.4,9.13 -20.4,20.4 0,11.27 9.13,20.4 20.4,20.4 11.27,0 20.4,-9.13 20.4,-20.4 z"
       style="fill:none;stroke:#000000;stroke-width:4.5;stroke-linecap:butt;stroke-linejoin:miter;stroke-miterlimit:10;stroke-dasharray:none;stroke-opacity:1"
       transform="matrix(0.13333333,0,0,-0.13333333,0,638.16)" />
    <path
       id="path100"
       d="m 785.2,2709 c 0,-11.27 -9.133,-20.4 -20.4,-20.4 -11.267,0 -20.4,9.13 -20.4,20.4 0,11.27 9.133,20.4 20.4,20.4 11.267,0 20.4,-9.13 20.4,-20.4"
       style="fill:#ffffff;fill-opacity:1;fill-rule:evenodd;stroke:none"
       transform="matrix(0.13333333,0,0,-0.13333333,0,638.16)" />
    <path
       id="path101"
       d="m 785.2,2709 c 0,-11.27 -9.133,-20.4 -20.4,-20.4 -11.267,0 -20.4,9.13 -20.4,20.4 0,11.27 9.133,20.4 20.4,20.4 11.267,0 20.4,-9.13 20.4,-20.4 z"
       style="fill:none;stroke:#000000;stroke-width:4.5;stroke-linecap:butt;stroke-linejoin:miter;stroke-miterlimit:10;stroke-dasharray:none;stroke-opacity:1"
       transform="matrix(0.13333333,0,0,-0.13333333,0,638.16)" />
    <path
       id="path102"
       d="m 1396.6,2943 c 0,-11.27 -9.13,-20.4 -20.4,-20.4 -11.27,0 -20.4,9.13 -20.4,20.4 0,11.27 9.13,20.4 20.4,20.4 11.27,0 20.4,-9.13 20.4,-20.4"
       style="fill:#ffffff;fill-opacity:1;fill-rule:evenodd;stroke:none"
       transform="matrix(0.13333333,0,0,-0.13333333,0,638.16)" />
    <path
       id="path103"
       d="m 1396.6,2943 c 0,-11.27 -9.13,-20.4 -20.4,-20.4 -11.27,0 -20.4,9.13 -20.4,20.4 0,11.27 9.13,20.4 20.4,20.4 11.27,0 20.4,-9.13 20.4,-20.4 z"
       style="fill:none;stroke:#000000;stroke-width:4.5;stroke-linecap:butt;stroke-linejoin:miter;stroke-miterlimit:10;stroke-dasharray:none;stroke-opacity:1"
       transform="matrix(0.13333333,0,0,-0.13333333,0,638.16)" />
    <path
       id="path104"
       d="m 2517.4,2164.2 c 0,-11.27 -9.13,-20.4 -20.4,-20.4 -11.27,0 -20.4,9.13 -20.4,20.4 0,11.27 9.13,20.4 20.4,20.4 11.27,0 20.4,-9.13 20.4,-20.4"
       style="fill:#ffffff;fill-opacity:1;fill-rule:evenodd;stroke:none"
       transform="matrix(0.13333333,0,0,-0.13333333,0,638.16)" />
    <path
       id="path105"
       d="m 2517.4,2164.2 c 0,-11.27 -9.13,-20.4 -20.4,-20.4 -11.27,0 -20.4,9.13 -20.4,20.4 0,11.27 9.13,20.4 20.4,20.4 11.27,0 20.4,-9.13 20.4,-20.4 z"
       style="fill:none;stroke:#000000;stroke-width:4.5;stroke-linecap:butt;stroke-linejoin:miter;stroke-miterlimit:10;stroke-dasharray:none;stroke-opacity:1"
       transform="matrix(0.13333333,0,0,-0.13333333,0,638.16)" />
    <path
       id="path106"
       d="m 1136.2,2169 c 0,-11.27 -9.13,-20.4 -20.4,-20.4 -11.27,0 -20.4,9.13 -20.4,20.4 0,11.27 9.13,20.4 20.4,20.4 11.27,0 20.4,-9.13 20.4,-20.4"
       style="fill:#ffffff;fill-opacity:1;fill-rule:evenodd;stroke:none"
       transform="matrix(0.13333333,0,0,-0.13333333,0,638.16)" />
    <path
       id="path107"
       d="m 1136.2,2169 c 0,-11.27 -9.13,-20.4 -20.4,-20.4 -11.27,0 -20.4,9.13 -20.4,20.4 0,11.27 9.13,20.4 20.4,20.4 11.27,0 20.4,-9.13 20.4,-20.4 z"
       style="fill:none;stroke:#000000;stroke-width:4.5;stroke-linecap:butt;stroke-linejoin:miter;stroke-miterlimit:10;stroke-dasharray:none;stroke-opacity:1"
       transform="matrix(0.13333333,0,0,-0.13333333,0,638.16)" />
    <path
       id="path108"
       d="m 2103.4,1584 c 0,-11.27 -9.13,-20.4 -20.4,-20.4 -11.27,0 -20.4,9.13 -20.4,20.4 0,11.27 9.13,20.4 20.4,20.4 11.27,0 20.4,-9.13 20.4,-20.4"
       style="fill:#ffffff;fill-opacity:1;fill-rule:evenodd;stroke:none"
       transform="matrix(0.13333333,0,0,-0.13333333,0,638.16)" />
    <path
       id="path109"
       d="m 2103.4,1584 c 0,-11.27 -9.13,-20.4 -20.4,-20.4 -11.27,0 -20.4,9.13 -20.4,20.4 0,11.27 9.13,20.4 20.4,20.4 11.27,0 20.4,-9.13 20.4,-20.4 z"
       style="fill:none;stroke:#000000;stroke-width:4.5;stroke-linecap:butt;stroke-linejoin:miter;stroke-miterlimit:10;stroke-dasharray:none;stroke-opacity:1"
       transform="matrix(0.13333333,0,0,-0.13333333,0,638.16)" />
    <path
       id="path110"
       d="m 1658.2,2758.2 c 0,-11.27 -9.13,-20.4 -20.4,-20.4 -11.27,0 -20.4,9.13 -20.4,20.4 0,11.27 9.13,20.4 20.4,20.4 11.27,0 20.4,-9.13 20.4,-20.4"
       style="fill:#ffffff;fill-opacity:1;fill-rule:evenodd;stroke:none"
       transform="matrix(0.13333333,0,0,-0.13333333,0,638.16)" />
    <path
       id="path111"
       d="m 1658.2,2758.2 c 0,-11.27 -9.13,-20.4 -20.4,-20.4 -11.27,0 -20.4,9.13 -20.4,20.4 0,11.27 9.13,20.4 20.4,20.4 11.27,0 20.4,-9.13 20.4,-20.4 z"
       style="fill:none;stroke:#000000;stroke-width:4.5;stroke-linecap:butt;stroke-linejoin:miter;stroke-miterlimit:10;stroke-dasharray:none;stroke-opacity:1"
       transform="matrix(0.13333333,0,0,-0.13333333,0,638.16)" />
    <path
       id="path112"
       d="m 1428.4,1354.2 c 0,-11.27 -9.13,-20.4 -20.4,-20.4 -11.27,0 -20.4,9.13 -20.4,20.4 0,11.27 9.13,20.4 20.4,20.4 11.27,0 20.4,-9.13 20.4,-20.4"
       style="fill:#ffffff;fill-opacity:1;fill-rule:evenodd;stroke:none"
       transform="matrix(0.13333333,0,0,-0.13333333,0,638.16)" />
    <path
       id="path113"
       d="m 1428.4,1354.2 c 0,-11.27 -9.13,-20.4 -20.4,-20.4 -11.27,0 -20.4,9.13 -20.4,20.4 0,11.27 9.13,20.4 20.4,20.4 11.27,0 20.4,-9.13 20.4,-20.4 z"
       style="fill:none;stroke:#000000;stroke-width:4.5;stroke-linecap:butt;stroke-linejoin:miter;stroke-miterlimit:10;stroke-dasharray:none;stroke-opacity:1"
       transform="matrix(0.13333333,0,0,-0.13333333,0,638.16)" />
    <path
       id="path114"
       d="m 1469.2,706.2 c 0,-11.266 -9.13,-20.4 -20.4,-20.4 -11.27,0 -20.4,9.134 -20.4,20.4 0,11.267 9.13,20.4 20.4,20.4 11.27,0 20.4,-9.133 20.4,-20.4"
       style="fill:#ffffff;fill-opacity:1;fill-rule:evenodd;stroke:none"
       transform="matrix(0.13333333,0,0,-0.13333333,0,638.16)" />
    <path
       id="path115"
       d="m 1469.2,706.2 c 0,-11.266 -9.13,-20.4 -20.4,-20.4 -11.27,0 -20.4,9.134 -20.4,20.4 0,11.267 9.13,20.4 20.4,20.4 11.27,0 20.4,-9.133 20.4,-20.4 z"
       style="fill:none;stroke:#000000;stroke-width:4.5;stroke-linecap:butt;stroke-linejoin:miter;stroke-miterlimit:10;stroke-dasharray:none;stroke-opacity:1"
       transform="matrix(0.13333333,0,0,-0.13333333,0,638.16)" />
    <path
       id="path116"
       d="m 2981.2,882 c 0,-11.267 -9.13,-20.4 -20.4,-20.4 -11.27,0 -20.4,9.133 -20.4,20.4 0,11.267 9.13,20.4 20.4,20.4 11.27,0 20.4,-9.133 20.4,-20.4"
       style="fill:#ffffff;fill-opacity:1;fill-rule:evenodd;stroke:none"
       transform="matrix(0.13333333,0,0,-0.13333333,0,638.16)" />
    <path
       id="path117"
       d="m 2981.2,882 c 0,-11.267 -9.13,-20.4 -20.4,-20.4 -11.27,0 -20.4,9.133 -20.4,20.4 0,11.267 9.13,20.4 20.4,20.4 11.27,0 20.4,-9.133 20.4,-20.4 z"
       style="fill:none;stroke:#000000;stroke-width:4.5;stroke-linecap:butt;stroke-linejoin:miter;stroke-miterlimit:10;stroke-dasharray:none;stroke-opacity:1"
       transform="matrix(0.13333333,0,0,-0.13333333,0,638.16)" />
    <path
       id="path118"
       d="m 3593.2,724.2 c 0,-11.266 -9.13,-20.4 -20.4,-20.4 -11.27,0 -20.4,9.134 -20.4,20.4 0,11.267 9.13,20.4 20.4,20.4 11.27,0 20.4,-9.133 20.4,-20.4"
       style="fill:#ffffff;fill-opacity:1;fill-rule:evenodd;stroke:none"
       transform="matrix(0.13333333,0,0,-0.13333333,0,638.16)" />
    <path
       id="path119"
       d="m 3593.2,724.2 c 0,-11.266 -9.13,-20.4 -20.4,-20.4 -11.27,0 -20.4,9.134 -20.4,20.4 0,11.267 9.13,20.4 20.4,20.4 11.27,0 20.4,-9.133 20.4,-20.4 z"
       style="fill:none;stroke:#000000;stroke-width:4.5;stroke-linecap:butt;stroke-linejoin:miter;stroke-miterlimit:10;stroke-dasharray:none;stroke-opacity:1"
       transform="matrix(0.13333333,0,0,-0.13333333,0,638.16)" />
    <path
       id="path120"
       d="m 3642.4,1354.2 c 0,-11.27 -9.13,-20.4 -20.4,-20.4 -11.27,0 -20.4,9.13 -20.4,20.4 0,11.27 9.13,20.4 20.4,20.4 11.27,0 20.4,-9.13 20.4,-20.4"
       style="fill:#ffffff;fill-opacity:1;fill-rule:evenodd;stroke:none"
       transform="matrix(0.13333333,0,0,-0.13333333,0,638.16)" />
    <path
       id="path121"
       d="m 3642.4,1354.2 c 0,-11.27 -9.13,-20.4 -20.4,-20.4 -11.27,0 -20.4,9.13 -20.4,20.4 0,11.27 9.13,20.4 20.4,20.4 11.27,0 20.4,-9.13 20.4,-20.4 z"
       style="fill:none;stroke:#000000;stroke-width:4.5;stroke-linecap:butt;stroke-linejoin:miter;stroke-miterlimit:10;stroke-dasharray:none;stroke-opacity:1"
       transform="matrix(0.13333333,0,0,-0.13333333,0,638.16)" />
    <path
       id="path122"
       d="m 2864.2,1183.2 c 0,-11.27 -9.13,-20.4 -20.4,-20.4 -11.27,0 -20.4,9.13 -20.4,20.4 0,11.27 9.13,20.4 20.4,20.4 11.27,0 20.4,-9.13 20.4,-20.4"
       style="fill:#ffffff;fill-opacity:1;fill-rule:evenodd;stroke:none"
       transform="matrix(0.13333333,0,0,-0.13333333,0,638.16)" />
    <path
       id="path123"
       d="m 2864.2,1183.2 c 0,-11.27 -9.13,-20.4 -20.4,-20.4 -11.27,0 -20.4,9.13 -20.4,20.4 0,11.27 9.13,20.4 20.4,20.4 11.27,0 20.4,-9.13 20.4,-20.4 z"
       style="fill:none;stroke:#000000;stroke-width:4.5;stroke-linecap:butt;stroke-linejoin:miter;stroke-miterlimit:10;stroke-dasharray:none;stroke-opacity:1"
       transform="matrix(0.13333333,0,0,-0.13333333,0,638.16)" />
    <path
       id="path124"
       d="m 3377.2,1552.2 c 0,-11.27 -9.13,-20.4 -20.4,-20.4 -11.27,0 -20.4,9.13 -20.4,20.4 0,11.27 9.13,20.4 20.4,20.4 11.27,0 20.4,-9.13 20.4,-20.4"
       style="fill:#ffffff;fill-opacity:1;fill-rule:evenodd;stroke:none"
       transform="matrix(0.13333333,0,0,-0.13333333,0,638.16)" />
    <path
       id="path125"
       d="m 3377.2,1552.2 c 0,-11.27 -9.13,-20.4 -20.4,-20.4 -11.27,0 -20.4,9.13 -20.4,20.4 0,11.27 9.13,20.4 20.4,20.4 11.27,0 20.4,-9.13 20.4,-20.4 z"
       style="fill:none;stroke:#000000;stroke-width:4.5;stroke-linecap:butt;stroke-linejoin:miter;stroke-miterlimit:10;stroke-dasharray:none;stroke-opacity:1"
       transform="matrix(0.13333333,0,0,-0.13333333,0,638.16)" />
    <path
       id="path126"
       d="m 2954.2,1579.2 c 0,-11.27 -9.13,-20.4 -20.4,-20.4 -11.27,0 -20.4,9.13 -20.4,20.4 0,11.27 9.13,20.4 20.4,20.4 11.27,0 20.4,-9.13 20.4,-20.4"
       style="fill:#ffffff;fill-opacity:1;fill-rule:evenodd;stroke:none"
       transform="matrix(0.13333333,0,0,-0.13333333,0,638.16)" />
    <path
       id="path127"
       d="m 2954.2,1579.2 c 0,-11.27 -9.13,-20.4 -20.4,-20.4 -11.27,0 -20.4,9.13 -20.4,20.4 0,11.27 9.13,20.4 20.4,20.4 11.27,0 20.4,-9.13 20.4,-20.4 z"
       style="fill:none;stroke:#000000;stroke-width:4.5;stroke-linecap:butt;stroke-linejoin:miter;stroke-miterlimit:10;stroke-dasharray:none;stroke-opacity:1"
       transform="matrix(0.13333333,0,0,-0.13333333,0,638.16)" />
  </g>
</svg>
