<?xml version="1.0" encoding="UTF-8" standalone="no"?>
<!-- Created with Inkscape (http://www.inkscape.org/) -->

<svg
   version="1.1"
   id="svg1"
   width="664.79999"
   height="638.15997"
   viewBox="0 0 664.79999 638.15997"
   sodipodi:docname="5vennDual.svg"
   inkscape:version="1.3.2 (091e20e, 2023-11-25, custom)"
   xmlns:inkscape="http://www.inkscape.org/namespaces/inkscape"
   xmlns:sodipodi="http://sodipodi.sourceforge.net/DTD/sodipodi-0.dtd"
   xmlns="http://www.w3.org/2000/svg"
   xmlns:svg="http://www.w3.org/2000/svg">
  <defs
     id="defs1" />
  <sodipodi:namedview
     id="namedview1"
     pagecolor="#ffffff"
     bordercolor="#000000"
     borderopacity="0.25"
     inkscape:showpageshadow="2"
     inkscape:pageopacity="0.0"
     inkscape:pagecheckerboard="0"
     inkscape:deskcolor="#d1d1d1"
     inkscape:zoom="2.1640342"
     inkscape:cx="332.24984"
     inkscape:cy="319.07999"
     inkscape:window-width="3840"
     inkscape:window-height="1577"
     inkscape:window-x="-8"
     inkscape:window-y="-8"
     inkscape:window-maximized="1"
     inkscape:current-layer="g1">
    <inkscape:page
       x="0"
       y="0"
       inkscape:label="1"
       id="page1"
       width="664.79999"
       height="638.15997"
       margin="0"
       bleed="0" />
  </sodipodi:namedview>
  <g
     id="g1"
     inkscape:groupmode="layer"
     inkscape:label="Dual_Edges">
    <path
       id="path1"
       d="m 1406.8,1353.6 36.6,-638.4"
       style="fill:#000000;stroke:#ff0000;stroke-width:30.00000075;stroke-linecap:butt;stroke-linejoin:miter;stroke-miterlimit:10;stroke-dasharray:none;stroke-opacity:1;fill-opacity:1"
       transform="matrix(0.13333333,0,0,-0.13333333,0,638.16)" />
    <path
       id="path2"
       d="m 2077.6,1588.2 -412.8,-33"
       style="fill:#000000;stroke:#ff0000;stroke-width:30.00000075;stroke-linecap:butt;stroke-linejoin:miter;stroke-miterlimit:10;stroke-dasharray:none;stroke-opacity:1;fill-opacity:1"
       transform="matrix(0.13333333,0,0,-0.13333333,0,638.16)" />
    <path
       id="path3"
       d="m 1121.2,2172 327.6,-12"
       style="fill:#000000;stroke:#ff0000;stroke-width:30.00000075;stroke-linecap:butt;stroke-linejoin:miter;stroke-miterlimit:10;stroke-dasharray:none;stroke-opacity:1;fill-opacity:1"
       transform="matrix(0.13333333,0,0,-0.13333333,0,638.16)" />
    <path
       id="path4"
       d="M 1120,2167.2 774.4,2705.4"
       style="fill:#000000;stroke:#ff0000;stroke-width:30.00000075;stroke-linecap:butt;stroke-linejoin:miter;stroke-miterlimit:10;stroke-dasharray:none;stroke-opacity:1;fill-opacity:1"
       transform="matrix(0.13333333,0,0,-0.13333333,0,638.16)" />
    <path
       id="path5"
       d="m 1799.8,2382 -354,-216.6"
       style="fill:#000000;stroke:#ff0000;stroke-width:30.00000075;stroke-linecap:butt;stroke-linejoin:miter;stroke-miterlimit:10;stroke-dasharray:none;stroke-opacity:1;fill-opacity:1"
       transform="matrix(0.13333333,0,0,-0.13333333,0,638.16)" />
    <path
       id="path6"
       d="M 1373.2,2946 1645,2763"
       style="fill:#000000;stroke:#ff0000;stroke-width:30.00000075;stroke-linecap:butt;stroke-linejoin:miter;stroke-miterlimit:10;stroke-dasharray:none;stroke-opacity:1;fill-opacity:1"
       transform="matrix(0.13333333,0,0,-0.13333333,0,638.16)" />
    <path
       id="path7"
       d="M 3574,719.4 4050.4,64.2002"
       style="fill:#000000;stroke:#ff0000;stroke-width:30.00000075;stroke-linecap:butt;stroke-linejoin:miter;stroke-miterlimit:10;stroke-dasharray:none;stroke-opacity:1;fill-opacity:1"
       transform="matrix(0.13333333,0,0,-0.13333333,0,638.16)" />
    <path
       id="path8"
       d="M 2955.4,881.4 3574,719.4"
       style="fill:#000000;stroke:#ff0000;stroke-width:30.00000075;stroke-linecap:butt;stroke-linejoin:miter;stroke-miterlimit:10;stroke-dasharray:none;stroke-opacity:1;fill-opacity:1"
       transform="matrix(0.13333333,0,0,-0.13333333,0,638.16)" />
    <path
       id="path9"
       d="m 2087.8,3474 90,-315"
       style="fill:#000000;stroke:#ff0000;stroke-width:30.00000075;stroke-linecap:butt;stroke-linejoin:miter;stroke-miterlimit:10;stroke-dasharray:none;stroke-opacity:1;fill-opacity:1"
       transform="matrix(0.13333333,0,0,-0.13333333,0,638.16)" />
    <path
       id="path10"
       d="m 2083,3474 405,495"
       style="fill:#000000;stroke:#ff0000;stroke-width:30.00000075;stroke-linecap:butt;stroke-linejoin:miter;stroke-miterlimit:10;stroke-dasharray:none;stroke-opacity:1;fill-opacity:1"
       transform="matrix(0.13333333,0,0,-0.13333333,0,638.16)" />
    <path
       id="path11"
       d="m 2497,2893.8 -315,270"
       style="fill:#000000;stroke:#ff0000;stroke-width:30.00000075;stroke-linecap:butt;stroke-linejoin:miter;stroke-miterlimit:10;stroke-dasharray:none;stroke-opacity:1;fill-opacity:1"
       transform="matrix(0.13333333,0,0,-0.13333333,0,638.16)" />
    <path
       id="path12"
       d="M 777.4,2713.8 7,2964"
       style="fill:#000000;stroke:#ff0000;stroke-width:30.00000075;stroke-linecap:butt;stroke-linejoin:miter;stroke-miterlimit:10;stroke-dasharray:none;stroke-opacity:1;fill-opacity:1"
       transform="matrix(0.13333333,0,0,-0.13333333,0,638.16)" />
    <path
       id="path13"
       d="m 2902,3474 -90,-315"
       style="fill:#000000;stroke:#ff0000;stroke-width:30.00000075;stroke-linecap:butt;stroke-linejoin:miter;stroke-miterlimit:10;stroke-dasharray:none;stroke-opacity:1;fill-opacity:1"
       transform="matrix(0.13333333,0,0,-0.13333333,0,638.16)" />
    <path
       id="path14"
       d="m 2902,3474 -405,495"
       style="fill:#000000;stroke:#ff0000;stroke-width:30.00000075;stroke-linecap:butt;stroke-linejoin:miter;stroke-miterlimit:10;stroke-dasharray:none;stroke-opacity:1;fill-opacity:1"
       transform="matrix(0.13333333,0,0,-0.13333333,0,638.16)" />
    <path
       id="path15"
       d="m 2939.2,1593 -95.4,-403.8"
       style="fill:#000000;stroke:#ff0000;stroke-width:30.00000075;stroke-linecap:butt;stroke-linejoin:miter;stroke-miterlimit:10;stroke-dasharray:none;stroke-opacity:1;fill-opacity:1"
       transform="matrix(0.13333333,0,0,-0.13333333,0,638.16)" />
    <path
       id="path16"
       d="m 3611.2,2950.2 -271.8,-183"
       style="fill:#000000;stroke:#ff0000;stroke-width:30.00000075;stroke-linecap:butt;stroke-linejoin:miter;stroke-miterlimit:10;stroke-dasharray:none;stroke-opacity:1;fill-opacity:1"
       transform="matrix(0.13333333,0,0,-0.13333333,0,638.16)" />
    <path
       id="path17"
       d="m 3609.4,2954.4 595.8,-232.2"
       style="fill:#000000;stroke:#ff0000;stroke-width:30.00000075;stroke-linecap:butt;stroke-linejoin:miter;stroke-miterlimit:10;stroke-dasharray:none;stroke-opacity:1;fill-opacity:1"
       transform="matrix(0.13333333,0,0,-0.13333333,0,638.16)" />
    <path
       id="path18"
       d="m 3185.8,2381.4 159.6,383.4"
       style="fill:#000000;stroke:#ff0000;stroke-width:30.00000075;stroke-linecap:butt;stroke-linejoin:miter;stroke-miterlimit:10;stroke-dasharray:none;stroke-opacity:1;fill-opacity:1"
       transform="matrix(0.13333333,0,0,-0.13333333,0,638.16)" />
    <path
       id="path19"
       d="M 3862.6,2175.6 3535,2164.2"
       style="fill:#000000;stroke:#ff0000;stroke-width:30.00000075;stroke-linecap:butt;stroke-linejoin:miter;stroke-miterlimit:10;stroke-dasharray:none;stroke-opacity:1;fill-opacity:1"
       transform="matrix(0.13333333,0,0,-0.13333333,0,638.16)" />
    <path
       id="path20"
       d="M 4208.2,2713.8 4978.6,2964"
       style="fill:#000000;stroke:#ff0000;stroke-width:30.00000075;stroke-linecap:butt;stroke-linejoin:miter;stroke-miterlimit:10;stroke-dasharray:none;stroke-opacity:1;fill-opacity:1"
       transform="matrix(0.13333333,0,0,-0.13333333,0,638.16)" />
    <path
       id="path21"
       d="m 3862.6,2175.6 345.6,538.2"
       style="fill:#000000;stroke:#ff0000;stroke-width:30.00000075;stroke-linecap:butt;stroke-linejoin:miter;stroke-miterlimit:10;stroke-dasharray:none;stroke-opacity:1;fill-opacity:1"
       transform="matrix(0.13333333,0,0,-0.13333333,0,638.16)" />
    <path
       id="path22"
       d="m 3181,2380.2 354,-216"
       style="fill:#000000;stroke:#ff0000;stroke-width:30.00000075;stroke-linecap:butt;stroke-linejoin:miter;stroke-miterlimit:10;stroke-dasharray:none;stroke-opacity:1;fill-opacity:1"
       transform="matrix(0.13333333,0,0,-0.13333333,0,638.16)" />
    <path
       id="path23"
       d="m 2065,874.8 112.2,307.8"
       style="fill:#000000;stroke:#ff0000;stroke-width:30.00000075;stroke-linecap:butt;stroke-linejoin:miter;stroke-miterlimit:10;stroke-dasharray:none;stroke-opacity:1;fill-opacity:1"
       transform="matrix(0.13333333,0,0,-0.13333333,0,638.16)" />
    <path
       id="path24"
       d="m 2069.2,871.8 -618.6,-162"
       style="fill:#000000;stroke:#ff0000;stroke-width:30.00000075;stroke-linecap:butt;stroke-linejoin:miter;stroke-miterlimit:10;stroke-dasharray:none;stroke-opacity:1;fill-opacity:1"
       transform="matrix(0.13333333,0,0,-0.13333333,0,638.16)" />
    <path
       id="path25"
       d="m 3617.8,1363.2 -36.6,-639"
       style="fill:#000000;stroke:#ff0000;stroke-width:30.00000075;stroke-linecap:butt;stroke-linejoin:miter;stroke-miterlimit:10;stroke-dasharray:none;stroke-opacity:1;fill-opacity:1"
       transform="matrix(0.13333333,0,0,-0.13333333,0,638.16)" />
    <path
       id="path26"
       d="m 2942.2,1588.8 414,-33"
       style="fill:#000000;stroke:#ff0000;stroke-width:30.00000075;stroke-linecap:butt;stroke-linejoin:miter;stroke-miterlimit:10;stroke-dasharray:none;stroke-opacity:1;fill-opacity:1"
       transform="matrix(0.13333333,0,0,-0.13333333,0,638.16)" />
    <path
       id="path27"
       d="m 2955.4,881.4 -111.6,307.8"
       style="fill:#000000;stroke:#ff0000;stroke-width:30.00000075;stroke-linecap:butt;stroke-linejoin:miter;stroke-miterlimit:10;stroke-dasharray:none;stroke-opacity:1;fill-opacity:1"
       transform="matrix(0.13333333,0,0,-0.13333333,0,638.16)" />
    <path
       id="path28"
       d="m 2497,3969 v 810"
       style="fill:#000000;stroke:#ff0000;stroke-width:30.00000075;stroke-linecap:butt;stroke-linejoin:miter;stroke-miterlimit:10;stroke-dasharray:none;stroke-opacity:1;fill-opacity:1"
       transform="matrix(0.13333333,0,0,-0.13333333,0,638.16)" />
    <path
       id="path29"
       d="M 1373.2,2946 777.4,2713.8"
       style="fill:#000000;stroke:#ff0000;stroke-width:30.00000075;stroke-linecap:butt;stroke-linejoin:miter;stroke-miterlimit:10;stroke-dasharray:none;stroke-opacity:1;fill-opacity:1"
       transform="matrix(0.13333333,0,0,-0.13333333,0,638.16)" />
    <path
       id="path30"
       d="m 2074.6,1585.2 96.6,-403.8"
       style="fill:#000000;stroke:#ff0000;stroke-width:30.00000075;stroke-linecap:butt;stroke-linejoin:miter;stroke-miterlimit:10;stroke-dasharray:none;stroke-opacity:1;fill-opacity:1"
       transform="matrix(0.13333333,0,0,-0.13333333,0,638.16)" />
    <path
       id="path31"
       d="m 1406.8,1353.6 258,201.6"
       style="fill:#000000;stroke:#ff0000;stroke-width:30.00000075;stroke-linecap:butt;stroke-linejoin:miter;stroke-miterlimit:10;stroke-dasharray:none;stroke-opacity:1;fill-opacity:1"
       transform="matrix(0.13333333,0,0,-0.13333333,0,638.16)" />
    <path
       id="path32"
       d="M 1443.4,715.2 967,60.0002"
       style="fill:#000000;stroke:#ff0000;stroke-width:30.00000075;stroke-linecap:butt;stroke-linejoin:miter;stroke-miterlimit:10;stroke-dasharray:none;stroke-opacity:1;fill-opacity:1"
       transform="matrix(0.13333333,0,0,-0.13333333,0,638.16)" />
    <path
       id="path33"
       d="M 1804,2380.2 1645,2763"
       style="fill:#000000;stroke:#ff0000;stroke-width:30.00000075;stroke-linecap:butt;stroke-linejoin:miter;stroke-miterlimit:10;stroke-dasharray:none;stroke-opacity:1;fill-opacity:1"
       transform="matrix(0.13333333,0,0,-0.13333333,0,638.16)" />
    <path
       id="path34"
       d="m 3614.2,1360.2 -258,201.6"
       style="fill:#000000;stroke:#ff0000;stroke-width:30.00000075;stroke-linecap:butt;stroke-linejoin:miter;stroke-miterlimit:10;stroke-dasharray:none;stroke-opacity:1;fill-opacity:1"
       transform="matrix(0.13333333,0,0,-0.13333333,0,638.16)" />
    <path
       id="path35"
       d="m 2497,2889 315,270"
       style="fill:#000000;stroke:#ff0000;stroke-width:30.00000075;stroke-linecap:butt;stroke-linejoin:miter;stroke-miterlimit:10;stroke-dasharray:none;stroke-opacity:1;fill-opacity:1"
       transform="matrix(0.13333333,0,0,-0.13333333,0,638.16)" />
    <path
       id="path36"
       d="m 2497,2169 v 720"
       style="fill:#000000;stroke:#ff0000;stroke-width:30.00000075;stroke-linecap:butt;stroke-linejoin:miter;stroke-miterlimit:10;stroke-dasharray:none;stroke-opacity:1;fill-opacity:1"
       transform="matrix(0.13333333,0,0,-0.13333333,0,638.16)" />
    <path
       id="path37"
       d="m 2497,2169 -684.6,222.6"
       style="fill:#000000;stroke:#ff0000;stroke-width:30.00000075;stroke-linecap:butt;stroke-linejoin:miter;stroke-miterlimit:10;stroke-dasharray:none;stroke-opacity:1;fill-opacity:1"
       transform="matrix(0.13333333,0,0,-0.13333333,0,638.16)" />
    <path
       id="path38"
       d="m 2497,2169 438,-585"
       style="fill:#000000;stroke:#ff0000;stroke-width:30.00000075;stroke-linecap:butt;stroke-linejoin:miter;stroke-miterlimit:10;stroke-dasharray:none;stroke-opacity:1;fill-opacity:1"
       transform="matrix(0.13333333,0,0,-0.13333333,0,638.16)" />
    <path
       id="path39"
       d="m 2497,2169 685.2,222.6"
       style="fill:#000000;stroke:#ff0000;stroke-width:30.00000075;stroke-linecap:butt;stroke-linejoin:miter;stroke-miterlimit:10;stroke-dasharray:none;stroke-opacity:1;fill-opacity:1"
       transform="matrix(0.13333333,0,0,-0.13333333,0,638.16)" />
    <path
       id="path40"
       d="M 2497,2169 2074,1586.4"
       style="fill:#000000;stroke:#ff0000;stroke-width:30.00000075;stroke-linecap:butt;stroke-linejoin:miter;stroke-miterlimit:10;stroke-dasharray:none;stroke-opacity:1;fill-opacity:1"
       transform="matrix(0.13333333,0,0,-0.13333333,0,638.16)" />
  </g>
  <g
     inkscape:groupmode="layer"
     id="layer1"
     inkscape:label="DualVerts">
    <path
       id="path41"
       d="m 2512.6,2898 c 0,-11.27 -9.13,-20.4 -20.4,-20.4 -11.27,0 -20.4,9.13 -20.4,20.4 0,11.27 9.13,20.4 20.4,20.4 11.27,0 20.4,-9.13 20.4,-20.4"
       style="fill:#ffffff;fill-opacity:1;fill-rule:evenodd;stroke:none"
       transform="matrix(0.13333333,0,0,-0.13333333,0,638.16)" />
    <path
       id="path42"
       d="m 2512.6,2898 c 0,-11.27 -9.13,-20.4 -20.4,-20.4 -11.27,0 -20.4,9.13 -20.4,20.4 0,11.27 9.13,20.4 20.4,20.4 11.27,0 20.4,-9.13 20.4,-20.4 z"
       style="fill:none;stroke:#000000;stroke-width:4.5;stroke-linecap:butt;stroke-linejoin:miter;stroke-miterlimit:10;stroke-dasharray:none;stroke-opacity:1"
       transform="matrix(0.13333333,0,0,-0.13333333,0,638.16)" />
    <path
       id="path43"
       d="m 1685.2,1557 c 0,-11.27 -9.13,-20.4 -20.4,-20.4 -11.27,0 -20.4,9.13 -20.4,20.4 0,11.27 9.13,20.4 20.4,20.4 11.27,0 20.4,-9.13 20.4,-20.4"
       style="fill:#ffffff;fill-opacity:1;fill-rule:evenodd;stroke:none"
       transform="matrix(0.13333333,0,0,-0.13333333,0,638.16)" />
    <path
       id="path44"
       d="m 1685.2,1557 c 0,-11.27 -9.13,-20.4 -20.4,-20.4 -11.27,0 -20.4,9.13 -20.4,20.4 0,11.27 9.13,20.4 20.4,20.4 11.27,0 20.4,-9.13 20.4,-20.4 z"
       style="fill:none;stroke:#000000;stroke-width:4.5;stroke-linecap:butt;stroke-linejoin:miter;stroke-miterlimit:10;stroke-dasharray:none;stroke-opacity:1"
       transform="matrix(0.13333333,0,0,-0.13333333,0,638.16)" />
    <path
       id="path45"
       d="m 2193.4,1179 c 0,-11.27 -9.13,-20.4 -20.4,-20.4 -11.27,0 -20.4,9.13 -20.4,20.4 0,11.27 9.13,20.4 20.4,20.4 11.27,0 20.4,-9.13 20.4,-20.4"
       style="fill:#ffffff;fill-opacity:1;fill-rule:evenodd;stroke:none"
       transform="matrix(0.13333333,0,0,-0.13333333,0,638.16)" />
    <path
       id="path46"
       d="m 2193.4,1179 c 0,-11.27 -9.13,-20.4 -20.4,-20.4 -11.27,0 -20.4,9.13 -20.4,20.4 0,11.27 9.13,20.4 20.4,20.4 11.27,0 20.4,-9.13 20.4,-20.4 z"
       style="fill:none;stroke:#000000;stroke-width:4.5;stroke-linecap:butt;stroke-linejoin:miter;stroke-miterlimit:10;stroke-dasharray:none;stroke-opacity:1"
       transform="matrix(0.13333333,0,0,-0.13333333,0,638.16)" />
    <path
       id="path47"
       d="m 2081.2,868.2 c 0,-11.266 -9.13,-20.4 -20.4,-20.4 -11.27,0 -20.4,9.134 -20.4,20.4 0,11.267 9.13,20.4 20.4,20.4 11.27,0 20.4,-9.133 20.4,-20.4"
       style="fill:#ffffff;fill-opacity:1;fill-rule:evenodd;stroke:none"
       transform="matrix(0.13333333,0,0,-0.13333333,0,638.16)" />
    <path
       id="path48"
       d="m 2081.2,868.2 c 0,-11.266 -9.13,-20.4 -20.4,-20.4 -11.27,0 -20.4,9.134 -20.4,20.4 0,11.267 9.13,20.4 20.4,20.4 11.27,0 20.4,-9.133 20.4,-20.4 z"
       style="fill:none;stroke:#000000;stroke-width:4.5;stroke-linecap:butt;stroke-linejoin:miter;stroke-miterlimit:10;stroke-dasharray:none;stroke-opacity:1"
       transform="matrix(0.13333333,0,0,-0.13333333,0,638.16)" />
    <path
       id="path49"
       d="m 1464.4,2160 c 0,-11.27 -9.13,-20.4 -20.4,-20.4 -11.27,0 -20.4,9.13 -20.4,20.4 0,11.27 9.13,20.4 20.4,20.4 11.27,0 20.4,-9.13 20.4,-20.4"
       style="fill:#ffffff;fill-opacity:1;fill-rule:evenodd;stroke:none"
       transform="matrix(0.13333333,0,0,-0.13333333,0,638.16)" />
    <path
       id="path50"
       d="m 1464.4,2160 c 0,-11.27 -9.13,-20.4 -20.4,-20.4 -11.27,0 -20.4,9.13 -20.4,20.4 0,11.27 9.13,20.4 20.4,20.4 11.27,0 20.4,-9.13 20.4,-20.4 z"
       style="fill:none;stroke:#000000;stroke-width:4.5;stroke-linecap:butt;stroke-linejoin:miter;stroke-miterlimit:10;stroke-dasharray:none;stroke-opacity:1"
       transform="matrix(0.13333333,0,0,-0.13333333,0,638.16)" />
    <path
       id="path51"
       d="m 3561.4,2164.2 c 0,-11.27 -9.13,-20.4 -20.4,-20.4 -11.27,0 -20.4,9.13 -20.4,20.4 0,11.27 9.13,20.4 20.4,20.4 11.27,0 20.4,-9.13 20.4,-20.4"
       style="fill:#ffffff;fill-opacity:1;fill-rule:evenodd;stroke:none"
       transform="matrix(0.13333333,0,0,-0.13333333,0,638.16)" />
    <path
       id="path52"
       d="m 3561.4,2164.2 c 0,-11.27 -9.13,-20.4 -20.4,-20.4 -11.27,0 -20.4,9.13 -20.4,20.4 0,11.27 9.13,20.4 20.4,20.4 11.27,0 20.4,-9.13 20.4,-20.4 z"
       style="fill:none;stroke:#000000;stroke-width:4.5;stroke-linecap:butt;stroke-linejoin:miter;stroke-miterlimit:10;stroke-dasharray:none;stroke-opacity:1"
       transform="matrix(0.13333333,0,0,-0.13333333,0,638.16)" />
    <path
       id="path53"
       d="m 3885.4,2173.2 c 0,-11.27 -9.13,-20.4 -20.4,-20.4 -11.27,0 -20.4,9.13 -20.4,20.4 0,11.27 9.13,20.4 20.4,20.4 11.27,0 20.4,-9.13 20.4,-20.4"
       style="fill:#ffffff;fill-opacity:1;fill-rule:evenodd;stroke:none"
       transform="matrix(0.13333333,0,0,-0.13333333,0,638.16)" />
    <path
       id="path54"
       d="m 3885.4,2173.2 c 0,-11.27 -9.13,-20.4 -20.4,-20.4 -11.27,0 -20.4,9.13 -20.4,20.4 0,11.27 9.13,20.4 20.4,20.4 11.27,0 20.4,-9.13 20.4,-20.4 z"
       style="fill:none;stroke:#000000;stroke-width:4.5;stroke-linecap:butt;stroke-linejoin:miter;stroke-miterlimit:10;stroke-dasharray:none;stroke-opacity:1"
       transform="matrix(0.13333333,0,0,-0.13333333,0,638.16)" />
    <path
       id="path55"
       d="m 4231.6,2718 c 0,-11.27 -9.13,-20.4 -20.4,-20.4 -11.27,0 -20.4,9.13 -20.4,20.4 0,11.27 9.13,20.4 20.4,20.4 11.27,0 20.4,-9.13 20.4,-20.4"
       style="fill:#ffffff;fill-opacity:1;fill-rule:evenodd;stroke:none"
       transform="matrix(0.13333333,0,0,-0.13333333,0,638.16)" />
    <path
       id="path56"
       d="m 4231.6,2718 c 0,-11.27 -9.13,-20.4 -20.4,-20.4 -11.27,0 -20.4,9.13 -20.4,20.4 0,11.27 9.13,20.4 20.4,20.4 11.27,0 20.4,-9.13 20.4,-20.4 z"
       style="fill:none;stroke:#000000;stroke-width:4.5;stroke-linecap:butt;stroke-linejoin:miter;stroke-miterlimit:10;stroke-dasharray:none;stroke-opacity:1"
       transform="matrix(0.13333333,0,0,-0.13333333,0,638.16)" />
    <path
       id="path57"
       d="m 3629.2,2952 c 0,-11.27 -9.13,-20.4 -20.4,-20.4 -11.27,0 -20.4,9.13 -20.4,20.4 0,11.27 9.13,20.4 20.4,20.4 11.27,0 20.4,-9.13 20.4,-20.4"
       style="fill:#ffffff;fill-opacity:1;fill-rule:evenodd;stroke:none"
       transform="matrix(0.13333333,0,0,-0.13333333,0,638.16)" />
    <path
       id="path58"
       d="m 3629.2,2952 c 0,-11.27 -9.13,-20.4 -20.4,-20.4 -11.27,0 -20.4,9.13 -20.4,20.4 0,11.27 9.13,20.4 20.4,20.4 11.27,0 20.4,-9.13 20.4,-20.4 z"
       style="fill:none;stroke:#000000;stroke-width:4.5;stroke-linecap:butt;stroke-linejoin:miter;stroke-miterlimit:10;stroke-dasharray:none;stroke-opacity:1"
       transform="matrix(0.13333333,0,0,-0.13333333,0,638.16)" />
    <path
       id="path59"
       d="m 3368.2,2758.8 c 0,-11.27 -9.13,-20.4 -20.4,-20.4 -11.27,0 -20.4,9.13 -20.4,20.4 0,11.27 9.13,20.4 20.4,20.4 11.27,0 20.4,-9.13 20.4,-20.4"
       style="fill:#ffffff;fill-opacity:1;fill-rule:evenodd;stroke:none"
       transform="matrix(0.13333333,0,0,-0.13333333,0,638.16)" />
    <path
       id="path60"
       d="m 3368.2,2758.8 c 0,-11.27 -9.13,-20.4 -20.4,-20.4 -11.27,0 -20.4,9.13 -20.4,20.4 0,11.27 9.13,20.4 20.4,20.4 11.27,0 20.4,-9.13 20.4,-20.4 z"
       style="fill:none;stroke:#000000;stroke-width:4.5;stroke-linecap:butt;stroke-linejoin:miter;stroke-miterlimit:10;stroke-dasharray:none;stroke-opacity:1"
       transform="matrix(0.13333333,0,0,-0.13333333,0,638.16)" />
    <path
       id="path61"
       d="m 1819.6,2389.2 c 0,-11.27 -9.13,-20.4 -20.4,-20.4 -11.27,0 -20.4,9.13 -20.4,20.4 0,11.27 9.13,20.4 20.4,20.4 11.27,0 20.4,-9.13 20.4,-20.4"
       style="fill:#ffffff;fill-opacity:1;fill-rule:evenodd;stroke:none"
       transform="matrix(0.13333333,0,0,-0.13333333,0,638.16)" />
    <path
       id="path62"
       d="m 1819.6,2389.2 c 0,-11.27 -9.13,-20.4 -20.4,-20.4 -11.27,0 -20.4,9.13 -20.4,20.4 0,11.27 9.13,20.4 20.4,20.4 11.27,0 20.4,-9.13 20.4,-20.4 z"
       style="fill:none;stroke:#000000;stroke-width:4.5;stroke-linecap:butt;stroke-linejoin:miter;stroke-miterlimit:10;stroke-dasharray:none;stroke-opacity:1"
       transform="matrix(0.13333333,0,0,-0.13333333,0,638.16)" />
    <path
       id="path63"
       d="m 3206.2,2385 c 0,-11.27 -9.13,-20.4 -20.4,-20.4 -11.27,0 -20.4,9.13 -20.4,20.4 0,11.27 9.13,20.4 20.4,20.4 11.27,0 20.4,-9.13 20.4,-20.4"
       style="fill:#ffffff;fill-opacity:1;fill-rule:evenodd;stroke:none"
       transform="matrix(0.13333333,0,0,-0.13333333,0,638.16)" />
    <path
       id="path64"
       d="m 3206.2,2385 c 0,-11.27 -9.13,-20.4 -20.4,-20.4 -11.27,0 -20.4,9.13 -20.4,20.4 0,11.27 9.13,20.4 20.4,20.4 11.27,0 20.4,-9.13 20.4,-20.4 z"
       style="fill:none;stroke:#000000;stroke-width:4.5;stroke-linecap:butt;stroke-linejoin:miter;stroke-miterlimit:10;stroke-dasharray:none;stroke-opacity:1"
       transform="matrix(0.13333333,0,0,-0.13333333,0,638.16)" />
    <path
       id="path65"
       d="m 2836.6,3159 c 0,-11.27 -9.13,-20.4 -20.4,-20.4 -11.27,0 -20.4,9.13 -20.4,20.4 0,11.27 9.13,20.4 20.4,20.4 11.27,0 20.4,-9.13 20.4,-20.4"
       style="fill:#ffffff;fill-opacity:1;fill-rule:evenodd;stroke:none"
       transform="matrix(0.13333333,0,0,-0.13333333,0,638.16)" />
    <path
       id="path66"
       d="m 2836.6,3159 c 0,-11.27 -9.13,-20.4 -20.4,-20.4 -11.27,0 -20.4,9.13 -20.4,20.4 0,11.27 9.13,20.4 20.4,20.4 11.27,0 20.4,-9.13 20.4,-20.4 z"
       style="fill:none;stroke:#000000;stroke-width:4.5;stroke-linecap:butt;stroke-linejoin:miter;stroke-miterlimit:10;stroke-dasharray:none;stroke-opacity:1"
       transform="matrix(0.13333333,0,0,-0.13333333,0,638.16)" />
    <path
       id="path67"
       d="m 2917.6,3483 c 0,-11.27 -9.13,-20.4 -20.4,-20.4 -11.27,0 -20.4,9.13 -20.4,20.4 0,11.27 9.13,20.4 20.4,20.4 11.27,0 20.4,-9.13 20.4,-20.4"
       style="fill:#ffffff;fill-opacity:1;fill-rule:evenodd;stroke:none"
       transform="matrix(0.13333333,0,0,-0.13333333,0,638.16)" />
    <path
       id="path68"
       d="m 2917.6,3483 c 0,-11.27 -9.13,-20.4 -20.4,-20.4 -11.27,0 -20.4,9.13 -20.4,20.4 0,11.27 9.13,20.4 20.4,20.4 11.27,0 20.4,-9.13 20.4,-20.4 z"
       style="fill:none;stroke:#000000;stroke-width:4.5;stroke-linecap:butt;stroke-linejoin:miter;stroke-miterlimit:10;stroke-dasharray:none;stroke-opacity:1"
       transform="matrix(0.13333333,0,0,-0.13333333,0,638.16)" />
    <path
       id="path69"
       d="m 2512.6,3973.8 c 0,-11.27 -9.13,-20.4 -20.4,-20.4 -11.27,0 -20.4,9.13 -20.4,20.4 0,11.27 9.13,20.4 20.4,20.4 11.27,0 20.4,-9.13 20.4,-20.4"
       style="fill:#ffffff;fill-opacity:1;fill-rule:evenodd;stroke:none"
       transform="matrix(0.13333333,0,0,-0.13333333,0,638.16)" />
    <path
       id="path70"
       d="m 2512.6,3973.8 c 0,-11.27 -9.13,-20.4 -20.4,-20.4 -11.27,0 -20.4,9.13 -20.4,20.4 0,11.27 9.13,20.4 20.4,20.4 11.27,0 20.4,-9.13 20.4,-20.4 z"
       style="fill:none;stroke:#000000;stroke-width:4.5;stroke-linecap:butt;stroke-linejoin:miter;stroke-miterlimit:10;stroke-dasharray:none;stroke-opacity:1"
       transform="matrix(0.13333333,0,0,-0.13333333,0,638.16)" />
    <path
       id="path71"
       d="m 2108.2,3478.2 c 0,-11.27 -9.13,-20.4 -20.4,-20.4 -11.27,0 -20.4,9.13 -20.4,20.4 0,11.27 9.13,20.4 20.4,20.4 11.27,0 20.4,-9.13 20.4,-20.4"
       style="fill:#ffffff;fill-opacity:1;fill-rule:evenodd;stroke:none"
       transform="matrix(0.13333333,0,0,-0.13333333,0,638.16)" />
    <path
       id="path72"
       d="m 2108.2,3478.2 c 0,-11.27 -9.13,-20.4 -20.4,-20.4 -11.27,0 -20.4,9.13 -20.4,20.4 0,11.27 9.13,20.4 20.4,20.4 11.27,0 20.4,-9.13 20.4,-20.4 z"
       style="fill:none;stroke:#000000;stroke-width:4.5;stroke-linecap:butt;stroke-linejoin:miter;stroke-miterlimit:10;stroke-dasharray:none;stroke-opacity:1"
       transform="matrix(0.13333333,0,0,-0.13333333,0,638.16)" />
    <path
       id="path73"
       d="m 2198.2,3168 c 0,-11.27 -9.13,-20.4 -20.4,-20.4 -11.27,0 -20.4,9.13 -20.4,20.4 0,11.27 9.13,20.4 20.4,20.4 11.27,0 20.4,-9.13 20.4,-20.4"
       style="fill:#ffffff;fill-opacity:1;fill-rule:evenodd;stroke:none"
       transform="matrix(0.13333333,0,0,-0.13333333,0,638.16)" />
    <path
       id="path74"
       d="m 2198.2,3168 c 0,-11.27 -9.13,-20.4 -20.4,-20.4 -11.27,0 -20.4,9.13 -20.4,20.4 0,11.27 9.13,20.4 20.4,20.4 11.27,0 20.4,-9.13 20.4,-20.4 z"
       style="fill:none;stroke:#000000;stroke-width:4.5;stroke-linecap:butt;stroke-linejoin:miter;stroke-miterlimit:10;stroke-dasharray:none;stroke-opacity:1"
       transform="matrix(0.13333333,0,0,-0.13333333,0,638.16)" />
    <path
       id="path75"
       d="m 785.2,2709 c 0,-11.27 -9.133,-20.4 -20.4,-20.4 -11.267,0 -20.4,9.13 -20.4,20.4 0,11.27 9.133,20.4 20.4,20.4 11.267,0 20.4,-9.13 20.4,-20.4"
       style="fill:#ffffff;fill-opacity:1;fill-rule:evenodd;stroke:none"
       transform="matrix(0.13333333,0,0,-0.13333333,0,638.16)" />
    <path
       id="path76"
       d="m 785.2,2709 c 0,-11.27 -9.133,-20.4 -20.4,-20.4 -11.267,0 -20.4,9.13 -20.4,20.4 0,11.27 9.133,20.4 20.4,20.4 11.267,0 20.4,-9.13 20.4,-20.4 z"
       style="fill:none;stroke:#000000;stroke-width:4.5;stroke-linecap:butt;stroke-linejoin:miter;stroke-miterlimit:10;stroke-dasharray:none;stroke-opacity:1"
       transform="matrix(0.13333333,0,0,-0.13333333,0,638.16)" />
    <path
       id="path77"
       d="m 1396.6,2943 c 0,-11.27 -9.13,-20.4 -20.4,-20.4 -11.27,0 -20.4,9.13 -20.4,20.4 0,11.27 9.13,20.4 20.4,20.4 11.27,0 20.4,-9.13 20.4,-20.4"
       style="fill:#ffffff;fill-opacity:1;fill-rule:evenodd;stroke:none"
       transform="matrix(0.13333333,0,0,-0.13333333,0,638.16)" />
    <path
       id="path78"
       d="m 1396.6,2943 c 0,-11.27 -9.13,-20.4 -20.4,-20.4 -11.27,0 -20.4,9.13 -20.4,20.4 0,11.27 9.13,20.4 20.4,20.4 11.27,0 20.4,-9.13 20.4,-20.4 z"
       style="fill:none;stroke:#000000;stroke-width:4.5;stroke-linecap:butt;stroke-linejoin:miter;stroke-miterlimit:10;stroke-dasharray:none;stroke-opacity:1"
       transform="matrix(0.13333333,0,0,-0.13333333,0,638.16)" />
    <path
       id="path79"
       d="m 2517.4,2164.2 c 0,-11.27 -9.13,-20.4 -20.4,-20.4 -11.27,0 -20.4,9.13 -20.4,20.4 0,11.27 9.13,20.4 20.4,20.4 11.27,0 20.4,-9.13 20.4,-20.4"
       style="fill:#ffffff;fill-opacity:1;fill-rule:evenodd;stroke:none"
       transform="matrix(0.13333333,0,0,-0.13333333,0,638.16)" />
    <path
       id="path80"
       d="m 2517.4,2164.2 c 0,-11.27 -9.13,-20.4 -20.4,-20.4 -11.27,0 -20.4,9.13 -20.4,20.4 0,11.27 9.13,20.4 20.4,20.4 11.27,0 20.4,-9.13 20.4,-20.4 z"
       style="fill:none;stroke:#000000;stroke-width:4.5;stroke-linecap:butt;stroke-linejoin:miter;stroke-miterlimit:10;stroke-dasharray:none;stroke-opacity:1"
       transform="matrix(0.13333333,0,0,-0.13333333,0,638.16)" />
    <path
       id="path81"
       d="m 1136.2,2169 c 0,-11.27 -9.13,-20.4 -20.4,-20.4 -11.27,0 -20.4,9.13 -20.4,20.4 0,11.27 9.13,20.4 20.4,20.4 11.27,0 20.4,-9.13 20.4,-20.4"
       style="fill:#ffffff;fill-opacity:1;fill-rule:evenodd;stroke:none"
       transform="matrix(0.13333333,0,0,-0.13333333,0,638.16)" />
    <path
       id="path82"
       d="m 1136.2,2169 c 0,-11.27 -9.13,-20.4 -20.4,-20.4 -11.27,0 -20.4,9.13 -20.4,20.4 0,11.27 9.13,20.4 20.4,20.4 11.27,0 20.4,-9.13 20.4,-20.4 z"
       style="fill:none;stroke:#000000;stroke-width:4.5;stroke-linecap:butt;stroke-linejoin:miter;stroke-miterlimit:10;stroke-dasharray:none;stroke-opacity:1"
       transform="matrix(0.13333333,0,0,-0.13333333,0,638.16)" />
    <path
       id="path83"
       d="m 2103.4,1584 c 0,-11.27 -9.13,-20.4 -20.4,-20.4 -11.27,0 -20.4,9.13 -20.4,20.4 0,11.27 9.13,20.4 20.4,20.4 11.27,0 20.4,-9.13 20.4,-20.4"
       style="fill:#ffffff;fill-opacity:1;fill-rule:evenodd;stroke:none"
       transform="matrix(0.13333333,0,0,-0.13333333,0,638.16)" />
    <path
       id="path84"
       d="m 2103.4,1584 c 0,-11.27 -9.13,-20.4 -20.4,-20.4 -11.27,0 -20.4,9.13 -20.4,20.4 0,11.27 9.13,20.4 20.4,20.4 11.27,0 20.4,-9.13 20.4,-20.4 z"
       style="fill:none;stroke:#000000;stroke-width:4.5;stroke-linecap:butt;stroke-linejoin:miter;stroke-miterlimit:10;stroke-dasharray:none;stroke-opacity:1"
       transform="matrix(0.13333333,0,0,-0.13333333,0,638.16)" />
    <path
       id="path85"
       d="m 1658.2,2758.2 c 0,-11.27 -9.13,-20.4 -20.4,-20.4 -11.27,0 -20.4,9.13 -20.4,20.4 0,11.27 9.13,20.4 20.4,20.4 11.27,0 20.4,-9.13 20.4,-20.4"
       style="fill:#ffffff;fill-opacity:1;fill-rule:evenodd;stroke:none"
       transform="matrix(0.13333333,0,0,-0.13333333,0,638.16)" />
    <path
       id="path86"
       d="m 1658.2,2758.2 c 0,-11.27 -9.13,-20.4 -20.4,-20.4 -11.27,0 -20.4,9.13 -20.4,20.4 0,11.27 9.13,20.4 20.4,20.4 11.27,0 20.4,-9.13 20.4,-20.4 z"
       style="fill:none;stroke:#000000;stroke-width:4.5;stroke-linecap:butt;stroke-linejoin:miter;stroke-miterlimit:10;stroke-dasharray:none;stroke-opacity:1"
       transform="matrix(0.13333333,0,0,-0.13333333,0,638.16)" />
    <path
       id="path87"
       d="m 1428.4,1354.2 c 0,-11.27 -9.13,-20.4 -20.4,-20.4 -11.27,0 -20.4,9.13 -20.4,20.4 0,11.27 9.13,20.4 20.4,20.4 11.27,0 20.4,-9.13 20.4,-20.4"
       style="fill:#ffffff;fill-opacity:1;fill-rule:evenodd;stroke:none"
       transform="matrix(0.13333333,0,0,-0.13333333,0,638.16)" />
    <path
       id="path88"
       d="m 1428.4,1354.2 c 0,-11.27 -9.13,-20.4 -20.4,-20.4 -11.27,0 -20.4,9.13 -20.4,20.4 0,11.27 9.13,20.4 20.4,20.4 11.27,0 20.4,-9.13 20.4,-20.4 z"
       style="fill:none;stroke:#000000;stroke-width:4.5;stroke-linecap:butt;stroke-linejoin:miter;stroke-miterlimit:10;stroke-dasharray:none;stroke-opacity:1"
       transform="matrix(0.13333333,0,0,-0.13333333,0,638.16)" />
    <path
       id="path89"
       d="m 1469.2,706.2 c 0,-11.266 -9.13,-20.4 -20.4,-20.4 -11.27,0 -20.4,9.134 -20.4,20.4 0,11.267 9.13,20.4 20.4,20.4 11.27,0 20.4,-9.133 20.4,-20.4"
       style="fill:#ffffff;fill-opacity:1;fill-rule:evenodd;stroke:none"
       transform="matrix(0.13333333,0,0,-0.13333333,0,638.16)" />
    <path
       id="path90"
       d="m 1469.2,706.2 c 0,-11.266 -9.13,-20.4 -20.4,-20.4 -11.27,0 -20.4,9.134 -20.4,20.4 0,11.267 9.13,20.4 20.4,20.4 11.27,0 20.4,-9.133 20.4,-20.4 z"
       style="fill:none;stroke:#000000;stroke-width:4.5;stroke-linecap:butt;stroke-linejoin:miter;stroke-miterlimit:10;stroke-dasharray:none;stroke-opacity:1"
       transform="matrix(0.13333333,0,0,-0.13333333,0,638.16)" />
    <path
       id="path91"
       d="m 2981.2,882 c 0,-11.267 -9.13,-20.4 -20.4,-20.4 -11.27,0 -20.4,9.133 -20.4,20.4 0,11.267 9.13,20.4 20.4,20.4 11.27,0 20.4,-9.133 20.4,-20.4"
       style="fill:#ffffff;fill-opacity:1;fill-rule:evenodd;stroke:none"
       transform="matrix(0.13333333,0,0,-0.13333333,0,638.16)" />
    <path
       id="path92"
       d="m 2981.2,882 c 0,-11.267 -9.13,-20.4 -20.4,-20.4 -11.27,0 -20.4,9.133 -20.4,20.4 0,11.267 9.13,20.4 20.4,20.4 11.27,0 20.4,-9.133 20.4,-20.4 z"
       style="fill:none;stroke:#000000;stroke-width:4.5;stroke-linecap:butt;stroke-linejoin:miter;stroke-miterlimit:10;stroke-dasharray:none;stroke-opacity:1"
       transform="matrix(0.13333333,0,0,-0.13333333,0,638.16)" />
    <path
       id="path93"
       d="m 3593.2,724.2 c 0,-11.266 -9.13,-20.4 -20.4,-20.4 -11.27,0 -20.4,9.134 -20.4,20.4 0,11.267 9.13,20.4 20.4,20.4 11.27,0 20.4,-9.133 20.4,-20.4"
       style="fill:#ffffff;fill-opacity:1;fill-rule:evenodd;stroke:none"
       transform="matrix(0.13333333,0,0,-0.13333333,0,638.16)" />
    <path
       id="path94"
       d="m 3593.2,724.2 c 0,-11.266 -9.13,-20.4 -20.4,-20.4 -11.27,0 -20.4,9.134 -20.4,20.4 0,11.267 9.13,20.4 20.4,20.4 11.27,0 20.4,-9.133 20.4,-20.4 z"
       style="fill:none;stroke:#000000;stroke-width:4.5;stroke-linecap:butt;stroke-linejoin:miter;stroke-miterlimit:10;stroke-dasharray:none;stroke-opacity:1"
       transform="matrix(0.13333333,0,0,-0.13333333,0,638.16)" />
    <path
       id="path95"
       d="m 3642.4,1354.2 c 0,-11.27 -9.13,-20.4 -20.4,-20.4 -11.27,0 -20.4,9.13 -20.4,20.4 0,11.27 9.13,20.4 20.4,20.4 11.27,0 20.4,-9.13 20.4,-20.4"
       style="fill:#ffffff;fill-opacity:1;fill-rule:evenodd;stroke:none"
       transform="matrix(0.13333333,0,0,-0.13333333,0,638.16)" />
    <path
       id="path96"
       d="m 3642.4,1354.2 c 0,-11.27 -9.13,-20.4 -20.4,-20.4 -11.27,0 -20.4,9.13 -20.4,20.4 0,11.27 9.13,20.4 20.4,20.4 11.27,0 20.4,-9.13 20.4,-20.4 z"
       style="fill:none;stroke:#000000;stroke-width:4.5;stroke-linecap:butt;stroke-linejoin:miter;stroke-miterlimit:10;stroke-dasharray:none;stroke-opacity:1"
       transform="matrix(0.13333333,0,0,-0.13333333,0,638.16)" />
    <path
       id="path97"
       d="m 2864.2,1183.2 c 0,-11.27 -9.13,-20.4 -20.4,-20.4 -11.27,0 -20.4,9.13 -20.4,20.4 0,11.27 9.13,20.4 20.4,20.4 11.27,0 20.4,-9.13 20.4,-20.4"
       style="fill:#ffffff;fill-opacity:1;fill-rule:evenodd;stroke:none"
       transform="matrix(0.13333333,0,0,-0.13333333,0,638.16)" />
    <path
       id="path98"
       d="m 2864.2,1183.2 c 0,-11.27 -9.13,-20.4 -20.4,-20.4 -11.27,0 -20.4,9.13 -20.4,20.4 0,11.27 9.13,20.4 20.4,20.4 11.27,0 20.4,-9.13 20.4,-20.4 z"
       style="fill:none;stroke:#000000;stroke-width:4.5;stroke-linecap:butt;stroke-linejoin:miter;stroke-miterlimit:10;stroke-dasharray:none;stroke-opacity:1"
       transform="matrix(0.13333333,0,0,-0.13333333,0,638.16)" />
    <path
       id="path99"
       d="m 3377.2,1552.2 c 0,-11.27 -9.13,-20.4 -20.4,-20.4 -11.27,0 -20.4,9.13 -20.4,20.4 0,11.27 9.13,20.4 20.4,20.4 11.27,0 20.4,-9.13 20.4,-20.4"
       style="fill:#ffffff;fill-opacity:1;fill-rule:evenodd;stroke:none"
       transform="matrix(0.13333333,0,0,-0.13333333,0,638.16)" />
    <path
       id="path100"
       d="m 3377.2,1552.2 c 0,-11.27 -9.13,-20.4 -20.4,-20.4 -11.27,0 -20.4,9.13 -20.4,20.4 0,11.27 9.13,20.4 20.4,20.4 11.27,0 20.4,-9.13 20.4,-20.4 z"
       style="fill:none;stroke:#000000;stroke-width:4.5;stroke-linecap:butt;stroke-linejoin:miter;stroke-miterlimit:10;stroke-dasharray:none;stroke-opacity:1"
       transform="matrix(0.13333333,0,0,-0.13333333,0,638.16)" />
    <path
       id="path101"
       d="m 2954.2,1579.2 c 0,-11.27 -9.13,-20.4 -20.4,-20.4 -11.27,0 -20.4,9.13 -20.4,20.4 0,11.27 9.13,20.4 20.4,20.4 11.27,0 20.4,-9.13 20.4,-20.4"
       style="fill:#ffffff;fill-opacity:1;fill-rule:evenodd;stroke:none"
       transform="matrix(0.13333333,0,0,-0.13333333,0,638.16)" />
    <path
       id="path102"
       d="m 2954.2,1579.2 c 0,-11.27 -9.13,-20.4 -20.4,-20.4 -11.27,0 -20.4,9.13 -20.4,20.4 0,11.27 9.13,20.4 20.4,20.4 11.27,0 20.4,-9.13 20.4,-20.4 z"
       style="fill:none;stroke:#000000;stroke-width:4.5;stroke-linecap:butt;stroke-linejoin:miter;stroke-miterlimit:10;stroke-dasharray:none;stroke-opacity:1"
       transform="matrix(0.13333333,0,0,-0.13333333,0,638.16)" />
  </g>
</svg>
