<?xml version="1.0" encoding="UTF-8" standalone="no"?>
<!-- Created with Inkscape (http://www.inkscape.org/) -->

<svg
   version="1.1"
   id="svg1"
   width="582.51447"
   height="579.52612"
   viewBox="0 0 582.51447 579.52612"
   sodipodi:docname="7venn-nonmono_color.svg"
   inkscape:version="1.3 (0e150ed6c4, 2023-07-21)"
   xmlns:inkscape="http://www.inkscape.org/namespaces/inkscape"
   xmlns:sodipodi="http://sodipodi.sourceforge.net/DTD/sodipodi-0.dtd"
   xmlns="http://www.w3.org/2000/svg"
   xmlns:svg="http://www.w3.org/2000/svg">
  <defs
     id="defs1" />
  <sodipodi:namedview
     id="namedview1"
     pagecolor="#ffffff"
     bordercolor="#000000"
     borderopacity="0.25"
     inkscape:showpageshadow="2"
     inkscape:pageopacity="0.0"
     inkscape:pagecheckerboard="0"
     inkscape:deskcolor="#d1d1d1"
     inkscape:zoom="0.70075758"
     inkscape:cx="291.11351"
     inkscape:cy="292.54054"
     inkscape:window-width="1600"
     inkscape:window-height="978"
     inkscape:window-x="-6"
     inkscape:window-y="-6"
     inkscape:window-maximized="1"
     inkscape:current-layer="g1">
    <inkscape:page
       x="0"
       y="0"
       inkscape:label="1"
       id="page1"
       width="582.51447"
       height="579.52612"
       margin="0"
       bleed="0" />
  </sodipodi:namedview>
  <g
     id="g1"
     inkscape:groupmode="layer"
     inkscape:label="1"
     transform="translate(-117.0965,-235.33783)">
    <path
       id="path1"
       d="m 3930.36,5820.6 c 88.22,-99.8 -25.9,-282.35 -47.28,-365.04 -11.62,-44.95 -54.72,-144.4 -73.68,-186 -22.89,-50.24 -72.24,-170.27 -111.12,-214.56 -41.73,-47.54 -172.01,-98.16 -212.88,-148.08 -36.52,-44.61 -103.77,-140.69 -92.16,-212.64 33.72,-208.96 368,-362.21 448.32,-502.08 64.52,-112.36 105.8,-401.65 166.8,-514.32 26.48,-48.9 73.3,-161.49 147.36,-182.64 60.96,-17.41 141.32,47.65 182.4,63.6 43.93,17.05 133.34,81.7 189.84,81.36 63.9,-0.38 168.23,-61.59 213.6,-94.56 49.51,-35.98 171.46,-94.68 170.16,-189.84 -2.22,-162.48 -225.37,-248.95 -299.28,-316.08 -53.37,-48.47 -195.13,-143.78 -247.92,-193.2 -155.65,-145.72 -285.62,-698.89 -616.56,-691.92 -121.8,2.56 -173.27,197.65 -216,264 -18.81,29.2 -67.84,90.75 -66.48,134.64 1.88,60.49 81.23,137.56 102.96,179.52 24.45,47.22 124.88,128.26 98.16,211.2 -28.09,87.18 -142.8,117.3 -213.36,120 -112.1,4.29 -262.95,-141.59 -352.56,-164.16 -100.53,-25.32 -329.72,-48.61 -435.6,-25.2 -73.85,16.33 -197.91,123.7 -268.08,144 -63.74,18.44 -213.02,13.36 -275.76,19.44 -64.1,6.21 -213.81,-4.55 -280.32,34.56 -110.17,64.79 -253.74,245.9 -275.76,378 -8.98,53.9 48.77,138.72 56.4,182.4 10.48,60.02 -2.59,201.44 12,262.08 15.26,63.43 83.42,194.6 113.52,249.84 20.93,38.42 93.94,110.04 103.2,160.56 26.63,145.17 -103.99,409.35 -113.52,536.64 -3.4,45.36 -21.1,145.88 11.52,195.12 47.15,71.17 203.1,67.64 253.2,125.28 52.54,60.46 76.37,215.48 93.12,281.28 21.05,82.71 -34.89,281.49 66.24,366.48 480.5,403.83 1345.41,490.07 1769.52,10.32 z"
       style="fill:none;stroke:#ffd600;stroke-width:14.4;stroke-linecap:butt;stroke-linejoin:miter;stroke-miterlimit:10;stroke-dasharray:none;stroke-opacity:1"
       transform="matrix(0.13333333,0,0,-0.13333333,0,1056)" />
    <path
       id="path2"
       d="m 5056.92,4462.68 c -24.34,-130.95 -238.46,-153.39 -316.8,-187.44 -42.59,-18.51 -147.54,-45.72 -192,-56.4 -53.66,-12.89 -180.78,-42.88 -237.36,-44.64 -56.94,-1.77 -185.36,27.96 -241.2,30 -53.11,1.93 -170.63,41.93 -230.88,-11.76 -182.16,-162.31 -57.3,-533.55 -115.44,-689.28 -43.33,-116.08 -224,-332.47 -271.68,-444.48 -20.8,-48.86 -84.49,-149.63 -57.6,-219.84 23.98,-62.62 130.44,-86.5 169.2,-111.6 36.44,-23.6 130.47,-62.89 160.8,-102.24 37.7,-48.9 68.39,-167.82 72,-225.6 3.79,-60.75 30.34,-189.35 -45.6,-244.8 -142.9,-104.34 -359.01,44.91 -464.88,58.56 -63.83,8.23 -215.94,30.66 -280.08,36.96 -208.84,20.5 -717.91,-204.52 -918,59.28 -75.66,99.75 45.58,264.03 72,340.32 12.03,34.74 31.77,115.21 70.08,142.08 47.31,33.18 150.31,13.49 194.4,21.6 56.61,10.41 193.03,-19.17 243.12,62.88 47.5,77.81 -9.25,179.61 -52.32,232.32 -66.71,81.66 -265.25,98.09 -336.48,151.2 -89.97,67.08 -254.04,249.83 -304.32,352.8 -32.88,67.34 -29.99,231.65 -59.52,298.8 -28.39,64.57 -136.83,179.98 -173.04,236.4 -31.39,48.92 -114.96,154.63 -123.84,221.76 -17.09,129.25 19.98,368.31 119.28,474.24 35.83,38.23 131,35.79 168,54 57.16,28.14 165.44,128.39 224.4,154.8 55.18,24.72 190.79,48.92 247.92,60.24 46.55,9.23 157.46,2 205.44,31.68 120.46,74.53 201.27,344.22 301.44,426 44.29,36.16 147.13,93.84 211.2,92.88 72.56,-1.09 164.45,-109.96 235.92,-112.32 79.62,-2.63 210.13,79.43 270.48,107.52 84.23,39.21 216.15,221.61 357.84,192.24 617.26,-127.95 1214.52,-758.62 1097.52,-1388.16 z"
       style="fill:none;stroke:#008f00;stroke-width:14.4;stroke-linecap:butt;stroke-linejoin:miter;stroke-miterlimit:10;stroke-dasharray:none;stroke-opacity:1"
       transform="matrix(0.13333333,0,0,-0.13333333,0,1056)" />
    <path
       id="path3"
       d="m 1057.08,4366.2 c 76.49,108.11 280.69,38.23 366,36 46.46,-1.22 153.16,-20.88 198,-30 54.09,-11 182.11,-32.08 234,-60 55.66,-29.95 134.22,-145.43 192,-174 51.7,-25.56 160.25,-70.1 228,-42 204.26,84.72 270.44,462.11 396,576 93.59,84.89 360.29,174.67 456,252 45.31,36.61 158.6,99.95 162,186 2.78,70.33 -95.1,123.11 -120,162 -26.2,40.92 -91.63,133.2 -102,186 -10.33,52.6 3.42,161.3 24,210 24.9,58.95 71.5,181.67 162,198 147.44,26.6 280.41,-157.63 360,-210 59.81,-39.36 191.73,-147.16 252,-186 182.46,-117.56 769.17,-136.28 828,-462 19.55,-108.21 -154.14,-187.97 -204,-240 -28.06,-29.29 -78.61,-108.18 -130.08,-120.48 -63.98,-15.29 -163.11,48.39 -211.92,60.48 -51.6,12.78 -152.22,96.96 -228,48 -81.92,-52.92 -65.79,-179.21 -54,-246 17.3,-97.99 158.74,-236.71 198,-312 46.29,-88.77 159.35,-291.07 168,-402 6.01,-77.07 -68.46,-222.1 -72,-294 -2.97,-60.47 30.67,-194.07 36,-252 6.42,-69.85 36.85,-230.41 12.72,-306.72 -34.98,-110.64 -143.08,-303.61 -270.72,-353.28 -61.37,-23.88 -159.53,38.76 -210.72,37.2 -63.95,-1.95 -193.81,-64.54 -259.92,-62.4 -66.18,2.15 -196.71,63.14 -255.6,79.2 -44.83,12.22 -145.11,53.64 -198.24,46.8 -136.29,-17.53 -343.53,-207.52 -461.52,-244.8 -54.63,-17.26 -171.54,-62.08 -240,-30 -78.67,36.86 -79.9,193.96 -150,234 -81.77,46.7 -249.8,14.03 -324,12 -81.08,-2.21 -248.66,-106.59 -352.8,-32.4 -525.639,374.46 -799.108,1210.75 -427.2,1736.4 z"
       style="fill:none;stroke:#ff0000;stroke-width:14.4;stroke-linecap:butt;stroke-linejoin:miter;stroke-miterlimit:10;stroke-dasharray:none;stroke-opacity:1"
       transform="matrix(0.13333333,0,0,-0.13333333,0,1056)" />
    <path
       id="path4"
       d="m 4717.32,2695.32 c -124.03,-66.25 -288.68,105.93 -369.84,149.76 -34.55,18.66 -109.94,71.16 -139.68,96.72 -45.05,38.72 -139.4,141.41 -176.64,187.2 -34.04,41.86 -99.28,151.81 -134.64,192.96 -37.48,43.61 -97.59,161.6 -180.72,171.84 -233.06,28.71 -447.84,-294.66 -608.4,-344.4 -113.97,-35.3 -381.57,-16.09 -494.4,-42.48 -52.75,-12.34 -175.18,-16.54 -216,-84.72 -37.63,-62.85 24.21,-163.12 25.2,-212.4 0.9,-44.71 -4.02,-149.11 -15.12,-193.44 -11.98,-47.82 -46.31,-152.23 -84,-191.76 -46.64,-48.93 -141.7,-137.94 -232.08,-115.2 -157.68,39.67 -207.56,280.3 -261.6,368.64 -37.47,61.26 -107.99,216.46 -144.96,277.92 -107.62,178.93 -592.12,419.68 -516.96,751.92 25.11,110.99 196.93,127.14 264,152.4 45.34,17.08 144.02,58.51 202.08,40.32 53.42,-16.74 98.81,-107.81 131.52,-136.56 44.44,-39.05 110.73,-164.28 206.88,-153.36 91.08,10.35 142.22,117 158.4,185.52 23.31,98.7 -80.11,257.62 -84.48,341.04 -5.86,112.02 14.23,359.43 65.04,467.28 34.72,73.7 183.49,163.44 217.92,237.6 27.27,58.71 14.27,195.62 32.4,253.2 20.74,65.89 84.31,206.31 135.6,258.72 81.25,83.04 262.2,230.31 405.12,223.68 64.98,-3.01 129.17,-97.46 174,-118.32 53.17,-24.73 187.13,-41.92 240.24,-67.44 57.77,-27.75 173.14,-117.65 220.56,-158.16 36.65,-31.31 94.09,-127.94 147.36,-149.28 143.17,-57.36 428.72,47.18 563.52,16.8 48.87,-11.01 146.9,-47.87 181.92,-93.12 43.4,-56.07 17.07,-191.37 55.2,-247.2 46.03,-67.39 191.87,-136.98 253.68,-170.64 75.29,-41.01 281.69,-30.63 342.24,-146.88 C 5371,3886.16 5272.37,2991.77 4717.32,2695.32 Z"
       style="fill:none;stroke:#a14000;stroke-width:14.4;stroke-linecap:butt;stroke-linejoin:miter;stroke-miterlimit:10;stroke-dasharray:none;stroke-opacity:1"
       transform="matrix(0.13333333,0,0,-0.13333333,0,1056)" />
    <path
       id="path5"
       d="m 1489.56,2631.72 c -36.42,131.06 159.65,249.52 217.2,317.04 27.71,32.51 101.61,100.32 134.16,127.44 45.24,37.69 149.41,128.04 207.84,151.44 52.59,21.06 176.69,8.15 229.44,30.48 58.84,24.91 177.8,80.04 202.56,160.08 68.17,220.38 -202.87,504.56 -211.44,678.72 -6.21,126.2 102.3,382.13 104.16,504.48 0.89,58.56 22.25,186.08 -42.48,242.88 -53.04,46.54 -155.84,3.5 -201.84,8.64 -48.27,5.4 -161.29,15.31 -208.56,37.92 -47.81,22.87 -134.15,93.05 -162.24,140.16 -35.04,58.75 -104.65,175.73 -57.6,261.12 76.64,139.08 315.6,116.14 409.68,147.84 61.39,20.68 210.11,63.16 271.2,84.96 203.09,72.47 561.92,504.39 876.72,352.08 109.66,-53.06 81.84,-239.8 93.36,-315.6 6.55,-43.11 28,-138.45 2.64,-187.2 -28.03,-53.89 -133.2,-88.22 -171.12,-116.4 -42.68,-31.72 -167.83,-61.34 -180.96,-146.64 -13.08,-84.93 72.72,-159.56 127.92,-193.44 94.99,-58.3 306.59,-27.39 396.48,-45.6 98.14,-19.88 326.45,-59.53 418.08,-122.64 63.65,-43.84 129.44,-192.98 183.12,-240.96 45.2,-40.4 170.55,-98.02 218.88,-130.56 52.15,-35.11 179.45,-107.93 219.36,-165.84 68.05,-98.75 180.63,-304.84 131.04,-450.24 -21.83,-64.02 -134.47,-83 -166.8,-121.68 -43.39,-51.93 -76.17,-197.71 -120.96,-249.36 -41.74,-48.13 -165.61,-111.11 -214.08,-144.48 -38.8,-26.71 -139.39,-71.51 -169.2,-118.8 -77.98,-123.69 -39.37,-412.45 -89.52,-533.28 -21.67,-52.21 -73.4,-160.22 -135.84,-190.08 -71.77,-34.32 -197.78,45.13 -268.08,15.6 -84.88,-35.66 -167.53,-185.87 -213.12,-244.32 -49.24,-63.13 -79.82,-254.59 -199.92,-287.52 -614.48,-168.46 -1460.28,132.74 -1630.08,743.76 z"
       style="fill:none;stroke:#ff00ff;stroke-width:14.4;stroke-linecap:butt;stroke-linejoin:miter;stroke-miterlimit:10;stroke-dasharray:none;stroke-opacity:1"
       transform="matrix(0.13333333,0,0,-0.13333333,0,1056)" />
    <path
       id="path6"
       d="m 2141.64,5786.04 c 126.54,6.33 192.85,-195.13 243.6,-259.2 29.99,-37.86 94.06,-131.88 116.16,-175.2 23.26,-45.58 67.44,-156.11 77.52,-207.12 12.36,-62.59 -5.23,-208.34 8.64,-271.2 11.34,-51.36 24.19,-165.91 86.88,-204 204.38,-124.19 547.61,81.93 720.72,54.96 124.8,-19.44 362.5,-170.16 482.88,-195.84 56.98,-12.15 177.53,-60.14 246.48,-8.64 56.34,42.08 37.02,151.1 50.4,195.12 12.37,40.67 30.87,138.1 61.68,175.68 37.39,45.61 142.04,98.9 194.4,115.2 60.04,18.69 183.04,78.12 258.48,17.76 121.4,-97.13 56.51,-316.6 63.36,-412.08 5.47,-76.24 -9.28,-256.55 -3.12,-332.88 17.28,-214.24 371.5,-679.99 158.4,-920.88 -67.18,-75.94 -227.26,9.07 -294.24,14.16 -45.92,3.49 -151.53,-15.26 -200.88,20.88 -45.14,33.06 -56.77,130.89 -73.68,169.44 -23.61,53.82 -11.84,201.97 -104.4,235.92 -85.34,31.31 -171.55,-55.15 -214.08,-103.68 -70.81,-80.82 -85.27,-293 -124.32,-376.08 -42.13,-89.63 -144.58,-291.91 -226.8,-362.16 -58.43,-49.92 -219.81,-76.92 -279.36,-119.04 -51.93,-36.73 -136.32,-152.34 -179.04,-195.12 -47.93,-47.99 -144.96,-172.61 -218.64,-201.12 -113.33,-43.85 -338.26,-65.94 -456.96,2.4 -54.01,31.1 -73.59,141.88 -105.36,179.28 -39.54,46.56 -161.37,115.13 -198.96,165.6 -40.02,53.74 -83.08,195.91 -108.24,253.44 -18.18,41.55 -45.07,144.4 -81.36,181.68 -95.67,98.27 -371.5,158.31 -473.04,227.28 -41.07,27.9 -136.71,83.35 -156,144 -25.2,79.2 73.99,196.27 57.6,271.2 -17.51,80.06 -133.95,185.3 -176.88,237.6 -51.79,63.1 -234.44,138.37 -239.52,265.2 -25.4,634.15 452.08,1385.67 1087.68,1417.44 z"
       style="fill:none;stroke:#0000ff;stroke-width:14.4;stroke-linecap:butt;stroke-linejoin:miter;stroke-miterlimit:10;stroke-dasharray:none;stroke-opacity:1"
       transform="matrix(0.13333333,0,0,-0.13333333,0,1056)" />
    <path
       id="path7"
       d="m 3121.32,1882.44 c -126.04,53.24 -98.14,279.79 -114.96,367.2 -8.75,45.44 -15.63,153.5 -15.36,199.44 0.32,56.22 6.86,188.05 21.6,243.84 13.57,51.35 81.45,152.53 93.6,204.96 13.51,58.33 51.14,182.28 6.72,250.56 -124.77,191.81 -512.42,168.21 -651.12,268.08 -100.28,72.2 -238.08,310.05 -333.12,384.96 -44.65,35.19 -132.79,123.16 -212.4,109.92 -72.33,-12.03 -114.03,-122.97 -150.24,-156.96 -31.59,-29.65 -102.99,-102.08 -144.96,-122.16 -46.45,-22.23 -153.07,-46.2 -205.92,-40.08 -68.23,7.9 -206.23,20.77 -246.96,111.12 -62.7,139.09 91.38,308.58 123.6,398.16 24.86,69.13 96.99,228.62 122.16,297.6 73.5,201.46 -28.9,751.97 286.8,894.72 108.92,49.25 233,-88.84 297.12,-129.6 35.02,-22.26 113.84,-70.13 132.96,-116.88 21.26,-51.99 -12.58,-151.45 -14.4,-196.32 -2.26,-55.8 -68.71,-177 -1.92,-244.8 64.7,-65.67 177.27,-27.87 237.12,-1.68 87.26,38.19 172.49,203.02 232.8,255.6 80.57,70.25 266.68,229.14 380.64,261.6 79.02,22.51 243.29,-30.29 319.92,-15.12 58.21,11.53 167.15,84.98 220.32,103.2 67.38,23.09 223.14,74 300.72,67.92 120.12,-9.41 357.85,-45.31 443.52,-176.4 37.41,-57.25 -17.28,-158.7 -7.2,-208.32 13.18,-64.9 105.33,-179.32 114.96,-247.2 9.27,-65.3 -37.11,-198.74 -40.08,-259.2 -2.41,-49.04 -9.45,-161.5 11.76,-212.4 54.96,-131.89 307.48,-288.23 369.36,-409.2 23.37,-45.68 60.68,-144.85 43.68,-203.52 -22.74,-78.44 -171.54,-121.23 -194.88,-198.72 -27.2,-90.3 44.32,-246.43 61.44,-318.48 19.67,-82.78 154.42,-237.96 101.52,-358.56 -252.73,-576.14 -1005.6,-1049.6 -1588.8,-803.28 z"
       style="fill:none;stroke:#000000;stroke-width:14.4;stroke-linecap:butt;stroke-linejoin:miter;stroke-miterlimit:10;stroke-dasharray:none;stroke-opacity:1"
       transform="matrix(0.13333333,0,0,-0.13333333,0,1056)" />
  </g>
</svg>
