<?xml version="1.0" encoding="UTF-8" standalone="no"?>
<!-- Created with Inkscape (http://www.inkscape.org/) -->

<svg
   version="1.1"
   id="svg1"
   width="669.33331"
   height="664"
   viewBox="0 0 669.33331 664"
   sodipodi:docname="betteMin5.pdf"
   inkscape:version="1.3.2 (091e20e, 2023-11-25, custom)"
   xmlns:inkscape="http://www.inkscape.org/namespaces/inkscape"
   xmlns:sodipodi="http://sodipodi.sourceforge.net/DTD/sodipodi-0.dtd"
   xmlns="http://www.w3.org/2000/svg"
   xmlns:svg="http://www.w3.org/2000/svg">
  <defs
     id="defs1" />
  <sodipodi:namedview
     id="namedview1"
     pagecolor="#ffffff"
     bordercolor="#111111"
     borderopacity="1"
     inkscape:showpageshadow="0"
     inkscape:pageopacity="0"
     inkscape:pagecheckerboard="1"
     inkscape:deskcolor="#d1d1d1"
     showgrid="false"
     inkscape:zoom="2.0798193"
     inkscape:cx="334.88487"
     inkscape:cy="332"
     inkscape:window-width="3840"
     inkscape:window-height="1577"
     inkscape:window-x="-8"
     inkscape:window-y="-8"
     inkscape:window-maximized="1"
     inkscape:current-layer="g1">
    <inkscape:page
       x="0"
       y="0"
       inkscape:label="1"
       id="page1"
       width="669.33331"
       height="664"
       margin="0"
       bleed="0" />
  </sodipodi:namedview>
  <g
     id="g1"
     inkscape:groupmode="layer"
     inkscape:label="1">
    <path
       id="path1"
       d="m 1516,4141 1350,450"
       style="fill:none;stroke:#ffff00;stroke-width:27;stroke-linecap:butt;stroke-linejoin:miter;stroke-miterlimit:10;stroke-dasharray:none;stroke-opacity:1"
       transform="matrix(0.13333333,0,0,-0.13333333,0,664)" />
    <path
       id="path2"
       d="m 1516.02,4095.99 c 395.59,-242.58 850.6,-370.97 1314.64,-370.97 492.55,0 974.27,144.64 1385.36,415.97"
       style="fill:none;stroke:#000000;stroke-width:27;stroke-linecap:butt;stroke-linejoin:miter;stroke-miterlimit:10;stroke-dasharray:none;stroke-opacity:1"
       transform="matrix(0.13333333,0,0,-0.13333333,0,664)" />
    <path
       id="path3"
       d="m 4215.98,1441.01 c -119.06,38.31 -243.37,57.83 -368.44,57.83 -390.2,0 -756.15,-189.33 -981.56,-507.832"
       style="fill:none;stroke:#0000ff;stroke-width:27;stroke-linecap:butt;stroke-linejoin:miter;stroke-miterlimit:10;stroke-dasharray:none;stroke-opacity:1"
       transform="matrix(0.13333333,0,0,-0.13333333,0,664)" />
    <path
       id="path4"
       d="m 1516.02,4141 c 118.8,364.18 458.4,610.62 841.48,610.62 181.98,0 359.54,-56.09 508.49,-160.64"
       style="fill:none;stroke:#0000ff;stroke-width:27;stroke-linecap:butt;stroke-linejoin:miter;stroke-miterlimit:10;stroke-dasharray:none;stroke-opacity:1"
       transform="matrix(0.13333333,0,0,-0.13333333,0,664)" />
    <path
       id="path5"
       d="m 2866,4591.01 c -79.39,12.45 -159.64,18.71 -240,18.71 -418.1,0 -818.45,-169.05 -1110.01,-468.71"
       style="fill:none;stroke:#00ff00;stroke-width:27;stroke-linecap:butt;stroke-linejoin:miter;stroke-miterlimit:10;stroke-dasharray:none;stroke-opacity:1"
       transform="matrix(0.13333333,0,0,-0.13333333,0,664)" />
    <path
       id="path6"
       d="m 1515.97,4141 c 63.15,-7.15 126.67,-10.74 190.23,-10.74 431.21,0 846.13,164.83 1159.79,460.74"
       style="fill:none;stroke:#000000;stroke-width:27;stroke-linecap:butt;stroke-linejoin:miter;stroke-miterlimit:10;stroke-dasharray:none;stroke-opacity:1"
       transform="matrix(0.13333333,0,0,-0.13333333,0,664)" />
    <path
       id="path7"
       d="m 2865.97,4590.97 c 219.39,157.82 482.83,242.73 753.09,242.73 712.24,0 1289.64,-577.4 1289.64,-1289.64 0,-270.26 -84.91,-533.7 -242.73,-753.09"
       style="fill:none;stroke:#000000;stroke-width:27;stroke-linecap:butt;stroke-linejoin:miter;stroke-miterlimit:10;stroke-dasharray:none;stroke-opacity:1"
       transform="matrix(0.13333333,0,0,-0.13333333,0,664)" />
    <path
       id="path8"
       d="m 2865.99,4591.02 c 129.06,50.5 266.42,76.42 405.01,76.42 384.91,0 742.42,-199.15 945.02,-526.43"
       style="fill:none;stroke:#0000ff;stroke-width:27;stroke-linecap:butt;stroke-linejoin:miter;stroke-miterlimit:10;stroke-dasharray:none;stroke-opacity:1"
       transform="matrix(0.13333333,0,0,-0.13333333,0,664)" />
    <path
       id="path9"
       d="m 2866.02,4591.02 c 216.93,-321.65 579.52,-514.46 967.48,-514.46 130.2,0 259.48,21.79 382.49,64.47"
       style="fill:none;stroke:#ffff00;stroke-width:27;stroke-linecap:butt;stroke-linejoin:miter;stroke-miterlimit:10;stroke-dasharray:none;stroke-opacity:1"
       transform="matrix(0.13333333,0,0,-0.13333333,0,664)" />
    <path
       id="path10"
       d="m 1516.02,4141.01 c 50.5,-129.06 76.42,-266.42 76.42,-405.01 0,-384.91 -199.15,-742.42 -526.43,-945.02"
       style="fill:none;stroke:#ffff00;stroke-width:27;stroke-linecap:butt;stroke-linejoin:miter;stroke-miterlimit:10;stroke-dasharray:none;stroke-opacity:1"
       transform="matrix(0.13333333,0,0,-0.13333333,0,664)" />
    <path
       id="path11"
       d="m 1066,2791 c -59.5,134.66 -90.238,280.27 -90.238,427.5 0,382.57 206.578,735.33 540.238,922.5"
       style="fill:none;stroke:#0000ff;stroke-width:27;stroke-linecap:butt;stroke-linejoin:miter;stroke-miterlimit:10;stroke-dasharray:none;stroke-opacity:1"
       transform="matrix(0.13333333,0,0,-0.13333333,0,664)" />
    <path
       id="path12"
       d="m 1516.03,1441 c -57.57,475.71 -210.64,934.9 -450.01,1350.02"
       style="fill:none;stroke:#0000ff;stroke-width:27;stroke-linecap:butt;stroke-linejoin:miter;stroke-miterlimit:10;stroke-dasharray:none;stroke-opacity:1"
       transform="matrix(0.13333333,0,0,-0.13333333,0,664)" />
    <path
       id="path13"
       d="m 1516.02,1440.99 c 50.5,129.06 76.42,266.42 76.42,405.01 0,384.91 -199.15,742.42 -526.43,945.02"
       style="fill:none;stroke:#000000;stroke-width:27;stroke-linecap:butt;stroke-linejoin:miter;stroke-miterlimit:10;stroke-dasharray:none;stroke-opacity:1"
       transform="matrix(0.13333333,0,0,-0.13333333,0,664)" />
    <path
       id="path14"
       d="M 4216.02,1440.97 C 3969.48,918.562 3443.66,585.281 2866,585.281 c -577.66,0 -1103.48,333.281 -1350.02,855.689"
       style="fill:none;stroke:#000000;stroke-width:27;stroke-linecap:butt;stroke-linejoin:miter;stroke-miterlimit:10;stroke-dasharray:none;stroke-opacity:1"
       transform="matrix(0.13333333,0,0,-0.13333333,0,664)" />
    <path
       id="path15"
       d="M 1515.99,1440.98 C 1674.77,615.133 2397.39,18.2188 3238.36,18.2188 c 968.66,0 1753.92,785.2612 1753.92,1753.9212 0,365.31 -114.07,721.5 -326.27,1018.84"
       style="fill:none;stroke:#ffff00;stroke-width:27;stroke-linecap:butt;stroke-linejoin:miter;stroke-miterlimit:10;stroke-dasharray:none;stroke-opacity:1"
       transform="matrix(0.13333333,0,0,-0.13333333,0,664)" />
    <path
       id="path16"
       d="m 4666.01,2791 c 12.45,-79.39 18.71,-159.64 18.71,-240 0,-418.1 -169.05,-818.44 -468.71,-1110.01"
       style="fill:none;stroke:#ffff00;stroke-width:27;stroke-linecap:butt;stroke-linejoin:miter;stroke-miterlimit:10;stroke-dasharray:none;stroke-opacity:1"
       transform="matrix(0.13333333,0,0,-0.13333333,0,664)" />
    <path
       id="path17"
       d="m 1515.98,1440.99 c -379.17,85.44 -648.519,422.23 -648.519,810.91 0,197.58 70.379,388.7 198.519,539.09"
       style="fill:none;stroke:#ffff00;stroke-width:27;stroke-linecap:butt;stroke-linejoin:miter;stroke-miterlimit:10;stroke-dasharray:none;stroke-opacity:1"
       transform="matrix(0.13333333,0,0,-0.13333333,0,664)" />
    <path
       id="path18"
       d="m 2866.02,4590.97 c -309.19,237.81 -688.33,366.75 -1078.4,366.75 -976.913,0 -1768.8583,-791.95 -1768.8583,-1768.86 0,-872.05 635.5543,-1613.98 1497.2583,-1747.88"
       style="fill:none;stroke:#00ff00;stroke-width:27;stroke-linecap:butt;stroke-linejoin:miter;stroke-miterlimit:10;stroke-dasharray:none;stroke-opacity:1"
       transform="matrix(0.13333333,0,0,-0.13333333,0,664)" />
    <path
       id="path19"
       d="M 1066.01,2791 C 1906.75,2493.16 2568.16,1831.75 2866,991.012"
       style="fill:none;stroke:#ff0000;stroke-width:27;stroke-linecap:butt;stroke-linejoin:miter;stroke-miterlimit:10;stroke-dasharray:none;stroke-opacity:1"
       transform="matrix(0.13333333,0,0,-0.13333333,0,664)" />
    <path
       id="path20"
       d="m 1515.99,1440.98 c -303.04,276.21 -475.73,667.29 -475.73,1077.32 0,91.5 8.62,182.8 25.73,272.68"
       style="fill:none;stroke:#ff0000;stroke-width:27;stroke-linecap:butt;stroke-linejoin:miter;stroke-miterlimit:10;stroke-dasharray:none;stroke-opacity:1"
       transform="matrix(0.13333333,0,0,-0.13333333,0,664)" />
    <path
       id="path21"
       d="M 1515.99,1440.98 C 871.145,1568.21 406.301,2133.72 406.301,2791 c 0,657.28 464.844,1222.79 1109.689,1350.02"
       style="fill:none;stroke:#ff0000;stroke-width:27;stroke-linecap:butt;stroke-linejoin:miter;stroke-miterlimit:10;stroke-dasharray:none;stroke-opacity:1"
       transform="matrix(0.13333333,0,0,-0.13333333,0,664)" />
    <path
       id="path22"
       d="m 1516.01,4141.02 c 148.95,-104.55 326.51,-160.64 508.49,-160.64 383.08,0 722.68,246.44 841.48,610.63"
       style="fill:none;stroke:#ff0000;stroke-width:27;stroke-linecap:butt;stroke-linejoin:miter;stroke-miterlimit:10;stroke-dasharray:none;stroke-opacity:1"
       transform="matrix(0.13333333,0,0,-0.13333333,0,664)" />
    <path
       id="path23"
       d="m 4216,4141 c -59.5,-134.66 -90.24,-280.27 -90.24,-427.5 0,-382.57 206.58,-735.33 540.24,-922.5"
       style="fill:none;stroke:#ff0000;stroke-width:27;stroke-linecap:butt;stroke-linejoin:miter;stroke-miterlimit:10;stroke-dasharray:none;stroke-opacity:1"
       transform="matrix(0.13333333,0,0,-0.13333333,0,664)" />
    <path
       id="path24"
       d="m 4215.97,1441.03 c -235.18,-315.05 -605.28,-500.608 -998.43,-500.608 -118.99,0 -237.38,17.047 -351.54,50.617"
       style="fill:none;stroke:#ff0000;stroke-width:27;stroke-linecap:butt;stroke-linejoin:miter;stroke-miterlimit:10;stroke-dasharray:none;stroke-opacity:1"
       transform="matrix(0.13333333,0,0,-0.13333333,0,664)" />
    <path
       id="path25"
       d="m 2865.98,991 c -215.18,322.32 -577.12,515.88 -964.66,515.88 -131.25,0 -261.55,-22.28 -385.34,-65.88"
       style="fill:none;stroke:#0000ff;stroke-width:27;stroke-linecap:butt;stroke-linejoin:miter;stroke-miterlimit:10;stroke-dasharray:none;stroke-opacity:1"
       transform="matrix(0.13333333,0,0,-0.13333333,0,664)" />
    <path
       id="path26"
       d="m 1516,1440.96 c 274.26,-303.51 664.21,-476.718 1073.28,-476.718 92.89,0 185.56,8.949 276.74,26.715"
       style="fill:none;stroke:#00ff00;stroke-width:27;stroke-linecap:butt;stroke-linejoin:miter;stroke-miterlimit:10;stroke-dasharray:none;stroke-opacity:1"
       transform="matrix(0.13333333,0,0,-0.13333333,0,664)" />
    <path
       id="path27"
       d="m 1066.02,2791.02 c 1177.77,58.3 2295.51,537.34 3149.98,1350"
       style="fill:none;stroke:#00ff00;stroke-width:27;stroke-linecap:butt;stroke-linejoin:miter;stroke-miterlimit:10;stroke-dasharray:none;stroke-opacity:1"
       transform="matrix(0.13333333,0,0,-0.13333333,0,664)" />
    <path
       id="path28"
       d="m 1066.02,2791.02 c 250.74,-76.19 511.37,-114.92 773.44,-114.92 1005.35,0 1924.83,566.77 2376.56,1464.92"
       style="fill:none;stroke:#000000;stroke-width:27;stroke-linecap:butt;stroke-linejoin:miter;stroke-miterlimit:10;stroke-dasharray:none;stroke-opacity:1"
       transform="matrix(0.13333333,0,0,-0.13333333,0,664)" />
    <path
       id="path29"
       d="m 4212.38,4134.4 c -207.89,-419.66 -316.06,-881.67 -316.06,-1350 0,-468.33 108.17,-930.34 316.06,-1350"
       style="fill:none;stroke:#ffff00;stroke-width:27;stroke-linecap:butt;stroke-linejoin:miter;stroke-miterlimit:10;stroke-dasharray:none;stroke-opacity:1"
       transform="matrix(0.13333333,0,0,-0.13333333,0,664)" />
    <path
       id="path30"
       d="m 4666.02,2790.96 c -340.25,-171.91 -554.78,-520.67 -554.78,-901.88 0,-155.43 35.86,-308.78 104.79,-448.09"
       style="fill:none;stroke:#0000ff;stroke-width:27;stroke-linecap:butt;stroke-linejoin:miter;stroke-miterlimit:10;stroke-dasharray:none;stroke-opacity:1"
       transform="matrix(0.13333333,0,0,-0.13333333,0,664)" />
    <path
       id="path31"
       d="m 4665.98,2791 c -294.28,-326.86 -457.12,-751.12 -457.12,-1190.94 0,-53.1 2.38,-106.17 7.12,-159.05"
       style="fill:none;stroke:#00ff00;stroke-width:27;stroke-linecap:butt;stroke-linejoin:miter;stroke-miterlimit:10;stroke-dasharray:none;stroke-opacity:1"
       transform="matrix(0.13333333,0,0,-0.13333333,0,664)" />
    <path
       id="path32"
       d="m 4666.03,2791 c 90.35,-146.38 138.21,-315.01 138.21,-487.02 0,-381.24 -233.37,-723.62 -588.21,-863"
       style="fill:none;stroke:#ff0000;stroke-width:27;stroke-linecap:butt;stroke-linejoin:miter;stroke-miterlimit:10;stroke-dasharray:none;stroke-opacity:1"
       transform="matrix(0.13333333,0,0,-0.13333333,0,664)" />
    <path
       id="path33"
       d="M 4666,2791 4216,1441"
       style="fill:none;stroke:#000000;stroke-width:27;stroke-linecap:butt;stroke-linejoin:miter;stroke-miterlimit:10;stroke-dasharray:none;stroke-opacity:1"
       transform="matrix(0.13333333,0,0,-0.13333333,0,664)" />
    <path
       id="path34"
       d="M 4216,4141 4666,2791"
       style="fill:none;stroke:#0000ff;stroke-width:27;stroke-linecap:butt;stroke-linejoin:miter;stroke-miterlimit:10;stroke-dasharray:none;stroke-opacity:1"
       transform="matrix(0.13333333,0,0,-0.13333333,0,664)" />
    <path
       id="path35"
       d="M 4216,1441 2866,991"
       style="fill:none;stroke:#00ff00;stroke-width:27;stroke-linecap:butt;stroke-linejoin:miter;stroke-miterlimit:10;stroke-dasharray:none;stroke-opacity:1"
       transform="matrix(0.13333333,0,0,-0.13333333,0,664)" />
    <path
       id="path36"
       d="M 1516,4141 1066,2791"
       style="fill:none;stroke:#00ff00;stroke-width:27;stroke-linecap:butt;stroke-linejoin:miter;stroke-miterlimit:10;stroke-dasharray:none;stroke-opacity:1"
       transform="matrix(0.13333333,0,0,-0.13333333,0,664)" />
    <path
       id="path37"
       d="M 2866,4591 4207.6,4139.2"
       style="fill:none;stroke:#ff0000;stroke-width:27;stroke-linecap:butt;stroke-linejoin:miter;stroke-miterlimit:10;stroke-dasharray:none;stroke-opacity:1"
       transform="matrix(0.13333333,0,0,-0.13333333,0,664)" />
    <path
       id="path38"
       d="m 4216.01,4141.04 c 327.95,-200.94 527.87,-557.91 527.87,-942.52 0,-139.53 -26.42,-277.81 -77.86,-407.51"
       style="fill:none;stroke:#00ff00;stroke-width:27;stroke-linecap:butt;stroke-linejoin:miter;stroke-miterlimit:10;stroke-dasharray:none;stroke-opacity:1"
       transform="matrix(0.13333333,0,0,-0.13333333,0,664)" />
    <path
       id="path39"
       d="m 2920,4586.8 c 0,-29.82 -24.18,-54 -54,-54 -29.82,0 -54,24.18 -54,54 0,29.82 24.18,54 54,54 29.82,0 54,-24.18 54,-54"
       style="fill:#ffffff;fill-opacity:1;fill-rule:evenodd;stroke:none"
       transform="matrix(0.13333333,0,0,-0.13333333,0,664)" />
    <path
       id="path40"
       d="m 2920,4586.8 c 0,-29.82 -24.18,-54 -54,-54 -29.82,0 -54,24.18 -54,54 0,29.82 24.18,54 54,54 29.82,0 54,-24.18 54,-54 z"
       style="fill:none;stroke:#000000;stroke-width:27;stroke-linecap:butt;stroke-linejoin:miter;stroke-miterlimit:10;stroke-dasharray:none;stroke-opacity:1"
       transform="matrix(0.13333333,0,0,-0.13333333,0,664)" />
    <path
       id="path41"
       d="m 4266.4,4144.6 c 0,-29.82 -24.18,-54 -54,-54 -29.82,0 -54,24.18 -54,54 0,29.82 24.18,54 54,54 29.82,0 54,-24.18 54,-54"
       style="fill:#ffffff;fill-opacity:1;fill-rule:evenodd;stroke:none"
       transform="matrix(0.13333333,0,0,-0.13333333,0,664)" />
    <path
       id="path42"
       d="m 4266.4,4144.6 c 0,-29.82 -24.18,-54 -54,-54 -29.82,0 -54,24.18 -54,54 0,29.82 24.18,54 54,54 29.82,0 54,-24.18 54,-54 z"
       style="fill:none;stroke:#000000;stroke-width:27;stroke-linecap:butt;stroke-linejoin:miter;stroke-miterlimit:10;stroke-dasharray:none;stroke-opacity:1"
       transform="matrix(0.13333333,0,0,-0.13333333,0,664)" />
    <path
       id="path43"
       d="m 4711,2795.8 c 0,-29.82 -24.18,-54 -54,-54 -29.82,0 -54,24.18 -54,54 0,29.82 24.18,54 54,54 29.82,0 54,-24.18 54,-54"
       style="fill:#ffffff;fill-opacity:1;fill-rule:evenodd;stroke:none"
       transform="matrix(0.13333333,0,0,-0.13333333,0,664)" />
    <path
       id="path44"
       d="m 4711,2795.8 c 0,-29.82 -24.18,-54 -54,-54 -29.82,0 -54,24.18 -54,54 0,29.82 24.18,54 54,54 29.82,0 54,-24.18 54,-54 z"
       style="fill:none;stroke:#000000;stroke-width:27;stroke-linecap:butt;stroke-linejoin:miter;stroke-miterlimit:10;stroke-dasharray:none;stroke-opacity:1"
       transform="matrix(0.13333333,0,0,-0.13333333,0,664)" />
    <path
       id="path45"
       d="m 4261,1454.8 c 0,-29.82 -24.18,-54 -54,-54 -29.82,0 -54,24.18 -54,54 0,29.82 24.18,54 54,54 29.82,0 54,-24.18 54,-54"
       style="fill:#ffffff;fill-opacity:1;fill-rule:evenodd;stroke:none"
       transform="matrix(0.13333333,0,0,-0.13333333,0,664)" />
    <path
       id="path46"
       d="m 4261,1454.8 c 0,-29.82 -24.18,-54 -54,-54 -29.82,0 -54,24.18 -54,54 0,29.82 24.18,54 54,54 29.82,0 54,-24.18 54,-54 z"
       style="fill:none;stroke:#000000;stroke-width:27;stroke-linecap:butt;stroke-linejoin:miter;stroke-miterlimit:10;stroke-dasharray:none;stroke-opacity:1"
       transform="matrix(0.13333333,0,0,-0.13333333,0,664)" />
    <path
       id="path47"
       d="m 2920,1004.8 c 0,-29.82 -24.18,-53.999 -54,-53.999 -29.82,0 -54,24.179 -54,53.999 0,29.82 24.18,54 54,54 29.82,0 54,-24.18 54,-54"
       style="fill:#ffffff;fill-opacity:1;fill-rule:evenodd;stroke:none"
       transform="matrix(0.13333333,0,0,-0.13333333,0,664)" />
    <path
       id="path48"
       d="m 2920,1004.8 c 0,-29.82 -24.18,-53.999 -54,-53.999 -29.82,0 -54,24.179 -54,53.999 0,29.82 24.18,54 54,54 29.82,0 54,-24.18 54,-54 z"
       style="fill:none;stroke:#000000;stroke-width:27;stroke-linecap:butt;stroke-linejoin:miter;stroke-miterlimit:10;stroke-dasharray:none;stroke-opacity:1"
       transform="matrix(0.13333333,0,0,-0.13333333,0,664)" />
    <path
       id="path49"
       d="m 1561,1445.8 c 0,-29.82 -24.18,-54 -54,-54 -29.82,0 -54,24.18 -54,54 0,29.82 24.18,54 54,54 29.82,0 54,-24.18 54,-54"
       style="fill:#ffffff;fill-opacity:1;fill-rule:evenodd;stroke:none"
       transform="matrix(0.13333333,0,0,-0.13333333,0,664)" />
    <path
       id="path50"
       d="m 1561,1445.8 c 0,-29.82 -24.18,-54 -54,-54 -29.82,0 -54,24.18 -54,54 0,29.82 24.18,54 54,54 29.82,0 54,-24.18 54,-54 z"
       style="fill:none;stroke:#000000;stroke-width:27;stroke-linecap:butt;stroke-linejoin:miter;stroke-miterlimit:10;stroke-dasharray:none;stroke-opacity:1"
       transform="matrix(0.13333333,0,0,-0.13333333,0,664)" />
    <path
       id="path51"
       d="m 1120,2786.8 c 0,-29.82 -24.18,-54 -54,-54 -29.82,0 -54,24.18 -54,54 0,29.82 24.18,54 54,54 29.82,0 54,-24.18 54,-54"
       style="fill:#ffffff;fill-opacity:1;fill-rule:evenodd;stroke:none"
       transform="matrix(0.13333333,0,0,-0.13333333,0,664)" />
    <path
       id="path52"
       d="m 1120,2786.8 c 0,-29.82 -24.18,-54 -54,-54 -29.82,0 -54,24.18 -54,54 0,29.82 24.18,54 54,54 29.82,0 54,-24.18 54,-54 z"
       style="fill:none;stroke:#000000;stroke-width:27;stroke-linecap:butt;stroke-linejoin:miter;stroke-miterlimit:10;stroke-dasharray:none;stroke-opacity:1"
       transform="matrix(0.13333333,0,0,-0.13333333,0,664)" />
    <path
       id="path53"
       d="m 1579,4145.8 c 0,-29.82 -24.18,-54 -54,-54 -29.82,0 -54,24.18 -54,54 0,29.82 24.18,54 54,54 29.82,0 54,-24.18 54,-54"
       style="fill:#ffffff;fill-opacity:1;fill-rule:evenodd;stroke:none"
       transform="matrix(0.13333333,0,0,-0.13333333,0,664)" />
    <path
       id="path54"
       d="m 1579,4145.8 c 0,-29.82 -24.18,-54 -54,-54 -29.82,0 -54,24.18 -54,54 0,29.82 24.18,54 54,54 29.82,0 54,-24.18 54,-54 z"
       style="fill:none;stroke:#000000;stroke-width:27;stroke-linecap:butt;stroke-linejoin:miter;stroke-miterlimit:10;stroke-dasharray:none;stroke-opacity:1"
       transform="matrix(0.13333333,0,0,-0.13333333,0,664)" />
  </g>
</svg>
