<?xml version="1.0" encoding="UTF-8" standalone="no"?>
<svg
   viewBox="-2000 -1000 2640 1720"
   version="1.1"
   id="svg3"
   sodipodi:docname="EdwardsBipart9.svg"
   inkscape:version="1.3.2 (091e20e, 2023-11-25, custom)"
   width="2640"
   height="1720"
   inkscape:export-filename="EdwardsBipart9.pdf"
   inkscape:export-xdpi="96"
   inkscape:export-ydpi="96"
   xmlns:inkscape="http://www.inkscape.org/namespaces/inkscape"
   xmlns:sodipodi="http://sodipodi.sourceforge.net/DTD/sodipodi-0.dtd"
   xmlns="http://www.w3.org/2000/svg"
   xmlns:svg="http://www.w3.org/2000/svg">
  <defs
     id="defs3" />
  <sodipodi:namedview
     id="namedview3"
     pagecolor="#ffffff"
     bordercolor="#000000"
     borderopacity="0.25"
     inkscape:showpageshadow="2"
     inkscape:pageopacity="0.0"
     inkscape:pagecheckerboard="0"
     inkscape:deskcolor="#d1d1d1"
     showgrid="true"
     inkscape:zoom="0.6905"
     inkscape:cx="1319.3338"
     inkscape:cy="859.52209"
     inkscape:window-width="3840"
     inkscape:window-height="1577"
     inkscape:window-x="-8"
     inkscape:window-y="-8"
     inkscape:window-maximized="1"
     inkscape:current-layer="svg3">
    <inkscape:grid
       id="grid3"
       units="px"
       originx="-680"
       originy="-140"
       spacingx="1"
       spacingy="1"
       empcolor="#0099e5"
       empopacity="0.30196078"
       color="#0099e5"
       opacity="0.14901961"
       empspacing="5"
       dotted="false"
       gridanglex="30"
       gridanglez="30"
       visible="true" />
  </sodipodi:namedview>
  <line
     x1="-680"
     y1="-1000"
     x2="-680"
     y2="720"
     stroke="#000000"
     stroke-width="3.84652"
     id="line1"
     style="display:none" />
  <line
     x1="-2000"
     y1="-140"
     x2="640"
     y2="-140"
     stroke="#000000"
     stroke-width="3.56692"
     id="line2"
     style="display:none" />
  <path
     id="rect3"
     style="display:inline;fill:#0000ff;fill-opacity:1;fill-rule:evenodd;stroke:#000000;stroke-width:2;stroke-dasharray:none;stroke-opacity:1"
     inkscape:label="curve 1"
     d="M -680 -1000 L -680 -883.39453 A 207.10678 207.10678 0 0 1 -476.98242 -650.60352 A 49.245702 49.245702 0 0 1 -440.48828 -592.10742 A 12.274311 12.274311 0 0 1 -433.55078 -575.04297 A 12.274311 12.274311 0 0 0 -433.89453 -572.39062 A 500 500 0 0 1 -424.58984 -567.40625 A 24.563425 24.563425 0 0 0 -422.94922 -568.86523 A 24.563425 24.563425 0 0 1 -383.77344 -572.14453 A 99.456184 99.456184 0 0 1 -242.35547 -560.00781 A 500 500 0 0 1 527.10742 -140 L 640 -140 L 640 -1000 L -680 -1000 z M 527.10742 -140 L 63.394531 -140 A 207.10678 207.10678 0 0 1 -169.23047 61.572266 A 49.245702 49.245702 0 0 1 -227.70117 97.427734 A 12.274311 12.274311 0 0 1 -244.95703 106.44922 A 12.274311 12.274311 0 0 0 -249.69727 105.83594 A 500 500 0 0 1 -254.03125 113.79102 A 24.563425 24.563425 0 0 0 -251.13477 117.05078 A 24.563425 24.563425 0 0 1 -246.48438 154.17188 A 99.456184 99.456184 0 0 1 -242.35547 280.00781 A 500 500 0 0 0 527.10742 -140 z M -242.35547 280.00781 A 500 500 0 0 1 -286.95508 244.76172 A 49.245702 49.245702 0 0 1 -353.09375 252.63672 A 12.274311 12.274311 0 0 1 -372.38477 254.17383 A 12.274311 12.274311 0 0 0 -377.03516 251.5 A 500 500 0 0 1 -383.72852 257.05469 A 24.563425 24.563425 0 0 0 -382.15039 261.60352 A 24.563425 24.563425 0 0 1 -383.77344 292.14453 A 99.456184 99.456184 0 0 0 -242.35547 280.00781 z M -383.77344 292.14453 A 99.456184 99.456184 0 0 1 -393.57227 283.42578 A 12.274311 12.274311 0 0 1 -412.50195 282.42773 A 12.274311 12.274311 0 0 0 -415.62305 280.20117 A 500 500 0 0 1 -426.21289 285.96484 A 24.563425 24.563425 0 0 1 -422.94922 288.86523 A 24.563425 24.563425 0 0 0 -383.77344 292.14453 z M -426.21289 285.96484 A 24.563425 24.563425 0 0 0 -432.82617 283.31641 A 12.274311 12.274311 0 0 0 -434.16602 290.29492 A 500 500 0 0 0 -426.21289 285.96484 z M -434.16602 290.29492 A 500 500 0 0 1 -445.43555 296.42969 A 49.245702 49.245702 0 0 0 -444.30078 300.96094 A 49.245702 49.245702 0 0 1 -440.48828 312.10742 A 12.274311 12.274311 0 0 0 -433.55078 295.04297 A 12.274311 12.274311 0 0 1 -434.16602 290.29492 z M -440.48828 312.10742 A 12.274311 12.274311 0 0 1 -455.19531 306.61133 A 12.274311 12.274311 0 0 0 -458.62891 303.61133 A 500 500 0 0 1 -466.76953 308.04297 A 24.563425 24.563425 0 0 0 -466.22266 311.99414 A 24.563425 24.563425 0 0 1 -483.01562 345.45898 A 207.10678 207.10678 0 0 1 -476.98242 370.60352 A 49.245702 49.245702 0 0 0 -440.48828 312.10742 z M -476.98242 370.60352 A 49.245702 49.245702 0 0 1 -528.60938 348.16406 A 12.274311 12.274311 0 0 1 -546.64453 341.88867 A 12.274311 12.274311 0 0 0 -548.91211 338.94531 A 500 500 0 0 1 -558.32617 341.89453 A 24.563425 24.563425 0 0 0 -558.50977 345.01562 A 24.563425 24.563425 0 0 1 -581.00391 374.46094 A 99.456184 99.456184 0 0 1 -680 469.25195 L -680 603.39453 A 207.10678 207.10678 0 0 0 -476.98242 370.60352 z M -680 603.39453 A 207.10678 207.10678 0 0 1 -881.83203 372.00781 A 49.245702 49.245702 0 0 1 -917.66992 312.27734 A 12.274311 12.274311 0 0 1 -926.44922 295.04297 A 12.274311 12.274311 0 0 0 -925.83398 290.30273 A 500 500 0 0 1 -933.79297 285.9707 A 24.563425 24.563425 0 0 0 -937.05078 288.86523 A 24.563425 24.563425 0 0 1 -976.08984 292.23633 A 99.456184 99.456184 0 0 1 -1117.6133 281.04102 A 500 500 0 0 1 -1887.1074 -140 L -2000 -140 L -2000 720 L -680 720 L -680 603.39453 z M -1887.1074 -140 L -1428.3027 -140 A 207.10678 207.10678 0 0 1 -1191.5605 -342.91211 A 49.245702 49.245702 0 0 1 -1132.2773 -377.67383 A 12.274311 12.274311 0 0 1 -1115.043 -386.44922 A 12.274311 12.274311 0 0 0 -1110.3066 -385.83594 A 500 500 0 0 1 -1105.9707 -393.79297 A 24.563425 24.563425 0 0 0 -1108.8652 -397.05078 A 24.563425 24.563425 0 0 1 -1112.6562 -435.45898 A 99.456184 99.456184 0 0 1 -1117.6133 -561.04102 A 500 500 0 0 0 -1887.1074 -140 z M -1117.6133 -561.04102 A 500 500 0 0 1 -1072.9883 -525.21289 A 49.245702 49.245702 0 0 1 -1006.8809 -532.69141 A 12.274311 12.274311 0 0 1 -987.61523 -534.17383 A 12.274311 12.274311 0 0 0 -982.98047 -531.50977 A 500 500 0 0 1 -976.2793 -537.07422 A 24.563425 24.563425 0 0 0 -977.84961 -541.60352 A 24.563425 24.563425 0 0 1 -976.08984 -572.23633 A 99.456184 99.456184 0 0 0 -1117.6133 -561.04102 z M -976.08984 -572.23633 A 99.456184 99.456184 0 0 1 -966.38672 -563.48828 A 12.274311 12.274311 0 0 1 -947.49805 -562.42773 A 12.274311 12.274311 0 0 0 -944.38477 -560.20508 A 500 500 0 0 1 -933.79297 -565.9707 A 24.563425 24.563425 0 0 1 -937.05078 -568.86523 A 24.563425 24.563425 0 0 0 -976.08984 -572.23633 z M -933.79297 -565.9707 A 24.563425 24.563425 0 0 0 -928.11719 -562.06055 A 12.274311 12.274311 0 0 0 -925.83398 -570.30273 A 500 500 0 0 0 -933.79297 -565.9707 z M -925.83398 -570.30273 A 500 500 0 0 1 -914.41797 -576.51562 A 49.245702 49.245702 0 0 0 -915.69922 -580.96094 A 49.245702 49.245702 0 0 1 -917.66992 -592.27734 A 12.274311 12.274311 0 0 0 -926.44922 -575.04297 A 12.274311 12.274311 0 0 1 -925.83398 -570.30273 z M -917.66992 -592.27734 A 12.274311 12.274311 0 0 1 -904.80469 -586.61133 A 12.274311 12.274311 0 0 0 -901.37305 -583.61523 A 500 500 0 0 1 -893.23047 -588.04688 A 24.563425 24.563425 0 0 0 -893.77734 -591.99414 A 24.563425 24.563425 0 0 1 -876.32617 -625.73242 A 207.10678 207.10678 0 0 1 -881.83203 -652.00781 A 49.245702 49.245702 0 0 0 -917.66992 -592.27734 z M -881.83203 -652.00781 A 49.245702 49.245702 0 0 1 -831.17383 -628.3457 A 12.274311 12.274311 0 0 1 -813.35547 -621.88867 A 12.274311 12.274311 0 0 0 -811.0918 -618.95117 A 500 500 0 0 1 -801.67383 -621.90039 A 24.563425 24.563425 0 0 0 -801.49023 -625.01562 A 24.563425 24.563425 0 0 1 -776.94336 -654.86914 A 99.456184 99.456184 0 0 1 -680 -749.25195 L -680 -883.39453 A 207.10678 207.10678 0 0 0 -881.83203 -652.00781 z M -680 -749.25195 L -680 -691.66406 A 49.245702 49.245702 0 0 1 -631.28711 -649.48828 A 12.274311 12.274311 0 0 1 -618.79492 -636.24023 A 12.274311 12.274311 0 0 0 -618.14648 -633.8418 A 500 500 0 0 1 -607.50977 -632.7832 A 24.563425 24.563425 0 0 0 -606.63477 -634.58789 A 24.563425 24.563425 0 0 1 -581.00391 -654.46094 A 99.456184 99.456184 0 0 0 -680 -749.25195 z M -581.00391 -654.46094 A 99.456184 99.456184 0 0 1 -580.99805 -642.37891 A 12.274311 12.274311 0 0 1 -570.44922 -627.85156 A 12.274311 12.274311 0 0 0 -570.23438 -626.56836 A 500 500 0 0 1 -558.38867 -622.96094 A 24.563425 24.563425 0 0 1 -558.50977 -625.01562 A 24.563425 24.563425 0 0 0 -581.00391 -654.46094 z M -558.38867 -622.96094 A 24.563425 24.563425 0 0 0 -557.41016 -613.83008 A 12.274311 12.274311 0 0 0 -548.20703 -619.86133 A 500 500 0 0 0 -558.38867 -622.96094 z M -548.20703 -619.86133 A 500 500 0 0 1 -536.21289 -616.21094 A 49.245702 49.245702 0 0 0 -534.85742 -618.4707 A 49.245702 49.245702 0 0 1 -528.60938 -628.16406 A 12.274311 12.274311 0 0 0 -546.64453 -621.88867 A 12.274311 12.274311 0 0 1 -548.20703 -619.86133 z M -528.60938 -628.16406 A 12.274311 12.274311 0 0 1 -523.1582 -614.76367 A 12.274311 12.274311 0 0 0 -522.98438 -612.18359 A 500 500 0 0 1 -512.82617 -609.0918 A 24.563425 24.563425 0 0 0 -511.55469 -610.77148 A 24.563425 24.563425 0 0 1 -483.01562 -625.45898 A 207.10678 207.10678 0 0 0 -476.98242 -650.60352 A 49.245702 49.245702 0 0 0 -528.60938 -628.16406 z M -483.01562 -625.45898 A 207.10678 207.10678 0 0 1 -485.9082 -613.40625 A 12.274311 12.274311 0 0 1 -477.37891 -597.10547 A 12.274311 12.274311 0 0 0 -477.42188 -595.70312 A 500 500 0 0 1 -466.51758 -589.86328 A 24.563425 24.563425 0 0 1 -466.22266 -591.99414 A 24.563425 24.563425 0 0 0 -483.01562 -625.45898 z M -466.51758 -589.86328 A 24.563425 24.563425 0 0 0 -465.6543 -580.7168 A 12.274311 12.274311 0 0 0 -457.19141 -584.86719 A 500 500 0 0 0 -466.51758 -589.86328 z M -457.19141 -584.86719 A 500 500 0 0 1 -444.96289 -578.31836 A 49.245702 49.245702 0 0 1 -444.30078 -580.96094 A 49.245702 49.245702 0 0 0 -440.48828 -592.10742 A 12.274311 12.274311 0 0 0 -455.19531 -586.61133 A 12.274311 12.274311 0 0 1 -457.19141 -584.86719 z M -444.96289 -578.31836 A 49.245702 49.245702 0 0 0 -447.60547 -557.4707 A 24.563425 24.563425 0 0 0 -431.65039 -561.75195 A 12.274311 12.274311 0 0 1 -433.89453 -572.39062 A 500 500 0 0 0 -444.96289 -578.31836 z M -431.65039 -561.75195 A 12.274311 12.274311 0 0 0 -413.69922 -561.57227 A 500 500 0 0 0 -424.58984 -567.40625 A 24.563425 24.563425 0 0 1 -431.65039 -561.75195 z M -413.69922 -561.57227 A 500 500 0 0 1 -402.41211 -555.52734 A 99.456184 99.456184 0 0 0 -402.21484 -555.73438 A 99.456184 99.456184 0 0 1 -393.57227 -563.42578 A 12.274311 12.274311 0 0 0 -412.50195 -562.42773 A 12.274311 12.274311 0 0 1 -413.69922 -561.57227 z M -393.57227 -563.42578 A 12.274311 12.274311 0 0 1 -392.0957 -548.79297 A 12.274311 12.274311 0 0 0 -392.43359 -547.32812 A 500 500 0 0 1 -382.88672 -539.48242 A 24.563425 24.563425 0 0 1 -382.15039 -541.60352 A 24.563425 24.563425 0 0 0 -383.77344 -572.14453 A 99.456184 99.456184 0 0 0 -393.57227 -563.42578 z M -382.88672 -539.48242 A 24.563425 24.563425 0 0 0 -385.38477 -530.83984 A 12.274311 12.274311 0 0 0 -374.76172 -532.80664 A 500 500 0 0 0 -382.88672 -539.48242 z M -374.76172 -532.80664 A 500 500 0 0 1 -365.05859 -524.83398 A 49.245702 49.245702 0 0 0 -362.80273 -526.50586 A 49.245702 49.245702 0 0 1 -353.09375 -532.63672 A 12.274311 12.274311 0 0 0 -372.38477 -534.17383 A 12.274311 12.274311 0 0 1 -374.76172 -532.80664 z M -353.09375 -532.63672 A 12.274311 12.274311 0 0 1 -353.41406 -518.60352 A 12.274311 12.274311 0 0 0 -354.29492 -515.99023 A 500 500 0 0 1 -346.18359 -509.32422 A 24.563425 24.563425 0 0 0 -344.2207 -510.47461 A 24.563425 24.563425 0 0 1 -307.57617 -508.4668 A 500 500 0 0 1 -286.95508 -524.76172 A 49.245702 49.245702 0 0 0 -353.09375 -532.63672 z M -286.95508 -524.76172 A 49.245702 49.245702 0 0 1 -285.65234 -466.00586 A 12.274311 12.274311 0 0 1 -285.82617 -447.61523 A 12.274311 12.274311 0 0 0 -287.19336 -445.23438 A 500 500 0 0 1 -280.51953 -437.11328 A 24.563425 24.563425 0 0 0 -278.39648 -437.84961 A 24.563425 24.563425 0 0 1 -246.48438 -434.17188 A 99.456184 99.456184 0 0 0 -242.35547 -560.00781 A 500 500 0 0 0 -286.95508 -524.76172 z M -246.48438 -434.17188 A 99.456184 99.456184 0 0 1 -255.58984 -425.7793 A 12.274311 12.274311 0 0 1 -257.57227 -407.49805 A 12.274311 12.274311 0 0 0 -258.42773 -406.29883 A 500 500 0 0 1 -252.59375 -395.4082 A 24.563425 24.563425 0 0 1 -251.13477 -397.05078 A 24.563425 24.563425 0 0 0 -246.48438 -434.17188 z M -252.59375 -395.4082 A 24.563425 24.563425 0 0 0 -258.24805 -388.34961 A 12.274311 12.274311 0 0 0 -247.61133 -386.10547 A 500 500 0 0 0 -252.59375 -395.4082 z M -247.61133 -386.10547 A 500 500 0 0 1 -241.68164 -375.03711 A 49.245702 49.245702 0 0 0 -239.03906 -375.69922 A 49.245702 49.245702 0 0 1 -227.70117 -377.42773 A 12.274311 12.274311 0 0 0 -244.95703 -386.44922 A 12.274311 12.274311 0 0 1 -247.61133 -386.10547 z M -227.70117 -377.42773 A 12.274311 12.274311 0 0 1 -233.38867 -364.80469 A 12.274311 12.274311 0 0 0 -235.13281 -362.80859 A 500 500 0 0 1 -230.13672 -353.48242 A 24.563425 24.563425 0 0 0 -228.00586 -353.77734 A 24.563425 24.563425 0 0 1 -194.26758 -336.32617 A 207.10678 207.10678 0 0 1 -169.23047 -341.57227 A 49.245702 49.245702 0 0 0 -227.70117 -377.42773 z M -169.23047 -341.57227 A 49.245702 49.245702 0 0 1 -190.99805 -290.38477 A 12.274311 12.274311 0 0 1 -198.11133 -273.35547 A 12.274311 12.274311 0 0 0 -200.13672 -271.79492 A 500 500 0 0 1 -197.03711 -261.61133 A 24.563425 24.563425 0 0 0 -194.98438 -261.49023 A 24.563425 24.563425 0 0 1 -165.13086 -236.94336 A 99.456184 99.456184 0 0 1 -70.748047 -140 L 63.394531 -140 A 207.10678 207.10678 0 0 0 -169.23047 -341.57227 z M -70.748047 -140 L -128.33594 -140 A 49.245702 49.245702 0 0 1 -171.06055 -93.056641 A 12.274311 12.274311 0 0 1 -183.75977 -78.794922 A 12.274311 12.274311 0 0 0 -186.68945 -78.003906 A 500 500 0 0 1 -187.79102 -67.789062 A 24.563425 24.563425 0 0 0 -185.41211 -66.634766 A 24.563425 24.563425 0 0 1 -165.13086 -43.056641 A 99.456184 99.456184 0 0 0 -70.748047 -140 z M -165.13086 -43.056641 A 99.456184 99.456184 0 0 1 -177.97852 -42.740234 A 12.274311 12.274311 0 0 1 -192.14844 -30.449219 A 12.274311 12.274311 0 0 0 -194.40625 -30.072266 A 500 500 0 0 1 -198.08398 -18.326172 A 24.563425 24.563425 0 0 1 -194.98438 -18.509766 A 24.563425 24.563425 0 0 0 -165.13086 -43.056641 z M -198.08398 -18.326172 A 24.563425 24.563425 0 0 0 -205.84961 -15.15625 A 12.274311 12.274311 0 0 0 -201.03711 -8.8984375 A 500 500 0 0 0 -198.08398 -18.326172 z M -201.03711 -8.8984375 A 500 500 0 0 1 -204.81641 3.1738281 A 49.245702 49.245702 0 0 0 -201.5293 5.1425781 A 49.245702 49.245702 0 0 1 -190.99805 10.384766 A 12.274311 12.274311 0 0 0 -198.11133 -6.6445312 A 12.274311 12.274311 0 0 1 -201.03711 -8.8984375 z M -190.99805 10.384766 A 12.274311 12.274311 0 0 1 -205.23633 16.841797 A 12.274311 12.274311 0 0 0 -209.17969 17.107422 A 500 500 0 0 1 -212.05859 26.302734 A 24.563425 24.563425 0 0 0 -209.22852 28.445312 A 24.563425 24.563425 0 0 1 -194.26758 56.326172 A 207.10678 207.10678 0 0 0 -169.23047 61.572266 A 49.245702 49.245702 0 0 0 -190.99805 10.384766 z M -194.26758 56.326172 A 207.10678 207.10678 0 0 1 -206.5957 53.744141 A 12.274311 12.274311 0 0 1 -222.89453 62.621094 A 12.274311 12.274311 0 0 0 -226.0957 62.521484 A 500 500 0 0 1 -231.93359 73.234375 A 24.563425 24.563425 0 0 1 -228.00586 73.777344 A 24.563425 24.563425 0 0 0 -194.26758 56.326172 z M -231.93359 73.234375 A 24.563425 24.563425 0 0 0 -239.2832 74.357422 A 12.274311 12.274311 0 0 0 -236.375 81.384766 A 500 500 0 0 0 -231.93359 73.234375 z M -236.375 81.384766 A 500 500 0 0 1 -243.55664 94.566406 A 49.245702 49.245702 0 0 1 -239.03906 95.699219 A 49.245702 49.245702 0 0 0 -227.70117 97.427734 A 12.274311 12.274311 0 0 0 -233.38867 84.804688 A 12.274311 12.274311 0 0 1 -236.375 81.384766 z M -243.55664 94.566406 A 49.245702 49.245702 0 0 0 -262.5 92.650391 A 24.563425 24.563425 0 0 0 -256.68164 107.17383 A 12.274311 12.274311 0 0 1 -249.69727 105.83594 A 500 500 0 0 0 -243.55664 94.566406 z M -256.68164 107.17383 A 12.274311 12.274311 0 0 0 -259.80078 124.37695 A 500 500 0 0 0 -254.03125 113.79102 A 24.563425 24.563425 0 0 1 -256.68164 107.17383 z M -259.80078 124.37695 A 500 500 0 0 1 -266.13672 136.00391 A 99.456184 99.456184 0 0 0 -264.26562 137.78516 A 99.456184 99.456184 0 0 1 -255.58984 145.7793 A 12.274311 12.274311 0 0 0 -257.57227 127.49805 A 12.274311 12.274311 0 0 1 -259.80078 124.37695 z M -255.58984 145.7793 A 12.274311 12.274311 0 0 1 -271.20703 147.9043 A 12.274311 12.274311 0 0 0 -275.24609 146.9707 A 500 500 0 0 1 -282.9668 156.26367 A 24.563425 24.563425 0 0 1 -278.39648 157.84961 A 24.563425 24.563425 0 0 0 -246.48438 154.17188 A 99.456184 99.456184 0 0 0 -255.58984 145.7793 z M -282.9668 156.26367 A 24.563425 24.563425 0 0 0 -289.61328 156.38086 A 12.274311 12.274311 0 0 0 -288.51367 162.94141 A 500 500 0 0 0 -282.9668 156.26367 z M -288.51367 162.94141 A 500 500 0 0 1 -296.73047 172.83398 A 49.245702 49.245702 0 0 0 -293.49414 177.19727 A 49.245702 49.245702 0 0 1 -285.65234 186.00586 A 12.274311 12.274311 0 0 0 -285.82617 167.61523 A 12.274311 12.274311 0 0 1 -288.51367 162.94141 z M -285.65234 186.00586 A 12.274311 12.274311 0 0 1 -301.39648 186.58594 A 12.274311 12.274311 0 0 0 -306.67578 184.80664 A 500 500 0 0 1 -312.11719 191.35742 A 24.563425 24.563425 0 0 0 -309.52539 195.7793 A 24.563425 24.563425 0 0 1 -307.57617 228.4668 A 500 500 0 0 0 -286.95508 244.76172 A 49.245702 49.245702 0 0 0 -285.65234 186.00586 z M -307.57617 228.4668 A 500 500 0 0 1 -317.0918 220.94531 A 12.274311 12.274311 0 0 1 -335.23047 222.12305 A 12.274311 12.274311 0 0 0 -339.37891 220.25391 A 500 500 0 0 1 -348.60156 227.90625 A 24.563425 24.563425 0 0 1 -344.2207 230.47461 A 24.563425 24.563425 0 0 0 -307.57617 228.4668 z M -348.60156 227.90625 A 24.563425 24.563425 0 0 0 -354.81836 226.60352 A 12.274311 12.274311 0 0 0 -355.17969 233.36523 A 500 500 0 0 0 -348.60156 227.90625 z M -355.17969 233.36523 A 500 500 0 0 1 -367.13867 243.28906 A 49.245702 49.245702 0 0 1 -362.80273 246.50586 A 49.245702 49.245702 0 0 0 -353.09375 252.63672 A 12.274311 12.274311 0 0 0 -353.41406 238.60352 A 12.274311 12.274311 0 0 1 -355.17969 233.36523 z M -367.13867 243.28906 A 49.245702 49.245702 0 0 0 -383.33984 234.81055 A 24.563425 24.563425 0 0 0 -383.61133 250.38477 A 12.274311 12.274311 0 0 1 -377.03516 251.5 A 500 500 0 0 0 -367.13867 243.28906 z M -383.61133 250.38477 A 12.274311 12.274311 0 0 0 -393.02539 264.76953 A 500 500 0 0 0 -383.72852 257.05469 A 24.563425 24.563425 0 0 1 -383.61133 250.38477 z M -393.02539 264.76953 A 500 500 0 0 1 -403.99023 273.86914 A 99.456184 99.456184 0 0 1 -402.21484 275.73438 A 99.456184 99.456184 0 0 0 -393.57227 283.42578 A 12.274311 12.274311 0 0 0 -392.0957 268.79297 A 12.274311 12.274311 0 0 1 -393.02539 264.76953 z M -403.99023 273.86914 A 99.456184 99.456184 0 0 0 -436.72461 246.17383 A 49.245702 49.245702 0 0 0 -447.3457 277.5 A 24.563425 24.563425 0 0 1 -432.82617 283.31641 A 12.274311 12.274311 0 0 1 -415.62305 280.20117 A 500 500 0 0 0 -403.99023 273.86914 z M -447.3457 277.5 A 24.563425 24.563425 0 0 0 -465.64453 300.7168 A 12.274311 12.274311 0 0 1 -458.62891 303.61133 A 500 500 0 0 0 -445.43555 296.42969 A 49.245702 49.245702 0 0 1 -447.3457 277.5 z M -465.64453 300.7168 A 12.274311 12.274311 0 0 0 -477.47852 313.87305 A 500 500 0 0 0 -466.76953 308.04297 A 24.563425 24.563425 0 0 1 -465.64453 300.7168 z M -477.47852 313.87305 A 500 500 0 0 1 -489.12109 320.21094 A 207.10678 207.10678 0 0 0 -488.6582 321.93945 A 207.10678 207.10678 0 0 1 -485.9082 333.40625 A 12.274311 12.274311 0 0 0 -477.37891 317.10547 A 12.274311 12.274311 0 0 1 -477.47852 313.87305 z M -485.9082 333.40625 A 12.274311 12.274311 0 0 1 -500.05273 326.49609 A 12.274311 12.274311 0 0 0 -502.13086 324.28711 A 500 500 0 0 1 -513.71484 327.91602 A 24.563425 24.563425 0 0 1 -511.55469 330.77148 A 24.563425 24.563425 0 0 0 -483.01562 345.45898 A 207.10678 207.10678 0 0 0 -485.9082 333.40625 z M -513.71484 327.91602 A 24.563425 24.563425 0 0 0 -519.94531 323.21289 A 12.274311 12.274311 0 0 0 -522.89062 330.79102 A 500 500 0 0 0 -513.71484 327.91602 z M -522.89062 330.79102 A 500 500 0 0 1 -536.83984 335.16211 A 49.245702 49.245702 0 0 1 -534.85742 338.4707 A 49.245702 49.245702 0 0 0 -528.60938 348.16406 A 12.274311 12.274311 0 0 0 -523.1582 334.76367 A 12.274311 12.274311 0 0 1 -522.89062 330.79102 z M -536.83984 335.16211 A 49.245702 49.245702 0 0 0 -549.24414 319.66406 A 24.563425 24.563425 0 0 0 -555.16211 334.14844 A 12.274311 12.274311 0 0 1 -548.91211 338.94531 A 500 500 0 0 0 -536.83984 335.16211 z M -555.16211 334.14844 A 12.274311 12.274311 0 0 0 -570.06836 345.57227 A 500 500 0 0 0 -558.32617 341.89453 A 24.563425 24.563425 0 0 1 -555.16211 334.14844 z M -570.06836 345.57227 A 500 500 0 0 1 -582.47852 349.46094 A 99.456184 99.456184 0 0 0 -582.45508 350.39258 A 99.456184 99.456184 0 0 1 -580.99805 362.37891 A 12.274311 12.274311 0 0 0 -570.44922 347.85156 A 12.274311 12.274311 0 0 1 -570.06836 345.57227 z M -580.99805 362.37891 A 12.274311 12.274311 0 0 1 -594.51953 352.63867 A 12.274311 12.274311 0 0 0 -595.61719 350.88086 A 500 500 0 0 1 -607.79492 352.19727 A 24.563425 24.563425 0 0 1 -606.63477 354.58789 A 24.563425 24.563425 0 0 0 -581.00391 374.46094 A 99.456184 99.456184 0 0 0 -580.99805 362.37891 z M -607.79492 352.19727 A 24.563425 24.563425 0 0 0 -612.01367 344.72266 A 12.274311 12.274311 0 0 0 -618 353.29883 A 500 500 0 0 0 -607.79492 352.19727 z M -618 353.29883 A 500 500 0 0 1 -630.55664 354.65625 A 49.245702 49.245702 0 0 0 -630.99219 357.5918 A 49.245702 49.245702 0 0 1 -631.28711 369.48828 A 12.274311 12.274311 0 0 0 -618.79492 356.24023 A 12.274311 12.274311 0 0 1 -618 353.29883 z M -631.28711 369.48828 A 12.274311 12.274311 0 0 1 -643.2168 358.64453 A 12.274311 12.274311 0 0 0 -644.44922 356.1582 A 500 500 0 0 1 -654.91602 357.28906 A 24.563425 24.563425 0 0 0 -655.4668 359.39844 A 24.563425 24.563425 0 0 1 -680 383.88867 L -680 411.66406 A 49.245702 49.245702 0 0 0 -631.28711 369.48828 z M -680 411.66406 A 49.245702 49.245702 0 0 1 -726.94336 368.93945 A 12.274311 12.274311 0 0 1 -741.20508 356.24023 A 12.274311 12.274311 0 0 0 -741.99805 353.30469 A 500 500 0 0 1 -752.20898 352.20312 A 24.563425 24.563425 0 0 0 -753.36523 354.58789 A 24.563425 24.563425 0 0 1 -776.94336 374.86914 A 99.456184 99.456184 0 0 0 -680 469.25195 L -680 411.66406 z M -776.94336 374.86914 A 99.456184 99.456184 0 0 1 -777.25977 362.02148 A 12.274311 12.274311 0 0 1 -789.55078 347.85156 A 12.274311 12.274311 0 0 0 -789.93164 345.57812 A 500 500 0 0 1 -801.67383 341.90039 A 24.563425 24.563425 0 0 1 -801.49023 345.01562 A 24.563425 24.563425 0 0 0 -776.94336 374.86914 z M -801.67383 341.90039 A 24.563425 24.563425 0 0 0 -802.01562 333.74805 A 12.274311 12.274311 0 0 0 -811.0918 338.95117 A 500 500 0 0 0 -801.67383 341.90039 z M -811.0918 338.95117 A 500 500 0 0 1 -823.29492 335.12891 A 49.245702 49.245702 0 0 0 -825.14258 338.4707 A 49.245702 49.245702 0 0 1 -831.17383 348.3457 A 12.274311 12.274311 0 0 0 -813.35547 341.88867 A 12.274311 12.274311 0 0 1 -811.0918 338.95117 z M -831.17383 348.3457 A 12.274311 12.274311 0 0 1 -836.8418 334.76367 A 12.274311 12.274311 0 0 0 -837.10938 330.80273 A 500 500 0 0 1 -846.29297 327.92773 A 24.563425 24.563425 0 0 0 -848.44531 330.77148 A 24.563425 24.563425 0 0 1 -876.32617 345.73242 A 207.10678 207.10678 0 0 0 -881.83203 372.00781 A 49.245702 49.245702 0 0 0 -831.17383 348.3457 z M -876.32617 345.73242 A 207.10678 207.10678 0 0 1 -873.74414 333.4043 A 12.274311 12.274311 0 0 1 -882.62109 317.10547 A 12.274311 12.274311 0 0 0 -882.52148 313.875 A 500 500 0 0 1 -893.23047 308.04688 A 24.563425 24.563425 0 0 1 -893.77734 311.99414 A 24.563425 24.563425 0 0 0 -876.32617 345.73242 z M -893.23047 308.04688 A 24.563425 24.563425 0 0 0 -892.42578 300.82227 A 12.274311 12.274311 0 0 0 -901.37305 303.61523 A 500 500 0 0 0 -893.23047 308.04688 z M -901.37305 303.61523 A 500 500 0 0 1 -914.41797 296.51562 A 49.245702 49.245702 0 0 1 -915.69922 300.96094 A 49.245702 49.245702 0 0 0 -917.66992 312.27734 A 12.274311 12.274311 0 0 0 -904.80469 306.61133 A 12.274311 12.274311 0 0 1 -901.37305 303.61523 z M -914.41797 296.51562 A 49.245702 49.245702 0 0 0 -910.69336 277.74805 A 24.563425 24.563425 0 0 0 -928.11719 282.06055 A 12.274311 12.274311 0 0 1 -925.83398 290.30273 A 500 500 0 0 0 -914.41797 296.51562 z M -928.11719 282.06055 A 12.274311 12.274311 0 0 0 -944.38477 280.20508 A 500 500 0 0 0 -933.79297 285.9707 A 24.563425 24.563425 0 0 1 -928.11719 282.06055 z M -944.38477 280.20508 A 500 500 0 0 1 -956.0957 273.83203 A 99.456184 99.456184 0 0 0 -957.78516 275.73438 A 99.456184 99.456184 0 0 1 -966.38672 283.48828 A 12.274311 12.274311 0 0 0 -947.49805 282.42773 A 12.274311 12.274311 0 0 1 -944.38477 280.20508 z M -966.38672 283.48828 A 12.274311 12.274311 0 0 1 -967.9043 268.79297 A 12.274311 12.274311 0 0 0 -966.98047 264.79492 A 500 500 0 0 1 -976.2793 257.07422 A 24.563425 24.563425 0 0 1 -977.84961 261.60352 A 24.563425 24.563425 0 0 0 -976.08984 292.23633 A 99.456184 99.456184 0 0 0 -966.38672 283.48828 z M -976.2793 257.07422 A 24.563425 24.563425 0 0 0 -974.27148 250.92969 A 12.274311 12.274311 0 0 0 -982.98047 251.50977 A 500 500 0 0 0 -976.2793 257.07422 z M -982.98047 251.50977 A 500 500 0 0 1 -993.01953 243.17383 A 49.245702 49.245702 0 0 0 -997.19727 246.50586 A 49.245702 49.245702 0 0 1 -1006.8809 252.69141 A 12.274311 12.274311 0 0 0 -987.61523 254.17383 A 12.274311 12.274311 0 0 1 -982.98047 251.50977 z M -1006.8809 252.69141 A 12.274311 12.274311 0 0 1 -1006.5859 238.60352 A 12.274311 12.274311 0 0 0 -1004.8223 233.375 A 500 500 0 0 1 -1011.4043 227.91016 A 24.563425 24.563425 0 0 0 -1015.7793 230.47461 A 24.563425 24.563425 0 0 1 -1052.293 228.59766 A 500 500 0 0 1 -1072.9883 245.21289 A 49.245702 49.245702 0 0 0 -1006.8809 252.69141 z M -1072.9883 245.21289 A 49.245702 49.245702 0 0 1 -1073.0762 186.67578 A 12.274311 12.274311 0 0 1 -1074.1738 167.61523 A 12.274311 12.274311 0 0 0 -1071.4961 162.95508 A 500 500 0 0 1 -1077.0508 156.27148 A 24.563425 24.563425 0 0 0 -1081.6035 157.84961 A 24.563425 24.563425 0 0 1 -1112.6562 155.45898 A 99.456184 99.456184 0 0 0 -1117.6133 281.04102 A 500 500 0 0 0 -1072.9883 245.21289 z M -1112.6562 155.45898 A 99.456184 99.456184 0 0 1 -1103.7832 146.19336 A 12.274311 12.274311 0 0 1 -1102.4277 127.49805 A 12.274311 12.274311 0 0 0 -1100.2031 124.38086 A 500 500 0 0 1 -1105.9707 113.79297 A 24.563425 24.563425 0 0 1 -1108.8652 117.05078 A 24.563425 24.563425 0 0 0 -1112.6562 155.45898 z M -1105.9707 113.79297 A 24.563425 24.563425 0 0 0 -1101.4297 108.58984 A 12.274311 12.274311 0 0 0 -1110.3066 105.83594 A 500 500 0 0 0 -1105.9707 113.79297 z M -1110.3066 105.83594 A 500 500 0 0 1 -1116.5254 94.421875 A 49.245702 49.245702 0 0 0 -1120.9609 95.699219 A 49.245702 49.245702 0 0 1 -1132.2773 97.673828 A 12.274311 12.274311 0 0 0 -1115.043 106.44922 A 12.274311 12.274311 0 0 1 -1110.3066 105.83594 z M -1132.2773 97.673828 A 12.274311 12.274311 0 0 1 -1126.6113 84.804688 A 12.274311 12.274311 0 0 0 -1123.627 81.386719 A 500 500 0 0 1 -1128.0684 73.234375 A 24.563425 24.563425 0 0 0 -1131.9941 73.777344 A 24.563425 24.563425 0 0 1 -1165.5195 56.839844 A 207.10678 207.10678 0 0 1 -1191.5605 62.912109 A 49.245702 49.245702 0 0 0 -1132.2773 97.673828 z M -1191.5605 62.912109 A 49.245702 49.245702 0 0 1 -1168.291 11.242188 A 12.274311 12.274311 0 0 1 -1161.8887 -6.6445312 A 12.274311 12.274311 0 0 0 -1158.9688 -8.8945312 A 500 500 0 0 1 -1161.9199 -18.326172 A 24.563425 24.563425 0 0 0 -1165.0156 -18.509766 A 24.563425 24.563425 0 0 1 -1194.8691 -43.056641 A 99.456184 99.456184 0 0 1 -1289.252 -140 L -1428.3027 -140 A 207.10678 207.10678 0 0 0 -1191.5605 62.912109 z M -1289.252 -140 L -1230.2715 -140 A 49.245702 49.245702 0 0 1 -1188.8594 -186.68555 A 12.274311 12.274311 0 0 1 -1176.2402 -201.20508 A 12.274311 12.274311 0 0 0 -1173.3145 -201.99609 A 500 500 0 0 1 -1172.2129 -212.21289 A 24.563425 24.563425 0 0 0 -1174.5879 -213.36523 A 24.563425 24.563425 0 0 1 -1194.8691 -236.94336 A 99.456184 99.456184 0 0 0 -1289.252 -140 z M -1194.8691 -236.94336 A 99.456184 99.456184 0 0 1 -1182.0215 -237.25977 A 12.274311 12.274311 0 0 1 -1167.8516 -249.55078 A 12.274311 12.274311 0 0 0 -1165.5957 -249.92773 A 500 500 0 0 1 -1161.9199 -261.67383 A 24.563425 24.563425 0 0 1 -1165.0156 -261.49023 A 24.563425 24.563425 0 0 0 -1194.8691 -236.94336 z M -1161.9199 -261.67383 A 24.563425 24.563425 0 0 0 -1153.8516 -262.74414 A 12.274311 12.274311 0 0 0 -1158.9688 -271.10547 A 500 500 0 0 0 -1161.9199 -261.67383 z M -1158.9688 -271.10547 A 500 500 0 0 1 -1155.1504 -283.30664 A 49.245702 49.245702 0 0 0 -1158.4707 -285.14258 A 49.245702 49.245702 0 0 1 -1168.291 -291.24219 A 12.274311 12.274311 0 0 0 -1161.8887 -273.35547 A 12.274311 12.274311 0 0 1 -1158.9688 -271.10547 z M -1168.291 -291.24219 A 12.274311 12.274311 0 0 1 -1154.7637 -296.8418 A 12.274311 12.274311 0 0 0 -1150.832 -297.10742 A 500 500 0 0 1 -1147.9512 -306.31055 A 24.563425 24.563425 0 0 0 -1150.7715 -308.44531 A 24.563425 24.563425 0 0 1 -1165.5195 -336.83984 A 207.10678 207.10678 0 0 0 -1191.5605 -342.91211 A 49.245702 49.245702 0 0 0 -1168.291 -291.24219 z M -1165.5195 -336.83984 A 207.10678 207.10678 0 0 1 -1153.4062 -334.01562 A 12.274311 12.274311 0 0 1 -1137.1055 -342.62109 A 12.274311 12.274311 0 0 0 -1133.9043 -342.52344 A 500 500 0 0 1 -1128.0684 -353.23438 A 24.563425 24.563425 0 0 1 -1131.9941 -353.77734 A 24.563425 24.563425 0 0 0 -1165.5195 -336.83984 z M -1128.0684 -353.23438 A 24.563425 24.563425 0 0 0 -1120.7207 -354.29102 A 12.274311 12.274311 0 0 0 -1123.627 -361.38672 A 500 500 0 0 0 -1128.0684 -353.23438 z M -1123.627 -361.38672 A 500 500 0 0 1 -1116.5254 -374.42188 A 49.245702 49.245702 0 0 1 -1120.9609 -375.69922 A 49.245702 49.245702 0 0 0 -1132.2773 -377.67383 A 12.274311 12.274311 0 0 0 -1126.6113 -364.80469 A 12.274311 12.274311 0 0 1 -1123.627 -361.38672 z M -1116.5254 -374.42188 A 49.245702 49.245702 0 0 0 -1097.4453 -372.18359 A 24.563425 24.563425 0 0 0 -1101.4297 -388.58984 A 12.274311 12.274311 0 0 1 -1110.3066 -385.83594 A 500 500 0 0 0 -1116.5254 -374.42188 z M -1101.4297 -388.58984 A 12.274311 12.274311 0 0 0 -1100.2031 -404.38086 A 500 500 0 0 0 -1105.9707 -393.79297 A 24.563425 24.563425 0 0 1 -1101.4297 -388.58984 z M -1100.2031 -404.38086 A 500 500 0 0 1 -1093.8242 -416.08789 A 99.456184 99.456184 0 0 0 -1095.7344 -417.78516 A 99.456184 99.456184 0 0 1 -1103.7832 -426.19336 A 12.274311 12.274311 0 0 0 -1102.4277 -407.49805 A 12.274311 12.274311 0 0 1 -1100.2031 -404.38086 z M -1103.7832 -426.19336 A 12.274311 12.274311 0 0 1 -1088.793 -427.9043 A 12.274311 12.274311 0 0 0 -1084.7754 -426.97656 A 500 500 0 0 1 -1077.0508 -436.27148 A 24.563425 24.563425 0 0 1 -1081.6035 -437.84961 A 24.563425 24.563425 0 0 0 -1112.6562 -435.45898 A 99.456184 99.456184 0 0 0 -1103.7832 -426.19336 z M -1077.0508 -436.27148 A 24.563425 24.563425 0 0 0 -1070.3359 -436.58008 A 12.274311 12.274311 0 0 0 -1071.4961 -442.95508 A 500 500 0 0 0 -1077.0508 -436.27148 z M -1071.4961 -442.95508 A 500 500 0 0 1 -1063.1523 -452.99414 A 49.245702 49.245702 0 0 0 -1066.5059 -457.19727 A 49.245702 49.245702 0 0 1 -1073.0762 -466.67578 A 12.274311 12.274311 0 0 0 -1074.1738 -447.61523 A 12.274311 12.274311 0 0 1 -1071.4961 -442.95508 z M -1073.0762 -466.67578 A 12.274311 12.274311 0 0 1 -1058.6035 -466.58594 A 12.274311 12.274311 0 0 0 -1053.334 -464.80859 A 500 500 0 0 1 -1047.8867 -471.36328 A 24.563425 24.563425 0 0 0 -1050.4766 -475.7793 A 24.563425 24.563425 0 0 1 -1052.293 -508.59766 A 500 500 0 0 0 -1072.9883 -525.21289 A 49.245702 49.245702 0 0 0 -1073.0762 -466.67578 z M -1052.293 -508.59766 A 500 500 0 0 1 -1042.8711 -501.0332 A 12.274311 12.274311 0 0 1 -1024.7695 -502.12305 A 12.274311 12.274311 0 0 0 -1020.625 -500.25586 A 500 500 0 0 1 -1011.4043 -507.91016 A 24.563425 24.563425 0 0 1 -1015.7793 -510.47461 A 24.563425 24.563425 0 0 0 -1052.293 -508.59766 z M -1011.4043 -507.91016 A 24.563425 24.563425 0 0 0 -1005.207 -506.54883 A 12.274311 12.274311 0 0 0 -1004.8223 -513.375 A 500 500 0 0 0 -1011.4043 -507.91016 z M -1004.8223 -513.375 A 500 500 0 0 1 -993.01953 -523.17383 A 49.245702 49.245702 0 0 1 -997.19727 -526.50586 A 49.245702 49.245702 0 0 0 -1006.8809 -532.69141 A 12.274311 12.274311 0 0 0 -1006.5859 -518.60352 A 12.274311 12.274311 0 0 1 -1004.8223 -513.375 z M -993.01953 -523.17383 A 49.245702 49.245702 0 0 0 -976.79883 -514.31836 A 24.563425 24.563425 0 0 0 -974.27148 -530.92969 A 12.274311 12.274311 0 0 1 -982.98047 -531.50977 A 500 500 0 0 0 -993.01953 -523.17383 z M -974.27148 -530.92969 A 12.274311 12.274311 0 0 0 -966.98047 -544.79492 A 500 500 0 0 0 -976.2793 -537.07422 A 24.563425 24.563425 0 0 1 -974.27148 -530.92969 z M -966.98047 -544.79492 A 500 500 0 0 1 -956.0957 -553.83203 A 99.456184 99.456184 0 0 1 -957.78516 -555.73438 A 99.456184 99.456184 0 0 0 -966.38672 -563.48828 A 12.274311 12.274311 0 0 0 -967.9043 -548.79297 A 12.274311 12.274311 0 0 1 -966.98047 -544.79492 z M -956.0957 -553.83203 A 99.456184 99.456184 0 0 0 -922.54883 -525.44336 A 49.245702 49.245702 0 0 0 -910.69336 -557.74805 A 24.563425 24.563425 0 0 1 -928.11719 -562.06055 A 12.274311 12.274311 0 0 1 -944.38477 -560.20508 A 500 500 0 0 0 -956.0957 -553.83203 z M -910.69336 -557.74805 A 24.563425 24.563425 0 0 0 -892.42578 -580.82227 A 12.274311 12.274311 0 0 1 -901.37305 -583.61523 A 500 500 0 0 0 -914.41797 -576.51562 A 49.245702 49.245702 0 0 1 -910.69336 -557.74805 z M -892.42578 -580.82227 A 12.274311 12.274311 0 0 0 -882.52148 -593.875 A 500 500 0 0 0 -893.23047 -588.04688 A 24.563425 24.563425 0 0 1 -892.42578 -580.82227 z M -882.52148 -593.875 A 500 500 0 0 1 -870.80469 -600.25195 A 207.10678 207.10678 0 0 0 -871.3418 -601.93945 A 207.10678 207.10678 0 0 1 -873.74414 -613.4043 A 12.274311 12.274311 0 0 0 -882.62109 -597.10547 A 12.274311 12.274311 0 0 1 -882.52148 -593.875 z M -873.74414 -613.4043 A 12.274311 12.274311 0 0 1 -859.94727 -606.49609 A 12.274311 12.274311 0 0 0 -857.88086 -604.29883 A 500 500 0 0 1 -846.29297 -607.92773 A 24.563425 24.563425 0 0 1 -848.44531 -610.77148 A 24.563425 24.563425 0 0 0 -876.32617 -625.73242 A 207.10678 207.10678 0 0 0 -873.74414 -613.4043 z M -846.29297 -607.92773 A 24.563425 24.563425 0 0 0 -840.10547 -603.16602 A 12.274311 12.274311 0 0 0 -837.10938 -610.80273 A 500 500 0 0 0 -846.29297 -607.92773 z M -837.10938 -610.80273 A 500 500 0 0 1 -823.29492 -615.12891 A 49.245702 49.245702 0 0 1 -825.14258 -618.4707 A 49.245702 49.245702 0 0 0 -831.17383 -628.3457 A 12.274311 12.274311 0 0 0 -836.8418 -614.76367 A 12.274311 12.274311 0 0 1 -837.10938 -610.80273 z M -823.29492 -615.12891 A 49.245702 49.245702 0 0 0 -811.05078 -599.29102 A 24.563425 24.563425 0 0 0 -802.01562 -613.74805 A 12.274311 12.274311 0 0 1 -811.0918 -618.95117 A 500 500 0 0 0 -823.29492 -615.12891 z M -802.01562 -613.74805 A 12.274311 12.274311 0 0 0 -789.93164 -625.57812 A 500 500 0 0 0 -801.67383 -621.90039 A 24.563425 24.563425 0 0 1 -802.01562 -613.74805 z M -789.93164 -625.57812 A 500 500 0 0 1 -777.49023 -629.47266 A 99.456184 99.456184 0 0 0 -777.54492 -630.39258 A 99.456184 99.456184 0 0 1 -777.25977 -642.02148 A 12.274311 12.274311 0 0 0 -789.55078 -627.85156 A 12.274311 12.274311 0 0 1 -789.93164 -625.57812 z M -777.25977 -642.02148 A 12.274311 12.274311 0 0 1 -765.48047 -632.63867 A 12.274311 12.274311 0 0 0 -764.38672 -630.88867 A 500 500 0 0 1 -752.20898 -632.20312 A 24.563425 24.563425 0 0 1 -753.36523 -634.58789 A 24.563425 24.563425 0 0 0 -776.94336 -654.86914 A 99.456184 99.456184 0 0 0 -777.25977 -642.02148 z M -752.20898 -632.20312 A 24.563425 24.563425 0 0 0 -747.85352 -624.80273 A 12.274311 12.274311 0 0 0 -741.99805 -633.30469 A 500 500 0 0 0 -752.20898 -632.20312 z M -741.99805 -633.30469 A 500 500 0 0 1 -729.33594 -634.67188 A 49.245702 49.245702 0 0 0 -729.00781 -637.5918 A 49.245702 49.245702 0 0 1 -726.94336 -648.93945 A 12.274311 12.274311 0 0 0 -741.20508 -636.24023 A 12.274311 12.274311 0 0 1 -741.99805 -633.30469 z M -726.94336 -648.93945 A 12.274311 12.274311 0 0 1 -716.7832 -638.64453 A 12.274311 12.274311 0 0 0 -715.55078 -636.16016 A 500 500 0 0 1 -705.08203 -637.29102 A 24.563425 24.563425 0 0 0 -704.5332 -639.39844 A 24.563425 24.563425 0 0 1 -680 -663.88867 L -680 -691.66406 A 49.245702 49.245702 0 0 0 -726.94336 -648.93945 z M -680 -663.88867 L -680 -652.42578 A 12.274311 12.274311 0 0 1 -667.72852 -639.84961 A 12.274311 12.274311 0 0 0 -667.30664 -638.73633 A 500 500 0 0 1 -654.97461 -637.50781 A 24.563425 24.563425 0 0 1 -655.4668 -639.39844 A 24.563425 24.563425 0 0 0 -680 -663.88867 z M -654.97461 -637.50781 A 24.563425 24.563425 0 0 0 -650.67188 -629.17969 A 12.274311 12.274311 0 0 0 -644.30664 -636.44531 A 500 500 0 0 0 -654.97461 -637.50781 z M -644.30664 -636.44531 A 500 500 0 0 1 -630.62109 -635.08398 A 49.245702 49.245702 0 0 1 -630.99219 -637.5918 A 49.245702 49.245702 0 0 0 -631.28711 -649.48828 A 12.274311 12.274311 0 0 0 -643.2168 -638.64453 A 12.274311 12.274311 0 0 1 -644.30664 -636.44531 z M -630.62109 -635.08398 A 49.245702 49.245702 0 0 0 -625.24609 -614.51758 A 24.563425 24.563425 0 0 0 -611.92383 -624.66992 A 12.274311 12.274311 0 0 1 -618.14648 -633.8418 A 500 500 0 0 0 -630.62109 -635.08398 z M -611.92383 -624.66992 A 12.274311 12.274311 0 0 0 -595.19531 -631.55664 A 500 500 0 0 0 -607.50977 -632.7832 A 24.563425 24.563425 0 0 1 -611.92383 -624.66992 z M -595.19531 -631.55664 A 500 500 0 0 1 -582.45703 -630.28906 A 99.456184 99.456184 0 0 1 -582.45508 -630.39258 A 99.456184 99.456184 0 0 0 -580.99805 -642.37891 A 12.274311 12.274311 0 0 0 -594.51953 -632.63867 A 12.274311 12.274311 0 0 1 -595.19531 -631.55664 z M -582.45703 -630.28906 A 99.456184 99.456184 0 0 0 -579.14844 -585.07812 A 49.245702 49.245702 0 0 0 -549.13672 -599.52734 A 24.563425 24.563425 0 0 1 -557.41016 -613.83008 A 12.274311 12.274311 0 0 1 -570.23438 -626.56836 A 500 500 0 0 0 -582.45703 -630.28906 z M -549.13672 -599.52734 A 24.563425 24.563425 0 0 0 -519.92969 -603.19727 A 12.274311 12.274311 0 0 1 -522.98438 -612.18359 A 500 500 0 0 0 -536.21289 -616.21094 A 49.245702 49.245702 0 0 1 -549.13672 -599.52734 z M -519.92969 -603.19727 A 12.274311 12.274311 0 0 0 -500.99805 -605.49023 A 500 500 0 0 0 -512.82617 -609.0918 A 24.563425 24.563425 0 0 1 -519.92969 -603.19727 z M -500.99805 -605.49023 A 500 500 0 0 1 -488.70898 -601.74805 A 207.10678 207.10678 0 0 1 -488.6582 -601.93945 A 207.10678 207.10678 0 0 0 -485.9082 -613.40625 A 12.274311 12.274311 0 0 0 -500.05273 -606.49609 A 12.274311 12.274311 0 0 1 -500.99805 -605.49023 z M -488.70898 -601.74805 A 207.10678 207.10678 0 0 0 -501.73242 -514.33398 A 99.456184 99.456184 0 0 0 -436.71289 -526.1582 A 49.245702 49.245702 0 0 1 -447.60547 -557.4707 A 24.563425 24.563425 0 0 1 -465.6543 -580.7168 A 12.274311 12.274311 0 0 1 -477.42188 -595.70312 A 500 500 0 0 0 -488.70898 -601.74805 z M -436.71289 -526.1582 A 49.245702 49.245702 0 0 0 -383.20508 -514.32812 A 24.563425 24.563425 0 0 1 -385.38477 -530.83984 A 12.274311 12.274311 0 0 1 -392.43359 -547.32812 A 500 500 0 0 0 -402.41211 -555.52734 A 99.456184 99.456184 0 0 1 -436.71289 -526.1582 z M -383.20508 -514.32812 A 24.563425 24.563425 0 0 0 -354.84766 -506.66602 A 12.274311 12.274311 0 0 1 -354.29492 -515.99023 A 500 500 0 0 0 -365.05859 -524.83398 A 49.245702 49.245702 0 0 1 -383.20508 -514.32812 z M -354.84766 -506.66602 A 12.274311 12.274311 0 0 0 -336.64453 -501.48633 A 500 500 0 0 0 -346.18359 -509.32422 A 24.563425 24.563425 0 0 1 -354.84766 -506.66602 z M -336.64453 -501.48633 A 500 500 0 0 1 -326.71875 -493.33008 A 500 500 0 0 0 -326.44727 -493.55273 A 500 500 0 0 1 -317.0918 -500.94531 A 12.274311 12.274311 0 0 0 -335.23047 -502.12305 A 12.274311 12.274311 0 0 1 -336.64453 -501.48633 z M -317.0918 -500.94531 A 12.274311 12.274311 0 0 1 -317.87695 -484.76953 A 12.274311 12.274311 0 0 0 -318.51758 -483.34961 A 500 500 0 0 1 -310.67773 -473.81055 A 24.563425 24.563425 0 0 1 -309.52539 -475.7793 A 24.563425 24.563425 0 0 0 -307.57617 -508.4668 A 500 500 0 0 0 -317.0918 -500.94531 z M -310.67773 -473.81055 A 24.563425 24.563425 0 0 0 -313.33398 -465.15039 A 12.274311 12.274311 0 0 0 -304.01562 -465.70312 A 500 500 0 0 0 -310.67773 -473.81055 z M -304.01562 -465.70312 A 500 500 0 0 1 -295.16992 -454.93945 A 49.245702 49.245702 0 0 1 -293.49414 -457.19727 A 49.245702 49.245702 0 0 0 -285.65234 -466.00586 A 12.274311 12.274311 0 0 0 -301.39648 -466.58594 A 12.274311 12.274311 0 0 1 -304.01562 -465.70312 z M -295.16992 -454.93945 A 49.245702 49.245702 0 0 0 -305.67383 -436.79492 A 24.563425 24.563425 0 0 0 -289.16016 -434.61523 A 12.274311 12.274311 0 0 1 -287.19336 -445.23438 A 500 500 0 0 0 -295.16992 -454.93945 z M -289.16016 -434.61523 A 12.274311 12.274311 0 0 0 -272.67383 -427.56445 A 500 500 0 0 0 -280.51953 -437.11328 A 24.563425 24.563425 0 0 1 -289.16016 -434.61523 z M -272.67383 -427.56445 A 500 500 0 0 1 -264.47461 -417.58789 A 99.456184 99.456184 0 0 1 -264.26562 -417.78516 A 99.456184 99.456184 0 0 0 -255.58984 -425.7793 A 12.274311 12.274311 0 0 0 -271.20703 -427.9043 A 12.274311 12.274311 0 0 1 -272.67383 -427.56445 z M -264.47461 -417.58789 A 99.456184 99.456184 0 0 0 -293.8418 -383.28711 A 49.245702 49.245702 0 0 0 -262.5293 -372.39453 A 24.563425 24.563425 0 0 1 -258.24805 -388.34961 A 12.274311 12.274311 0 0 1 -258.42773 -406.29883 A 500 500 0 0 0 -264.47461 -417.58789 z M -262.5293 -372.39453 A 24.563425 24.563425 0 0 0 -239.2832 -354.3457 A 12.274311 12.274311 0 0 1 -235.13281 -362.80859 A 500 500 0 0 0 -241.68164 -375.03711 A 49.245702 49.245702 0 0 1 -262.5293 -372.39453 z M -239.2832 -354.3457 A 12.274311 12.274311 0 0 0 -224.29492 -342.57812 A 500 500 0 0 0 -230.13672 -353.48242 A 24.563425 24.563425 0 0 1 -239.2832 -354.3457 z M -224.29492 -342.57812 A 500 500 0 0 1 -218.25 -331.29102 A 207.10678 207.10678 0 0 0 -218.06055 -331.3418 A 207.10678 207.10678 0 0 1 -206.5957 -333.74414 A 12.274311 12.274311 0 0 0 -222.89453 -342.62109 A 12.274311 12.274311 0 0 1 -224.29492 -342.57812 z M -206.5957 -333.74414 A 12.274311 12.274311 0 0 1 -213.50391 -319.94727 A 12.274311 12.274311 0 0 0 -214.50977 -319.00195 A 500 500 0 0 1 -210.9082 -307.17383 A 24.563425 24.563425 0 0 1 -209.22852 -308.44531 A 24.563425 24.563425 0 0 0 -194.26758 -336.32617 A 207.10678 207.10678 0 0 0 -206.5957 -333.74414 z M -210.9082 -307.17383 A 24.563425 24.563425 0 0 0 -216.80273 -300.07031 A 12.274311 12.274311 0 0 0 -207.81641 -297.01562 A 500 500 0 0 0 -210.9082 -307.17383 z M -207.81641 -297.01562 A 500 500 0 0 1 -203.78906 -283.78906 A 49.245702 49.245702 0 0 1 -201.5293 -285.14258 A 49.245702 49.245702 0 0 0 -190.99805 -290.38477 A 12.274311 12.274311 0 0 0 -205.23633 -296.8418 A 12.274311 12.274311 0 0 1 -207.81641 -297.01562 z M -203.78906 -283.78906 A 49.245702 49.245702 0 0 0 -220.47266 -270.86523 A 24.563425 24.563425 0 0 0 -206.16992 -262.58984 A 12.274311 12.274311 0 0 1 -200.13672 -271.79492 A 500 500 0 0 0 -203.78906 -283.78906 z M -206.16992 -262.58984 A 12.274311 12.274311 0 0 0 -193.42969 -249.76562 A 500 500 0 0 0 -197.03711 -261.61133 A 24.563425 24.563425 0 0 1 -206.16992 -262.58984 z M -193.42969 -249.76562 A 500 500 0 0 1 -189.70898 -237.54297 A 99.456184 99.456184 0 0 0 -189.60742 -237.54492 A 99.456184 99.456184 0 0 1 -177.97852 -237.25977 A 12.274311 12.274311 0 0 0 -192.14844 -249.55078 A 12.274311 12.274311 0 0 1 -193.42969 -249.76562 z M -177.97852 -237.25977 A 12.274311 12.274311 0 0 1 -187.36133 -225.48047 A 12.274311 12.274311 0 0 0 -188.44141 -224.80664 A 500 500 0 0 1 -187.21484 -212.49023 A 24.563425 24.563425 0 0 1 -185.41211 -213.36523 A 24.563425 24.563425 0 0 0 -165.13086 -236.94336 A 99.456184 99.456184 0 0 0 -177.97852 -237.25977 z M -187.21484 -212.49023 A 24.563425 24.563425 0 0 0 -195.33008 -208.07617 A 12.274311 12.274311 0 0 0 -186.15625 -201.85156 A 500 500 0 0 0 -187.21484 -212.49023 z M -186.15625 -201.85156 A 500 500 0 0 1 -184.91406 -189.37891 A 49.245702 49.245702 0 0 0 -182.4082 -189.00781 A 49.245702 49.245702 0 0 1 -171.06055 -186.94336 A 12.274311 12.274311 0 0 0 -183.75977 -201.20508 A 12.274311 12.274311 0 0 1 -186.15625 -201.85156 z M -171.06055 -186.94336 A 12.274311 12.274311 0 0 1 -181.35547 -176.7832 A 12.274311 12.274311 0 0 0 -183.55273 -175.69336 A 500 500 0 0 1 -182.49023 -165.02539 A 24.563425 24.563425 0 0 0 -180.60156 -164.5332 A 24.563425 24.563425 0 0 1 -156.11133 -140 L -128.33594 -140 A 49.245702 49.245702 0 0 0 -171.06055 -186.94336 z M -156.11133 -140 L -167.57422 -140 A 12.274311 12.274311 0 0 1 -180.15039 -127.72852 A 12.274311 12.274311 0 0 0 -181.37305 -127.26562 A 500 500 0 0 1 -182.70508 -114.91797 A 24.563425 24.563425 0 0 1 -180.60156 -115.4668 A 24.563425 24.563425 0 0 0 -156.11133 -140 z M -182.70508 -114.91797 A 24.563425 24.563425 0 0 0 -190.81055 -110.64453 A 12.274311 12.274311 0 0 0 -183.83594 -104.44727 A 500 500 0 0 0 -182.70508 -114.91797 z M -183.83594 -104.44727 A 500 500 0 0 1 -185.33398 -90.558594 A 49.245702 49.245702 0 0 1 -182.4082 -90.992188 A 49.245702 49.245702 0 0 0 -171.06055 -93.056641 A 12.274311 12.274311 0 0 0 -181.35547 -103.2168 A 12.274311 12.274311 0 0 1 -183.83594 -104.44727 z M -185.33398 -90.558594 A 49.245702 49.245702 0 0 0 -205.43359 -85.15625 A 24.563425 24.563425 0 0 0 -195.27734 -72.011719 A 12.274311 12.274311 0 0 1 -186.68945 -78.003906 A 500 500 0 0 0 -185.33398 -90.558594 z M -195.27734 -72.011719 A 12.274311 12.274311 0 0 0 -189.10547 -55.609375 A 500 500 0 0 0 -187.79102 -67.789062 A 24.563425 24.563425 0 0 1 -195.27734 -72.011719 z M -189.10547 -55.609375 A 500 500 0 0 1 -190.52148 -42.476562 A 99.456184 99.456184 0 0 1 -189.60742 -42.455078 A 99.456184 99.456184 0 0 0 -177.97852 -42.740234 A 12.274311 12.274311 0 0 0 -187.36133 -54.519531 A 12.274311 12.274311 0 0 1 -189.10547 -55.609375 z M -190.52148 -42.476562 A 99.456184 99.456184 0 0 0 -234.92188 -39.130859 A 49.245702 49.245702 0 0 0 -220.33984 -9.2402344 A 24.563425 24.563425 0 0 1 -205.84961 -15.15625 A 12.274311 12.274311 0 0 1 -194.40625 -30.072266 A 500 500 0 0 0 -190.52148 -42.476562 z M -220.33984 -9.2402344 A 24.563425 24.563425 0 0 0 -216.78711 20.052734 A 12.274311 12.274311 0 0 1 -209.17969 17.107422 A 500 500 0 0 0 -204.81641 3.1738281 A 49.245702 49.245702 0 0 1 -220.33984 -9.2402344 z M -216.78711 20.052734 A 12.274311 12.274311 0 0 0 -215.6875 37.894531 A 500 500 0 0 0 -212.05859 26.302734 A 24.563425 24.563425 0 0 1 -216.78711 20.052734 z M -215.6875 37.894531 A 500 500 0 0 1 -219.75586 50.886719 A 207.10678 207.10678 0 0 1 -218.06055 51.341797 A 207.10678 207.10678 0 0 0 -206.5957 53.744141 A 12.274311 12.274311 0 0 0 -213.50391 39.947266 A 12.274311 12.274311 0 0 1 -215.6875 37.894531 z M -219.75586 50.886719 A 207.10678 207.10678 0 0 0 -305.69336 38.394531 A 99.456184 99.456184 0 0 0 -293.82617 103.27344 A 49.245702 49.245702 0 0 1 -262.5 92.650391 A 24.563425 24.563425 0 0 1 -239.2832 74.357422 A 12.274311 12.274311 0 0 1 -226.0957 62.521484 A 500 500 0 0 0 -219.75586 50.886719 z M -293.82617 103.27344 A 49.245702 49.245702 0 0 0 -305.18555 156.6582 A 24.563425 24.563425 0 0 1 -289.61328 156.38086 A 12.274311 12.274311 0 0 1 -275.24609 146.9707 A 500 500 0 0 0 -266.13672 136.00391 A 99.456184 99.456184 0 0 1 -293.82617 103.27344 z M -305.18555 156.6582 A 24.563425 24.563425 0 0 0 -313.40039 185.18359 A 12.274311 12.274311 0 0 1 -306.67578 184.80664 A 500 500 0 0 0 -296.73047 172.83398 A 49.245702 49.245702 0 0 1 -305.18555 156.6582 z M -313.40039 185.18359 A 12.274311 12.274311 0 0 0 -319.76953 200.57031 A 500 500 0 0 0 -312.11719 191.35742 A 24.563425 24.563425 0 0 1 -313.40039 185.18359 z M -319.76953 200.57031 A 500 500 0 0 1 -328.88867 211.54883 A 500 500 0 0 1 -326.44727 213.55273 A 500 500 0 0 0 -317.0918 220.94531 A 12.274311 12.274311 0 0 0 -317.87695 204.76953 A 12.274311 12.274311 0 0 1 -319.76953 200.57031 z M -328.88867 211.54883 A 500 500 0 0 0 -463.06445 119.09961 A 207.10678 207.10678 0 0 0 -501.70508 234.32812 A 99.456184 99.456184 0 0 1 -436.72461 246.17383 A 49.245702 49.245702 0 0 1 -383.33984 234.81055 A 24.563425 24.563425 0 0 1 -354.81836 226.60352 A 12.274311 12.274311 0 0 1 -339.37891 220.25391 A 500 500 0 0 0 -328.88867 211.54883 z M -501.70508 234.32812 A 99.456184 99.456184 0 0 0 -579.12695 305.07812 A 49.245702 49.245702 0 0 1 -549.24414 319.66406 A 24.563425 24.563425 0 0 1 -519.94531 323.21289 A 12.274311 12.274311 0 0 1 -502.13086 324.28711 A 500 500 0 0 0 -489.12109 320.21094 A 207.10678 207.10678 0 0 1 -501.70508 234.32812 z M -579.12695 305.07812 A 49.245702 49.245702 0 0 0 -625.1543 334.56836 A 24.563425 24.563425 0 0 1 -612.01367 344.72266 A 12.274311 12.274311 0 0 1 -595.61719 350.88086 A 500 500 0 0 0 -582.47852 349.46094 A 99.456184 99.456184 0 0 1 -579.12695 305.07812 z M -625.1543 334.56836 A 24.563425 24.563425 0 0 0 -650.64453 349.18945 A 12.274311 12.274311 0 0 1 -644.44922 356.1582 A 500 500 0 0 0 -630.55664 354.65625 A 49.245702 49.245702 0 0 1 -625.1543 334.56836 z M -650.64453 349.18945 A 12.274311 12.274311 0 0 0 -667.26367 358.62305 A 500 500 0 0 0 -654.91602 357.28906 A 24.563425 24.563425 0 0 1 -650.64453 349.18945 z M -667.26367 358.62305 A 500 500 0 0 1 -680 360 L -680 372.42578 A 12.274311 12.274311 0 0 0 -667.72852 359.84961 A 12.274311 12.274311 0 0 1 -667.26367 358.62305 z M -680 372.42578 A 12.274311 12.274311 0 0 1 -692.27148 359.84961 A 12.274311 12.274311 0 0 0 -692.73438 358.625 A 500 500 0 0 1 -705.08203 357.29102 A 24.563425 24.563425 0 0 1 -704.5332 359.39844 A 24.563425 24.563425 0 0 0 -680 383.88867 L -680 372.42578 z M -705.08203 357.29102 A 24.563425 24.563425 0 0 0 -709.19922 349.13477 A 12.274311 12.274311 0 0 0 -715.55078 356.16016 A 500 500 0 0 0 -705.08203 357.29102 z M -715.55078 356.16016 A 500 500 0 0 1 -729.33594 354.67188 A 49.245702 49.245702 0 0 1 -729.00781 357.5918 A 49.245702 49.245702 0 0 0 -726.94336 368.93945 A 12.274311 12.274311 0 0 0 -716.7832 358.64453 A 12.274311 12.274311 0 0 1 -715.55078 356.16016 z M -729.33594 354.67188 A 49.245702 49.245702 0 0 0 -733.24023 334.23242 A 24.563425 24.563425 0 0 0 -747.85352 344.80273 A 12.274311 12.274311 0 0 1 -741.99805 353.30469 A 500 500 0 0 0 -729.33594 354.67188 z M -747.85352 344.80273 A 12.274311 12.274311 0 0 0 -764.38672 350.88867 A 500 500 0 0 0 -752.20898 352.20312 A 24.563425 24.563425 0 0 1 -747.85352 344.80273 z M -764.38672 350.88867 A 500 500 0 0 1 -777.49023 349.47266 A 99.456184 99.456184 0 0 1 -777.54492 350.39258 A 99.456184 99.456184 0 0 0 -777.25977 362.02148 A 12.274311 12.274311 0 0 0 -765.48047 352.63867 A 12.274311 12.274311 0 0 1 -764.38672 350.88867 z M -777.49023 349.47266 A 99.456184 99.456184 0 0 0 -779.90625 303.79883 A 49.245702 49.245702 0 0 0 -811.05078 319.29102 A 24.563425 24.563425 0 0 1 -802.01562 333.74805 A 12.274311 12.274311 0 0 1 -789.93164 345.57812 A 500 500 0 0 0 -777.49023 349.47266 z M -811.05078 319.29102 A 24.563425 24.563425 0 0 0 -840.10547 323.16602 A 12.274311 12.274311 0 0 1 -837.10938 330.80273 A 500 500 0 0 0 -823.29492 335.12891 A 49.245702 49.245702 0 0 1 -811.05078 319.29102 z M -840.10547 323.16602 A 12.274311 12.274311 0 0 0 -857.88086 324.29883 A 500 500 0 0 0 -846.29297 327.92773 A 24.563425 24.563425 0 0 1 -840.10547 323.16602 z M -857.88086 324.29883 A 500 500 0 0 1 -870.80469 320.25195 A 207.10678 207.10678 0 0 1 -871.3418 321.93945 A 207.10678 207.10678 0 0 0 -873.74414 333.4043 A 12.274311 12.274311 0 0 0 -859.94727 326.49609 A 12.274311 12.274311 0 0 1 -857.88086 324.29883 z M -870.80469 320.25195 A 207.10678 207.10678 0 0 0 -856.11523 234.12305 A 99.456184 99.456184 0 0 0 -922.54883 245.44336 A 49.245702 49.245702 0 0 1 -910.69336 277.74805 A 24.563425 24.563425 0 0 1 -892.42578 300.82227 A 12.274311 12.274311 0 0 1 -882.52148 313.875 A 500 500 0 0 0 -870.80469 320.25195 z M -922.54883 245.44336 A 49.245702 49.245702 0 0 0 -976.79883 234.31836 A 24.563425 24.563425 0 0 1 -974.27148 250.92969 A 12.274311 12.274311 0 0 1 -966.98047 264.79492 A 500 500 0 0 0 -956.0957 273.83203 A 99.456184 99.456184 0 0 1 -922.54883 245.44336 z M -976.79883 234.31836 A 24.563425 24.563425 0 0 0 -1005.207 226.54883 A 12.274311 12.274311 0 0 1 -1004.8223 233.375 A 500 500 0 0 0 -993.01953 243.17383 A 49.245702 49.245702 0 0 1 -976.79883 234.31836 z M -1005.207 226.54883 A 12.274311 12.274311 0 0 0 -1020.625 220.25586 A 500 500 0 0 0 -1011.4043 227.91016 A 24.563425 24.563425 0 0 1 -1005.207 226.54883 z M -1020.625 220.25586 A 500 500 0 0 1 -1031.1113 211.54883 A 500 500 0 0 0 -1033.5527 213.55273 A 500 500 0 0 1 -1042.8711 221.0332 A 12.274311 12.274311 0 0 0 -1024.7695 222.12305 A 12.274311 12.274311 0 0 1 -1020.625 220.25586 z M -1042.8711 221.0332 A 12.274311 12.274311 0 0 1 -1042.123 204.76953 A 12.274311 12.274311 0 0 0 -1040.2324 200.57422 A 500 500 0 0 1 -1047.8867 191.36328 A 24.563425 24.563425 0 0 1 -1050.4766 195.7793 A 24.563425 24.563425 0 0 0 -1052.293 228.59766 A 500 500 0 0 0 -1042.8711 221.0332 z M -1047.8867 191.36328 A 24.563425 24.563425 0 0 0 -1045.1406 185.88477 A 12.274311 12.274311 0 0 0 -1053.334 184.80859 A 500 500 0 0 0 -1047.8867 191.36328 z M -1053.334 184.80859 A 500 500 0 0 1 -1063.1523 172.99414 A 49.245702 49.245702 0 0 1 -1066.5059 177.19727 A 49.245702 49.245702 0 0 0 -1073.0762 186.67578 A 12.274311 12.274311 0 0 0 -1058.6035 186.58594 A 12.274311 12.274311 0 0 1 -1053.334 184.80859 z M -1063.1523 172.99414 A 49.245702 49.245702 0 0 0 -1053.2461 157.36328 A 24.563425 24.563425 0 0 0 -1070.3359 156.58008 A 12.274311 12.274311 0 0 1 -1071.4961 162.95508 A 500 500 0 0 0 -1063.1523 172.99414 z M -1070.3359 156.58008 A 12.274311 12.274311 0 0 0 -1084.7754 146.97656 A 500 500 0 0 0 -1077.0508 156.27148 A 24.563425 24.563425 0 0 1 -1070.3359 156.58008 z M -1084.7754 146.97656 A 500 500 0 0 1 -1093.8242 136.08789 A 99.456184 99.456184 0 0 1 -1095.7344 137.78516 A 99.456184 99.456184 0 0 0 -1103.7832 146.19336 A 12.274311 12.274311 0 0 0 -1088.793 147.9043 A 12.274311 12.274311 0 0 1 -1084.7754 146.97656 z M -1093.8242 136.08789 A 99.456184 99.456184 0 0 0 -1064.5879 103.08594 A 49.245702 49.245702 0 0 0 -1097.4453 92.183594 A 24.563425 24.563425 0 0 1 -1101.4297 108.58984 A 12.274311 12.274311 0 0 1 -1100.2031 124.38086 A 500 500 0 0 0 -1093.8242 136.08789 z M -1097.4453 92.183594 A 24.563425 24.563425 0 0 0 -1120.7207 74.291016 A 12.274311 12.274311 0 0 1 -1123.627 81.386719 A 500 500 0 0 0 -1116.5254 94.421875 A 49.245702 49.245702 0 0 1 -1097.4453 92.183594 z M -1120.7207 74.291016 A 12.274311 12.274311 0 0 0 -1133.9043 62.523438 A 500 500 0 0 0 -1128.0684 73.234375 A 24.563425 24.563425 0 0 1 -1120.7207 74.291016 z M -1133.9043 62.523438 A 500 500 0 0 1 -1140.2832 50.814453 A 207.10678 207.10678 0 0 0 -1141.9395 51.341797 A 207.10678 207.10678 0 0 1 -1153.4062 54.015625 A 12.274311 12.274311 0 0 0 -1137.1055 62.621094 A 12.274311 12.274311 0 0 1 -1133.9043 62.523438 z M -1153.4062 54.015625 A 12.274311 12.274311 0 0 1 -1146.4961 39.947266 A 12.274311 12.274311 0 0 0 -1144.3223 37.904297 A 500 500 0 0 1 -1147.9512 26.310547 A 24.563425 24.563425 0 0 1 -1150.7715 28.445312 A 24.563425 24.563425 0 0 0 -1165.5195 56.839844 A 207.10678 207.10678 0 0 0 -1153.4062 54.015625 z M -1147.9512 26.310547 A 24.563425 24.563425 0 0 0 -1141.8711 21.552734 A 12.274311 12.274311 0 0 0 -1150.832 17.107422 A 500 500 0 0 0 -1147.9512 26.310547 z M -1150.832 17.107422 A 500 500 0 0 1 -1155.1504 3.3066406 A 49.245702 49.245702 0 0 1 -1158.4707 5.1425781 A 49.245702 49.245702 0 0 0 -1168.291 11.242188 A 12.274311 12.274311 0 0 0 -1154.7637 16.841797 A 12.274311 12.274311 0 0 1 -1150.832 17.107422 z M -1155.1504 3.3066406 A 49.245702 49.245702 0 0 0 -1139.2578 -8.9238281 A 24.563425 24.563425 0 0 0 -1153.8516 -17.255859 A 12.274311 12.274311 0 0 1 -1158.9688 -8.8945312 A 500 500 0 0 0 -1155.1504 3.3066406 z M -1153.8516 -17.255859 A 12.274311 12.274311 0 0 0 -1165.5957 -30.072266 A 500 500 0 0 0 -1161.9199 -18.326172 A 24.563425 24.563425 0 0 1 -1153.8516 -17.255859 z M -1165.5957 -30.072266 A 500 500 0 0 1 -1169.4883 -42.507812 A 99.456184 99.456184 0 0 0 -1170.3926 -42.455078 A 99.456184 99.456184 0 0 1 -1182.0215 -42.740234 A 12.274311 12.274311 0 0 0 -1167.8516 -30.449219 A 12.274311 12.274311 0 0 1 -1165.5957 -30.072266 z M -1182.0215 -42.740234 A 12.274311 12.274311 0 0 1 -1172.6387 -54.519531 A 12.274311 12.274311 0 0 0 -1170.9004 -55.605469 A 500 500 0 0 1 -1172.2129 -67.787109 A 24.563425 24.563425 0 0 1 -1174.5879 -66.634766 A 24.563425 24.563425 0 0 0 -1194.8691 -43.056641 A 99.456184 99.456184 0 0 0 -1182.0215 -42.740234 z M -1172.2129 -67.787109 A 24.563425 24.563425 0 0 0 -1164.791 -72.128906 A 12.274311 12.274311 0 0 0 -1173.3145 -78.003906 A 500 500 0 0 0 -1172.2129 -67.787109 z M -1173.3145 -78.003906 A 500 500 0 0 1 -1174.6797 -90.664062 A 49.245702 49.245702 0 0 0 -1177.5918 -90.992188 A 49.245702 49.245702 0 0 1 -1188.8594 -93.314453 A 12.274311 12.274311 0 0 0 -1176.2402 -78.794922 A 12.274311 12.274311 0 0 1 -1173.3145 -78.003906 z M -1188.8594 -93.314453 A 12.274311 12.274311 0 0 1 -1178.6445 -103.2168 A 12.274311 12.274311 0 0 0 -1176.166 -104.44531 A 500 500 0 0 1 -1177.2949 -114.91797 A 24.563425 24.563425 0 0 0 -1179.3984 -115.4668 A 24.563425 24.563425 0 0 1 -1203.8887 -140 L -1230.2715 -140 A 49.245702 49.245702 0 0 0 -1188.8594 -93.314453 z M -1203.8887 -140 L -1192.4258 -140 A 12.274311 12.274311 0 0 1 -1179.8496 -152.27148 A 12.274311 12.274311 0 0 0 -1178.627 -152.73438 A 500 500 0 0 1 -1177.2949 -165.08203 A 24.563425 24.563425 0 0 1 -1179.3984 -164.5332 A 24.563425 24.563425 0 0 0 -1203.8887 -140 z M -1177.2949 -165.08203 A 24.563425 24.563425 0 0 0 -1168.4844 -167.34375 A 12.274311 12.274311 0 0 0 -1176.166 -175.55469 A 500 500 0 0 0 -1177.2949 -165.08203 z M -1176.166 -175.55469 A 500 500 0 0 1 -1174.6797 -189.33594 A 49.245702 49.245702 0 0 1 -1177.5918 -189.00781 A 49.245702 49.245702 0 0 0 -1188.8594 -186.68555 A 12.274311 12.274311 0 0 0 -1178.6445 -176.7832 A 12.274311 12.274311 0 0 1 -1176.166 -175.55469 z M -1174.6797 -189.33594 A 49.245702 49.245702 0 0 0 -1154.2227 -193.34961 A 24.563425 24.563425 0 0 0 -1164.791 -207.87109 A 12.274311 12.274311 0 0 1 -1173.3145 -201.99609 A 500 500 0 0 0 -1174.6797 -189.33594 z M -1164.791 -207.87109 A 12.274311 12.274311 0 0 0 -1170.9004 -224.39453 A 500 500 0 0 0 -1172.2129 -212.21289 A 24.563425 24.563425 0 0 1 -1164.791 -207.87109 z M -1170.9004 -224.39453 A 500 500 0 0 1 -1169.4883 -237.49219 A 99.456184 99.456184 0 0 1 -1170.3926 -237.54492 A 99.456184 99.456184 0 0 0 -1182.0215 -237.25977 A 12.274311 12.274311 0 0 0 -1172.6387 -225.48047 A 12.274311 12.274311 0 0 1 -1170.9004 -224.39453 z M -1169.4883 -237.49219 A 99.456184 99.456184 0 0 0 -1124.0293 -240.91406 A 49.245702 49.245702 0 0 0 -1139.2578 -271.07617 A 24.563425 24.563425 0 0 1 -1153.8516 -262.74414 A 12.274311 12.274311 0 0 1 -1165.5957 -249.92773 A 500 500 0 0 0 -1169.4883 -237.49219 z M -1139.2578 -271.07617 A 24.563425 24.563425 0 0 0 -1141.8711 -301.55273 A 12.274311 12.274311 0 0 1 -1150.832 -297.10742 A 500 500 0 0 0 -1155.1504 -283.30664 A 49.245702 49.245702 0 0 1 -1139.2578 -271.07617 z M -1141.8711 -301.55273 A 12.274311 12.274311 0 0 0 -1144.3223 -317.9043 A 500 500 0 0 0 -1147.9512 -306.31055 A 24.563425 24.563425 0 0 1 -1141.8711 -301.55273 z M -1144.3223 -317.9043 A 500 500 0 0 1 -1140.2832 -330.81445 A 207.10678 207.10678 0 0 1 -1141.9395 -331.3418 A 207.10678 207.10678 0 0 0 -1153.4062 -334.01562 A 12.274311 12.274311 0 0 0 -1146.4961 -319.94727 A 12.274311 12.274311 0 0 1 -1144.3223 -317.9043 z M -1140.2832 -330.81445 A 207.10678 207.10678 0 0 0 -1053.5234 -318.41406 A 99.456184 99.456184 0 0 0 -1064.5879 -383.08594 A 49.245702 49.245702 0 0 1 -1097.4453 -372.18359 A 24.563425 24.563425 0 0 1 -1120.7207 -354.29102 A 12.274311 12.274311 0 0 1 -1133.9043 -342.52344 A 500 500 0 0 0 -1140.2832 -330.81445 z M -1064.5879 -383.08594 A 49.245702 49.245702 0 0 0 -1053.2461 -437.36328 A 24.563425 24.563425 0 0 1 -1070.3359 -436.58008 A 12.274311 12.274311 0 0 1 -1084.7754 -426.97656 A 500 500 0 0 0 -1093.8242 -416.08789 A 99.456184 99.456184 0 0 1 -1064.5879 -383.08594 z M -1053.2461 -437.36328 A 24.563425 24.563425 0 0 0 -1045.1406 -465.88477 A 12.274311 12.274311 0 0 1 -1053.334 -464.80859 A 500 500 0 0 0 -1063.1523 -452.99414 A 49.245702 49.245702 0 0 1 -1053.2461 -437.36328 z M -1045.1406 -465.88477 A 12.274311 12.274311 0 0 0 -1040.2324 -480.57422 A 500 500 0 0 0 -1047.8867 -471.36328 A 24.563425 24.563425 0 0 1 -1045.1406 -465.88477 z M -1040.2324 -480.57422 A 500 500 0 0 1 -1031.1113 -491.54883 A 500 500 0 0 1 -1033.5527 -493.55273 A 500 500 0 0 0 -1042.8711 -501.0332 A 12.274311 12.274311 0 0 0 -1042.123 -484.76953 A 12.274311 12.274311 0 0 1 -1040.2324 -480.57422 z M -1031.1113 -491.54883 A 500 500 0 0 0 -896.93164 -399.09766 A 207.10678 207.10678 0 0 0 -856.11523 -514.12305 A 99.456184 99.456184 0 0 1 -922.54883 -525.44336 A 49.245702 49.245702 0 0 1 -976.79883 -514.31836 A 24.563425 24.563425 0 0 1 -1005.207 -506.54883 A 12.274311 12.274311 0 0 1 -1020.625 -500.25586 A 500 500 0 0 0 -1031.1113 -491.54883 z M -856.11523 -514.12305 A 99.456184 99.456184 0 0 0 -779.90625 -583.79883 A 49.245702 49.245702 0 0 1 -811.05078 -599.29102 A 24.563425 24.563425 0 0 1 -840.10547 -603.16602 A 12.274311 12.274311 0 0 1 -857.88086 -604.29883 A 500 500 0 0 0 -870.80469 -600.25195 A 207.10678 207.10678 0 0 1 -856.11523 -514.12305 z M -779.90625 -583.79883 A 49.245702 49.245702 0 0 0 -733.24023 -614.23242 A 24.563425 24.563425 0 0 1 -747.85352 -624.80273 A 12.274311 12.274311 0 0 1 -764.38672 -630.88867 A 500 500 0 0 0 -777.49023 -629.47266 A 99.456184 99.456184 0 0 1 -779.90625 -583.79883 z M -733.24023 -614.23242 A 24.563425 24.563425 0 0 0 -709.19922 -629.13477 A 12.274311 12.274311 0 0 1 -715.55078 -636.16016 A 500 500 0 0 0 -729.33594 -634.67188 A 49.245702 49.245702 0 0 1 -733.24023 -614.23242 z M -709.19922 -629.13477 A 12.274311 12.274311 0 0 0 -692.73438 -638.625 A 500 500 0 0 0 -705.08203 -637.29102 A 24.563425 24.563425 0 0 1 -709.19922 -629.13477 z M -692.73438 -638.625 A 500 500 0 0 1 -680 -640 L -680 -652.42578 A 12.274311 12.274311 0 0 0 -692.27148 -639.84961 A 12.274311 12.274311 0 0 1 -692.73438 -638.625 z M -680 -640 L -680 -347.10742 A 500 500 0 0 0 -462.9668 -398.92969 A 207.10678 207.10678 0 0 1 -501.73242 -514.33398 A 99.456184 99.456184 0 0 1 -579.14844 -585.07812 A 49.245702 49.245702 0 0 1 -625.24609 -614.51758 A 24.563425 24.563425 0 0 1 -650.67188 -629.17969 A 12.274311 12.274311 0 0 1 -667.30664 -638.73633 A 500 500 0 0 0 -680 -640 z M -462.9668 -398.92969 A 207.10678 207.10678 0 0 0 -305.67969 -318.32617 A 99.456184 99.456184 0 0 1 -293.8418 -383.28711 A 49.245702 49.245702 0 0 1 -305.67383 -436.79492 A 24.563425 24.563425 0 0 1 -313.33398 -465.15039 A 12.274311 12.274311 0 0 1 -318.51758 -483.34961 A 500 500 0 0 0 -326.71875 -493.33008 A 500 500 0 0 1 -462.9668 -398.92969 z M -305.67969 -318.32617 A 99.456184 99.456184 0 0 0 -234.92188 -240.84961 A 49.245702 49.245702 0 0 1 -220.47266 -270.86523 A 24.563425 24.563425 0 0 1 -216.80273 -300.07031 A 12.274311 12.274311 0 0 1 -214.50977 -319.00195 A 500 500 0 0 0 -218.25 -331.29102 A 207.10678 207.10678 0 0 1 -305.67969 -318.32617 z M -234.92188 -240.84961 A 49.245702 49.245702 0 0 0 -205.48242 -194.75391 A 24.563425 24.563425 0 0 1 -195.33008 -208.07617 A 12.274311 12.274311 0 0 1 -188.44141 -224.80664 A 500 500 0 0 0 -189.70898 -237.54297 A 99.456184 99.456184 0 0 1 -234.92188 -240.84961 z M -205.48242 -194.75391 A 24.563425 24.563425 0 0 0 -190.81836 -169.33008 A 12.274311 12.274311 0 0 1 -183.55273 -175.69336 A 500 500 0 0 0 -184.91406 -189.37891 A 49.245702 49.245702 0 0 1 -205.48242 -194.75391 z M -190.81836 -169.33008 A 12.274311 12.274311 0 0 0 -181.26367 -152.69336 A 500 500 0 0 0 -182.49023 -165.02539 A 24.563425 24.563425 0 0 1 -190.81836 -169.33008 z M -181.26367 -152.69336 A 500 500 0 0 1 -180 -140 L -167.57422 -140 A 12.274311 12.274311 0 0 0 -180.15039 -152.27148 A 12.274311 12.274311 0 0 1 -181.26367 -152.69336 z M -180 -140 L -680 -140 L -680 67.107422 A 500 500 0 0 1 -463.06445 119.09961 A 207.10678 207.10678 0 0 1 -305.69336 38.394531 A 99.456184 99.456184 0 0 1 -234.92188 -39.130859 A 49.245702 49.245702 0 0 1 -205.43359 -85.15625 A 24.563425 24.563425 0 0 1 -190.81055 -110.64453 A 12.274311 12.274311 0 0 1 -181.37305 -127.26562 A 500 500 0 0 0 -180 -140 z M -680 67.107422 A 500 500 0 0 0 -896.93164 119.09766 A 207.10678 207.10678 0 0 1 -856.11523 234.12305 A 99.456184 99.456184 0 0 1 -779.90625 303.79883 A 49.245702 49.245702 0 0 1 -733.24023 334.23242 A 24.563425 24.563425 0 0 1 -709.19922 349.13477 A 12.274311 12.274311 0 0 1 -692.73438 358.625 A 500 500 0 0 0 -680 360 L -680 67.107422 z M -896.93164 119.09766 A 207.10678 207.10678 0 0 0 -1053.5234 38.414062 A 99.456184 99.456184 0 0 1 -1064.5879 103.08594 A 49.245702 49.245702 0 0 1 -1053.2461 157.36328 A 24.563425 24.563425 0 0 1 -1045.1406 185.88477 A 12.274311 12.274311 0 0 1 -1040.2324 200.57422 A 500 500 0 0 0 -1031.1113 211.54883 A 500 500 0 0 1 -896.93164 119.09766 z M -1053.5234 38.414062 A 99.456184 99.456184 0 0 0 -1124.0293 -39.085938 A 49.245702 49.245702 0 0 1 -1139.2578 -8.9238281 A 24.563425 24.563425 0 0 1 -1141.8711 21.552734 A 12.274311 12.274311 0 0 1 -1144.3223 37.904297 A 500 500 0 0 0 -1140.2832 50.814453 A 207.10678 207.10678 0 0 1 -1053.5234 38.414062 z M -1124.0293 -39.085938 A 49.245702 49.245702 0 0 0 -1154.2227 -86.650391 A 24.563425 24.563425 0 0 1 -1164.791 -72.128906 A 12.274311 12.274311 0 0 1 -1170.9004 -55.605469 A 500 500 0 0 0 -1169.4883 -42.507812 A 99.456184 99.456184 0 0 1 -1124.0293 -39.085938 z M -1154.2227 -86.650391 A 24.563425 24.563425 0 0 0 -1168.4844 -112.65625 A 12.274311 12.274311 0 0 1 -1176.166 -104.44531 A 500 500 0 0 0 -1174.6797 -90.664062 A 49.245702 49.245702 0 0 1 -1154.2227 -86.650391 z M -1168.4844 -112.65625 A 12.274311 12.274311 0 0 0 -1178.627 -127.26562 A 500 500 0 0 0 -1177.2949 -114.91797 A 24.563425 24.563425 0 0 1 -1168.4844 -112.65625 z M -1178.627 -127.26562 A 500 500 0 0 1 -1180 -140 L -1192.4258 -140 A 12.274311 12.274311 0 0 0 -1179.8496 -127.72852 A 12.274311 12.274311 0 0 1 -1178.627 -127.26562 z M -1180 -140 L -680 -140 L -680 -347.10742 A 500 500 0 0 1 -896.93164 -399.09766 A 207.10678 207.10678 0 0 1 -1053.5234 -318.41406 A 99.456184 99.456184 0 0 1 -1124.0293 -240.91406 A 49.245702 49.245702 0 0 1 -1154.2227 -193.34961 A 24.563425 24.563425 0 0 1 -1168.4844 -167.34375 A 12.274311 12.274311 0 0 1 -1178.627 -152.73438 A 500 500 0 0 0 -1180 -140 z " />
  <path
     id="curve 8"
     d="m -686.13577,-639.96235 a 6.1362312,6.1362312 0 1 1 12.27154,0 6.1362312,6.1362312 0 0 0 12.26784,0.30116 6.1362312,6.1362312 0 1 1 12.25676,0.60213 6.1362312,6.1362312 0 0 0 12.23829,0.90275 6.1362312,6.1362312 0 1 1 12.21244,1.20282 6.1362312,6.1362312 0 0 0 12.17925,1.50217 6.1362312,6.1362312 0 1 1 12.13872,1.80061 6.1362312,6.1362312 0 0 0 12.09087,2.09797 6.1362312,6.1362312 0 1 1 12.03575,2.39405 6.1362312,6.1362312 0 0 0 11.97336,2.68871 6.1362312,6.1362312 0 1 1 11.90378,2.98174 6.1362312,6.1362312 0 0 0 11.82701,3.27298 6.1362312,6.1362312 0 1 1 11.74313,3.56224 6.1362312,6.1362312 0 0 0 11.65218,3.84936 6.1362312,6.1362312 0 1 1 11.55419,4.13415 6.1362312,6.1362312 0 0 0 11.44926,4.41647 6.1362312,6.1362312 0 1 1 11.33742,4.69611 6.1362312,6.1362312 0 0 0 11.21876,4.97294 6.1362312,6.1362312 0 1 1 11.09334,5.24676 6.1362312,6.1362312 0 0 0 10.96124,5.51742 6.1362312,6.1362312 0 1 1 10.82253,5.78476 6.1362312,6.1362312 0 0 0 10.6773,6.04862 6.1362312,6.1362312 0 1 1 10.52565,6.30883 6.1362312,6.1362312 0 0 0 10.36765,6.56525 6.1362312,6.1362312 0 1 1 10.20342,6.8177 6.1362312,6.1362312 0 0 0 10.03302,7.06605 6.1362312,6.1362312 0 1 1 9.85659,7.31015 6.1362312,6.1362312 0 0 0 9.67422,7.54984 6.1362312,6.1362312 0 1 1 9.48603,7.78498 6.1362312,6.1362312 0 0 0 9.29212,8.01543 6.1362312,6.1362312 0 1 1 9.09261,8.24106 6.1362312,6.1362312 0 0 0 8.88762,8.46173 6.1362312,6.1362312 0 1 1 8.67729,8.67729 6.1362312,6.1362312 0 0 0 8.46173,8.88762 6.1362312,6.1362312 0 1 1 8.24106,9.09261 6.1362312,6.1362312 0 0 0 8.01543,9.29212 6.1362312,6.1362312 0 1 1 7.78498,9.48603 6.1362312,6.1362312 0 0 0 7.54984,9.67422 6.1362312,6.1362312 0 1 1 7.31015,9.85659 6.1362312,6.1362312 0 0 0 7.06605,10.03302 6.1362312,6.1362312 0 1 1 6.8177,10.20342 6.1362312,6.1362312 0 0 0 6.56525,10.36765 6.1362312,6.1362312 0 1 1 6.30883,10.52565 6.1362312,6.1362312 0 0 0 6.04862,10.6773 6.1362312,6.1362312 0 1 1 5.78476,10.82253 6.1362312,6.1362312 0 0 0 5.51742,10.96124 6.1362312,6.1362312 0 1 1 5.24676,11.09334 6.1362312,6.1362312 0 0 0 4.97294,11.21876 6.1362312,6.1362312 0 1 1 4.69611,11.33742 6.1362312,6.1362312 0 0 0 4.41647,11.44926 6.1362312,6.1362312 0 1 1 4.13415,11.55419 6.1362312,6.1362312 0 0 0 3.84936,11.65218 6.1362312,6.1362312 0 1 1 3.56224,11.74313 6.1362312,6.1362312 0 0 0 3.27298,11.82701 6.1362312,6.1362312 0 1 1 2.98174,11.90378 6.1362312,6.1362312 0 0 0 2.68871,11.97336 6.1362312,6.1362312 0 1 1 2.39405,12.03575 6.1362312,6.1362312 0 0 0 2.09797,12.09087 6.1362312,6.1362312 0 1 1 1.80061,12.13872 6.1362312,6.1362312 0 0 0 1.50217,12.17925 6.1362312,6.1362312 0 1 1 1.20282,12.21244 6.1362312,6.1362312 0 0 0 0.90275,12.23829 6.1362312,6.1362312 0 1 1 0.60213,12.25676 6.1362312,6.1362312 0 0 0 0.30116,12.26784 6.1362312,6.1362312 0 1 1 0,12.27154 6.1362312,6.1362312 0 0 0 -0.30116,12.26784 6.1362312,6.1362312 0 1 1 -0.60213,12.25676 6.1362312,6.1362312 0 0 0 -0.90275,12.238286 6.1362312,6.1362312 0 1 1 -1.20282,12.212448 6.1362312,6.1362312 0 0 0 -1.50217,12.17925 6.1362312,6.1362312 0 1 1 -1.80061,12.138718 6.1362312,6.1362312 0 0 0 -2.09797,12.090872 6.1362312,6.1362312 0 1 1 -2.39405,12.035746 6.1362312,6.1362312 0 0 0 -2.68871,11.97336 6.1362312,6.1362312 0 1 1 -2.98174,11.90378 6.1362312,6.1362312 0 0 0 -3.27298,11.82701 6.1362312,6.1362312 0 1 1 -3.56224,11.74313 6.1362312,6.1362312 0 0 0 -3.84936,11.65218 6.1362312,6.1362312 0 1 1 -4.13415,11.55419 6.1362312,6.1362312 0 0 0 -4.41647,11.44926 6.1362312,6.1362312 0 1 1 -4.69611,11.33742 6.1362312,6.1362312 0 0 0 -4.97294,11.21876 6.1362312,6.1362312 0 1 1 -5.24676,11.09334 6.1362312,6.1362312 0 0 0 -5.51742,10.96124 6.1362312,6.1362312 0 1 1 -5.78476,10.82253 6.1362312,6.1362312 0 0 0 -6.04862,10.6773 6.1362312,6.1362312 0 1 1 -6.30883,10.52565 6.1362312,6.1362312 0 0 0 -6.56525,10.36765 6.1362312,6.1362312 0 1 1 -6.8177,10.20342 6.1362312,6.1362312 0 0 0 -7.06605,10.03302 6.1362312,6.1362312 0 1 1 -7.31015,9.85659 6.1362312,6.1362312 0 0 0 -7.54984,9.67422 6.1362312,6.1362312 0 1 1 -7.78498,9.48603 6.1362312,6.1362312 0 0 0 -8.01543,9.29212 6.1362312,6.1362312 0 1 1 -8.24106,9.09261 6.1362312,6.1362312 0 0 0 -8.46173,8.88762 6.1362312,6.1362312 0 1 1 -8.67729,8.67729 6.1362312,6.1362312 0 0 0 -8.88762,8.46173 6.1362312,6.1362312 0 1 1 -9.09261,8.24106 6.1362312,6.1362312 0 0 0 -9.29212,8.01543 6.1362312,6.1362312 0 1 1 -9.48603,7.78498 6.1362312,6.1362312 0 0 0 -9.67422,7.54984 6.1362312,6.1362312 0 1 1 -9.85659,7.31015 6.1362312,6.1362312 0 0 0 -10.03302,7.06605 6.1362312,6.1362312 0 1 1 -10.20342,6.8177 6.1362312,6.1362312 0 0 0 -10.36765,6.56525 6.1362312,6.1362312 0 1 1 -10.52565,6.30883 6.1362312,6.1362312 0 0 0 -10.6773,6.04862 6.1362312,6.1362312 0 1 1 -10.82253,5.78476 6.1362312,6.1362312 0 0 0 -10.96124,5.51742 6.1362312,6.1362312 0 1 1 -11.09334,5.24676 6.1362312,6.1362312 0 0 0 -11.21876,4.97294 6.1362312,6.1362312 0 1 1 -11.33742,4.69611 6.1362312,6.1362312 0 0 0 -11.44926,4.41647 6.1362312,6.1362312 0 1 1 -11.55419,4.13415 6.1362312,6.1362312 0 0 0 -11.65218,3.84936 6.1362312,6.1362312 0 1 1 -11.74313,3.56224 6.1362312,6.1362312 0 0 0 -11.82701,3.27298 6.1362312,6.1362312 0 1 1 -11.90378,2.98174 6.1362312,6.1362312 0 0 0 -11.97336,2.68871 6.1362312,6.1362312 0 1 1 -12.03575,2.39405 6.1362312,6.1362312 0 0 0 -12.09087,2.09797 6.1362312,6.1362312 0 1 1 -12.13872,1.80061 6.1362312,6.1362312 0 0 0 -12.17925,1.50217 6.1362312,6.1362312 0 1 1 -12.21244,1.20282 6.1362312,6.1362312 0 0 0 -12.23829,0.90275 6.1362312,6.1362312 0 1 1 -12.25676,0.60213 6.1362312,6.1362312 0 0 0 -12.26784,0.30116 6.1362312,6.1362312 0 1 1 -12.27154,0 6.1362312,6.1362312 0 0 0 -12.26784,-0.30116 6.1362312,6.1362312 0 1 1 -12.25676,-0.60213 6.1362312,6.1362312 0 0 0 -12.23829,-0.90275 6.1362312,6.1362312 0 1 1 -12.21244,-1.20282 6.1362312,6.1362312 0 0 0 -12.17925,-1.50217 6.1362312,6.1362312 0 1 1 -12.13872,-1.80061 6.1362312,6.1362312 0 0 0 -12.09087,-2.09797 6.1362312,6.1362312 0 1 1 -12.03575,-2.39405 6.1362312,6.1362312 0 0 0 -11.97336,-2.68871 6.1362312,6.1362312 0 1 1 -11.90378,-2.98174 6.1362312,6.1362312 0 0 0 -11.82701,-3.27298 6.1362312,6.1362312 0 1 1 -11.74313,-3.56224 6.1362312,6.1362312 0 0 0 -11.65218,-3.84936 6.1362312,6.1362312 0 1 1 -11.55419,-4.13415 6.1362312,6.1362312 0 0 0 -11.44926,-4.41647 6.1362312,6.1362312 0 1 1 -11.33742,-4.69611 6.1362312,6.1362312 0 0 0 -11.21876,-4.97294 6.1362312,6.1362312 0 1 1 -11.09334,-5.24676 6.1362312,6.1362312 0 0 0 -10.96124,-5.51742 6.1362312,6.1362312 0 1 1 -10.82253,-5.78476 6.1362312,6.1362312 0 0 0 -10.6773,-6.04862 6.1362312,6.1362312 0 1 1 -10.52565,-6.30883 6.1362312,6.1362312 0 0 0 -10.36765,-6.56525 6.1362312,6.1362312 0 1 1 -10.20342,-6.8177 6.1362312,6.1362312 0 0 0 -10.03302,-7.06605 6.1362312,6.1362312 0 1 1 -9.85659,-7.31015 6.1362312,6.1362312 0 0 0 -9.67422,-7.54984 6.1362312,6.1362312 0 1 1 -9.48606,-7.78498 6.1362312,6.1362312 0 0 0 -9.2921,-8.01543 6.1362312,6.1362312 0 1 1 -9.0926,-8.24106 6.1362312,6.1362312 0 0 0 -8.8876,-8.46173 6.1362312,6.1362312 0 1 1 -8.6773,-8.67729 6.1362312,6.1362312 0 0 0 -8.4617,-8.88762 6.1362312,6.1362312 0 1 1 -8.2411,-9.09261 6.1362312,6.1362312 0 0 0 -8.0154,-9.29212 6.1362312,6.1362312 0 1 1 -7.785,-9.48603 6.1362312,6.1362312 0 0 0 -7.5499,-9.67422 6.1362312,6.1362312 0 1 1 -7.3101,-9.85659 6.1362312,6.1362312 0 0 0 -7.0661,-10.03302 6.1362312,6.1362312 0 1 1 -6.8177,-10.20342 6.1362312,6.1362312 0 0 0 -6.5652,-10.36765 6.1362312,6.1362312 0 1 1 -6.3088,-10.52565 6.1362312,6.1362312 0 0 0 -6.0487,-10.6773 6.1362312,6.1362312 0 1 1 -5.7847,-10.82253 6.1362312,6.1362312 0 0 0 -5.5174,-10.96124 6.1362312,6.1362312 0 1 1 -5.2468,-11.09334 6.1362312,6.1362312 0 0 0 -4.9729,-11.21876 6.1362312,6.1362312 0 1 1 -4.6961,-11.33742 6.1362312,6.1362312 0 0 0 -4.4165,-11.44926 6.1362312,6.1362312 0 1 1 -4.1342,-11.55419 6.1362312,6.1362312 0 0 0 -3.8493,-11.65218 6.1362312,6.1362312 0 1 1 -3.5623,-11.74313 6.1362312,6.1362312 0 0 0 -3.2729,-11.82701 6.1362312,6.1362312 0 1 1 -2.9818,-11.90378 6.1362312,6.1362312 0 0 0 -2.6887,-11.97336 6.1362312,6.1362312 0 1 1 -2.394,-12.035746 6.1362312,6.1362312 0 0 0 -2.098,-12.090872 6.1362312,6.1362312 0 1 1 -1.8006,-12.138718 6.1362312,6.1362312 0 0 0 -1.5022,-12.17925 6.1362312,6.1362312 0 1 1 -1.2028,-12.212448 6.1362312,6.1362312 0 0 0 -0.9028,-12.238286 6.1362312,6.1362312 0 1 1 -0.6021,-12.25676 6.1362312,6.1362312 0 0 0 -0.3012,-12.26784 6.1362312,6.1362312 0 1 1 0,-12.27154 6.1362312,6.1362312 0 0 0 0.3012,-12.26784 6.1362312,6.1362312 0 1 1 0.6021,-12.25676 6.1362312,6.1362312 0 0 0 0.9028,-12.23829 6.1362312,6.1362312 0 1 1 1.2028,-12.21244 6.1362312,6.1362312 0 0 0 1.5022,-12.17925 6.1362312,6.1362312 0 1 1 1.8006,-12.13872 6.1362312,6.1362312 0 0 0 2.098,-12.09087 6.1362312,6.1362312 0 1 1 2.394,-12.03575 6.1362312,6.1362312 0 0 0 2.6887,-11.97336 6.1362312,6.1362312 0 1 1 2.9818,-11.90378 6.1362312,6.1362312 0 0 0 3.2729,-11.82701 6.1362312,6.1362312 0 1 1 3.5623,-11.74313 6.1362312,6.1362312 0 0 0 3.8493,-11.65218 6.1362312,6.1362312 0 1 1 4.1342,-11.55419 6.1362312,6.1362312 0 0 0 4.4165,-11.44926 6.1362312,6.1362312 0 1 1 4.6961,-11.33742 6.1362312,6.1362312 0 0 0 4.9729,-11.21876 6.1362312,6.1362312 0 1 1 5.2468,-11.09334 6.1362312,6.1362312 0 0 0 5.5174,-10.96124 6.1362312,6.1362312 0 1 1 5.7847,-10.82253 6.1362312,6.1362312 0 0 0 6.0487,-10.6773 6.1362312,6.1362312 0 1 1 6.3088,-10.52565 6.1362312,6.1362312 0 0 0 6.5652,-10.36765 6.1362312,6.1362312 0 1 1 6.8177,-10.20342 6.1362312,6.1362312 0 0 0 7.0661,-10.03302 6.1362312,6.1362312 0 1 1 7.3101,-9.85659 6.1362312,6.1362312 0 0 0 7.5499,-9.67422 6.1362312,6.1362312 0 1 1 7.785,-9.48603 6.1362312,6.1362312 0 0 0 8.0154,-9.29212 6.1362312,6.1362312 0 1 1 8.2411,-9.09261 6.1362312,6.1362312 0 0 0 8.4617,-8.88762 6.1362312,6.1362312 0 1 1 8.6773,-8.67729 6.1362312,6.1362312 0 0 0 8.8876,-8.46173 6.1362312,6.1362312 0 1 1 9.0926,-8.24106 6.1362312,6.1362312 0 0 0 9.2921,-8.01543 6.1362312,6.1362312 0 1 1 9.48606,-7.78498 6.1362312,6.1362312 0 0 0 9.67422,-7.54984 6.1362312,6.1362312 0 1 1 9.85659,-7.31015 6.1362312,6.1362312 0 0 0 10.03302,-7.06605 6.1362312,6.1362312 0 1 1 10.20342,-6.8177 6.1362312,6.1362312 0 0 0 10.36765,-6.56525 6.1362312,6.1362312 0 1 1 10.52565,-6.30883 6.1362312,6.1362312 0 0 0 10.6773,-6.04862 6.1362312,6.1362312 0 1 1 10.82253,-5.78476 6.1362312,6.1362312 0 0 0 10.96124,-5.51742 6.1362312,6.1362312 0 1 1 11.09334,-5.24676 6.1362312,6.1362312 0 0 0 11.21876,-4.97294 6.1362312,6.1362312 0 1 1 11.33742,-4.69611 6.1362312,6.1362312 0 0 0 11.44926,-4.41647 6.1362312,6.1362312 0 1 1 11.55419,-4.13415 6.1362312,6.1362312 0 0 0 11.65218,-3.84936 6.1362312,6.1362312 0 1 1 11.74313,-3.56224 6.1362312,6.1362312 0 0 0 11.82701,-3.27298 6.1362312,6.1362312 0 1 1 11.90378,-2.98174 6.1362312,6.1362312 0 0 0 11.97336,-2.68871 6.1362312,6.1362312 0 1 1 12.03575,-2.39405 6.1362312,6.1362312 0 0 0 12.09087,-2.09797 6.1362312,6.1362312 0 1 1 12.13872,-1.80061 6.1362312,6.1362312 0 0 0 12.17925,-1.50217 6.1362312,6.1362312 0 1 1 12.21244,-1.20282 6.1362312,6.1362312 0 0 0 12.23829,-0.90275 6.1362312,6.1362312 0 1 1 12.25676,-0.60213 6.1362312,6.1362312 0 0 0 12.26784,-0.30116"
     fill="none"
     stroke="blue"
     stroke-width="4"
     inkscape:label="curve 10"
     style="display:none;fill:#0000ff;fill-opacity:1;stroke:none" />
  <rect
     style="fill:none;fill-rule:evenodd;stroke:#000000;stroke-opacity:1;stroke-width:2;stroke-dasharray:none"
     id="rect1"
     width="2640"
     height="1720"
     x="-2000"
     y="-1000"
     ry="1.4551914e-11" />
</svg>
