<?xml version="1.0" encoding="UTF-8" standalone="no"?>
<svg
   viewBox="-2000 -1000 2640 1720"
   version="1.1"
   id="svg3"
   sodipodi:docname="EdwardsBipart2.svg"
   inkscape:version="1.3.2 (091e20e, 2023-11-25, custom)"
   width="2640"
   height="1720"
   inkscape:export-filename="EdwardsBipart2.pdf"
   inkscape:export-xdpi="96"
   inkscape:export-ydpi="96"
   xmlns:inkscape="http://www.inkscape.org/namespaces/inkscape"
   xmlns:sodipodi="http://sodipodi.sourceforge.net/DTD/sodipodi-0.dtd"
   xmlns="http://www.w3.org/2000/svg"
   xmlns:svg="http://www.w3.org/2000/svg">
  <defs
     id="defs3" />
  <sodipodi:namedview
     id="namedview3"
     pagecolor="#ffffff"
     bordercolor="#000000"
     borderopacity="0.25"
     inkscape:showpageshadow="2"
     inkscape:pageopacity="0.0"
     inkscape:pagecheckerboard="0"
     inkscape:deskcolor="#d1d1d1"
     showgrid="true"
     inkscape:zoom="0.6905"
     inkscape:cx="1319.3338"
     inkscape:cy="859.52209"
     inkscape:window-width="3840"
     inkscape:window-height="1577"
     inkscape:window-x="-8"
     inkscape:window-y="-8"
     inkscape:window-maximized="1"
     inkscape:current-layer="svg3">
    <inkscape:grid
       id="grid3"
       units="px"
       originx="-680"
       originy="-140"
       spacingx="1"
       spacingy="1"
       empcolor="#0099e5"
       empopacity="0.30196078"
       color="#0099e5"
       opacity="0.14901961"
       empspacing="5"
       dotted="false"
       gridanglex="30"
       gridanglez="30"
       visible="true" />
  </sodipodi:namedview>
  <line
     x1="-680"
     y1="-1000"
     x2="-680"
     y2="720"
     stroke="#000000"
     stroke-width="3.84652"
     id="line1"
     style="display:none" />
  <line
     x1="-2000"
     y1="-140"
     x2="640"
     y2="-140"
     stroke="#000000"
     stroke-width="3.56692"
     id="line2"
     style="display:none" />
  <path
     id="rect3"
     style="display:inline;fill:#0000ff;fill-opacity:1;fill-rule:evenodd;stroke:#000000;stroke-width:2;stroke-dasharray:none;stroke-opacity:1"
     inkscape:label="curve 1"
     d="M -680 -1000 L -680 -140 L 640 -140 L 640 -1000 L -680 -1000 z M -680 -140 L -2000 -140 L -2000 720 L -680 720 L -680 -140 z " />
  <circle
     id="curve 3"
     cx="-680"
     cy="-140"
     r="500"
     stroke="black"
     stroke-width="4"
     fill="none"
     style="display:none;fill:#0000ff;fill-opacity:1;stroke:none" />
  <path
     id="curve 4"
     d="m -326.447,213.553 a 500,500 0 1 0 0,-707.106 500,500 0 0 1 -707.106,0 500,500 0 1 0 0,707.106 500,500 0 0 1 707.106,0"
     fill="none"
     stroke="red"
     stroke-width="4"
     style="display:none;fill:#0000ff;fill-opacity:1;stroke:none" />
  <path
     id="path2"
     d="m -871.34172,-601.93977 a 207.10678,207.10678 0 1 1 382.68344,0 207.10678,207.10678 0 0 0 270.59805,270.59805 207.10678,207.10678 0 1 1 0,382.68344 207.10678,207.10678 0 0 0 -270.59805,270.59805 207.10678,207.10678 0 1 1 -382.68344,0 207.10678,207.10678 0 0 0 -270.59808,-270.59805 207.10678,207.10678 0 1 1 0,-382.68344 207.10678,207.10678 0 0 0 270.59808,-270.59805"
     fill="none"
     stroke="blue"
     stroke-width="4"
     inkscape:label="curve 5"
     style="display:none;fill:#0000ff;fill-opacity:1;stroke:none" />
  <path
     id="path3"
     d="m -777.54516,-630.39264 a 99.456184,99.456184 0 1 1 195.09032,0 99.456184,99.456184 0 0 0 180.23996,74.65783 99.456184,99.456184 0 1 1 137.94969,137.94969 99.456184,99.456184 0 0 0 74.65783,180.23996 99.456184,99.456184 0 1 1 0,195.090321 99.456184,99.456184 0 0 0 -74.65783,180.239959 99.456184,99.456184 0 1 1 -137.94969,137.94969 99.456184,99.456184 0 0 0 -180.23996,74.65783 99.456184,99.456184 0 1 1 -195.09032,0 99.456184,99.456184 0 0 0 -180.23996,-74.65783 99.456184,99.456184 0 1 1 -137.94968,-137.94969 99.456184,99.456184 0 0 0 -74.6578,-180.239959 99.456184,99.456184 0 1 1 0,-195.090321 99.456184,99.456184 0 0 0 74.6578,-180.23996 99.456184,99.456184 0 1 1 137.94968,-137.94969 99.456184,99.456184 0 0 0 180.23996,-74.65783"
     fill="none"
     stroke="#0000ff"
     stroke-width="4"
     style="display:none;fill:#0000ff;fill-opacity:1;stroke:none"
     inkscape:label="curve 6" />
  <path
     id="curve 5"
     d="m -729.00857,-637.59236 a 49.245702,49.245702 0 1 1 98.01714,0 49.245702,49.245702 0 0 0 96.13377,19.12219 49.245702,49.245702 0 1 1 90.55603,37.50954 49.245702,49.245702 0 0 0 81.49827,54.4554 49.245702,49.245702 0 1 1 69.30859,69.30859 49.245702,49.245702 0 0 0 54.4554,81.49827 49.245702,49.245702 0 1 1 37.50954,90.55603 49.245702,49.245702 0 0 0 19.12219,96.13377 49.245702,49.245702 0 1 1 0,98.01714 49.245702,49.245702 0 0 0 -19.12219,96.13377 49.245702,49.245702 0 1 1 -37.50954,90.55603 49.245702,49.245702 0 0 0 -54.4554,81.49827 49.245702,49.245702 0 1 1 -69.30859,69.30859 49.245702,49.245702 0 0 0 -81.49827,54.4554 49.245702,49.245702 0 1 1 -90.55603,37.50954 49.245702,49.245702 0 0 0 -96.13377,19.12219 49.245702,49.245702 0 1 1 -98.01714,0 49.245702,49.245702 0 0 0 -96.13377,-19.12219 49.245702,49.245702 0 1 1 -90.55603,-37.50954 49.245702,49.245702 0 0 0 -81.49827,-54.4554 49.245702,49.245702 0 1 1 -69.30856,-69.30859 49.245702,49.245702 0 0 0 -54.4554,-81.49827 49.245702,49.245702 0 1 1 -37.5096,-90.55603 49.245702,49.245702 0 0 0 -19.1222,-96.13377 49.245702,49.245702 0 1 1 0,-98.01714 49.245702,49.245702 0 0 0 19.1222,-96.13377 49.245702,49.245702 0 1 1 37.5096,-90.55603 49.245702,49.245702 0 0 0 54.4554,-81.49827 49.245702,49.245702 0 1 1 69.30856,-69.30859 49.245702,49.245702 0 0 0 81.49827,-54.4554 49.245702,49.245702 0 1 1 90.55603,-37.50954 49.245702,49.245702 0 0 0 96.13377,-19.12219"
     fill="none"
     stroke="#0000ff"
     stroke-width="4"
     style="display:none;fill:#0000ff;fill-opacity:1;stroke:none"
     inkscape:label="curve 7" />
  <path
     id="curve 6"
     d="m -704.53384,-639.39773 a 24.563425,24.563425 0 1 1 49.06768,0 24.563425,24.563425 0 0 0 48.8314,4.80948 24.563425,24.563425 0 1 1 48.12485,9.57262 24.563425,24.563425 0 0 0 46.95484,14.2436 24.563425,24.563425 0 1 1 45.33262,18.77738 24.563425,24.563425 0 0 0 43.27382,23.13034 24.563425,24.563425 0 1 1 40.79828,27.26054 24.563425,24.563425 0 0 0 37.92983,31.12821 24.563425,24.563425 0 1 1 34.69608,34.69608 24.563425,24.563425 0 0 0 31.12821,37.92983 24.563425,24.563425 0 1 1 27.26054,40.79828 24.563425,24.563425 0 0 0 23.13034,43.27382 24.563425,24.563425 0 1 1 18.77738,45.33262 24.563425,24.563425 0 0 0 14.2436,46.95484 24.563425,24.563425 0 1 1 9.57262,48.12485 24.563425,24.563425 0 0 0 4.80948,48.8314 24.563425,24.563425 0 1 1 0,49.06768 24.563425,24.563425 0 0 0 -4.80948,48.831397 24.563425,24.563425 0 1 1 -9.57262,48.124853 24.563425,24.563425 0 0 0 -14.2436,46.95484 24.563425,24.563425 0 1 1 -18.77738,45.33262 24.563425,24.563425 0 0 0 -23.13034,43.27382 24.563425,24.563425 0 1 1 -27.26054,40.79828 24.563425,24.563425 0 0 0 -31.12821,37.92983 24.563425,24.563425 0 1 1 -34.69608,34.69608 24.563425,24.563425 0 0 0 -37.92983,31.12821 24.563425,24.563425 0 1 1 -40.79828,27.26054 24.563425,24.563425 0 0 0 -43.27382,23.13034 24.563425,24.563425 0 1 1 -45.33262,18.77738 24.563425,24.563425 0 0 0 -46.95484,14.2436 24.563425,24.563425 0 1 1 -48.12485,9.57262 24.563425,24.563425 0 0 0 -48.8314,4.80948 24.563425,24.563425 0 1 1 -49.06768,0 24.563425,24.563425 0 0 0 -48.8314,-4.80948 24.563425,24.563425 0 1 1 -48.12485,-9.57262 24.563425,24.563425 0 0 0 -46.95484,-14.2436 24.563425,24.563425 0 1 1 -45.33262,-18.77738 24.563425,24.563425 0 0 0 -43.27382,-23.13034 24.563425,24.563425 0 1 1 -40.79828,-27.26054 24.563425,24.563425 0 0 0 -37.92985,-31.12821 24.563425,24.563425 0 1 1 -34.6961,-34.69608 24.563425,24.563425 0 0 0 -31.1282,-37.92983 24.563425,24.563425 0 1 1 -27.2605,-40.79828 24.563425,24.563425 0 0 0 -23.1303,-43.27382 24.563425,24.563425 0 1 1 -18.7774,-45.33262 24.563425,24.563425 0 0 0 -14.2436,-46.95484 24.563425,24.563425 0 1 1 -9.5726,-48.124853 24.563425,24.563425 0 0 0 -4.8095,-48.831397 24.563425,24.563425 0 1 1 0,-49.06768 24.563425,24.563425 0 0 0 4.8095,-48.8314 24.563425,24.563425 0 1 1 9.5726,-48.12485 24.563425,24.563425 0 0 0 14.2436,-46.95484 24.563425,24.563425 0 1 1 18.7774,-45.33262 24.563425,24.563425 0 0 0 23.1303,-43.27382 24.563425,24.563425 0 1 1 27.2605,-40.79828 24.563425,24.563425 0 0 0 31.1282,-37.92983 24.563425,24.563425 0 1 1 34.6961,-34.69608 24.563425,24.563425 0 0 0 37.92985,-31.12821 24.563425,24.563425 0 1 1 40.79828,-27.26054 24.563425,24.563425 0 0 0 43.27382,-23.13034 24.563425,24.563425 0 1 1 45.33262,-18.77738 24.563425,24.563425 0 0 0 46.95484,-14.2436 24.563425,24.563425 0 1 1 48.12485,-9.57262 24.563425,24.563425 0 0 0 48.8314,-4.80948"
     fill="none"
     stroke="blue"
     stroke-width="4"
     inkscape:label="curve 8"
     style="display:none;fill:#0000ff;fill-opacity:1;stroke:none" />
  <path
     id="curve 7"
     d="m -692.27061,-639.84941 a 12.274311,12.274311 0 1 1 24.54122,0 12.274311,12.274311 0 0 0 24.51167,1.20418 12.274311,12.274311 0 1 1 24.42306,2.40546 12.274311,12.274311 0 0 0 24.2756,3.60095 12.274311,12.274311 0 1 1 24.06968,4.78775 12.274311,12.274311 0 0 0 23.80576,5.96304 12.274311,12.274311 0 1 1 23.48449,7.12394 12.274311,12.274311 0 0 0 23.10665,8.26769 12.274311,12.274311 0 1 1 22.67314,9.39152 12.274311,12.274311 0 0 0 22.185,10.49273 12.274311,12.274311 0 1 1 21.64344,11.56865 12.274311,12.274311 0 0 0 21.04971,12.61672 12.274311,12.274311 0 1 1 20.40529,13.63437 12.274311,12.274311 0 0 0 19.7117,14.6192 12.274311,12.274311 0 1 1 18.97062,15.56879 12.274311,12.274311 0 0 0 18.18385,16.48088 12.274311,12.274311 0 1 1 17.35327,17.35327 12.274311,12.274311 0 0 0 16.48088,18.18385 12.274311,12.274311 0 1 1 15.56879,18.97062 12.274311,12.274311 0 0 0 14.6192,19.7117 12.274311,12.274311 0 1 1 13.63437,20.40529 12.274311,12.274311 0 0 0 12.61672,21.04971 12.274311,12.274311 0 1 1 11.56865,21.64344 12.274311,12.274311 0 0 0 10.49273,22.185 12.274311,12.274311 0 1 1 9.39152,22.67314 12.274311,12.274311 0 0 0 8.26769,23.10665 12.274311,12.274311 0 1 1 7.12394,23.48449 12.274311,12.274311 0 0 0 5.96304,23.80576 12.274311,12.274311 0 1 1 4.78775,24.06968 12.274311,12.274311 0 0 0 3.60095,24.2756 12.274311,12.274311 0 1 1 2.40546,24.42306 12.274311,12.274311 0 0 0 1.20418,24.51167 12.274311,12.274311 0 1 1 0,24.54122 12.274311,12.274311 0 0 0 -1.20418,24.51167 12.274311,12.274311 0 1 1 -2.40546,24.423058 12.274311,12.274311 0 0 0 -3.60095,24.275606 12.274311,12.274311 0 1 1 -4.78775,24.069676 12.274311,12.274311 0 0 0 -5.96304,23.80576 12.274311,12.274311 0 1 1 -7.12394,23.48449 12.274311,12.274311 0 0 0 -8.26769,23.10665 12.274311,12.274311 0 1 1 -9.39152,22.67314 12.274311,12.274311 0 0 0 -10.49273,22.185 12.274311,12.274311 0 1 1 -11.56865,21.64344 12.274311,12.274311 0 0 0 -12.61672,21.04971 12.274311,12.274311 0 1 1 -13.63437,20.40529 12.274311,12.274311 0 0 0 -14.6192,19.7117 12.274311,12.274311 0 1 1 -15.56879,18.97062 12.274311,12.274311 0 0 0 -16.48088,18.18385 12.274311,12.274311 0 1 1 -17.35327,17.35327 12.274311,12.274311 0 0 0 -18.18385,16.48088 12.274311,12.274311 0 1 1 -18.97062,15.56879 12.274311,12.274311 0 0 0 -19.7117,14.6192 12.274311,12.274311 0 1 1 -20.40529,13.63437 12.274311,12.274311 0 0 0 -21.04971,12.61672 12.274311,12.274311 0 1 1 -21.64344,11.56865 12.274311,12.274311 0 0 0 -22.185,10.49273 12.274311,12.274311 0 1 1 -22.67314,9.39152 12.274311,12.274311 0 0 0 -23.10665,8.26769 12.274311,12.274311 0 1 1 -23.48449,7.12394 12.274311,12.274311 0 0 0 -23.80576,5.96304 12.274311,12.274311 0 1 1 -24.06968,4.78775 12.274311,12.274311 0 0 0 -24.2756,3.60095 12.274311,12.274311 0 1 1 -24.42306,2.40546 12.274311,12.274311 0 0 0 -24.51167,1.20418 12.274311,12.274311 0 1 1 -24.54122,0 12.274311,12.274311 0 0 0 -24.51167,-1.20418 12.274311,12.274311 0 1 1 -24.42306,-2.40546 12.274311,12.274311 0 0 0 -24.2756,-3.60095 12.274311,12.274311 0 1 1 -24.06968,-4.78775 12.274311,12.274311 0 0 0 -23.80576,-5.96304 12.274311,12.274311 0 1 1 -23.48449,-7.12394 12.274311,12.274311 0 0 0 -23.10665,-8.26769 12.274311,12.274311 0 1 1 -22.67314,-9.39152 12.274311,12.274311 0 0 0 -22.185,-10.49273 12.274311,12.274311 0 1 1 -21.64344,-11.56865 12.274311,12.274311 0 0 0 -21.04971,-12.61672 12.274311,12.274311 0 1 1 -20.40529,-13.63437 12.274311,12.274311 0 0 0 -19.7117,-14.6192 12.274311,12.274311 0 1 1 -18.9706,-15.56879 12.274311,12.274311 0 0 0 -18.1839,-16.48088 12.274311,12.274311 0 1 1 -17.3532,-17.35327 12.274311,12.274311 0 0 0 -16.4809,-18.18385 12.274311,12.274311 0 1 1 -15.5688,-18.97062 12.274311,12.274311 0 0 0 -14.6192,-19.7117 12.274311,12.274311 0 1 1 -13.6344,-20.40529 12.274311,12.274311 0 0 0 -12.6167,-21.04971 12.274311,12.274311 0 1 1 -11.5687,-21.64344 12.274311,12.274311 0 0 0 -10.4927,-22.185 12.274311,12.274311 0 1 1 -9.3915,-22.67314 12.274311,12.274311 0 0 0 -8.2677,-23.10665 12.274311,12.274311 0 1 1 -7.1239,-23.48449 12.274311,12.274311 0 0 0 -5.9631,-23.80576 12.274311,12.274311 0 1 1 -4.7877,-24.069676 12.274311,12.274311 0 0 0 -3.601,-24.275606 12.274311,12.274311 0 1 1 -2.4054,-24.423058 12.274311,12.274311 0 0 0 -1.2042,-24.51167 12.274311,12.274311 0 1 1 0,-24.54122 12.274311,12.274311 0 0 0 1.2042,-24.51167 12.274311,12.274311 0 1 1 2.4054,-24.42306 12.274311,12.274311 0 0 0 3.601,-24.2756 12.274311,12.274311 0 1 1 4.7877,-24.06968 12.274311,12.274311 0 0 0 5.9631,-23.80576 12.274311,12.274311 0 1 1 7.1239,-23.48449 12.274311,12.274311 0 0 0 8.2677,-23.10665 12.274311,12.274311 0 1 1 9.3915,-22.67314 12.274311,12.274311 0 0 0 10.4927,-22.185 12.274311,12.274311 0 1 1 11.5687,-21.64344 12.274311,12.274311 0 0 0 12.6167,-21.04971 12.274311,12.274311 0 1 1 13.6344,-20.40529 12.274311,12.274311 0 0 0 14.6192,-19.7117 12.274311,12.274311 0 1 1 15.5688,-18.97062 12.274311,12.274311 0 0 0 16.4809,-18.18385 12.274311,12.274311 0 1 1 17.3532,-17.35327 12.274311,12.274311 0 0 0 18.1839,-16.48088 12.274311,12.274311 0 1 1 18.9706,-15.56879 12.274311,12.274311 0 0 0 19.7117,-14.6192 12.274311,12.274311 0 1 1 20.40529,-13.63437 12.274311,12.274311 0 0 0 21.04971,-12.61672 12.274311,12.274311 0 1 1 21.64344,-11.56865 12.274311,12.274311 0 0 0 22.185,-10.49273 12.274311,12.274311 0 1 1 22.67314,-9.39152 12.274311,12.274311 0 0 0 23.10665,-8.26769 12.274311,12.274311 0 1 1 23.48449,-7.12394 12.274311,12.274311 0 0 0 23.80576,-5.96304 12.274311,12.274311 0 1 1 24.06968,-4.78775 12.274311,12.274311 0 0 0 24.2756,-3.60095 12.274311,12.274311 0 1 1 24.42306,-2.40546 12.274311,12.274311 0 0 0 24.51167,-1.20418"
     fill="none"
     stroke="blue"
     stroke-width="4"
     inkscape:label="curve 9"
     style="display:none;fill:#0000ff;fill-opacity:1;stroke:none" />
  <path
     id="curve 8"
     d="m -686.13577,-639.96235 a 6.1362312,6.1362312 0 1 1 12.27154,0 6.1362312,6.1362312 0 0 0 12.26784,0.30116 6.1362312,6.1362312 0 1 1 12.25676,0.60213 6.1362312,6.1362312 0 0 0 12.23829,0.90275 6.1362312,6.1362312 0 1 1 12.21244,1.20282 6.1362312,6.1362312 0 0 0 12.17925,1.50217 6.1362312,6.1362312 0 1 1 12.13872,1.80061 6.1362312,6.1362312 0 0 0 12.09087,2.09797 6.1362312,6.1362312 0 1 1 12.03575,2.39405 6.1362312,6.1362312 0 0 0 11.97336,2.68871 6.1362312,6.1362312 0 1 1 11.90378,2.98174 6.1362312,6.1362312 0 0 0 11.82701,3.27298 6.1362312,6.1362312 0 1 1 11.74313,3.56224 6.1362312,6.1362312 0 0 0 11.65218,3.84936 6.1362312,6.1362312 0 1 1 11.55419,4.13415 6.1362312,6.1362312 0 0 0 11.44926,4.41647 6.1362312,6.1362312 0 1 1 11.33742,4.69611 6.1362312,6.1362312 0 0 0 11.21876,4.97294 6.1362312,6.1362312 0 1 1 11.09334,5.24676 6.1362312,6.1362312 0 0 0 10.96124,5.51742 6.1362312,6.1362312 0 1 1 10.82253,5.78476 6.1362312,6.1362312 0 0 0 10.6773,6.04862 6.1362312,6.1362312 0 1 1 10.52565,6.30883 6.1362312,6.1362312 0 0 0 10.36765,6.56525 6.1362312,6.1362312 0 1 1 10.20342,6.8177 6.1362312,6.1362312 0 0 0 10.03302,7.06605 6.1362312,6.1362312 0 1 1 9.85659,7.31015 6.1362312,6.1362312 0 0 0 9.67422,7.54984 6.1362312,6.1362312 0 1 1 9.48603,7.78498 6.1362312,6.1362312 0 0 0 9.29212,8.01543 6.1362312,6.1362312 0 1 1 9.09261,8.24106 6.1362312,6.1362312 0 0 0 8.88762,8.46173 6.1362312,6.1362312 0 1 1 8.67729,8.67729 6.1362312,6.1362312 0 0 0 8.46173,8.88762 6.1362312,6.1362312 0 1 1 8.24106,9.09261 6.1362312,6.1362312 0 0 0 8.01543,9.29212 6.1362312,6.1362312 0 1 1 7.78498,9.48603 6.1362312,6.1362312 0 0 0 7.54984,9.67422 6.1362312,6.1362312 0 1 1 7.31015,9.85659 6.1362312,6.1362312 0 0 0 7.06605,10.03302 6.1362312,6.1362312 0 1 1 6.8177,10.20342 6.1362312,6.1362312 0 0 0 6.56525,10.36765 6.1362312,6.1362312 0 1 1 6.30883,10.52565 6.1362312,6.1362312 0 0 0 6.04862,10.6773 6.1362312,6.1362312 0 1 1 5.78476,10.82253 6.1362312,6.1362312 0 0 0 5.51742,10.96124 6.1362312,6.1362312 0 1 1 5.24676,11.09334 6.1362312,6.1362312 0 0 0 4.97294,11.21876 6.1362312,6.1362312 0 1 1 4.69611,11.33742 6.1362312,6.1362312 0 0 0 4.41647,11.44926 6.1362312,6.1362312 0 1 1 4.13415,11.55419 6.1362312,6.1362312 0 0 0 3.84936,11.65218 6.1362312,6.1362312 0 1 1 3.56224,11.74313 6.1362312,6.1362312 0 0 0 3.27298,11.82701 6.1362312,6.1362312 0 1 1 2.98174,11.90378 6.1362312,6.1362312 0 0 0 2.68871,11.97336 6.1362312,6.1362312 0 1 1 2.39405,12.03575 6.1362312,6.1362312 0 0 0 2.09797,12.09087 6.1362312,6.1362312 0 1 1 1.80061,12.13872 6.1362312,6.1362312 0 0 0 1.50217,12.17925 6.1362312,6.1362312 0 1 1 1.20282,12.21244 6.1362312,6.1362312 0 0 0 0.90275,12.23829 6.1362312,6.1362312 0 1 1 0.60213,12.25676 6.1362312,6.1362312 0 0 0 0.30116,12.26784 6.1362312,6.1362312 0 1 1 0,12.27154 6.1362312,6.1362312 0 0 0 -0.30116,12.26784 6.1362312,6.1362312 0 1 1 -0.60213,12.25676 6.1362312,6.1362312 0 0 0 -0.90275,12.238286 6.1362312,6.1362312 0 1 1 -1.20282,12.212448 6.1362312,6.1362312 0 0 0 -1.50217,12.17925 6.1362312,6.1362312 0 1 1 -1.80061,12.138718 6.1362312,6.1362312 0 0 0 -2.09797,12.090872 6.1362312,6.1362312 0 1 1 -2.39405,12.035746 6.1362312,6.1362312 0 0 0 -2.68871,11.97336 6.1362312,6.1362312 0 1 1 -2.98174,11.90378 6.1362312,6.1362312 0 0 0 -3.27298,11.82701 6.1362312,6.1362312 0 1 1 -3.56224,11.74313 6.1362312,6.1362312 0 0 0 -3.84936,11.65218 6.1362312,6.1362312 0 1 1 -4.13415,11.55419 6.1362312,6.1362312 0 0 0 -4.41647,11.44926 6.1362312,6.1362312 0 1 1 -4.69611,11.33742 6.1362312,6.1362312 0 0 0 -4.97294,11.21876 6.1362312,6.1362312 0 1 1 -5.24676,11.09334 6.1362312,6.1362312 0 0 0 -5.51742,10.96124 6.1362312,6.1362312 0 1 1 -5.78476,10.82253 6.1362312,6.1362312 0 0 0 -6.04862,10.6773 6.1362312,6.1362312 0 1 1 -6.30883,10.52565 6.1362312,6.1362312 0 0 0 -6.56525,10.36765 6.1362312,6.1362312 0 1 1 -6.8177,10.20342 6.1362312,6.1362312 0 0 0 -7.06605,10.03302 6.1362312,6.1362312 0 1 1 -7.31015,9.85659 6.1362312,6.1362312 0 0 0 -7.54984,9.67422 6.1362312,6.1362312 0 1 1 -7.78498,9.48603 6.1362312,6.1362312 0 0 0 -8.01543,9.29212 6.1362312,6.1362312 0 1 1 -8.24106,9.09261 6.1362312,6.1362312 0 0 0 -8.46173,8.88762 6.1362312,6.1362312 0 1 1 -8.67729,8.67729 6.1362312,6.1362312 0 0 0 -8.88762,8.46173 6.1362312,6.1362312 0 1 1 -9.09261,8.24106 6.1362312,6.1362312 0 0 0 -9.29212,8.01543 6.1362312,6.1362312 0 1 1 -9.48603,7.78498 6.1362312,6.1362312 0 0 0 -9.67422,7.54984 6.1362312,6.1362312 0 1 1 -9.85659,7.31015 6.1362312,6.1362312 0 0 0 -10.03302,7.06605 6.1362312,6.1362312 0 1 1 -10.20342,6.8177 6.1362312,6.1362312 0 0 0 -10.36765,6.56525 6.1362312,6.1362312 0 1 1 -10.52565,6.30883 6.1362312,6.1362312 0 0 0 -10.6773,6.04862 6.1362312,6.1362312 0 1 1 -10.82253,5.78476 6.1362312,6.1362312 0 0 0 -10.96124,5.51742 6.1362312,6.1362312 0 1 1 -11.09334,5.24676 6.1362312,6.1362312 0 0 0 -11.21876,4.97294 6.1362312,6.1362312 0 1 1 -11.33742,4.69611 6.1362312,6.1362312 0 0 0 -11.44926,4.41647 6.1362312,6.1362312 0 1 1 -11.55419,4.13415 6.1362312,6.1362312 0 0 0 -11.65218,3.84936 6.1362312,6.1362312 0 1 1 -11.74313,3.56224 6.1362312,6.1362312 0 0 0 -11.82701,3.27298 6.1362312,6.1362312 0 1 1 -11.90378,2.98174 6.1362312,6.1362312 0 0 0 -11.97336,2.68871 6.1362312,6.1362312 0 1 1 -12.03575,2.39405 6.1362312,6.1362312 0 0 0 -12.09087,2.09797 6.1362312,6.1362312 0 1 1 -12.13872,1.80061 6.1362312,6.1362312 0 0 0 -12.17925,1.50217 6.1362312,6.1362312 0 1 1 -12.21244,1.20282 6.1362312,6.1362312 0 0 0 -12.23829,0.90275 6.1362312,6.1362312 0 1 1 -12.25676,0.60213 6.1362312,6.1362312 0 0 0 -12.26784,0.30116 6.1362312,6.1362312 0 1 1 -12.27154,0 6.1362312,6.1362312 0 0 0 -12.26784,-0.30116 6.1362312,6.1362312 0 1 1 -12.25676,-0.60213 6.1362312,6.1362312 0 0 0 -12.23829,-0.90275 6.1362312,6.1362312 0 1 1 -12.21244,-1.20282 6.1362312,6.1362312 0 0 0 -12.17925,-1.50217 6.1362312,6.1362312 0 1 1 -12.13872,-1.80061 6.1362312,6.1362312 0 0 0 -12.09087,-2.09797 6.1362312,6.1362312 0 1 1 -12.03575,-2.39405 6.1362312,6.1362312 0 0 0 -11.97336,-2.68871 6.1362312,6.1362312 0 1 1 -11.90378,-2.98174 6.1362312,6.1362312 0 0 0 -11.82701,-3.27298 6.1362312,6.1362312 0 1 1 -11.74313,-3.56224 6.1362312,6.1362312 0 0 0 -11.65218,-3.84936 6.1362312,6.1362312 0 1 1 -11.55419,-4.13415 6.1362312,6.1362312 0 0 0 -11.44926,-4.41647 6.1362312,6.1362312 0 1 1 -11.33742,-4.69611 6.1362312,6.1362312 0 0 0 -11.21876,-4.97294 6.1362312,6.1362312 0 1 1 -11.09334,-5.24676 6.1362312,6.1362312 0 0 0 -10.96124,-5.51742 6.1362312,6.1362312 0 1 1 -10.82253,-5.78476 6.1362312,6.1362312 0 0 0 -10.6773,-6.04862 6.1362312,6.1362312 0 1 1 -10.52565,-6.30883 6.1362312,6.1362312 0 0 0 -10.36765,-6.56525 6.1362312,6.1362312 0 1 1 -10.20342,-6.8177 6.1362312,6.1362312 0 0 0 -10.03302,-7.06605 6.1362312,6.1362312 0 1 1 -9.85659,-7.31015 6.1362312,6.1362312 0 0 0 -9.67422,-7.54984 6.1362312,6.1362312 0 1 1 -9.48606,-7.78498 6.1362312,6.1362312 0 0 0 -9.2921,-8.01543 6.1362312,6.1362312 0 1 1 -9.0926,-8.24106 6.1362312,6.1362312 0 0 0 -8.8876,-8.46173 6.1362312,6.1362312 0 1 1 -8.6773,-8.67729 6.1362312,6.1362312 0 0 0 -8.4617,-8.88762 6.1362312,6.1362312 0 1 1 -8.2411,-9.09261 6.1362312,6.1362312 0 0 0 -8.0154,-9.29212 6.1362312,6.1362312 0 1 1 -7.785,-9.48603 6.1362312,6.1362312 0 0 0 -7.5499,-9.67422 6.1362312,6.1362312 0 1 1 -7.3101,-9.85659 6.1362312,6.1362312 0 0 0 -7.0661,-10.03302 6.1362312,6.1362312 0 1 1 -6.8177,-10.20342 6.1362312,6.1362312 0 0 0 -6.5652,-10.36765 6.1362312,6.1362312 0 1 1 -6.3088,-10.52565 6.1362312,6.1362312 0 0 0 -6.0487,-10.6773 6.1362312,6.1362312 0 1 1 -5.7847,-10.82253 6.1362312,6.1362312 0 0 0 -5.5174,-10.96124 6.1362312,6.1362312 0 1 1 -5.2468,-11.09334 6.1362312,6.1362312 0 0 0 -4.9729,-11.21876 6.1362312,6.1362312 0 1 1 -4.6961,-11.33742 6.1362312,6.1362312 0 0 0 -4.4165,-11.44926 6.1362312,6.1362312 0 1 1 -4.1342,-11.55419 6.1362312,6.1362312 0 0 0 -3.8493,-11.65218 6.1362312,6.1362312 0 1 1 -3.5623,-11.74313 6.1362312,6.1362312 0 0 0 -3.2729,-11.82701 6.1362312,6.1362312 0 1 1 -2.9818,-11.90378 6.1362312,6.1362312 0 0 0 -2.6887,-11.97336 6.1362312,6.1362312 0 1 1 -2.394,-12.035746 6.1362312,6.1362312 0 0 0 -2.098,-12.090872 6.1362312,6.1362312 0 1 1 -1.8006,-12.138718 6.1362312,6.1362312 0 0 0 -1.5022,-12.17925 6.1362312,6.1362312 0 1 1 -1.2028,-12.212448 6.1362312,6.1362312 0 0 0 -0.9028,-12.238286 6.1362312,6.1362312 0 1 1 -0.6021,-12.25676 6.1362312,6.1362312 0 0 0 -0.3012,-12.26784 6.1362312,6.1362312 0 1 1 0,-12.27154 6.1362312,6.1362312 0 0 0 0.3012,-12.26784 6.1362312,6.1362312 0 1 1 0.6021,-12.25676 6.1362312,6.1362312 0 0 0 0.9028,-12.23829 6.1362312,6.1362312 0 1 1 1.2028,-12.21244 6.1362312,6.1362312 0 0 0 1.5022,-12.17925 6.1362312,6.1362312 0 1 1 1.8006,-12.13872 6.1362312,6.1362312 0 0 0 2.098,-12.09087 6.1362312,6.1362312 0 1 1 2.394,-12.03575 6.1362312,6.1362312 0 0 0 2.6887,-11.97336 6.1362312,6.1362312 0 1 1 2.9818,-11.90378 6.1362312,6.1362312 0 0 0 3.2729,-11.82701 6.1362312,6.1362312 0 1 1 3.5623,-11.74313 6.1362312,6.1362312 0 0 0 3.8493,-11.65218 6.1362312,6.1362312 0 1 1 4.1342,-11.55419 6.1362312,6.1362312 0 0 0 4.4165,-11.44926 6.1362312,6.1362312 0 1 1 4.6961,-11.33742 6.1362312,6.1362312 0 0 0 4.9729,-11.21876 6.1362312,6.1362312 0 1 1 5.2468,-11.09334 6.1362312,6.1362312 0 0 0 5.5174,-10.96124 6.1362312,6.1362312 0 1 1 5.7847,-10.82253 6.1362312,6.1362312 0 0 0 6.0487,-10.6773 6.1362312,6.1362312 0 1 1 6.3088,-10.52565 6.1362312,6.1362312 0 0 0 6.5652,-10.36765 6.1362312,6.1362312 0 1 1 6.8177,-10.20342 6.1362312,6.1362312 0 0 0 7.0661,-10.03302 6.1362312,6.1362312 0 1 1 7.3101,-9.85659 6.1362312,6.1362312 0 0 0 7.5499,-9.67422 6.1362312,6.1362312 0 1 1 7.785,-9.48603 6.1362312,6.1362312 0 0 0 8.0154,-9.29212 6.1362312,6.1362312 0 1 1 8.2411,-9.09261 6.1362312,6.1362312 0 0 0 8.4617,-8.88762 6.1362312,6.1362312 0 1 1 8.6773,-8.67729 6.1362312,6.1362312 0 0 0 8.8876,-8.46173 6.1362312,6.1362312 0 1 1 9.0926,-8.24106 6.1362312,6.1362312 0 0 0 9.2921,-8.01543 6.1362312,6.1362312 0 1 1 9.48606,-7.78498 6.1362312,6.1362312 0 0 0 9.67422,-7.54984 6.1362312,6.1362312 0 1 1 9.85659,-7.31015 6.1362312,6.1362312 0 0 0 10.03302,-7.06605 6.1362312,6.1362312 0 1 1 10.20342,-6.8177 6.1362312,6.1362312 0 0 0 10.36765,-6.56525 6.1362312,6.1362312 0 1 1 10.52565,-6.30883 6.1362312,6.1362312 0 0 0 10.6773,-6.04862 6.1362312,6.1362312 0 1 1 10.82253,-5.78476 6.1362312,6.1362312 0 0 0 10.96124,-5.51742 6.1362312,6.1362312 0 1 1 11.09334,-5.24676 6.1362312,6.1362312 0 0 0 11.21876,-4.97294 6.1362312,6.1362312 0 1 1 11.33742,-4.69611 6.1362312,6.1362312 0 0 0 11.44926,-4.41647 6.1362312,6.1362312 0 1 1 11.55419,-4.13415 6.1362312,6.1362312 0 0 0 11.65218,-3.84936 6.1362312,6.1362312 0 1 1 11.74313,-3.56224 6.1362312,6.1362312 0 0 0 11.82701,-3.27298 6.1362312,6.1362312 0 1 1 11.90378,-2.98174 6.1362312,6.1362312 0 0 0 11.97336,-2.68871 6.1362312,6.1362312 0 1 1 12.03575,-2.39405 6.1362312,6.1362312 0 0 0 12.09087,-2.09797 6.1362312,6.1362312 0 1 1 12.13872,-1.80061 6.1362312,6.1362312 0 0 0 12.17925,-1.50217 6.1362312,6.1362312 0 1 1 12.21244,-1.20282 6.1362312,6.1362312 0 0 0 12.23829,-0.90275 6.1362312,6.1362312 0 1 1 12.25676,-0.60213 6.1362312,6.1362312 0 0 0 12.26784,-0.30116"
     fill="none"
     stroke="blue"
     stroke-width="4"
     inkscape:label="curve 10"
     style="display:none;fill:#0000ff;fill-opacity:1;stroke:none" />
  <rect
     style="fill:none;fill-rule:evenodd;stroke:#000000;stroke-opacity:1;stroke-width:2;stroke-dasharray:none"
     id="rect1"
     width="2640"
     height="1720"
     x="-2000"
     y="-1000"
     ry="1.4551914e-11" />
</svg>
