<?xml version="1.0" encoding="UTF-8" standalone="no"?>
<!-- Created with Inkscape (http://www.inkscape.org/) -->

<svg
   width="491.4039mm"
   height="251.00551mm"
   viewBox="0 0 491.4039 251.00551"
   version="1.1"
   id="svg1"
   inkscape:version="1.3.2 (091e20e, 2023-11-25, custom)"
   sodipodi:docname="EdwardsVenn3.svg"
   xmlns:inkscape="http://www.inkscape.org/namespaces/inkscape"
   xmlns:sodipodi="http://sodipodi.sourceforge.net/DTD/sodipodi-0.dtd"
   xmlns="http://www.w3.org/2000/svg"
   xmlns:svg="http://www.w3.org/2000/svg">
  <sodipodi:namedview
     id="namedview1"
     pagecolor="#ffffff"
     bordercolor="#000000"
     borderopacity="0.25"
     inkscape:showpageshadow="2"
     inkscape:pageopacity="0.0"
     inkscape:pagecheckerboard="0"
     inkscape:deskcolor="#d1d1d1"
     inkscape:document-units="mm"
     showgrid="true"
     inkscape:zoom="0.86993082"
     inkscape:cx="867.88511"
     inkscape:cy="344.28025"
     inkscape:window-width="3840"
     inkscape:window-height="1577"
     inkscape:window-x="-8"
     inkscape:window-y="-8"
     inkscape:window-maximized="1"
     inkscape:current-layer="layer1">
    <inkscape:grid
       id="grid1"
       units="mm"
       originx="110.90389"
       originy="30.610152"
       spacingx="0.99999998"
       spacingy="1"
       empcolor="#0099e5"
       empopacity="0.30196078"
       color="#0099e5"
       opacity="0.14901961"
       empspacing="5"
       dotted="false"
       gridanglex="30"
       gridanglez="30"
       visible="true" />
  </sodipodi:namedview>
  <defs
     id="defs1" />
  <g
     inkscape:label="Layer 1"
     inkscape:groupmode="layer"
     id="layer1"
     transform="translate(110.90389,30.610152)">
    <path
       id="rect12"
       style="fill:none;fill-rule:evenodd;stroke-width:0.264751;fill-opacity:1"
       d="M 134.73538 -30.763114 L 134.73538 94.968229 L 380.50022 94.968229 L 380.50022 -30.763114 L 134.73538 -30.763114 z M 134.73538 94.968229 L -111.02946 94.968229 L -111.02946 220.3952 L 134.73538 220.3952 L 134.73538 94.968229 z " />
    <path
       id="circle2"
       style="font-variation-settings:normal;opacity:1;fill:#0000ff;fill-opacity:1;fill-rule:evenodd;stroke:#000000;stroke-width:1;stroke-linecap:butt;stroke-linejoin:miter;stroke-miterlimit:4;stroke-dasharray:none;stroke-dashoffset:0;stroke-opacity:1;stop-color:#000000;stop-opacity:1"
       d="M 134.73538 -30.763114 L 134.73538 9.908305 A 85.164375 85.164375 0 0 1 134.95087 9.8928021 A 85.164375 85.164375 0 0 1 220.11363 94.968229 L 380.50022 94.968229 L 380.50022 -30.763114 L 134.73538 -30.763114 z M 220.11363 94.968229 L 134.73538 94.968229 L 134.73538 180.20592 A 85.164375 85.164375 0 0 0 134.95087 180.22142 A 85.164375 85.164375 0 0 0 220.1157 95.057113 A 85.164375 85.164375 0 0 0 220.11363 94.968229 z M 134.73538 180.20592 A 85.164375 85.164375 0 0 1 49.78656 95.057113 A 85.164375 85.164375 0 0 1 49.792761 94.968229 L -111.02946 94.968229 L -111.02946 220.3952 L 134.73538 220.3952 L 134.73538 180.20592 z M 49.792761 94.968229 L 134.73538 94.968229 L 134.73538 9.908305 A 85.164375 85.164375 0 0 0 49.792761 94.968229 z " />
    <path
       style="font-variation-settings:normal;display:none;opacity:1;fill:#ffff00;fill-opacity:1;fill-rule:evenodd;stroke:#000000;stroke-width:1;stroke-linecap:butt;stroke-linejoin:miter;stroke-miterlimit:4;stroke-dasharray:none;stroke-dashoffset:0;stroke-opacity:1;stop-color:#000000;stop-opacity:1"
       id="path7"
       sodipodi:type="arc"
       sodipodi:cx="14.787548"
       sodipodi:cy="94.968117"
       sodipodi:rx="85.164375"
       sodipodi:ry="85.164375"
       sodipodi:start="0.79466451"
       sodipodi:end="5.4953014"
       sodipodi:arc-type="arc"
       d="m 74.447256,155.74385 a 85.164375,85.164375 0 0 1 -120.20127,-0.8784 85.164375,85.164375 0 0 1 0.407529,-120.203791 85.164375,85.164375 0 0 1 120.204462,-0.06336"
       sodipodi:open="true" />
    <path
       style="font-variation-settings:normal;display:none;opacity:1;fill:#ffff00;fill-opacity:1;fill-rule:evenodd;stroke:#000000;stroke-width:1;stroke-linecap:butt;stroke-linejoin:miter;stroke-miterlimit:4;stroke-dasharray:none;stroke-dashoffset:0;stroke-opacity:1;stop-color:#000000;stop-opacity:1"
       id="path5"
       sodipodi:type="arc"
       sodipodi:cx="-255.06621"
       sodipodi:cy="94.816048"
       sodipodi:rx="85.164375"
       sodipodi:ry="85.164375"
       sodipodi:start="0.79466451"
       sodipodi:end="5.4953014"
       sodipodi:arc-type="arc"
       d="m -195.4065,155.59178 a 85.164375,85.164375 0 0 1 -120.20127,-0.8784 85.164375,85.164375 0 0 1 0.40753,-120.20379 85.164375,85.164375 0 0 1 120.20446,-0.06336"
       transform="scale(-1,1)"
       sodipodi:open="true" />
    <path
       sodipodi:type="star"
       style="display:none;fill:none;stroke:#000000;stroke-width:0.2;stroke-linecap:round;stroke-linejoin:round;stroke-dasharray:none;stroke-opacity:1;paint-order:markers fill stroke"
       id="path6"
       inkscape:flatsided="false"
       sodipodi:sides="8"
       sodipodi:cx="134.8436"
       sodipodi:cy="95.057205"
       sodipodi:r1="85.119286"
       sodipodi:r2="42.559639"
       sodipodi:arg1="1.5707963"
       sodipodi:arg2="1.9634954"
       inkscape:rounded="0"
       inkscape:randomized="0"
       d="M 134.8436,180.17649 118.55673,134.37718 74.655175,155.24563 95.523618,111.34407 49.724312,95.057207 95.523618,78.770337 74.655172,34.868783 118.55673,55.737226 134.8436,9.9379196 151.13047,55.737226 195.03202,34.86878 l -20.86844,43.901556 45.7993,16.286867 -45.7993,16.286867 20.86844,43.90156 -43.90155,-20.86845 z"
       inkscape:transform-center-x="1.6988169e-06"
       inkscape:transform-center-y="-1.1975711e-06" />
    <path
       style="font-variation-settings:normal;display:none;opacity:1;fill:none;fill-opacity:1;fill-rule:evenodd;stroke:#000000;stroke-width:1;stroke-linecap:butt;stroke-linejoin:miter;stroke-miterlimit:4;stroke-dasharray:none;stroke-dashoffset:0;stroke-opacity:1;stop-color:#000000;stop-opacity:1"
       id="path8"
       sodipodi:type="arc"
       sodipodi:cx="25.763924"
       sodipodi:cy="-135.09985"
       sodipodi:rx="85.164375"
       sodipodi:ry="85.164375"
       sodipodi:start="2.3579222"
       sodipodi:end="3.9182106"
       sodipodi:arc-type="arc"
       d="M -34.560337,-74.983679 A 85.164375,85.164375 0 0 1 -34.982803,-194.7891"
       transform="matrix(0,-1,-1,0,0,0)"
       sodipodi:open="true" />
    <path
       style="font-variation-settings:normal;display:none;opacity:1;fill:none;fill-opacity:1;fill-rule:evenodd;stroke:#000000;stroke-width:1;stroke-linecap:butt;stroke-linejoin:miter;stroke-miterlimit:4;stroke-dasharray:none;stroke-dashoffset:0;stroke-opacity:1;stop-color:#000000;stop-opacity:1"
       id="path9"
       sodipodi:type="arc"
       sodipodi:cx="215.67741"
       sodipodi:cy="-135.20738"
       sodipodi:rx="85.164375"
       sodipodi:ry="85.164375"
       sodipodi:start="2.3579222"
       sodipodi:end="3.9182106"
       sodipodi:arc-type="arc"
       d="M 155.35315,-75.091208 A 85.164375,85.164375 0 0 1 154.93069,-194.89663"
       transform="rotate(90)"
       sodipodi:open="true" />
    <path
       style="fill:none;stroke:#000000;stroke-width:1;stroke-linecap:round;stroke-linejoin:round;stroke-dasharray:none;stroke-opacity:1;paint-order:markers fill stroke"
       d="m 134.73533,-30.110152 0.30414,250.005512"
       id="path10" />
    <path
       style="fill:none;stroke:#000000;stroke-width:1;stroke-linecap:round;stroke-linejoin:round;stroke-dasharray:none;stroke-opacity:1;paint-order:markers fill stroke"
       d="M -110.40389,94.968122 379.99999,95 v 0"
       id="path11"
       sodipodi:nodetypes="ccc" />
  </g>
</svg>
