<?xml version="1.0" encoding="UTF-8" standalone="no"?>
<!-- Created with Inkscape (http://www.inkscape.org/) -->

<svg
   version="1.1"
   id="svg1"
   width="580"
   height="542.66669"
   viewBox="0 0 580 542.66669"
   sodipodi:docname="Ellipse7green.svg"
   inkscape:version="1.3.2 (091e20e, 2023-11-25, custom)"
   xmlns:inkscape="http://www.inkscape.org/namespaces/inkscape"
   xmlns:sodipodi="http://sodipodi.sourceforge.net/DTD/sodipodi-0.dtd"
   xmlns="http://www.w3.org/2000/svg"
   xmlns:svg="http://www.w3.org/2000/svg">
  <defs
     id="defs1" />
  <sodipodi:namedview
     id="namedview1"
     pagecolor="#ffffff"
     bordercolor="#000000"
     borderopacity="0.25"
     inkscape:showpageshadow="2"
     inkscape:pageopacity="0.0"
     inkscape:pagecheckerboard="0"
     inkscape:deskcolor="#d1d1d1"
     inkscape:zoom="1.7994738"
     inkscape:cx="106.14214"
     inkscape:cy="282.02689"
     inkscape:window-width="3840"
     inkscape:window-height="1577"
     inkscape:window-x="-8"
     inkscape:window-y="-8"
     inkscape:window-maximized="1"
     inkscape:current-layer="g1">
    <inkscape:page
       x="0"
       y="0"
       inkscape:label="1"
       id="page1"
       width="580"
       height="542.66669"
       margin="0"
       bleed="0" />
  </sodipodi:namedview>
  <g
     id="g1"
     inkscape:groupmode="layer"
     inkscape:label="1">
    <path
       id="path1"
       d="m 2.005,-1.6058984 c -0.4804687,0 -0.8789062,0.421875 -0.8789062,0.91406246 0,0.46875 0.3984375,0.8671875 0.8554687,0.8671875 0.5039063,0 0.9140625,-0.3984375 0.9140625,-0.8671875 0,-0.49218746 -0.4101562,-0.91406246 -0.890625,-0.91406246 z m 0,0"
       style="fill:#00ff00;fill-opacity:1;fill-rule:nonzero;stroke:none"
       aria-label="."
       transform="matrix(1.3333333,0,0,1.3333333,572.82667,208.74667)" />
    <path
       id="path2"
       d="m 2039,3418.8 c 0,-62.96 -51.04,-114 -114,-114 -62.96,0 -114,51.04 -114,114 0,62.96 51.04,114 114,114 62.96,0 114,-51.04 114,-114 z"
       style="fill:none;stroke:#000000;stroke-width:4.5;stroke-linecap:butt;stroke-linejoin:miter;stroke-miterlimit:10;stroke-dasharray:none;stroke-opacity:1"
       transform="matrix(0.13333333,0,0,-0.13333333,0,542.66667)" />
    <path
       id="path3"
       d="m 2043.2,3415.2 c 0,-128.9 -104.5,-233.4 -233.4,-233.4 -128.9,0 -233.4,104.5 -233.4,233.4 0,128.9 104.5,233.4 233.4,233.4 128.9,0 233.4,-104.5 233.4,-233.4 z"
       style="fill:none;stroke:#000000;stroke-width:4.5;stroke-linecap:butt;stroke-linejoin:miter;stroke-miterlimit:10;stroke-dasharray:none;stroke-opacity:1"
       transform="matrix(0.13333333,0,0,-0.13333333,0,542.66667)" />
    <path
       id="path4"
       d="m 3471.2,2155.2 c 0,-62.96 -51.04,-114 -114,-114 -62.96,0 -114,51.04 -114,114 0,62.96 51.04,114 114,114 62.96,0 114,-51.04 114,-114 z"
       style="fill:none;stroke:#000000;stroke-width:4.5;stroke-linecap:butt;stroke-linejoin:miter;stroke-miterlimit:10;stroke-dasharray:none;stroke-opacity:1"
       transform="matrix(0.13333333,0,0,-0.13333333,0,542.66667)" />
    <path
       id="path5"
       d="m 3454.4,1921.2 c 0,-62.96 -51.04,-114 -114,-114 -62.96,0 -114,51.04 -114,114 0,62.96 51.04,114 114,114 62.96,0 114,-51.04 114,-114 z"
       style="fill:none;stroke:#000000;stroke-width:4.5;stroke-linecap:butt;stroke-linejoin:miter;stroke-miterlimit:10;stroke-dasharray:none;stroke-opacity:1"
       transform="matrix(0.13333333,0,0,-0.13333333,0,542.66667)" />
    <path
       id="path6"
       d="m 3597.8,2044.2 c 0,-128.9 -104.5,-233.4 -233.4,-233.4 -128.9,0 -233.4,104.5 -233.4,233.4 0,128.9 104.5,233.4 233.4,233.4 128.9,0 233.4,-104.5 233.4,-233.4 z"
       style="fill:none;stroke:#000000;stroke-width:4.5;stroke-linecap:butt;stroke-linejoin:miter;stroke-miterlimit:10;stroke-dasharray:none;stroke-opacity:1"
       transform="matrix(0.13333333,0,0,-0.13333333,0,542.66667)" />
    <path
       id="path7"
       d="m 3321.9,2504.36 c 126.41,26.83 239.33,-0.55 252.2,-61.16 12.86,-60.62 -79.19,-131.52 -205.6,-158.35 -126.41,-26.84 -239.33,0.54 -252.2,61.15 -12.87,60.62 79.18,131.52 205.6,158.36 z"
       style="fill:none;stroke:#000000;stroke-width:4.5;stroke-linecap:butt;stroke-linejoin:miter;stroke-miterlimit:10;stroke-dasharray:none;stroke-opacity:1"
       transform="matrix(0.13333333,0,0,-0.13333333,0,542.66667)" />
    <path
       id="path8"
       d="m 3455.6,2721 c 0,-128.9 -104.5,-233.4 -233.4,-233.4 -128.9,0 -233.4,104.5 -233.4,233.4 0,128.9 104.5,233.4 233.4,233.4 128.9,0 233.4,-104.5 233.4,-233.4 z"
       style="fill:none;stroke:#000000;stroke-width:4.5;stroke-linecap:butt;stroke-linejoin:miter;stroke-miterlimit:10;stroke-dasharray:none;stroke-opacity:1"
       transform="matrix(0.13333333,0,0,-0.13333333,0,542.66667)" />
    <path
       id="path9"
       d="m 3435.2,2389.2 c 0,-62.96 -51.04,-114 -114,-114 -62.96,0 -114,51.04 -114,114 0,62.96 51.04,114 114,114 62.96,0 114,-51.04 114,-114 z"
       style="fill:none;stroke:#000000;stroke-width:4.5;stroke-linecap:butt;stroke-linejoin:miter;stroke-miterlimit:10;stroke-dasharray:none;stroke-opacity:1"
       transform="matrix(0.13333333,0,0,-0.13333333,0,542.66667)" />
    <path
       id="path10"
       d="m 3489.2,1572 c 0,-128.9 -104.5,-233.4 -233.4,-233.4 -128.9,0 -233.4,104.5 -233.4,233.4 0,128.9 104.5,233.4 233.4,233.4 128.9,0 233.4,-104.5 233.4,-233.4 z"
       style="fill:none;stroke:#000000;stroke-width:4.5;stroke-linecap:butt;stroke-linejoin:miter;stroke-miterlimit:10;stroke-dasharray:none;stroke-opacity:1"
       transform="matrix(0.13333333,0,0,-0.13333333,0,542.66667)" />
    <path
       id="path11"
       d="m 4095.2,2416.2 c 0,-347.94 -282.06,-630 -630,-630 -347.94,0 -630,282.06 -630,630 0,347.94 282.06,630 630,630 347.94,0 630,-282.06 630,-630 z"
       style="fill:none;stroke:#000000;stroke-width:4.5;stroke-linecap:butt;stroke-linejoin:miter;stroke-miterlimit:10;stroke-dasharray:none;stroke-opacity:1"
       transform="matrix(0.13333333,0,0,-0.13333333,0,542.66667)" />
    <path
       id="path12"
       d="m 3407,1687.2 c 0,-62.96 -51.04,-114 -114,-114 -62.96,0 -114,51.04 -114,114 0,62.96 51.04,114 114,114 62.96,0 114,-51.04 114,-114 z"
       style="fill:none;stroke:#000000;stroke-width:4.5;stroke-linecap:butt;stroke-linejoin:miter;stroke-miterlimit:10;stroke-dasharray:none;stroke-opacity:1"
       transform="matrix(0.13333333,0,0,-0.13333333,0,542.66667)" />
    <path
       id="path13"
       d="m 3142.22,1360.39 c 100.42,-81.34 150.21,-186.32 111.21,-234.47 -39,-48.15 -152.03,-21.25 -252.45,60.09 -100.42,81.34 -150.21,186.33 -111.21,234.47 39,48.15 152.03,21.25 252.45,-60.09 z"
       style="fill:none;stroke:#000000;stroke-width:4.5;stroke-linecap:butt;stroke-linejoin:miter;stroke-miterlimit:10;stroke-dasharray:none;stroke-opacity:1"
       transform="matrix(0.13333333,0,0,-0.13333333,0,542.66667)" />
    <path
       id="path14"
       d="m 3179,1278 c 0,-62.96 -51.04,-114 -114,-114 -62.96,0 -114,51.04 -114,114 0,62.96 51.04,114 114,114 62.96,0 114,-51.04 114,-114 z"
       style="fill:none;stroke:#000000;stroke-width:4.5;stroke-linecap:butt;stroke-linejoin:miter;stroke-miterlimit:10;stroke-dasharray:none;stroke-opacity:1"
       transform="matrix(0.13333333,0,0,-0.13333333,0,542.66667)" />
    <path
       id="path15"
       d="m 2603.6,886.801 c 0,-62.957 -51.04,-114 -114,-114 -62.96,0 -114,51.043 -114,114 0,62.957 51.04,113.999 114,113.999 62.96,0 114,-51.042 114,-113.999 z"
       style="fill:none;stroke:#000000;stroke-width:4.5;stroke-linecap:butt;stroke-linejoin:miter;stroke-miterlimit:10;stroke-dasharray:none;stroke-opacity:1"
       transform="matrix(0.13333333,0,0,-0.13333333,0,542.66667)" />
    <path
       id="path16"
       d="m 2621.6,822.602 c 0,-128.903 -104.5,-233.403 -233.4,-233.403 -128.9,0 -233.4,104.5 -233.4,233.403 0,128.902 104.5,233.398 233.4,233.398 128.9,0 233.4,-104.496 233.4,-233.398 z"
       style="fill:none;stroke:#000000;stroke-width:4.5;stroke-linecap:butt;stroke-linejoin:miter;stroke-miterlimit:10;stroke-dasharray:none;stroke-opacity:1"
       transform="matrix(0.13333333,0,0,-0.13333333,0,542.66667)" />
    <path
       id="path17"
       d="m 2667.2,634.199 c 0,-347.937 -282.06,-629.99978 -630,-629.99978 -347.94,0 -630,282.06278 -630,629.99978 0,347.938 282.06,630.001 630,630.001 347.94,0 630,-282.063 630,-630.001 z"
       style="fill:none;stroke:#000000;stroke-width:4.5;stroke-linecap:butt;stroke-linejoin:miter;stroke-miterlimit:10;stroke-dasharray:none;stroke-opacity:1"
       transform="matrix(0.13333333,0,0,-0.13333333,0,542.66667)" />
    <path
       id="path18"
       d="m 3803,1187.4 c 0,-347.939 -282.06,-630.002 -630,-630.002 -347.94,0 -630,282.063 -630,630.002 0,347.94 282.06,630 630,630 347.94,0 630,-282.06 630,-630 z"
       style="fill:none;stroke:#000000;stroke-width:4.5;stroke-linecap:butt;stroke-linejoin:miter;stroke-miterlimit:10;stroke-dasharray:none;stroke-opacity:1"
       transform="matrix(0.13333333,0,0,-0.13333333,0,542.66667)" />
    <path
       id="path19"
       d="m 2826.2,975 c 0,-62.957 -51.04,-114 -114,-114 -62.96,0 -114,51.043 -114,114 0,62.96 51.04,114 114,114 62.96,0 114,-51.04 114,-114 z"
       style="fill:none;stroke:#000000;stroke-width:4.5;stroke-linecap:butt;stroke-linejoin:miter;stroke-miterlimit:10;stroke-dasharray:none;stroke-opacity:1"
       transform="matrix(0.13333333,0,0,-0.13333333,0,542.66667)" />
    <path
       id="path20"
       d="m 3048.8,1036.8 c 0,-128.902 -104.5,-233.402 -233.4,-233.402 -128.9,0 -233.4,104.5 -233.4,233.402 0,128.9 104.5,233.4 233.4,233.4 128.9,0 233.4,-104.5 233.4,-233.4 z"
       style="fill:none;stroke:#000000;stroke-width:4.5;stroke-linecap:butt;stroke-linejoin:miter;stroke-miterlimit:10;stroke-dasharray:none;stroke-opacity:1"
       transform="matrix(0.13333333,0,0,-0.13333333,0,542.66667)" />
    <path
       id="path21"
       d="m 1928,829.801 c 0,-128.903 -104.5,-233.403 -233.4,-233.403 -128.9,0 -233.4,104.5 -233.4,233.403 0,128.902 104.5,233.399 233.4,233.399 128.9,0 233.4,-104.497 233.4,-233.399 z"
       style="fill:none;stroke:#000000;stroke-width:4.5;stroke-linecap:butt;stroke-linejoin:miter;stroke-miterlimit:10;stroke-dasharray:none;stroke-opacity:1"
       transform="matrix(0.13333333,0,0,-0.13333333,0,542.66667)" />
    <path
       id="path22"
       d="m 1923.8,828 c 0,-62.957 -51.04,-114 -114,-114 -62.96,0 -114,51.043 -114,114 0,62.957 51.04,114 114,114 62.96,0 114,-51.043 114,-114 z"
       style="fill:none;stroke:#000000;stroke-width:4.5;stroke-linecap:butt;stroke-linejoin:miter;stroke-miterlimit:10;stroke-dasharray:none;stroke-opacity:1"
       transform="matrix(0.13333333,0,0,-0.13333333,0,542.66667)" />
    <path
       id="path23"
       d="m 2154.8,807 c 0,-62.957 -51.04,-114 -114,-114 -62.96,0 -114,51.043 -114,114 0,62.957 51.04,114 114,114 62.96,0 114,-51.043 114,-114 z"
       style="fill:none;stroke:#000000;stroke-width:4.5;stroke-linecap:butt;stroke-linejoin:miter;stroke-miterlimit:10;stroke-dasharray:none;stroke-opacity:1"
       transform="matrix(0.13333333,0,0,-0.13333333,0,542.66667)" />
    <path
       id="path24"
       d="m 3308,1475.4 c 0,-62.96 -51.04,-114 -114,-114 -62.96,0 -114,51.04 -114,114 0,62.96 51.04,114 114,114 62.96,0 114,-51.04 114,-114 z"
       style="fill:none;stroke:#000000;stroke-width:4.5;stroke-linecap:butt;stroke-linejoin:miter;stroke-miterlimit:10;stroke-dasharray:none;stroke-opacity:1"
       transform="matrix(0.13333333,0,0,-0.13333333,0,542.66667)" />
    <path
       id="path25"
       d="m 2048,801 232.8,20.402 225.6,61.2 211.2,100.796 189.6,136.802 162,168.6 129.6,195 92.4,214.8 52.8,227.4 11.4,234 -30.6,231.6 -71.4,222.6 -110.4,206.4 -145.2,183 -175.2,154.8 -200.4,120.6 -219,82.8 -229.8,42.6 -234,0.6 -230.4,-40.8 -219,-81.6 -201,-119.4 -177,-153.6 -146.398,-182.4 -111,-205.2 -73.204,-222 -31.796,-231.6 9.597,-234 51,-228 91.199,-215.4 128.402,-195.6 160.8,-169.8 189,-137.998 210.6,-102 225,-63 z"
       style="fill:none;stroke:#000000;stroke-width:4.5;stroke-linecap:butt;stroke-linejoin:miter;stroke-miterlimit:10;stroke-dasharray:none;stroke-opacity:1"
       transform="matrix(0.13333333,0,0,-0.13333333,0,542.66667)" />
    <path
       id="path26"
       d="m 4.6534375,-10.815078 -2.8710938,1.4531249 v 0.234375 c 0.1875,-0.082031 0.3632813,-0.1523438 0.421875,-0.1757813 0.2929688,-0.1171875 0.5625,-0.1757812 0.7265625,-0.1757812 0.328125,0 0.4804688,0.234375 0.4804688,0.75 v 7.2421875 c 0,0.52734373 -0.1289063,0.89062498 -0.3867188,1.04296873 -0.234375,0.140625 -0.46875,0.1875 -1.1367187,0.2109375 v 0.234375 h 4.4179687 v -0.234375 C 5.0401562,-0.25648437 4.7823437,-0.40882812 4.7823437,-1.1822656 v -9.5976564 z m -146.8710975,-0.37793 h -5.91796 l -0.94922,2.3554689 0.28125,0.1289063 c 0.67968,-1.0898438 0.97265,-1.3007812 1.85156,-1.3007812 h 3.46875 l -3.16406,9.53906244 h 1.04297 l 3.38671,-10.46484344 z m 250.91016,134.402348 -0.19922,-0.082 c -0.59766,0.91407 -0.80859,1.05469 -1.52344,1.05469 h -3.82031 l 2.68359,-2.8125 c 1.42969,-1.48828 2.05079,-2.70703 2.05079,-3.94922 0,-1.60547 -1.30079,-2.83593 -2.96485,-2.83593 -0.8789,0 -1.71094,0.35156 -2.29687,0.99609 -0.51563,0.53906 -0.75,1.05469 -1.03125,2.19141 l 0.33984,0.082 c 0.64453,-1.57032 1.21875,-2.08594 2.32031,-2.08594 1.34766,0 2.25,0.91406 2.25,2.26172 0,1.24219 -0.72656,2.73047 -2.07422,4.16015 l -2.84765,3.02344 v 0.1875 h 6.23437 z M 63.950312,273.42613 c 0.9375,0 1.3125,0.0234 1.699219,0.17578 0.984375,0.35157 1.605469,1.25391 1.605469,2.36719 0,1.33594 -0.902344,2.37891 -2.085938,2.37891 -0.433593,0 -0.761718,-0.11719 -1.347656,-0.49219 -0.480469,-0.29297 -0.75,-0.39844 -1.019531,-0.39844 -0.375,0 -0.609375,0.22266 -0.609375,0.55078 0,0.5625 0.679687,0.91407 1.804687,0.91407 1.230469,0 2.496094,-0.41016 3.246094,-1.06641 0.75,-0.65625 1.171875,-1.58203 1.171875,-2.66016 0,-0.82031 -0.257812,-1.57031 -0.726562,-2.0625 -0.316407,-0.35156 -0.621094,-0.53906 -1.324219,-0.84375 1.101562,-0.76171 1.5,-1.34765 1.5,-2.21484 0,-1.28906 -1.019531,-2.19141 -2.496094,-2.19141 -0.796875,0 -1.5,0.26954 -2.074219,0.78516 -0.480468,0.43359 -0.726562,0.84375 -1.078125,1.80469 l 0.246094,0.0703 c 0.65625,-1.17187 1.371094,-1.69922 2.378906,-1.69922 1.042969,0 1.757813,0.70313 1.757813,1.71094 0,0.57422 -0.234375,1.14844 -0.632813,1.55859 -0.480468,0.48047 -0.925781,0.71485 -2.015625,1.10157 z m -133.204101,69.38379 h -1.628906 v -7.125 h -0.703125 l -5.027344,7.125 v 1.01953 h 4.5 v 2.67188 h 1.230469 v -2.67188 h 1.628906 z m -2.871094,0 h -3.84375 l 3.84375,-5.49609 z M -209.20496,269.37145 h 3.14062 c 0.2461,0 0.31641,-0.0352 0.36329,-0.14063 l 0.60937,-1.42969 -0.14062,-0.10547 c -0.2461,0.33985 -0.41016,0.41016 -0.73829,0.41016 h -3.33984 l -1.74609,3.79688 c -0.0234,0.0352 -0.0234,0.0469 -0.0234,0.082 0,0.082 0.0703,0.1289 0.19922,0.1289 0.5039,0 1.14844,0.10547 1.80469,0.31641 1.83984,0.58594 2.68359,1.58203 2.68359,3.16406 0,1.53516 -0.97266,2.74219 -2.21484,2.74219 -0.32813,0 -0.59766,-0.11719 -1.07813,-0.46875 -0.51562,-0.36328 -0.87891,-0.52734 -1.21875,-0.52734 -0.45703,0 -0.67969,0.1875 -0.67969,0.58593 0,0.60938 0.75,0.9961 1.94532,0.9961 1.34765,0 2.49609,-0.4336 3.29296,-1.24219 0.73829,-0.72656 1.07813,-1.64063 1.07813,-2.84766 0,-1.16015 -0.30469,-1.88672 -1.10156,-2.69531 -0.70313,-0.70312 -1.61719,-1.06641 -3.50391,-1.40625 z m -34.15723,-158.21778 c -1.82812,0.16406 -2.7539,0.46875 -3.92578,1.28906 -1.72265,1.23047 -2.67187,3.04688 -2.67187,5.19141 0,1.39453 0.43359,2.80078 1.125,3.59766 0.60937,0.70312 1.47656,1.08984 2.46093,1.08984 1.98047,0 3.36329,-1.52344 3.36329,-3.72656 0,-2.05078 -1.17188,-3.33985 -3.01172,-3.33985 -0.70313,0 -1.04297,0.10547 -2.05078,0.71485 0.43359,-2.41406 2.22656,-4.13672 4.74609,-4.5586 z m -3.26953,4.83985 c 1.38281,0 2.17969,1.14843 2.17969,3.14062 0,1.76953 -0.62109,2.74219 -1.74609,2.74219 -1.40625,0 -2.27344,-1.5 -2.27344,-3.98438 0,-0.82031 0.1289,-1.26562 0.45703,-1.5 0.32812,-0.25781 0.83203,-0.39843 1.38281,-0.39843 z m 0,0"
       style="fill:#000000;fill-opacity:1;fill-rule:nonzero;stroke:none"
       aria-label="1&#10;7&#10;2&#10;3&#10;4&#10;5&#10;6"
       transform="matrix(1.3333333,0,0,1.3333333,372.82667,53.146667)" />
    <path
       id="path27"
       d="m 2.0032422,-1.6041406 c -0.4804688,0 -0.8789063,0.421875 -0.8789063,0.91406248 0,0.46875 0.3984375,0.8671875 0.8554688,0.8671875 0.5039062,0 0.9140625,-0.3984375 0.9140625,-0.8671875 0,-0.49218748 -0.4101563,-0.91406248 -0.890625,-0.91406248 z m 0,0"
       style="fill:#ffffff;fill-opacity:1;fill-rule:nonzero;stroke:none"
       aria-label="."
       transform="matrix(1.3333333,0,0,1.3333333,570.42667,219.14667)" />
    <path
       id="path28"
       d="m 1602.2,3283.8 c 0,-62.96 -51.04,-114 -114,-114 -62.96,0 -114,51.04 -114,114 0,62.96 51.04,114 114,114 62.96,0 114,-51.04 114,-114 z"
       style="fill:none;stroke:#000000;stroke-width:4.5;stroke-linecap:butt;stroke-linejoin:miter;stroke-miterlimit:10;stroke-dasharray:none;stroke-opacity:1"
       transform="matrix(0.13333333,0,0,-0.13333333,0,542.66667)" />
    <path
       id="path29"
       d="m 1265,2433 c 0,-347.94 -282.062,-630 -630,-630 -347.938,0 -630,282.06 -630,630 0,347.94 282.062,630 630,630 347.938,0 630,-282.06 630,-630 z"
       style="fill:none;stroke:#000000;stroke-width:4.5;stroke-linecap:butt;stroke-linejoin:miter;stroke-miterlimit:10;stroke-dasharray:none;stroke-opacity:1"
       transform="matrix(0.13333333,0,0,-0.13333333,0,542.66667)" />
    <path
       id="path30"
       d="m 920,1701 c 0,-62.96 -51.043,-114 -114,-114 -62.957,0 -114,51.04 -114,114 0,62.96 51.043,114 114,114 62.957,0 114,-51.04 114,-114 z"
       style="fill:none;stroke:#000000;stroke-width:4.5;stroke-linecap:butt;stroke-linejoin:miter;stroke-miterlimit:10;stroke-dasharray:none;stroke-opacity:1"
       transform="matrix(0.13333333,0,0,-0.13333333,0,542.66667)" />
    <path
       id="path31"
       d="m 3269,2826 c 0,-62.96 -51.04,-114 -114,-114 -62.96,0 -114,51.04 -114,114 0,62.96 51.04,114 114,114 62.96,0 114,-51.04 114,-114 z"
       style="fill:none;stroke:#000000;stroke-width:4.5;stroke-linecap:butt;stroke-linejoin:miter;stroke-miterlimit:10;stroke-dasharray:none;stroke-opacity:1"
       transform="matrix(0.13333333,0,0,-0.13333333,0,542.66667)" />
    <path
       id="path32"
       d="m 3113,3013.8 c 0,-62.96 -51.04,-114 -114,-114 -62.96,0 -114,51.04 -114,114 0,62.96 51.04,114 114,114 62.96,0 114,-51.04 114,-114 z"
       style="fill:none;stroke:#000000;stroke-width:4.5;stroke-linecap:butt;stroke-linejoin:miter;stroke-miterlimit:10;stroke-dasharray:none;stroke-opacity:1"
       transform="matrix(0.13333333,0,0,-0.13333333,0,542.66667)" />
    <path
       id="path33"
       d="m 3159.2,3106.8 c 0,-128.9 -104.5,-233.4 -233.4,-233.4 -128.9,0 -233.4,104.5 -233.4,233.4 0,128.9 104.5,233.4 233.4,233.4 128.9,0 233.4,-104.5 233.4,-233.4 z"
       style="fill:none;stroke:#000000;stroke-width:4.5;stroke-linecap:butt;stroke-linejoin:miter;stroke-miterlimit:10;stroke-dasharray:none;stroke-opacity:1"
       transform="matrix(0.13333333,0,0,-0.13333333,0,542.66667)" />
    <path
       id="path34"
       d="m 2936,3168 c 0,-62.96 -51.04,-114 -114,-114 -62.96,0 -114,51.04 -114,114 0,62.96 51.04,114 114,114 62.96,0 114,-51.04 114,-114 z"
       style="fill:none;stroke:#000000;stroke-width:4.5;stroke-linecap:butt;stroke-linejoin:miter;stroke-miterlimit:10;stroke-dasharray:none;stroke-opacity:1"
       transform="matrix(0.13333333,0,0,-0.13333333,0,542.66667)" />
    <path
       id="path35"
       d="m 2507,3358.8 c 0,-62.96 -51.04,-114 -114,-114 -62.96,0 -114,51.04 -114,114 0,62.96 51.04,114 114,114 62.96,0 114,-51.04 114,-114 z"
       style="fill:none;stroke:#000000;stroke-width:4.5;stroke-linecap:butt;stroke-linejoin:miter;stroke-miterlimit:10;stroke-dasharray:none;stroke-opacity:1"
       transform="matrix(0.13333333,0,0,-0.13333333,0,542.66667)" />
    <path
       id="path36"
       d="m 3012.2,1120.8 c 0,-62.96 -51.04,-114 -114,-114 -62.96,0 -114,51.04 -114,114 0,62.96 51.04,114 114,114 62.96,0 114,-51.04 114,-114 z"
       style="fill:none;stroke:#000000;stroke-width:4.5;stroke-linecap:butt;stroke-linejoin:miter;stroke-miterlimit:10;stroke-dasharray:none;stroke-opacity:1"
       transform="matrix(0.13333333,0,0,-0.13333333,0,542.66667)" />
    <path
       id="path37"
       d="m 2387,828 c 0,-62.957 -51.04,-114 -114,-114 -62.96,0 -114,51.043 -114,114 0,62.957 51.04,114 114,114 62.96,0 114,-51.043 114,-114 z"
       style="fill:none;stroke:#000000;stroke-width:4.5;stroke-linecap:butt;stroke-linejoin:miter;stroke-miterlimit:10;stroke-dasharray:none;stroke-opacity:1"
       transform="matrix(0.13333333,0,0,-0.13333333,0,542.66667)" />
    <path
       id="path38"
       d="m 1703,882 c 0,-62.957 -51.04,-114 -114,-114 -62.96,0 -114,51.043 -114,114 0,62.957 51.04,114 114,114 62.96,0 114,-51.043 114,-114 z"
       style="fill:none;stroke:#000000;stroke-width:4.5;stroke-linecap:butt;stroke-linejoin:miter;stroke-miterlimit:10;stroke-dasharray:none;stroke-opacity:1"
       transform="matrix(0.13333333,0,0,-0.13333333,0,542.66667)" />
    <path
       id="path39"
       d="m 1512.2,1045.8 c 0,-128.902 -104.5,-233.402 -233.4,-233.402 -128.9,0 -233.4,104.5 -233.4,233.402 0,128.9 104.5,233.4 233.4,233.4 128.9,0 233.4,-104.5 233.4,-233.4 z"
       style="fill:none;stroke:#000000;stroke-width:4.5;stroke-linecap:butt;stroke-linejoin:miter;stroke-miterlimit:10;stroke-dasharray:none;stroke-opacity:1"
       transform="matrix(0.13333333,0,0,-0.13333333,0,542.66667)" />
    <path
       id="path40"
       d="m 1496,990 c 0,-62.957 -51.04,-114 -114,-114 -62.96,0 -114,51.043 -114,114 0,62.96 51.04,114 114,114 62.96,0 114,-51.04 114,-114 z"
       style="fill:none;stroke:#000000;stroke-width:4.5;stroke-linecap:butt;stroke-linejoin:miter;stroke-miterlimit:10;stroke-dasharray:none;stroke-opacity:1"
       transform="matrix(0.13333333,0,0,-0.13333333,0,542.66667)" />
    <path
       id="path41"
       d="m 1302.2,1120.8 c 0,-62.96 -51.04,-114 -114,-114 -62.96,0 -114,51.04 -114,114 0,62.96 51.04,114 114,114 62.96,0 114,-51.04 114,-114 z"
       style="fill:none;stroke:#000000;stroke-width:4.5;stroke-linecap:butt;stroke-linejoin:miter;stroke-miterlimit:10;stroke-dasharray:none;stroke-opacity:1"
       transform="matrix(0.13333333,0,0,-0.13333333,0,542.66667)" />
    <path
       id="path42"
       d="m 1550,1200.6 c 0,-347.936 -282.06,-629.998 -630,-629.998 -347.938,0 -630,282.062 -630,629.998 0,347.94 282.062,630 630,630 347.94,0 630,-282.06 630,-630 z"
       style="fill:none;stroke:#000000;stroke-width:4.5;stroke-linecap:butt;stroke-linejoin:miter;stroke-miterlimit:10;stroke-dasharray:none;stroke-opacity:1"
       transform="matrix(0.13333333,0,0,-0.13333333,0,542.66667)" />
    <path
       id="path43"
       d="m 1140.2,1291.2 c 0,-62.96 -51.04,-114 -114,-114 -62.958,0 -114.001,51.04 -114.001,114 0,62.96 51.043,114 114.001,114 62.96,0 114,-51.04 114,-114 z"
       style="fill:none;stroke:#000000;stroke-width:4.5;stroke-linecap:butt;stroke-linejoin:miter;stroke-miterlimit:10;stroke-dasharray:none;stroke-opacity:1"
       transform="matrix(0.13333333,0,0,-0.13333333,0,542.66667)" />
    <path
       id="path44"
       d="m 1019,1489.2 c 0,-62.96 -51.043,-114 -114,-114 -62.957,0 -114,51.04 -114,114 0,62.96 51.043,114 114,114 62.957,0 114,-51.04 114,-114 z"
       style="fill:none;stroke:#000000;stroke-width:4.5;stroke-linecap:butt;stroke-linejoin:miter;stroke-miterlimit:10;stroke-dasharray:none;stroke-opacity:1"
       transform="matrix(0.13333333,0,0,-0.13333333,0,542.66667)" />
    <path
       id="path45"
       d="m 2153,798 c 0,-129.234 -50.23,-234 -112.2,-234 -61.96,0 -112.2,104.766 -112.2,234 0,129.234 50.24,234 112.2,234 61.97,0 112.2,-104.766 112.2,-234 z"
       style="fill:none;stroke:#000000;stroke-width:4.5;stroke-linecap:butt;stroke-linejoin:miter;stroke-miterlimit:10;stroke-dasharray:none;stroke-opacity:1"
       transform="matrix(0.13333333,0,0,-0.13333333,0,542.66667)" />
    <path
       id="path46"
       d="m 2516.32,3333.04 c 54.65,117.11 144.48,190.81 200.63,164.61 56.15,-26.2 57.37,-142.38 2.73,-259.49 -54.65,-117.11 -144.48,-190.81 -200.63,-164.61 -56.15,26.2 -57.37,142.38 -2.73,259.49 z"
       style="fill:none;stroke:#000000;stroke-width:4.5;stroke-linecap:butt;stroke-linejoin:miter;stroke-miterlimit:10;stroke-dasharray:none;stroke-opacity:1"
       transform="matrix(0.13333333,0,0,-0.13333333,0,542.66667)" />
    <path
       id="path47"
       d="m 1090.2,1198.6 c -100.434,-81.32 -213.473,-108.21 -252.462,-60.05 -38.992,48.16 10.821,153.13 111.258,234.45 100.434,81.32 213.474,108.21 252.464,60.05 38.99,-48.16 -10.82,-153.13 -111.26,-234.45 z"
       style="fill:none;stroke:#000000;stroke-width:4.5;stroke-linecap:butt;stroke-linejoin:miter;stroke-miterlimit:10;stroke-dasharray:none;stroke-opacity:1"
       transform="matrix(0.13333333,0,0,-0.13333333,0,542.66667)" />
    <path
       id="path48"
       d="m 861.199,2169 c 0,-62.96 -51.043,-114 -114,-114 -62.957,0 -114,51.04 -114,114 0,62.96 51.043,114 114,114 62.957,0 114,-51.04 114,-114 z"
       style="fill:none;stroke:#000000;stroke-width:4.5;stroke-linecap:butt;stroke-linejoin:miter;stroke-miterlimit:10;stroke-dasharray:none;stroke-opacity:1"
       transform="matrix(0.13333333,0,0,-0.13333333,0,542.66667)" />
    <path
       id="path49"
       d="m 114.82653,284.46668 c 0,8.39466 -6.80573,15.2 -15.199999,15.2 -8.394267,0 -15.2,-6.80534 -15.2,-15.2 0,-8.39467 6.805733,-15.2 15.2,-15.2 8.394269,0 15.199999,6.80533 15.199999,15.2 z"
       style="fill:none;stroke:#000000;stroke-width:0.6;stroke-linecap:butt;stroke-linejoin:miter;stroke-miterlimit:10;stroke-dasharray:none;stroke-opacity:1" />
    <path
       id="path50"
       d="m 1085,1590 c 0,-128.9 -104.496,-233.4 -233.398,-233.4 -128.903,0 -233.403,104.5 -233.403,233.4 0,128.9 104.5,233.4 233.403,233.4 C 980.504,1823.4 1085,1718.9 1085,1590 Z"
       style="fill:none;stroke:#000000;stroke-width:4.5;stroke-linecap:butt;stroke-linejoin:miter;stroke-miterlimit:10;stroke-dasharray:none;stroke-opacity:1"
       transform="matrix(0.13333333,0,0,-0.13333333,0,542.66667)" />
    <path
       id="path51"
       d="m 149.80641,178.71936 c 0,17.37775 -13.90164,31.466 -31.04934,31.466 -17.14784,0 -31.048952,-14.08825 -31.048952,-31.466 0,-17.37776 13.901112,-31.46601 31.048952,-31.46601 17.1477,0 31.04934,14.08825 31.04934,31.46601 z"
       style="fill:none;stroke:#000000;stroke-width:0.60264;stroke-linecap:butt;stroke-linejoin:miter;stroke-miterlimit:10;stroke-dasharray:none;stroke-opacity:1" />
    <path
       id="path52"
       d="m 972.801,2610.6 c 0,-62.96 -51.043,-114 -114,-114 -62.957,0 -114,51.04 -114,114 0,62.96 51.043,114 114,114 62.957,0 114,-51.04 114,-114 z"
       style="fill:none;stroke:#000000;stroke-width:4.5;stroke-linecap:butt;stroke-linejoin:miter;stroke-miterlimit:10;stroke-dasharray:none;stroke-opacity:1"
       transform="matrix(0.13333333,0,0,-0.13333333,0,542.66667)" />
    <path
       id="path53"
       d="m 884,2398.2 c 0,-62.96 -51.043,-114 -114,-114 -62.957,0 -114,51.04 -114,114 0,62.96 51.043,114 114,114 62.957,0 114,-51.04 114,-114 z"
       style="fill:none;stroke:#000000;stroke-width:4.5;stroke-linecap:butt;stroke-linejoin:miter;stroke-miterlimit:10;stroke-dasharray:none;stroke-opacity:1"
       transform="matrix(0.13333333,0,0,-0.13333333,0,542.66667)" />
    <path
       id="path54"
       d="m 737.68,2293.85 c -126.41,26.86 -218.45,97.78 -205.571,158.39 12.879,60.61 125.801,87.97 252.211,61.11 126.41,-26.86 218.45,-97.78 205.571,-158.39 -12.879,-60.61 -125.801,-87.97 -252.211,-61.11 z"
       style="fill:none;stroke:#000000;stroke-width:4.5;stroke-linecap:butt;stroke-linejoin:miter;stroke-miterlimit:10;stroke-dasharray:none;stroke-opacity:1"
       transform="matrix(0.13333333,0,0,-0.13333333,0,542.66667)" />
    <path
       id="path55"
       d="m 2039,3432 c 0,-347.94 -282.06,-630 -630,-630 -347.94,0 -630,282.06 -630,630 0,347.94 282.06,630 630,630 347.94,0 630,-282.06 630,-630 z"
       style="fill:none;stroke:#000000;stroke-width:4.5;stroke-linecap:butt;stroke-linejoin:miter;stroke-miterlimit:10;stroke-dasharray:none;stroke-opacity:1"
       transform="matrix(0.13333333,0,0,-0.13333333,0,542.66667)" />
    <path
       id="path56"
       d="m 3303.2,3401.4 c 0,-347.94 -282.06,-630 -630,-630 -347.94,0 -630,282.06 -630,630 0,347.94 282.06,630 630,630 347.94,0 630,-282.06 630,-630 z"
       style="fill:none;stroke:#000000;stroke-width:4.5;stroke-linecap:butt;stroke-linejoin:miter;stroke-miterlimit:10;stroke-dasharray:none;stroke-opacity:1"
       transform="matrix(0.13333333,0,0,-0.13333333,0,542.66667)" />
    <path
       id="path57"
       d="m 2282,3409.8 c 0,-62.96 -51.04,-114 -114,-114 -62.96,0 -114,51.04 -114,114 0,62.96 51.04,114 114,114 62.96,0 114,-51.04 114,-114 z"
       style="fill:none;stroke:#000000;stroke-width:4.5;stroke-linecap:butt;stroke-linejoin:miter;stroke-miterlimit:10;stroke-dasharray:none;stroke-opacity:1"
       transform="matrix(0.13333333,0,0,-0.13333333,0,542.66667)" />
    <path
       id="path58"
       d="m 2517.2,3406.8 c 0,-128.9 -104.5,-233.4 -233.4,-233.4 -128.9,0 -233.4,104.5 -233.4,233.4 0,128.9 104.5,233.4 233.4,233.4 128.9,0 233.4,-104.5 233.4,-233.4 z"
       style="fill:none;stroke:#000000;stroke-width:4.5;stroke-linecap:butt;stroke-linejoin:miter;stroke-miterlimit:10;stroke-dasharray:none;stroke-opacity:1"
       transform="matrix(0.13333333,0,0,-0.13333333,0,542.66667)" />
    <path
       id="path59"
       d="m 3288.2,2495.4 -1.8,-0.6 -3.6,-1.2 -6,-1.8 -7.8,-1.8 -9.6,-3 -10.2,-3.6 -10.8,-3.6 -10.8,-4.8 -12,-5.4 -13.2,-6 -13.2,-7.2 -14.4,-9 -10.2,-6.6 -6,-4.8 -3,-2.4 -1.8,-1.2 -1.2,-1.8 -2.4,-3 -4.2,-4.8 -6,-7.2 -7.8,-10.2 -6.6,-10.2 -4.8,-7.8 -2.4,-4.8 -1.8,-3 -1.2,-1.8 -0.6,-1.8 -0.6,-2.4 -0.6,-5.4 v -7.2 l 0.6,-9.6 2.4,-9 2.4,-7.2 1.8,-4.8 1.2,-2.4 1.2,-1.2 1.2,-1.8 2.4,-1.8 4.2,-4.2 6.6,-5.4 9.6,-7.2 10.8,-6.6 8.4,-4.8 5.4,-3 2.4,-1.8 1.8,-0.6 1.8,-1.2 3.6,-1.2 7.8,-1.8 12.6,-3 17.4,-3 13.8,-1.8 13.8,-1.2 12.6,-1.2 12.6,-0.6 h 22.2 l 10.8,0.6 h 9.6 l 8.4,0.6 h 6.6 l 5.4,0.6 h 4.2"
       style="fill:none;stroke:#00ff00;stroke-width:18;stroke-linecap:round;stroke-linejoin:bevel;stroke-miterlimit:10;stroke-dasharray:none;stroke-opacity:1"
       transform="matrix(0.13333333,0,0,-0.13333333,0,542.66667)" />
    <path
       id="path60"
       d="m 3069.22,2909.37 c 42.24,34.25 94.99,52.95 149.38,52.95 130.99,0 237.18,-106.19 237.18,-237.18 0,-104.18 -67.98,-196.17 -167.58,-226.74"
       style="fill:none;stroke:#00ff00;stroke-width:18;stroke-linecap:round;stroke-linejoin:bevel;stroke-miterlimit:10;stroke-dasharray:none;stroke-opacity:1"
       transform="matrix(0.13333333,0,0,-0.13333333,0,542.66667)" />
    <path
       id="path61"
       d="m 3342.19,2273.41 c 3.91,0.39 7.84,0.59 11.77,0.59 64.81,0 117.36,-52.55 117.36,-117.36 0,-64.81 -52.55,-117.36 -117.36,-117.36 -1.92,0 -3.85,0.05 -5.78,0.14"
       style="fill:none;stroke:#00ff00;stroke-width:18;stroke-linecap:round;stroke-linejoin:bevel;stroke-miterlimit:10;stroke-dasharray:none;stroke-opacity:1"
       transform="matrix(0.13333333,0,0,-0.13333333,0,542.66667)" />
    <path
       id="path62"
       d="m 3351.17,2036.36 c -4.88,0.62 -9.81,0.94 -14.73,0.94 -64.32,0 -116.46,-52.14 -116.46,-116.46 0,-58.42 43.28,-107.8 101.19,-115.45"
       style="fill:none;stroke:#00ff00;stroke-width:18;stroke-linecap:round;stroke-linejoin:bevel;stroke-miterlimit:10;stroke-dasharray:none;stroke-opacity:1"
       transform="matrix(0.13333333,0,0,-0.13333333,0,542.66667)" />
    <path
       id="path63"
       d="m 3318.21,1802.39 c -20.13,5.46 -40.89,8.23 -61.75,8.23 -130.19,0 -235.74,-105.55 -235.74,-235.74 0,-80.32 40.89,-155.11 108.51,-198.45"
       style="fill:none;stroke:#00ff00;stroke-width:18;stroke-linecap:round;stroke-linejoin:bevel;stroke-miterlimit:10;stroke-dasharray:none;stroke-opacity:1"
       transform="matrix(0.13333333,0,0,-0.13333333,0,542.66667)" />
    <path
       id="path64"
       d="m 3132.21,1376.45 c -19.21,13.1 -41.92,20.11 -65.17,20.11 -63.85,0 -115.62,-51.77 -115.62,-115.62 0,-29.11 10.99,-57.16 30.76,-78.53"
       style="fill:none;stroke:#00ff00;stroke-width:18;stroke-linecap:round;stroke-linejoin:bevel;stroke-miterlimit:10;stroke-dasharray:none;stroke-opacity:1"
       transform="matrix(0.13333333,0,0,-0.13333333,0,542.66667)" />
    <path
       id="path65"
       d="m 2985.21,1196.41 c 39.49,-43.52 61.37,-100.18 61.37,-158.95 0,-130.624 -105.9,-236.519 -236.52,-236.519 -87.45,0 -167.78,48.262 -208.83,125.481"
       style="fill:none;stroke:#00ff00;stroke-width:18;stroke-linecap:round;stroke-linejoin:bevel;stroke-miterlimit:10;stroke-dasharray:none;stroke-opacity:1"
       transform="matrix(0.13333333,0,0,-0.13333333,0,542.66667)" />
    <path
       id="path66"
       d="M 2604.23,926.367 C 2536.02,886.148 2460.6,859.648 2382.22,848.363"
       style="fill:none;stroke:#00ff00;stroke-width:18;stroke-linecap:round;stroke-linejoin:bevel;stroke-miterlimit:10;stroke-dasharray:none;stroke-opacity:1"
       transform="matrix(0.13333333,0,0,-0.13333333,0,542.66667)" />
    <path
       id="path67"
       d="m 2160.16,809.41 c 5.47,-57.262 53.58,-100.988 111.1,-100.988 61.63,0 111.6,49.965 111.6,111.598 0,9.582 -1.24,19.128 -3.67,28.394"
       style="fill:none;stroke:#00ff00;stroke-width:18;stroke-linecap:round;stroke-linejoin:bevel;stroke-miterlimit:10;stroke-dasharray:none;stroke-opacity:1"
       transform="matrix(0.13333333,0,0,-0.13333333,0,542.66667)" />
    <path
       id="path68"
       d="m 1491.19,932.449 c 135.7,-68.195 283.52,-108.976 434.99,-120"
       style="fill:none;stroke:#00ff00;stroke-width:18;stroke-linecap:round;stroke-linejoin:bevel;stroke-miterlimit:10;stroke-dasharray:none;stroke-opacity:1"
       transform="matrix(0.13333333,0,0,-0.13333333,0,542.66667)" />
    <path
       id="path69"
       d="m 1488.21,929.367 c 8.17,16.457 12.41,34.582 12.41,52.953 0,65.84 -53.38,119.22 -119.22,119.22 -36.85,0 -71.63,-17.04 -94.21,-46.16"
       style="fill:none;stroke:#00ff00;stroke-width:18;stroke-linecap:round;stroke-linejoin:bevel;stroke-miterlimit:10;stroke-dasharray:none;stroke-opacity:1"
       transform="matrix(0.13333333,0,0,-0.13333333,0,542.66667)" />
    <path
       id="path70"
       d="m 1284.2,1055.42 c -67.97,42.07 -127.91,95.92 -177,159"
       style="fill:none;stroke:#00ff00;stroke-width:18;stroke-linecap:round;stroke-linejoin:bevel;stroke-miterlimit:10;stroke-dasharray:none;stroke-opacity:1"
       transform="matrix(0.13333333,0,0,-0.13333333,0,542.66667)" />
    <path
       id="path71"
       d="m 969.188,1388.39 c -35.727,-19.85 -57.887,-57.52 -57.887,-98.39 0,-62.16 50.394,-112.56 112.559,-112.56 31.75,0 62.02,13.41 83.35,36.92"
       style="fill:none;stroke:#00ff00;stroke-width:18;stroke-linecap:round;stroke-linejoin:bevel;stroke-miterlimit:10;stroke-dasharray:none;stroke-opacity:1"
       transform="matrix(0.13333333,0,0,-0.13333333,0,542.66667)" />
    <path
       id="path84"
       d="m 953,2052.6 c 0,-128.9 -104.496,-233.4 -233.398,-233.4 -128.903,0 -233.403,104.5 -233.403,233.4 0,128.9 104.5,233.4 233.403,233.4 C 848.504,2286 953,2181.5 953,2052.6 Z"
       style="fill:none;stroke:#000000;stroke-width:4.5;stroke-linecap:round;stroke-linejoin:bevel;stroke-miterlimit:10;stroke-dasharray:none;stroke-opacity:1"
       transform="matrix(0.13333333,0,0,-0.13333333,0,542.66667)" />
    <path
       id="path72"
       d="m 858.211,1589.42 c 15.23,7.17 31.871,10.9 48.711,10.9 63.09,0 114.238,-51.15 114.238,-114.24 0,-39.91 -20.84,-76.94 -54.953,-97.65"
       style="fill:none;stroke:#00ff00;stroke-width:18;stroke-linecap:round;stroke-linejoin:bevel;stroke-miterlimit:10;stroke-dasharray:none;stroke-opacity:1"
       transform="matrix(0.13333333,0,0,-0.13333333,0,542.66667)" />
    <path
       id="path73"
       d="m 780.211,1817.4 c -52.504,-14.33 -88.93,-62.03 -88.93,-116.46 0,-66.67 54.051,-120.72 120.719,-120.72 15.852,0 31.559,3.12 46.207,9.19"
       style="fill:none;stroke:#00ff00;stroke-width:18;stroke-linecap:round;stroke-linejoin:bevel;stroke-miterlimit:10;stroke-dasharray:none;stroke-opacity:1"
       transform="matrix(0.13333333,0,0,-0.13333333,0,542.66667)" />
    <path
       id="path74"
       d="m 104.4724,300.04002 c -1.29854,0.33066 -2.63387,0.49866 -3.974,0.49866 -8.876003,0 -16.071869,-7.196 -16.071869,-16.072 0,-8.4 6.469733,-15.38533 14.845866,-16.02533"
       style="fill:none;stroke:#00ff00;stroke-width:2.4;stroke-linecap:round;stroke-linejoin:bevel;stroke-miterlimit:10;stroke-dasharray:none;stroke-opacity:1" />
    <path
       id="path75"
       d="m 753.191,2054.4 c 61.633,5.55 108.848,57.22 108.848,119.1 0,58.43 -42.223,108.3 -99.848,117.94"
       style="fill:none;stroke:#00ff00;stroke-width:18;stroke-linecap:round;stroke-linejoin:bevel;stroke-miterlimit:10;stroke-dasharray:none;stroke-opacity:1"
       transform="matrix(0.13333333,0,0,-0.13333333,0,542.66667)" />
    <path
       id="path76"
       d="M 816.227,2504.38 C 789.324,2436.29 773.133,2364.44 768.23,2291.39"
       style="fill:none;stroke:#00ff00;stroke-width:18;stroke-linecap:round;stroke-linejoin:bevel;stroke-miterlimit:10;stroke-dasharray:none;stroke-opacity:1"
       transform="matrix(0.13333333,0,0,-0.13333333,0,542.66667)" />
    <path
       id="path77"
       d="m 1038.22,2918.38 c 56.04,-45.3 88.6,-113.5 88.6,-185.56 0,-131.78 -106.84,-238.62 -238.621,-238.62 -23.363,0 -46.605,3.43 -68.972,10.19"
       style="fill:none;stroke:#00ff00;stroke-width:18;stroke-linecap:round;stroke-linejoin:bevel;stroke-miterlimit:10;stroke-dasharray:none;stroke-opacity:1"
       transform="matrix(0.13333333,0,0,-0.13333333,0,542.66667)" />
    <path
       id="path78"
       d="m 1228.4,3018.6 c 0,-62.96 -51.04,-114 -114,-114 -62.96,0 -114,51.04 -114,114 0,62.96 51.04,114 114,114 62.96,0 114,-51.04 114,-114 z"
       style="fill:none;stroke:#000000;stroke-width:4.5;stroke-linecap:round;stroke-linejoin:bevel;stroke-miterlimit:10;stroke-dasharray:none;stroke-opacity:1"
       transform="matrix(0.13333333,0,0,-0.13333333,0,542.66667)" />
    <path
       id="path79"
       d="m 187.22575,121.12561 c 0,8.3198 -6.71354,15.06443 -14.99497,15.06443 -8.28143,0 -14.99497,-6.74463 -14.99497,-15.06443 0,-8.3198 6.71354,-15.06443 14.99497,-15.06443 8.28143,0 14.99497,6.74463 14.99497,15.06443 z"
       style="fill:none;stroke:#000000;stroke-width:0.593276;stroke-linecap:round;stroke-linejoin:bevel;stroke-miterlimit:10;stroke-dasharray:none;stroke-opacity:1" />
    <path
       id="path80"
       d="m 242.08987,93.049893 c 0,8.394667 -6.80533,15.199997 -15.2,15.199997 -8.39466,0 -15.2,-6.80533 -15.2,-15.199997 0,-8.394667 6.80534,-15.2 15.2,-15.2 8.39467,0 15.2,6.805333 15.2,15.2 z"
       style="fill:none;stroke:#000000;stroke-width:0.6;stroke-linecap:round;stroke-linejoin:bevel;stroke-miterlimit:10;stroke-dasharray:none;stroke-opacity:1" />
    <path
       id="path81"
       d="m 3363.2,2614.2 c 0,-62.96 -51.04,-114 -114,-114 -62.96,0 -114,51.04 -114,114 0,62.96 51.04,114 114,114 62.96,0 114,-51.04 114,-114 z"
       style="fill:none;stroke:#000000;stroke-width:4.5;stroke-linecap:round;stroke-linejoin:bevel;stroke-miterlimit:10;stroke-dasharray:none;stroke-opacity:1"
       transform="matrix(0.13333333,0,0,-0.13333333,0,542.66667)" />
    <path
       id="path82"
       d="m 217.72065,144.61775 c 0,0.48667 -0.39467,0.88 -0.88,0.88 -0.48534,0 -0.88,-0.39333 -0.88,-0.88 0,-0.48533 0.39466,-0.88 0.88,-0.88 0.48533,0 0.88,0.39467 0.88,0.88 z"
       style="fill:none;stroke:#000000;stroke-width:0.6;stroke-linecap:round;stroke-linejoin:bevel;stroke-miterlimit:10;stroke-dasharray:none;stroke-opacity:1" />
    <path
       id="path83"
       d="m 187.22302,125.91507 c 0,17.29975 -14.18051,31.32475 -31.67207,31.32475 -17.49156,0 -31.67235,-14.025 -31.67235,-31.32475 0,-17.29974 14.18079,-31.324745 31.67235,-31.324745 17.49156,0 31.67207,14.025005 31.67207,31.324745 z"
       style="fill:none;stroke:#000000;stroke-width:0.607287;stroke-linecap:round;stroke-linejoin:bevel;stroke-miterlimit:10;stroke-dasharray:none;stroke-opacity:1" />
    <path
       id="path85"
       d="m 2726.6,3282.6 c 0,-62.96 -51.04,-114 -114,-114 -62.96,0 -114,51.04 -114,114 0,62.96 51.04,114 114,114 62.96,0 114,-51.04 114,-114 z"
       style="fill:none;stroke:#000000;stroke-width:4.5;stroke-linecap:round;stroke-linejoin:bevel;stroke-miterlimit:10;stroke-dasharray:none;stroke-opacity:1"
       transform="matrix(0.13333333,0,0,-0.13333333,0,542.66667)" />
    <path
       id="path86"
       d="m 2049.2,3401.39 c 0,0.68 0,1.37 0,2.05 0,346.94 281.26,628.2 628.2,628.2 346.94,0 628.2,-281.26 628.2,-628.2 0,-191.12 -87.01,-371.85 -236.4,-491.05"
       style="fill:none;stroke:#00ff00;stroke-width:18;stroke-linecap:round;stroke-linejoin:bevel;stroke-miterlimit:10;stroke-dasharray:none;stroke-opacity:1"
       transform="matrix(0.13333333,0,0,-0.13333333,0,542.66667)" />
    <path
       id="path87"
       d="m 1932.2,809.402 v -18.601 l 0.6,-9.602 v -11.398 l 0.6,-11.399 0.6,-12.601 1.2,-13.199 1.2,-13.2 2.4,-14.402 2.4,-15 3,-15.598 4.8,-19.203 4.2,-13.199 3,-7.801 1.8,-3.597 1.2,-1.801 1.8,-1.199 1.8,-2.403 4.2,-5.398 5.4,-9 7.8,-11.399 9.6,-12.601 6.6,-7.801 3.6,-4.199 1.8,-1.801 1.8,-1.801 3.6,-2.398 7.2,-4.199 10.8,-4.2 9,-2.402 6.6,-0.598 4.2,-0.601 h 4.2 l 1.2,0.601 2.4,0.598 4.2,2.402 7.2,3.598 9,5.402 9,7.2 7.2,6 4.8,4.199 3,3 1.8,1.801 1.8,1.8 3,3.598 4.2,6 6,10.199 7.2,13.203 5.4,12 4.2,10.2 3,7.8 1.2,4.797 1.2,3 v 4.203 l 0.6,3.598 1.2,5.402 1.8,9 2.4,12 3,15 3,15.598 1.8,13.801 1.8,12.601 1.8,11.399 0.6,10.199 1.2,9.602 0.6,8.398 0.6,7.199 v 5.403 l 0.6,3 v 1.8"
       style="fill:none;stroke:#00ff00;stroke-width:18;stroke-linecap:round;stroke-linejoin:bevel;stroke-miterlimit:10;stroke-dasharray:none;stroke-opacity:1"
       transform="matrix(0.13333333,0,0,-0.13333333,0,542.66667)" />
    <path
       id="path88"
       d="m 183.45492,109.70888 c -7.39018,-15.614835 -7.22108,-31.10434 0.37471,-34.596078 7.59715,-3.491738 19.74637,6.336858 27.1352,21.951686 7.39017,15.613492 7.22242,31.104332 -0.37473,34.596072 -7.59715,3.49174 -19.74636,-6.33553 -27.13518,-21.95168 z"
       style="fill:none;stroke:#000000;stroke-width:0.604335;stroke-linecap:round;stroke-linejoin:bevel;stroke-miterlimit:10;stroke-dasharray:none;stroke-opacity:1" />
    <path
       id="path89"
       d="m 142.53944,166.27721 c 0,8.8115 -6.89445,15.95475 -15.39917,15.95475 -8.50417,0 -15.39902,-7.14325 -15.39902,-15.95475 0,-8.81149 6.89485,-15.95475 15.39902,-15.95475 8.50472,0 15.39917,7.14326 15.39917,15.95475 z"
       style="fill:none;stroke:#000000;stroke-width:0.618727;stroke-linecap:round;stroke-linejoin:bevel;stroke-miterlimit:10;stroke-dasharray:none;stroke-opacity:1" />
    <path
       id="path90"
       d="m 1041.21,2915.39 c 107.56,-75.66 235.86,-116.27 367.37,-116.27 339.72,0 619.97,266.01 637.65,605.27"
       style="fill:none;stroke:#00ff00;stroke-width:18;stroke-linecap:round;stroke-linejoin:bevel;stroke-miterlimit:10;stroke-dasharray:none;stroke-opacity:1"
       transform="matrix(0.13333333,0,0,-0.13333333,0,542.66667)" />
  </g>
</svg>
