<?xml version="1.0" encoding="UTF-8" standalone="no"?>
<!-- Created with Inkscape (http://www.inkscape.org/) -->

<svg
   version="1.1"
   id="svg1"
   width="750.09888"
   height="274.92313"
   viewBox="0 0 750.09887 274.92312"
   sodipodi:docname="grunEvenRotate.svg"
   inkscape:version="1.3.2 (091e20e, 2023-11-25, custom)"
   xmlns:inkscape="http://www.inkscape.org/namespaces/inkscape"
   xmlns:sodipodi="http://sodipodi.sourceforge.net/DTD/sodipodi-0.dtd"
   xmlns:xlink="http://www.w3.org/1999/xlink"
   xmlns="http://www.w3.org/2000/svg"
   xmlns:svg="http://www.w3.org/2000/svg">
  <defs
     id="defs1">
    <pattern
       inkscape:collect="always"
       xlink:href="#pattern8"
       id="pattern21"
       patternTransform="matrix(0.0942809,0.0942809,0.0942809,-0.0942809,-96.398073,232.72555)" />
    <pattern
       inkscape:collect="always"
       xlink:href="#pattern13"
       id="pattern20"
       patternTransform="matrix(0.0942809,0.0942809,0.0942809,-0.0942809,-96.398073,232.72555)" />
    <pattern
       inkscape:collect="always"
       xlink:href="#pattern18"
       id="pattern19"
       patternTransform="matrix(0.0942809,0.0942809,0.0942809,-0.0942809,-96.398073,232.72555)" />
    <pattern
       inkscape:collect="always"
       xlink:href="#pattern25"
       id="pattern17"
       patternTransform="matrix(0.0942809,0.0942809,0.0942809,-0.0942809,-96.398073,232.72555)" />
    <pattern
       inkscape:collect="always"
       xlink:href="#pattern30"
       id="pattern16"
       patternTransform="matrix(0.0942809,0.0942809,0.0942809,-0.0942809,-96.398073,232.72555)" />
    <pattern
       inkscape:collect="always"
       xlink:href="#pattern37"
       id="pattern15"
       patternTransform="matrix(0.0942809,0.0942809,0.0942809,-0.0942809,-96.398073,232.72555)" />
    <pattern
       inkscape:collect="always"
       xlink:href="#pattern42"
       id="pattern14"
       patternTransform="matrix(0.0942809,0.0942809,0.0942809,-0.0942809,-96.398073,232.72555)" />
    <pattern
       inkscape:collect="always"
       xlink:href="#pattern46"
       id="pattern12"
       patternTransform="matrix(0.0942809,0.0942809,0.0942809,-0.0942809,-96.398073,232.72555)" />
    <pattern
       inkscape:collect="always"
       xlink:href="#pattern52"
       id="pattern11"
       patternTransform="matrix(0.0942809,0.0942809,0.0942809,-0.0942809,-96.398073,232.72555)" />
    <pattern
       inkscape:collect="always"
       xlink:href="#pattern58"
       id="pattern10"
       patternTransform="matrix(0.0942809,0.0942809,0.0942809,-0.0942809,-96.398073,232.72555)" />
    <pattern
       inkscape:collect="always"
       xlink:href="#pattern62"
       id="pattern9"
       patternTransform="matrix(0.0942809,0.0942809,0.0942809,-0.0942809,-96.398073,232.72555)" />
    <pattern
       inkscape:collect="always"
       xlink:href="#pattern67"
       id="pattern7"
       patternTransform="matrix(0.0942809,0.0942809,0.0942809,-0.0942809,-96.398073,232.72555)" />
    <pattern
       inkscape:collect="always"
       xlink:href="#pattern71"
       id="pattern6"
       patternTransform="matrix(0.0942809,0.0942809,0.0942809,-0.0942809,-96.398073,232.72555)" />
    <pattern
       inkscape:collect="always"
       xlink:href="#pattern76"
       id="pattern5"
       patternTransform="matrix(0.0942809,0.0942809,0.0942809,-0.0942809,-96.398073,232.72555)" />
    <pattern
       inkscape:collect="always"
       xlink:href="#pattern86"
       id="pattern4"
       patternTransform="matrix(0.0942809,0.0942809,0.0942809,-0.0942809,-96.398073,232.72555)" />
    <pattern
       inkscape:collect="always"
       xlink:href="#pattern92"
       id="pattern3"
       patternTransform="matrix(0.0942809,0.0942809,0.0942809,-0.0942809,-96.398073,232.72555)" />
    <pattern
       inkscape:collect="always"
       xlink:href="#pattern96"
       id="pattern2"
       patternTransform="matrix(0.0942809,0.0942809,0.0942809,-0.0942809,-96.398073,232.72555)" />
    <pattern
       inkscape:collect="always"
       xlink:href="#pattern101"
       id="pattern1"
       patternTransform="matrix(0.0942809,0.0942809,0.0942809,-0.0942809,-96.398073,232.72555)" />
    <clipPath
       clipPathUnits="userSpaceOnUse"
       id="clipPath7">
      <path
         d="M -10,-10 H 90 V 90 H -10 Z"
         id="path7" />
    </clipPath>
    <pattern
       patternUnits="userSpaceOnUse"
       x="0"
       y="0"
       width="10"
       height="10"
       id="pattern8">
      <path
         d="M -10,-10 90,90"
         style="fill:none;stroke:#000000;stroke-opacity:1;stroke-width:10;stroke-linecap:butt;stroke-linejoin:miter;stroke-miterlimit:10;stroke-dasharray:none"
         transform="matrix(0.1,0,0,0.1,1,1)"
         clip-path="url(#clipPath7)"
         id="path8" />
    </pattern>
    <clipPath
       clipPathUnits="userSpaceOnUse"
       id="clipPath12">
      <path
         d="M -10,-10 H 90 V 90 H -10 Z"
         id="path12" />
    </clipPath>
    <pattern
       patternUnits="userSpaceOnUse"
       x="0"
       y="0"
       width="10"
       height="10"
       id="pattern13">
      <path
         d="M -10,-10 90,90"
         style="fill:none;stroke:#000000;stroke-opacity:1;stroke-width:10;stroke-linecap:butt;stroke-linejoin:miter;stroke-miterlimit:10;stroke-dasharray:none"
         transform="matrix(0.1,0,0,0.1,1,1)"
         clip-path="url(#clipPath12)"
         id="path13" />
    </pattern>
    <clipPath
       clipPathUnits="userSpaceOnUse"
       id="clipPath17">
      <path
         d="M -10,-10 H 90 V 90 H -10 Z"
         id="path17" />
    </clipPath>
    <pattern
       patternUnits="userSpaceOnUse"
       x="0"
       y="0"
       width="10"
       height="10"
       id="pattern18">
      <path
         d="M -10,90 90,-10"
         style="fill:none;stroke:#000000;stroke-opacity:1;stroke-width:10;stroke-linecap:butt;stroke-linejoin:miter;stroke-miterlimit:10;stroke-dasharray:none"
         transform="matrix(0.1,0,0,0.1,1,1)"
         clip-path="url(#clipPath17)"
         id="path18" />
    </pattern>
    <clipPath
       clipPathUnits="userSpaceOnUse"
       id="clipPath22">
      <path
         d="M -10,-10 H 90 V 90 H -10 Z"
         id="path22" />
    </clipPath>
    <clipPath
       clipPathUnits="userSpaceOnUse"
       id="clipPath23">
      <path
         d="M -10,-10 H 90 V 90 H -10 Z"
         id="path23" />
    </clipPath>
    <pattern
       patternUnits="userSpaceOnUse"
       x="0"
       y="0"
       width="10"
       height="10"
       id="pattern25">
      <path
         d="M -10,90 90,-10"
         style="fill:none;stroke:#000000;stroke-opacity:1;stroke-width:10;stroke-linecap:butt;stroke-linejoin:miter;stroke-miterlimit:10;stroke-dasharray:none"
         transform="matrix(0.1,0,0,0.1,1,1)"
         clip-path="url(#clipPath22)"
         id="path24" />
      <path
         d="M -10,-10 90,90"
         style="fill:none;stroke:#000000;stroke-opacity:1;stroke-width:10;stroke-linecap:butt;stroke-linejoin:miter;stroke-miterlimit:10;stroke-dasharray:none"
         transform="matrix(0.1,0,0,0.1,1,1)"
         clip-path="url(#clipPath23)"
         id="path25" />
    </pattern>
    <clipPath
       clipPathUnits="userSpaceOnUse"
       id="clipPath29">
      <path
         d="M -10,-10 H 90 V 90 H -10 Z"
         id="path29" />
    </clipPath>
    <pattern
       patternUnits="userSpaceOnUse"
       x="0"
       y="0"
       width="10"
       height="10"
       id="pattern30">
      <path
         d="M -10,90 90,-10"
         style="fill:none;stroke:#000000;stroke-opacity:1;stroke-width:10;stroke-linecap:butt;stroke-linejoin:miter;stroke-miterlimit:10;stroke-dasharray:none"
         transform="matrix(0.1,0,0,0.1,1,1)"
         clip-path="url(#clipPath29)"
         id="path30" />
    </pattern>
    <clipPath
       clipPathUnits="userSpaceOnUse"
       id="clipPath34">
      <path
         d="M -10,-10 H 90 V 90 H -10 Z"
         id="path34" />
    </clipPath>
    <clipPath
       clipPathUnits="userSpaceOnUse"
       id="clipPath35">
      <path
         d="M -10,-10 H 90 V 90 H -10 Z"
         id="path35" />
    </clipPath>
    <pattern
       patternUnits="userSpaceOnUse"
       x="0"
       y="0"
       width="10"
       height="10"
       id="pattern37">
      <path
         d="M -10,90 90,-10"
         style="fill:none;stroke:#000000;stroke-opacity:1;stroke-width:10;stroke-linecap:butt;stroke-linejoin:miter;stroke-miterlimit:10;stroke-dasharray:none"
         transform="matrix(0.1,0,0,0.1,1,1)"
         clip-path="url(#clipPath34)"
         id="path36" />
      <path
         d="M -10,-10 90,90"
         style="fill:none;stroke:#000000;stroke-opacity:1;stroke-width:10;stroke-linecap:butt;stroke-linejoin:miter;stroke-miterlimit:10;stroke-dasharray:none"
         transform="matrix(0.1,0,0,0.1,1,1)"
         clip-path="url(#clipPath35)"
         id="path37" />
    </pattern>
    <clipPath
       clipPathUnits="userSpaceOnUse"
       id="clipPath41">
      <path
         d="M -10,-10 H 90 V 90 H -10 Z"
         id="path41" />
    </clipPath>
    <pattern
       patternUnits="userSpaceOnUse"
       x="0"
       y="0"
       width="10"
       height="10"
       id="pattern42">
      <path
         d="M -10,90 90,-10"
         style="fill:none;stroke:#000000;stroke-opacity:1;stroke-width:10;stroke-linecap:butt;stroke-linejoin:miter;stroke-miterlimit:10;stroke-dasharray:none"
         transform="matrix(0.1,0,0,0.1,1,1)"
         clip-path="url(#clipPath41)"
         id="path42" />
    </pattern>
    <clipPath
       clipPathUnits="userSpaceOnUse"
       id="clipPath45">
      <path
         d="M -10,-10 H 90 V 90 H -10 Z"
         id="path45" />
    </clipPath>
    <pattern
       patternUnits="userSpaceOnUse"
       x="0"
       y="0"
       width="10"
       height="10"
       id="pattern46">
      <path
         d="M -10,90 90,-10"
         style="fill:none;stroke:#000000;stroke-opacity:1;stroke-width:10;stroke-linecap:butt;stroke-linejoin:miter;stroke-miterlimit:10;stroke-dasharray:none"
         transform="matrix(0.1,0,0,0.1,1,1)"
         clip-path="url(#clipPath45)"
         id="path46" />
    </pattern>
    <clipPath
       clipPathUnits="userSpaceOnUse"
       id="clipPath49">
      <path
         d="M -10,-10 H 90 V 90 H -10 Z"
         id="path49" />
    </clipPath>
    <clipPath
       clipPathUnits="userSpaceOnUse"
       id="clipPath50">
      <path
         d="M -10,-10 H 90 V 90 H -10 Z"
         id="path50" />
    </clipPath>
    <pattern
       patternUnits="userSpaceOnUse"
       x="0"
       y="0"
       width="10"
       height="10"
       id="pattern52">
      <path
         d="M -10,90 90,-10"
         style="fill:none;stroke:#000000;stroke-opacity:1;stroke-width:10;stroke-linecap:butt;stroke-linejoin:miter;stroke-miterlimit:10;stroke-dasharray:none"
         transform="matrix(0.1,0,0,0.1,1,1)"
         clip-path="url(#clipPath49)"
         id="path51" />
      <path
         d="M -10,-10 90,90"
         style="fill:none;stroke:#000000;stroke-opacity:1;stroke-width:10;stroke-linecap:butt;stroke-linejoin:miter;stroke-miterlimit:10;stroke-dasharray:none"
         transform="matrix(0.1,0,0,0.1,1,1)"
         clip-path="url(#clipPath50)"
         id="path52" />
    </pattern>
    <clipPath
       clipPathUnits="userSpaceOnUse"
       id="clipPath55">
      <path
         d="M -10,-10 H 90 V 90 H -10 Z"
         id="path55" />
    </clipPath>
    <clipPath
       clipPathUnits="userSpaceOnUse"
       id="clipPath56">
      <path
         d="M -10,-10 H 90 V 90 H -10 Z"
         id="path56" />
    </clipPath>
    <pattern
       patternUnits="userSpaceOnUse"
       x="0"
       y="0"
       width="10"
       height="10"
       id="pattern58">
      <path
         d="M -10,90 90,-10"
         style="fill:none;stroke:#000000;stroke-opacity:1;stroke-width:10;stroke-linecap:butt;stroke-linejoin:miter;stroke-miterlimit:10;stroke-dasharray:none"
         transform="matrix(0.1,0,0,0.1,1,1)"
         clip-path="url(#clipPath55)"
         id="path57" />
      <path
         d="M -10,-10 90,90"
         style="fill:none;stroke:#000000;stroke-opacity:1;stroke-width:10;stroke-linecap:butt;stroke-linejoin:miter;stroke-miterlimit:10;stroke-dasharray:none"
         transform="matrix(0.1,0,0,0.1,1,1)"
         clip-path="url(#clipPath56)"
         id="path58" />
    </pattern>
    <clipPath
       clipPathUnits="userSpaceOnUse"
       id="clipPath61">
      <path
         d="M -10,-10 H 90 V 90 H -10 Z"
         id="path61" />
    </clipPath>
    <pattern
       patternUnits="userSpaceOnUse"
       x="0"
       y="0"
       width="10"
       height="10"
       id="pattern62">
      <path
         d="M -10,-10 90,90"
         style="fill:none;stroke:#000000;stroke-opacity:1;stroke-width:10;stroke-linecap:butt;stroke-linejoin:miter;stroke-miterlimit:10;stroke-dasharray:none"
         transform="matrix(0.1,0,0,0.1,1,1)"
         clip-path="url(#clipPath61)"
         id="path62" />
    </pattern>
    <clipPath
       clipPathUnits="userSpaceOnUse"
       id="clipPath66">
      <path
         d="M -10,-10 H 90 V 90 H -10 Z"
         id="path66" />
    </clipPath>
    <pattern
       patternUnits="userSpaceOnUse"
       x="0"
       y="0"
       width="10"
       height="10"
       id="pattern67">
      <path
         d="M -10,-10 90,90"
         style="fill:none;stroke:#000000;stroke-opacity:1;stroke-width:10;stroke-linecap:butt;stroke-linejoin:miter;stroke-miterlimit:10;stroke-dasharray:none"
         transform="matrix(0.1,0,0,0.1,1,1)"
         clip-path="url(#clipPath66)"
         id="path67" />
    </pattern>
    <clipPath
       clipPathUnits="userSpaceOnUse"
       id="clipPath70">
      <path
         d="M -10,-10 H 90 V 90 H -10 Z"
         id="path70" />
    </clipPath>
    <pattern
       patternUnits="userSpaceOnUse"
       x="0"
       y="0"
       width="10"
       height="10"
       id="pattern71">
      <path
         d="M -10,-10 90,90"
         style="fill:none;stroke:#000000;stroke-opacity:1;stroke-width:10;stroke-linecap:butt;stroke-linejoin:miter;stroke-miterlimit:10;stroke-dasharray:none"
         transform="matrix(0.1,0,0,0.1,1,1)"
         clip-path="url(#clipPath70)"
         id="path71" />
    </pattern>
    <clipPath
       clipPathUnits="userSpaceOnUse"
       id="clipPath75">
      <path
         d="M -10,-10 H 90 V 90 H -10 Z"
         id="path75" />
    </clipPath>
    <pattern
       patternUnits="userSpaceOnUse"
       x="0"
       y="0"
       width="10"
       height="10"
       id="pattern76">
      <path
         d="M -10,-10 90,90"
         style="fill:none;stroke:#000000;stroke-opacity:1;stroke-width:10;stroke-linecap:butt;stroke-linejoin:miter;stroke-miterlimit:10;stroke-dasharray:none"
         transform="matrix(0.1,0,0,0.1,1,1)"
         clip-path="url(#clipPath75)"
         id="path76" />
    </pattern>
    <clipPath
       clipPathUnits="userSpaceOnUse"
       id="clipPath83">
      <path
         d="M -10,-10 H 90 V 90 H -10 Z"
         id="path83" />
    </clipPath>
    <clipPath
       clipPathUnits="userSpaceOnUse"
       id="clipPath84">
      <path
         d="M -10,-10 H 90 V 90 H -10 Z"
         id="path84" />
    </clipPath>
    <pattern
       patternUnits="userSpaceOnUse"
       x="0"
       y="0"
       width="10"
       height="10"
       id="pattern86">
      <path
         d="M -10,90 90,-10"
         style="fill:none;stroke:#000000;stroke-opacity:1;stroke-width:10;stroke-linecap:butt;stroke-linejoin:miter;stroke-miterlimit:10;stroke-dasharray:none"
         transform="matrix(0.1,0,0,0.1,1,1)"
         clip-path="url(#clipPath83)"
         id="path85" />
      <path
         d="M -10,-10 90,90"
         style="fill:none;stroke:#000000;stroke-opacity:1;stroke-width:10;stroke-linecap:butt;stroke-linejoin:miter;stroke-miterlimit:10;stroke-dasharray:none"
         transform="matrix(0.1,0,0,0.1,1,1)"
         clip-path="url(#clipPath84)"
         id="path86" />
    </pattern>
    <clipPath
       clipPathUnits="userSpaceOnUse"
       id="clipPath89">
      <path
         d="M -10,-10 H 90 V 90 H -10 Z"
         id="path89" />
    </clipPath>
    <clipPath
       clipPathUnits="userSpaceOnUse"
       id="clipPath90">
      <path
         d="M -10,-10 H 90 V 90 H -10 Z"
         id="path90" />
    </clipPath>
    <pattern
       patternUnits="userSpaceOnUse"
       x="0"
       y="0"
       width="10"
       height="10"
       id="pattern92">
      <path
         d="M -10,90 90,-10"
         style="fill:none;stroke:#000000;stroke-opacity:1;stroke-width:10;stroke-linecap:butt;stroke-linejoin:miter;stroke-miterlimit:10;stroke-dasharray:none"
         transform="matrix(0.1,0,0,0.1,1,1)"
         clip-path="url(#clipPath89)"
         id="path91" />
      <path
         d="M -10,-10 90,90"
         style="fill:none;stroke:#000000;stroke-opacity:1;stroke-width:10;stroke-linecap:butt;stroke-linejoin:miter;stroke-miterlimit:10;stroke-dasharray:none"
         transform="matrix(0.1,0,0,0.1,1,1)"
         clip-path="url(#clipPath90)"
         id="path92" />
    </pattern>
    <clipPath
       clipPathUnits="userSpaceOnUse"
       id="clipPath95">
      <path
         d="M -10,-10 H 90 V 90 H -10 Z"
         id="path95" />
    </clipPath>
    <pattern
       patternUnits="userSpaceOnUse"
       x="0"
       y="0"
       width="10"
       height="10"
       id="pattern96">
      <path
         d="M -10,90 90,-10"
         style="fill:none;stroke:#000000;stroke-opacity:1;stroke-width:10;stroke-linecap:butt;stroke-linejoin:miter;stroke-miterlimit:10;stroke-dasharray:none"
         transform="matrix(0.1,0,0,0.1,1,1)"
         clip-path="url(#clipPath95)"
         id="path96" />
    </pattern>
    <clipPath
       clipPathUnits="userSpaceOnUse"
       id="clipPath100">
      <path
         d="M -10,-10 H 90 V 90 H -10 Z"
         id="path100" />
    </clipPath>
    <pattern
       patternUnits="userSpaceOnUse"
       x="0"
       y="0"
       width="10"
       height="10"
       id="pattern101">
      <path
         d="M -10,90 90,-10"
         style="fill:none;stroke:#000000;stroke-opacity:1;stroke-width:10;stroke-linecap:butt;stroke-linejoin:miter;stroke-miterlimit:10;stroke-dasharray:none"
         transform="matrix(0.1,0,0,0.1,1,1)"
         clip-path="url(#clipPath100)"
         id="path101" />
    </pattern>
  </defs>
  <sodipodi:namedview
     id="namedview1"
     pagecolor="#ffffff"
     bordercolor="#111111"
     borderopacity="1"
     inkscape:showpageshadow="0"
     inkscape:pageopacity="0"
     inkscape:pagecheckerboard="1"
     inkscape:deskcolor="#d1d1d1"
     inkscape:zoom="2.5893751"
     inkscape:cx="374.80085"
     inkscape:cy="137.29181"
     inkscape:window-width="3840"
     inkscape:window-height="1577"
     inkscape:window-x="-8"
     inkscape:window-y="-8"
     inkscape:window-maximized="1"
     inkscape:current-layer="g1">
    <inkscape:page
       x="0"
       y="0"
       inkscape:label="1"
       id="page1"
       width="750.09888"
       height="274.92313"
       margin="0"
       bleed="0"
       inkscape:export-filename="grunEvenRotate.pdf"
       inkscape:export-xdpi="96"
       inkscape:export-ydpi="96" />
  </sodipodi:namedview>
  <g
     id="g1"
     inkscape:groupmode="layer"
     inkscape:label="1"
     transform="translate(60.382767,-129.20511)">
    <path
       id="path1"
       d="m 382.54891,164.8433 h 67.88225 v 67.88225 l 33.94112,33.94112 67.88225,-67.88225 135.7645,135.7645 -33.94112,33.94112 -33.94113,-33.94112 67.88225,-67.88225 -33.94112,-33.94112 -101.82338,101.82337 -33.94112,-33.94113 33.94112,-33.94112 67.88225,67.88225 -67.88225,67.88225 -135.7645,-135.7645 67.88225,67.88225 33.94113,-33.94113 -33.94113,-33.94112 -33.94112,33.94112 33.94112,33.94113 -67.88225,67.88225 -67.88225,-67.88225 33.94113,-33.94113 33.94112,33.94113 33.94113,-33.94113 -33.94113,-33.94112 -101.82337,101.82337 h -67.88225"
       style="fill:none;stroke:#000000;stroke-width:0.6;stroke-linecap:butt;stroke-linejoin:miter;stroke-miterlimit:10;stroke-dasharray:none;stroke-opacity:1" />
    <path
       id="path2"
       d="m 382.54891,164.8433 33.94112,33.94112 v 67.88225"
       style="fill:none;stroke:#000000;stroke-width:0.6;stroke-linecap:butt;stroke-linejoin:miter;stroke-miterlimit:10;stroke-dasharray:none;stroke-opacity:1" />
    <path
       id="path3"
       d="m 382.54891,164.8433 -33.94113,33.94112 v 67.88225 l -33.94112,33.94112 -33.94113,-33.94112 h -67.88225 l -33.94112,33.94112 67.88225,67.88225"
       style="fill:none;stroke:#000000;stroke-width:0.6;stroke-linecap:butt;stroke-linejoin:miter;stroke-miterlimit:10;stroke-dasharray:none;stroke-opacity:1" />
    <path
       id="path4"
       d="m 348.60778,266.66667 -33.94112,-33.94112 -33.94113,33.94112"
       style="fill:none;stroke:#000000;stroke-width:0.6;stroke-linecap:butt;stroke-linejoin:miter;stroke-miterlimit:10;stroke-dasharray:none;stroke-opacity:1" />
    <path
       id="path5"
       d="m 450.43116,300.60779 -33.94113,33.94113 -33.94112,-33.94113 33.94112,-33.94112 h -67.88225 l -33.94112,33.94112 -33.94113,-33.94112 v 67.88225 l -33.94112,33.94112 h 67.88225 l 33.94112,-33.94112 67.88225,67.88225 67.88225,-67.88225 -33.94112,-33.94113"
       style="fill:#0000ff;fill-opacity:1;fill-rule:nonzero;stroke:none;stroke-width:0.133333" />
    <path
       id="path6"
       d="m 450.43116,300.60779 -33.94113,33.94113 -33.94112,-33.94113 33.94112,-33.94112 h -67.88225 l -33.94112,33.94112 -33.94113,-33.94112 v 67.88225 l -33.94112,33.94112 h 67.88225 l 33.94112,-33.94112 67.88225,67.88225 67.88225,-67.88225 -33.94112,-33.94113"
       style="fill:url(#pattern21);fill-opacity:1;fill-rule:nonzero;stroke:none;stroke-width:0.133333" />
    <path
       id="path9"
       d="m 450.43116,300.60779 -33.94113,33.94113 -33.94112,-33.94113 33.94112,-33.94112 h -67.88225 l -33.94112,33.94112 -33.94113,-33.94112 v 67.88225 l -33.94112,33.94112 h 67.88225 l 33.94112,-33.94112 67.88225,67.88225 67.88225,-67.88225 z"
       style="fill:none;stroke:#000000;stroke-width:2.4;stroke-linecap:butt;stroke-linejoin:miter;stroke-miterlimit:10;stroke-dasharray:none;stroke-opacity:1" />
    <path
       id="path10"
       d="m 212.84328,266.66667 -33.94112,-33.94112 -33.94112,33.94112 33.94112,33.94112 v 67.88225 h 67.88225 l -33.94113,-33.94112 v -67.88225"
       style="fill:#0000ff;fill-opacity:1;fill-rule:nonzero;stroke:none;stroke-width:0.133333" />
    <path
       id="path11"
       d="m 212.84328,266.66667 -33.94112,-33.94112 -33.94112,33.94112 33.94112,33.94112 v 67.88225 h 67.88225 l -33.94113,-33.94112 v -67.88225"
       style="fill:url(#pattern20);fill-opacity:1;fill-rule:nonzero;stroke:none;stroke-width:0.133333" />
    <path
       id="path14"
       d="m 212.84328,266.66667 -33.94112,-33.94112 -33.94112,33.94112 33.94112,33.94112 v 67.88225 h 67.88225 l -33.94113,-33.94112 z"
       style="fill:none;stroke:#000000;stroke-width:2.4;stroke-linecap:butt;stroke-linejoin:miter;stroke-miterlimit:10;stroke-dasharray:none;stroke-opacity:1" />
    <path
       id="path15"
       d="m 450.43116,164.8433 v 67.88225 l 33.94112,33.94112 -33.94112,33.94112 -33.94113,-33.94112 V 198.78442 L 382.54891,164.8433 h 67.88225"
       style="fill:#ffff00;fill-opacity:1;fill-rule:nonzero;stroke:none;stroke-width:0.133333" />
    <path
       id="path16"
       d="m 450.43116,164.8433 v 67.88225 l 33.94112,33.94112 -33.94112,33.94112 -33.94113,-33.94112 V 198.78442 L 382.54891,164.8433 h 67.88225"
       style="fill:url(#pattern19);fill-opacity:1;fill-rule:nonzero;stroke:none;stroke-width:0.133333" />
    <path
       id="path19"
       d="m 450.43116,164.8433 v 67.88225 l 33.94112,33.94112 -33.94112,33.94112 -33.94113,-33.94112 V 198.78442 L 382.54891,164.8433 Z"
       style="fill:none;stroke:#000000;stroke-width:2.4;stroke-linecap:butt;stroke-linejoin:miter;stroke-miterlimit:10;stroke-dasharray:none;stroke-opacity:1" />
    <path
       id="path20"
       d="m 382.54891,164.8433 -33.94113,33.94112 v 67.88225 h 67.88225 V 198.78442 L 382.54891,164.8433"
       style="fill:#00ff00;fill-opacity:1;fill-rule:nonzero;stroke:none;stroke-width:0.133333" />
    <path
       id="path21"
       d="m 382.54891,164.8433 -33.94113,33.94112 v 67.88225 h 67.88225 V 198.78442 L 382.54891,164.8433"
       style="fill:url(#pattern17);fill-opacity:1;fill-rule:nonzero;stroke:none;stroke-width:0.133333" />
    <path
       id="path26"
       d="m 382.54891,164.8433 -33.94113,33.94112 v 67.88225 h 67.88225 v -67.88225 z"
       style="fill:none;stroke:#000000;stroke-width:2.4;stroke-linecap:butt;stroke-linejoin:miter;stroke-miterlimit:10;stroke-dasharray:none;stroke-opacity:1" />
    <path
       id="path27"
       d="m 382.54891,164.8433 h -67.88225 l -33.94113,33.94112 -67.88225,-67.88225 -67.88224,67.88225 33.94112,33.94113 33.94112,-33.94113 33.94113,33.94113 -33.94113,33.94112 h 67.88225 l 33.94113,-33.94112 33.94112,33.94112 v -67.88225 l 33.94113,-33.94112"
       style="fill:#ffff00;fill-opacity:1;fill-rule:nonzero;stroke:none;stroke-width:0.133333" />
    <path
       id="path28"
       d="m 382.54891,164.8433 h -67.88225 l -33.94113,33.94112 -67.88225,-67.88225 -67.88224,67.88225 33.94112,33.94113 33.94112,-33.94113 33.94113,33.94113 -33.94113,33.94112 h 67.88225 l 33.94113,-33.94112 33.94112,33.94112 v -67.88225 l 33.94113,-33.94112"
       style="fill:url(#pattern16);fill-opacity:1;fill-rule:nonzero;stroke:none;stroke-width:0.133333" />
    <path
       id="path31"
       d="m 382.54891,164.8433 h -67.88225 l -33.94113,33.94112 -67.88225,-67.88225 -67.88224,67.88225 33.94112,33.94113 33.94112,-33.94113 33.94113,33.94113 -33.94113,33.94112 h 67.88225 l 33.94113,-33.94112 33.94112,33.94112 v -67.88225 z"
       style="fill:none;stroke:#000000;stroke-width:2.4;stroke-linecap:butt;stroke-linejoin:miter;stroke-miterlimit:10;stroke-dasharray:none;stroke-opacity:1" />
    <path
       id="path32"
       d="m 280.72553,266.66667 v 67.88225 l -33.94112,33.94112 -33.94113,-33.94112 v -67.88225 h 67.88225"
       style="fill:#00ff00;fill-opacity:1;fill-rule:nonzero;stroke:none;stroke-width:0.133333" />
    <path
       id="path33"
       d="m 280.72553,266.66667 v 67.88225 l -33.94112,33.94112 -33.94113,-33.94112 v -67.88225 h 67.88225"
       style="fill:url(#pattern15);fill-opacity:1;fill-rule:nonzero;stroke:none;stroke-width:0.133333" />
    <path
       id="path38"
       d="m 280.72553,266.66667 v 67.88225 l -33.94112,33.94112 -33.94113,-33.94112 v -67.88225 z"
       style="fill:none;stroke:#000000;stroke-width:2.4;stroke-linecap:butt;stroke-linejoin:miter;stroke-miterlimit:10;stroke-dasharray:none;stroke-opacity:1" />
    <path
       id="path39"
       d="m 620.13678,266.66667 33.94113,33.94112 33.94112,-33.94112 -33.94112,-33.94112 z"
       style="fill:#ffff00;fill-opacity:1;fill-rule:nonzero;stroke:none;stroke-width:0.133333" />
    <path
       id="path40"
       d="m 620.13678,266.66667 33.94113,33.94112 33.94112,-33.94112 -33.94112,-33.94112 z"
       style="fill:url(#pattern14);fill-opacity:1;fill-rule:nonzero;stroke:#000000;stroke-width:2.4;stroke-linecap:butt;stroke-linejoin:miter;stroke-miterlimit:10;stroke-dasharray:none;stroke-opacity:1" />
    <path
       id="path43"
       d="M -58.685712,198.78442 -24.744588,232.72555 9.196537,198.78442 -24.744588,164.8433 Z"
       style="fill:#ffff00;fill-opacity:1;fill-rule:nonzero;stroke:none;stroke-width:0.133333" />
    <path
       id="path44"
       d="M -58.685712,198.78442 -24.744588,232.72555 9.196537,198.78442 -24.744588,164.8433 Z"
       style="fill:url(#pattern12);fill-opacity:1;fill-rule:nonzero;stroke:#000000;stroke-width:2.4;stroke-linecap:butt;stroke-linejoin:miter;stroke-miterlimit:10;stroke-dasharray:none;stroke-opacity:1" />
    <path
       id="path47"
       d="m 111.01991,232.72555 33.94113,33.94112 33.94112,-33.94112 -33.94112,-33.94113 z"
       style="fill:#00ff00;fill-opacity:1;fill-rule:nonzero;stroke:none;stroke-width:0.133333" />
    <path
       id="path48"
       d="m 111.01991,232.72555 33.94113,33.94112 33.94112,-33.94112 -33.94112,-33.94113 z"
       style="fill:url(#pattern11);fill-opacity:1;fill-rule:nonzero;stroke:#000000;stroke-width:2.4;stroke-linecap:butt;stroke-linejoin:miter;stroke-miterlimit:10;stroke-dasharray:none;stroke-opacity:1" />
    <path
       id="path53"
       d="M -24.744588,232.72555 9.196537,266.66667 43.137662,232.72555 9.196537,198.78442 Z"
       style="fill:#00ff00;fill-opacity:1;fill-rule:nonzero;stroke:none;stroke-width:0.133333" />
    <path
       id="path54"
       d="M -24.744588,232.72555 9.196537,266.66667 43.137662,232.72555 9.196537,198.78442 Z"
       style="fill:url(#pattern10);fill-opacity:1;fill-rule:nonzero;stroke:#000000;stroke-width:2.4;stroke-linecap:butt;stroke-linejoin:miter;stroke-miterlimit:10;stroke-dasharray:none;stroke-opacity:1" />
    <path
       id="path59"
       d="m 552.25453,198.78442 67.88225,67.88225 -33.94112,33.94112 -33.94113,-33.94112 -33.94112,33.94112 -33.94113,-33.94112 67.88225,-67.88225"
       style="fill:#0000ff;fill-opacity:1;fill-rule:nonzero;stroke:none;stroke-width:0.133333" />
    <path
       id="path60"
       d="m 552.25453,198.78442 67.88225,67.88225 -33.94112,33.94112 -33.94113,-33.94112 -33.94112,33.94112 -33.94113,-33.94112 67.88225,-67.88225"
       style="fill:url(#pattern9);fill-opacity:1;fill-rule:nonzero;stroke:none;stroke-width:0.133333" />
    <path
       id="path63"
       d="m 552.25453,198.78442 67.88225,67.88225 -33.94112,33.94112 -33.94113,-33.94112 -33.94112,33.94112 -33.94113,-33.94112 z"
       style="fill:none;stroke:#000000;stroke-width:2.4;stroke-linecap:butt;stroke-linejoin:miter;stroke-miterlimit:10;stroke-dasharray:none;stroke-opacity:1" />
    <path
       id="path64"
       d="m 620.13678,334.54892 33.94113,33.94112 33.94112,-33.94112 -33.94112,-33.94113 z"
       style="fill:#0000ff;fill-opacity:1;fill-rule:nonzero;stroke:none;stroke-width:0.133333" />
    <path
       id="path65"
       d="m 620.13678,334.54892 33.94113,33.94112 33.94112,-33.94112 -33.94112,-33.94113 z"
       style="fill:url(#pattern7);fill-opacity:1;fill-rule:nonzero;stroke:#000000;stroke-width:2.4;stroke-linecap:butt;stroke-linejoin:miter;stroke-miterlimit:10;stroke-dasharray:none;stroke-opacity:1" />
    <path
       id="path68"
       d="m 144.96104,198.78442 -67.882254,-67.88225 -67.882249,67.88225 33.941125,33.94113 33.941124,-33.94113 33.941124,33.94113 33.94113,-33.94113"
       style="fill:#0000ff;fill-opacity:1;fill-rule:nonzero;stroke:none;stroke-width:0.133333" />
    <path
       id="path69"
       d="m 144.96104,198.78442 -67.882254,-67.88225 -67.882249,67.88225 33.941125,33.94113 33.941124,-33.94113 33.941124,33.94113 33.94113,-33.94113"
       style="fill:url(#pattern6);fill-opacity:1;fill-rule:nonzero;stroke:none;stroke-width:0.133333" />
    <path
       id="path72"
       d="M 144.96104,198.78442 77.078786,130.90217 9.196537,198.78442 43.137662,232.72555 77.078786,198.78442 111.01991,232.72555 Z"
       style="fill:none;stroke:#000000;stroke-width:2.4;stroke-linecap:butt;stroke-linejoin:miter;stroke-miterlimit:10;stroke-dasharray:none;stroke-opacity:1" />
    <path
       id="path73"
       d="m -58.685712,266.66667 33.941124,33.94112 33.941125,-33.94112 -33.941125,-33.94112 z"
       style="fill:#0000ff;fill-opacity:1;fill-rule:nonzero;stroke:none;stroke-width:0.133333" />
    <path
       id="path74"
       d="m -58.685712,266.66667 33.941124,33.94112 33.941125,-33.94112 -33.941125,-33.94112 z"
       style="fill:url(#pattern5);fill-opacity:1;fill-rule:nonzero;stroke:#000000;stroke-width:2.4;stroke-linecap:butt;stroke-linejoin:miter;stroke-miterlimit:10;stroke-dasharray:none;stroke-opacity:1" />
    <path
       id="path77"
       d="m 251.02705,372.73268 c -2.34288,2.34288 -6.1424,2.34288 -8.48528,0 -2.34288,-2.34288 -2.34288,-6.1424 0,-8.48528 2.34288,-2.34288 6.1424,-2.34288 8.48528,0 2.34288,2.34288 2.34288,6.1424 0,8.48528"
       style="fill:#ff0000;fill-opacity:1;fill-rule:evenodd;stroke:none;stroke-width:0.133333" />
    <path
       id="path78"
       d="m 251.02705,372.73268 c -2.34288,2.34288 -6.1424,2.34288 -8.48528,0 -2.34288,-2.34288 -2.34288,-6.1424 0,-8.48528 2.34288,-2.34288 6.1424,-2.34288 8.48528,0 2.34288,2.34288 2.34288,6.1424 0,8.48528 z"
       style="fill:none;stroke:#000000;stroke-width:2.4;stroke-linecap:butt;stroke-linejoin:miter;stroke-miterlimit:10;stroke-dasharray:none;stroke-opacity:1" />
    <path
       id="path79"
       d="m 386.79155,171.57495 c -2.34288,2.34288 -6.1424,2.34288 -8.48528,0 -2.34288,-2.34288 -2.34288,-6.1424 0,-8.48528 2.34288,-2.34288 6.1424,-2.34288 8.48528,0 2.34288,2.34288 2.34288,6.1424 0,8.48528"
       style="fill:#ff0000;fill-opacity:1;fill-rule:evenodd;stroke:none;stroke-width:0.133333" />
    <path
       id="path80"
       d="m 386.79155,171.57495 c -2.34288,2.34288 -6.1424,2.34288 -8.48528,0 -2.34288,-2.34288 -2.34288,-6.1424 0,-8.48528 2.34288,-2.34288 6.1424,-2.34288 8.48528,0 2.34288,2.34288 2.34288,6.1424 0,8.48528 z"
       style="fill:none;stroke:#000000;stroke-width:2.4;stroke-linecap:butt;stroke-linejoin:miter;stroke-miterlimit:10;stroke-dasharray:none;stroke-opacity:1" />
    <path
       id="path81"
       d="m 586.19566,300.60779 33.94112,33.94113 33.94113,-33.94113 -33.94113,-33.94112 z"
       style="fill:#00ff00;fill-opacity:1;fill-rule:nonzero;stroke:none;stroke-width:0.133333" />
    <path
       id="path82"
       d="m 586.19566,300.60779 33.94112,33.94113 33.94113,-33.94113 -33.94113,-33.94112 z"
       style="fill:url(#pattern4);fill-opacity:1;fill-rule:nonzero;stroke:#000000;stroke-width:2.4;stroke-linecap:butt;stroke-linejoin:miter;stroke-miterlimit:10;stroke-dasharray:none;stroke-opacity:1" />
    <path
       id="path87"
       d="m 450.43116,300.60779 33.94112,33.94113 33.94113,-33.94113 -33.94113,-33.94112 z"
       style="fill:#00ff00;fill-opacity:1;fill-rule:nonzero;stroke:none;stroke-width:0.133333" />
    <path
       id="path88"
       d="m 450.43116,300.60779 33.94112,33.94113 33.94113,-33.94113 -33.94113,-33.94112 z"
       style="fill:url(#pattern3);fill-opacity:1;fill-rule:nonzero;stroke:#000000;stroke-width:2.4;stroke-linecap:butt;stroke-linejoin:miter;stroke-miterlimit:10;stroke-dasharray:none;stroke-opacity:1" />
    <path
       id="path93"
       d="m 586.19566,300.60779 33.94112,33.94113 -67.88225,67.88225 -67.88225,-67.88225 33.94113,-33.94113 33.94112,33.94113 33.94113,-33.94113"
       style="fill:#ffff00;fill-opacity:1;fill-rule:nonzero;stroke:none;stroke-width:0.133333" />
    <path
       id="path94"
       d="m 586.19566,300.60779 33.94112,33.94113 -67.88225,67.88225 -67.88225,-67.88225 33.94113,-33.94113 33.94112,33.94113 33.94113,-33.94113"
       style="fill:url(#pattern2);fill-opacity:1;fill-rule:nonzero;stroke:none;stroke-width:0.133333" />
    <path
       id="path97"
       d="m 586.19566,300.60779 33.94112,33.94113 -67.88225,67.88225 -67.88225,-67.88225 33.94113,-33.94113 33.94112,33.94113 z"
       style="fill:none;stroke:#000000;stroke-width:2.4;stroke-linecap:butt;stroke-linejoin:miter;stroke-miterlimit:10;stroke-dasharray:none;stroke-opacity:1" />
    <path
       id="path98"
       d="m 111.01991,232.72555 33.94113,33.94112 -67.882254,67.88225 -67.882249,-67.88225 33.941125,-33.94112 33.941124,33.94112 33.941124,-33.94112"
       style="fill:#ffff00;fill-opacity:1;fill-rule:nonzero;stroke:none;stroke-width:0.133333" />
    <path
       id="path99"
       d="m 111.01991,232.72555 33.94113,33.94112 -67.882254,67.88225 -67.882249,-67.88225 33.941125,-33.94112 33.941124,33.94112 33.941124,-33.94112"
       style="fill:url(#pattern1);fill-opacity:1;fill-rule:nonzero;stroke:none;stroke-width:0.133333" />
    <path
       id="path102"
       d="m 111.01991,232.72555 33.94113,33.94112 -67.882254,67.88225 -67.882249,-67.88225 33.941125,-33.94112 33.941124,33.94112 z"
       style="fill:none;stroke:#000000;stroke-width:2.4;stroke-linecap:butt;stroke-linejoin:miter;stroke-miterlimit:10;stroke-dasharray:none;stroke-opacity:1" />
  </g>
</svg>
