<?xml version="1.0" encoding="UTF-8" standalone="no"?>
<svg
   xmlns:dc="http://purl.org/dc/elements/1.1/"
   xmlns:cc="http://creativecommons.org/ns#"
   xmlns:rdf="http://www.w3.org/1999/02/22-rdf-syntax-ns#"
   xmlns:svg="http://www.w3.org/2000/svg"
   xmlns="http://www.w3.org/2000/svg"
   xmlns:sodipodi="http://sodipodi.sourceforge.net/DTD/sodipodi-0.dtd"
   xmlns:inkscape="http://www.inkscape.org/namespaces/inkscape"
   width="1000"
   height="1000"
   version="1.1"
   id="svg2"
   inkscape:version="0.48.2 r9819"
   sodipodi:docname="Hamilton.svg">
  <metadata
     id="metadata22">
    <rdf:RDF>
      <cc:Work
         rdf:about="">
        <dc:format>image/svg+xml</dc:format>
        <dc:type
           rdf:resource="http://purl.org/dc/dcmitype/StillImage" />
      </cc:Work>
    </rdf:RDF>
  </metadata>
  <defs
     id="defs20" />
  <sodipodi:namedview
     pagecolor="#ffffff"
     bordercolor="#666666"
     borderopacity="1"
     objecttolerance="10"
     gridtolerance="10"
     guidetolerance="10"
     inkscape:pageopacity="0"
     inkscape:pageshadow="2"
     inkscape:window-width="1280"
     inkscape:window-height="699"
     id="namedview18"
     showgrid="false"
     inkscape:zoom="0.39333333"
     inkscape:cx="280.9322"
     inkscape:cy="600"
     inkscape:window-x="0"
     inkscape:window-y="0"
     inkscape:window-maximized="1"
     inkscape:current-layer="svg2" />
  <g
     id="g2999"
     transform="matrix(-1,0,0,1,1095.6572,-84.914471)">
    <path
       id="path4"
       d="m 884.45689,851.03469 -8.13718,0.27099 -7.99588,0.16405 -7.85733,0.0598 -7.7214,-0.0417 -7.58794,-0.14066 -7.45683,-0.23712 -7.32796,-0.33115 -7.20118,-0.4228 -7.07643,-0.51216 -6.95359,-0.59925 -3.4313,-0.3316 -3.40126,-0.35255 -3.37144,-0.37325 -3.34182,-0.39367 -3.31241,-0.41383 -3.2832,-0.43375 -3.25417,-0.45339 -3.22535,-0.4728 -3.19669,-0.49195 -3.16823,-0.51085 -4.18034,-0.71013 -4.13044,-0.74272 -4.08094,-0.77476 -4.03183,-0.80624 -3.98309,-0.83716 -3.93471,-0.86754 -3.88667,-0.89739 -3.83897,-0.92669 -3.79161,-0.95548 -3.74455,-0.98373 -4.61502,-1.26864 -4.54257,-1.31098 -4.47071,-1.35237 -4.39939,-1.39276 -4.32861,-1.43222 -4.25834,-1.4707 -4.18858,-1.50827 -4.11928,-1.54489 -4.05048,-1.5806 -3.98212,-1.6154 -4.68894,-1.98314 -4.5919,-2.03043 -4.49557,-2.07617 -4.39994,-2.12041 -4.305,-2.16317 -4.21072,-2.20443 -4.11708,-2.24426 -4.02407,-2.28261 -3.93168,-2.31953 -3.83988,-2.35504 A 215.19,179.32 191.43 0 0 475.22,764.73 l -5.94907,0.8866 -6.07911,0.76717 -6.20498,0.64104 -6.33089,0.51115 -6.45685,0.37748 -6.58293,0.23993 -6.70913,0.0985 -6.83552,-0.047 -6.96213,-0.19655 -7.08903,-0.35027 -2.69117,-0.17185 -2.70908,-0.19429 -2.72702,-0.21696 -2.74497,-0.23987 -2.76296,-0.26301 -2.78096,-0.28638 -2.799,-0.31 -2.81706,-0.33385 -2.83516,-0.35795 -2.85329,-0.38229 -2.87145,-0.40689 -2.88965,-0.43173 -2.90788,-0.45683 -2.92616,-0.48219 -2.94448,-0.50779 -2.96284,-0.53367 -2.98124,-0.55982 -2.99971,-0.58622 -3.01822,-0.6129 -3.03677,-0.63985 -4.078,-0.89555 -4.11124,-0.94463 -4.14462,-0.99439 -4.17816,-1.04484 -4.21187,-1.096 -4.24574,-1.14787 -4.27981,-1.20048 -4.31406,-1.25382 -4.34853,-1.30792 -4.3832,-1.3628 -1.10125,-0.34936 -1.10343,-0.35286 -1.10562,-0.35636 -1.10782,-0.35988 -1.11001,-0.36341 -1.11221,-0.36695 -1.11442,-0.3705 -1.11662,-0.37407 -1.11884,-0.37765 -1.12105,-0.38125 A 83.44,115.89 254.29 0 1 267.97,633.22 l 3.78592,-4.50236 3.78797,-4.40302 3.78677,-4.30035 3.78517,-4.19924 3.78313,-4.09962 3.78065,-4.00144 3.77775,-3.90468 3.77441,-3.80929 3.77061,-3.71522 3.76639,-3.62245 2.25761,-2.12946 2.25582,-2.09679 2.25395,-2.06437 2.25197,-2.03221 2.24989,-2.0003 2.24771,-1.96866 2.24544,-1.93724 2.24306,-1.90608 2.24059,-1.87516 2.23801,-1.84447 2.23535,-1.81401 2.23256,-1.78379 2.22969,-1.75379 2.22672,-1.72401 2.22364,-1.69446 2.22047,-1.66512 2.21718,-1.63601 2.21381,-1.60709 2.21032,-1.5784 2.20675,-1.5499 A 34.08,37.87 284.29 0 0 359.81,519.3 l -1.19269,-2.41473 -1.18628,-2.44327 -1.17562,-2.47015 -1.16475,-2.49715 -1.15371,-2.5243 -1.14247,-2.55157 -1.13103,-2.57901 -1.11941,-2.60657 -1.10758,-2.63429 -1.09557,-2.66217 -1.44171,-3.59318 -1.41953,-3.64337 -1.39685,-3.69395 -1.37371,-3.74492 -1.35006,-3.7963 -1.32594,-3.84808 -1.30131,-3.90029 -1.27619,-3.95294 -1.25055,-4.00603 -1.22441,-4.05959 -0.30196,-1.02332 -0.30028,-1.0267 -0.2986,-1.0301 -0.29691,-1.0335 -0.29521,-1.0369 -0.2935,-1.04032 -0.29179,-1.04374 -0.29006,-1.04717 -0.28833,-1.05061 -0.28659,-1.05406 A 48.06,61.62 305.71 0 1 368.01,395.26 l 5.42043,-0.28937 5.3578,-0.22515 5.29105,-0.15878 5.22485,-0.0937 5.15916,-0.0298 5.09399,0.0329 5.0293,0.0944 4.96505,0.1548 4.90126,0.21399 4.83787,0.27206 A 34.29,40.82 322.86 0 0 451.83,370.59 l 0.61862,-2.8377 0.64647,-2.8493 0.67286,-2.86562 0.6995,-2.88194 0.72642,-2.8983 0.7536,-2.91467 0.78103,-2.93108 0.80875,-2.94751 0.83674,-2.96397 0.865,-2.98047 A 34.31,43.99 335.71 0 1 499.34,323.43 l 2.80276,1.32069 2.77599,1.33385 2.74513,1.34394 2.71446,1.35384 2.68401,1.36357 2.65375,1.37311 2.62368,1.38246 2.59381,1.39164 2.56411,1.40064 2.53461,1.40945 A 45.68,54.38 350 0 0 579.59,327.66 l 3.18411,-3.65387 3.26904,-3.65807 3.35598,-3.6624 3.44402,-3.66625 3.53323,-3.66962 3.62362,-3.6725 3.71522,-3.67491 3.80807,-3.67682 3.9022,-3.67826 3.99765,-3.67923 2.44497,-2.2078 2.48012,-2.20788 2.51557,-2.20786 2.55134,-2.20773 2.58742,-2.2075 2.62382,-2.20717 2.66056,-2.20675 2.69762,-2.20622 2.73503,-2.20559 2.77279,-2.20487 A 35.91,49.87 371.43 0 1 690.38,278.78 l 1.13335,2.07503 1.12068,2.06785 1.10514,2.06163 1.08972,2.05544 1.07439,2.04924 1.05918,2.04307 1.04405,2.0369 1.02905,2.03074 1.01412,2.0246 0.99931,2.01847 1.4714,3.01621 1.43861,3.00245 1.40614,2.98872 1.374,2.97501 1.34215,2.96133 1.31064,2.94766 1.2794,2.93401 1.24849,2.92038 1.21785,2.90674 1.18751,2.89314 1.15747,2.87953 1.12769,2.86593 1.09821,2.85234 1.069,2.83875 1.04005,2.82515 1.01139,2.81157 0.98298,2.79798 0.95483,2.78437 0.92696,2.77078 0.89933,2.75717 0.87195,2.74355 0.84484,2.72993 0.81795,2.71629 0.79133,2.70265 0.76494,2.68898 0.7388,2.67531 0.71288,2.66162 0.68721,2.64791 0.66176,2.63419 0.63656,2.62045 0.41047,1.73931 0.39944,1.7332 0.38847,1.72706 0.37756,1.72093 0.36673,1.71479 0.35595,1.70864 0.34524,1.70249 0.33461,1.69632 0.32402,1.69015 0.31351,1.68397 A 75.32,83.68 404.29 0 0 795.64,459.34 l 4.2444,0.69944 4.28041,0.76335 4.32051,0.8297 4.36054,0.89708 4.40048,0.96551 4.44037,1.03499 4.4802,1.10557 4.51998,1.17722 4.55973,1.25001 4.59946,1.32392 2.77873,0.83031 2.79303,0.85759 2.80732,0.88512 2.82161,0.91292 2.83591,0.94098 2.8502,0.9693 2.86452,0.99789 2.87883,1.02675 2.89315,1.0559 2.9075,1.08531 2.92184,1.11502 2.93621,1.14501 2.95059,1.17529 2.96499,1.20586 2.97942,1.23674 2.99387,1.26791 3.00834,1.2994 3.02285,1.33119 3.03739,1.36331 3.05195,1.39575 7.1781,3.38471 7.25816,3.56736 7.33883,3.75441 7.4202,3.94605 7.50238,4.14249 7.58547,4.34388 7.66959,4.55048 7.75487,4.7625 7.84143,4.98019 7.92943,5.20381 A 190.95,329.22 465.71 0 1 884.46,851.03"
       inkscape:connector-curvature="0"
       style="fill:none;stroke:#ff0000;stroke-width:2" />
    <path
       id="path6"
       d="m 581.08914,978.91492 -5.28531,-6.19294 -5.11361,-6.14915 -4.94575,-6.1058 -4.78162,-6.06283 -4.62103,-6.02019 -4.46387,-5.97783 -4.31,-5.93569 -4.15931,-5.89372 -4.01166,-5.8519 -3.86698,-5.81016 -1.88012,-2.88945 -1.84502,-2.87903 -1.81024,-2.86861 -1.77581,-2.85819 -1.7417,-2.84777 -1.70793,-2.83734 -1.67446,-2.8269 -1.64132,-2.81646 -1.60849,-2.80601 -1.57596,-2.79553 -2.0512,-3.71107 -1.9946,-3.69239 -1.9387,-3.67367 -1.88346,-3.65489 -1.8289,-3.63607 -1.77497,-3.61718 -1.7217,-3.59823 -1.66904,-3.57921 -1.61701,-3.56013 -1.56557,-3.54096 -1.88556,-4.39914 -1.80728,-4.36892 -1.73012,-4.33853 -1.65407,-4.30796 -1.57909,-4.27721 -1.50519,-4.24627 -1.43232,-4.21515 -1.36049,-4.18381 -1.28967,-4.15228 -1.21984,-4.12053 -1.37302,-4.90244 -1.27555,-4.85603 -1.17973,-4.80925 -1.08551,-4.76207 -0.9929,-4.7145 -0.90184,-4.66652 -0.81233,-4.61813 -0.72435,-4.56933 -0.63788,-4.52011 -0.55288,-4.47048 A 215.19,179.32 242.86 0 0 393.41,605.15 l -4.40251,-4.09784 -4.39007,-4.27452 -4.36992,-4.45157 -4.34688,-4.63098 -4.3209,-4.81282 -4.29198,-4.99714 -4.26007,-5.18402 -4.22513,-5.37353 -4.18715,-5.56576 -4.14608,-5.76081 -1.54356,-2.21119 -1.53719,-2.23918 -1.53063,-2.26735 -1.52393,-2.29566 -1.51705,-2.32414 -1.51,-2.35281 -1.50278,-2.38162 -1.4954,-2.41062 -1.48783,-2.4398 -1.48011,-2.46914 -1.4722,-2.49868 -1.46412,-2.5284 -1.45587,-2.5583 -1.44745,-2.58841 -1.43884,-2.61869 -1.43006,-2.64918 -1.4211,-2.67987 -1.41196,-2.71077 -1.40264,-2.74187 -1.39314,-2.77319 -1.84243,-3.74667 -1.82477,-3.80327 -1.80668,-3.86038 -1.78815,-3.91807 -1.76917,-3.97631 -1.74974,-4.03514 -1.72984,-4.09457 -1.7095,-4.15462 -1.68869,-4.21529 -1.66741,-4.27662 -0.41347,-1.07881 -0.4121,-1.08271 -0.41073,-1.08659 -0.40934,-1.09051 -0.40796,-1.09442 -0.40656,-1.09835 -0.40516,-1.10229 -0.40374,-1.10624 -0.40232,-1.1102 -0.4009,-1.11418 A 83.44,115.89 305.71 0 1 367,361.12 l 5.89081,0.1536 5.80417,0.21632 5.72317,0.27939 5.64311,0.34118 5.56395,0.4017 5.48566,0.46098 5.40819,0.51903 5.33153,0.5759 5.25561,0.63158 5.18045,0.68612 3.07247,0.43737 3.04582,0.45635 3.0193,0.47509 2.99293,0.4936 2.96668,0.51186 2.94058,0.5299 2.91461,0.5477 2.88876,0.56528 2.86304,0.58262 2.83745,0.59974 2.81196,0.61665 2.78661,0.63331 2.76135,0.64978 2.73623,0.66601 2.7112,0.68204 2.68628,0.69784 2.66147,0.71343 2.63676,0.72882 2.61216,0.74398 2.58765,0.75896 A 34.08,37.87 335.71 0 0 513.34,361.9 l 1.14206,-2.44177 1.1706,-2.45083 1.19826,-2.45925 1.22613,-2.46759 1.25425,-2.47587 1.28259,-2.4841 1.31115,-2.49226 1.33997,-2.50036 1.369,-2.5084 1.3983,-2.51638 1.91036,-3.36749 1.96344,-3.38144 2.01713,-3.39524 2.0714,-3.40893 2.12632,-3.42247 2.18184,-3.4359 2.23801,-3.4492 2.29484,-3.46238 2.35234,-3.47544 2.41051,-3.48839 0.61179,-0.87411 0.61549,-0.87491 0.61919,-0.87571 0.6229,-0.87651 0.62662,-0.8773 0.63036,-0.8781 0.6341,-0.87889 0.63787,-0.87968 0.64163,-0.88047 0.64541,-0.88126 A 48.06,61.62 357.14 0 1 615.42,290.97 l 3.61459,4.05706 3.51658,4.04851 3.42305,4.03772 3.33086,4.02655 3.23995,4.01505 3.1503,4.00318 3.06187,3.99095 2.97464,3.97835 2.88857,3.96538 2.80365,3.95203 A 34.29,40.82 374.29 0 0 686.98,341.12 l 2.60178,-1.28438 2.63074,-1.27109 2.65995,-1.26062 2.68933,-1.24996 2.71889,-1.23912 2.74865,-1.22809 2.77857,-1.21686 2.80871,-1.20544 2.83902,-1.19382 2.86954,-1.182 A 34.31,43.99 387.14 0 1 753.47,348.86 l 0.71559,3.01699 0.68795,3.002 0.66083,2.98416 0.63396,2.96636 0.60737,2.94862 0.58105,2.9309 0.55498,2.91323 0.52919,2.89559 0.50363,2.87798 0.47835,2.86042 A 45.68,54.38 401.43 0 0 800.2,414.24 l 4.84053,0.21289 4.89821,0.27507 4.95579,0.34034 5.01371,0.40678 5.07196,0.47442 5.13056,0.54329 5.18956,0.61341 5.24895,0.68481 5.30876,0.7575 5.36903,0.83153 3.25055,0.53501 3.27252,0.56245 3.2946,0.59017 3.3168,0.61823 3.33912,0.64657 3.36157,0.67523 3.38413,0.70423 3.40684,0.73353 3.42966,0.76316 3.45264,0.79314 A 35.91,49.87 422.86 0 1 907.49,470.38 l -0.91477,2.18438 -0.91798,2.16547 -0.92281,2.14944 -0.92757,2.13352 -0.93229,2.11768 -0.93695,2.10192 -0.94156,2.08627 -0.9461,2.07068 -0.9506,2.05519 -0.95504,2.03979 -1.44076,3.03096 -1.45046,2.99675 -1.45996,2.9628 -1.46929,2.92913 -1.47843,2.8957 -1.48741,2.86252 -1.49621,2.82961 -1.50482,2.79693 -1.51327,2.76448 -1.52154,2.73228 -1.52964,2.7003 -1.53757,2.66855 -1.54532,2.63701 -1.55292,2.60571 -1.56033,2.5746 -1.56758,2.54372 -1.57467,2.51303 -1.58158,2.48255 -1.58834,2.45228 -1.59492,2.42219 -1.60134,2.3923 -1.6076,2.3626 -1.61369,2.33308 -1.61963,2.30376 -1.6254,2.27461 -1.63101,2.24564 -1.63646,2.21685 -1.64176,2.18822 -1.64688,2.15978 -1.65187,2.1315 -1.10392,1.40537 -1.10602,1.39292 -1.10807,1.38052 -1.11007,1.36818 -1.11203,1.35587 -1.11393,1.34361 -1.1158,1.33141 -1.11762,1.31924 -1.11938,1.30712 -1.12112,1.29505 A 75.32,83.68 455.71 0 0 831.95,665.26 l 2.10146,3.75193 2.07198,3.82251 2.04511,3.89522 2.01738,3.96852 1.98879,4.04242 1.95933,4.11693 1.929,4.19207 1.89777,4.26785 1.86566,4.34431 1.83263,4.42145 1.08335,2.69019 1.07093,2.71837 1.05832,2.74672 1.04549,2.77522 1.03248,2.80389 1.01924,2.83273 1.00582,2.86175 0.99217,2.89093 0.97832,2.9203 0.96426,2.94985 0.94998,2.97959 0.93549,3.00952 0.92079,3.03964 0.90586,3.06997 0.89072,3.1005 0.87535,3.13123 0.85976,3.16218 0.84394,3.19335 0.8279,3.22473 0.81163,3.25635 1.8292,7.7224 1.73631,7.89886 1.64037,8.07857 1.54127,8.26167 1.43893,8.44839 1.33328,8.63893 1.2242,8.83351 1.11161,9.03237 0.99539,9.23577 0.87542,9.444 A 190.95,329.22 517.14 0 1 581.09,978.91"
       inkscape:connector-curvature="0"
       style="fill:none;stroke:#00ff00;stroke-width:2" />
    <path
       id="path8"
       d="m 291.96166,821.46448 1.5465,-7.99346 1.61931,-7.83191 1.69008,-7.67365 1.75882,-7.51853 1.82561,-7.36639 1.89048,-7.21711 1.95347,-7.07054 2.01461,-6.92655 2.07397,-6.78505 2.13155,-6.6459 1.08682,-3.27148 1.10056,-3.23753 1.11411,-3.20385 1.12742,-3.17044 1.14054,-3.13728 1.15345,-3.10436 1.16615,-3.0717 1.17865,-3.03927 1.19095,-3.00708 1.20304,-2.97512 1.62253,-3.9175 1.64321,-3.86161 1.66343,-3.80623 1.6832,-3.75134 1.70249,-3.69694 1.72134,-3.64301 1.73976,-3.58953 1.75771,-3.53651 1.77523,-3.48393 1.79232,-3.43178 2.26376,-4.217 2.28893,-4.13697 2.31329,-4.05769 2.3368,-3.97917 2.35951,-3.90138 2.3814,-3.82431 2.4025,-3.74794 2.42278,-3.67224 2.44229,-3.5972 2.461,-3.52283 2.97681,-4.13008 3.00131,-4.02496 3.02448,-3.92086 3.04633,-3.8178 3.06688,-3.71571 3.08614,-3.61461 3.10412,-3.51447 3.12082,-3.41525 3.13626,-3.31695 3.15045,-3.21957 A 215.19,179.32 294.29 0 0 467.17,441.7 l 0.45571,-6.00458 0.60479,-6.09741 0.75577,-6.19205 0.91042,-6.2859 1.06877,-6.37896 1.23092,-6.47127 1.39692,-6.56283 1.56687,-6.65368 1.74084,-6.74384 1.91895,-6.83335 0.76638,-2.58546 0.79224,-2.59793 0.81834,-2.61036 0.84467,-2.62278 0.87123,-2.63516 0.89802,-2.64751 0.92506,-2.65984 0.95234,-2.67215 0.97986,-2.68442 1.00763,-2.69668 1.03564,-2.70892 1.06392,-2.72112 1.09244,-2.73333 1.12122,-2.74549 1.15027,-2.75766 1.17959,-2.7698 1.20917,-2.78194 1.23902,-2.79405 1.26915,-2.80616 1.29955,-2.81825 1.78054,-3.77648 1.83578,-3.79797 1.89173,-3.81943 1.94837,-3.84091 2.00575,-3.86238 2.06386,-3.88387 2.12272,-3.90537 2.18235,-3.9269 2.24277,-3.94846 2.30399,-3.97006 0.58565,-0.99589 0.58955,-0.99725 0.59345,-0.9986 0.59737,-0.99996 0.60129,-1.00132 0.60524,-1.00267 0.6092,-1.00403 0.61316,-1.00539 0.61715,-1.00675 0.62115,-1.00811 A 83.44,115.89 357.14 0 1 641.49,268.9 l 3.55355,4.69541 3.44972,4.67275 3.3499,4.64876 3.25168,4.62468 3.155,4.60053 3.05985,4.57627 2.96615,4.55191 2.8739,4.52742 2.78303,4.50279 2.69353,4.47802 1.5737,2.67486 1.54225,2.66585 1.51106,2.6568 1.48015,2.64771 1.44951,2.63859 1.41913,2.62943 1.38901,2.62022 1.35917,2.61096 1.32956,2.60168 1.30022,2.59233 1.27112,2.58296 1.24227,2.57352 1.21367,2.56404 1.1853,2.55452 1.15717,2.54494 1.12927,2.53532 1.10162,2.52564 1.07418,2.51591 1.04698,2.50614 1.02,2.4963 A 34.08,37.87 387.14 0 0 732.12,383.79 l 2.62357,-0.62596 2.64599,-0.61286 2.66982,-0.59647 2.69372,-0.57989 2.71773,-0.56307 2.74182,-0.54604 2.76602,-0.5288 2.79032,-0.51132 2.81471,-0.49363 2.8392,-0.47571 3.8239,-0.60602 3.8679,-0.5732 3.91217,-0.53985 3.9567,-0.50594 4.00153,-0.47146 4.04665,-0.43642 4.09208,-0.40079 4.1378,-0.36458 4.18387,-0.32777 4.23026,-0.29037 1.06486,-0.0667 1.06778,-0.0643 1.07072,-0.0619 1.07365,-0.0595 1.0766,-0.0571 1.07954,-0.0547 1.0825,-0.0522 1.08547,-0.0498 1.08843,-0.0473 1.0914,-0.0449 A 48.06,61.62 408.57 0 1 851.23,419.38 l -0.92467,5.35432 -0.97272,5.27358 -1.02257,5.19372 -1.07133,5.11469 -1.11902,5.03644 -1.16563,4.95894 -1.21121,4.88218 -1.25574,4.80613 -1.29926,4.73075 -1.34177,4.65604 A 34.29,40.82 425.71 0 0 856.63,506.59 l 2.62803,1.23802 2.63402,1.26429 2.64404,1.29364 2.65403,1.32327 2.66399,1.35313 2.6739,1.38328 2.6838,1.41368 2.69364,1.44435 2.70347,1.47531 2.71326,1.50653 A 34.31,43.99 438.57 0 1 892.04,563.4 l -1.91648,2.44498 -1.91812,2.40958 -1.92109,2.37724 -1.92393,2.34516 -1.92663,2.31329 -1.9292,2.28167 -1.93162,2.25027 -1.93393,2.2191 -1.93608,2.18816 -1.93812,2.15743 A 45.68,54.38 452.86 0 0 870.05,640.7 l 2.85725,3.92041 2.83892,4.00108 2.8238,4.08679 2.80797,4.1735 2.7914,4.26121 2.77409,4.34998 2.75605,4.43981 2.73726,4.53076 2.71772,4.62286 2.69742,4.71612 1.60839,2.87496 1.60065,2.90923 1.59273,2.9438 1.58465,2.97863 1.5764,3.01377 1.56798,3.04918 1.55939,3.08489 1.55063,3.12092 1.54169,3.15725 1.53259,3.1939 A 35.91,49.87 474.29 0 1 893.05,759.59 l -2.27029,0.64536 -2.26538,0.63244 -2.25587,0.61868 -2.24638,0.60501 -2.23694,0.59146 -2.22753,0.57799 -2.21816,0.56463 -2.20881,0.55136 -2.1995,0.53818 -2.19023,0.52511 -3.268,0.76333 -3.2473,0.73444 -3.22668,0.70583 -3.20617,0.67754 -3.18574,0.64955 -3.1654,0.62186 -3.14514,0.59445 -3.12497,0.56734 -3.10487,0.5405 -3.08484,0.51396 -3.0649,0.48769 -3.04501,0.46169 -3.0252,0.43597 -3.00545,0.41051 -2.98575,0.38533 -2.96613,0.36039 -2.94656,0.33573 -2.92704,0.31131 -2.90757,0.28716 -2.88817,0.26325 -2.86879,0.2396 -2.84948,0.21618 -2.8302,0.19302 -2.81097,0.1701 -2.79178,0.1474 -2.77263,0.12496 -2.75352,0.10274 -2.73444,0.0808 -2.7154,0.059 -2.69639,0.0375 -1.78705,0.0131 -1.77862,0.004 -1.77021,-0.006 -1.7618,-0.0149 -1.7534,-0.024 -1.74501,-0.0332 -1.73662,-0.0422 -1.72825,-0.0512 -1.71987,-0.0602 -1.71152,-0.0691 A 75.32,83.68 507.14 0 0 693.6,822.04 l -1.62701,3.97703 -1.69669,4.00324 -1.7703,4.02756 -1.8449,4.05159 -1.9205,4.0753 -1.99712,4.09873 -2.07478,4.12186 -2.1535,4.14471 -2.2333,4.16725 -2.31421,4.18954 -1.42781,2.52431 -1.4576,2.53216 -1.48762,2.53998 -1.5179,2.54772 -1.54843,2.55542 -1.57923,2.56306 -1.61029,2.57064 -1.64161,2.57818 -1.67321,2.58566 -1.70508,2.59309 -1.73723,2.60047 -1.76967,2.6078 -1.80239,2.61509 -1.8354,2.62232 -1.86871,2.62952 -1.90233,2.63667 -1.93624,2.64378 -1.97046,2.65084 -2.00501,2.65786 -2.03988,2.66486 -4.89713,6.24496 -5.09301,6.28237 -5.29332,6.31939 -5.49827,6.35608 -5.70805,6.39249 -5.92291,6.42868 -6.14303,6.46473 -6.36872,6.50068 -6.6002,6.53664 -6.83781,6.57266 A 190.95,329.22 568.57 0 1 291.96,821.46"
       inkscape:connector-curvature="0"
       style="fill:none;stroke:#0000ff;stroke-width:2" />
    <path
       id="path10"
       d="m 234.79333,497.24678 7.21377,-3.77475 7.13286,-3.61708 7.05324,-3.46309 6.97483,-3.31262 6.89753,-3.16555 6.82126,-3.02176 6.74593,-2.88113 6.6715,-2.74354 6.59785,-2.60892 6.52497,-2.47714 3.23537,-1.19002 3.2174,-1.15811 3.19951,-1.12653 3.18168,-1.09528 3.16394,-1.06435 3.14625,-1.03374 3.12863,-1.00343 3.11108,-0.97345 3.09357,-0.94377 3.07613,-0.91438 4.07446,-1.17398 4.04365,-1.12296 4.01296,-1.07262 3.98237,-1.02295 3.95187,-0.97394 3.92146,-0.92557 3.89113,-0.87785 3.86087,-0.83075 3.83069,-0.78426 3.80055,-0.73839 4.70842,-0.85938 4.66154,-0.78979 4.61474,-0.72133 4.56801,-0.65398 4.52136,-0.58774 4.47475,-0.52256 4.42818,-0.45846 4.38165,-0.39539 4.33515,-0.33337 4.28867,-0.27235 5.08504,-0.2477 5.01813,-0.163 4.95118,-0.08 4.88423,0.001 4.81723,0.0811 4.7502,0.15917 4.6831,0.23566 4.61595,0.31058 4.54873,0.38394 4.48142,0.45575 A 215.19,179.32 345.71 0 0 640.95,397.45 l 4.97448,-3.38662 5.14422,-3.32882 5.31236,-3.2698 5.48215,-3.2074 5.65364,-3.14162 5.82691,-3.0724 6.00199,-2.9997 6.17898,-2.92348 6.35795,-2.84367 6.53897,-2.76023 2.49922,-1.01282 2.5251,-1.00038 2.55109,-0.98773 2.57721,-0.97489 2.60345,-0.96184 2.62982,-0.94859 2.65632,-0.93515 2.68294,-0.92149 2.70969,-0.90762 2.7366,-0.89356 2.76363,-0.87928 2.7908,-0.8648 2.81812,-0.85009 2.84559,-0.83518 2.87321,-0.82005 2.90098,-0.80471 2.9289,-0.78914 2.957,-0.77336 2.98524,-0.75735 3.01366,-0.74112 4.06272,-0.96252 4.11396,-0.93271 4.16563,-0.90237 4.21773,-0.87147 4.27029,-0.84 4.32333,-0.80796 4.37684,-0.77535 4.43085,-0.74215 4.48537,-0.70835 4.54043,-0.67397 1.14377,-0.16304 1.14726,-0.16085 1.15075,-0.15864 1.15425,-0.15643 1.15776,-0.15419 1.16128,-0.15196 1.16481,-0.14972 1.16835,-0.14746 1.17189,-0.14519 1.17545,-0.14291 A 83.44,115.89 408.57 0 1 884.74,426 l -1.46242,5.70653 -1.50244,5.61052 -1.54592,5.51751 -1.58833,5.4257 -1.62973,5.33507 -1.67009,5.24554 -1.70946,5.1571 -1.74783,5.0697 -1.78523,4.98331 -1.82167,4.89788 -1.1101,2.89812 -1.12267,2.86791 -1.13504,2.83788 -1.14721,2.80805 -1.15918,2.7784 -1.17095,2.74895 -1.18253,2.71965 -1.19391,2.69055 -1.20511,2.66161 -1.21609,2.63285 -1.2269,2.60425 -1.23752,2.57581 -1.24794,2.54754 -1.25819,2.51941 -1.26823,2.49146 -1.2781,2.46365 -1.28778,2.43599 -1.29728,2.40847 -1.30659,2.38112 -1.31573,2.35388 A 34.08,37.87 438.57 0 0 851.41,568.49 l 2.13042,1.66176 2.1289,1.68661 2.13095,1.71544 2.13288,1.74449 2.1347,1.77373 2.13642,1.8032 2.13801,1.83286 2.1395,1.86275 2.14088,1.89285 2.14214,1.92319 2.85796,2.6118 2.85975,2.66666 2.86127,2.72206 2.86252,2.77803 2.86352,2.83457 2.86425,2.8917 2.86471,2.94942 2.86492,3.00776 2.86486,3.06671 2.86455,3.12632 0.71605,0.79096 0.71602,0.79474 0.71597,0.79853 0.71592,0.80232 0.71587,0.80613 0.71582,0.80995 0.71575,0.81378 0.71569,0.81762 0.71562,0.82146 0.71555,0.82533 A 48.06,61.62 460 0 1 897.85,683.8 l -4.75896,2.62022 -4.72952,2.52753 -4.69818,2.43875 -4.66679,2.35135 -4.63534,2.26529 -4.60382,2.18052 -4.57222,2.09703 -4.54052,2.0148 -4.50873,1.93377 -4.47681,1.85395 A 34.29,40.82 477.14 0 0 833.04,742.41 l 0.6677,2.8178 0.65382,2.84763 0.63712,2.87377 0.62019,2.90004 0.60304,2.92646 0.58567,2.953 0.56806,2.97969 0.55022,3.00652 0.53214,3.03349 0.51384,3.06062 A 34.31,43.99 490 0 1 810.7,805.51 l -3.10747,0.0224 -3.07982,0.003 -3.05639,-0.0198 -3.03306,-0.042 -3.00984,-0.064 -2.98671,-0.0857 -2.96368,-0.10719 -2.94075,-0.12841 -2.9179,-0.1494 -2.89514,-0.17015 A 45.68,54.38 504.29 0 0 736.55,836.52 l -1.28075,4.66785 -1.35814,4.71419 -1.43457,4.75581 -1.51223,4.79749 -1.59114,4.83922 -1.67133,4.88104 -1.75282,4.92295 -1.83564,4.96496 -1.91982,5.0071 -2.0054,5.04939 -1.24491,3.04999 -1.27655,3.06532 -1.3085,3.08067 -1.34078,3.09608 -1.37338,3.11153 -1.40633,3.12703 -1.43961,3.14258 -1.47323,3.15819 -1.5072,3.17385 -1.54154,3.18959 A 35.91,49.87 525.71 0 1 657.94,928.62 l -1.91886,-1.37416 -1.90691,-1.37683 -1.89021,-1.37796 -1.87362,-1.37907 -1.85713,-1.38014 -1.84074,-1.38119 -1.82444,-1.38218 -1.80824,-1.38316 -1.79213,-1.38408 -1.77613,-1.38499 -2.63437,-2.0791 -2.59885,-2.08093 -2.56365,-2.08264 -2.52874,-2.08424 -2.49412,-2.08572 -2.45977,-2.08709 -2.42573,-2.08834 -2.39195,-2.08947 -2.35843,-2.09048 -2.3252,-2.09138 -2.29222,-2.09217 -2.2595,-2.09282 -2.22704,-2.09337 -2.19481,-2.09381 -2.16285,-2.09411 -2.13112,-2.09431 -2.09963,-2.09439 -2.06838,-2.09435 -2.03735,-2.09419 -2.00656,-2.09392 -1.97599,-2.09353 -1.94564,-2.09303 -1.91551,-2.09239 -1.88559,-2.09166 -1.8559,-2.09079 -1.8264,-2.08982 -1.79712,-2.08873 -1.76804,-2.08752 -1.73916,-2.08619 -1.71048,-2.08475 -1.12449,-1.38897 -1.11188,-1.38824 -1.09935,-1.38749 -1.08685,-1.38668 -1.07443,-1.38586 -1.06205,-1.38499 -1.04974,-1.38408 -1.03747,-1.38316 -1.02527,-1.38218 -1.01311,-1.38119 A 75.32,83.68 558.57 0 0 484.76,811.62 l -4.12301,1.2067 -4.18772,1.16945 -4.25264,1.12706 -4.31794,1.08372 -4.38361,1.03941 -4.4497,0.9941 -4.51621,0.94781 -4.58314,0.9005 -4.65054,0.85218 -4.71839,0.80282 -2.86381,0.45757 -2.88853,0.43918 -2.91334,0.42058 -2.93829,0.40174 -2.96334,0.38267 -2.98851,0.36335 -3.01381,0.34379 -3.03922,0.32401 -3.06478,0.30396 -3.09046,0.28368 -3.11628,0.26314 -3.14223,0.24236 -3.16833,0.22132 -3.19457,0.20001 -3.22097,0.17846 -3.24751,0.15664 -3.27421,0.13456 -3.30108,0.1122 -3.3281,0.0896 -3.35531,0.0667 -7.93582,0.0649 -8.08719,-0.0649 -8.24103,-0.19841 -8.3975,-0.33577 -8.55677,-0.47709 -8.71901,-0.62249 -8.88445,-0.77213 -9.05326,-0.92615 -9.22571,-1.08473 -9.40202,-1.24802 A 190.95,329.22 620 0 1 234.79,497.25"
       inkscape:connector-curvature="0"
       style="fill:none;stroke:#ffcc00;stroke-width:2" />
    <path
       id="path12"
       d="m 452.63307,250.40434 7.44892,3.28644 7.27522,3.32148 7.10518,3.35525 6.93864,3.38775 6.77547,3.41902 6.61549,3.44903 6.45858,3.47784 6.3046,3.50541 6.15343,3.53178 6.00496,3.55695 2.94761,1.78755 2.91147,1.79339 2.87561,1.7991 2.84007,1.80464 2.80482,1.81006 2.76987,1.81531 2.73519,1.82043 2.70079,1.8254 2.66668,1.83023 2.63283,1.83491 3.45823,2.45357 3.39915,2.4613 3.34065,2.4687 3.28274,2.47573 3.2254,2.48246 3.16864,2.48883 3.11241,2.49488 3.05671,2.50059 3.00156,2.50597 2.9469,2.51102 3.60755,3.14538 3.5239,3.15211 3.4412,3.1582 3.35942,3.16367 3.27852,3.16849 3.19852,3.17268 3.11936,3.17626 3.04105,3.17919 2.96356,3.1815 2.88687,3.18321 3.36413,3.82121 3.25619,3.82169 3.14955,3.82112 3.0442,3.81949 2.94011,3.81682 2.83726,3.81309 2.73562,3.80833 2.63517,3.80254 2.53591,3.79572 2.4378,3.78788 A 215.19,179.32 397.14 0 0 783.89,505.72 l 5.75117,1.78582 5.80995,1.94642 5.86863,2.11469 5.92571,2.28634 5.98121,2.46143 6.03512,2.64005 6.08744,2.82226 6.1382,3.00816 6.18738,3.19785 6.23502,3.39139 2.3501,1.32249 2.3565,1.35047 2.36282,1.37869 2.36906,1.40711 2.37522,1.43576 2.38131,1.46464 2.38731,1.49374 2.39323,1.52306 2.39908,1.55264 2.40485,1.58243 2.41055,1.61247 2.41616,1.64274 2.4217,1.67328 2.42717,1.70404 2.43255,1.73507 2.43788,1.76635 2.44312,1.79789 2.44829,1.82969 2.45339,1.86176 2.45842,1.89409 3.28559,2.57624 3.29424,2.63488 3.30272,2.6942 3.31105,2.75421 3.31923,2.81492 3.32724,2.87636 3.3351,2.93852 3.34283,3.00146 3.3504,3.06515 3.35783,3.12964 0.84061,0.79258 0.84106,0.79668 0.84151,0.80078 0.84196,0.8049 0.84241,0.80904 0.84285,0.81317 0.8433,0.81734 0.84374,0.82152 0.84418,0.82569 0.84462,0.8299 A 83.44,115.89 460 0 1 913.57,714.13 l -5.37219,2.41607 -5.32323,2.32344 -5.27763,2.23147 -5.2323,2.14106 -5.18723,2.05219 -5.14242,1.96481 -5.09781,1.87889 -5.05341,1.7944 -5.00918,1.71129 -4.96511,1.62954 -2.95798,0.93904 -2.94219,0.91037 -2.92643,0.88198 -2.9107,0.85387 -2.89498,0.82602 -2.87928,0.79845 -2.86361,0.77114 -2.84795,0.74409 -2.8323,0.7173 -2.81667,0.69077 -2.80104,0.66449 -2.78543,0.63847 -2.76983,0.61268 -2.75422,0.58714 -2.73863,0.56186 -2.72304,0.5368 -2.70745,0.51199 -2.69186,0.4874 -2.67628,0.46307 -2.66068,0.43894 A 34.08,37.87 490 0 0 781.39,776.92 l 0.0262,2.69581 0.009,2.71602 -0.0126,2.73561 -0.0341,2.75522 -0.0558,2.77488 -0.0778,2.79459 -0.1,2.81434 -0.1224,2.83414 -0.14508,2.85398 -0.168,2.87387 -0.26008,3.86288 -0.30185,3.89848 -0.34423,3.9342 -0.38719,3.97009 -0.43079,4.00611 -0.47499,4.04231 -0.51983,4.07866 -0.56531,4.11519 -0.61144,4.1519 -0.65823,4.18882 -0.17195,1.05299 -0.17493,1.05532 -0.17791,1.05764 -0.18091,1.05997 -0.18393,1.06231 -0.18693,1.06463 -0.18998,1.06699 -0.19301,1.06932 -0.19607,1.07167 -0.19913,1.07402 A 48.06,61.62 511.43 0 1 720.19,885.12 l -5.01678,-2.09007 -4.9249,-2.1218 -4.83597,-2.15265 -4.74805,-2.1826 -4.66116,-2.21167 -4.57524,-2.23988 -4.49025,-2.26722 -4.4062,-2.29372 -4.32303,-2.31938 -4.24073,-2.3442 A 34.29,40.82 528.57 0 0 633.96,870.98 l -1.7893,2.28809 -1.81871,2.28664 -1.84957,2.28989 -1.88067,2.29303 -1.912,2.2961 -1.94359,2.29906 -1.97544,2.30193 -2.00753,2.30471 -2.0399,2.3074 -2.07251,2.31 A 34.31,43.99 541.43 0 1 570.69,892.86 l -1.94988,-2.41027 -1.92234,-2.40622 -1.89016,-2.40191 -1.85824,-2.39754 -1.82658,-2.39308 -1.79517,-2.38854 -1.76403,-2.38393 -1.73313,-2.37924 -1.70247,-2.37445 -1.67206,-2.3696 A 45.68,54.38 555.71 0 0 500.22,854.23 l -4.44926,1.90592 -4.53248,1.87742 -4.61269,1.84361 -4.69368,1.80887 -4.77552,1.7732 -4.85821,1.73658 -4.94178,1.699 -5.02626,1.66044 -5.1117,1.6209 -5.19812,1.58036 -3.16077,0.92833 -3.19247,0.91314 -3.22441,0.89775 -3.25657,0.88211 -3.28898,0.86625 -3.32164,0.85016 -3.35455,0.83384 -3.38772,0.81728 -3.42115,0.80048 -3.45485,0.78345 A 35.91,49.87 577.14 0 1 379.2,850.2 l -0.12249,-2.36647 -0.11249,-2.34931 -0.10119,-2.33698 -0.09,-2.32469 -0.0789,-2.31247 -0.0678,-2.30029 -0.0569,-2.28819 -0.046,-2.27612 -0.0353,-2.26411 -0.0246,-2.25216 -0.017,-3.35593 0.007,-3.3293 0.0299,-3.30285 0.0529,-3.27655 0.0756,-3.2504 0.0981,-3.22442 0.12031,-3.19856 0.14226,-3.17286 0.16394,-3.1473 0.18537,-3.12187 0.20654,-3.09657 0.22747,-3.0714 0.24813,-3.04637 0.26855,-3.02144 0.28873,-2.99664 0.30867,-2.97196 0.32836,-2.94739 0.34782,-2.92292 0.36704,-2.89858 0.38602,-2.87432 0.40478,-2.85019 0.4233,-2.82614 0.4416,-2.80219 0.45968,-2.77835 0.47752,-2.75458 0.49514,-2.73092 0.51255,-2.70735 0.52973,-2.68385 0.5467,-2.66045 0.56345,-2.63713 0.38484,-1.74517 0.39212,-1.73486 0.39935,-1.72459 0.40651,-1.71432 0.41361,-1.70409 0.42065,-1.69387 0.42763,-1.68368 0.43453,-1.67351 0.4414,-1.66336 0.44819,-1.65324 A 75.32,83.68 610 0 0 362.7,641.84 l -3.51623,-2.46648 -3.52532,-2.54496 -3.53265,-2.62213 -3.53948,-2.70021 -3.54577,-2.77919 -3.55157,-2.8591 -3.55683,-2.93996 -3.56159,-3.0218 -3.56582,-3.10461 -3.56954,-3.18844 -2.1433,-1.95373 -2.14433,-1.98451 -2.14527,-2.01552 -2.14608,-2.04676 -2.14679,-2.07824 -2.14738,-2.10997 -2.14787,-2.14194 -2.14825,-2.17415 -2.14851,-2.20662 -2.14865,-2.23935 -2.1487,-2.27234 -2.14864,-2.30558 -2.14845,-2.33911 -2.14816,-2.37291 -2.14776,-2.40698 -2.14726,-2.44135 -2.14664,-2.47599 -2.1459,-2.51093 -2.14508,-2.54617 -2.14412,-2.58171 -4.99868,-6.16399 -4.99155,-6.36327 -4.98308,-6.56681 -4.97324,-6.77477 -4.96205,-6.98741 -4.94954,-7.20492 -4.93568,-7.42755 -4.92052,-7.65558 -4.90407,-7.88926 -4.88632,-8.12892 A 190.95,329.22 671.43 0 1 452.63,250.4"
       inkscape:connector-curvature="0"
       style="fill:none;stroke:#00ccff;stroke-width:2" />
    <path
       id="path14"
       d="m 781.44312,266.81457 2.07488,7.87286 1.93919,7.7589 1.80676,7.64701 1.67753,7.53709 1.55134,7.429 1.42812,7.32263 1.30778,7.21792 1.19021,7.11472 1.07535,7.01297 0.96309,6.91259 0.44025,3.41906 0.41313,3.39443 0.38633,3.36997 0.35983,3.34563 0.33362,3.32145 0.30771,3.2974 0.28209,3.27347 0.25676,3.24969 0.23172,3.22602 0.20695,3.20247 0.2379,4.23354 0.195,4.19215 0.15277,4.15103 0.11114,4.11015 0.0702,4.06951 0.0298,4.0291 -0.01,3.98891 -0.0492,3.94893 -0.0878,3.90916 -0.12583,3.86958 -0.20988,4.7816 -0.2673,4.7204 -0.32364,4.65955 -0.37889,4.59901 -0.43309,4.53878 -0.48627,4.47884 -0.5384,4.41917 -0.58953,4.35978 -0.63965,4.30064 -0.6888,4.24175 -0.89003,5.01267 -0.95773,4.92857 -1.02376,4.84485 -1.08817,4.76147 -1.15097,4.67841 -1.2122,4.59569 -1.27184,4.51324 -1.32995,4.43111 -1.38649,4.34925 -1.44154,4.26765 A 215.19,179.32 448.57 0 0 788.36,684.99 l 2.1942,5.60826 2.10067,5.75598 2.0057,5.90676 1.90709,6.05842 1.8048,6.21097 1.69876,6.36449 1.58892,6.51901 1.47523,6.67459 1.3576,6.83132 1.23597,6.98923 0.4313,2.66194 0.41341,2.68439 0.39529,2.70693 0.37697,2.72952 0.3584,2.75221 0.33962,2.77496 0.32061,2.79781 0.30137,2.82072 0.28191,2.84373 0.2622,2.86681 0.24228,2.89 0.22209,2.91327 0.20169,2.93663 0.18104,2.96009 0.16014,2.98365 0.13901,3.00731 0.11761,3.03107 0.096,3.05494 0.0741,3.07893 0.0519,3.10302 0.0344,4.17503 -0.006,4.21836 -0.0472,4.26198 -0.0889,4.30591 -0.13129,4.35015 -0.17433,4.39472 -0.21803,4.43963 -0.26241,4.4849 -0.30749,4.53054 -0.35328,4.57656 -0.0956,1.15138 -0.0985,1.15428 -0.1014,1.1572 -0.10435,1.16012 -0.10729,1.16305 -0.11026,1.16598 -0.11323,1.16892 -0.11622,1.17186 -0.11922,1.17482 -0.12223,1.17778 A 83.44,115.89 511.43 0 1 706.28,916.31 l -5.24119,-2.68596 -5.13553,-2.71323 -5.03517,-2.73492 -4.93623,-2.75585 -4.83866,-2.77602 -4.7424,-2.79546 -4.64741,-2.81416 -4.55366,-2.83213 -4.46112,-2.84936 -4.36972,-2.86588 -2.57844,-1.72716 -2.54618,-1.73269 -2.51416,-1.73807 -2.48237,-1.7433 -2.4508,-1.74837 -2.41946,-1.75329 -2.38833,-1.75806 -2.35742,-1.76268 -2.32672,-1.76715 -2.29623,-1.77147 -2.26594,-1.77564 -2.23586,-1.77967 -2.20597,-1.78353 -2.17628,-1.78726 -2.14678,-1.79084 -2.11748,-1.79426 -2.08835,-1.79756 -2.05942,-1.80069 -2.03067,-1.80368 -2.00209,-1.80653 A 34.08,37.87 541.43 0 0 574.77,852.12 l -2.08816,1.70549 -2.11805,1.70022 -2.14662,1.6958 -2.17536,1.69122 -2.20428,1.68649 -2.23338,1.6816 -2.26266,1.67656 -2.29213,1.67136 -2.32179,1.666 -2.35163,1.66048 -3.18228,2.20513 -3.23615,2.19466 -3.29051,2.18381 -3.34535,2.17259 -3.40069,2.16097 -3.45656,2.14897 -3.51293,2.13658 -3.56985,2.12381 -3.62732,2.11062 -3.68535,2.09706 -0.93047,0.52209 -0.93415,0.52122 -0.93782,0.52033 -0.94152,0.51944 -0.94521,0.51854 -0.94893,0.51764 -0.95264,0.51672 -0.95637,0.51581 -0.96011,0.51488 -0.96386,0.51396 A 48.06,61.62 562.86 0 1 452.02,871.74 l -1.49238,-5.22767 -1.41174,-5.17338 -1.33216,-5.12305 -1.25394,-5.07301 -1.17703,-5.0232 -1.10141,-4.9736 -1.02704,-4.92422 -0.95392,-4.87501 -0.882,-4.82599 -0.81128,-4.77712 A 34.29,40.82 580 0 0 409.31,795.51 l -2.90149,0.0219 -2.92172,0.004 -2.94349,-0.0183 -2.96535,-0.0407 -2.98727,-0.0633 -3.00929,-0.0861 -3.03138,-0.10923 -3.05357,-0.13259 -3.07586,-0.15621 -3.09822,-0.1801 A 34.31,43.99 592.86 0 1 352.76,759.68 l 0.66705,-3.02751 0.68269,-3.0032 0.69939,-2.97535 0.71588,-2.94767 0.73213,-2.92014 0.74817,-2.89276 0.76398,-2.86553 0.77957,-2.83844 0.79495,-2.8115 0.81011,-2.78469 A 45.68,54.38 607.14 0 0 339.03,680.5 l -4.27101,-2.29158 -4.29378,-2.37309 -4.31735,-2.45687 -4.3407,-2.54186 -4.36383,-2.62808 -4.38676,-2.71555 -4.40948,-2.80434 -4.43201,-2.89442 -4.45436,-2.98587 -4.47655,-3.07872 -2.6965,-1.89238 -2.7044,-1.92664 -2.71227,-1.96121 -2.7201,-1.9961 -2.72791,-2.03133 -2.73569,-2.0669 -2.74345,-2.1028 -2.75118,-2.13906 -2.7589,-2.17567 -2.76659,-2.21264 A 35.91,49.87 628.57 0 1 266.72,583.37 l 1.77302,-1.57248 1.76663,-1.55272 1.76403,-1.5362 1.76142,-1.51977 1.75879,-1.50345 1.75615,-1.48725 1.75351,-1.47113 1.75084,-1.45512 1.74818,-1.43922 1.74549,-1.4234 2.61317,-2.10568 2.60705,-2.07065 2.60089,-2.03594 2.59469,-2.00155 2.58842,-1.96747 2.58211,-1.93368 2.57575,-1.90021 2.56934,-1.86703 2.56288,-1.83413 2.55635,-1.80152 2.54977,-1.7692 2.54314,-1.73715 2.53645,-1.70538 2.5297,-1.67388 2.52289,-1.64263 2.51602,-1.61166 2.50909,-1.58094 2.5021,-1.55049 2.49504,-1.52027 2.48792,-1.4903 2.48074,-1.4606 2.47349,-1.43111 2.46618,-1.40188 2.4588,-1.37289 2.45135,-1.34412 2.44384,-1.31558 2.43625,-1.28727 2.42861,-1.2592 2.42088,-1.23133 2.4131,-1.2037 1.60437,-0.78722 1.60086,-0.7751 1.59732,-0.76303 1.59376,-0.75104 1.5902,-0.73911 1.58659,-0.72723 1.58297,-0.71543 1.57934,-0.70368 1.57567,-0.692 1.57199,-0.68036 A 75.32,83.68 661.43 0 0 419.33,440.56 l -0.25992,-4.28872 -0.20827,-4.34296 -0.15251,-4.39682 -0.0957,-4.45082 -0.0379,-4.505 0.021,-4.55934 0.0809,-4.61389 0.14192,-4.66861 0.20403,-4.72357 0.26725,-4.77874 0.19116,-2.89382 0.21459,-2.91383 0.23824,-2.93389 0.26216,-2.95401 0.28634,-2.9742 0.31077,-2.99443 0.33545,-3.01475 0.36042,-3.03513 0.38563,-3.05557 0.41113,-3.0761 0.43689,-3.0967 0.46293,-3.11738 0.48925,-3.13814 0.51586,-3.15899 0.54274,-3.17991 0.56993,-3.20095 0.5974,-3.22206 0.62517,-3.24328 0.65325,-3.26459 0.68163,-3.28602 1.70257,-7.75131 1.86282,-7.86999 2.02724,-7.99026 2.19597,-8.11224 2.36919,-8.23607 2.54705,-8.36189 2.72974,-8.48988 2.91748,-8.62019 3.11044,-8.75303 3.30887,-8.88858 A 190.95,329.22 722.86 0 1 781.44,266.81"
       inkscape:connector-curvature="0"
       style="fill:none;stroke:#ff00ff;stroke-width:2" />
    <path
       id="path16"
       d="m 973.62279,534.12022 -4.86158,6.53086 -4.85709,6.35371 -4.85217,6.18042 -4.84682,6.01084 -4.84097,5.84479 -4.83465,5.68215 -4.82781,5.52275 -4.82042,5.3665 -4.8125,5.21326 -4.80401,5.0629 -2.39863,2.47595 -2.39629,2.4394 -2.39387,2.40318 -2.39138,2.36729 -2.3888,2.33173 -2.38616,2.29647 -2.38342,2.26153 -2.38062,2.22689 -2.37773,2.19255 -2.37476,2.15852 -3.16159,2.82555 -3.15597,2.76623 -3.15016,2.70756 -3.14415,2.64953 -3.13793,2.59214 -3.13152,2.53537 -3.12491,2.47922 -3.11808,2.42364 -3.11105,2.36867 -3.10381,2.31426 -3.86927,2.81719 -3.85722,2.73414 -3.84476,2.65215 -3.83189,2.57121 -3.81859,2.49127 -3.80487,2.41234 -3.79074,2.33437 -3.77618,2.25736 -3.7612,2.18131 -3.74578,2.10616 -4.47399,2.42949 -4.45045,2.32414 -4.42616,2.22031 -4.40112,2.11796 -4.37536,2.01707 -4.34884,1.91763 -4.32158,1.81959 -4.29359,1.72296 -4.26484,1.62771 -4.23537,1.5338 A 215.19,179.32 500 0 0 650.99,800.26 l -3.01397,5.20836 -3.19046,5.23117 -3.36756,5.25093 -3.54761,5.26838 -3.73066,5.28353 -3.9168,5.29633 -4.10609,5.30681 -4.29862,5.31492 -4.49448,5.32067 -4.69379,5.32403 -1.81228,1.9969 -1.84098,1.99691 -1.8699,1.99679 -1.899,1.99655 -1.9283,1.99619 -1.95781,1.99569 -1.98751,1.99506 -2.01742,1.99432 -2.04755,1.99343 -2.07789,1.99244 -2.10844,1.9913 -2.1392,1.99003 -2.1702,1.98865 -2.20142,1.98712 -2.23286,1.98548 -2.26454,1.98371 -2.29646,1.98179 -2.32861,1.97977 -2.36101,1.9776 -2.39366,1.9753 -3.24276,2.62994 -3.30186,2.62533 -3.36157,2.62041 -3.42193,2.61517 -3.48294,2.60962 -3.54462,2.60377 -3.60699,2.5976 -3.67005,2.59113 -3.73384,2.58434 -3.79836,2.57724 -0.95976,0.64316 -0.96385,0.64269 -0.96796,0.64223 -0.97208,0.64174 -0.9762,0.64126 -0.98034,0.64077 -0.9845,0.64028 -0.98867,0.63978 -0.99284,0.63928 -0.99703,0.63878 A 83.44,115.89 562.86 0 1 418.96,880.31 l -1.16448,-5.77329 -1.08066,-5.70679 -1.00113,-5.64184 -0.92309,-5.57755 -0.84647,-5.51384 -0.77125,-5.45069 -0.69742,-5.3881 -0.62491,-5.326 -0.55374,-5.26439 -0.48384,-5.20323 -0.25729,-3.09277 -0.23285,-3.071 -0.20867,-3.04932 -0.18477,-3.02772 -0.16112,-3.00621 -0.13773,-2.98476 -0.11459,-2.96341 -0.0917,-2.94212 -0.0691,-2.9209 -0.0467,-2.89976 -0.0245,-2.87868 -0.003,-2.85766 0.019,-2.83672 0.0405,-2.81582 0.0616,-2.79499 0.0826,-2.77422 0.10331,-2.75349 0.12381,-2.73283 0.14407,-2.71222 0.16412,-2.69165 A 34.08,37.87 592.86 0 0 387.15,737.47 l -2.63136,-0.5706 -2.64986,-0.59588 -2.66422,-0.62098 -2.67857,-0.64631 -2.69289,-0.67187 -2.70722,-0.69766 -2.72154,-0.7237 -2.73584,-0.74999 -2.75014,-0.77651 -2.76444,-0.80329 -3.70816,-1.11313 -3.73356,-1.16177 -3.75897,-1.21104 -3.78439,-1.26092 -3.80981,-1.31142 -3.83526,-1.36258 -3.86073,-1.41439 -3.88622,-1.46685 -3.91175,-1.52 -3.93732,-1.57383 -0.98833,-0.40195 -0.98993,-0.40537 -0.99154,-0.4088 -0.99314,-0.41224 -0.99474,-0.4157 -0.99635,-0.41915 -0.99795,-0.42264 -0.99957,-0.42612 -1.00117,-0.42962 -1.00278,-0.43313 A 48.06,61.62 614.29 0 1 295.28,653.73 l 3.15777,-4.42449 3.1645,-4.32929 3.17478,-4.23571 3.18441,-4.14333 3.19343,-4.05215 3.2018,-3.96211 3.20956,-3.87317 3.21669,-3.78532 3.22319,-3.69854 3.22907,-3.61277 A 34.29,40.82 631.43 0 0 328.25,572.81 l -1.82534,-2.25376 -1.82461,-2.28194 -1.82091,-2.31274 -1.81706,-2.34376 -1.81306,-2.375 -1.80893,-2.40645 -1.80464,-2.43813 -1.80021,-2.47005 -1.79563,-2.5022 -1.7909,-2.53457 A 34.31,43.99 644.29 0 1 321,506.26 l 2.78843,-1.36727 2.77365,-1.33871 2.76229,-1.3083 2.75092,-1.27814 2.73954,-1.24827 2.72812,-1.21867 2.71669,-1.18932 2.70524,-1.16025 2.69376,-1.13142 2.68225,-1.10286 A 45.68,54.38 658.57 0 0 374.35,446.15 l -0.87087,-4.76162 -0.82177,-4.83661 -0.77097,-4.90727 -0.71908,-4.97852 -0.66609,-5.05037 -0.61198,-5.12282 -0.55675,-5.19594 -0.50037,-5.26973 -0.4428,-5.34422 -0.38404,-5.41945 -0.20172,-3.2881 -0.17986,-3.31563 -0.15774,-3.34332 -0.13533,-3.37122 -0.11267,-3.39928 -0.0897,-3.42753 -0.0665,-3.45599 -0.043,-3.48465 -0.0191,-3.51349 0.005,-3.54257 A 35.91,49.87 680 0 1 405.21,329.06 l 2.33005,0.40835 2.31544,0.4131 2.3009,0.42137 2.28643,0.42957 2.27204,0.43768 2.25772,0.44574 2.24347,0.45371 2.2293,0.46161 2.21519,0.46945 2.20116,0.4772 3.27557,0.73019 3.24437,0.74724 3.21339,0.76408 3.18263,0.78065 3.15208,0.79702 3.12174,0.81314 3.0916,0.82905 3.06166,0.84472 3.0319,0.86017 3.00235,0.8754 2.97298,0.89042 2.94378,0.90521 2.91477,0.91979 2.88593,0.93416 2.85726,0.9483 2.82876,0.96225 2.80042,0.97599 2.77224,0.98951 2.74423,1.00283 2.71637,1.01594 2.68865,1.02885 2.66109,1.04157 2.63367,1.05408 2.6064,1.06638 2.57926,1.0785 2.55227,1.09042 2.52542,1.10214 2.49868,1.11366 2.4721,1.125 2.44563,1.13614 1.61578,0.76353 1.60411,0.76833 1.59248,0.7731 1.58089,0.77779 1.56932,0.78243 1.5578,0.78703 1.54631,0.79155 1.53486,0.79604 1.52344,0.80046 1.51206,0.80483 A 75.32,83.68 712.86 0 0 612.01,359.34 l 3.19031,-2.8799 3.26561,-2.87062 3.34248,-2.8606 3.42011,-2.84988 3.49852,-2.83845 3.57772,-2.82631 3.65772,-2.81346 3.73856,-2.79988 3.82024,-2.78557 3.90279,-2.77055 2.38168,-1.65481 2.41191,-1.64898 2.44235,-1.64299 2.473,-1.63682 2.50384,-1.63052 2.53491,-1.62403 2.56618,-1.61739 2.59767,-1.61059 2.62938,-1.60362 2.66133,-1.59649 2.69349,-1.58918 2.7259,-1.58172 2.75854,-1.57409 2.79143,-1.56628 2.82455,-1.55831 2.85794,-1.55017 2.89159,-1.54186 2.92548,-1.53337 2.95966,-1.52471 2.9941,-1.51588 7.12175,-3.50173 7.31446,-3.45045 7.511,-3.39689 7.71157,-3.34102 7.91638,-3.2828 8.12565,-3.22219 8.33962,-3.15915 8.55855,-3.09363 8.78273,-3.02559 9.01242,-2.95495 A 190.95,329.22 774.29 0 1 973.62,534.12"
       inkscape:connector-curvature="0"
       style="fill:none;stroke:#000000;stroke-width:2" />
  </g>
</svg>
