<?xml version="1.0" encoding="UTF-8" standalone="no"?>
<!-- Created with Inkscape (http://www.inkscape.org/) -->

<svg
   version="1.1"
   id="svg1"
   width="860"
   height="865.33331"
   viewBox="0 0 860 865.33331"
   sodipodi:docname="min7single.pdf"
   inkscape:version="1.3.2 (091e20e, 2023-11-25, custom)"
   xmlns:inkscape="http://www.inkscape.org/namespaces/inkscape"
   xmlns:sodipodi="http://sodipodi.sourceforge.net/DTD/sodipodi-0.dtd"
   xmlns="http://www.w3.org/2000/svg"
   xmlns:svg="http://www.w3.org/2000/svg">
  <defs
     id="defs1" />
  <sodipodi:namedview
     id="namedview1"
     pagecolor="#ffffff"
     bordercolor="#111111"
     borderopacity="1"
     inkscape:showpageshadow="0"
     inkscape:pageopacity="0"
     inkscape:pagecheckerboard="1"
     inkscape:deskcolor="#d1d1d1"
     inkscape:zoom="1.5959168"
     inkscape:cx="430.16026"
     inkscape:cy="432.66666"
     inkscape:window-width="3840"
     inkscape:window-height="1577"
     inkscape:window-x="-8"
     inkscape:window-y="-8"
     inkscape:window-maximized="1"
     inkscape:current-layer="g1">
    <inkscape:page
       x="0"
       y="0"
       inkscape:label="1"
       id="page1"
       width="860"
       height="865.33331"
       margin="0"
       bleed="0" />
  </sodipodi:namedview>
  <g
     id="g1"
     inkscape:groupmode="layer"
     inkscape:label="1">
    <path
       id="path1"
       d="m 4606.64,4858.59 c -16.77,-43.41 -25.37,-89.54 -25.37,-136.07 0,-208.54 169.06,-377.59 377.6,-377.59 18.87,0 37.73,1.41 56.39,4.23"
       style="fill:none;stroke:#00ff00;stroke-width:27;stroke-linecap:butt;stroke-linejoin:miter;stroke-miterlimit:10;stroke-dasharray:none;stroke-opacity:1"
       transform="matrix(0.13333333,0,0,-0.13333333,0,865.33333)" />
    <path
       id="path2"
       d="m 1271.68,4357.27 c 110.43,-54.39 180.38,-166.81 180.38,-289.91 0,-178.46 -144.68,-323.14 -323.15,-323.14 -34.03,0 -67.86,5.38 -100.22,15.94"
       style="fill:none;stroke:#000000;stroke-width:13.5;stroke-linecap:butt;stroke-linejoin:miter;stroke-miterlimit:10;stroke-dasharray:none;stroke-opacity:1"
       transform="matrix(0.13333333,0,0,-0.13333333,0,865.33333)" />
    <path
       id="path3"
       d="m 988.211,3114.41 c 110.839,-113.15 172.929,-265.25 172.929,-423.64 0,-68.44 -11.61,-136.39 -34.33,-200.96"
       style="fill:none;stroke:#000000;stroke-width:13.5;stroke-linecap:butt;stroke-linejoin:miter;stroke-miterlimit:10;stroke-dasharray:none;stroke-opacity:1"
       transform="matrix(0.13333333,0,0,-0.13333333,0,865.33333)" />
    <path
       id="path4"
       d="m 1129.94,2489.82 c -87.31,-59.63 -139.534,-158.53 -139.534,-264.26 0,-176.73 143.264,-319.99 319.994,-319.99 47.31,0 94.04,10.49 136.81,30.72"
       style="fill:none;stroke:#000000;stroke-width:13.5;stroke-linecap:butt;stroke-linejoin:miter;stroke-miterlimit:10;stroke-dasharray:none;stroke-opacity:1"
       transform="matrix(0.13333333,0,0,-0.13333333,0,865.33333)" />
    <path
       id="path5"
       d="m 1450.8,1939.46 c 227.87,-51.56 409.22,-223.76 472.5,-448.66"
       style="fill:none;stroke:#000000;stroke-width:13.5;stroke-linecap:butt;stroke-linejoin:miter;stroke-miterlimit:10;stroke-dasharray:none;stroke-opacity:1"
       transform="matrix(0.13333333,0,0,-0.13333333,0,865.33333)" />
    <path
       id="path6"
       d="m 1923.29,1492.13 c -13.33,-36.01 -20.15,-74.12 -20.15,-112.52 0,-179.07 145.16,-324.23 324.23,-324.23 114.96,0 221.33,60.88 279.56,160.01"
       style="fill:none;stroke:#000000;stroke-width:13.5;stroke-linecap:butt;stroke-linejoin:miter;stroke-miterlimit:10;stroke-dasharray:none;stroke-opacity:1"
       transform="matrix(0.13333333,0,0,-0.13333333,0,865.33333)" />
    <path
       id="path7"
       d="m 2506.94,1215.41 c 74.42,30.74 154.17,46.57 234.68,46.57 146.64,0 288.45,-52.43 399.82,-147.82"
       style="fill:none;stroke:#000000;stroke-width:13.5;stroke-linecap:butt;stroke-linejoin:miter;stroke-miterlimit:10;stroke-dasharray:none;stroke-opacity:1"
       transform="matrix(0.13333333,0,0,-0.13333333,0,865.33333)" />
    <path
       id="path8"
       d="m 3138.3,1117.29 c 55.73,143.79 194.09,238.55 348.3,238.55 112.17,0 218.41,-50.41 289.35,-137.3"
       style="fill:none;stroke:#000000;stroke-width:13.5;stroke-linecap:butt;stroke-linejoin:miter;stroke-miterlimit:10;stroke-dasharray:none;stroke-opacity:1"
       transform="matrix(0.13333333,0,0,-0.13333333,0,865.33333)" />
    <path
       id="path9"
       d="m 3775.92,1218.56 c 18.12,194.46 181.33,343.16 376.63,343.16 72.27,0 143.02,-20.7 203.89,-59.65"
       style="fill:none;stroke:#000000;stroke-width:13.5;stroke-linecap:butt;stroke-linejoin:miter;stroke-miterlimit:10;stroke-dasharray:none;stroke-opacity:1"
       transform="matrix(0.13333333,0,0,-0.13333333,0,865.33333)" />
    <path
       id="path10"
       d="m 4360.06,1502.05 c -5.54,25.75 -8.33,52.01 -8.33,78.34 0,205.63 166.7,372.34 372.32,372.34 35.51,0 70.83,-5.09 104.9,-15.09"
       style="fill:none;stroke:#000000;stroke-width:13.5;stroke-linecap:butt;stroke-linejoin:miter;stroke-miterlimit:10;stroke-dasharray:none;stroke-opacity:1"
       transform="matrix(0.13333333,0,0,-0.13333333,0,865.33333)" />
    <path
       id="path11"
       d="m 5244.3,3760.13 c -471.6,-106.74 -806.44,-525.83 -806.44,-1009.38 0,-317.2 145.47,-616.89 394.69,-813.12"
       style="fill:none;stroke:#000000;stroke-width:13.5;stroke-linecap:butt;stroke-linejoin:miter;stroke-miterlimit:10;stroke-dasharray:none;stroke-opacity:1"
       transform="matrix(0.13333333,0,0,-0.13333333,0,865.33333)" />
    <path
       id="path12"
       d="m 5016.57,4350.55 c 131.41,60.8 274.47,92.29 419.25,92.29 551.36,0 998.32,-446.96 998.32,-998.32 0,-551.36 -446.96,-998.32 -998.32,-998.32 -96.24,0 -191.98,13.91 -284.24,41.32"
       style="fill:none;stroke:#000000;stroke-width:13.5;stroke-linecap:butt;stroke-linejoin:miter;stroke-miterlimit:10;stroke-dasharray:none;stroke-opacity:1"
       transform="matrix(0.13333333,0,0,-0.13333333,0,865.33333)" />
    <path
       id="path13"
       d="m 4081.48,5224.02 c 54.23,31.04 115.64,47.37 178.13,47.37 198.07,0 358.65,-160.58 358.65,-358.66 0,-16.75 -1.17,-33.48 -3.51,-50.07"
       style="fill:none;stroke:#000000;stroke-width:13.5;stroke-linecap:butt;stroke-linejoin:miter;stroke-miterlimit:10;stroke-dasharray:none;stroke-opacity:1"
       transform="matrix(0.13333333,0,0,-0.13333333,0,865.33333)" />
    <path
       id="path14"
       d="m 4611.59,4862.64 c 25.24,5.45 51,8.2 76.82,8.2 200.99,0 363.92,-162.93 363.92,-363.91 0,-54.45 -12.22,-108.2 -35.74,-157.29"
       style="fill:none;stroke:#000000;stroke-width:13.5;stroke-linecap:butt;stroke-linejoin:miter;stroke-miterlimit:10;stroke-dasharray:none;stroke-opacity:1"
       transform="matrix(0.13333333,0,0,-0.13333333,0,865.33333)" />
    <path
       id="path15"
       d="m 2815.18,5417.94 c 10.91,-170.82 152.63,-303.78 323.8,-303.78 171.16,0 312.88,132.96 323.79,303.78"
       style="fill:none;stroke:#000000;stroke-width:13.5;stroke-linecap:butt;stroke-linejoin:miter;stroke-miterlimit:10;stroke-dasharray:none;stroke-opacity:1"
       transform="matrix(0.13333333,0,0,-0.13333333,0,865.33333)" />
    <path
       id="path16"
       d="m 2200.5,5228.96 c 109.2,135.23 273.7,213.83 447.52,213.83 56.65,0 112.98,-8.37 167.18,-24.83"
       style="fill:none;stroke:#000000;stroke-width:13.5;stroke-linecap:butt;stroke-linejoin:miter;stroke-miterlimit:10;stroke-dasharray:none;stroke-opacity:1"
       transform="matrix(0.13333333,0,0,-0.13333333,0,865.33333)" />
    <path
       id="path17"
       d="m 1667.69,4864.43 c 92.23,214.26 299.68,356.18 532.79,364.5"
       style="fill:none;stroke:#000000;stroke-width:13.5;stroke-linecap:butt;stroke-linejoin:miter;stroke-miterlimit:10;stroke-dasharray:none;stroke-opacity:1"
       transform="matrix(0.13333333,0,0,-0.13333333,0,865.33333)" />
    <path
       id="path18"
       d="m 3462.72,5417.95 c 68.16,70.84 162.23,110.88 260.53,110.88 178.47,0 330.25,-130.24 357.34,-306.64"
       style="fill:none;stroke:#000000;stroke-width:13.5;stroke-linecap:butt;stroke-linejoin:miter;stroke-miterlimit:10;stroke-dasharray:none;stroke-opacity:1"
       transform="matrix(0.13333333,0,0,-0.13333333,0,865.33333)" />
    <path
       id="path19"
       d="m 1669.51,4867.15 c 68.5,-61.07 107.67,-148.48 107.67,-240.26 0,-177.77 -144.11,-321.88 -321.88,-321.88 -68.65,0 -135.5,21.95 -190.79,62.64"
       style="fill:none;stroke:#000000;stroke-width:13.5;stroke-linecap:butt;stroke-linejoin:miter;stroke-miterlimit:10;stroke-dasharray:none;stroke-opacity:1"
       transform="matrix(0.13333333,0,0,-0.13333333,0,865.33333)" />
    <path
       id="path20"
       d="m 1668.16,4864.46 c 24.84,-49.36 37.79,-103.87 37.79,-159.13 0,-195.46 -158.46,-353.92 -353.93,-353.92 -28.73,0 -57.36,3.5 -85.25,10.41"
       style="fill:none;stroke:#000000;stroke-width:13.5;stroke-linecap:butt;stroke-linejoin:miter;stroke-miterlimit:10;stroke-dasharray:none;stroke-opacity:1"
       transform="matrix(0.13333333,0,0,-0.13333333,0,865.33333)" />
    <path
       id="path21"
       d="m 1668.15,4862.63 c -21.33,-231.7 -177.58,-428.9 -398.26,-502.66"
       style="fill:none;stroke:#000000;stroke-width:13.5;stroke-linecap:butt;stroke-linejoin:miter;stroke-miterlimit:10;stroke-dasharray:none;stroke-opacity:1"
       transform="matrix(0.13333333,0,0,-0.13333333,0,865.33333)" />
    <path
       id="path22"
       d="m 1665.91,4865.81 c -52.75,34.69 -114.5,53.18 -177.62,53.18 -178.52,0 -323.24,-144.72 -323.24,-323.24 0,-89.54 37.15,-175.08 102.59,-236.21"
       style="fill:none;stroke:#000000;stroke-width:13.5;stroke-linecap:butt;stroke-linejoin:miter;stroke-miterlimit:10;stroke-dasharray:none;stroke-opacity:1"
       transform="matrix(0.13333333,0,0,-0.13333333,0,865.33333)" />
    <path
       id="path23"
       d="m 1665,4864.46 c -181.74,158.08 -414.5,245.15 -655.38,245.15 -551.53,0 -998.6395,-447.11 -998.6395,-998.64 0,-542.49 433.0815,-985.76 975.4175,-998.37"
       style="fill:none;stroke:#000000;stroke-width:13.5;stroke-linecap:butt;stroke-linejoin:miter;stroke-miterlimit:10;stroke-dasharray:none;stroke-opacity:1"
       transform="matrix(0.13333333,0,0,-0.13333333,0,865.33333)" />
    <path
       id="path24"
       d="m 1269.92,4360.48 c -30.32,9.14 -61.82,13.79 -93.49,13.79 -178.86,0 -323.86,-145.01 -323.86,-323.87 0,-123.5 70.239,-236.25 181.09,-290.69"
       style="fill:none;stroke:#000000;stroke-width:13.5;stroke-linecap:butt;stroke-linejoin:miter;stroke-miterlimit:10;stroke-dasharray:none;stroke-opacity:1"
       transform="matrix(0.13333333,0,0,-0.13333333,0,865.33333)" />
    <path
       id="path25"
       d="m 1267.67,4367.66 c -156.5,-115.79 -248.83,-298.94 -248.83,-493.61 0,-35.93 3.16,-71.78 9.43,-107.15"
       style="fill:none;stroke:#000000;stroke-width:13.5;stroke-linecap:butt;stroke-linejoin:miter;stroke-miterlimit:10;stroke-dasharray:none;stroke-opacity:1"
       transform="matrix(0.13333333,0,0,-0.13333333,0,865.33333)" />
    <path
       id="path26"
       d="m 1267.63,4356.41 c 6.6,-35.94 9.92,-72.41 9.92,-108.95 0,-193.42 -92.71,-375.13 -249.32,-488.64"
       style="fill:none;stroke:#000000;stroke-width:13.5;stroke-linecap:butt;stroke-linejoin:miter;stroke-miterlimit:10;stroke-dasharray:none;stroke-opacity:1"
       transform="matrix(0.13333333,0,0,-0.13333333,0,865.33333)" />
    <path
       id="path27"
       d="m 1266.75,4361.82 c 58.71,-66.25 91.13,-151.71 91.13,-240.23 0,-186.55 -141.7,-342.59 -327.38,-360.53"
       style="fill:none;stroke:#000000;stroke-width:13.5;stroke-linecap:butt;stroke-linejoin:miter;stroke-miterlimit:10;stroke-dasharray:none;stroke-opacity:1"
       transform="matrix(0.13333333,0,0,-0.13333333,0,865.33333)" />
    <path
       id="path28"
       d="m 2202.27,5224.89 c 72.3,-143.85 109.96,-302.62 109.96,-463.62 0,-570.15 -462.19,-1032.35 -1032.34,-1032.35 -85,0 -169.67,10.5 -252.09,31.25"
       style="fill:none;stroke:#000000;stroke-width:13.5;stroke-linecap:butt;stroke-linejoin:miter;stroke-miterlimit:10;stroke-dasharray:none;stroke-opacity:1"
       transform="matrix(0.13333333,0,0,-0.13333333,0,865.33333)" />
    <path
       id="path29"
       d="m 2201.39,5222.22 c 2.52,-17.21 3.79,-34.6 3.79,-51.99 0,-197.95 -160.48,-358.43 -358.43,-358.43 -63.91,0 -126.68,17.1 -181.77,49.52"
       style="fill:none;stroke:#000000;stroke-width:13.5;stroke-linecap:butt;stroke-linejoin:miter;stroke-miterlimit:10;stroke-dasharray:none;stroke-opacity:1"
       transform="matrix(0.13333333,0,0,-0.13333333,0,865.33333)" />
    <path
       id="path30"
       d="m 1665.91,4862.64 c 235.89,2.75 447.29,146.28 536.87,364.52"
       style="fill:none;stroke:#000000;stroke-width:13.5;stroke-linecap:butt;stroke-linejoin:miter;stroke-miterlimit:10;stroke-dasharray:none;stroke-opacity:1"
       transform="matrix(0.13333333,0,0,-0.13333333,0,865.33333)" />
    <path
       id="path31"
       d="m 2199.12,5224.87 c -53.1,28.87 -112.59,44 -173.04,44 -200.11,0 -362.34,-162.23 -362.34,-362.35 0,-13.15 0.72,-26.31 2.15,-39.39"
       style="fill:none;stroke:#000000;stroke-width:13.5;stroke-linecap:butt;stroke-linejoin:miter;stroke-miterlimit:10;stroke-dasharray:none;stroke-opacity:1"
       transform="matrix(0.13333333,0,0,-0.13333333,0,865.33333)" />
    <path
       id="path32"
       d="m 2818.35,5414.35 c 60.71,-121.87 185.15,-198.9 321.3,-198.9 137.6,0 263.1,78.66 323.07,202.5"
       style="fill:none;stroke:#000000;stroke-width:13.5;stroke-linecap:butt;stroke-linejoin:miter;stroke-miterlimit:10;stroke-dasharray:none;stroke-opacity:1"
       transform="matrix(0.13333333,0,0,-0.13333333,0,865.33333)" />
    <path
       id="path33"
       d="m 2818.35,5417.95 c 95.9,-61.69 207.54,-94.5 321.57,-94.5 116,0 229.47,33.95 326.41,97.65"
       style="fill:none;stroke:#000000;stroke-width:13.5;stroke-linecap:butt;stroke-linejoin:miter;stroke-miterlimit:10;stroke-dasharray:none;stroke-opacity:1"
       transform="matrix(0.13333333,0,0,-0.13333333,0,865.33333)" />
    <path
       id="path34"
       d="m 2818.34,5414.35 c 95.36,65.93 208.56,101.25 324.5,101.25 114.05,0 225.48,-34.17 319.91,-98.1"
       style="fill:none;stroke:#000000;stroke-width:13.5;stroke-linecap:butt;stroke-linejoin:miter;stroke-miterlimit:10;stroke-dasharray:none;stroke-opacity:1"
       transform="matrix(0.13333333,0,0,-0.13333333,0,865.33333)" />
    <path
       id="path35"
       d="m 2815.2,5417.48 c 63.15,120.37 187.85,195.77 323.78,195.77 135.91,0 260.62,-75.4 323.77,-195.77"
       style="fill:none;stroke:#000000;stroke-width:13.5;stroke-linecap:butt;stroke-linejoin:miter;stroke-miterlimit:10;stroke-dasharray:none;stroke-opacity:1"
       transform="matrix(0.13333333,0,0,-0.13333333,0,865.33333)" />
    <path
       id="path36"
       d="m 2818.34,5417.95 c 11.93,169.08 152.58,300.15 322.07,300.15 170.89,0 312.19,-133.16 322.31,-303.75"
       style="fill:none;stroke:#000000;stroke-width:13.5;stroke-linecap:butt;stroke-linejoin:miter;stroke-miterlimit:10;stroke-dasharray:none;stroke-opacity:1"
       transform="matrix(0.13333333,0,0,-0.13333333,0,865.33333)" />
    <path
       id="path37"
       d="m 2196.04,5223.98 c -4.81,22.52 -7.24,45.48 -7.24,68.51 0,181.03 146.75,327.78 327.78,327.78 133.28,0 253.3,-80.71 303.57,-204.15"
       style="fill:none;stroke:#000000;stroke-width:13.5;stroke-linecap:butt;stroke-linejoin:miter;stroke-miterlimit:10;stroke-dasharray:none;stroke-opacity:1"
       transform="matrix(0.13333333,0,0,-0.13333333,0,865.33333)" />
    <path
       id="path38"
       d="m 2199.14,5228.5 c 30.91,173.03 181.4,299.02 357.18,299.02 98.27,0 192.34,-39.86 260.69,-110.47"
       style="fill:none;stroke:#000000;stroke-width:13.5;stroke-linecap:butt;stroke-linejoin:miter;stroke-miterlimit:10;stroke-dasharray:none;stroke-opacity:1"
       transform="matrix(0.13333333,0,0,-0.13333333,0,865.33333)" />
    <path
       id="path39"
       d="m 2818.82,5417.97 c -114.25,-135.68 -282.59,-213.99 -459.96,-213.99 -54.27,0 -108.3,7.34 -160.59,21.84"
       style="fill:none;stroke:#000000;stroke-width:13.5;stroke-linecap:butt;stroke-linejoin:miter;stroke-miterlimit:10;stroke-dasharray:none;stroke-opacity:1"
       transform="matrix(0.13333333,0,0,-0.13333333,0,865.33333)" />
    <path
       id="path40"
       d="m 2199.58,5229.39 c 67.86,-73.22 163.17,-114.83 263,-114.83 176.9,0 327.38,129 354.4,303.83"
       style="fill:none;stroke:#000000;stroke-width:13.5;stroke-linecap:butt;stroke-linejoin:miter;stroke-miterlimit:10;stroke-dasharray:none;stroke-opacity:1"
       transform="matrix(0.13333333,0,0,-0.13333333,0,865.33333)" />
    <path
       id="path41"
       d="m 2200.03,5224 c 49.49,-122.69 168.54,-203.04 300.85,-203.04 179.16,0 324.4,145.24 324.4,324.4 0,23.82 -2.62,47.57 -7.82,70.8"
       style="fill:none;stroke:#000000;stroke-width:13.5;stroke-linecap:butt;stroke-linejoin:miter;stroke-miterlimit:10;stroke-dasharray:none;stroke-opacity:1"
       transform="matrix(0.13333333,0,0,-0.13333333,0,865.33333)" />
    <path
       id="path42"
       d="m 3458.27,5418.41 c 34.86,-171.98 186.07,-295.61 361.55,-295.61 97.14,0 190.37,38.31 259.43,106.62"
       style="fill:none;stroke:#000000;stroke-width:13.5;stroke-linecap:butt;stroke-linejoin:miter;stroke-miterlimit:10;stroke-dasharray:none;stroke-opacity:1"
       transform="matrix(0.13333333,0,0,-0.13333333,0,865.33333)" />
    <path
       id="path43"
       d="m 3464.57,5414.82 c 115.06,-133.5 282.56,-210.26 458.8,-210.26 53.72,0 107.21,7.15 159.05,21.26"
       style="fill:none;stroke:#000000;stroke-width:13.5;stroke-linecap:butt;stroke-linejoin:miter;stroke-miterlimit:10;stroke-dasharray:none;stroke-opacity:1"
       transform="matrix(0.13333333,0,0,-0.13333333,0,865.33333)" />
    <path
       id="path44"
       d="m 3464.11,5416.13 c 54.65,16.9 111.53,25.49 168.74,25.49 174.99,0 340.32,-80.21 448.64,-217.64"
       style="fill:none;stroke:#000000;stroke-width:13.5;stroke-linecap:butt;stroke-linejoin:miter;stroke-miterlimit:10;stroke-dasharray:none;stroke-opacity:1"
       transform="matrix(0.13333333,0,0,-0.13333333,0,865.33333)" />
    <path
       id="path45"
       d="m 3461.38,5419.28 c 112.74,446.65 514.51,759.62 975.17,759.62 555.46,0 1005.75,-450.29 1005.75,-1005.75 0,-327.94 -159.88,-635.28 -428.4,-823.53"
       style="fill:none;stroke:#000000;stroke-width:13.5;stroke-linecap:butt;stroke-linejoin:miter;stroke-miterlimit:10;stroke-dasharray:none;stroke-opacity:1"
       transform="matrix(0.13333333,0,0,-0.13333333,0,865.33333)" />
    <path
       id="path46"
       d="m 4078.8,5225.83 c 60.73,79.96 155.37,126.92 255.78,126.92 177.4,0 321.21,-143.82 321.21,-321.21 0,-58.94 -16.22,-116.75 -46.87,-167.08"
       style="fill:none;stroke:#000000;stroke-width:13.5;stroke-linecap:butt;stroke-linejoin:miter;stroke-miterlimit:10;stroke-dasharray:none;stroke-opacity:1"
       transform="matrix(0.13333333,0,0,-0.13333333,0,865.33333)" />
    <path
       id="path47"
       d="m 4079.69,5225.36 c 6.57,0.23 13.15,0.35 19.72,0.35 230.25,0 435.73,-144.55 513.53,-361.26"
       style="fill:none;stroke:#000000;stroke-width:13.5;stroke-linecap:butt;stroke-linejoin:miter;stroke-miterlimit:10;stroke-dasharray:none;stroke-opacity:1"
       transform="matrix(0.13333333,0,0,-0.13333333,0,865.33333)" />
    <path
       id="path48"
       d="m 4081.5,5225.82 c 94.67,-210.36 299.25,-349.93 529.64,-361.34"
       style="fill:none;stroke:#000000;stroke-width:13.5;stroke-linecap:butt;stroke-linejoin:miter;stroke-miterlimit:10;stroke-dasharray:none;stroke-opacity:1"
       transform="matrix(0.13333333,0,0,-0.13333333,0,865.33333)" />
    <path
       id="path49"
       d="m 4082.86,5222.64 c -29.02,-49 -44.33,-104.91 -44.33,-161.85 0,-175.44 142.22,-317.66 317.65,-317.66 97.63,0 189.84,44.9 250.05,121.75"
       style="fill:none;stroke:#000000;stroke-width:13.5;stroke-linecap:butt;stroke-linejoin:miter;stroke-miterlimit:10;stroke-dasharray:none;stroke-opacity:1"
       transform="matrix(0.13333333,0,0,-0.13333333,0,865.33333)" />
    <path
       id="path50"
       d="m 4082.4,5220.38 c -68.4,-140.9 -103.95,-295.5 -103.95,-452.14 0,-571.76 463.51,-1035.27 1035.27,-1035.27 77.28,0 154.33,8.65 229.69,25.8"
       style="fill:none;stroke:#000000;stroke-width:13.5;stroke-linecap:butt;stroke-linejoin:miter;stroke-miterlimit:10;stroke-dasharray:none;stroke-opacity:1"
       transform="matrix(0.13333333,0,0,-0.13333333,0,865.33333)" />
    <path
       id="path51"
       d="m 5014.33,4354.6 c -52.3,-32.76 -112.78,-50.13 -174.49,-50.13 -181.55,0 -328.72,147.18 -328.72,328.73 0,88.13 35.39,172.58 98.23,234.37"
       style="fill:none;stroke:#000000;stroke-width:13.5;stroke-linecap:butt;stroke-linejoin:miter;stroke-miterlimit:10;stroke-dasharray:none;stroke-opacity:1"
       transform="matrix(0.13333333,0,0,-0.13333333,0,865.33333)" />
    <path
       id="path52"
       d="m 4612.02,4864.45 c 27.21,-233.52 182.13,-432.5 401.86,-516.16"
       style="fill:none;stroke:#000000;stroke-width:13.5;stroke-linecap:butt;stroke-linejoin:miter;stroke-miterlimit:10;stroke-dasharray:none;stroke-opacity:1"
       transform="matrix(0.13333333,0,0,-0.13333333,0,865.33333)" />
    <path
       id="path53"
       d="m 5014.34,4351.9 c -10.64,240.3 -173.73,446.89 -405,513.01"
       style="fill:none;stroke:#000000;stroke-width:13.5;stroke-linecap:butt;stroke-linejoin:miter;stroke-miterlimit:10;stroke-dasharray:none;stroke-opacity:1"
       transform="matrix(0.13333333,0,0,-0.13333333,0,865.33333)" />
    <path
       id="path54"
       d="m 5016.16,4348.3 c 67.23,62.45 105.43,150.07 105.43,241.83 0,182.29 -147.79,330.08 -330.08,330.08 -65.34,0 -129.22,-19.4 -183.53,-55.73"
       style="fill:none;stroke:#000000;stroke-width:13.5;stroke-linecap:butt;stroke-linejoin:miter;stroke-miterlimit:10;stroke-dasharray:none;stroke-opacity:1"
       transform="matrix(0.13333333,0,0,-0.13333333,0,865.33333)" />
    <path
       id="path55"
       d="m 5243.83,3760.59 c 62.43,65.46 97.26,152.46 97.26,242.92 0,184.61 -142.63,337.86 -326.76,351.08"
       style="fill:none;stroke:#000000;stroke-width:13.5;stroke-linecap:butt;stroke-linejoin:miter;stroke-miterlimit:10;stroke-dasharray:none;stroke-opacity:1"
       transform="matrix(0.13333333,0,0,-0.13333333,0,865.33333)" />
    <path
       id="path56"
       d="m 5014.34,4348.28 c 156.71,-88.24 253.68,-254.12 253.68,-433.96 0,-52.04 -8.16,-103.77 -24.18,-153.29"
       style="fill:none;stroke:#000000;stroke-width:13.5;stroke-linecap:butt;stroke-linejoin:miter;stroke-miterlimit:10;stroke-dasharray:none;stroke-opacity:1"
       transform="matrix(0.13333333,0,0,-0.13333333,0,865.33333)" />
    <path
       id="path57"
       d="m 5016.59,4354.61 c -6.73,-36.73 -10.11,-74 -10.11,-111.34 0,-189.57 87,-368.65 236.01,-485.82"
       style="fill:none;stroke:#000000;stroke-width:13.5;stroke-linecap:butt;stroke-linejoin:miter;stroke-miterlimit:10;stroke-dasharray:none;stroke-opacity:1"
       transform="matrix(0.13333333,0,0,-0.13333333,0,865.33333)" />
    <path
       id="path58"
       d="m 5243.38,3760.6 c -100.06,-70.74 -159.55,-185.67 -159.55,-308.21 0,-142.22 79.95,-272.37 206.8,-336.67"
       style="fill:none;stroke:#000000;stroke-width:13.5;stroke-linecap:butt;stroke-linejoin:miter;stroke-miterlimit:10;stroke-dasharray:none;stroke-opacity:1"
       transform="matrix(0.13333333,0,0,-0.13333333,0,865.33333)" />
    <path
       id="path59"
       d="m 5245.66,3763.74 c -153.68,-29.95 -264.61,-164.58 -264.61,-321.15 0,-174.75 137.31,-318.65 311.86,-326.84"
       style="fill:none;stroke:#000000;stroke-width:13.5;stroke-linecap:butt;stroke-linejoin:miter;stroke-miterlimit:10;stroke-dasharray:none;stroke-opacity:1"
       transform="matrix(0.13333333,0,0,-0.13333333,0,865.33333)" />
    <path
       id="path60"
       d="m 5243.85,3760.12 c 87.92,-96.22 136.67,-221.85 136.67,-352.19 0,-104.13 -31.14,-205.89 -89.42,-292.19"
       style="fill:none;stroke:#000000;stroke-width:13.5;stroke-linecap:butt;stroke-linejoin:miter;stroke-miterlimit:10;stroke-dasharray:none;stroke-opacity:1"
       transform="matrix(0.13333333,0,0,-0.13333333,0,865.33333)" />
    <path
       id="path61"
       d="m 5247.43,3760.6 c 135.55,-55.05 224.21,-186.75 224.21,-333.05 0,-128.76 -68.88,-247.69 -180.56,-311.78"
       style="fill:none;stroke:#000000;stroke-width:13.5;stroke-linecap:butt;stroke-linejoin:miter;stroke-miterlimit:10;stroke-dasharray:none;stroke-opacity:1"
       transform="matrix(0.13333333,0,0,-0.13333333,0,865.33333)" />
    <path
       id="path62"
       d="m 5246.1,3760.6 c 1.83,0.02 3.66,0.04 5.49,0.04 178.59,0 323.37,-144.78 323.37,-323.37 0,-163.82 -122.52,-301.77 -285.21,-321.11"
       style="fill:none;stroke:#000000;stroke-width:13.5;stroke-linecap:butt;stroke-linejoin:miter;stroke-miterlimit:10;stroke-dasharray:none;stroke-opacity:1"
       transform="matrix(0.13333333,0,0,-0.13333333,0,865.33333)" />
    <path
       id="path63"
       d="m 5152.92,2491.64 c 163.39,33.97 280.51,177.96 280.51,344.84 0,111.51 -52.81,216.44 -142.36,282.88"
       style="fill:none;stroke:#000000;stroke-width:13.5;stroke-linecap:butt;stroke-linejoin:miter;stroke-miterlimit:10;stroke-dasharray:none;stroke-opacity:1"
       transform="matrix(0.13333333,0,0,-0.13333333,0,865.33333)" />
    <path
       id="path64"
       d="m 5292.9,3121.62 c 34.9,-70.8 53.06,-148.69 53.06,-227.63 0,-157.1 -71.75,-305.61 -194.81,-403.27"
       style="fill:none;stroke:#000000;stroke-width:13.5;stroke-linecap:butt;stroke-linejoin:miter;stroke-miterlimit:10;stroke-dasharray:none;stroke-opacity:1"
       transform="matrix(0.13333333,0,0,-0.13333333,0,865.33333)" />
    <path
       id="path65"
       d="m 5154.75,2491.58 c -20.42,62.88 -30.82,128.58 -30.82,194.69 0,159.59 60.55,313.25 169.43,429.93"
       style="fill:none;stroke:#000000;stroke-width:13.5;stroke-linecap:butt;stroke-linejoin:miter;stroke-miterlimit:10;stroke-dasharray:none;stroke-opacity:1"
       transform="matrix(0.13333333,0,0,-0.13333333,0,865.33333)" />
    <path
       id="path66"
       d="m 5290.66,3119.37 c -152.23,-50.82 -254.89,-193.32 -254.89,-353.81 0,-104.04 43.46,-203.36 119.88,-273.97"
       style="fill:none;stroke:#000000;stroke-width:13.5;stroke-linecap:butt;stroke-linejoin:miter;stroke-miterlimit:10;stroke-dasharray:none;stroke-opacity:1"
       transform="matrix(0.13333333,0,0,-0.13333333,0,865.33333)" />
    <path
       id="path67"
       d="m 5152.96,2496.55 c -128.73,45.48 -214.8,167.18 -214.8,303.7 0,177.9 144.22,322.11 322.12,322.11 9.24,0 18.48,-0.4 27.69,-1.19"
       style="fill:none;stroke:#000000;stroke-width:13.5;stroke-linecap:butt;stroke-linejoin:miter;stroke-miterlimit:10;stroke-dasharray:none;stroke-opacity:1"
       transform="matrix(0.13333333,0,0,-0.13333333,0,865.33333)" />
    <path
       id="path68"
       d="m 4832.11,1936.32 c 10.2,-0.88 20.44,-1.32 30.68,-1.32 195.84,0 354.6,158.75 354.6,354.59 0,72.95 -22.5,144.13 -64.43,203.82"
       style="fill:none;stroke:#000000;stroke-width:13.5;stroke-linecap:butt;stroke-linejoin:miter;stroke-miterlimit:10;stroke-dasharray:none;stroke-opacity:1"
       transform="matrix(0.13333333,0,0,-0.13333333,0,865.33333)" />
    <path
       id="path69"
       d="m 5154.77,2493.86 c 2.8,-21.97 4.21,-44.1 4.21,-66.25 0,-215.16 -131.61,-408.43 -331.81,-487.25"
       style="fill:none;stroke:#000000;stroke-width:13.5;stroke-linecap:butt;stroke-linejoin:miter;stroke-miterlimit:10;stroke-dasharray:none;stroke-opacity:1"
       transform="matrix(0.13333333,0,0,-0.13333333,0,865.33333)" />
    <path
       id="path70"
       d="m 4835.27,1940.35 c -33,56.87 -50.38,121.45 -50.38,187.2 0,206.03 167.03,373.05 373.06,373.05 0.43,0 0.88,0 1.31,0"
       style="fill:none;stroke:#000000;stroke-width:13.5;stroke-linecap:butt;stroke-linejoin:miter;stroke-miterlimit:10;stroke-dasharray:none;stroke-opacity:1"
       transform="matrix(0.13333333,0,0,-0.13333333,0,865.33333)" />
    <path
       id="path71"
       d="m 3137.86,1117.31 c 0,1.36 -0.01,2.73 -0.01,4.08 0,575.57 466.59,1042.16 1042.15,1042.16 235.53,0 464.12,-79.78 648.5,-226.34"
       style="fill:none;stroke:#000000;stroke-width:13.5;stroke-linecap:butt;stroke-linejoin:miter;stroke-miterlimit:10;stroke-dasharray:none;stroke-opacity:1"
       transform="matrix(0.13333333,0,0,-0.13333333,0,865.33333)" />
    <path
       id="path72"
       d="m 1449.91,1936.3 c 184.66,151.45 416.1,234.22 654.92,234.22 570.37,0 1032.75,-462.38 1032.75,-1032.75 0,-6.07 -0.06,-12.15 -0.16,-18.22"
       style="fill:none;stroke:#000000;stroke-width:13.5;stroke-linecap:butt;stroke-linejoin:miter;stroke-miterlimit:10;stroke-dasharray:none;stroke-opacity:1"
       transform="matrix(0.13333333,0,0,-0.13333333,0,865.33333)" />
    <path
       id="path73"
       d="m 1033.68,3761.06 c 479.85,-95.23 825.54,-516.27 825.54,-1005.49 0,-322.72 -151.98,-626.61 -410.19,-820.19"
       style="fill:none;stroke:#000000;stroke-width:13.5;stroke-linecap:butt;stroke-linejoin:miter;stroke-miterlimit:10;stroke-dasharray:none;stroke-opacity:1"
       transform="matrix(0.13333333,0,0,-0.13333333,0,865.33333)" />
    <path
       id="path74"
       d="m 990.902,3114.38 c 157.098,-43.24 265.948,-186.11 265.948,-349.04 0,-107.76 -48,-209.92 -130.95,-278.7"
       style="fill:none;stroke:#000000;stroke-width:13.5;stroke-linecap:butt;stroke-linejoin:miter;stroke-miterlimit:10;stroke-dasharray:none;stroke-opacity:1"
       transform="matrix(0.13333333,0,0,-0.13333333,0,865.33333)" />
    <path
       id="path75"
       d="m 984.168,3112.61 c -24.586,-64.73 -37.188,-133.4 -37.188,-202.65 0,-158.77 66.15,-310.37 182.54,-418.36"
       style="fill:none;stroke:#000000;stroke-width:13.5;stroke-linecap:butt;stroke-linejoin:miter;stroke-miterlimit:10;stroke-dasharray:none;stroke-opacity:1"
       transform="matrix(0.13333333,0,0,-0.13333333,0,865.33333)" />
    <path
       id="path76"
       d="m 990.008,3119.36 c -87.34,-66.51 -138.61,-169.99 -138.61,-279.77 0,-166.74 117.086,-310.56 280.352,-344.37"
       style="fill:none;stroke:#000000;stroke-width:13.5;stroke-linecap:butt;stroke-linejoin:miter;stroke-miterlimit:10;stroke-dasharray:none;stroke-opacity:1"
       transform="matrix(0.13333333,0,0,-0.13333333,0,865.33333)" />
    <path
       id="path77"
       d="m 989.531,3115.74 c -134.953,-41.22 -227.14,-165.78 -227.14,-306.89 0,-177.22 143.671,-320.9 320.899,-320.9 16.06,0 32.11,1.21 48,3.62"
       style="fill:none;stroke:#000000;stroke-width:13.5;stroke-linecap:butt;stroke-linejoin:miter;stroke-miterlimit:10;stroke-dasharray:none;stroke-opacity:1"
       transform="matrix(0.13333333,0,0,-0.13333333,0,865.33333)" />
    <path
       id="path78"
       d="m 1028.26,3761.5 c -77.33,-103.36 -119.123,-228.98 -119.123,-358.07 0,-101.43 25.82,-201.21 75.023,-289.92"
       style="fill:none;stroke:#000000;stroke-width:13.5;stroke-linecap:butt;stroke-linejoin:miter;stroke-miterlimit:10;stroke-dasharray:none;stroke-opacity:1"
       transform="matrix(0.13333333,0,0,-0.13333333,0,865.33333)" />
    <path
       id="path79"
       d="m 1033.64,3759.7 c 47.34,-88.84 72.1,-187.97 72.1,-288.63 0,-129.02 -40.66,-254.77 -116.193,-359.36"
       style="fill:none;stroke:#000000;stroke-width:13.5;stroke-linecap:butt;stroke-linejoin:miter;stroke-miterlimit:10;stroke-dasharray:none;stroke-opacity:1"
       transform="matrix(0.13333333,0,0,-0.13333333,0,865.33333)" />
    <path
       id="path80"
       d="m 1031.39,3755.63 c 111.38,-62.81 180.28,-180.76 180.28,-308.63 0,-145.36 -88.77,-275.97 -223.924,-329.46"
       style="fill:none;stroke:#000000;stroke-width:13.5;stroke-linecap:butt;stroke-linejoin:miter;stroke-miterlimit:10;stroke-dasharray:none;stroke-opacity:1"
       transform="matrix(0.13333333,0,0,-0.13333333,0,865.33333)" />
    <path
       id="path81"
       d="m 985.945,3112.12 c -475.793,-84.44 -822.461,-498.05 -822.461,-981.28 0,-550.42 446.204,-996.62 996.616,-996.62 296.9,0 578.35,132.38 767.68,361.08"
       style="fill:none;stroke:#000000;stroke-width:13.5;stroke-linecap:butt;stroke-linejoin:miter;stroke-miterlimit:10;stroke-dasharray:none;stroke-opacity:1"
       transform="matrix(0.13333333,0,0,-0.13333333,0,865.33333)" />
    <path
       id="path82"
       d="m 1131.76,2491.59 c -41.79,-59.33 -64.22,-130.14 -64.22,-202.71 0,-194.43 157.61,-352.04 352.03,-352.04 9.83,0 19.66,0.41 29.45,1.23"
       style="fill:none;stroke:#000000;stroke-width:13.5;stroke-linecap:butt;stroke-linejoin:miter;stroke-miterlimit:10;stroke-dasharray:none;stroke-opacity:1"
       transform="matrix(0.13333333,0,0,-0.13333333,0,865.33333)" />
    <path
       id="path83"
       d="m 1131.3,2489.34 c 198,-108.83 321.03,-316.84 321.03,-542.78 0,-4.77 -0.06,-9.56 -0.17,-14.33"
       style="fill:none;stroke:#000000;stroke-width:13.5;stroke-linecap:butt;stroke-linejoin:miter;stroke-miterlimit:10;stroke-dasharray:none;stroke-opacity:1"
       transform="matrix(0.13333333,0,0,-0.13333333,0,865.33333)" />
    <path
       id="path84"
       d="m 1129.5,2489.8 c 5.95,0.3 11.91,0.45 17.86,0.45 197.91,0 358.34,-160.43 358.34,-358.34 0,-68 -19.35,-134.61 -55.79,-192.02"
       style="fill:none;stroke:#000000;stroke-width:13.5;stroke-linecap:butt;stroke-linejoin:miter;stroke-miterlimit:10;stroke-dasharray:none;stroke-opacity:1"
       transform="matrix(0.13333333,0,0,-0.13333333,0,865.33333)" />
    <path
       id="path85"
       d="m 1125.9,2491.61 c 42.15,19.41 88.01,29.46 134.42,29.46 177.44,0 321.3,-143.85 321.3,-321.3 0,-103.89 -50.24,-201.38 -134.86,-261.67"
       style="fill:none;stroke:#000000;stroke-width:13.5;stroke-linecap:butt;stroke-linejoin:miter;stroke-miterlimit:10;stroke-dasharray:none;stroke-opacity:1"
       transform="matrix(0.13333333,0,0,-0.13333333,0,865.33333)" />
    <path
       id="path86"
       d="m 1452.14,1935.86 c 35.88,11 73.19,16.59 110.71,16.59 208.47,0 377.46,-168.99 377.46,-377.45 0,-27.41 -2.99,-54.75 -8.9,-81.51"
       style="fill:none;stroke:#000000;stroke-width:13.5;stroke-linecap:butt;stroke-linejoin:miter;stroke-miterlimit:10;stroke-dasharray:none;stroke-opacity:1"
       transform="matrix(0.13333333,0,0,-0.13333333,0,865.33333)" />
    <path
       id="path87"
       d="m 1452.6,1938.08 c -12.54,-36.83 -18.94,-75.47 -18.94,-114.37 0,-195.91 158.82,-354.73 354.73,-354.73 46.76,0 93.07,9.25 136.25,27.2"
       style="fill:none;stroke:#000000;stroke-width:13.5;stroke-linecap:butt;stroke-linejoin:miter;stroke-miterlimit:10;stroke-dasharray:none;stroke-opacity:1"
       transform="matrix(0.13333333,0,0,-0.13333333,0,865.33333)" />
    <path
       id="path88"
       d="m 3775.96,1218.54 c 154.54,-376.028 520.85,-621.528 927.4,-621.528 553.74,0 1002.64,448.898 1002.64,1002.648 0,378.02 -212.62,723.91 -549.91,894.61"
       style="fill:none;stroke:#000000;stroke-width:13.5;stroke-linecap:butt;stroke-linejoin:miter;stroke-miterlimit:10;stroke-dasharray:none;stroke-opacity:1"
       transform="matrix(0.13333333,0,0,-0.13333333,0,865.33333)" />
    <path
       id="path89"
       d="m 4359.59,1501.16 c 43.53,-18.5 90.36,-28.05 137.66,-28.05 194.32,0 351.86,157.54 351.86,351.86 0,36.73 -5.75,73.23 -17.04,108.17"
       style="fill:none;stroke:#000000;stroke-width:13.5;stroke-linecap:butt;stroke-linejoin:miter;stroke-miterlimit:10;stroke-dasharray:none;stroke-opacity:1"
       transform="matrix(0.13333333,0,0,-0.13333333,0,865.33333)" />
    <path
       id="path90"
       d="m 4830.3,1936.75 c -38.02,-235.48 -231.25,-414.98 -468.88,-435.59"
       style="fill:none;stroke:#000000;stroke-width:13.5;stroke-linecap:butt;stroke-linejoin:miter;stroke-miterlimit:10;stroke-dasharray:none;stroke-opacity:1"
       transform="matrix(0.13333333,0,0,-0.13333333,0,865.33333)" />
    <path
       id="path91"
       d="m 4362.74,1504.75 c 68.62,220.82 250.02,388.15 475.65,438.75"
       style="fill:none;stroke:#000000;stroke-width:13.5;stroke-linecap:butt;stroke-linejoin:miter;stroke-miterlimit:10;stroke-dasharray:none;stroke-opacity:1"
       transform="matrix(0.13333333,0,0,-0.13333333,0,865.33333)" />
    <path
       id="path92"
       d="m 4361.84,1499.32 c -41.84,55.44 -64.47,123 -64.47,192.45 0,176.43 143.02,319.46 319.45,319.46 75.93,0 149.38,-27.05 207.18,-76.3"
       style="fill:none;stroke:#000000;stroke-width:13.5;stroke-linecap:butt;stroke-linejoin:miter;stroke-miterlimit:10;stroke-dasharray:none;stroke-opacity:1"
       transform="matrix(0.13333333,0,0,-0.13333333,0,865.33333)" />
    <path
       id="path93"
       d="m 3776.4,1214.49 c -11.97,34.53 -18.09,70.83 -18.09,107.38 0,181.03 146.75,327.78 327.78,327.78 110.68,0 213.88,-55.86 274.41,-148.51"
       style="fill:none;stroke:#000000;stroke-width:13.5;stroke-linecap:butt;stroke-linejoin:miter;stroke-miterlimit:10;stroke-dasharray:none;stroke-opacity:1"
       transform="matrix(0.13333333,0,0,-0.13333333,0,865.33333)" />
    <path
       id="path94"
       d="m 3774.62,1215.85 c 33.56,-6.37 67.65,-9.58 101.81,-9.58 204.66,0 392.11,114.56 485.45,296.69"
       style="fill:none;stroke:#000000;stroke-width:13.5;stroke-linecap:butt;stroke-linejoin:miter;stroke-miterlimit:10;stroke-dasharray:none;stroke-opacity:1"
       transform="matrix(0.13333333,0,0,-0.13333333,0,865.33333)" />
    <path
       id="path95"
       d="m 3775.94,1214.06 c 63.67,-50.67 142.65,-78.26 224.02,-78.26 198.67,0 359.73,161.05 359.73,359.72 0,2.93 -0.04,5.86 -0.11,8.79"
       style="fill:none;stroke:#000000;stroke-width:13.5;stroke-linecap:butt;stroke-linejoin:miter;stroke-miterlimit:10;stroke-dasharray:none;stroke-opacity:1"
       transform="matrix(0.13333333,0,0,-0.13333333,0,865.33333)" />
    <path
       id="path96"
       d="m 3778.66,1221.25 c 58.32,-100.09 165.45,-161.64 281.29,-161.64 179.8,0 325.57,145.77 325.57,325.57 0,40.94 -7.72,81.51 -22.75,119.58"
       style="fill:none;stroke:#000000;stroke-width:13.5;stroke-linecap:butt;stroke-linejoin:miter;stroke-miterlimit:10;stroke-dasharray:none;stroke-opacity:1"
       transform="matrix(0.13333333,0,0,-0.13333333,0,865.33333)" />
    <path
       id="path97"
       d="m 3138.73,1120.01 c 66.2,-98.17 176.86,-157.014 295.27,-157.014 158.99,0 298.73,105.394 342.41,258.274"
       style="fill:none;stroke:#000000;stroke-width:13.5;stroke-linecap:butt;stroke-linejoin:miter;stroke-miterlimit:10;stroke-dasharray:none;stroke-opacity:1"
       transform="matrix(0.13333333,0,0,-0.13333333,0,865.33333)" />
    <path
       id="path98"
       d="m 3140.09,1118.21 c 77.31,-39.75 163,-60.49 249.94,-60.49 144.01,0 282.21,56.83 384.56,158.14"
       style="fill:none;stroke:#000000;stroke-width:13.5;stroke-linecap:butt;stroke-linejoin:miter;stroke-miterlimit:10;stroke-dasharray:none;stroke-opacity:1"
       transform="matrix(0.13333333,0,0,-0.13333333,0,865.33333)" />
    <path
       id="path99"
       d="m 3137.41,1120 c 114.31,93.55 257.49,144.68 405.21,144.68 82.13,0 163.5,-15.82 239.65,-46.58"
       style="fill:none;stroke:#000000;stroke-width:13.5;stroke-linecap:butt;stroke-linejoin:miter;stroke-miterlimit:10;stroke-dasharray:none;stroke-opacity:1"
       transform="matrix(0.13333333,0,0,-0.13333333,0,865.33333)" />
    <path
       id="path100"
       d="m 1926,1494.41 c -81.91,-148.13 -124.88,-314.63 -124.88,-483.89 0,-552.258 447.7,-999.9497 999.95,-999.9497 552.25,0 999.95,447.6917 999.95,999.9497 0,70.68 -7.5,141.18 -22.37,210.28"
       style="fill:none;stroke:#000000;stroke-width:13.5;stroke-linecap:butt;stroke-linejoin:miter;stroke-miterlimit:10;stroke-dasharray:none;stroke-opacity:1"
       transform="matrix(0.13333333,0,0,-0.13333333,0,865.33333)" />
    <path
       id="path101"
       d="m 2506.5,1211.37 c -0.6,-7.97 -0.9,-15.97 -0.9,-23.96 0,-176.45 143.05,-319.5 319.5,-319.5 150.48,0 280.57,105.008 312.31,252.11"
       style="fill:none;stroke:#000000;stroke-width:13.5;stroke-linecap:butt;stroke-linejoin:miter;stroke-miterlimit:10;stroke-dasharray:none;stroke-opacity:1"
       transform="matrix(0.13333333,0,0,-0.13333333,0,865.33333)" />
    <path
       id="path102"
       d="m 2507.85,1218.55 c 43.66,-151.24 182.1,-255.374 339.53,-255.374 116.76,0 226,57.684 291.84,154.124"
       style="fill:none;stroke:#000000;stroke-width:13.5;stroke-linecap:butt;stroke-linejoin:miter;stroke-miterlimit:10;stroke-dasharray:none;stroke-opacity:1"
       transform="matrix(0.13333333,0,0,-0.13333333,0,865.33333)" />
    <path
       id="path103"
       d="m 2508.76,1219.43 c 100.77,-105.16 240.12,-164.63 385.78,-164.63 85.46,0 169.68,20.5 245.58,59.78"
       style="fill:none;stroke:#000000;stroke-width:13.5;stroke-linecap:butt;stroke-linejoin:miter;stroke-miterlimit:10;stroke-dasharray:none;stroke-opacity:1"
       transform="matrix(0.13333333,0,0,-0.13333333,0,865.33333)" />
    <path
       id="path104"
       d="m 2511.44,1211.8 c 66.85,93.32 174.61,148.68 289.4,148.68 154.54,0 291.43,-99.7 338.84,-246.79"
       style="fill:none;stroke:#000000;stroke-width:13.5;stroke-linecap:butt;stroke-linejoin:miter;stroke-miterlimit:10;stroke-dasharray:none;stroke-opacity:1"
       transform="matrix(0.13333333,0,0,-0.13333333,0,865.33333)" />
    <path
       id="path105"
       d="m 1924.62,1496.18 c 57.86,99.03 163.94,159.91 278.63,159.91 178.21,0 322.69,-144.48 322.69,-322.7 0,-38.93 -7.05,-77.54 -20.8,-113.96"
       style="fill:none;stroke:#000000;stroke-width:13.5;stroke-linecap:butt;stroke-linejoin:miter;stroke-miterlimit:10;stroke-dasharray:none;stroke-opacity:1"
       transform="matrix(0.13333333,0,0,-0.13333333,0,865.33333)" />
    <path
       id="path106"
       d="m 1927.8,1495.31 c 61.61,42.88 134.87,65.87 209.93,65.87 195.9,0 357.35,-153.7 366.98,-349.37"
       style="fill:none;stroke:#000000;stroke-width:13.5;stroke-linecap:butt;stroke-linejoin:miter;stroke-miterlimit:10;stroke-dasharray:none;stroke-opacity:1"
       transform="matrix(0.13333333,0,0,-0.13333333,0,865.33333)" />
    <path
       id="path107"
       d="m 1926,1494.87 c 24.56,3.1 49.31,4.66 74.07,4.66 209.58,0 403.49,-111.02 509.59,-291.77"
       style="fill:none;stroke:#000000;stroke-width:13.5;stroke-linecap:butt;stroke-linejoin:miter;stroke-miterlimit:10;stroke-dasharray:none;stroke-opacity:1"
       transform="matrix(0.13333333,0,0,-0.13333333,0,865.33333)" />
    <path
       id="path108"
       d="m 1927.8,1495.3 c 0.45,-198.13 161.19,-358.51 359.32,-358.51 81.53,0 160.64,27.72 224.33,78.62"
       style="fill:none;stroke:#000000;stroke-width:13.5;stroke-linecap:butt;stroke-linejoin:miter;stroke-miterlimit:10;stroke-dasharray:none;stroke-opacity:1"
       transform="matrix(0.13333333,0,0,-0.13333333,0,865.33333)" />
    <path
       id="path109"
       d="m 3773.23,1221.24 c 127.24,176.44 331.53,280.99 549.07,280.99 12.74,0 25.48,-0.36 38.2,-1.08"
       style="fill:none;stroke:#00ff00;stroke-width:27;stroke-linecap:butt;stroke-linejoin:miter;stroke-miterlimit:10;stroke-dasharray:none;stroke-opacity:1"
       transform="matrix(0.13333333,0,0,-0.13333333,0,865.33333)" />
    <path
       id="path110"
       d="m 4360.96,1501.15 c 60.01,-59.74 141.25,-93.29 225.93,-93.29 176.88,0 320.27,143.39 320.27,320.27 0,76.55 -27.42,150.57 -77.28,208.64"
       style="fill:none;stroke:#00ff00;stroke-width:27;stroke-linecap:butt;stroke-linejoin:miter;stroke-miterlimit:10;stroke-dasharray:none;stroke-opacity:1"
       transform="matrix(0.13333333,0,0,-0.13333333,0,865.33333)" />
    <path
       id="path111"
       d="m 5153.86,2493.39 c -200.07,-111.86 -324.01,-323.16 -324.01,-552.37 0,-1.41 0.01,-2.84 0.01,-4.27"
       style="fill:none;stroke:#00ff00;stroke-width:27;stroke-linecap:butt;stroke-linejoin:miter;stroke-miterlimit:10;stroke-dasharray:none;stroke-opacity:1"
       transform="matrix(0.13333333,0,0,-0.13333333,0,865.33333)" />
    <path
       id="path112"
       d="m 5153.42,2487.98 c 16.62,-2.62 33.42,-3.94 50.24,-3.94 177.85,0 322.03,144.17 322.03,322.02 0,143.82 -95.37,270.21 -233.67,309.66"
       style="fill:none;stroke:#00ff00;stroke-width:27;stroke-linecap:butt;stroke-linejoin:miter;stroke-miterlimit:10;stroke-dasharray:none;stroke-opacity:1"
       transform="matrix(0.13333333,0,0,-0.13333333,0,865.33333)" />
    <path
       id="path113"
       d="m 5244.72,3763.77 c -43.18,-88.25 -65.63,-185.22 -65.63,-283.47 0,-130.12 39.36,-257.19 112.88,-364.54"
       style="fill:none;stroke:#00ff00;stroke-width:27;stroke-linecap:butt;stroke-linejoin:miter;stroke-miterlimit:10;stroke-dasharray:none;stroke-opacity:1"
       transform="matrix(0.13333333,0,0,-0.13333333,0,865.33333)" />
    <path
       id="path114"
       d="m 5015.25,4351.47 c -54.31,-65.05 -84.06,-147.11 -84.06,-231.86 0,-181.18 134.01,-334.42 313.57,-358.57"
       style="fill:none;stroke:#00ff00;stroke-width:27;stroke-linecap:butt;stroke-linejoin:miter;stroke-miterlimit:10;stroke-dasharray:none;stroke-opacity:1"
       transform="matrix(0.13333333,0,0,-0.13333333,0,865.33333)" />
    <path
       id="path115"
       d="m 2502.91,1214.52 c 36.18,143.22 165.02,243.57 312.74,243.57 178.14,0 322.56,-144.42 322.56,-322.57 0,-5.16 -0.13,-10.34 -0.37,-15.5"
       style="fill:none;stroke:#00ff00;stroke-width:27;stroke-linecap:butt;stroke-linejoin:miter;stroke-miterlimit:10;stroke-dasharray:none;stroke-opacity:1"
       transform="matrix(0.13333333,0,0,-0.13333333,0,865.33333)" />
    <path
       id="path116"
       d="m 1927.8,1492.14 c 95.93,-176.18 280.49,-285.83 481.09,-285.83 33.34,0 66.61,3.05 99.39,9.09"
       style="fill:none;stroke:#00ff00;stroke-width:27;stroke-linecap:butt;stroke-linejoin:miter;stroke-miterlimit:10;stroke-dasharray:none;stroke-opacity:1"
       transform="matrix(0.13333333,0,0,-0.13333333,0,865.33333)" />
    <path
       id="path117"
       d="m 1452.16,1938.99 c 47.63,-233.37 236.72,-411.66 472.48,-445.49"
       style="fill:none;stroke:#00ff00;stroke-width:27;stroke-linecap:butt;stroke-linejoin:miter;stroke-miterlimit:10;stroke-dasharray:none;stroke-opacity:1"
       transform="matrix(0.13333333,0,0,-0.13333333,0,865.33333)" />
    <path
       id="path118"
       d="m 1131.3,2490.7 c -1.41,-16.18 -2.12,-32.41 -2.12,-48.65 0,-217.75 125.86,-415.9 322.97,-508.46"
       style="fill:none;stroke:#00ff00;stroke-width:27;stroke-linecap:butt;stroke-linejoin:miter;stroke-miterlimit:10;stroke-dasharray:none;stroke-opacity:1"
       transform="matrix(0.13333333,0,0,-0.13333333,0,865.33333)" />
    <path
       id="path119"
       d="m 989.562,3114.83 c 13.988,1.84 28.088,2.76 42.198,2.76 178.44,0 323.1,-144.65 323.1,-323.09 0,-140.09 -90.28,-264.23 -223.56,-307.39"
       style="fill:none;stroke:#00ff00;stroke-width:27;stroke-linecap:butt;stroke-linejoin:miter;stroke-miterlimit:10;stroke-dasharray:none;stroke-opacity:1"
       transform="matrix(0.13333333,0,0,-0.13333333,0,865.33333)" />
    <path
       id="path120"
       d="m 1033.64,3759.27 c -133.8,-57.8 -220.445,-189.61 -220.445,-335.36 0,-127.89 66.891,-246.48 176.348,-312.64"
       style="fill:none;stroke:#00ff00;stroke-width:27;stroke-linecap:butt;stroke-linejoin:miter;stroke-miterlimit:10;stroke-dasharray:none;stroke-opacity:1"
       transform="matrix(0.13333333,0,0,-0.13333333,0,865.33333)" />
    <path
       id="path121"
       d="m 1266.76,4365.83 c -183.6,-24.06 -320.905,-180.53 -320.905,-365.69 0,-85.6 29.774,-168.53 84.215,-234.58"
       style="fill:none;stroke:#00ff00;stroke-width:27;stroke-linecap:butt;stroke-linejoin:miter;stroke-miterlimit:10;stroke-dasharray:none;stroke-opacity:1"
       transform="matrix(0.13333333,0,0,-0.13333333,0,865.33333)" />
    <path
       id="path122"
       d="m 1266.77,4360.91 c -20.87,46.54 -31.66,96.98 -31.66,148 0,199.81 161.99,361.8 361.8,361.8 24.08,0 48.1,-2.41 71.69,-7.18"
       style="fill:none;stroke:#00ff00;stroke-width:27;stroke-linecap:butt;stroke-linejoin:miter;stroke-miterlimit:10;stroke-dasharray:none;stroke-opacity:1"
       transform="matrix(0.13333333,0,0,-0.13333333,0,865.33333)" />
    <path
       id="path123"
       d="m 1668.63,4863.55 c -132.49,174.16 -204.24,386.96 -204.24,605.79 0,552.57 447.96,1000.53 1000.53,1000.53 552.58,0 1000.53,-447.96 1000.53,-1000.53 0,-17.29 -0.45,-34.58 -1.34,-51.85"
       style="fill:none;stroke:#00ff00;stroke-width:27;stroke-linecap:butt;stroke-linejoin:miter;stroke-miterlimit:10;stroke-dasharray:none;stroke-opacity:1"
       transform="matrix(0.13333333,0,0,-0.13333333,0,865.33333)" />
    <path
       id="path124"
       d="m 2202.77,5224 c 173.17,-362.91 539.5,-594 941.61,-594 402.1,0 768.43,231.09 941.6,594"
       style="fill:none;stroke:#00ff00;stroke-width:27;stroke-linecap:butt;stroke-linejoin:miter;stroke-miterlimit:10;stroke-dasharray:none;stroke-opacity:1"
       transform="matrix(0.13333333,0,0,-0.13333333,0,865.33333)" />
    <path
       id="path125"
       d="m 4080.15,5226.72 c -1.62,-13.93 -2.43,-27.94 -2.43,-41.96 0,-201.01 162.95,-363.96 363.96,-363.96 58.71,0 116.56,14.21 168.59,41.4"
       style="fill:none;stroke:#00ff00;stroke-width:27;stroke-linecap:butt;stroke-linejoin:miter;stroke-miterlimit:10;stroke-dasharray:none;stroke-opacity:1"
       transform="matrix(0.13333333,0,0,-0.13333333,0,865.33333)" />
    <path
       id="path126"
       d="m 1663.22,4862.22 c -217.18,-76.03 -370.93,-270.63 -394.65,-499.5"
       style="fill:none;stroke:#000000;stroke-width:13.5;stroke-linecap:butt;stroke-linejoin:miter;stroke-miterlimit:10;stroke-dasharray:none;stroke-opacity:1"
       transform="matrix(0.13333333,0,0,-0.13333333,0,865.33333)" />
    <path
       id="path127"
       d="m 1028.7,3763.3 -43.649,-651.15 3.148,3.15"
       style="fill:none;stroke:#000000;stroke-width:13.5;stroke-linecap:butt;stroke-linejoin:miter;stroke-miterlimit:10;stroke-dasharray:none;stroke-opacity:1"
       transform="matrix(0.13333333,0,0,-0.13333333,0,865.33333)" />
    <path
       id="path128"
       d="m 5244.3,3763.3 47.25,-648 v 3.6"
       style="fill:none;stroke:#000000;stroke-width:13.5;stroke-linecap:butt;stroke-linejoin:miter;stroke-miterlimit:10;stroke-dasharray:none;stroke-opacity:1"
       transform="matrix(0.13333333,0,0,-0.13333333,0,865.33333)" />
    <path
       id="path129"
       d="m 5291.55,3118.9 -138.6,-627.75"
       style="fill:none;stroke:#000000;stroke-width:13.5;stroke-linecap:butt;stroke-linejoin:miter;stroke-miterlimit:10;stroke-dasharray:none;stroke-opacity:1"
       transform="matrix(0.13333333,0,0,-0.13333333,0,865.33333)" />
    <path
       id="path130"
       d="M 1662.3,4863.55 1264.05,4357.3"
       style="fill:none;stroke:#000000;stroke-width:13.5;stroke-linecap:butt;stroke-linejoin:miter;stroke-miterlimit:10;stroke-dasharray:none;stroke-opacity:1"
       transform="matrix(0.13333333,0,0,-0.13333333,0,865.33333)" />
    <path
       id="path131"
       d="M 1264.05,4360.9 1027.8,3760.15"
       style="fill:none;stroke:#000000;stroke-width:13.5;stroke-linecap:butt;stroke-linejoin:miter;stroke-miterlimit:10;stroke-dasharray:none;stroke-opacity:1"
       transform="matrix(0.13333333,0,0,-0.13333333,0,865.33333)" />
    <path
       id="path132"
       d="m 2196.9,5227.15 -530.1,-360.9"
       style="fill:none;stroke:#000000;stroke-width:13.5;stroke-linecap:butt;stroke-linejoin:miter;stroke-miterlimit:10;stroke-dasharray:none;stroke-opacity:1"
       transform="matrix(0.13333333,0,0,-0.13333333,0,865.33333)" />
    <path
       id="path133"
       d="M 3461.4,5416.15 4082.4,5224"
       style="fill:none;stroke:#000000;stroke-width:13.5;stroke-linecap:butt;stroke-linejoin:miter;stroke-miterlimit:10;stroke-dasharray:none;stroke-opacity:1"
       transform="matrix(0.13333333,0,0,-0.13333333,0,865.33333)" />
    <path
       id="path134"
       d="m 4086,5223.55 522.9,-360.9"
       style="fill:none;stroke:#000000;stroke-width:13.5;stroke-linecap:butt;stroke-linejoin:miter;stroke-miterlimit:10;stroke-dasharray:none;stroke-opacity:1"
       transform="matrix(0.13333333,0,0,-0.13333333,0,865.33333)" />
    <path
       id="path135"
       d="M 4605.75,4862.65 5017.5,4352.8"
       style="fill:none;stroke:#000000;stroke-width:13.5;stroke-linecap:butt;stroke-linejoin:miter;stroke-miterlimit:10;stroke-dasharray:none;stroke-opacity:1"
       transform="matrix(0.13333333,0,0,-0.13333333,0,865.33333)" />
    <path
       id="path136"
       d="M 5016.15,4347.4 5249.25,3757"
       style="fill:none;stroke:#000000;stroke-width:13.5;stroke-linecap:butt;stroke-linejoin:miter;stroke-miterlimit:10;stroke-dasharray:none;stroke-opacity:1"
       transform="matrix(0.13333333,0,0,-0.13333333,0,865.33333)" />
    <path
       id="path137"
       d="M 5154.75,2495.2 4827.6,1934.95"
       style="fill:none;stroke:#000000;stroke-width:13.5;stroke-linecap:butt;stroke-linejoin:miter;stroke-miterlimit:10;stroke-dasharray:none;stroke-opacity:1"
       transform="matrix(0.13333333,0,0,-0.13333333,0,865.33333)" />
    <path
       id="path138"
       d="M 990,3116.65 1131.75,2488.9"
       style="fill:none;stroke:#000000;stroke-width:13.5;stroke-linecap:butt;stroke-linejoin:miter;stroke-miterlimit:10;stroke-dasharray:none;stroke-opacity:1"
       transform="matrix(0.13333333,0,0,-0.13333333,0,865.33333)" />
    <path
       id="path139"
       d="M 1131.75,2485.3 1449,1935.4"
       style="fill:none;stroke:#000000;stroke-width:13.5;stroke-linecap:butt;stroke-linejoin:miter;stroke-miterlimit:10;stroke-dasharray:none;stroke-opacity:1"
       transform="matrix(0.13333333,0,0,-0.13333333,0,865.33333)" />
    <path
       id="path140"
       d="M 1446.75,1936.75 1926,1494.85"
       style="fill:none;stroke:#000000;stroke-width:13.5;stroke-linecap:butt;stroke-linejoin:miter;stroke-miterlimit:10;stroke-dasharray:none;stroke-opacity:1"
       transform="matrix(0.13333333,0,0,-0.13333333,0,865.33333)" />
    <path
       id="path141"
       d="M 4828.5,1937.2 4359.6,1502.05"
       style="fill:none;stroke:#000000;stroke-width:13.5;stroke-linecap:butt;stroke-linejoin:miter;stroke-miterlimit:10;stroke-dasharray:none;stroke-opacity:1"
       transform="matrix(0.13333333,0,0,-0.13333333,0,865.33333)" />
    <path
       id="path142"
       d="M 4362.75,1502.05 3775.5,1218.55"
       style="fill:none;stroke:#000000;stroke-width:13.5;stroke-linecap:butt;stroke-linejoin:miter;stroke-miterlimit:10;stroke-dasharray:none;stroke-opacity:1"
       transform="matrix(0.13333333,0,0,-0.13333333,0,865.33333)" />
    <path
       id="path143"
       d="m 2502.9,1217.65 634.5,-98.1"
       style="fill:none;stroke:#000000;stroke-width:13.5;stroke-linecap:butt;stroke-linejoin:miter;stroke-miterlimit:10;stroke-dasharray:none;stroke-opacity:1"
       transform="matrix(0.13333333,0,0,-0.13333333,0,865.33333)" />
    <path
       id="path144"
       d="M 1922.4,1497.55 2506.5,1210.9"
       style="fill:none;stroke:#000000;stroke-width:13.5;stroke-linecap:butt;stroke-linejoin:miter;stroke-miterlimit:10;stroke-dasharray:none;stroke-opacity:1"
       transform="matrix(0.13333333,0,0,-0.13333333,0,865.33333)" />
    <path
       id="path145"
       d="m 3137.85,1120 638.1,97.65"
       style="fill:none;stroke:#00ff00;stroke-width:27;stroke-linecap:butt;stroke-linejoin:miter;stroke-miterlimit:10;stroke-dasharray:none;stroke-opacity:1"
       transform="matrix(0.13333333,0,0,-0.13333333,0,865.33333)" />
    <path
       id="path146"
       d="m 2205,5228.5 610.65,189"
       style="fill:none;stroke:#00ff00;stroke-width:27;stroke-linecap:butt;stroke-linejoin:miter;stroke-miterlimit:10;stroke-dasharray:none;stroke-opacity:1"
       transform="matrix(0.13333333,0,0,-0.13333333,0,865.33333)" />
    <path
       id="path147"
       d="m 2818.35,5417.95 h 644.4"
       style="fill:none;stroke:#00ff00;stroke-width:27;stroke-linecap:butt;stroke-linejoin:miter;stroke-miterlimit:10;stroke-dasharray:none;stroke-opacity:1"
       transform="matrix(0.13333333,0,0,-0.13333333,0,865.33333)" />
    <path
       id="path148"
       d="m 1476,1936.75 c 0,-13.42 -10.88,-24.3 -24.3,-24.3 -13.42,0 -24.3,10.88 -24.3,24.3 0,13.42 10.88,24.3 24.3,24.3 13.42,0 24.3,-10.88 24.3,-24.3"
       style="fill:#ffffff;fill-opacity:1;fill-rule:evenodd;stroke:none"
       transform="matrix(0.13333333,0,0,-0.13333333,0,865.33333)" />
    <path
       id="path149"
       d="m 1476,1936.75 c 0,-13.42 -10.88,-24.3 -24.3,-24.3 -13.42,0 -24.3,10.88 -24.3,24.3 0,13.42 10.88,24.3 24.3,24.3 13.42,0 24.3,-10.88 24.3,-24.3 z"
       style="fill:none;stroke:#000000;stroke-width:6.75;stroke-linecap:butt;stroke-linejoin:miter;stroke-miterlimit:10;stroke-dasharray:none;stroke-opacity:1"
       transform="matrix(0.13333333,0,0,-0.13333333,0,865.33333)" />
    <path
       id="path150"
       d="m 5179.05,2492.05 c 0,-13.42 -10.88,-24.3 -24.3,-24.3 -13.42,0 -24.3,10.88 -24.3,24.3 0,13.42 10.88,24.3 24.3,24.3 13.42,0 24.3,-10.88 24.3,-24.3"
       style="fill:#ffffff;fill-opacity:1;fill-rule:evenodd;stroke:none"
       transform="matrix(0.13333333,0,0,-0.13333333,0,865.33333)" />
    <path
       id="path151"
       d="m 5179.05,2492.05 c 0,-13.42 -10.88,-24.3 -24.3,-24.3 -13.42,0 -24.3,10.88 -24.3,24.3 0,13.42 10.88,24.3 24.3,24.3 13.42,0 24.3,-10.88 24.3,-24.3 z"
       style="fill:none;stroke:#000000;stroke-width:6.75;stroke-linecap:butt;stroke-linejoin:miter;stroke-miterlimit:10;stroke-dasharray:none;stroke-opacity:1"
       transform="matrix(0.13333333,0,0,-0.13333333,0,865.33333)" />
    <path
       id="path152"
       d="m 5317.2,3116.65 c 0,-13.42 -10.88,-24.3 -24.3,-24.3 -13.42,0 -24.3,10.88 -24.3,24.3 0,13.42 10.88,24.3 24.3,24.3 13.42,0 24.3,-10.88 24.3,-24.3"
       style="fill:#ffffff;fill-opacity:1;fill-rule:evenodd;stroke:none"
       transform="matrix(0.13333333,0,0,-0.13333333,0,865.33333)" />
    <path
       id="path153"
       d="m 5317.2,3116.65 c 0,-13.42 -10.88,-24.3 -24.3,-24.3 -13.42,0 -24.3,10.88 -24.3,24.3 0,13.42 10.88,24.3 24.3,24.3 13.42,0 24.3,-10.88 24.3,-24.3 z"
       style="fill:none;stroke:#000000;stroke-width:6.75;stroke-linecap:butt;stroke-linejoin:miter;stroke-miterlimit:10;stroke-dasharray:none;stroke-opacity:1"
       transform="matrix(0.13333333,0,0,-0.13333333,0,865.33333)" />
    <path
       id="path154"
       d="m 5269.95,3761.05 c 0,-13.42 -10.88,-24.3 -24.3,-24.3 -13.42,0 -24.3,10.88 -24.3,24.3 0,13.42 10.88,24.3 24.3,24.3 13.42,0 24.3,-10.88 24.3,-24.3"
       style="fill:#ffffff;fill-opacity:1;fill-rule:evenodd;stroke:none"
       transform="matrix(0.13333333,0,0,-0.13333333,0,865.33333)" />
    <path
       id="path155"
       d="m 5269.95,3761.05 c 0,-13.42 -10.88,-24.3 -24.3,-24.3 -13.42,0 -24.3,10.88 -24.3,24.3 0,13.42 10.88,24.3 24.3,24.3 13.42,0 24.3,-10.88 24.3,-24.3 z"
       style="fill:none;stroke:#000000;stroke-width:6.75;stroke-linecap:butt;stroke-linejoin:miter;stroke-miterlimit:10;stroke-dasharray:none;stroke-opacity:1"
       transform="matrix(0.13333333,0,0,-0.13333333,0,865.33333)" />
    <path
       id="path156"
       d="m 4385.7,1499.8 c 0,-13.42 -10.88,-24.3 -24.3,-24.3 -13.42,0 -24.3,10.88 -24.3,24.3 0,13.42 10.88,24.3 24.3,24.3 13.42,0 24.3,-10.88 24.3,-24.3"
       style="fill:#ffffff;fill-opacity:1;fill-rule:evenodd;stroke:none"
       transform="matrix(0.13333333,0,0,-0.13333333,0,865.33333)" />
    <path
       id="path157"
       d="m 4385.7,1499.8 c 0,-13.42 -10.88,-24.3 -24.3,-24.3 -13.42,0 -24.3,10.88 -24.3,24.3 0,13.42 10.88,24.3 24.3,24.3 13.42,0 24.3,-10.88 24.3,-24.3 z"
       style="fill:none;stroke:#000000;stroke-width:6.75;stroke-linecap:butt;stroke-linejoin:miter;stroke-miterlimit:10;stroke-dasharray:none;stroke-opacity:1"
       transform="matrix(0.13333333,0,0,-0.13333333,0,865.33333)" />
    <path
       id="path158"
       d="m 3802.05,1216.3 c 0,-13.42 -10.88,-24.3 -24.3,-24.3 -13.42,0 -24.3,10.88 -24.3,24.3 0,13.42 10.88,24.3 24.3,24.3 13.42,0 24.3,-10.88 24.3,-24.3"
       style="fill:#ffffff;fill-opacity:1;fill-rule:evenodd;stroke:none"
       transform="matrix(0.13333333,0,0,-0.13333333,0,865.33333)" />
    <path
       id="path159"
       d="m 3802.05,1216.3 c 0,-13.42 -10.88,-24.3 -24.3,-24.3 -13.42,0 -24.3,10.88 -24.3,24.3 0,13.42 10.88,24.3 24.3,24.3 13.42,0 24.3,-10.88 24.3,-24.3 z"
       style="fill:none;stroke:#000000;stroke-width:6.75;stroke-linecap:butt;stroke-linejoin:miter;stroke-miterlimit:10;stroke-dasharray:none;stroke-opacity:1"
       transform="matrix(0.13333333,0,0,-0.13333333,0,865.33333)" />
    <path
       id="path160"
       d="m 3163.95,1118.2 c 0,-13.42 -10.88,-24.3 -24.3,-24.3 -13.42,0 -24.3,10.88 -24.3,24.3 0,13.42 10.88,24.3 24.3,24.3 13.42,0 24.3,-10.88 24.3,-24.3"
       style="fill:#ffffff;fill-opacity:1;fill-rule:evenodd;stroke:none"
       transform="matrix(0.13333333,0,0,-0.13333333,0,865.33333)" />
    <path
       id="path161"
       d="m 3163.95,1118.2 c 0,-13.42 -10.88,-24.3 -24.3,-24.3 -13.42,0 -24.3,10.88 -24.3,24.3 0,13.42 10.88,24.3 24.3,24.3 13.42,0 24.3,-10.88 24.3,-24.3 z"
       style="fill:none;stroke:#000000;stroke-width:6.75;stroke-linecap:butt;stroke-linejoin:miter;stroke-miterlimit:10;stroke-dasharray:none;stroke-opacity:1"
       transform="matrix(0.13333333,0,0,-0.13333333,0,865.33333)" />
    <path
       id="path162"
       d="m 5040.45,4349.65 c 0,-13.42 -10.88,-24.3 -24.3,-24.3 -13.42,0 -24.3,10.88 -24.3,24.3 0,13.42 10.88,24.3 24.3,24.3 13.42,0 24.3,-10.88 24.3,-24.3"
       style="fill:#ffffff;fill-opacity:1;fill-rule:evenodd;stroke:none"
       transform="matrix(0.13333333,0,0,-0.13333333,0,865.33333)" />
    <path
       id="path163"
       d="m 5040.45,4349.65 c 0,-13.42 -10.88,-24.3 -24.3,-24.3 -13.42,0 -24.3,10.88 -24.3,24.3 0,13.42 10.88,24.3 24.3,24.3 13.42,0 24.3,-10.88 24.3,-24.3 z"
       style="fill:none;stroke:#000000;stroke-width:6.75;stroke-linecap:butt;stroke-linejoin:miter;stroke-miterlimit:10;stroke-dasharray:none;stroke-opacity:1"
       transform="matrix(0.13333333,0,0,-0.13333333,0,865.33333)" />
    <path
       id="path164"
       d="m 4635.45,4862.65 c 0,-13.42 -10.88,-24.3 -24.3,-24.3 -13.42,0 -24.3,10.88 -24.3,24.3 0,13.42 10.88,24.3 24.3,24.3 13.42,0 24.3,-10.88 24.3,-24.3"
       style="fill:#ffffff;fill-opacity:1;fill-rule:evenodd;stroke:none"
       transform="matrix(0.13333333,0,0,-0.13333333,0,865.33333)" />
    <path
       id="path165"
       d="m 4635.45,4862.65 c 0,-13.42 -10.88,-24.3 -24.3,-24.3 -13.42,0 -24.3,10.88 -24.3,24.3 0,13.42 10.88,24.3 24.3,24.3 13.42,0 24.3,-10.88 24.3,-24.3 z"
       style="fill:none;stroke:#000000;stroke-width:6.75;stroke-linecap:butt;stroke-linejoin:miter;stroke-miterlimit:10;stroke-dasharray:none;stroke-opacity:1"
       transform="matrix(0.13333333,0,0,-0.13333333,0,865.33333)" />
    <path
       id="path166"
       d="m 4105.8,5224.45 c 0,-13.42 -10.88,-24.3 -24.3,-24.3 -13.42,0 -24.3,10.88 -24.3,24.3 0,13.42 10.88,24.3 24.3,24.3 13.42,0 24.3,-10.88 24.3,-24.3"
       style="fill:#ffffff;fill-opacity:1;fill-rule:evenodd;stroke:none"
       transform="matrix(0.13333333,0,0,-0.13333333,0,865.33333)" />
    <path
       id="path167"
       d="m 4105.8,5224.45 c 0,-13.42 -10.88,-24.3 -24.3,-24.3 -13.42,0 -24.3,10.88 -24.3,24.3 0,13.42 10.88,24.3 24.3,24.3 13.42,0 24.3,-10.88 24.3,-24.3 z"
       style="fill:none;stroke:#000000;stroke-width:6.75;stroke-linecap:butt;stroke-linejoin:miter;stroke-miterlimit:10;stroke-dasharray:none;stroke-opacity:1"
       transform="matrix(0.13333333,0,0,-0.13333333,0,865.33333)" />
    <path
       id="path168"
       d="m 3487.95,5416.6 c 0,-13.42 -10.88,-24.3 -24.3,-24.3 -13.42,0 -24.3,10.88 -24.3,24.3 0,13.42 10.88,24.3 24.3,24.3 13.42,0 24.3,-10.88 24.3,-24.3"
       style="fill:#ffffff;fill-opacity:1;fill-rule:evenodd;stroke:none"
       transform="matrix(0.13333333,0,0,-0.13333333,0,865.33333)" />
    <path
       id="path169"
       d="m 3487.95,5416.6 c 0,-13.42 -10.88,-24.3 -24.3,-24.3 -13.42,0 -24.3,10.88 -24.3,24.3 0,13.42 10.88,24.3 24.3,24.3 13.42,0 24.3,-10.88 24.3,-24.3 z"
       style="fill:none;stroke:#000000;stroke-width:6.75;stroke-linecap:butt;stroke-linejoin:miter;stroke-miterlimit:10;stroke-dasharray:none;stroke-opacity:1"
       transform="matrix(0.13333333,0,0,-0.13333333,0,865.33333)" />
    <path
       id="path170"
       d="m 2843.55,5416.6 c 0,-13.42 -10.88,-24.3 -24.3,-24.3 -13.42,0 -24.3,10.88 -24.3,24.3 0,13.42 10.88,24.3 24.3,24.3 13.42,0 24.3,-10.88 24.3,-24.3"
       style="fill:#ffffff;fill-opacity:1;fill-rule:evenodd;stroke:none"
       transform="matrix(0.13333333,0,0,-0.13333333,0,865.33333)" />
    <path
       id="path171"
       d="m 2843.55,5416.6 c 0,-13.42 -10.88,-24.3 -24.3,-24.3 -13.42,0 -24.3,10.88 -24.3,24.3 0,13.42 10.88,24.3 24.3,24.3 13.42,0 24.3,-10.88 24.3,-24.3 z"
       style="fill:none;stroke:#000000;stroke-width:6.75;stroke-linecap:butt;stroke-linejoin:miter;stroke-miterlimit:10;stroke-dasharray:none;stroke-opacity:1"
       transform="matrix(0.13333333,0,0,-0.13333333,0,865.33333)" />
    <path
       id="path172"
       d="m 2225.25,5227.6 c 0,-13.42 -10.88,-24.3 -24.3,-24.3 -13.42,0 -24.3,10.88 -24.3,24.3 0,13.42 10.88,24.3 24.3,24.3 13.42,0 24.3,-10.88 24.3,-24.3"
       style="fill:#ffffff;fill-opacity:1;fill-rule:evenodd;stroke:none"
       transform="matrix(0.13333333,0,0,-0.13333333,0,865.33333)" />
    <path
       id="path173"
       d="m 2225.25,5227.6 c 0,-13.42 -10.88,-24.3 -24.3,-24.3 -13.42,0 -24.3,10.88 -24.3,24.3 0,13.42 10.88,24.3 24.3,24.3 13.42,0 24.3,-10.88 24.3,-24.3 z"
       style="fill:none;stroke:#000000;stroke-width:6.75;stroke-linecap:butt;stroke-linejoin:miter;stroke-miterlimit:10;stroke-dasharray:none;stroke-opacity:1"
       transform="matrix(0.13333333,0,0,-0.13333333,0,865.33333)" />
    <path
       id="path174"
       d="m 1692,4863.1 c 0,-13.42 -10.88,-24.3 -24.3,-24.3 -13.42,0 -24.3,10.88 -24.3,24.3 0,13.42 10.88,24.3 24.3,24.3 13.42,0 24.3,-10.88 24.3,-24.3"
       style="fill:#ffffff;fill-opacity:1;fill-rule:evenodd;stroke:none"
       transform="matrix(0.13333333,0,0,-0.13333333,0,865.33333)" />
    <path
       id="path175"
       d="m 1692,4863.1 c 0,-13.42 -10.88,-24.3 -24.3,-24.3 -13.42,0 -24.3,10.88 -24.3,24.3 0,13.42 10.88,24.3 24.3,24.3 13.42,0 24.3,-10.88 24.3,-24.3 z"
       style="fill:none;stroke:#000000;stroke-width:6.75;stroke-linecap:butt;stroke-linejoin:miter;stroke-miterlimit:10;stroke-dasharray:none;stroke-opacity:1"
       transform="matrix(0.13333333,0,0,-0.13333333,0,865.33333)" />
    <path
       id="path176"
       d="m 1293.75,4360.45 c 0,-13.42 -10.88,-24.3 -24.3,-24.3 -13.42,0 -24.3,10.88 -24.3,24.3 0,13.42 10.88,24.3 24.3,24.3 13.42,0 24.3,-10.88 24.3,-24.3"
       style="fill:#ffffff;fill-opacity:1;fill-rule:evenodd;stroke:none"
       transform="matrix(0.13333333,0,0,-0.13333333,0,865.33333)" />
    <path
       id="path177"
       d="m 1293.75,4360.45 c 0,-13.42 -10.88,-24.3 -24.3,-24.3 -13.42,0 -24.3,10.88 -24.3,24.3 0,13.42 10.88,24.3 24.3,24.3 13.42,0 24.3,-10.88 24.3,-24.3 z"
       style="fill:none;stroke:#000000;stroke-width:6.75;stroke-linecap:butt;stroke-linejoin:miter;stroke-miterlimit:10;stroke-dasharray:none;stroke-opacity:1"
       transform="matrix(0.13333333,0,0,-0.13333333,0,865.33333)" />
    <path
       id="path178"
       d="m 1057.5,3759.7 c 0,-13.42 -10.88,-24.3 -24.3,-24.3 -13.42,0 -24.3,10.88 -24.3,24.3 0,13.42 10.88,24.3 24.3,24.3 13.42,0 24.3,-10.88 24.3,-24.3"
       style="fill:#ffffff;fill-opacity:1;fill-rule:evenodd;stroke:none"
       transform="matrix(0.13333333,0,0,-0.13333333,0,865.33333)" />
    <path
       id="path179"
       d="m 1057.5,3759.7 c 0,-13.42 -10.88,-24.3 -24.3,-24.3 -13.42,0 -24.3,10.88 -24.3,24.3 0,13.42 10.88,24.3 24.3,24.3 13.42,0 24.3,-10.88 24.3,-24.3 z"
       style="fill:none;stroke:#000000;stroke-width:6.75;stroke-linecap:butt;stroke-linejoin:miter;stroke-miterlimit:10;stroke-dasharray:none;stroke-opacity:1"
       transform="matrix(0.13333333,0,0,-0.13333333,0,865.33333)" />
    <path
       id="path180"
       d="m 1013.4,3114.4 c 0,-13.42 -10.88,-24.3 -24.298,-24.3 -13.418,0 -24.301,10.88 -24.301,24.3 0,13.42 10.883,24.3 24.301,24.3 13.418,0 24.298,-10.88 24.298,-24.3"
       style="fill:#ffffff;fill-opacity:1;fill-rule:evenodd;stroke:none"
       transform="matrix(0.13333333,0,0,-0.13333333,0,865.33333)" />
    <path
       id="path181"
       d="m 1013.4,3114.4 c 0,-13.42 -10.88,-24.3 -24.298,-24.3 -13.418,0 -24.301,10.88 -24.301,24.3 0,13.42 10.883,24.3 24.301,24.3 13.418,0 24.298,-10.88 24.298,-24.3 z"
       style="fill:none;stroke:#000000;stroke-width:6.75;stroke-linecap:butt;stroke-linejoin:miter;stroke-miterlimit:10;stroke-dasharray:none;stroke-opacity:1"
       transform="matrix(0.13333333,0,0,-0.13333333,0,865.33333)" />
    <path
       id="path182"
       d="m 1155.15,2489.8 c 0,-13.42 -10.88,-24.3 -24.3,-24.3 -13.42,0 -24.3,10.88 -24.3,24.3 0,13.42 10.88,24.3 24.3,24.3 13.42,0 24.3,-10.88 24.3,-24.3"
       style="fill:#ffffff;fill-opacity:1;fill-rule:evenodd;stroke:none"
       transform="matrix(0.13333333,0,0,-0.13333333,0,865.33333)" />
    <path
       id="path183"
       d="m 1155.15,2489.8 c 0,-13.42 -10.88,-24.3 -24.3,-24.3 -13.42,0 -24.3,10.88 -24.3,24.3 0,13.42 10.88,24.3 24.3,24.3 13.42,0 24.3,-10.88 24.3,-24.3 z"
       style="fill:none;stroke:#000000;stroke-width:6.75;stroke-linecap:butt;stroke-linejoin:miter;stroke-miterlimit:10;stroke-dasharray:none;stroke-opacity:1"
       transform="matrix(0.13333333,0,0,-0.13333333,0,865.33333)" />
    <path
       id="path184"
       d="m 2532.15,1214.5 c 0,-13.42 -10.88,-24.3 -24.3,-24.3 -13.42,0 -24.3,10.88 -24.3,24.3 0,13.42 10.88,24.3 24.3,24.3 13.42,0 24.3,-10.88 24.3,-24.3"
       style="fill:#ffffff;fill-opacity:1;fill-rule:evenodd;stroke:none"
       transform="matrix(0.13333333,0,0,-0.13333333,0,865.33333)" />
    <path
       id="path185"
       d="m 2532.15,1214.5 c 0,-13.42 -10.88,-24.3 -24.3,-24.3 -13.42,0 -24.3,10.88 -24.3,24.3 0,13.42 10.88,24.3 24.3,24.3 13.42,0 24.3,-10.88 24.3,-24.3 z"
       style="fill:none;stroke:#000000;stroke-width:6.75;stroke-linecap:butt;stroke-linejoin:miter;stroke-miterlimit:10;stroke-dasharray:none;stroke-opacity:1"
       transform="matrix(0.13333333,0,0,-0.13333333,0,865.33333)" />
    <path
       id="path186"
       d="m 1951.65,1494.4 c 0,-13.42 -10.88,-24.3 -24.3,-24.3 -13.42,0 -24.3,10.88 -24.3,24.3 0,13.42 10.88,24.3 24.3,24.3 13.42,0 24.3,-10.88 24.3,-24.3"
       style="fill:#ffffff;fill-opacity:1;fill-rule:evenodd;stroke:none"
       transform="matrix(0.13333333,0,0,-0.13333333,0,865.33333)" />
    <path
       id="path187"
       d="m 1951.65,1494.4 c 0,-13.42 -10.88,-24.3 -24.3,-24.3 -13.42,0 -24.3,10.88 -24.3,24.3 0,13.42 10.88,24.3 24.3,24.3 13.42,0 24.3,-10.88 24.3,-24.3 z"
       style="fill:none;stroke:#000000;stroke-width:6.75;stroke-linecap:butt;stroke-linejoin:miter;stroke-miterlimit:10;stroke-dasharray:none;stroke-opacity:1"
       transform="matrix(0.13333333,0,0,-0.13333333,0,865.33333)" />
    <path
       id="path188"
       d="m 4855.05,1935.4 c 0,-13.42 -10.88,-24.3 -24.3,-24.3 -13.42,0 -24.3,10.88 -24.3,24.3 0,13.42 10.88,24.3 24.3,24.3 13.42,0 24.3,-10.88 24.3,-24.3"
       style="fill:#ffffff;fill-opacity:1;fill-rule:evenodd;stroke:none"
       transform="matrix(0.13333333,0,0,-0.13333333,0,865.33333)" />
    <path
       id="path189"
       d="m 4855.05,1935.4 c 0,-13.42 -10.88,-24.3 -24.3,-24.3 -13.42,0 -24.3,10.88 -24.3,24.3 0,13.42 10.88,24.3 24.3,24.3 13.42,0 24.3,-10.88 24.3,-24.3 z"
       style="fill:none;stroke:#000000;stroke-width:6.75;stroke-linecap:butt;stroke-linejoin:miter;stroke-miterlimit:10;stroke-dasharray:none;stroke-opacity:1"
       transform="matrix(0.13333333,0,0,-0.13333333,0,865.33333)" />
  </g>
</svg>
