<?xml version="1.0" encoding="UTF-8" standalone="no"?>
<!-- Created with Inkscape (http://www.inkscape.org/) -->

<svg
   version="1.1"
   id="svg1"
   width="621.33331"
   height="642.66669"
   viewBox="0 0 621.33331 642.66669"
   sodipodi:docname="shor.svg"
   inkscape:version="1.3.2 (091e20e, 2023-11-25, custom)"
   xmlns:inkscape="http://www.inkscape.org/namespaces/inkscape"
   xmlns:sodipodi="http://sodipodi.sourceforge.net/DTD/sodipodi-0.dtd"
   xmlns="http://www.w3.org/2000/svg"
   xmlns:svg="http://www.w3.org/2000/svg">
  <defs
     id="defs1" />
  <sodipodi:namedview
     id="namedview1"
     pagecolor="#ffffff"
     bordercolor="#999999"
     borderopacity="1"
     inkscape:showpageshadow="2"
     inkscape:pageopacity="0"
     inkscape:pagecheckerboard="0"
     inkscape:deskcolor="#d1d1d1"
     inkscape:zoom="2.1488589"
     inkscape:cx="310.86266"
     inkscape:cy="321.33334"
     inkscape:window-width="3840"
     inkscape:window-height="1577"
     inkscape:window-x="-8"
     inkscape:window-y="-8"
     inkscape:window-maximized="1"
     inkscape:current-layer="g1">
    <inkscape:page
       x="0"
       y="0"
       inkscape:label="1"
       id="page1"
       width="621.33331"
       height="642.66669"
       margin="0"
       bleed="0" />
  </sodipodi:namedview>
  <g
     id="g1"
     inkscape:groupmode="layer"
     inkscape:label="1">
    <path
       id="path1"
       d="m 199.4013,613.73855 c 38.024,15.84271 78.808,24 120,24 41.19199,0 81.97599,-8.15729 119.99999,-24"
       style="fill:none;stroke:#ff0000;stroke-width:4.8;stroke-linecap:butt;stroke-linejoin:miter;stroke-miterlimit:10;stroke-dasharray:none;stroke-opacity:1" />
    <path
       id="path2"
       d="m 201.06666,609.13464 c 38.024,15.84267 78.808,24 120,24 41.192,0 81.976,-8.15733 120,-24"
       style="fill:none;stroke:#00ff00;stroke-width:4.8;stroke-linecap:butt;stroke-linejoin:miter;stroke-miterlimit:10;stroke-dasharray:none;stroke-opacity:1" />
    <path
       id="path3"
       d="M 4567.99,1508 C 4347.28,927.297 3888.7,468.723 3308,248.012"
       style="fill:none;stroke:#ff0000;stroke-width:36;stroke-linecap:butt;stroke-linejoin:miter;stroke-miterlimit:10;stroke-dasharray:none;stroke-opacity:1"
       transform="matrix(0.13333333,0,0,-0.13333333,0,642.66667)" />
    <path
       id="path4"
       d="M 200.13594,28.996109 C 238.15993,13.153442 278.94393,4.9961091 320.13593,4.9961091 c 41.192,0 81.976,8.1573329 120,23.9999999"
       style="fill:none;stroke:#00ff00;stroke-width:4.8;stroke-linecap:butt;stroke-linejoin:miter;stroke-miterlimit:10;stroke-dasharray:none;stroke-opacity:1" />
    <path
       id="path5"
       d="m 252.199,3307.4 c -118.82,-285.17 -179.9998,-591.06 -179.9998,-900 0,-308.94 61.1798,-614.83 179.9998,-900"
       style="fill:none;stroke:#00ff00;stroke-width:36;stroke-linecap:butt;stroke-linejoin:miter;stroke-miterlimit:10;stroke-dasharray:none;stroke-opacity:1"
       transform="matrix(0.13333333,0,0,-0.13333333,0,642.66667)" />
    <path
       id="path6"
       d="m 28.462756,201.12001 c -15.842706,38.02267 -23.9999996,78.808 -23.9999996,120 0,41.192 8.1572936,81.97733 23.9999996,120"
       style="fill:none;stroke:#0000ff;stroke-width:4.8;stroke-linecap:butt;stroke-linejoin:miter;stroke-miterlimit:10;stroke-dasharray:none;stroke-opacity:1" />
    <path
       id="path7"
       d="M 37.474486,439.5438 C 68.111419,516.18153 127.43879,576.90553 204.07706,607.54246"
       style="fill:none;stroke:#00ff00;stroke-width:4.8;stroke-linecap:butt;stroke-linejoin:miter;stroke-miterlimit:10;stroke-dasharray:none;stroke-opacity:1"
       sodipodi:nodetypes="cc" />
    <path
       id="path8"
       d="M 29.460933,445.80792 C 58.479732,523.84085 120.00413,585.39405 198.02266,614.45031"
       style="fill:none;stroke:#ff0000;stroke-width:4.8;stroke-linecap:butt;stroke-linejoin:miter;stroke-miterlimit:10;stroke-dasharray:none;stroke-opacity:1" />
    <path
       id="path9"
       d="m 445.17593,30.450745 c 74.23466,34.185333 133.816,93.765335 167.99999,167.999995"
       style="fill:none;stroke:#0000ff;stroke-width:4.8;stroke-linecap:butt;stroke-linejoin:miter;stroke-miterlimit:10;stroke-dasharray:none;stroke-opacity:1" />
    <path
       id="path10"
       d="M 33.668443,441.63992 C 62.058042,520.18258 123.46751,582.32325 201.66791,611.64031"
       style="fill:none;stroke:#0000ff;stroke-width:4.8;stroke-linecap:butt;stroke-linejoin:miter;stroke-miterlimit:10;stroke-dasharray:none;stroke-opacity:1" />
    <path
       id="path11"
       d="M 198.3613,35.542625 C 124.9633,70.753291 66.042502,130.32396 31.639836,204.10529"
       style="fill:none;stroke:#0000ff;stroke-width:4.8;stroke-linecap:butt;stroke-linejoin:miter;stroke-miterlimit:10;stroke-dasharray:none;stroke-opacity:1" />
    <path
       id="path12"
       d="M 1496.03,4586.55 C 934.887,4339.66 484.535,3894.44 231.246,3336.16"
       style="fill:none;stroke:#ff0000;stroke-width:36;stroke-linecap:butt;stroke-linejoin:miter;stroke-miterlimit:10;stroke-dasharray:none;stroke-opacity:1"
       transform="matrix(0.13333333,0,0,-0.13333333,0,642.66667)" />
    <path
       id="path13"
       d="M 4527.2,1503.8 3267.2,243.801"
       style="fill:none;stroke:#0000ff;stroke-width:36;stroke-linecap:butt;stroke-linejoin:miter;stroke-miterlimit:10;stroke-dasharray:none;stroke-opacity:1"
       transform="matrix(0.13333333,0,0,-0.13333333,0,642.66667)" />
    <path
       id="path14"
       d="M 4581.2,1503.8 3321.2,243.801"
       style="fill:none;stroke:#00ff00;stroke-width:36;stroke-linecap:butt;stroke-linejoin:miter;stroke-miterlimit:10;stroke-dasharray:none;stroke-opacity:1"
       transform="matrix(0.13333333,0,0,-0.13333333,0,642.66667)" />
    <path
       id="path15"
       d="m 266,3303.8 v -1800"
       style="fill:none;stroke:#ff0000;stroke-width:36;stroke-linecap:butt;stroke-linejoin:miter;stroke-miterlimit:10;stroke-dasharray:none;stroke-opacity:1"
       transform="matrix(0.13333333,0,0,-0.13333333,0,642.66667)" />
    <path
       id="path16"
       d="m 615.01592,202.24001 v 240"
       style="fill:none;stroke:#00ff00;stroke-width:4.8;stroke-linecap:butt;stroke-linejoin:miter;stroke-miterlimit:10;stroke-dasharray:none;stroke-opacity:1" />
    <path
       id="path17"
       d="M 4574.6,3308 V 1508"
       style="fill:none;stroke:#ff0000;stroke-width:36;stroke-linecap:butt;stroke-linejoin:miter;stroke-miterlimit:10;stroke-dasharray:none;stroke-opacity:1"
       transform="matrix(0.13333333,0,0,-0.13333333,0,642.66667)" />
    <path
       id="path18"
       d="m 3320,4583.6 1260,-1260"
       style="fill:none;stroke:#ff0000;stroke-width:36;stroke-linecap:butt;stroke-linejoin:miter;stroke-miterlimit:10;stroke-dasharray:none;stroke-opacity:1"
       transform="matrix(0.13333333,0,0,-0.13333333,0,642.66667)" />
    <path
       id="path19"
       d="m 3298.4,4542.2 1260,-1260"
       style="fill:none;stroke:#00ff00;stroke-width:36;stroke-linecap:butt;stroke-linejoin:miter;stroke-miterlimit:10;stroke-dasharray:none;stroke-opacity:1"
       transform="matrix(0.13333333,0,0,-0.13333333,0,642.66667)" />
    <path
       id="path20"
       d="M 1528.4,4556.6 268.398,3296.6"
       style="fill:none;stroke:#00ff00;stroke-width:36;stroke-linecap:butt;stroke-linejoin:miter;stroke-miterlimit:10;stroke-dasharray:none;stroke-opacity:1"
       transform="matrix(0.13333333,0,0,-0.13333333,0,642.66667)" />
    <path
       id="path21"
       d="m 605.19738,200.40001 v 240"
       style="fill:none;stroke:#0000ff;stroke-width:4.8;stroke-linecap:butt;stroke-linejoin:miter;stroke-miterlimit:10;stroke-dasharray:none;stroke-opacity:1" />
    <path
       id="path22"
       d="m 201.06666,36.269292 h 240"
       style="fill:none;stroke:#0000ff;stroke-width:4.8;stroke-linecap:butt;stroke-linejoin:miter;stroke-miterlimit:10;stroke-dasharray:none;stroke-opacity:1" />
    <path
       id="path23"
       d="M 1508,4586 H 3308"
       style="fill:none;stroke:#ff0000;stroke-width:36;stroke-linecap:butt;stroke-linejoin:miter;stroke-miterlimit:10;stroke-dasharray:none;stroke-opacity:1"
       transform="matrix(0.13333333,0,0,-0.13333333,0,642.66667)" />
    <path
       id="path24"
       d="M 3317,257 H 1517"
       style="fill:none;stroke:#0000ff;stroke-width:36;stroke-linecap:butt;stroke-linejoin:miter;stroke-miterlimit:10;stroke-dasharray:none;stroke-opacity:1"
       transform="matrix(0.13333333,0,0,-0.13333333,0,642.66667)" />
    <path
       id="path25"
       d="m 1553,4568 c 0,-24.85 -20.15,-45 -45,-45 -24.85,0 -45,20.15 -45,45 0,24.85 20.15,45 45,45 24.85,0 45,-20.15 45,-45"
       style="fill:#000000;fill-opacity:1;fill-rule:evenodd;stroke:none"
       transform="matrix(0.13333333,0,0,-0.13333333,0,642.66667)" />
    <path
       id="path26"
       d="m 1553,4568 c 0,-24.85 -20.15,-45 -45,-45 -24.85,0 -45,20.15 -45,45 0,24.85 20.15,45 45,45 24.85,0 45,-20.15 45,-45 z"
       style="fill:none;stroke:#000000;stroke-width:18;stroke-linecap:butt;stroke-linejoin:miter;stroke-miterlimit:10;stroke-dasharray:none;stroke-opacity:1"
       transform="matrix(0.13333333,0,0,-0.13333333,0,642.66667)" />
    <path
       id="path27"
       d="m 4613,3308 c 0,-24.85 -20.15,-45 -45,-45 -24.85,0 -45,20.15 -45,45 0,24.85 20.15,45 45,45 24.85,0 45,-20.15 45,-45"
       style="fill:#000000;fill-opacity:1;fill-rule:evenodd;stroke:none"
       transform="matrix(0.13333333,0,0,-0.13333333,0,642.66667)" />
    <path
       id="path28"
       d="m 4613,3308 c 0,-24.85 -20.15,-45 -45,-45 -24.85,0 -45,20.15 -45,45 0,24.85 20.15,45 45,45 24.85,0 45,-20.15 45,-45 z"
       style="fill:none;stroke:#000000;stroke-width:18;stroke-linecap:butt;stroke-linejoin:miter;stroke-miterlimit:10;stroke-dasharray:none;stroke-opacity:1"
       transform="matrix(0.13333333,0,0,-0.13333333,0,642.66667)" />
    <path
       id="path29"
       d="m 3353,4568 c 0,-24.85 -20.15,-45 -45,-45 -24.85,0 -45,20.15 -45,45 0,24.85 20.15,45 45,45 24.85,0 45,-20.15 45,-45"
       style="fill:#000000;fill-opacity:1;fill-rule:evenodd;stroke:none"
       transform="matrix(0.13333333,0,0,-0.13333333,0,642.66667)" />
    <path
       id="path30"
       d="m 3353,4568 c 0,-24.85 -20.15,-45 -45,-45 -24.85,0 -45,20.15 -45,45 0,24.85 20.15,45 45,45 24.85,0 45,-20.15 45,-45 z"
       style="fill:none;stroke:#000000;stroke-width:18;stroke-linecap:butt;stroke-linejoin:miter;stroke-miterlimit:10;stroke-dasharray:none;stroke-opacity:1"
       transform="matrix(0.13333333,0,0,-0.13333333,0,642.66667)" />
    <path
       id="path31"
       d="m 3353,248 c 0,-24.852 -20.15,-45 -45,-45 -24.85,0 -45,20.148 -45,45 0,24.852 20.15,45 45,45 24.85,0 45,-20.148 45,-45"
       style="fill:#000000;fill-opacity:1;fill-rule:evenodd;stroke:none"
       transform="matrix(0.13333333,0,0,-0.13333333,0,642.66667)" />
    <path
       id="path32"
       d="m 3353,248 c 0,-24.852 -20.15,-45 -45,-45 -24.85,0 -45,20.148 -45,45 0,24.852 20.15,45 45,45 24.85,0 45,-20.148 45,-45 z"
       style="fill:none;stroke:#000000;stroke-width:18;stroke-linecap:butt;stroke-linejoin:miter;stroke-miterlimit:10;stroke-dasharray:none;stroke-opacity:1"
       transform="matrix(0.13333333,0,0,-0.13333333,0,642.66667)" />
    <path
       id="path33"
       d="m 1553,248 c 0,-24.852 -20.15,-45 -45,-45 -24.85,0 -45,20.148 -45,45 0,24.852 20.15,45 45,45 24.85,0 45,-20.148 45,-45"
       style="fill:#000000;fill-opacity:1;fill-rule:evenodd;stroke:none"
       transform="matrix(0.13333333,0,0,-0.13333333,0,642.66667)" />
    <path
       id="path34"
       d="m 1553,248 c 0,-24.852 -20.15,-45 -45,-45 -24.85,0 -45,20.148 -45,45 0,24.852 20.15,45 45,45 24.85,0 45,-20.148 45,-45 z"
       style="fill:none;stroke:#000000;stroke-width:18;stroke-linecap:butt;stroke-linejoin:miter;stroke-miterlimit:10;stroke-dasharray:none;stroke-opacity:1"
       transform="matrix(0.13333333,0,0,-0.13333333,0,642.66667)" />
    <path
       id="path35"
       d="m 293,1508 c 0,-24.85 -20.148,-45 -45,-45 -24.852,0 -45,20.15 -45,45 0,24.85 20.148,45 45,45 24.852,0 45,-20.15 45,-45"
       style="fill:#000000;fill-opacity:1;fill-rule:evenodd;stroke:none"
       transform="matrix(0.13333333,0,0,-0.13333333,0,642.66667)" />
    <path
       id="path36"
       d="m 293,1508 c 0,-24.85 -20.148,-45 -45,-45 -24.852,0 -45,20.15 -45,45 0,24.85 20.148,45 45,45 24.852,0 45,-20.15 45,-45 z"
       style="fill:none;stroke:#000000;stroke-width:18;stroke-linecap:butt;stroke-linejoin:miter;stroke-miterlimit:10;stroke-dasharray:none;stroke-opacity:1"
       transform="matrix(0.13333333,0,0,-0.13333333,0,642.66667)" />
    <path
       id="path37"
       d="m 293,3308 c 0,-24.85 -20.148,-45 -45,-45 -24.852,0 -45,20.15 -45,45 0,24.85 20.148,45 45,45 24.852,0 45,-20.15 45,-45"
       style="fill:#000000;fill-opacity:1;fill-rule:evenodd;stroke:none"
       transform="matrix(0.13333333,0,0,-0.13333333,0,642.66667)" />
    <path
       id="path38"
       d="m 293,3308 c 0,-24.85 -20.148,-45 -45,-45 -24.852,0 -45,20.15 -45,45 0,24.85 20.148,45 45,45 24.852,0 45,-20.15 45,-45 z"
       style="fill:none;stroke:#000000;stroke-width:18;stroke-linecap:butt;stroke-linejoin:miter;stroke-miterlimit:10;stroke-dasharray:none;stroke-opacity:1"
       transform="matrix(0.13333333,0,0,-0.13333333,0,642.66667)" />
    <path
       id="path39"
       d="m 4613,1508 c 0,-24.85 -20.15,-45 -45,-45 -24.85,0 -45,20.15 -45,45 0,24.85 20.15,45 45,45 24.85,0 45,-20.15 45,-45"
       style="fill:#000000;fill-opacity:1;fill-rule:evenodd;stroke:none"
       transform="matrix(0.13333333,0,0,-0.13333333,0,642.66667)" />
    <path
       id="path40"
       d="m 4613,1508 c 0,-24.85 -20.15,-45 -45,-45 -24.85,0 -45,20.15 -45,45 0,24.85 20.15,45 45,45 24.85,0 45,-20.15 45,-45 z"
       style="fill:none;stroke:#000000;stroke-width:18;stroke-linecap:butt;stroke-linejoin:miter;stroke-miterlimit:10;stroke-dasharray:none;stroke-opacity:1"
       transform="matrix(0.13333333,0,0,-0.13333333,0,642.66667)" />
  </g>
</svg>
