<?xml version="1.0" encoding="UTF-8" standalone="no"?>
<!-- Created with Inkscape (http://www.inkscape.org/) -->

<svg
   version="1.1"
   id="svg1"
   width="624"
   height="620"
   viewBox="0 0 624 620"
   sodipodi:docname="SixVenn_00210.svg"
   inkscape:version="1.3.2 (091e20e, 2023-11-25, custom)"
   xmlns:inkscape="http://www.inkscape.org/namespaces/inkscape"
   xmlns:sodipodi="http://sodipodi.sourceforge.net/DTD/sodipodi-0.dtd"
   xmlns="http://www.w3.org/2000/svg"
   xmlns:svg="http://www.w3.org/2000/svg">
  <defs
     id="defs1" />
  <sodipodi:namedview
     id="namedview1"
     pagecolor="#ffffff"
     bordercolor="#000000"
     borderopacity="0.25"
     inkscape:showpageshadow="2"
     inkscape:pageopacity="0.0"
     inkscape:pagecheckerboard="0"
     inkscape:deskcolor="#d1d1d1"
     inkscape:zoom="2.2274194"
     inkscape:cx="311.7958"
     inkscape:cy="310"
     inkscape:window-width="3840"
     inkscape:window-height="1577"
     inkscape:window-x="-8"
     inkscape:window-y="-8"
     inkscape:window-maximized="1"
     inkscape:current-layer="g1">
    <inkscape:page
       x="0"
       y="0"
       inkscape:label="1"
       id="page1"
       width="624"
       height="620"
       margin="0"
       bleed="0" />
  </sodipodi:namedview>
  <g
     id="g1"
     inkscape:groupmode="layer"
     inkscape:label="1">
    <path
       id="path1"
       d="m 3013.2,897.996 -8.4,-12.601 -8.4,-12.598 -7.79,-13.199 -8.41,-12.602 -8.4,-12.601 -8.4,-12.598 -8.4,-13.199 -8.39,-12.602 -8.41,-12.601 -8.4,-13.2 -9,-12.597 -8.4,-12.602 -8.4,-12.601 -8.39,-12.598 -8.41,-12 -8.4,-12 -8.4,-11.402 -8.4,-10.797 -7.8,-10.801 -7.8,-10.801 -7.79,-10.199 -7.81,-10.199 -7.8,-9.602 -7.8,-9.601 -7.8,-9.598 -7.79,-10.199 -8.41,-9.602 -8.4,-9.601 -9.6,-10.2 -9,-10.199 -10.2,-10.199 -10.2,-10.801 -10.8,-10.199 -11.39,-10.801 -12,-10.801 -12.61,-10.8 -12.6,-10.2 -13.2,-10.8 -13.2,-10.2 -13.8,-9.597 -14.4,-10.203 -13.8,-9 -15,-9.598 -14.39,-9 -15.61,-8.402 -15,-8.399 -16.2,-8.398 -16.19,-7.801 -13.21,-6.602 -13.79,-6.597 -14.41,-6 -15,-6.602 -15.59,-6 -15.61,-6.601 -16.8,-6 -16.8,-6.598 -17.4,-6.602 -18,-6 -18.6,-6.597 -18.6,-6 -19.19,-6.602 -19.21,-6 -19.79,-6 -19.21,-6 -19.2,-5.398 -19.8,-6 -19.2,-5.403 -19.2,-4.8 -18.6,-5.399 -18,-4.801 -18,-4.199 -18,-4.801 -16.79,-4.199 -16.81,-3.601 -16.19,-4.2 -16.21,-3 -15.6,-3.597 -15,-3.602 -18.6,-3.601 -18,-3.598 -18.59,-3.602 -18,-3 -18,-3 -18,-3 -18,-3 -18,-2.398 -18,-2.402 -18,-1.797 -18,-2.403 -17.41,-1.8 -17.4,-1.2 -17.4,-1.8 -16.79,-1.2 -16.21,-0.597 -16.2,-0.602 -15,-0.601 -15.59,-0.598 h -56.41 l -13.8,0.598 h -13.79 l -13.81,0.601 -14.4,1.199 -14.4,0.602 -14.39,1.199 -15,1.199 -15,1.2 -15.61,1.8 -15.6,1.801 -16.2,1.801 -15.59,1.801 -16.21,2.398 -16.2,2.399 -16.2,2.402 -15.6,2.398 -15.6,3 -15.6,3 -15,3 -15,3 -14.4,3 -13.8,3 -13.8,3.602 -13.8,3.598 -13.79,3 -13.21,4.203 -13.79,3.597 -13.81,4.2 -13.8,4.203 -14.39,4.199 -14.41,4.801 -14.4,4.797 -15,5.402 -15,5.398 -15.6,6 -15,6 -15.59,6 -15,6 -15,6.602 -15,6.598 -14.41,6.601 -14.395,6.602 -14.403,6.597 -13.797,6.602 -13.203,6.598 -13.199,6.601 -12.598,7.199 -12.601,6.602 -12,6.598 -12.602,7.203 -12,7.199 -12.597,7.199 -12,7.801 -13.2,8.398 -12.601,8.403 -13.199,8.398 -12.602,9 -13.199,9 -13.801,9.602 -13.199,10.199 -13.199,9.598 -13.2,10.203 -12.601,10.199 -13.199,10.199 -12.602,10.199 -12,10.2 -12,10.203 -11.398,10.199 -10.801,10.199 -10.801,9.602 -10.801,10.199 -10.199,10.199 -10.199,9.602 -9.602,10.199 -10.199,10.199 -10.199,10.801 -9.602,10.801 -10.199,10.797 -10.199,11.402 -10.199,12 -10.2,12 -10.203,12.598 -10.199,13.203 -10.199,12.597 -10.199,13.2 -9.602,13.203 -10.199,13.199 -9.602,13.801 -9,13.199 -9,12.598 -8.398,13.203 -8.399,12.597 -8.402,13.2 -7.801,12 -7.199,12.601 -7.199,12 -7.199,12.602 -6.602,12 -6.598,12.597 -7.203,12.602 -6.597,13.199 -6.602,13.199 -6.598,13.801 -6.601,14.399 -6.602,14.402 -6.597,14.403 -6.602,15 -6.598,15 -6,15 -6,15.6 -6,15 -6,15.59 -5.402,15 -5.398,15 -4.801,14.41 -4.801,14.4 -4.199,14.4 -4.199,13.79 -4.2,13.81 -3.601,13.8 -3.602,13.2 -3.597,13.8 -3.602,13.8 -3.598,13.8 -3,13.79 -3,14.41 -3,15 -3,15 -3,15.59 -3,15.61 -2.402,15.6 -2.398,16.2 -2.403,16.2 -2.398,16.2 -1.801,15.6 -1.801,16.2 -1.797,15.6 -1.8,15.6 -1.2,15 -1.203,15 -1.199,14.4 -0.598,14.4 -1.203,14.39 -0.597,13.81 v 13.8 l -0.602,13.8 v 56.4 l 0.602,15.6 0.597,15 0.602,16.2 0.601,16.2 1.2,16.8 1.8,17.39 1.2,17.41 1.8,17.4 2.399,18 1.801,18 2.398,18 2.402,18 3,18 3,18 3,18 3,18 3.598,18.6 3.602,18 4.199,18.59 3,15 3.601,15.61 3,16.2 4.2,16.19 3.597,16.81 4.203,16.8 4.797,18 4.203,18 4.797,18 5.403,18.6 4.8,19.2 5.399,19.2 6,19.8 5.398,19.2 6,19.2 6,19.8 6,19.2 6.602,19.19 6,18.61 6.601,18.6 6,18 6.598,17.4 6.602,16.8 6,16.8 6.597,15.6 6,15.6 6.602,15 6,14.4 6.601,13.8 6.598,13.2 7.801,16.19 8.398,16.21 8.403,15 8.398,15.6 9,14.4 9.602,15 9,13.79 10.199,14.41 9.601,13.8 10.2,13.2 10.8,13.2 10.2,12.6 10.8,12.6 10.797,12 10.801,11.4 10.199,10.79 10.801,10.21 10.199,10.2 10.203,9 10.2,9.59 9.597,8.41 9.602,8.4 10.199,7.8 9.602,7.8 11.398,9.59 12,9 12,9.61 12,9 12.602,9 12.597,9.6 13.203,9 12.598,9.6 13.199,9 12.602,8.4 12.601,9 12,8.4 11.399,7.8 11.398,7.2 10.203,7.2 10.2,6.6 9.597,6 8.403,6 7.8,5.4 7.797,4.8 11.403,7.8 10.8,6.59 9.598,7.21 9,6 8.402,6 7.797,4.79 6.602,5.41 6,4.2 5.398,3.6 4.801,3.6 4.199,3.6 3.602,3 4.801,3.59 4.8,4.21 5.399,3.6 5.398,4.19 5.403,4.81 5.398,4.19 4.801,4.21 4.801,3.6 4.8,4.19 4.795,3.61 4.21,3.6 4.19,4.2 4.81,4.2 4.79,4.2 4.8,4.19 4.8,4.81 4.8,4.19 4.2,4.21 4.2,4.2 3.6,3.59 4.81,5.41 4.79,4.8 4.8,6 5.41,6 4.79,6 4.8,6 4.2,5.4 4.21,5.39 4.19,6 3.6,6 4.21,6 4.79,6.61 3.6,7.2 4.2,6.6 3.6,6 3,6 3,4.8 2.4,5.4 2.41,5.39 3,6 3,5.41 2.39,6 3,6 2.4,5.4 1.8,6 2.41,4.8 2.39,5.39 2.4,6 1.8,5.41 2.41,6.59 2.39,6 2.4,6.61 2.4,6.6 2.4,6 2.41,5.4 1.79,6 1.8,4.8 1.8,4.8 1.8,5.4 2.4,6.6 1.8,7.2 3,7.8 2.4,9 3,9.6 3.6,10.19 3,11.41 3.61,12.59 3.59,13.21 3,9.6 2.41,10.8 3.59,10.8 3,12 3.6,13.2 3.6,13.2 3.6,13.8 4.2,14.39 4.2,14.41 3.6,14.4 4.2,14.4 4.2,13.79 3.6,13.21 4.2,12.6 3.6,12 3,11.4 3.6,10.2 3,9.59 4.8,13.81 4.2,12 4.21,11.4 4.19,10.2 4.81,9.59 4.19,9 4.2,7.81 3.61,7.19 3.59,6 3.6,5.41 3.6,4.8 3.6,4.79 3.61,5.41 4.19,5.4 4.81,6 4.79,6 4.8,6 4.8,6.6 5.4,5.4 4.8,6 4.2,4.8 4.8,4.8 4.8,5.4 4.8,4.8 4.81,4.8 5.39,5.4 6,5.4 5.4,4.79 5.4,5.41 6,4.2 4.81,4.2 5.39,4.19 5.4,4.21 5.4,3.6 6,4.19 6,4.21 6.6,4.2 6,4.2 6.6,3.6 6,3.6 6,3.6 6,3 6,3 6,2.4 6.61,3 6.59,3 7.2,3 7.21,3 6.59,2.4 7.2,2.4 6.6,1.8 6,1.8 6.61,1.79 6.59,1.81 6.6,1.8 7.81,1.8 7.19,1.8 7.81,1.2 7.19,1.2 7.2,1.2 7.2,1.19 6.6,0.61 6.6,0.6 7.21,1.2 7.19,0.59 7.81,0.61 h 7.79 l 7.8,0.6 7.8,0.6 h 49.8 l 7.81,-0.6 h 8.39 l 7.2,-0.6 7.8,-0.61 h 7.2 l 6.6,-0.59 6.6,-0.6 7.21,-0.6 7.19,-0.6 7.81,-0.61 7.79,-0.59 7.8,-0.6 7.8,-0.6 7.2,-0.6 6.6,-1.2 6.6,-0.6 h 6.6 l 7.2,-0.6 6.6,-0.6 7.81,-0.61 7.19,-0.59 7.81,-0.6 7.19,-0.6 7.2,-0.6 h 6.61 l 6,-0.61 h 6.59 l 6.6,-0.59 h 13.81 l 7.19,-0.6 h 21 l 6.6,0.6 h 12.6 l 6,0.59 7.2,0.61 6.6,0.6 7.2,0.6 7.2,0.6 6.6,0.59 6.6,0.61 6,1.2 6.6,0.6 6,1.2 6,1.2 6.61,1.19 6.59,1.21 6.6,1.79 7.2,1.21 6.61,1.79 6.59,1.81 6,1.19 6,1.81 6,1.8 6,1.8 6.6,2.4 6.6,1.8 7.21,2.39 6.59,2.41 6.6,2.4 6.6,2.4 6,2.4 6,1.8 6,2.4 6,2.4 6.6,2.4 7.2,3 6.6,3 7.2,3 6.61,2.39 6.59,3 6.6,2.41 6,2.4 4.81,2.4 5.39,2.4 6,2.39 6.61,3 7.19,3.61 8.4,3.6 9,4.2 10.2,4.8 10.8,5.4 11.41,5.39 12,6 13.79,6.61 8.4,4.8 9.6,4.8 9.6,4.79 10.8,5.41 10.81,5.4 12,6 12,6.6 12.59,6 12.6,6.59 13.2,6.61 13.2,6.6 12.6,6.6 12.6,6 12.6,6 11.4,6 11.4,5.4 10.81,4.79 10.19,4.81 9.6,4.8 9,3.6 12,5.4 10.8,4.8 10.8,4.2 10.2,4.2 9.6,3 9.6,3 8.4,3 7.81,1.8 7.79,1.8 6.6,1.8 6,1.2 6,1.2 5.4,0.6 5.4,0.6 7.2,1.19 7.8,0.61 7.81,0.6 8.39,1.2 8.4,0.59 9,0.61 8.4,0.6 h 7.81 l 7.79,0.6 h 22.21 l 7.79,-0.6 h 8.4 l 8.4,-0.6 8.41,-0.61 8.39,-0.59 7.8,-0.6 7.2,-1.2 7.2,-1.2 7.2,-0.6 7.21,-1.2 7.79,-1.8 8.4,-1.2 7.81,-1.8 8.39,-2.4 7.8,-1.8 7.2,-2.4 7.2,-1.8 7.2,-2.41 6.6,-1.79 7.2,-3 7.2,-2.4 7.8,-3 7.8,-3 7.2,-3.6 7.8,-3.6 7.2,-3 6.6,-3.61 6.6,-3.59 6,-3 6.6,-3.6 7.2,-4.2 7.2,-4.2 7.21,-4.8 6.59,-4.8 7.2,-4.2 6.6,-4.8 6,-4.2 6,-4.8 6,-4.2 6,-4.8 6,-4.81 6.61,-5.39 6.59,-5.4 6.6,-5.4 6,-6 6,-4.81 6,-5.39 5.4,-5.4 3.6,-3.6 4.2,-3.61 4.2,-4.19 4.2,-4.81 4.8,-4.79 4.8,-6 4.8,-6.6 6,-7.2 5.4,-7.8 6,-8.4 6,-9 6,-9.6 6,-10.2 6.6,-11.41 4.81,-7.79 4.19,-8.4 4.81,-9 5.39,-9 5.4,-10.2 5.4,-10.8 6,-11.4 6,-11.41 6,-12.59 6,-12.6 6.6,-13.2 6.6,-13.2 6,-13.8 6.61,-13.8 6,-13.81 6,-13.19 6,-13.81 5.39,-13.19 5.4,-13.2 5.4,-12.61 4.81,-12.59 4.79,-13.2 4.8,-11.4 4.2,-11.4 4.21,-12 4.19,-12.6 4.2,-12 4.2,-13.2 4.2,-13.2 4.21,-13.2 4.79,-13.8 4.21,-13.8 4.19,-14.4 4.2,-15 4.2,-14.4 4.2,-15 4.21,-15 4.19,-15 4.2,-14.4 4.2,-15 3.6,-14.41 4.2,-15 3.61,-14.39 4.19,-15 3.6,-14.4 4.21,-15 3.59,-13.8 3.6,-13.8 4.2,-15 3.61,-15 4.19,-15 4.2,-16.2 4.2,-16.2 4.2,-16.21 4.21,-16.79 4.19,-17.4 4.2,-17.4 4.2,-17.41 4.8,-17.39 3.61,-17.4 4.19,-17.4 4.2,-17.4 3.61,-16.8 3.59,-16.2 3.6,-16.2 3,-15.6 3,-15 3,-14.4 2.4,-13.8 2.41,-13.8 1.79,-13.2 2.4,-12.6 1.81,-16.2 2.39,-15.61 1.2,-15.59 1.8,-15 0.61,-15 1.19,-15.6 0.6,-14.4 V 2779 l -0.6,-13.8 -0.6,-13.81 -0.59,-13.19 -1.21,-12.6 -1.2,-12 -1.2,-11.4 -1.2,-10.81 -1.19,-10.79 -1.81,-10.8 -1.19,-10.2 -1.81,-10.8 -2.4,-11.41 -1.79,-12 -1.81,-11.39 -2.4,-12 -2.4,-12 -2.39,-12.61 -2.41,-12.59 -2.4,-12.6 -2.4,-12 -3,-12.6 -2.4,-12 -2.39,-11.4 -2.41,-11.4 -3,-10.8 -2.4,-10.8 -2.4,-10.2 -2.4,-9.61 -2.39,-11.39 -3,-11.4 -2.41,-11.4 -3,-12 -3,-12 -3,-12 -3,-12.6 -3.59,-12.6 -3,-12.61 -3,-12 -3,-12 -2.41,-11.39 -3,-11.4 -2.4,-10.8 -2.4,-10.2 -2.4,-10.21 -2.39,-10.19 -2.41,-10.2 -2.4,-10.8 -2.4,-10.81 -2.4,-10.79 -2.39,-11.4 -2.41,-11.4 -2.4,-12 -2.4,-11.41 -2.4,-11.39 -2.39,-11.4 -1.81,-10.8 -1.8,-10.8 -1.8,-10.2 -1.8,-9.6 -1.2,-10.2 -1.8,-9.61 -1.79,-10.19 -1.21,-10.2 -1.79,-10.8 -1.21,-10.81 -1.2,-11.39 -1.8,-12 -1.2,-11.4 -1.2,-12 -1.2,-11.4 -1.19,-12 -1.21,-10.81 -1.2,-11.39 -1.2,-10.8 -0.6,-10.2 -1.2,-10.8 -0.59,-10.2 -1.21,-10.8 -0.6,-10.81 -1.19,-11.39 -0.61,-12 -1.2,-12.61 -0.6,-12.59 -1.2,-12.6 -0.6,-12.6 -1.2,-13.21 -0.59,-12.59 -1.21,-12.6 -0.6,-12 -1.19,-11.4 -0.61,-12 -0.6,-11.41 -1.2,-10.19 -0.59,-10.81 -1.21,-10.79 -0.6,-10.8 -1.19,-11.41 -1.21,-12 -1.2,-12 -1.2,-12.59 -1.8,-12.6 -1.2,-12.6 -1.2,-12.6 -1.8,-12.61 -1.8,-12 -1.2,-12.59 -1.8,-11.41 -1.8,-11.39 -1.79,-11.4 -1.81,-11.4 -1.19,-10.2 -1.81,-10.2 -2.4,-10.8 -1.79,-10.8 -2.41,-11.4 -3,-12 -3,-12 -3,-12.6 -3.59,-13.2 -4.21,-13.2 -4.2,-13.8 -4.2,-13.8 -4.8,-13.81 -5.4,-14.39 -5.4,-13.8 -5.4,-14.4 -6,-13.8 -6.6,-14.4 -6.6,-14.4 -7.19,-14.4 -6,-11.41 -6,-12 -6,-12 -7.21,-12.59 -7.2,-13.2 -7.2,-13.21 -7.8,-13.79 -8.4,-13.8 -8.4,-15 -9,-14.41 -9,-15 -9,-15.59 -9.6,-15 -9,-15.6 -9.6,-15 -9.59,-15.6 -9.61,-15 -9,-14.4 -9,-14.403 -9,-14.402 -9,-13.797 -8.39,-13.203 -8.41,-13.2 -8.4,-12.597 -7.8,-12.602 z"
       style="fill:none;stroke:#000000;stroke-width:27;stroke-linecap:butt;stroke-linejoin:bevel;stroke-miterlimit:10;stroke-dasharray:none;stroke-opacity:1"
       transform="matrix(0.13333333,0,0,-0.13333333,0,620)" />
    <path
       id="path2"
       d="m 1214.4,1152.39 -15,4.21 -14.4,3.6 -15,4.19 -14.39,3.61 -15,4.2 -14.41,3.6 -15,4.2 -14.4,4.2 -15,4.19 -15,4.21 -15,4.2 -14.4,4.2 -15,4.2 -14.4,4.19 -13.797,4.21 -13.801,4.79 -13.199,4.21 -13.199,4.2 -13.199,4.2 -12,4.2 -12.602,4.19 -12,4.21 -11.398,4.2 -11.403,4.8 -12,4.2 -11.398,4.8 -12,4.79 -12,5.41 -12.602,5.4 -12.597,6 -13.2,6 -12.601,6.6 -13.801,7.2 -13.801,7.2 -13.797,8.4 -13.8,8.4 -13.801,9 -13.801,9 -13.801,9.6 -13.797,10.2 -13.8,10.2 -13.801,10.8 -13.199,10.8 -13.2,11.4 -12.601,11.39 -12.602,12 -13.199,12.61 -12.598,13.2 -10.203,10.8 -10.199,11.39 -10.199,11.41 -10.801,12 -10.801,13.2 -10.797,13.2 -11.402,13.19 -11.398,14.41 -11.403,15 -11.398,15 -12,15.59 -11.399,15.61 -12,16.2 -12,16.8 -11.402,16.2 -11.398,16.8 -12,16.8 -11.403,16.8 -10.797,16.79 -10.8,16.21 -10.801,16.2 -10.199,16.2 -9.602,15.6 -9.598,15 -9.601,15.6 -9,14.4 -8.399,14.4 -8.402,13.8 -7.801,13.8 -7.797,13.2 -9.601,16.8 -9,16.2 -9,16.2 -8.399,16.2 -8.402,16.19 -8.398,16.21 -8.403,16.2 -7.797,16.8 -7.8,16.2 -7.801,16.2 -7.199,16.2 -7.2,16.19 -6.601,16.21 -6.602,16.2 -6.597,15.59 -6,15 -5.403,15 -5.398,14.41 -5.399,14.4 -4.203,13.8 -4.797,13.8 -4.2027,13.2 -4.1992,13.2 -3.5976,13.19 -4.2032,13.21 -3.5976,13.2 -3.6016,13.8 -3.5976,13.79 -3.6016,14.41 -3.6016,14.4 -3,15 -3.5976,15 -3,15.6 -3,15.59 -3,15.61 -3,16.2 -3,16.19 -2.4024,16.21 -2.3984,15.6 -2.3984,15.6 -1.8008,15.59 -1.8008,15.61 -1.8008,15 -1.8008,14.39 -1.1992,14.41 -1.1992,14.4 -0.6016,14.4 -1.1992,13.79 -0.5976,13.81 -0.6016,14.4 -0.6016,14.4 v 60 l 0.6016,15.6 0.6016,16.2 0.5976,16.2 0.6016,16.2 1.1992,16.8 1.1992,16.2 1.8008,16.19 1.1992,16.21 1.8008,16.2 1.8008,15.59 2.3984,15.61 1.8008,15 2.3984,15 2.4024,14.39 2.3984,14.41 2.4024,13.8 3,13.79 3,13.81 3,13.8 3,14.39 3.5976,13.81 3.6016,15 4.1992,14.4 4.1992,15 4.8008,15.6 4.1992,15 5.4024,15.6 4.7968,15.59 5.4027,16.21 5.398,15.6 6,15 6,15.6 5.402,15 6,14.4 6,14.4 6.598,14.4 6,13.8 6,13.2 6,13.2 6.602,12.6 6,12.59 6.597,12.61 6.602,12.6 7.199,12.6 7.199,13.19 7.203,12.61 7.797,13.2 8.403,13.19 8.398,13.81 8.402,13.8 9,13.2 9.598,13.8 9,13.8 9.602,13.8 9.597,13.2 9.602,13.2 10.199,12.6 9.602,12.6 9.597,12.6 9.602,12 9.601,11.4 9.598,11.4 9,10.79 9.602,10.81 9.597,10.19 9.602,10.21 9.601,10.2 10.2,10.8 10.199,10.2 10.801,10.8 10.8,10.2 11.399,10.8 12,10.79 11.398,10.81 12.602,10.8 12,10.8 12.601,10.8 13.2,10.2 12.597,10.8 12.602,10.2 12.601,9.59 12.598,9.61 12.602,9.6 12,8.4 12,9 12,8.39 12,7.81 12,7.8 11.398,7.8 12,7.8 12,7.2 12,7.8 12.602,7.2 12.597,7.2 13.203,7.8 13.2,7.2 13.8,7.8 14.399,7.2 13.801,7.8 15,7.2 14.398,7.2 14.402,7.19 15,6.61 14.399,7.2 14.398,6 14.403,6.6 13.8,6 13.797,5.4 13.203,6 13.797,4.8 13.203,5.39 12.598,4.81 13.199,4.8 12.598,4.2 13.2,4.8 13.2,4.2 13.8,4.19 13.8,4.81 15,4.19 14.4,4.21 15.6,4.2 16.2,4.2 16.2,4.2 16.8,3.6 16.8,4.2 17.4,3.6 17.4,3.6 18,3.6 18,3 17.4,3.59 18.6,3 18,2.41 18,3 18,2.4 18.6,2.4 18.6,1.79 18.61,2.41 15.59,1.8 15.6,1.2 16.2,1.8 16.8,1.2 16.81,1.8 18,1.2 18,1.2 18.59,1.2 18.6,1.19 19.81,0.61 19.19,1.2 20.4,0.6 19.8,0.59 20.4,0.61 20.4,0.6 h 80.4 l 19.8,-0.6 h 18.61 l 18.59,-0.61 18.6,-1.19 17.4,-0.6 17.41,-1.21 16.19,-1.19 16.2,-1.81 15.61,-1.19 15,-1.81 15,-2.39 18,-2.4 17.39,-3 17.4,-3 16.8,-3.6 16.8,-4.2 16.8,-4.2 16.81,-4.8 16.19,-4.8 16.2,-5.4 16.2,-5.4 15.6,-6 15,-6 15,-6.6 14.4,-6 14.41,-6.6 13.79,-7.2 13.21,-6.6 12.59,-6.6 12,-7.21 11.41,-6.59 11.39,-6.6 10.8,-6.6 10.81,-7.21 10.79,-6.59 12,-8.41 12.6,-7.79 12.61,-9 12.59,-8.4 12.6,-9 12.6,-9.6 12.6,-9 12.61,-9.6 12.59,-9.61 12.6,-9 12,-9.59 12,-9 10.81,-8.41 10.79,-8.39 9.6,-7.8 9.61,-7.2 8.39,-7.2 8.4,-6.6 7.8,-6 7.2,-5.4 10.8,-8.41 9.6,-7.79 9.6,-7.21 9,-6.59 7.8,-6.6 7.8,-5.4 6.61,-4.8 6,-4.2 5.39,-3.6 4.8,-3.6 4.81,-3 4.19,-3 4.81,-3 4.79,-3.6 5.4,-3.61 6,-3.59 5.4,-4.2 6,-3.6 5.41,-3.61 5.39,-3.59 5.4,-3 4.8,-3 4.8,-3 4.8,-3 5.4,-3.6 6,-3 5.41,-3 6,-3.6 5.39,-3 5.4,-2.4 4.8,-3 5.41,-2.4 6,-3 6.59,-3 7.2,-3 7.21,-3 7.19,-3 7.2,-2.41 6.61,-2.39 6.59,-2.4 6,-1.8 7.2,-1.8 7.21,-2.4 7.79,-1.8 7.8,-1.8 7.2,-1.8 7.21,-1.2 6.59,-1.2 5.41,-1.2 6,-0.6 6,-1.2 6,-0.6 6.59,-1.2 6.6,-0.61 6,-0.59 6.6,-0.6 5.4,-0.6 6,-0.6 h 6 l 6,-0.61 6,-0.59 h 6.6 l 7.21,-0.6 h 6.59 l 6.6,-0.6 h 6.6 l 6.6,-0.6 h 16.2 l 6,-0.61 h 31.8 l 9.61,0.61 H 3000 l 11.4,0.6 13.21,0.6 h 13.79 l 10.21,0.6 10.79,0.59 11.4,0.61 12.6,0.6 13.21,0.6 13.79,0.6 14.4,0.59 14.4,0.61 15,0.6 15,0.6 15,0.6 14.41,0.59 13.79,0.61 13.21,0.6 H 3285 l 13.2,-0.6 12,-0.61 11.41,-0.59 10.19,-1.2 9.6,-1.21 9,-1.79 7.8,-1.21 6.6,-1.79 6.6,-1.8 5.4,-1.8 5.4,-1.8 6.6,-1.81 6.6,-2.39 7.21,-2.4 7.19,-3 7.2,-3 7.2,-2.4 7.2,-3 6.6,-3 6.61,-3 6,-3 6,-2.4 6.59,-3 6.6,-3.6 6.6,-3.6 6.6,-3.6 6.61,-4.2 6.59,-3.6 6,-3.6 6,-4.21 5.41,-3.59 5.39,-3.6 5.4,-4.2 6,-4.2 5.4,-4.2 6,-4.8 6,-4.8 5.4,-5.4 5.41,-4.21 4.79,-4.79 4.8,-4.8 4.8,-4.8 4.8,-4.8 4.2,-5.4 5.4,-5.41 4.8,-6 4.8,-6 4.2,-5.39 4.2,-6 4.21,-5.4 3.59,-5.4 3.6,-5.4 4.2,-6 3.61,-6 3.59,-6.6 4.2,-6.6 3.6,-6.6 3.61,-6.61 3.59,-6.59 3,-6.6 3,-6 2.41,-6 3,-6.6 3,-6.6 3,-7.2 2.39,-7.2 3,-7.21 3,-7.19 2.4,-7.2 2.4,-6.61 1.81,-6.59 2.39,-6 1.8,-7.2 2.4,-7.21 1.8,-7.19 2.4,-7.81 2.4,-7.19 1.81,-7.81 1.79,-7.19 1.8,-6.6 1.8,-6.6 1.8,-6.61 1.81,-6.59 1.19,-7.2 1.81,-7.8 1.79,-7.2 1.8,-7.8 1.8,-7.2 1.8,-7.21 1.81,-7.19 1.19,-6 1.2,-6.6 1.8,-6.6 1.81,-7.2 1.79,-7.2 1.8,-7.21 1.8,-7.19 1.8,-7.2 1.2,-7.2 1.8,-6.6 1.81,-6 1.79,-6 1.8,-6.6 1.8,-6.6 1.8,-6.61 2.4,-7.19 2.41,-6.6 1.79,-6.6 2.4,-6.61 1.81,-6 2.39,-6 1.8,-5.39 2.4,-6 2.41,-6 2.39,-6.61 3,-6.59 3,-6 2.4,-6.6 3,-6 3,-5.4 2.4,-5.41 3,-5.39 3,-5.4 3,-6 3.6,-6 3.6,-6 3.61,-6 3.59,-6 3.6,-6 3,-5.4 3.6,-4.81 3.6,-5.39 3.61,-4.8 3.59,-6 4.2,-5.4 4.21,-6 4.79,-6 4.21,-5.41 4.19,-5.39 4.2,-5.4 4.2,-4.8 3.6,-4.8 4.2,-5.4 4.8,-5.4 4.81,-5.4 4.79,-6 4.8,-6 4.8,-5.41 4.8,-5.39 4.2,-5.4 4.8,-4.8 3.6,-4.2 3.6,-4.8 4.2,-4.8 5.41,-4.8 5.39,-6 6,-7.2 7.2,-7.2 7.2,-7.8 8.4,-8.4 9,-9.6 9.6,-9.61 10.8,-10.79 6.6,-6.6 7.2,-7.8 7.8,-7.81 8.4,-8.39 9,-8.4 9,-9.6 9.6,-9.61 10.2,-9.59 10.2,-10.2 10.2,-10.8 10.21,-10.2 9.59,-10.21 10.2,-10.19 9.6,-9.6 9,-9.6 8.4,-9 8.4,-8.4 7.81,-8.4 6.59,-7.81 7.2,-7.19 8.4,-9.6 7.81,-9.6 7.79,-8.4 6.6,-8.4 6,-8.4 6,-7.8 4.8,-7.2 4.81,-7.2 4.19,-6.6 3.6,-6 3,-5.4 2.4,-5.4 2.4,-4.81 2.41,-4.79 3,-6.6 3,-7.2 3.59,-7.2 3,-7.8 3.6,-7.8 3,-8.4 3,-7.8 3,-7.2 2.4,-7.21 2.41,-7.19 2.39,-6.6 2.4,-7.21 2.4,-7.79 1.81,-7.8 2.39,-8.41 2.4,-8.39 1.8,-7.8 1.8,-7.81 1.2,-7.19 1.2,-7.2 1.21,-7.2 1.19,-7.2 1.2,-7.8 1.2,-8.41 0.6,-8.39 0.6,-7.8 0.6,-8.4 0.61,-7.8 v -29.4 l -0.61,-7.8 -0.6,-7.8 -0.6,-8.4 -0.6,-8.4 -1.2,-7.81 -1.2,-7.79 -1.19,-7.8 -1.21,-7.2 -1.2,-7.21 -1.2,-7.19 -1.8,-7.81 -1.8,-7.79 -2.4,-8.4 -2.39,-8.4 -1.81,-7.8 -2.4,-7.8 -2.4,-7.2 -2.39,-6.61 -2.41,-7.19 -2.4,-7.2 -3,-7.2 -3,-7.8 -3,-8.4 -3.6,-7.8 -3,-7.8 -3.59,-7.2 -3,-7.2 -3,-6.6 -2.41,-4.8 -2.4,-4.81 -2.4,-5.39 -3,-5.4 -3.6,-6 -4.19,-6.6 -4.81,-7.2 -4.8,-7.2 -6,-7.8 -6,-8.41 -6.6,-8.39 -7.79,-8.4 -7.81,-9.6 -8.4,-9.61 -7.2,-7.19 -6.59,-7.81 -7.81,-8.39 -8.4,-8.4 -9,-9.6 -9.6,-9.61 -10.19,-10.19 -10.81,-10.2 -10.8,-10.8 -12,-11.4 -12,-11.41 -12,-10.79 -12,-11.4 -12,-10.81 -12,-10.79 -12.6,-10.8 -11.4,-10.2 -12,-9.6 -11.39,-10.2 -12,-9 -9.61,-7.8 -9.6,-7.8 -10.2,-7.81 -10.2,-7.79 -10.8,-7.8 -10.8,-7.8 -10.79,-8.4 -11.41,-8.4 -12,-8.4 -12,-8.41 -12.59,-8.39 -12.61,-8.4 -12.6,-8.4 -12.6,-9 -13.19,-8.4 -12.61,-8.41 -12.6,-8.39 -13.2,-8.4 -12.59,-8.4 -12.61,-8.4 -12.6,-8.41 -13.2,-7.79 -12.59,-8.4 -12.61,-8.4 -12,-7.8 -12.6,-7.8 -12.6,-8.4 -13.19,-8.41 -13.21,-8.39 -13.79,-9 -14.41,-9 -14.4,-9 -14.4,-9 -15,-9.61 -15.6,-9.59 -15,-9.6 -15.6,-9 -15,-9.6 -15.59,-9 -15,-9 -14.41,-9 -15,-8.4 -13.8,-8.4 -13.79,-7.8 -13.21,-7.2 -13.2,-7.2 -12.59,-7.21 -12,-6 -12,-6 -11.41,-6 -14.4,-7.19 -14.4,-6.6 -14.4,-6.6 -13.8,-6 -14.4,-5.4 -13.8,-5.4 -14.39,-5.4 -13.81,-4.8 -13.8,-4.2 -13.8,-4.2 -13.2,-4.21 -13.2,-3.59 -12.6,-3 -12,-3 -12,-3 -11.4,-2.41 -10.8,-1.79 -10.8,-2.4 -10.2,-1.81 -10.2,-1.19 -11.4,-1.81 -11.4,-1.79 -11.39,-1.8 -11.41,-1.8 -12.59,-1.2 -12,-1.8 -12.61,-1.8 -12.6,-1.2 -12.6,-1.2 -12.6,-1.8 -12.59,-1.2 -12,-1.2 -12,-1.21 -11.41,-1.19 -10.8,-0.6 -10.79,-1.21 -10.81,-0.59 -10.19,-1.2 -11.41,-0.6 -12,-0.61 -11.4,-1.19 -12,-0.6 -12.6,-1.21 -12.59,-0.59 -13.21,-1.2 -12.6,-0.6 -12.6,-1.2 -12.59,-0.6 -12.61,-1.2 -12,-0.61 -11.39,-1.19 -10.81,-0.6 -10.8,-1.21 -10.2,-0.59 -10.8,-1.2 -10.2,-0.6 -10.8,-1.2 -11.39,-1.2 -10.81,-1.21 -12,-1.19 -11.4,-1.2 -12,-1.2 -11.4,-1.2 -12,-1.8 -11.39,-1.2 -10.81,-1.21 -10.8,-1.79 -10.2,-1.21 -10.19,-1.79 -9.61,-1.8 -10.2,-1.2 -9.6,-1.8 -10.2,-1.8 -10.8,-1.8 -10.8,-1.81 -11.4,-2.39 -11.39,-2.4 -11.41,-2.4 -12,-2.4 -11.4,-2.41 -11.4,-2.39 -10.79,-2.4 -10.81,-2.4 -10.8,-2.4 -10.2,-2.41 -10.19,-2.39 -10.21,-2.4 -10.2,-2.4 -10.8,-2.4 -11.4,-3 -11.39,-2.41 -12,-3 -12,-3 -12.61,-3 -12.6,-3.59 -12.6,-3 -12,-3 -12,-3 -12,-3 -11.4,-2.41 -11.4,-3 -11.39,-2.39 -9.61,-2.4 -10.2,-2.4 -10.8,-2.4 -10.8,-3 -11.4,-2.41 -11.4,-2.39 -12,-2.4 -12.6,-3 -12,-2.4 -12.6,-2.4 -12.59,-2.41 -12.61,-2.39 -12,-2.4 -12,-2.4 -11.39,-1.81 -12,-1.79 -11.41,-2.4 -10.8,-1.81 -10.2,-1.19 -10.8,-1.81 -10.79,-1.19 -10.81,-1.2 -11.4,-1.2 -12,-1.2 -12.6,-1.21 -13.19,-0.59 -13.81,-0.6 -13.8,-0.6 h -43.8 l -14.4,0.6 -15.6,1.19 -15,0.61 -15,1.8 -15.59,1.2 -15.61,2.39 -16.2,1.81 -12.6,2.4 -13.2,1.79 -13.8,2.41 -13.8,2.4 -14.4,3 -15,3 -15.6,3 -16.2,3.6 -16.2,3.59 -16.8,3.61 -17.4,4.2 -17.4,4.19 -17.4,3.61 -17.39,4.8 -17.41,4.2 -17.4,4.2 -17.4,4.19 -16.79,4.21 -16.21,4.2 -16.2,4.2 -16.2,4.2 -15,4.19 -15,3.61 -15,4.2 -13.8,3.6 z"
       style="fill:none;stroke:#0000ff;stroke-width:27;stroke-linecap:butt;stroke-linejoin:bevel;stroke-miterlimit:10;stroke-dasharray:none;stroke-opacity:1"
       transform="matrix(0.13333333,0,0,-0.13333333,0,620)" />
    <path
       id="path3"
       d="m 900.605,2941.6 -1.203,15.6 -0.597,15 -1.2,15 -0.601,15.6 -0.602,15 -1.199,15 -0.598,15.59 -0.601,15 -0.602,15.61 -0.597,15.6 -0.602,15 -0.598,15.6 -0.601,15 v 15 l -0.602,15 v 69 l 0.602,12.6 v 12.59 l 0.601,12.61 0.598,12.6 0.602,12 0.597,12.6 1.203,13.19 1.2,12.61 1.199,13.8 1.801,13.8 1.8,14.4 2.399,14.39 3,15 3,15 3,15.61 3.601,16.2 4.2,15.6 4.8,16.2 4.797,16.2 4.801,16.19 6,16.21 6,16.2 6,16.2 7.199,15.6 7.203,16.2 7.2,15.59 7.8,16.21 8.399,16.2 7.199,12.59 7.797,13.81 7.8,13.19 8.4,13.81 8.41,14.4 9.59,14.4 9.6,15 9.6,15 10.8,15.6 10.8,15.6 10.8,16.19 12,16.21 11.4,16.2 12,16.2 12,16.2 12.6,16.19 12.6,16.21 12,16.2 12.6,15.59 12,15 12.61,15.61 12,14.39 12,14.41 11.39,13.8 11.4,13.2 11.4,13.2 10.81,12.6 10.79,12.6 10.21,11.4 10.79,11.4 12.6,14.39 12.61,13.81 12.59,13.19 12.6,13.21 13.2,13.2 12.61,13.2 13.19,12.6 13.2,12.6 13.2,12.6 13.2,12.59 13.21,12 13.19,11.41 13.2,12 12.61,10.8 13.19,10.79 12.6,10.21 12.6,10.2 12,9.59 12,9 12,9 11.4,8.41 11.4,8.4 11.4,7.8 11.41,7.8 11.39,7.8 11.4,7.79 12,7.21 12,7.79 12,7.81 13.21,7.8 12.59,7.8 13.8,7.8 13.8,7.79 13.81,7.81 14.39,7.8 13.8,7.8 14.4,7.8 15,7.2 14.41,7.2 13.79,7.2 14.4,6.6 13.81,6.59 13.79,6 13.8,6 13.2,6 13.21,5.41 13.19,4.8 12.6,5.4 13.21,4.8 13.19,4.8 13.81,4.79 13.79,4.81 13.8,4.8 14.41,4.8 15,4.8 15,4.2 15.59,4.8 15.6,4.2 15.6,4.2 16.21,4.2 16.19,3.6 15.6,3.59 16.21,3.61 15.59,3.6 15.6,3 15,2.4 15,3 15,2.39 14.4,1.81 14.41,2.4 13.79,1.79 14.4,1.81 13.81,1.19 14.39,1.21 14.4,1.2 14.4,1.2 15,1.2 15.6,0.6 15.6,0.59 15.61,0.61 H 2475 l 16.8,-0.61 16.81,-0.59 16.19,-0.6 16.2,-1.2 15.61,-1.2 15.59,-1.2 15,-1.21 15,-1.79 15,-1.8 14.41,-1.8 13.79,-1.8 14.4,-2.4 13.81,-2.41 13.79,-2.39 14.4,-2.4 14.4,-3 14.41,-3 15,-3.6 15.59,-3.61 15,-3.59 15.6,-4.2 16.2,-4.21 15.61,-4.79 16.19,-4.21 15.6,-4.79 15.6,-5.4 15.61,-4.81 15.59,-5.39 15,-5.4 14.41,-5.4 14.39,-5.4 13.8,-5.41 13.81,-6 13.19,-5.39 13.2,-5.4 12.61,-6 13.19,-6 12.6,-6 13.21,-6.6 12.59,-6.61 13.8,-6.59 13.2,-7.2 13.8,-7.21 13.8,-7.79 13.81,-8.4 14.39,-7.81 13.8,-9 13.81,-8.39 14.39,-9 13.8,-9 13.2,-8.4 13.8,-9 12.6,-9 12.6,-9 12.61,-9 12,-9 11.39,-9 11.4,-8.4 11.4,-9 10.81,-8.4 10.79,-9 10.8,-9 10.8,-9.6 10.8,-9.6 11.4,-9.6 10.8,-10.2 11.4,-10.2 11.4,-10.8 11.4,-11.41 11.41,-11.39 11.39,-11.4 11.4,-11.4 11.4,-12 10.81,-11.4 10.79,-12 10.8,-11.41 10.2,-12 10.21,-11.39 9.59,-11.4 9.6,-10.8 9,-11.41 9,-10.79 8.4,-10.8 8.41,-10.8 8.39,-10.8 8.4,-11.4 8.4,-10.8 8.4,-12 8.41,-12 8.39,-12.61 8.4,-12.59 9,-13.2 9,-13.8 9,-14.41 9,-14.39 8.4,-15 9,-15.61 9,-15.59 9,-15.6 8.4,-16.2 8.41,-16.2 8.39,-16.2 8.4,-16.21 8.4,-16.19 7.81,-16.81 7.79,-16.79 7.8,-16.8 7.8,-17.41 6.61,-14.39 6,-14.4 6.59,-15 6.6,-15 6.6,-16.21 6.6,-16.19 7.2,-16.81 6.6,-17.39 7.2,-17.4 6.61,-18 7.19,-18.6 6.6,-18.61 7.21,-19.19 6.59,-19.2 6.6,-19.2 6.6,-19.2 6.6,-19.21 6,-19.19 6,-19.2 5.4,-18.61 6,-18 4.8,-18 4.8,-17.39 4.8,-17.4 4.2,-16.21 3.61,-16.19 3.59,-16.2 3.6,-15 3,-15 3,-14.4 3,-18 2.4,-17.4 2.41,-18 1.79,-16.81 1.21,-17.39 1.19,-17.4 0.6,-16.8 0.6,-17.41 v -16.79 l -0.6,-16.8 -0.6,-16.8 -1.19,-16.8 -1.21,-16.2 -1.79,-15.61 -1.81,-15.59 -1.8,-15 -2.39,-14.41 -3,-14.39 -2.41,-13.2 -3,-13.2 -3,-13.21 -3,-12.59 -3,-12 -3,-12 -4.2,-14.41 -4.2,-14.39 -4.19,-14.4 -4.81,-15 -4.19,-14.4 -4.81,-15 -5.4,-15 -4.79,-15 -5.41,-15 -4.8,-15 -5.4,-13.81 -4.8,-13.79 -4.8,-13.8 -4.79,-12.6 -4.21,-11.4 -4.2,-11.41 -3.59,-10.79 -3.61,-9.6 -3.6,-9 -3,-8.4 -4.79,-13.21 -4.81,-12 -3.6,-10.79 -3.59,-10.21 -3.61,-9.59 -3,-9 -2.39,-7.8 -2.41,-7.2 -1.8,-6.6 -1.79,-5.4 -1.21,-4.8 -1.79,-5.4 -1.21,-5.4 -1.79,-6 -1.81,-6 -1.8,-6.6 -1.8,-6.6 -1.8,-6.61 -1.79,-6.59 -1.81,-6 -1.19,-6 -1.21,-6 -1.79,-5.41 -1.21,-6 -1.2,-6 -1.2,-6 -1.2,-6.59 -1.8,-6.6 -0.6,-6 -1.2,-6 -1.2,-5.4 -0.6,-6 -0.6,-6.6 -1.19,-7.2 -0.61,-7.2 -0.6,-7.8 -0.6,-7.8 v -7.81 l -0.6,-7.19 V 2257 l 0.6,-7.2 v -7.8 l 0.6,-7.8 0.6,-7.81 0.61,-7.79 1.19,-7.21 0.6,-6.59 0.6,-5.41 1.2,-6 1.2,-6 0.6,-6 1.8,-6.59 1.2,-6.6 1.2,-6 1.2,-6 1.21,-6 1.79,-6 1.21,-5.4 1.19,-6 1.81,-6 1.79,-6.6 1.8,-6.6 1.8,-6.6 1.8,-6.61 1.81,-6 1.79,-6 1.21,-6 1.79,-4.79 1.21,-4.8 1.79,-5.41 1.8,-6.59 2.41,-7.2 2.39,-7.8 3,-9 3.61,-9.6 3.59,-10.2 3.6,-10.8 4.81,-12 4.79,-13.2 3.6,-9.61 3.61,-10.19 4.19,-10.81 4.2,-11.39 4.8,-12.61 4.81,-12.59 4.79,-13.8 5.4,-13.8 5.4,-13.81 5.41,-14.39 4.79,-13.8 4.8,-13.81 4.8,-12.59 4.8,-12.6 4.2,-12 3.61,-10.81 3.59,-10.79 3,-9.6 4.2,-13.2 3.6,-12.6 3,-12 3,-10.81 1.8,-10.19 1.81,-9.6 1.19,-9 1.2,-7.8 v -7.2 l 0.61,-6.6 v -32.4 l -0.61,-7.8 -0.6,-7.8 v -7.8 l -0.6,-7.81 -0.6,-7.19 -1.2,-7.2 -0.6,-6.61 -0.6,-6.59 -1.19,-7.2 -1.21,-7.21 -1.2,-7.19 -1.2,-7.81 -1.8,-7.19 -1.8,-7.81 -1.79,-6.59 -1.81,-6.6 -1.19,-6.6 -2.41,-6 -1.8,-6.6 -2.4,-7.2 -2.39,-6.6 -3,-7.2 -3,-7.2 -3,-6.6 -3,-6.6 -2.41,-6 -3,-6 -3,-6 -3.59,-6 -3.61,-6 -3.6,-6.6 -4.2,-6 -4.2,-6.61 -4.2,-6 -4.19,-6 -3.61,-5.39 -4.2,-5.4 -4.19,-5.4 -4.21,-4.81 -4.2,-6 -5.4,-5.39 -4.8,-5.4 -5.39,-6 -5.41,-5.4 -4.8,-4.81 -4.79,-4.79 -4.81,-4.8 -5.4,-4.8 -4.79,-4.2 -6,-4.8 -5.41,-5.4 -6.59,-4.8 -6,-4.8 -6,-4.8 -6,-4.81 -5.41,-4.19 -5.4,-4.2 -5.4,-3.61 -6,-4.19 -6,-4.2 -6.6,-4.2 -6.6,-4.8 -6.59,-4.2 -6,-4.2 -6.61,-4.21 -6,-3.59 -5.39,-3.6 -6,-3.6 -6,-3.6 -6,-3.61 -6.61,-4.19 -6.6,-4.2 -7.2,-4.2 -6,-3.6 -6.59,-3.6 -6,-3.6 -5.41,-3.61 -6,-3.59 -6,-3.6 -6,-3.6 -6,-3.6 -6.59,-4.2 -6.61,-4.2 -6,-3.6 -6,-4.2 -6,-3.6 -4.8,-3.6 -5.4,-3 -5.4,-3.6 -6,-4.2 -6,-4.2 -6,-4.21 -5.4,-4.19 -6,-4.2 -5.39,-3.61 -4.81,-4.19 -4.8,-3.6 -5.39,-4.21 -4.81,-3.59 -4.8,-4.2 -5.39,-4.8 -5.41,-4.2 -5.4,-4.8 -4.8,-4.8 -4.8,-4.2 -4.8,-4.8 -4.2,-4.2 -4.2,-4.2 -4.8,-4.8 -4.2,-4.8 -4.8,-4.8 -4.8,-5.4 -4.2,-5.41 -4.8,-5.39 -4.2,-4.8 -3.59,-4.81 -4.21,-5.39 -3.6,-4.8 -4.19,-4.81 -3.61,-5.39 -4.2,-6 -4.19,-5.4 -4.21,-6 -4.2,-6.002 -4.2,-6 -3.6,-5.403 -3,-5.398 -3.6,-4.801 -3.6,-6 -4.2,-6 -3.6,-6 -4.2,-6.601 -4.2,-6.598 -3.6,-6 -3.6,-6 -3.6,-6 -3.59,-6 -3,-4.801 -3,-4.801 -3,-5.398 -3.61,-6.602 -4.2,-7.199 -4.19,-7.801 -4.81,-9 -5.4,-9.597 -6,-10.203 -6,-11.399 -6,-12 -7.2,-13.801 -4.2,-8.398 -4.8,-9.602 -4.8,-9.597 -5.4,-10.203 -6,-11.399 -6,-11.398 -6,-12.602 -6.6,-12 -6.6,-13.199 -6.6,-12.602 -6.59,-13.199 -6.61,-12.601 -6.6,-12.598 -6,-12 -6.6,-11.402 -6,-11.399 -5.4,-10.199 -5.4,-9.602 -5.39,-9.597 -4.81,-8.403 -6.6,-11.398 -6,-10.199 -6,-9.602 -6,-9 -6,-8.398 -5.4,-7.801 -6,-7.199 -4.8,-6.602 -4.8,-6 -4.8,-4.801 -4.2,-4.8 -4.2,-4.2 -4.2,-3.597 -3.6,-4.203 -5.4,-4.797 -6,-5.403 -6,-4.8 -6,-6 -6.6,-5.399 -6.59,-5.398 -6.61,-5.403 -6,-4.8 -6,-4.797 -6,-4.801 -6,-4.199 -6,-4.203 -6.6,-4.797 -7.2,-4.203 -6.59,-4.797 -7.21,-4.801 -7.2,-4.199 -7.2,-4.203 -6.6,-3.598 -6,-3.602 -6.6,-3 -6.6,-3.597 -7.2,-3 -7.8,-3.602 -7.2,-3.601 -7.8,-3 -7.8,-3 -7.2,-2.399 -7.2,-3 -6.6,-1.801 -7.2,-2.398 -7.2,-1.801 -7.2,-2.398 -7.8,-1.801 -8.39,-2.402 -7.81,-1.797 -8.4,-1.203 -7.79,-1.797 -7.21,-1.203 -7.2,-1.2 -7.2,-0.597 -7.2,-1.203 -7.8,-0.598 -8.39,-0.602 -8.41,-0.597 -8.4,-0.602 h -8.4 l -7.79,-0.601 h -22.21 l -7.79,0.601 h -7.81 l -8.4,0.602 -9,0.597 -8.4,0.602 -8.39,1.199 -7.81,0.602 -7.8,0.597 -7.2,1.2 -5.4,0.601 -5.4,0.602 -6,1.199 -6,1.199 -6.6,1.801 -7.79,1.801 -7.81,1.797 -8.4,3 -9.6,3 -9.6,3 -10.2,4.203 -10.2,4.199 -11.4,4.801 -12,4.797 -9,4.203 -9.6,4.797 -10.19,4.8 -10.81,4.801 -11.4,6 -12,6 -13.2,6.602 -13.2,6.597 -13.8,7.801 -13.8,7.199 -14.4,7.801 -14.39,8.399 -14.41,7.8 -14.4,8.403 -13.8,7.797 -13.8,8.402 -13.2,8.398 -13.2,7.801 -13.19,8.399 -12,7.8 -10.81,7.2 -10.19,6.601 -10.21,7.199 -10.79,7.2 -10.81,7.8 -10.8,7.801 -11.39,8.399 -11.41,8.402 -11.4,8.398 -12,9 -12,9 -12,9 -12,9.602 -12,9.598 -12,9.601 -12,9.602 -12.6,9.597 -11.4,9.602 -12,9.598 -12,9.601 -12,9.602 -11.4,9.597 -12,9.602 -11.4,9.598 -11.39,9 -11.41,9 -12,9.601 -11.4,10.199 -12.6,9.602 -12.59,10.801 -13.21,10.199 -13.2,11.398 -13.2,10.801 -13.8,11.399 -13.2,11.402 -13.8,12 -13.8,11.398 -13.79,12 -13.21,11.403 -13.2,11.398 -13.2,11.399 -12.6,11.402 -12,10.801 -12,10.797 -10.79,10.203 -10.81,10.199 -10.8,9.598 -9.6,9.601 -9.6,9.604 -9,9 -11.4,11.4 -10.79,12 -10.21,11.39 -10.2,11.41 -9.59,11.4 -9.61,12 -9,11.4 -9,12 -8.39,12 -8.41,11.4 -7.8,11.39 -7.2,11.41 -7.2,10.8 -6.6,10.79 -6,10.81 -6,9.6 -5.4,10.2 -5.39,9 -4.81,9.6 -4.8,9 -4.8,10.2 -5.4,10.2 -5.4,10.8 -4.79,10.2 -5.41,11.39 -5.4,10.81 -5.4,11.4 -5.4,12 -5.39,11.4 -4.81,11.39 -5.4,11.41 -4.79,11.4 -4.81,10.8 -4.8,10.8 -4.2,10.2 -4.19,10.2 -4.21,9.6 -3.6,9.59 -4.8,10.81 -4.2,10.8 -4.8,10.8 -4.2,11.4 -4.8,11.4 -4.8,11.4 -4.8,12 -4.79,12 -4.81,12 -4.8,11.39 -4.8,11.41 -4.2,11.4 -4.2,10.19 -4.19,10.21 -4.21,10.2 -4.2,9.59 -4.2,9.61 -3.6,9.6 -4.79,10.2 -4.21,10.2 -4.79,10.2 -4.21,10.8 -4.79,10.8 -5.41,10.8 -4.8,10.2 -4.79,10.8 -4.81,10.2 -4.8,10.2 -4.8,9.6 -4.8,9.6 -4.2,9 -4.8,9 -4.79,9 -4.21,9 -5.4,9 -4.8,9.6 -5.4,10.2 -5.4,9.6 -6,10.2 -5.4,10.8 -6,10.2 -6,10.2 -5.39,10.2 -6,9.6 -5.41,9.59 -5.4,9 -5.4,9 -5.4,9 -6,9 -5.39,9.61 -6,9 -6,10.2 -6,9.6 -6.61,10.8 -6.6,10.79 -6.6,10.81 -7.19,10.8 -6.61,10.8 -6.6,10.8 -6.6,10.79 -6.6,10.21 -6,10.2 -6,9.59 -6,9.61 -5.4,9 -6,9 -5.4,9.6 -5.4,9.6 -6,9.6 -6,10.2 -6.6,10.8 -6,10.8 -6.6,10.79 -6,11.41 -6,10.8 -6.6,10.79 -6,11.41 -5.4,10.2 -5.4,10.8 -5.4,10.2 -5.39,10.2 -5.41,10.19 -4.2,9 -4.8,9.61 -4.8,9.6 -4.79,10.2 -4.805,10.8 -4.801,10.79 -4.801,12 -4.801,12 -4.797,12.61 -4.203,13.2 -4.797,13.19 -4.203,14.41 -4.797,13.8 -3.601,14.4 -4.199,14.39 -3.602,15 -3.598,15 -3,15 -3,15.61 -3,16.2 -1.8,12.6 -1.801,13.2 -2.399,13.8 -1.8,13.8 -1.801,15 -1.801,15 -1.801,15.6 -1.797,16.19 -1.203,16.81 -1.797,17.4 -1.8,17.4 -1.2,17.39 -1.8,18 -1.2,18 -1.203,18 -1.199,18 -1.199,17.41 -1.199,17.4 -1.2,17.4 -1.203,16.79 -0.597,16.21 -1.2,15.6 -0.601,15.6 -1.199,15 -0.602,15 z"
       style="fill:none;stroke:#00ff00;stroke-width:27;stroke-linecap:butt;stroke-linejoin:bevel;stroke-miterlimit:10;stroke-dasharray:none;stroke-opacity:1"
       transform="matrix(0.13333333,0,0,-0.13333333,0,620)" />
    <path
       id="path4"
       d="m 2505,3793 14.4,6 13.8,5.39 14.41,5.41 13.79,5.4 14.4,5.4 14.4,5.4 14.41,5.39 14.39,5.41 14.4,5.4 14.4,5.4 14.4,5.4 14.41,5.39 14.39,4.81 14.4,5.4 13.8,4.79 13.8,4.21 13.2,4.79 13.2,4.21 12.6,4.2 12.61,3.59 12.59,4.21 12,3 12,3.6 12,3.6 12,3 12,3 12.6,3 13.2,3 13.2,3 13.2,2.4 14.4,3 14.4,2.4 15,1.79 15.6,1.81 15.6,1.8 16.21,1.2 16.79,1.19 16.8,0.61 16.8,0.6 h 16.8 l 17.4,-0.6 16.8,-0.61 17.4,-1.19 17.4,-1.2 16.81,-1.8 18,-2.4 17.39,-2.41 18,-3 14.4,-3 15,-3 15,-3.59 16.21,-3.6 16.19,-3.6 16.2,-4.21 17.4,-4.79 17.4,-4.8 18,-4.8 18,-6 18.6,-5.4 19.21,-6 19.19,-6 19.2,-6.6 19.2,-6.61 19.2,-6.59 19.21,-6.6 19.19,-7.2 18.6,-6.61 18.6,-7.19 18,-6.6 17.4,-7.21 17.4,-6.59 16.81,-7.2 16.19,-6.6 16.2,-6.61 15,-6.59 15,-6.6 14.4,-6 14.4,-6.6 17.4,-7.8 16.8,-7.8 16.8,-7.8 16.81,-7.81 16.19,-8.39 16.2,-8.4 16.2,-8.4 16.2,-8.4 16.21,-8.41 15.59,-9 15.6,-9 15.6,-9 15,-8.39 14.4,-9 14.4,-9 13.8,-9 13.2,-9 12.6,-8.4 12.6,-8.4 12,-8.4 12,-8.41 10.8,-8.39 11.41,-8.4 10.79,-8.4 10.8,-8.4 10.8,-8.41 10.8,-9 11.4,-9 10.8,-9.59 11.4,-9.6 11.4,-10.2 12,-10.2 11.4,-10.8 12,-10.8 11.41,-10.81 12,-11.39 11.39,-11.4 11.4,-11.4 11.4,-11.4 11.4,-11.41 10.8,-11.39 10.2,-11.4 10.2,-10.8 9.6,-11.41 9.61,-10.79 9.59,-10.8 9,-10.8 9,-10.8 8.41,-10.81 9,-11.39 8.39,-11.4 9,-11.4 9,-12 9,-12.6 9,-12.6 9,-12.61 9,-13.79 8.4,-13.21 9,-13.79 9,-14.4 8.4,-13.81 9,-13.79 7.81,-14.4 8.39,-13.81 7.8,-13.79 7.2,-13.8 7.2,-13.2 6.6,-13.8 6.6,-12.6 6.6,-13.2 6,-12.61 6,-13.19 6,-12.6 5.4,-13.21 5.4,-13.19 6,-13.81 5.4,-13.79 5.41,-14.4 5.39,-14.4 5.4,-15 5.4,-15.6 4.81,-15.6 5.39,-15.6 4.8,-15.61 4.2,-16.19 4.8,-15.6 4.2,-15.6 4.2,-16.2 3.6,-15 3.6,-15.6 3.6,-15 3,-14.4 3,-14.41 2.4,-14.39 2.4,-13.8 2.4,-13.81 2.41,-14.39 1.79,-13.8 1.8,-14.4 1.8,-14.41 1.8,-15 1.2,-15.59 1.2,-15.6 1.2,-15.6 1.21,-16.21 0.59,-16.19 0.6,-16.81 0.6,-16.19 v -65.4 l -0.6,-16.2 -0.6,-15.6 -0.59,-15 -1.21,-15 -1.2,-15 -1.2,-13.8 -1.2,-14.4 -1.19,-14.41 -1.81,-13.79 -1.8,-13.8 -2.39,-14.41 -1.81,-14.39 -2.4,-15 -3,-15 -2.4,-15 -3,-15.61 -3.6,-16.19 -3.6,-15.6 -3.6,-16.21 -3.59,-16.19 -4.21,-15.6 -4.2,-16.21 -4.2,-15.59 -4.8,-15.6 -4.2,-15 -4.8,-14.4 -4.8,-15 -4.79,-13.8 -4.81,-13.8 -4.8,-13.81 -4.8,-13.19 -4.8,-13.2 -5.4,-12.61 -4.8,-13.19 -5.4,-13.2 -6,-13.2 -6,-13.8 -6,-13.8 -6.6,-13.81 -6.59,-14.39 -7.21,-13.8 -7.2,-14.4 -7.2,-14.41 -7.8,-15 -7.8,-13.79 -7.79,-14.4 -7.81,-13.81 -7.8,-13.79 -7.8,-13.8 -7.8,-12.6 -7.79,-13.2 -7.81,-12 -7.8,-12 -7.2,-12 -7.8,-11.4 -7.8,-11.4 -7.8,-11.4 -7.79,-11.41 -8.41,-11.39 -8.4,-11.4 -9,-12 -9,-12 -9.6,-12 -10.2,-12.6 -10.2,-12.61 -10.8,-13.19 -10.8,-12.6 -12,-13.21 -11.4,-13.19 -12,-13.2 -12.6,-13.2 -12.59,-13.2 -12.61,-13.21 -12.6,-13.19 -13.2,-12.6 -13.2,-13.21 -13.2,-12.59 -13.19,-12.6 -13.81,-12.6 -13.8,-12.6 -12,-10.8 -11.39,-10.2 -12.61,-10.8 -12.6,-10.81 -13.2,-11.39 -13.2,-11.4 -13.8,-11.4 -14.4,-12 -14.4,-12 -15.6,-12.6 -15,-12 -15.6,-12.6 -16.2,-12 -16.2,-12.61 -16.19,-12.59 -16.21,-12 -16.2,-12 -16.2,-11.41 -16.2,-12 -16.19,-10.79 -15.61,-10.8 -15.6,-10.8 -15,-9.61 -15,-9.59 -14.4,-9.6 -14.39,-8.403 -13.81,-8.402 -13.19,-7.797 -13.81,-7.801 -12.6,-7.199 -16.2,-8.403 -16.2,-7.8 -15.6,-7.2 -16.2,-7.199 -15.6,-7.199 -16.2,-6 -16.2,-6 -16.2,-6 -16.19,-4.801 -16.21,-4.801 -16.2,-4.8 -15.59,-4.2 -16.21,-3.597 -15.6,-3 -15,-3 -15,-3 -14.4,-2.403 -14.4,-1.8 -13.8,-1.797 -13.8,-1.203 -12.6,-1.2 -13.19,-1.199 -12.61,-0.601 -12,-0.598 -15,-0.602 -15,-0.597 -15,-0.602 h -94.2 l -15.6,0.602 -15,0.597 h -14.4 l -14.4,0.602 -13.2,0.598 -12.59,0.601 -12,0.602 h -11.41 l -10.2,0.597 -9.6,0.602 h -9 l -13.79,0.598 -13.21,0.601 -11.4,0.602 h -11.39 l -9.61,0.597 h -31.8 l -6,-0.597 H 2925 l -6.6,-0.602 h -6.6 l -6.6,-0.601 h -6.59 l -7.21,-0.598 h -6.6 l -6,-0.602 -6,-0.597 h -6 l -6,-0.602 -5.4,-0.601 -6.6,-0.598 -6,-0.602 -6.6,-0.597 -6.59,-1.203 -6,-0.598 -6,-1.199 -6,-0.602 -5.41,-1.199 -6.59,-1.199 -7.21,-1.203 -7.2,-1.797 -7.8,-1.801 -7.79,-1.801 -7.21,-2.398 -7.2,-1.801 -6,-1.801 -6.59,-2.398 -6.61,-2.403 -7.2,-2.398 -7.19,-3 -7.21,-3 -7.2,-3 -6.59,-3 -6,-3 -5.41,-2.402 -4.8,-3 -5.4,-2.399 -5.39,-3 -6,-3.601 -5.41,-3 -6,-3 -5.4,-3.598 -4.8,-3 -4.8,-3 -4.8,-3 -5.4,-3 -5.39,-3.602 -5.41,-3.597 -6,-3.602 -5.4,-4.199 -6,-3.602 -5.4,-3.597 -4.79,-3.602 -4.81,-3 -4.19,-3 -4.81,-3 -4.8,-3.601 -5.39,-3.598 -6,-4.199 -6.61,-4.801 -7.8,-5.402 -7.8,-6.598 -9,-6.602 -9,-7.199 -10.2,-7.801 -10.8,-8.398 -7.79,-6.602 -9,-6.597 -9,-7.203 -9.61,-7.797 -10.2,-8.403 -10.8,-8.398 -11.39,-9 -11.41,-9 -12,-9.602 -11.4,-9.597 -12,-9 -10.8,-9 -11.39,-8.403 -10.21,-7.8 -10.2,-7.797 -9,-7.203 -9,-6.598 -8.4,-6 -11.4,-7.801 -10.79,-7.199 -10.21,-6.602 -9.6,-6 -9,-5.398 -8.4,-4.801 -8.4,-3.601 -7.2,-3.598 -6.6,-2.402 -6,-2.399 -5.4,-1.801 -5.4,-1.8 -6.6,-2.399 -7.19,-1.801 -6.61,-1.8 -7.8,-2.399 -7.8,-1.801 -7.2,-2.398 -7.8,-1.801 -7.2,-1.199 -6.59,-1.801 -6.61,-1.199 -6.6,-1.199 -6.6,-1.203 -7.19,-1.2 -7.81,-1.199 -7.8,-0.601 -7.2,-0.598 -7.8,-1.199 h -7.2 l -6.6,-0.602 -6.59,-0.601 h -20.41 l -7.8,0.601 h -7.2 l -7.8,0.602 -7.2,0.597 -7.2,1.2 -7.2,0.601 -6,1.199 -6.6,0.602 -6.59,1.199 -7.21,1.801 -7.2,1.801 -7.2,1.797 -7.8,1.8 -6.59,1.801 -7.21,2.399 -6.6,1.8 -6,2.403 -6,1.797 -6.6,3 -6.59,2.402 -7.21,3 -6.6,3 -7.19,3.598 -6.61,3 -6.6,3.601 -6,3 -6,3.602 -6,3 -6,3.597 -6,3.602 -6.6,4.199 -6.6,4.199 -6.59,4.2 -6.61,4.203 -6,4.199 -6,4.199 -5.39,4.199 -5.41,3.602 -6,4.199 -6,4.801 -6,4.801 -6,4.797 -6.59,4.8 -6,4.801 -5.41,4.801 -5.4,4.199 -5.4,4.801 -5.4,4.199 -5.39,4.801 -5.41,4.801 -5.4,4.797 -6,5.402 -6,4.801 -6,4.797 -5.4,4.8 -4.79,4.801 -5.41,4.199 -4.8,4.801 -5.4,4.199 -5.39,4.801 -5.41,4.801 -6,4.801 -6,4.797 -5.4,4.8 -5.4,4.801 -5.4,4.199 -4.8,3.602 -4.8,4.199 -5.4,4.199 -5.39,4.2 -5.41,4.203 -6,4.797 -6,4.203 -5.4,4.199 -6,3.598 -4.8,3.601 -5.39,3.602 -4.81,3.597 -5.4,3 -6,3.602 -6,3.598 -6,3.601 -6,3.602 -6,3.597 -6,3 -5.4,3 -5.39,3 -5.41,2.403 -5.4,3 -6,3 -6.6,2.398 -6,3 -6.59,3 -6.61,2.399 -6,2.402 -6,2.398 -5.39,1.801 -6,2.399 -6,1.8 -6.61,2.403 -6.6,1.797 -6.6,2.402 -7.19,2.398 -6.61,1.801 -6.6,1.801 -6.6,1.801 -6,1.797 -6,1.8 -6.6,1.801 -7.2,1.199 -7.2,1.801 -7.19,1.801 -7.21,1.801 -7.2,1.797 -7.2,1.8 -6.6,1.801 -6.6,1.199 -5.4,1.2 -5.4,1.203 -6.6,1.797 -7.2,1.203 -7.8,1.797 -9,1.8 -9.6,1.801 -10.8,1.801 -12,2.398 -12.6,2.403 -13.79,1.797 -14.41,2.402 -9.59,1.801 -10.21,1.797 -11.4,1.8 -11.39,1.801 -12,1.801 -13.21,2.398 -13.2,1.801 -13.8,2.399 -14.4,2.402 -14.39,2.398 -14.41,2.403 -14.4,2.398 -13.8,2.399 -13.2,2.402 -13.19,1.801 -12,2.398 -12,2.399 -10.805,1.8 -10.2,2.403 -9.601,1.797 -12.602,2.402 -12,3 -11.398,3 -10.199,3 -10.2,2.398 -9,3 -8.402,3 -7.801,3 -7.199,3 -6.598,2.403 -5.402,3 -5.398,2.398 -4.801,3 -4.801,2.399 -6.598,3.601 -6.601,3.602 -6.602,4.199 -7.199,4.199 -7.801,4.801 -7.199,4.199 -6.598,4.801 -7.203,4.199 -6,4.199 -6,4.2 -6,4.8 -6,4.2 -6.597,4.8 -6.602,5.405 -6.598,5.4 -6.601,5.39 -6,5.41 -6,4.8 -5.399,5.4 -5.402,4.8 -5.398,5.4 -4.801,5.4 -5.399,5.4 -5.402,6 -6,6.6 -5.398,6 -4.801,6.6 -4.801,6 -4.801,6 -4.199,5.4 -4.199,6 -4.199,6 -4.2,6.6 -4.203,7.19 -4.797,7.21 -4.203,7.2 -3.597,6.59 -4.2,7.21 -3,6.6 -3.601,6.6 -3,6.59 -3,6.61 -3.602,7.2 -3,7.8 -3,7.8 -3,7.8 -3,7.79 -3,7.81 -2.398,7.19 -1.801,6.61 -2.398,7.2 -2.403,7.19 -1.797,7.81 -2.402,7.8 -1.801,8.39 -2.398,8.41 -1.801,8.4 -1.801,7.8 -1.199,7.2 -1.801,7.8 -0.597,4.8 -1.2,5.4 -1.203,6 -0.597,6.6 -0.602,6.59 -0.598,7.81 -0.601,8.4 v 18.6 l 0.601,10.19 v 10.81 l 1.2,11.4 0.597,12.6 1.801,12.6 0.602,10.2 1.8,10.2 1.2,11.4 1.8,12 1.797,12.6 1.801,13.19 2.402,14.41 2.399,14.4 3,15.6 2.398,15.59 3,16.21 3.602,16.2 3,16.2 3.601,16.2 3.598,15.6 3.602,15.59 3.597,15.61 3.602,14.39 3.601,15 3.598,14.41 3.602,12 3.597,12 3,12 4.203,12.59 3.598,12.61 4.199,12.6 4.203,13.2 4.797,13.2 4.203,13.8 4.797,13.8 5.403,14.4 4.8,14.39 5.399,14.41 5.398,14.4 5.403,14.4 5.398,14.4 5.402,14.39 5.399,14.41 5.398,14.4 5.403,14.4 5.398,13.79 5.402,14.41 5.399,13.8 6,14.4 4.801,13.2 5.398,13.8 5.402,14.39 5.399,14.41 6,14.4 6,15.6 6,15 6.601,16.2 6.598,16.2 6.602,16.19 6.597,16.81 6.602,16.8 7.199,16.2 6.602,16.8 7.199,16.2 6.601,16.19 6.598,16.21 7.199,15 6.602,15 6.601,14.4 6,13.8 6.598,13.8 6,12.6 6,12.6 6,11.4 6,11.4 7.801,14.4 7.199,13.8 7.801,13.8 7.801,13.2 8.398,12.59 7.801,12.61 8.398,12.6 8.403,12 9,12 8.395,11.4 8.41,10.8 8.39,10.8 8.4,9.6 8.4,9.6 7.81,9.59 7.79,8.41 7.8,8.4 7.2,7.8 7.21,7.2 7.19,7.19 8.4,8.41 7.8,7.8 8.4,8.4 8.4,8.39 9,8.41 9,8.4 9,9 9.6,8.4 9.6,8.4 9,9 9.61,8.39 9,7.81 9,7.8 8.39,7.8 8.4,7.2 8.4,7.2 7.81,7.19 8.39,6.61 8.4,7.8 9,7.2 9,7.8 9.6,7.8 9,7.79 10.2,8.41 9.6,8.4 9.6,8.4 10.21,7.79 9.59,8.41 9,7.8 9,7.79 9,7.21 8.41,7.2 8.39,7.2 7.8,6.6 7.81,6.6 7.79,7.19 8.4,7.21 8.4,7.2 8.41,7.2 8.39,7.8 9,8.4 8.4,7.8 9,7.8 8.4,7.8 8.4,7.79 7.8,7.81 7.8,7.8 7.81,7.2 7.19,7.19 7.2,6.61 6.61,7.2 7.19,7.19 7.2,7.81 7.8,7.8 7.81,7.8 7.79,8.4 7.8,8.4 7.8,9 7.8,8.4 8.4,9 7.8,8.39 7.2,8.41 7.2,8.4 7.21,8.4 7.19,7.79 6.6,7.81 6.6,7.8 7.2,8.39 7.2,8.41 7.21,9 7.79,9 7.8,9 8.41,9.59 7.79,10.21 8.4,9.6 8.4,9.6 8.41,10.2 7.79,9 7.8,9.6 7.8,9 7.2,9 7.8,8.4 6.61,8.39 7.19,7.81 7.2,8.4 7.2,8.4 7.8,8.39 7.8,9 7.81,9 8.39,9.61 9,9 8.4,9.6 8.4,9.6 9,9 8.4,9 8.41,9 8.39,8.4 8.4,8.4 7.8,7.8 8.41,8.4 7.19,7.19 7.2,7.21 7.8,7.2 8.4,7.8 8.41,7.79 9.59,7.81 9.6,8.4 9.6,8.4 10.8,8.39 10.8,8.41 11.4,8.4 12,9 12,8.4 12.6,8.4 12.61,7.8 12.59,8.4 13.2,7.8 13.8,7.8 13.8,7.2 14.4,7.8 11.4,6 11.4,6 12.6,6 12.6,6 13.8,6.59 13.8,6 14.4,6.61 15,6.6 15,7.2 16.21,6.59 16.19,6.61 16.2,7.2 16.8,6.6 16.2,7.2 16.8,6.6 16.81,6.6 16.19,6.6 16.2,6.59 16.2,6.61 15,6 15.6,6 14.4,6 14.41,5.39 14.39,5.41 13.8,5.4 z"
       style="fill:none;stroke:#00ffff;stroke-width:27;stroke-linecap:butt;stroke-linejoin:bevel;stroke-miterlimit:10;stroke-dasharray:none;stroke-opacity:1"
       transform="matrix(0.13333333,0,0,-0.13333333,0,620)" />
    <path
       id="path5"
       d="m 3394.2,3355 12,-1.8 12.6,-2.4 13.2,-2.41 12.61,-2.39 13.79,-2.4 13.8,-3 13.8,-3 14.4,-3.6 14.4,-3.61 15,-3.59 14.4,-3.6 15,-4.2 15,-4.2 14.41,-4.2 14.39,-4.21 14.4,-4.79 13.8,-4.21 13.2,-4.79 13.21,-4.21 13.19,-4.79 12.6,-4.8 13.21,-4.8 13.79,-5.4 13.8,-5.4 14.41,-6 14.39,-6 15,-6 14.4,-6.6 15,-6.6 15,-7.2 15,-6.6 15,-7.2 14.4,-7.2 13.81,-6.6 13.79,-6.6 12.6,-6.6 12,-6.61 11.4,-6 10.8,-5.39 9.6,-5.4 9.6,-5.4 8.4,-4.81 11.4,-6.59 10.2,-6 9.6,-6 9,-6 8.4,-6 7.8,-5.41 7.2,-6 6.6,-4.79 6,-4.8 4.8,-4.8 4.81,-4.2 4.19,-4.2 3.6,-4.21 4.21,-3.59 4.79,-5.41 5.4,-6 4.81,-6 6,-6 5.39,-6.59 5.4,-6.6 5.4,-6.6 4.81,-6 4.79,-6 4.8,-6 4.2,-6 4.21,-6 4.79,-6.6 4.21,-7.2 4.79,-6.6 4.8,-7.2 4.2,-7.2 4.21,-7.2 3.59,-6.6 3.6,-6 3,-6.61 3.6,-6.59 3,-7.2 3.6,-7.8 3.61,-7.2 3,-7.8 3,-7.8 2.39,-7.2 3,-7.2 1.8,-6.6 2.4,-7.2 1.8,-7.2 2.4,-7.21 1.8,-7.79 2.41,-8.4 1.79,-7.81 1.21,-8.39 1.79,-7.8 1.21,-7.2 1.19,-7.2 0.6,-7.2 1.21,-7.21 0.59,-7.79 0.6,-8.4 0.6,-8.4 0.6,-8.41 V 2746 l 0.61,-7.8 V 2716 l -0.61,-7.8 v -7.81 l -0.6,-8.39 -0.6,-9 -0.6,-8.4 -1.2,-8.4 -0.6,-7.81 -0.6,-7.79 -1.19,-7.21 -0.61,-5.39 -0.6,-5.4 -1.2,-6 -1.2,-6 -1.8,-6.6 -1.8,-7.8 -1.79,-7.81 -3,-8.39 -3,-9.61 -3,-9.59 -4.21,-10.2 -4.2,-10.21 -4.8,-11.39 -4.79,-12 -4.21,-9 -4.79,-9.61 -4.81,-10.19 -4.8,-10.81 -6,-11.39 -6,-12 -6.6,-13.2 -6.6,-13.2 -7.8,-13.8 -7.2,-13.8 -7.8,-14.4 -8.39,-14.4 -7.81,-14.4 -8.4,-14.41 -7.79,-13.79 -8.41,-13.8 -8.4,-13.2 -7.8,-13.21 -8.39,-13.19 -7.81,-12.6 -8.4,-12 -8.4,-12.6 -8.39,-12.61 -9,-12.59 -9,-12.6 -9,-12.6 -9.61,-12.6 -9.6,-12.61 -9,-12.59 -9.6,-12.6 -9,-12 -9,-12 -9,-10.81 -8.4,-10.79 -7.79,-9.6 -7.21,-9.61 -7.2,-8.39 -6,-8.4 -6,-7.8 -6,-7.2 -8.4,-10.8 -7.8,-9.6 -7.2,-9.6 -6.6,-9 -6.59,-7.8 -5.41,-7.8 -4.8,-6.61 -4.2,-6 -3.59,-5.39 -3.61,-4.8 -3,-4.81 -3,-4.19 -3,-4.81 -3.6,-4.79 -3.6,-5.4 -3.6,-6 -4.2,-5.4 -3.6,-6 -3.6,-5.41 -3.6,-5.39 -3,-5.4 -3,-4.8 -3,-4.8 -3,-4.8 -3.59,-5.4 -3,-6 -3,-5.41 -3.61,-6 -3,-5.39 -2.39,-5.4 -3,-4.8 -2.41,-5.41 -3,-6 -3,-6.59 -3,-7.2 -3,-7.21 -3,-7.19 -2.4,-7.2 -2.4,-6.61 -2.4,-6.59 -1.8,-6 -1.8,-7.2 -2.4,-7.21 -1.8,-7.79 -1.8,-7.8 -1.79,-7.2 -1.21,-7.21 -1.2,-6.59 -1.2,-5.41 -0.6,-6 -1.2,-6 -0.59,-6 -1.21,-6.59 -0.6,-6.6 -0.6,-6 -0.59,-6.6 -0.61,-5.4 -0.6,-6 v -6 l -0.6,-6 -0.6,-6 v -6.6 l -0.59,-7.21 v -6.59 l -0.61,-6.6 v -6.6 l -0.6,-6.6 v -16.2 l -0.6,-6 V 1573 l 0.6,-9.61 V 1552 l 0.6,-11.4 0.61,-13.21 0.59,-13.79 v -9 l 0.6,-9.6 0.6,-10.2 v -11.41 l 0.6,-12 0.61,-12.59 0.59,-13.2 0.6,-14.4 v -14.4 l 0.6,-15 0.6,-15.6 V 1282 l -0.6,-15 -0.6,-15 -0.6,-15 -0.59,-13.2 -1.21,-13.8 -0.6,-13.8 -1.19,-14.4 -1.81,-15 -1.19,-15 -1.81,-15 -1.8,-15.6 -2.39,-16.2 -1.81,-16.2 -2.4,-16.2 -3,-16.21 -2.4,-16.19 -3,-16.2 -3,-16.2 -3,-15.605 -3,-15 -3,-15 -3.6,-15 -3.6,-14.398 -3,-13.801 -3.6,-14.398 -3.59,-13.801 -4.21,-14.402 -3.6,-14.399 -4.8,-15 -4.2,-15 -4.8,-15 -4.8,-15.601 -5.4,-15.598 -4.8,-15.602 -6,-15.597 -5.39,-15.602 -5.41,-15.601 -6,-15 -6,-15 -5.4,-14.399 -6,-13.801 -5.4,-13.8 -6,-12.598 -5.4,-12.602 -5.39,-11.398 -5.41,-11.402 -5.4,-10.797 -6,-11.403 -6,-11.398 -6.6,-11.402 -6.59,-10.797 -6.61,-11.403 -6.6,-10.8 -7.2,-10.797 -7.2,-10.801 -7.2,-10.801 -7.8,-10.199 -7.2,-10.199 -7.8,-10.203 -7.2,-9 -7.19,-9.598 -7.81,-8.402 -7.19,-9 -6.61,-7.797 -7.2,-7.801 -7.19,-7.801 -6.61,-7.199 -7.8,-8.402 -7.8,-8.399 -8.4,-8.398 -8.39,-8.403 -9,-9 -9,-8.398 -9,-9 -9.61,-9 -10.2,-9 -9.6,-9 -9.59,-9 -10.21,-8.402 -9.6,-8.399 -9,-7.801 -9.6,-7.8 -9,-7.2 -9,-7.199 -9,-7.199 -9,-6.602 -9.59,-6.597 -9.61,-7.203 -9.6,-7.2 -10.2,-6.597 -10.8,-7.203 -10.79,-7.2 -10.81,-7.199 -11.4,-7.199 -11.4,-6.602 -11.39,-6.597 -11.41,-6.602 -10.8,-6.601 -10.79,-6 -10.81,-5.399 -10.19,-5.398 -10.81,-5.403 -9.6,-4.8 -10.8,-5.399 -10.2,-4.801 -10.8,-4.8 -10.79,-4.797 -11.41,-4.801 -12,-4.8009 -12,-4.8008 -12,-4.1992 -12.59,-4.8008 -12.61,-4.1992 -12.6,-4.1992 -12,-4.1992 -12.6,-4.2032 -11.4,-3 -12,-3.5976 -10.79,-3 -11.41,-3 -10.8,-3 -11.4,-2.4024 -10.8,-2.3984 -12,-2.3984 -11.4,-2.4024 -12.6,-1.8008 -12,-2.3984 -13.2,-1.8008 -13.2,-1.8008 -13.19,-1.7968 -12.61,-1.8008 -13.2,-1.1992 -13.19,-1.2032 -12.61,-1.1992 -12.6,-1.1992 -12,-0.6016 -11.4,-0.5976 -11.39,-0.6016 h -58.21 l -12.6,0.6016 -12.6,0.5976 -13.2,0.6016 -13.2,1.1992 -13.19,0.6016 -13.21,1.1992 -13.2,1.8008 -12.59,1.1992 -12.61,1.1992 -12.6,1.8008 -12,1.8008 -11.4,1.8008 -11.39,1.7968 -11.41,1.8008 -10.8,2.4024 -11.4,2.3984 -11.39,2.3984 -12,2.4024 -12,3 -12.61,3 -12.6,3 -12.6,3 -12.6,3.5976 -12.59,3.6016 -12.61,3.6016 -12.6,4.1992 -12,3.5976 -12,3.6016 -11.4,3.6016 -10.8,4.1992 -10.8,3.5976 -10.79,3.6015 -9,3.602 -8.41,3 -9,3.597 -9,3.602 -9.59,4.199 -10.21,4.199 -10.2,4.2 -10.8,4.8 -10.79,5.403 -11.41,5.398 -12,6 -12.59,6 -12,6.602 -13.21,6.597 -13.2,7.2 -13.2,7.203 -13.8,7.797 -13.8,7.8 -13.79,7.801 -14.41,8.399 -15,9 -15,9 -12.59,7.8 -12.61,7.801 -13.2,8.399 -13.8,9 -14.39,9 -15,9.601 -15,10.199 -15.61,10.2 -16.2,10.8 -16.8,10.801 -16.8,12 -16.8,11.399 -17.4,12 -17.39,12.601 -16.81,12 -17.4,12.602 -16.79,12.597 -16.81,12.602 -16.19,12 -15.61,12.598 -15,12 -15,12 -14.39,12 -13.81,11.402 -13.19,11.398 -12.61,11.403 -12,10.797 -11.39,10.8 -13.21,12.602 -12.6,13.199 -12,12.602 -11.4,12.597 -11.4,13.2 -10.8,13.203 -10.8,13.797 -10.2,13.8 -10.2,13.801 -9.6,13.801 -9,13.801 -9,13.797 -8.4,13.8 -8.39,13.801 -7.21,13.801 -7.2,13.801 -6.59,12.597 -6,13.2 -6,12.601 -5.41,12.602 -5.4,12 -4.8,12 -4.8,11.398 -4.2,11.399 -5.39,14.402 -5.41,13.801 -4.8,14.398 -4.79,14.399 -5.41,15 -4.8,15 -4.79,15 -4.81,15 -4.8,15 -4.2,14.995 -4.19,14.41 -4.21,13.8 -4.2,13.79 -3.59,13.21 -3.61,12 -3,11.4 -3,10.8 -2.39,10.2 -3,9 -2.41,9 -3.59,13.2 -3.61,12.6 -3,11.4 -3.6,10.19 -3,9.61 -2.4,9 -3,7.8 -1.8,7.2 -2.4,6.6 -1.8,5.4 -1.8,4.8 -1.8,4.8 -1.79,6 -2.41,5.4 -2.4,6 -2.4,6.6 -2.4,6.6 -2.39,6 -2.41,6.6 -1.8,5.4 -2.4,6 -2.39,5.4 -2.41,4.79 -1.8,6 -2.4,5.41 -3,6 -2.39,6 -3,5.4 -3,6 -2.41,5.4 -2.4,5.4 -3,4.8 -3,6 -3.6,6 -4.2,6.59 -3.6,7.21 -4.79,6.6 -4.21,6 -3.6,6 -4.19,5.4 -4.21,6 -4.2,5.4 -4.8,6 -4.79,6 -5.41,6 -4.8,6 -4.79,4.8 -4.81,5.4 -3.6,3.6 -4.2,4.2 -4.2,4.2 -4.8,4.19 -4.8,4.81 -4.8,4.19 -4.79,4.21 -4.81,4.2 -4.19,4.2 -4.21,3.6 -4.795,3.6 -4.8,4.19 -4.801,3.61 -4.801,4.2 -5.398,4.19 -5.403,4.81 -5.398,4.19 -5.399,3.61 -4.8,4.2 -4.801,3.6 -3.602,3 -4.199,3.59 -4.801,3.61 -5.398,3.6 -6,4.2 -6.602,5.4 -7.797,4.8 -8.402,6 -9,6 -9.598,7.2 -10.8,6.6 -11.403,7.8 -8.398,5.4 -9,6 -9.602,6.6 -10.797,6.6 -10.8,7.19 -11.403,7.81 -12,7.8 -12.597,8.39 -12.602,8.41 -12.598,8.4 -12,7.8 -12,8.39 -11.402,7.81 -10.801,7.19 -10.797,7.21 -9.601,6.6 -8.399,6.6 -8.402,6 -11.398,8.4 -10.2,7.8 -9.601,7.8 -8.399,7.2 -7.8,7.2 -7.2,6.6 -6,6.59 -5.402,6 -4.801,5.41 -4.199,4.8 -3.598,4.79 -3,4.81 -4.203,5.4 -4.199,6 -4.199,6 -4.199,6.6 -4.2,6.6 -4.203,6.59 -4.199,6.61 -3.598,6 -3.601,6 -3,6 -3.602,6 -3,6 -3.597,6.6 -3,6.6 -3.602,7.19 -3,6.61 -3,7.2 -2.398,6.6 -3,6.59 -1.801,6 -2.399,6 -1.8,6.61 -2.403,7.2 -1.797,6.6 -1.8,7.8 -1.801,7.2 -1.801,7.2 -1.801,7.2 -1.199,6.6 -0.598,6.59 -1.203,6 -0.597,7.21 -1.2,7.2 -0.601,7.2 -0.602,7.8 v 7.2 l -0.597,7.8 v 13.8 l 0.597,6.6 v 6.6 l 0.602,6.59 v 7.21 l 1.199,7.79 0.602,7.81 0.597,7.19 1.203,7.81 1.2,7.19 1.199,6.61 1.199,6.6 1.199,6.6 1.801,6.6 1.199,7.2 1.801,7.8 2.402,7.2 1.797,7.8 2.403,7.2 1.8,7.2 2.399,7.19 1.801,6 2.398,6.61 1.801,6.6 2.398,7.2 3,7.2 2.403,7.2 3,7.8 3,7.2 2.398,6.6 2.402,6.59 3,6.61 2.399,6 2.398,6.6 3,6.6 3,7.19 3,7.21 3,7.2 3,7.2 3,6.6 2.403,6.6 3,6 2.398,6 2.402,6.6 3,6.59 2.399,6.61 3,7.2 3,6.6 3,7.2 2.398,6.6 2.403,6 2.398,6 1.801,6 2.398,6 2.403,6.6 2.398,6.6 2.402,6.59 2.399,7.21 1.801,6.6 2.398,6.6 1.801,6 1.801,6 1.8,6 1.2,6 1.8,6.59 1.797,6.61 1.203,7.2 1.797,6.6 1.203,6.59 1.2,6.61 1.199,6 1.199,6 0.602,6.6 1.199,6 0.601,6.6 0.598,6.6 0.602,7.2 0.597,7.2 0.602,6.6 0.601,7.2 0.598,6 v 12.6 l 0.602,6.6 v 21 l -0.602,7.19 v 13.81 l -0.598,6.6 v 6.59 l -0.601,6 v 6.61 l -0.602,7.2 -0.597,7.19 -0.602,7.81 -0.598,7.19 -0.601,7.81 -0.602,6.6 -0.597,7.2 v 6.6 l -0.602,5.4 -0.598,6 -0.601,6.6 -1.199,7.2 -0.602,7.8 -1.199,9 -1.199,10.2 -1.801,10.8 -1.199,12 -1.801,12.6 -2.399,13.8 -1.8,14.39 -1.801,9.61 -1.801,10.2 -1.801,11.4 -1.797,11.4 -1.8,12.6 -1.801,12.6 -2.399,13.8 -1.8,13.8 -2.403,13.8 -2.398,14.4 -1.801,14.39 -2.398,14.41 -1.801,13.8 -2.399,13.79 -1.8,12.61 -1.801,12.6 -1.199,12 -1.2,10.79 -1.8,10.21 -0.602,10.2 -1.801,12.59 -0.597,12.61 -1.2,11.39 v 10.81 l -0.601,10.19 V 3169 l 0.601,8.39 0.598,7.81 0.602,6.6 0.597,6.59 1.203,6 1.2,5.41 0.597,4.8 1.801,7.79 1.199,7.21 1.801,7.79 1.801,8.41 2.398,8.4 1.801,8.4 2.402,7.79 1.797,7.81 2.403,7.19 2.398,7.21 1.801,6.6 2.398,7.19 3,7.81 3,7.8 3,7.8 3,7.8 3,7.79 3.602,7.21 3,6.6 3,6.6 3.601,6.59 3,6.61 4.2,7.2 3.597,6.6 4.203,7.2 4.797,7.2 4.203,7.19 4.2,6.61 4.199,6 4.199,6 4.199,5.39 4.801,6 4.801,6 4.801,6.61 5.398,6 6,6.6 5.402,6 5.399,5.4 4.801,5.39 5.398,5.41 5.402,4.8 5.399,5.4 6,4.8 6,5.4 6.601,5.4 6.598,5.4 6.602,5.39 6.597,4.81 6,4.19 6,4.81 6,4.19 6,4.21 7.203,4.2 6.598,4.8 7.199,4.2 7.801,4.8 7.199,4.2 6.602,4.2 6.601,3.6 6.598,3.6 4.801,2.4 4.801,3 5.398,2.4 5.402,3 6.598,2.39 7.199,3 7.801,3 8.402,3 9,3 10.2,2.41 10.199,3 11.398,3 12,3 12.602,2.4 9.601,1.8 10.2,2.39 11.395,1.81 11.41,2.4 12.59,2.4 13.8,1.8 13.8,2.4 15,2.4 15.6,1.79 15.6,2.41 16.2,1.8 16.8,2.4 16.2,1.8 16.2,1.8 16.21,1.79 16.19,1.21 15.6,1.2 15,1.2 15,1.2 15,0.6 12.6,0.59 12.61,0.61 h 12.59 l 12.6,0.6 h 69 l 15,-0.6 h 15 l 15,-0.61 15.6,-0.59 15,-0.6 15.6,-0.6 15.61,-0.6 15,-0.61 15.59,-0.59 15,-1.2 15,-0.6 15.6,-0.61 15,-1.19 15,-0.6 15.6,-1.21 15,-0.59 16.21,-0.6 16.19,-1.2 16.81,-1.2 17.39,-0.6 18,-1.2 18,-1.2 18.61,-1.2 18.59,-1.21 19.2,-1.19 19.21,-1.2 19.19,-1.2 18.6,-1.2 18.6,-1.21 18.61,-1.79 17.39,-1.21 17.4,-1.19 16.21,-1.81 16.19,-1.19 15,-1.81 14.4,-1.19 13.2,-1.2 13.21,-1.8 12.59,-1.81 15.6,-1.79 15,-2.4 13.81,-2.4 13.79,-2.41 13.21,-2.39 13.19,-3 12,-2.4 12,-3 10.81,-3 10.79,-3 10.21,-3 9,-3.6 9,-3 8.39,-3 7.2,-3 7.8,-2.4 6.61,-3 7.19,-3 8.4,-3.6 9,-3.61 9,-4.19 9,-3.6 9.6,-4.21 9.6,-4.19 9.6,-4.2 9.61,-4.2 9.59,-4.2 9.6,-4.21 8.4,-4.19 9,-3.6 7.8,-3.6 8.4,-3.61 7.8,-3.59 7.8,-3.6 8.4,-3.6 9,-3.6 8.4,-3.61 9,-3.59 9.6,-4.2 9,-3.6 8.4,-3.61 9,-3.59 8.4,-3 7.8,-3 7.8,-3 7.81,-3 7.19,-3 7.81,-2.41 8.39,-3 7.8,-2.39 8.4,-3 9,-3 9,-2.4 8.41,-3 9,-2.4 8.39,-2.4 7.8,-2.41 8.4,-1.79 7.8,-2.4 7.2,-1.81 7.8,-1.79 7.8,-1.8 7.81,-1.2 8.39,-1.8 9,-1.8 8.4,-1.8 9.6,-1.2 9,-1.8 9,-1.2 8.4,-1.8 9,-1.2 8.4,-1.2 7.81,-0.6 8.39,-1.2 7.8,-1.2 8.4,-0.6 8.41,-0.6 9,-1.21 9.59,-0.59 9.6,-1.2 9.6,-0.6 9.6,-0.61 9.61,-0.59 9.59,-1.2 9.6,-0.6 9,-0.61 h 9 l 8.4,-0.59 9,-0.6 9,-0.6 9,-0.6 9.6,-0.61 10.2,-0.59 10.2,-0.6 10.8,-0.6 10.2,-0.6 10.8,-0.61 10.2,-0.59 10.2,-0.6 9.6,-0.6 9.61,-0.6 9.59,-0.61 8.41,-0.59 8.39,-1.2 8.4,-0.6 9.6,-0.61 9.61,-0.59 10.19,-1.2 10.2,-0.6 10.8,-1.2 11.4,-0.6 11.41,-1.2 12,-0.61 11.39,-1.19 12,-0.6 12,-1.21 12,-0.59 12.61,-1.2 10.19,-0.6 10.81,-0.61 11.39,-0.59 11.4,-0.6 12.6,-0.6 12.61,-1.21 13.79,-0.59 13.8,-1.2 14.41,-1.21 15,-1.19 14.39,-1.2 15,-1.2 15,-1.2 15,-1.8 15,-1.2 14.4,-1.8 13.8,-1.8 14.41,-1.8 13.79,-1.81 z"
       style="fill:none;stroke:#ff0000;stroke-width:27;stroke-linecap:butt;stroke-linejoin:bevel;stroke-miterlimit:10;stroke-dasharray:none;stroke-opacity:1"
       transform="matrix(0.13333333,0,0,-0.13333333,0,620)" />
    <path
       id="path6"
       d="m 3810.61,2530.6 9.59,-12 9.6,-12 9.6,-11.4 9.6,-12 9.61,-11.4 9.59,-12 9.6,-12 9.6,-12 9.6,-12 9.61,-12 9.59,-12.6 9.6,-12 9,-12 9,-12 9,-11.4 8.4,-12 8.41,-10.8 8.39,-11.4 7.8,-10.8 7.81,-10.8 7.19,-10.8 7.2,-10.2 6.61,-10.8 7.19,-10.2 6.6,-10.2 6.6,-10.8 7.2,-10.8 6.6,-11.4 6.6,-12 6.6,-12 7.2,-12.6 6.6,-13.2 6.6,-13.2 6.6,-14.41 6.61,-14.39 6,-15 6,-15.61 6,-15.59 6,-16.2 4.79,-16.21 5.4,-16.19 4.2,-16.81 4.2,-16.19 4.2,-16.81 3.6,-17.39 3,-17.4 3,-17.4 3,-18 1.8,-15.6 1.81,-16.21 1.79,-16.79 1.21,-17.4 1.79,-18 1.21,-18.6 0.59,-18.6 1.2,-19.8 0.6,-19.81 0.61,-19.79 v -21 l 0.59,-20.4 v -62.4 l -0.59,-20.41 V 1579 l -0.61,-19.2 -0.6,-19.2 -0.6,-19.21 -0.6,-18 -0.59,-16.79 -0.61,-16.8 -0.6,-16.2 -1.2,-15 -0.59,-14.4 -0.61,-13.81 -1.2,-13.19 -1.19,-19.2 -1.21,-18 -1.2,-16.8 -1.2,-16.81 -1.8,-15 -1.2,-15 -1.2,-13.79 -1.8,-12.6 -1.2,-12.61 -1.8,-11.39 -1.8,-10.2 -1.2,-9.6 -1.8,-9 -1.8,-8.4 -1.2,-7.2 -1.8,-7.21 -1.2,-6.59 -1.8,-6.6 -1.79,-8.4 -2.41,-8.41 -2.4,-9 -2.4,-9 -2.4,-9.59 -3,-9.6 -3,-9.6 -3,-9.6 -3,-9.61 -3,-9 -3,-9 -3,-8.39 -3,-8.4 -3,-8.4 -3,-7.81 -3,-8.39 -3.6,-8.4 -3.6,-8.4 -4.19,-9 -3.61,-9 -4.2,-9.005 -4.8,-9 -4.2,-8.398 -4.19,-9 -4.21,-7.801 -4.2,-8.398 -4.2,-7.203 -4.2,-7.797 -4.8,-7.203 -4.2,-7.2 -4.8,-7.8 -5.39,-7.797 -4.81,-7.801 -5.4,-8.402 -6,-7.797 -6,-8.403 -5.4,-7.8 -6,-7.797 -5.39,-7.203 -6,-7.2 -5.41,-6.597 -5.4,-6.602 -5.4,-6.601 -6,-6 -6,-7.2 -6.6,-6.597 -6.6,-6.602 -6.59,-7.199 -7.21,-7.199 -7.2,-6.602 -7.2,-7.199 -7.2,-6 -7.19,-6.602 -6.61,-6 -6.6,-5.398 -6.6,-5.402 -6.6,-5.399 -7.2,-5.398 -6.6,-5.403 -7.79,-5.398 -7.81,-6 -7.8,-5.402 -8.39,-6 -8.41,-5.399 -8.4,-5.398 -7.8,-5.403 -7.8,-4.8 -7.8,-4.797 -7.79,-4.203 -7.21,-4.797 -7.2,-4.203 -7.8,-4.2 -8.4,-4.199 -7.8,-4.199 -9,-4.801 -9,-4.199 -9,-4.199 -9,-4.801 -9,-4.199 -8.4,-3.602 -9,-4.199 -8.4,-3.602 -7.79,-3.597 -7.81,-3 -7.19,-3 -7.21,-3 -7.79,-3 -7.81,-3 -8.4,-2.403 -9,-3 -9.6,-3 -10.19,-3 -10.81,-2.398 -10.8,-3 -11.39,-2.402 -12,-2.399 -12,-1.801 -12.61,-1.8 -13.2,-1.797 -13.19,-1.801 -10.81,-1.199 -10.8,-1.203 -11.39,-1.2 -12,-0.597 -12.61,-1.203 -13.8,-0.598 -13.8,-0.602 -15,-1.199 -15,-0.601 h -15.6 l -16.19,-0.598 -15.61,-0.602 h -65.39 l -15.61,0.602 h -15.6 l -15,0.598 -15,0.601 -15,0.602 -14.4,1.199 -14.39,0.598 -14.41,1.203 -15,1.199 -15,1.801 -15,1.199 -15.59,1.801 -15.61,2.398 -16.2,1.801 -16.19,2.398 -16.21,2.403 -16.2,2.398 -16.2,3 -16.2,3 -15.6,3 -15.59,3 -15,3 -15,3 -14.41,3.602 -13.8,3 -13.79,3.597 -13.21,3 -13.2,3.602 -14.4,4.199 -14.4,4.199 -14.4,4.2 -15,4.8 -14.39,4.2 -15,4.8 -15,5.403 -15,4.797 -15,5.402 -15,4.801 -13.81,5.398 -13.8,4.801 -13.8,4.801 -12.59,4.797 -11.41,4.203 -11.4,4.199 -10.8,3.598 -9.6,3.601 -9,3.602 -8.4,3 -13.2,4.797 -12,4.8 -10.8,3.602 -10.2,3.598 -9.6,3.601 -9,3 -7.8,2.399 -7.2,2.402 -6.59,1.801 -5.41,1.797 -4.8,1.203 -4.79,1.797 -6,1.203 -6,1.797 -6,1.8 -6.61,1.801 -6.6,1.801 -6.6,1.801 -6.6,1.797 -6,1.8 -6,1.2 -5.4,1.203 -6,1.797 -6,1.203 -6,1.199 -6,1.199 -6.6,1.199 -6.59,1.801 -6,0.602 -6,1.199 -5.41,1.199 -5.4,0.602 -7.19,0.597 -7.21,1.2 -7.2,0.601 -7.8,0.602 -7.79,0.597 h -7.81 l -7.19,0.602 h -13.21 l -7.2,-0.602 h -7.8 l -7.79,-0.597 -7.81,-0.602 -7.8,-0.601 -7.2,-1.2 -6.6,-0.597 -5.4,-0.602 -6,-1.199 -6,-1.199 -6,-0.602 -6.6,-1.801 -6.59,-1.199 -6,-1.199 -6,-1.199 -6,-1.203 -5.41,-1.797 -6,-1.203 -6,-1.2 -6,-1.8 -6.59,-1.797 -6.61,-1.801 -6.6,-1.801 -6.6,-1.801 -6,-1.8 -6,-1.797 -5.4,-1.203 -5.4,-1.797 -4.8,-1.203 -5.4,-1.797 -6.6,-1.801 -7.2,-2.402 -7.8,-2.399 -9,-3 -9.59,-3.601 -10.21,-3.598 -10.79,-3.602 -12,-4.8 -13.21,-4.797 -8.4,-3 -9,-3.602 -9.6,-3.601 -10.79,-3.598 -11.41,-4.199 -11.4,-4.203 -12.6,-4.797 -13.8,-4.801 -13.79,-4.801 -13.81,-5.398 -15,-4.801 -15,-5.402 -15,-4.797 -15,-5.403 -15,-4.8 -14.4,-4.2 -15,-4.8 -14.4,-4.2 -14.39,-4.199 -14.41,-4.199 -14.4,-3.602 -15,-3.597 -14.4,-3.602 -15.6,-3.601 -15.6,-3.598 -15.59,-3.602 -16.21,-3.597 -16.2,-3 -16.2,-3.602 -16.2,-3 -15.6,-2.398 -15.59,-3 -14.41,-2.403 -14.4,-2.398 -13.19,-1.801 -12.61,-1.801 -12,-1.8 -11.39,-1.2 -10.21,-1.8 -10.2,-0.598 -12.59,-1.801 -12.61,-0.601 -11.39,-1.2 h -10.81 l -10.19,-0.597 H 1383 l -8.39,0.597 -7.81,0.602 -6.6,0.598 -6.59,0.601 -6,1.199 -5.41,1.2 -4.8,0.601 -7.79,1.801 -7.21,1.199 -7.79,1.801 -8.41,1.801 -8.4,2.398 -8.4,1.801 -7.79,2.398 -7.81,1.801 -7.19,2.399 -7.21,2.402 -6.6,1.801 -7.19,2.398 -7.81,3 -7.8,3 -7.8,3 -7.8,3 -7.79,3 -7.21,3.602 -6.6,3 -6.6,3 -6.59,3.597 -6.61,3 -7.2,4.2 -6.6,3.601 -7.2,4.199 -7.2,4.801 -7.19,4.199 -6.61,4.2 -6,4.203 -6,4.199 -5.39,4.199 -6,4.801 -6,4.801 -6.61,4.797 -6,5.402 -6.6,6 -6,5.398 -5.4,5.403 -5.39,4.797 -5.41,5.402 -4.8,5.398 -5.4,5.403 -4.8,6 -5.4,6 -5.4,6.597 -5.4,6.602 -5.39,6.598 -4.81,6.601 -4.19,6 -4.81,6 -4.19,6 -4.21,6 -4.197,7.199 -4.801,6.602 -4.199,7.199 -4.801,7.801 -4.199,7.199 -4.199,6.602 -3.602,6.597 -3.597,6.602 -2.403,4.801 -3,4.797 -2.398,5.402 -3,5.398 -2.399,6.602 -3,7.199 -3,7.801 -3,8.398 -3,9 -2.402,10.2 -3,10.203 -3,11.398 -3,12 -2.398,12.602 -1.801,9.597 -2.399,10.2 -1.8,11.402 -2.403,11.398 -2.398,12.605 -1.801,13.8 -2.398,13.79 -2.403,15 -1.797,15.61 -2.402,15.6 -1.801,16.2 -2.398,16.8 -1.801,16.2 -1.801,16.2 -1.797,16.2 -1.203,16.19 -1.199,15.61 -1.199,15 -1.199,15 -0.602,15 -0.598,15 -0.601,15 -0.602,15 v 94.2 l 0.602,15.6 0.601,15 v 14.4 l 0.598,14.4 0.602,13.2 0.597,12.59 0.602,12 v 11.41 l 0.601,10.2 0.598,9.6 0.602,9 v 13.79 l 0.597,13.21 0.602,11.4 v 11.39 l 0.601,9.61 v 31.8 l -0.601,6 v 16.2 l -0.602,6.6 v 6.6 l -0.597,6.6 v 6.59 l -0.602,7.21 v 6.6 l -0.598,6 -0.601,6 v 6 l -0.602,6 -0.597,5.4 -0.602,6.6 -0.598,6 -0.601,6.6 -1.199,6.59 -0.602,6 -1.199,6 -0.602,6 -1.199,5.41 -1.199,6.59 -1.199,7.21 -1.801,7.2 -1.801,7.8 -1.801,7.79 -2.398,7.21 -1.801,7.2 -1.801,6 -2.398,6.59 -2.399,6.61 -2.402,7.2 -3,7.19 -3,7.21 -3,7.2 -3,6.59 -3,6 -2.398,5.41 -3,4.8 -2.403,5.4 -3,5.39 -3.597,6 -3,5.41 -3,6 -3.602,5.4 -3,4.8 -3,4.8 -3,4.8 -3,5.4 -3.598,5.39 -3.601,5.41 -3.602,6 -4.199,5.4 -3.598,6 -3.601,5.4 -3.602,4.79 -3,4.81 -3,4.19 -3,4.81 -3.597,4.8 -3.602,5.39 -4.199,6 -4.801,6.61 -5.398,7.8 -6.602,7.8 -6.598,9 -7.203,9 -7.797,10.2 -8.402,10.8 -5.398,7.2 -6,7.8 -6.602,7.79 -7.199,9 -7.199,9 -7.801,10.21 -8.399,10.79 -8.402,10.81 -9,11.4 -9.598,12 -9,12.6 -9.601,12.6 -9.602,12.59 -9,12.61 -9.597,13.2 -9,12.6 -8.403,12.59 -9,12 -7.797,12.61 -8.402,12.6 -8.398,12.6 -7.801,12.6 -8.399,13.2 -7.8,13.2 -8.403,13.8 -8.398,14.39 -7.801,13.81 -8.398,14.4 -7.801,14.4 -7.801,14.39 -7.801,14.41 -7.199,13.8 -7.199,13.2 -6.602,12.59 -6,12.61 -5.398,11.39 -5.399,10.81 -4.8,10.19 -4.801,9.61 -3.602,9 -5.398,12 -4.801,10.8 -4.199,10.8 -4.199,10.2 -3,9.59 -3,9.61 -3,8.39 -1.801,7.81 -1.801,7.8 -1.801,6.6 -1.199,6 -1.199,6 -0.602,5.4 -0.597,5.39 -1.2,7.21 -0.601,7.79 -0.602,7.81 -1.199,8.4 -0.598,8.4 -0.601,9 -0.602,8.39 v 7.81 l -0.597,7.8 v 22.2 l 0.597,7.8 v 8.39 l 0.602,8.41 0.601,8.4 0.598,8.4 0.602,7.79 1.199,7.21 1.199,7.2 0.602,7.2 1.199,7.2 1.801,7.8 1.199,8.39 1.801,7.81 2.398,8.4 1.801,7.79 2.398,7.21 1.801,7.2 2.402,7.2 1.797,6.6 3,7.2 2.403,7.2 3,7.8 3,7.8 3.597,7.2 3.602,7.8 3,7.2 3.601,6.59 3.598,6.61 3,6 3.602,6.6 4.199,7.2 4.199,7.2 4.801,7.2 4.801,6.6 4.199,7.2 4.801,6.6 4.199,6 4.801,6 4.199,6 4.801,6 4.8,6 5.399,6.6 5.398,6.6 5.403,6.59 6,6 4.8,6 5.399,6 5.398,5.41 3.602,3.59 3.601,4.21 4.2,4.2 4.8,4.2 4.797,4.8 6,4.8 6.602,4.79 7.199,6 7.801,5.41 8.398,6 9,6 9.602,6 10.199,6 11.402,6.59 7.797,4.81 8.403,4.19 9,4.81 9,5.4 10.199,5.4 10.801,5.39 11.398,6 11.402,6 12.598,6 12.602,6 13.199,6.61 13.199,6.6 13.801,6 13.801,6.6 13.8,6 13.2,6 13.8,6 13.2,5.4 13.199,5.4 12.601,5.39 12.598,4.81 13.199,4.8 13.801,5.39 13.801,5.41 14.398,4.8 14.403,4.79 15,5.41 15,4.8 15,4.79 15,4.81 14.995,4.8 15,4.2 14.4,4.19 13.8,4.21 13.8,4.2 13.2,3.59 12,3.61 11.4,3 10.8,3 10.2,2.39 9,3 9,2.41 13.21,3.59 12.59,3.61 11.41,3 10.19,3.6 9.6,3 9,2.4 7.8,3 7.2,1.8 6.6,2.4 5.4,1.8 4.8,1.8 4.8,1.8 6,1.79 5.4,2.41 6,2.4 6.6,2.4 6.61,2.4 6,2.39 6.59,2.41 5.41,1.8 6,2.4 5.39,2.39 4.8,2.41 6,1.8 5.4,2.4 6,3 6,2.39 5.41,3 6,3 5.39,2.41 5.4,2.4 4.8,3 6,3 6,3.6 6.6,4.2 7.2,3.6 6.61,4.79 6,4.21 6,3.6 6,4.19 5.39,4.21 5.4,4.2 6,4.8 6,4.79 6,5.41 6,4.8 4.8,4.79 5.41,4.81 3.59,3.6 4.2,4.2 4.21,4.2 4.19,4.8 4.81,4.8 4.19,4.8 4.2,4.79 4.2,4.81 4.2,4.19 3.6,4.21 3.61,4.79 4.19,4.81 3.6,4.8 4.21,4.8 4.19,5.4 4.81,5.4 4.19,5.4 3.6,5.39 4.21,4.81 3.59,4.8 3,3.6 3.6,4.2 3.6,4.8 3.6,5.4 4.2,6 5.41,6.6 4.79,7.79 6,8.41 6,9 7.21,9.59 6.59,10.81 7.8,11.4 4.8,7.79 5.4,7.81 6,8.4 6,9.6 6.6,10.19 7.2,10.21 7.2,11.4 7.8,11.39 8.4,12 9,12.61 8.4,12.6 9,13.2 9.6,12.59 9,13.21 9.6,12.6 9,12.6 9,12 9.61,12 9,12 9.59,11.4 9,12 10.2,11.4 9.6,12 10.2,11.4 10.8,12.6 10.8,12 10.81,12 11.39,12 10.8,12 11.4,12 11.41,12 10.79,10.79 10.21,10.81 10.19,10.19 9.6,9.61 9.6,9 8.4,8.39 8.4,7.81 7.81,6.6 7.19,6.59 9.6,9 9.6,7.81 8.4,7.8 8.4,6.6 8.4,6 7.8,6 7.2,4.79 7.2,4.81 6.6,4.19 6,3.61 5.4,3 5.4,2.39 4.81,2.41 4.79,2.4 6.6,3 7.2,3 7.2,3.6 7.8,3 7.8,3.59 8.4,3 7.8,3 7.2,3 7.21,2.41 7.19,2.4 6.6,2.4 7.21,2.4 7.79,2.39 7.8,1.81 8.41,2.4 8.39,2.4 7.8,1.8 7.81,1.8 7.19,1.2 7.2,1.2 7.2,1.2 7.2,1.19 7.8,1.21 8.41,1.2 8.39,0.59 7.8,0.61 8.4,0.6 7.8,0.6 h 29.4 l 7.8,-0.6 7.8,-0.6 8.4,-0.61 8.4,-0.59 7.81,-1.2 7.79,-1.21 7.8,-1.19 7.2,-1.2 7.21,-1.2 7.19,-1.2 7.81,-1.8 7.79,-1.8 8.4,-2.4 8.4,-2.4 7.8,-1.81 7.8,-2.39 7.2,-2.4 6.61,-2.4 7.19,-2.4 7.2,-2.41 7.2,-3 7.8,-3 8.4,-3 7.8,-3.59 7.8,-3 7.2,-3.6 7.2,-3 6.6,-3 4.8,-2.4 4.81,-2.41 5.39,-2.39 5.4,-3 6,-3.61 6.6,-4.19 7.2,-4.81 7.2,-4.79 7.8,-6 8.41,-6 8.39,-6.6 8.4,-7.8 9.6,-7.81 9.61,-9 7.19,-6.59 7.81,-6.6 8.39,-7.81 8.4,-8.39 9.6,-9 9.61,-9.61 10.19,-10.19 10.2,-10.81 10.8,-10.79 11.4,-12 11.41,-12 10.79,-12 11.4,-12 10.81,-12 10.79,-12 10.8,-12.6 10.2,-11.4 9.6,-12 10.2,-11.4 9,-12 8.41,-10.2 8.39,-10.8 8.4,-10.81 8.4,-11.39 9,-11.4 8.4,-12 8.41,-12 8.39,-12.6 9,-12.61 8.4,-12.59 8.4,-12.6 8.4,-13.2 7.8,-12.61 7.8,-12.59 7.81,-12.6 7.19,-12.6 6.6,-12 7.21,-12 6,-12 6.59,-11.4 6,-11.4 5.41,-10.8 6,-12.61 6.59,-12.59 6,-12.6 6,-13.2 6,-12.61 6,-13.79 6,-13.21 5.41,-13.79 6,-13.8 5.39,-13.2 6,-13.21 4.8,-12.59 5.4,-12.6 4.8,-12 4.2,-11.4 4.2,-10.2 4.21,-10.21 3.59,-9.59 3.6,-9 3,-8.41 4.81,-10.79 4.19,-10.8 4.2,-10.2 3.61,-9.6 4.19,-9.61 3.6,-8.39 3.6,-8.4 3.61,-8.4 3.59,-7.2 3,-6.61 2.41,-6 3,-6 2.39,-5.39 2.4,-5.4 3.6,-7.21 3.61,-7.79 3.59,-7.8 3.6,-7.8 4.2,-8.4 3.61,-8.4 3.59,-7.81 3.6,-7.79 3.6,-7.21 3.6,-6.59 3.61,-6.6 3,-7.2 4.19,-7.2 3.6,-7.2 4.21,-7.8 4.19,-7.2 4.2,-7.21 4.2,-7.19 3.6,-6 4.2,-6.6 3.61,-6 4.19,-6 4.2,-6 4.8,-6.6 4.81,-6.61 4.79,-6.59 4.8,-6.6 4.2,-6 4.8,-5.4 4.8,-5.41 4.2,-5.39 4.8,-5.4 5.4,-5.4 5.4,-5.4 5.4,-6 6,-6 5.41,-5.41 6,-4.79 5.39,-5.4 5.4,-4.81 5.4,-4.19 5.4,-4.81 6,-4.79 6.6,-5.4 6.6,-5.4 6.6,-4.8 7.2,-5.4 6,-4.8 6.6,-4.2 6,-4.8 6.6,-4.2 6,-4.8 7.21,-4.8 7.19,-4.8 7.2,-5.4 7.8,-4.8 7.2,-5.4 7.2,-4.8 7.2,-4.2 6.6,-4.8 4.2,-3 4.2,-2.41 4.8,-3.59 4.8,-3.6 5.4,-4.2 6,-4.2 6,-5.41 7.21,-6 7.19,-6.59 7.81,-7.2 8.39,-7.8 8.4,-9 9,-9 9.6,-10.2 10.2,-11.4 10.8,-11.4 7.2,-9 7.8,-9 8.4,-9.6 9,-10.2 9.6,-10.8 9.61,-12 10.19,-12 10.81,-12.6 11.39,-13.21 11.4,-13.79 11.4,-14.4 12,-13.81 12,-15 12,-14.39 12,-14.4 12,-14.4 11.4,-14.4 11.41,-14.41 11.39,-13.19 10.8,-13.81 10.81,-12.59 10.19,-13.2 10.2,-12 z"
       style="fill:none;stroke:#ff00ff;stroke-width:27;stroke-linecap:butt;stroke-linejoin:bevel;stroke-miterlimit:10;stroke-dasharray:none;stroke-opacity:1"
       transform="matrix(0.13333333,0,0,-0.13333333,0,620)" />
  </g>
</svg>
