<?xml version="1.0" encoding="UTF-8" standalone="no"?>
<!-- Created with Inkscape (http://www.inkscape.org/) -->

<svg
   version="1.1"
   id="svg1"
   width="628"
   height="634.66669"
   viewBox="0 0 628 634.66669"
   sodipodi:docname="SSM_7Venn_21.svg"
   inkscape:version="1.3.2 (091e20e, 2023-11-25, custom)"
   xmlns:inkscape="http://www.inkscape.org/namespaces/inkscape"
   xmlns:sodipodi="http://sodipodi.sourceforge.net/DTD/sodipodi-0.dtd"
   xmlns="http://www.w3.org/2000/svg"
   xmlns:svg="http://www.w3.org/2000/svg">
  <defs
     id="defs1" />
  <sodipodi:namedview
     id="namedview1"
     pagecolor="#ffffff"
     bordercolor="#111111"
     borderopacity="1"
     inkscape:showpageshadow="0"
     inkscape:pageopacity="0"
     inkscape:pagecheckerboard="1"
     inkscape:deskcolor="#d1d1d1"
     inkscape:zoom="2.1759453"
     inkscape:cx="314.11635"
     inkscape:cy="317.33334"
     inkscape:window-width="3840"
     inkscape:window-height="1577"
     inkscape:window-x="-8"
     inkscape:window-y="-8"
     inkscape:window-maximized="1"
     inkscape:current-layer="g1">
    <inkscape:page
       x="0"
       y="0"
       inkscape:label="1"
       id="page1"
       width="628"
       height="634.66669"
       margin="0"
       bleed="0" />
  </sodipodi:namedview>
  <g
     id="g1"
     inkscape:groupmode="layer"
     inkscape:label="1">
    <path
       id="path1"
       d="m 2342.2,85.4023 11.4,-4.1992 12,-3.5976 12,-4.2032 12.6,-3.5976 12.6,-3.6016 13.2,-3.5976 13.8,-3.6016 13.8,-3.6016 13.8,-3 13.8,-3 14.4,-3 13.8,-3 14.4,-2.3984 13.2,-2.3984 13.8,-2.4024 13.2,-1.8008 12.6,-1.7968 12.6,-1.2032 12.6,-1.1992 12,-1.1992 12,-1.1992 12.6,-0.6016 12.6,-0.5976 13.2,-0.6016 h 54.6 l 13.8,0.6016 14.4,0.5976 14.4,1.1992 14.4,0.6016 13.8,1.1992 13.8,1.8008 13.2,1.1992 13.2,1.8008 12.6,1.8008 12.6,1.8008 12,2.3984 12,2.3984 12,2.4024 12,2.3984 12.6,3 12.6,3 12.6,3.6016 13.2,3.5976 13.2,3.6016 13.2,4.1992 13.8,4.1992 13.2,4.8008 13.8,4.8008 13.2,4.8008 13.2,4.8008 12.6,5.3984 12.6,5.3981 12.6,4.801 11.4,5.402 11.4,5.399 11.4,5.398 10.8,5.403 11.4,5.398 10.8,6 10.8,6 11.4,6.602 11.4,6.597 12,7.203 11.4,7.2 12,7.199 12,7.801 12,8.398 12,8.402 12,7.797 11.4,8.403 10.8,8.398 10.8,8.402 10.8,8.399 10.2,7.801 9.6,8.398 9.6,7.801 9.6,8.398 9,7.801 9,8.402 9.6,9 9.6,9 9.6,9 9.6,9.598 9.6,10.199 9.6,10.203 10.2,10.2 9.6,10.8 9.6,10.797 9.6,10.801 9.6,10.801 9,10.199 8.4,10.801 8.4,10.199 8.4,10.199 7.8,10.203 7.8,9.598 7.2,10.199 7.2,9.602 7.2,10.199 7.2,10.199 7.8,10.801 7.2,10.801 7.2,10.801 7.8,11.398 7.2,11.402 7.2,12 7.2,11.399 7.2,11.398 7.2,11.403 6.6,11.398 6,10.801 6,10.199 5.4,10.199 5.4,9.602 4.8,9.601 4.8,9 4.8,9 4.8,10.797 5.4,10.203 4.8,10.797 4.8,10.801 4.8,10.801 4.2,10.801 4.2,10.8 4.2,10.797 4.2,10.801 3.6,10.199 3,10.203 3.6,9.598 3,9 2.4,9 3,9 2.4,8.402 3,9.598 2.4,10.199 3,10.203 3,10.797 3,10.801 2.4,10.801 3,11.398 2.4,11.403 3,11.398 2.4,10.801 2.4,10.801 2.4,10.199 1.8,9.601 1.8,10.2 2.4,9.595 1.8,9.6 1.8,10.2 1.8,10.8 1.8,10.8 1.8,10.81 1.8,11.39 1.8,10.8 1.8,11.4 1.2,10.8 1.2,10.2 1.8,10.2 1.2,9.6 1.2,9.61 0.6,9.59 1.2,9.6 1.2,10.2 0.6,10.2 1.2,10.8 0.6,10.8 1.2,10.81 0.6,11.39 0.6,10.8 0.6,10.2 0.6,10.2 v 9.6 l 0.6,9.6 0.6,9.6 v 80.4 l -0.6,10.8 v 10.2 l -0.6,9.6 -0.6,9.61 v 9.59 l -0.6,9 -0.6,8.41 -0.6,9.59 -1.2,9 -0.6,9.6 -0.6,10.2 -1.2,10.2 -1.2,10.2 -1.2,10.21 -1.2,10.19 -1.2,9.6 -1.2,9.6 -1.2,9 -1.2,9 -1.2,9 -1.2,8.4 -1.8,8.4 -1.2,9 -1.8,9.6 -1.8,9.6 -1.8,9.61 -1.8,10.19 -2.4,9.6 -1.8,9.6 -1.8,9.61 -2.4,9 -1.8,8.39 -1.8,8.4 -2.4,8.4 -1.8,8.4 -2.4,8.41 -2.4,8.39 -2.4,8.4 -2.4,9.6 -2.4,9 -3,9 -2.4,9.61 -3,9 -3,9 -2.4,8.39 -3,8.4 -2.4,7.8 -3,7.8 -2.4,7.8 -3,7.81 -3,7.79 -3,8.4 -3.6,8.4 -3,9 -3.6,8.41 -3.6,9 -3.6,8.39 -3.6,8.4 -3.6,7.8 -3,7.8 -3.6,7.8 -3,7.2 -3.6,7.2 -3.6,7.2 -3.6,7.21 -3.6,7.79 -3.6,7.8 -4.2,8.41 -4.2,7.79 -4.2,8.4 -4.2,7.81 -4.2,7.79 -4.2,7.21 -3.6,7.19 -4.2,6.6 -3.6,6.6 -4.2,6.61 -3.6,7.19 -4.2,6.6 -4.8,7.21 -4.8,7.19 -4.8,7.81 -4.8,7.79 -4.8,8.4 -5.4,7.81 -4.8,7.79 -5.4,7.8 -4.8,7.8 -5.4,7.8 -4.8,7.81 -4.2,6.59 -4.8,7.2 -4.8,7.8 -5.4,7.8 -5.4,7.8 -5.4,8.4 -6,9 -6,9 -5.4,9 -6,8.41 -6,9 -6,8.39 -5.4,8.4 -5.4,7.8 -5.4,7.8 -5.4,7.2 -6,8.41 -6,9 -6,8.39 -6.6,9 -6.6,9 -6.6,9 -7.2,9 -6.6,9 -6.6,9 -6,8.4 -6.6,8.4 -5.4,7.81 -5.4,7.19 -5.4,7.2 -5.4,7.2 -5.4,7.2 -5.4,7.21 -5.4,7.19 -5.4,7.81 -5.4,7.79 -5.4,7.8 -4.8,7.2 -5.4,7.8 -4.2,7.2 -4.8,7.21 -4.2,6.59 -3.6,6.6 -3.6,6 -4.2,7.81 -4.2,7.19 -3.6,7.81 -4.2,8.39 -3.6,7.8 -3.6,9 -3.6,8.4 -3,8.41 -2.4,7.79 -2.4,7.8 -2.4,7.8 -1.8,7.2 -1.2,7.8 -1.8,7.2 -1.2,8.41 -1.2,8.39 -0.6,9 -0.6,9 -0.6,9 v 35.4 l 0.6,8.4 0.6,7.81 0.6,7.19 1.2,7.81 0.6,8.39 1.2,8.4 1.2,9 1.2,9.6 1.8,9 1.2,9.61 1.8,9 1.8,9 1.2,9 1.8,8.39 1.8,9 1.8,8.4 1.8,9.6 1.8,9 1.8,10.2 1.8,10.2 2.4,10.8 2.4,10.8 1.8,11.4 2.4,10.8 1.8,11.41 1.8,10.79 2.4,10.21 1.8,10.19 1.8,10.2 1.2,9 1.2,9.61 1.8,9.59 1.2,9.6 1.8,10.2 1.2,10.2 1.8,10.8 1.2,10.2 1.8,10.8 1.2,10.2 1.2,10.2 1.8,9.6 1.2,9.61 0.6,8.39 1.2,9 1.2,7.8 1.2,9 1.2,9.6 1.2,9 1.2,9 1.2,9.6 0.6,9 1.2,9.61 1.2,9.59 1.2,9 0.6,8.41 1.2,8.39 0.6,8.4 0.6,7.8 0.6,7.2 0.6,7.8 0.6,7.8 0.6,8.4 v 8.4 l 0.6,8.4 0.6,9 v 9 l 0.6,9.6 v 58.2 l -0.6,8.4 v 8.4 l -0.6,8.4 -0.6,9 v 9.6 l -0.6,9 -0.6,9.6 -1.2,9 -0.6,9 -0.6,9 -0.6,8.4 -1.2,8.4 -0.6,8.41 -1.2,7.79 -1.2,8.4 -0.6,8.4 -1.2,9 -1.8,9.6 -1.2,9 -1.2,9.6 -1.8,9.6 -1.8,9.61 -1.2,9 -1.8,9 -1.8,9 -1.8,8.39 -1.2,8.4 -1.8,7.8 -1.8,9 -2.4,8.41 -1.8,9 -2.4,9.59 -2.4,9.6 -2.4,9.6 -2.4,9.6 -2.4,9.61 -3,9.59 -2.4,9 -2.4,9 -2.4,8.41 -3,8.39 -2.4,8.4 -3,8.4 -2.4,9 -3,9 -3.6,9 -3,9.6 -3.6,9.6 -3.6,10.2 -3.6,9.6 -3.6,9 -3,9 -3.6,9 -3.6,8.4 -3,8.41 -3.6,8.39 -3.6,8.4 -3.6,8.4 -4.2,9 -3.6,9 -4.2,9.6 -4.2,9 -4.2,9 -4.2,8.4 -3.6,7.81 -4.2,7.79 -3,7.21 -3.6,6.59 -3,6 -4.8,7.8 -4.2,7.8 -4.2,7.2 -4.2,7.2 -4.8,7.2 -4.2,6.6 -4.2,6 -4.2,5.4 -3.6,4.8 -3.6,4.8 -4.2,4.8 -3.6,4.81 -4.2,4.79 -4.2,5.4 -4.8,4.81 -4.8,5.39 -4.2,4.8 -4.2,4.81 -4.8,4.19 -3.6,3.6 -4.8,4.21 -4.2,4.19 -4.8,3.6 -4.8,4.21 -4.8,4.19 -5.4,4.2 -5.4,3.61 -4.8,3.59 -4.8,3 -4.2,3 -6,3.6 -6.6,3.6 -6.6,3.6 -7.2,3.61 -7.2,3 -6.6,3 -7.2,3 -6,1.79 -6.6,2.4 -7.2,1.81 -7.2,1.79 -7.8,1.8 -7.8,1.2 -7.2,1.21 -7.2,1.19 -7.2,0.6 -5.4,0.6 h -31.8 l -6,-0.6 -6.6,-0.6 -6,-0.6 -5.4,-0.59 -6,-0.61 -6,-1.2 -6,-1.19 -6.6,-0.61 -7.2,-1.8 -6.6,-1.2 -6.6,-1.2 -6,-1.8 -6,-1.2 -6,-1.8 -5.4,-1.2 -6.6,-1.8 -6,-2.39 -7.2,-1.81 -7.2,-3 -7.8,-2.4 -7.8,-3 -7.8,-3.6 -8.4,-3.6 -8.4,-3.59 -7.2,-3.61 -7.8,-3.6 -8.4,-4.2 -8.4,-4.2 -9,-4.8 -9.6,-4.8 -9,-4.79 -8.4,-4.81 -8.4,-4.19 -7.2,-4.21 -7.2,-3.6 -6,-3 -7.8,-4.19 -7.2,-4.21 -6.6,-3 -6,-3 -4.8,-2.4 -4.2,-1.8 -3.6,-1.8 -3.6,-1.2 -4.2,-1.8 -4.8,-2.4 -4.8,-1.8 -4.8,-1.8 -4.8,-1.79 -4.2,-1.21 -4.2,-1.2 -4.2,-1.2 -4.8,-1.8 -4.8,-1.2 -4.8,-0.6 -4.2,-0.6 -4.2,-0.6 -4.2,-0.59 -4.8,-0.61 h -9 l -4.2,0.61 h -4.2 l -4.2,0.59 -4.8,0.6 -4.2,1.2 -4.2,1.2 -4.2,1.2 -4.2,1.21 -4.2,1.19 -4.8,1.81 -4.8,1.79 -4.2,1.8 -4.2,1.8 -4.2,1.8 -4.2,2.4 -4.8,2.41 -4.2,3 -4.8,2.39 -3.6,2.4 -4.2,2.4 -4.8,2.4 -4.8,3 -4.2,3 -4.8,2.41 -4.2,3 -4.2,2.39 -4.8,2.4 -4.8,3 -4.8,2.4 -4.2,3 -4.2,1.81 -4.2,2.39 -4.8,2.4 -4.8,2.4 -4.8,1.81 -4.8,2.39 -4.2,1.8 -4.2,1.2 -4.8,1.8 -4.8,1.81 -4.8,1.19 -4.8,1.2 -4.2,0.61 -4.2,0.59 -4.8,0.6 -4.8,0.6 h -13.8 l -4.2,-0.6 -4.2,-0.6 -4.8,-0.59 -4.8,-1.21 -4.8,-1.2 -4.2,-1.2 -4.2,-1.2 -4.2,-1.8 -4.8,-1.8 -4.8,-1.8 -4.2,-2.4 -4.2,-1.8 -4.2,-2.4 -4.2,-3 -4.2,-2.4 -4.8,-3 -4.2,-3 -4.2,-3 -3,-1.79 -3,-2.41 -3.6,-3 -4.2,-3.59 -4.8,-4.21 -4.8,-5.4 -6,-5.39 -6,-6.61 -4.8,-4.8 -4.8,-5.4 -6,-6 -6,-7.19 -6.6,-7.21 -7.2,-7.79 -7.2,-8.41 -7.2,-8.4 -7.2,-8.4 -7.2,-8.4 -6.6,-7.8 -6,-7.8 -6,-7.2 -5.4,-6.59 -5.4,-7.21 -6,-7.2 -5.4,-7.8 -6,-7.2 -5.4,-7.8 -6,-7.2 -5.4,-7.2 -4.8,-6.6 -4.8,-6.6 -4.8,-5.4 -3.6,-6 -4.2,-4.79 -4.8,-6.61 -5.4,-6.6 -4.8,-6 -4.8,-6 -4.2,-5.4 -4.8,-5.39 -4.2,-5.41 -3.6,-4.2 -3.6,-4.2 -3.6,-4.19 -4.2,-4.81 -4.2,-4.8 -4.8,-5.39 -4.8,-5.41 -5.4,-5.4 -4.8,-4.8 -4.2,-4.8 -4.2,-4.2 -4.2,-4.2 -4.8,-4.19 -4.8,-4.21 -4.8,-4.2 -5.4,-4.2 -4.8,-4.2 -4.2,-3.6 -4.8,-3 -4.2,-3.59 -4.8,-3 -5.4,-3 -5.4,-3 -5.4,-3 -5.4,-3 -4.8,-2.41 -4.8,-1.8 -4.8,-1.79 -5.4,-1.81 -6,-1.8 -5.4,-1.8 -6,-1.8 -6,-1.2 -5.4,-1.2 -5.4,-0.6 -5.4,-1.2 -6,-0.59 -6,-0.61 h -6.6 l -6.6,-0.6 h -25.2 l -6,0.6 h -7.2 l -7.2,0.61 -7.2,0.59 -7.2,0.6 -6.6,0.6 -6.6,0.6 h -5.4 l -5.4,0.61 -6,0.59 -6,0.6 -7.2,1.2 -7.2,0.61 -7.8,1.19 -7.8,0.6 -7.8,1.21 -8.4,1.19 -7.2,1.2 -7.8,1.2 -9,1.2 -9,1.8 -9,1.2 -9.6,1.8 -9.6,1.2 -9.6,1.8 -8.4,1.2 -7.8,1.21 -7.2,0.59 -6,1.2 -9,1.21 -7.2,0.59 -7.2,0.6 -6,0.6 H 1519 l -3.6,-0.6 h -4.8 l -4.8,-0.6 -4.8,-0.59 -5.4,-0.61 -4.8,-1.2 -4.2,-0.6 -4.2,-0.59 -4.8,-1.21 -4.8,-1.2 -4.2,-1.8 -4.8,-1.2 -3.6,-1.8 -3.6,-1.2 -4.2,-2.4 -4.2,-1.8 -3.6,-2.39 -3.6,-2.41 -3.6,-2.4 -3,-2.4 -3.6,-3 -3.6,-3 -3,-3.6 -3,-3 -3,-3 -2.4,-3.6 -2.4,-3.59 -3,-4.21 -2.4,-4.2 -2.4,-4.2 -1.8,-3.6 -1.8,-4.2 -2.4,-4.2 -1.8,-4.8 -2.4,-4.8 -1.8,-4.2 -1.2,-4.8 -1.8,-4.2 -1.8,-4.8 -1.8,-6 -1.8,-6 -2.4,-6 -1.8,-6.6 -1.2,-5.4 -1.8,-5.4 -1.8,-6.6 -2.4,-7.2 -1.8,-7.2 -2.4,-7.2 -1.8,-6.6 -1.8,-6.59 -1.8,-6.61 -2.4,-6.6 -1.8,-7.2 -2.4,-7.2 -2.4,-6.6 -2.4,-7.2 -2.4,-6 -1.8,-6 -2.4,-6 -2.4,-6 -3,-6 -2.4,-6.59 -3,-6 -3,-6 -3,-5.41 -3,-5.4 -3,-4.8 -3,-5.39 -3.6,-4.81 -3.6,-5.4 -4.2,-5.4 -3.6,-4.8 -3.6,-4.8 -3.6,-4.2 -4.2,-4.2 -4.2,-4.2 -4.2,-4.19 -4.8,-4.21 -4.8,-4.79 -5.4,-3.61 -4.8,-3.6 -4.2,-3.6 -5.4,-3.6 -4.8,-3 -6,-3.59 -6,-3.61 -6,-3.6 -6,-3 -5.4,-3 -6,-3 -5.4,-3 -6.6,-2.4 -6,-3 -7.2,-3 -7.2,-3 -6.6,-3 -6.6,-3 -6,-2.39 -4.8,-1.81 -5.4,-2.4 -6,-1.79 -6,-2.41 -6.6,-3 -7.2,-2.4 -7.8,-3 -7.2,-2.4 -8.4,-3 -7.8,-2.4 -7.2,-3 -7.8,-2.39 -9,-3 -9,-3 -9.6,-3 -9.6,-3.61 -9.6,-3 -9.6,-3.6 -9,-3 -9,-3 -7.8,-3 -7.199,-3 -7.801,-3 -8.398,-3.6 -7.204,-3 -7.796,-3.6 -6.602,-3.59 -7.199,-3 -6,-3.61 -6,-3 -4.801,-3.6 -4.801,-2.4 -5.398,-3.6 -4.801,-3 -5.398,-3.6 -4.801,-3.6 -5.403,-3.59 -5.398,-3.61 -5.398,-4.2 -4.801,-3.6 -4.199,-3.59 -4.801,-3.61 -4.801,-4.2 -6,-4.8 -5.398,-5.39 -5.403,-5.41 -5.398,-5.4 -5.403,-6 -4.199,-4.8 -4.199,-5.39 -4.199,-5.41 -4.199,-5.4 -4.204,-6 -3.597,-6.6 -4.199,-6.59 -3.602,-6.61 -3,-6 -2.398,-6 -2.403,-6 -2.398,-6 -2.403,-7.2 -2.398,-7.19 -1.801,-7.21 -1.801,-7.2 -1.796,-6.59 -0.602,-6.61 -1.199,-6.6 -1.199,-7.2 -0.602,-7.2 -0.602,-7.8 v -35.4 l 0.602,-6 0.602,-6 0.597,-6 0.602,-6.6 1.199,-6.59 0.602,-6.61 1.199,-6 0.597,-6 1.204,-5.39 1.199,-7.21 1.801,-7.2 1.796,-7.8 1.801,-7.79 1.199,-7.21 1.801,-7.2 1.801,-6 1.199,-5.4 1.801,-7.19 1.801,-6.61 1.801,-6 1.199,-6 1.199,-5.39 1.199,-4.21 1.199,-4.79 1.204,-4.81 1.199,-5.4 0.597,-4.79 1.204,-4.81 0.597,-4.8 0.602,-4.2 0.597,-4.8 0.602,-4.8 v -5.4 l 0.602,-4.19 v -8.41 L 823,2767.4 v -4.2 l -0.602,-4.8 -0.597,-4.2 -1.199,-4.2 -0.602,-3.6 -1.199,-4.2 -1.801,-4.8 -1.801,-4.2 -1.801,-4.2 -1.199,-4.2 -2.398,-3.6 -1.801,-4.2 -2.398,-4.2 -3,-4.19 -2.403,-4.21 -2.398,-3.6 -3,-3.6 -2.403,-4.2 -3.597,-3.6 -3,-4.2 -3,-4.2 -3,-3.6 -2.403,-3 -3,-3 -3,-3 -3.597,-4.2 -4.199,-4.8 -5.403,-5.4 -5.398,-6 -6.602,-6.6 -4.801,-4.79 -5.398,-5.41 -5.398,-6 -6.602,-6.59 -7.199,-7.21 -7.199,-7.2 -7.204,-7.8 -6.597,-7.2 -7.199,-7.2 -6,-6.6 -6,-6.6 -5.403,-6 -6,-6.6 -5.398,-6.59 -5.403,-6.61 -5.398,-6.6 -4.801,-6.6 -4.801,-6.6 -4.199,-6 -3.597,-5.4 -3.602,-5.4 -3,-5.4 -3,-4.8 -3.602,-5.4 -3,-5.4 -3,-6 -3.597,-6 -3,-6 -3,-6 -3,-6 -2.403,-5.4 -2.398,-5.39 -2.398,-5.41 -1.801,-5.4 -2.403,-5.4 -2.398,-6.6 -1.801,-6 -1.801,-6.6 -1.796,-6 -1.801,-6 -1.199,-5.4 -1.204,-5.4 -1.199,-6.6 -1.199,-7.19 -1.199,-7.81 -0.602,-7.8 -0.597,-7.8 -0.602,-7.8 v -13.79 l 0.602,-6.61 v -7.2 l 1.199,-7.8 1.199,-7.8 1.199,-7.8 1.199,-7.2 1.801,-7.2 1.801,-6.6 1.801,-5.4 1.801,-6 1.796,-5.39 1.801,-6 2.403,-6 3,-6 2.398,-6 2.398,-6 3,-5.41 2.403,-4.8 2.398,-5.4 3,-5.39 3,-5.41 3.602,-6 3.597,-5.4 3.602,-6 3.602,-5.4 3.597,-5.4 3,-5.39 3.602,-4.81 3.597,-4.8 3.602,-5.39 4.199,-5.41 4.199,-5.4 5.403,-6 5.398,-6.6 5.403,-6 6,-6.59 6,-6 6.597,-6.61 4.801,-4.8 5.398,-5.4 5.403,-5.4 6.597,-5.4 6.602,-6 6.602,-6.6 7.796,-6.6 7.204,-6 7.796,-6.6 7.204,-6.59 7.796,-6 7.204,-6 7.199,-6 6.597,-5.41 7.204,-6 7.199,-5.4 7.199,-6 7.801,-5.4 7.199,-6 7.801,-6 7.801,-5.4 7.199,-5.39 7.199,-5.41 6.602,-4.8 6,-4.79 5.398,-4.21 4.801,-3.6 4.801,-3 7.199,-5.4 6,-4.79 5.398,-4.81 5.403,-3.6 4.199,-3.59 3,-3 3,-2.41 3,-2.4 3,-3 3.597,-3 3.602,-3.6 3.602,-3.59 3.597,-3 3,-3 3,-3.61 3,-3 3,-4.2 2.403,-3.6 3,-3.59 2.398,-3 1.801,-3.61 2.398,-3.6 1.801,-4.2 1.801,-3.59 1.801,-4.21 1.796,-3 1.204,-4.2 1.199,-3.59 1.199,-4.21 0.602,-4.2 1.199,-4.2 0.597,-4.2 v -4.19 L 967,1819.4 v -22.79 l -0.602,-4.21 -0.597,-5.4 -0.602,-4.8 -0.597,-4.8 -0.602,-4.2 -0.602,-4.8 -0.597,-4.79 -1.199,-5.41 -0.602,-5.4 -0.602,-4.8 -1.199,-4.8 -0.597,-4.8 -0.602,-4.79 -0.602,-5.41 -0.597,-5.4 -0.602,-4.8 -0.597,-4.8 -0.602,-4.8 v -4.79 l -0.602,-4.81 v -19.19 l 0.602,-4.21 0.602,-4.79 0.597,-4.81 0.602,-4.8 1.199,-3.6 0.602,-4.2 1.199,-4.2 1.801,-4.8 1.796,-4.2 1.801,-4.2 1.801,-3.6 1.801,-3.59 2.398,-3.61 2.403,-4.2 3,-3.6 2.398,-3.59 3,-3 2.398,-3 3.602,-3 3.602,-3.61 3.597,-3 3.602,-3 3.599,-2.39 3.6,-3 4.2,-2.41 4.2,-3 4.2,-2.4 4.2,-3 4.2,-1.8 3,-1.8 3,-1.8 4.2,-2.4 4.8,-1.8 6,-2.4 6.6,-2.4 7.2,-3 8.4,-2.4 6,-2.39 6.6,-1.81 7.8,-2.4 8.4,-3 9,-2.4 9,-3 9.6,-2.39 9,-3 9,-2.41 7.8,-3 7.8,-2.4 7.2,-1.8 7.8,-2.39 7.8,-2.41 7.2,-2.4 7.8,-2.4 6.6,-2.4 6.6,-2.39 6,-2.41 5.4,-1.8 5.4,-1.79 4.8,-1.81 6,-2.4 6,-2.4 6.6,-3 7.2,-2.39 6.6,-3 6,-2.41 6,-3 5.4,-2.4 5.4,-2.4 5.4,-3 6,-3 6,-3 5.4,-3 6,-3.6 4.8,-3 4.8,-3 4.2,-3 4.8,-3.6 4.2,-3.59 4.8,-4.21 4.8,-3.6 4.2,-4.19 4.2,-4.21 3.6,-3.6 3,-4.19 3.6,-4.21 3.6,-4.79 3.6,-4.81 3.6,-5.4 3.6,-4.79 3,-4.81 2.4,-4.8 3,-4.8 2.4,-5.4 3,-6 2.4,-6 2.4,-6 3,-6 1.8,-5.4 2.4,-6 1.8,-5.4 1.8,-6.6 2.4,-6 1.8,-7.2 2.4,-7.2 1.8,-6.6 1.8,-6.6 1.8,-6 1.2,-4.8 1.2,-5.39 1.8,-6 1.8,-6 1.2,-6.61 1.8,-7.2 1.8,-7.8 1.8,-7.2 1.8,-8.4 1.8,-7.79 1.2,-6.61 1.2,-6.6 1.2,-7.2 1.8,-7.8 1.8,-7.79 1.8,-9 1.8,-9 1.8,-9 1.8,-9.61 2.4,-9 1.8,-9 1.8,-9 1.8,-8.39 2.4,-8.41 1.8,-9 2.4,-8.4 1.8,-9 2.4,-9.6 3,-9.59 2.4,-9.61 3,-10.2 3,-9.6 3,-10.2 3,-9.6 2.4,-9 3,-9 3,-8.998 3,-8.398 2.4,-8.399 3,-9 3.6,-9 3,-9 3.6,-9.601 3.6,-9.602 3.6,-10.199 4.2,-10.199 3.6,-9.602 4.2,-9.597 3.6,-9 3.6,-9 4.2,-9 3.6,-8.403 3.6,-8.398 3.6,-8.399 4.2,-9 4.2,-9.601 4.8,-9.602 4.8,-9.597 4.8,-9.602 4.8,-10.199 4.8,-9.602 4.8,-9.597 4.8,-9 4.2,-9 4.8,-8.403 4.8,-8.398 4.2,-9 4.8,-8.399 5.4,-9 4.8,-9 5.4,-9 6,-10.203 6,-9.597 5.4,-9.602 6,-9.598 6,-9.601 5.4,-9 6,-8.399 5.4,-8.402 5.4,-8.398 5.4,-8.403 5.4,-8.398 6,-8.399 6,-9 6.6,-9 6.6,-9.601 6.6,-9.602 7.2,-9 6.6,-9.597 7.2,-9 6.6,-9 6.6,-8.403 6,-8.398 6.6,-7.801 5.4,-6.598 5.4,-7.203 6,-7.199 6,-7.801 6.6,-7.797 7.2,-7.8 7.2,-8.403 7.8,-8.398 7.8,-8.399 7.8,-8.402 8.4,-8.398 8.4,-8.403 8.4,-7.797 8.4,-8.402 8.4,-7.801 9,-7.797 7.8,-6.601 7.8,-6.602 7.8,-6.597 8.4,-7.2 9,-7.203 9.6,-7.797 10.2,-7.8 10.2,-7.801 10.2,-7.801 10.8,-7.801 11.4,-8.398 11.4,-7.801 10.8,-7.801 11.4,-7.797 10.8,-7.8 10.8,-7.2 10.8,-6.601 10.8,-7.199 10.8,-6.602 10.2,-6 10.8,-6.598 10.8,-6.601 10.8,-6 11.4,-6.602 11.4,-6.597 12.6,-6 12,-6.602 12.6,-6.598 13.2,-6.601 12.6,-6 13.2,-6 13.2,-6 13.2,-6 12.6,-5.399 12.6,-5.402 12.6,-5.398 12,-4.8011 12,-4.1992 11.4,-4.1992 z"
       style="fill:none;stroke:#000000;stroke-width:27;stroke-linecap:butt;stroke-linejoin:bevel;stroke-miterlimit:10;stroke-dasharray:none;stroke-opacity:1"
       transform="matrix(0.13333333,0,0,-0.13333333,0,634.66667)" />
    <path
       id="path2"
       d="m 4672,2829.8 1.2,12 1.2,12.6 1.2,12.6 0.6,13.2 1.2,13.2 0.6,13.8 v 13.8 l 0.6,14.4 v 28.8 l -0.6,14.41 V 2993 l -0.6,13.8 -1.2,13.81 -0.6,13.79 -1.2,13.21 -1.2,13.19 -1.2,12.6 -1.8,12 -1.8,12.6 -1.8,12 -1.8,12 -2.4,12.61 -2.4,12.59 -2.4,13.2 -3,13.21 -3,13.19 -3.6,13.81 -3.6,13.79 -3.6,13.8 -4.2,13.8 -4.2,13.2 -4.2,13.8 -4.8,13.2 -4.2,12.6 -4.8,12 -4.2,12 -4.8,12 -4.8,11.4 -4.8,11.41 -5.4,10.79 -4.8,11.4 -5.4,11.4 -6,11.41 -6,11.39 -6.6,12 -6.6,12 -7.2,12 -7.2,12.61 -7.2,12 -7.8,12 -7.8,12 -7.8,12 -7.8,11.39 -7.8,10.8 -7.8,10.81 -7.8,10.19 -7.8,10.2 -7.8,9.61 -7.8,9.59 -7.8,9 -8.4,9.6 -8.4,9.6 -8.4,9.6 -9,9.61 -9.6,9.59 -9.6,10.2 -10.2,9.6 -10.2,10.2 -10.8,9.6 -10.2,10.2 -10.8,9.61 -10.8,9 -10.8,9 -10.2,9 -10.2,8.39 -10.2,7.8 -10.2,7.81 -10.2,7.79 -9.6,7.21 -10.2,7.19 -10.2,7.2 -10.8,7.2 -10.8,7.2 -11.4,7.21 -11.4,7.19 -12,7.2 -12,7.2 -12.6,7.8 -12.6,7.2 -12.6,6.6 -12.6,7.2 -12.6,6.61 -12,6.59 -12,6 -12,6 -12,5.41 -11.4,5.39 -11.4,5.4 -11.4,5.4 -10.8,4.81 -12,4.79 -11.4,4.8 -12,4.8 -12,4.8 -12.6,4.81 -12.6,4.79 -12.6,4.21 -13.2,4.79 -12.6,4.21 -13.2,4.79 -12.6,4.21 -12,3.59 -12,3.6 -11.4,3.6 -11.4,3 -10.8,3 -10.2,3 -9.6,2.4 -9.6,2.4 -11.4,3 -12,2.41 -11.4,2.39 -11.4,2.4 -11.4,1.8 -11.4,1.8 -12,1.8 -11.4,1.81 -10.8,1.19 -11.4,1.2 -10.2,1.2 -10.2,1.2 -9.6,0.6 -9.6,0.61 -9,0.59 -9,0.6 -10.2,0.6 -10.2,0.6 -10.8,0.61 -10.8,0.59 h -11.4 l -11.4,0.6 h -87.6 l -9.6,-0.6 -10.2,-0.59 h -10.2 l -10.8,-0.61 -10.8,-0.6 -11.4,-0.6 -11.4,-0.6 -10.8,-1.2 -11.4,-0.6 -10.8,-1.2 -10.8,-0.59 -9.6,-1.21 -10.2,-1.2 -9,-0.59 -9.6,-1.21 -9.6,-1.2 -10.2,-1.2 -10.2,-1.8 -10.8,-1.2 -10.8,-1.8 -10.8,-1.2 -10.8,-1.8 -10.8,-1.8 -10.2,-1.79 -10.2,-1.81 -9.6,-1.8 -9.6,-1.8 -9,-1.8 -9,-1.79 -9.6,-1.81 -9,-2.4 -10.2,-1.79 -10.2,-2.41 -10.2,-2.4 -10.2,-2.4 -10.2,-3 -10.2,-2.4 -10.2,-2.39 -9.6,-3 -9,-2.41 -9,-2.4 -8.4,-2.4 -8.4,-2.4 -9,-3 -9,-3 -9,-3 -9.6,-3 -10.2,-3 -9.6,-3.6 -9.6,-3 -9.6,-3.6 -9.6,-3.6 -9,-3 -8.4,-3.59 -8.4,-3 -8.4,-3 -7.8,-3.61 -8.4,-3 -8.4,-3.6 -8.4,-3.6 -9,-4.19 -9.6,-3.61 -9,-4.2 -9,-4.19 -9,-4.21 -9,-4.2 -7.8,-3.59 -8.4,-4.21 -7.8,-3.6 -7.2,-3.6 -7.8,-4.2 -7.8,-3.6 -7.8,-4.2 -7.8,-4.2 -8.4,-4.8 -8.4,-4.8 -8.4,-4.79 -8.4,-4.81 -8.4,-4.8 -7.8,-4.2 -7.8,-4.8 -7.8,-4.8 -7.2,-4.2 -6.6,-4.2 -7.2,-4.19 -6.6,-4.81 -7.2,-4.8 -7.8,-4.8 -7.2,-4.8 -7.8,-5.4 -7.8,-5.39 -7.8,-5.41 -7.2,-5.4 -7.2,-5.4 -7.2,-4.79 -6.6,-5.41 -6.6,-4.8 -6,-4.79 -6.6,-4.81 -6,-4.8 -6.6,-5.39 -6.6,-5.41 -7.2,-5.4 -6.6,-6 -7.2,-5.4 -6.6,-6 -7.2,-6 -6,-6 -6.6,-5.4 -6,-5.39 -6,-5.41 -5.4,-5.4 -5.4,-4.8 -6,-5.39 -6,-6 -6,-6 -6,-6 -6.6,-6.61 -6.6,-6.6 -6.6,-6.6 -6.6,-6.6 -6.6,-6.59 -6.6,-7.21 -6.6,-6.6 -6,-6.6 -6.6,-6 -6,-6 -6,-6.59 -6,-6 -6.6,-6.61 -6.6,-7.2 -7.2,-7.19 -7.2,-7.81 -7.2,-7.8 -7.2,-7.8 -7.2,-7.2 -7.2,-7.8 -7.2,-7.8 -6.6,-7.2 -6.6,-6.59 -6,-7.21 -6.6,-6.6 -6.6,-7.8 -7.2,-7.8 -6.6,-7.8 -7.2,-8.4 -7.8,-8.39 -7.2,-8.41 -7.2,-9 -7.2,-8.4 -7.2,-8.4 -7.2,-7.79 -6,-7.81 -6.6,-7.8 -6,-6.6 -5.4,-7.2 -6,-6.59 -6,-6.61 -6,-6.6 -6,-7.2 -6,-7.2 -6.6,-6.6 -6.6,-7.2 -6,-6.59 -6.6,-6.61 -6,-6.6 -5.4,-6 -6,-5.4 -5.4,-5.39 -5.4,-4.81 -6,-5.4 -6.6,-5.4 -6.6,-6 -7.2,-5.39 -7.2,-5.41 -7.8,-5.4 -7.2,-5.4 -7.8,-4.79 -7.2,-4.21 -6.6,-4.2 -7.2,-3.59 -6.6,-3 -7.2,-3.61 -7.2,-3 -7.8,-3 -7.8,-3 -8.4,-3 -9,-2.39 -8.4,-2.41 -9,-2.4 -9,-1.8 -8.4,-1.8 -8.4,-1.8 -8.4,-1.2 -7.2,-1.2 -7.2,-1.2 -7.8,-0.6 -8.4,-1.2 -9,-0.6 -9,-1.2 -9,-0.59 -9.6,-0.61 -9,-0.6 -9.6,-0.6 -9,-0.6 -9,-0.59 h -9 l -8.4,-0.61 h -9 l -9.6,-0.6 h -9.6 l -10.2,-0.6 h -10.2 l -11.4,-0.6 h -10.8 l -11.4,-0.59 -11.4,-0.61 h -11.4 l -10.8,-0.6 -10.8,-0.6 -10.2,-0.6 -10.2,-0.59 -9.6,-0.61 -9,-0.6 -9.6,-0.6 -10.2,-0.6 -10.2,-0.59 -10.2,-1.21 -10.8,-0.6 -10.8,-1.19 -10.2,-0.61 -10.8,-1.2 -10.2,-0.6 -9.6,-1.2 -9,-0.6 -9,-1.2 -8.4,-0.59 -8.4,-0.61 -9,-1.2 -9,-0.6 -9.6,-1.2 -9,-0.6 -9.6,-1.2 -9,-1.2 -9.6,-0.6 -9,-1.2 -9,-1.2 -9,-0.6 -8.4,-1.2 -7.8,-1.2 -7.8,-1.2 -7.8,-0.6 -7.2,-1.2 -7.8,-1.2 -8.4,-1.8 -8.4,-1.2 -8.4,-1.8 -9,-1.8 -9,-1.2 -9,-1.8 -8.4,-2.4 -9,-1.8 -8.4,-1.8 -7.8,-1.8 -7.8,-1.79 -7.8,-1.81 -7.8,-1.8 -7.8,-2.39 -8.4,-1.81 -8.4,-2.4 -8.4,-2.4 -9,-3 -9,-2.39 -9,-2.41 -9,-3 -8.4,-3 -8.4,-2.4 -8.4,-3 -7.8,-2.4 -7.8,-2.4 -7.8,-3 -7.8,-3 -8.4,-3 -8.4,-3 -8.4,-3.6 -9,-3 -9,-3.6 -9,-4.19 -9,-3.61 -8.4,-3.6 -8.4,-3.6 -8.4,-3.6 -7.8,-3.59 -7.2,-3 -7.8,-3.61 -7.8,-4.2 -8.4,-3.6 -8.4,-4.2 -8.4,-4.2 -9,-4.19 -8.398,-4.81 -9,-4.8 -9,-4.2 -8.403,-4.8 -8.398,-4.8 -7.801,-4.2 -7.801,-4.2 -7.199,-4.19 -7.801,-4.81 -7.801,-4.19 -7.796,-4.81 -8.403,-4.8 -8.398,-5.39 -8.403,-5.41 -9,-5.4 -8.398,-5.4 -9,-6 -8.398,-5.4 -7.801,-5.39 -7.801,-4.81 -7.801,-5.4 -7.199,-5.4 -7.199,-4.8 -7.801,-5.4 -7.199,-5.4 -7.801,-6 -8.398,-6 -7.801,-6 -7.801,-6 -7.801,-6 -7.801,-6 -6.597,-5.4 -6.602,-5.39 -6,-4.81 -6,-4.8 -4.801,-4.8 -7.199,-6 -6.597,-6 -6,-6 -6,-5.4 -6,-6 -5.403,-6 -4.801,-5.4 -4.199,-4.79 -4.199,-4.81 -3.602,-4.8 -4.199,-4.8 -3.597,-4.8 -3.602,-4.79 -4.199,-5.41 -4.199,-6 -3.602,-5.4 -4.199,-5.4 -3,-5.4 -3.602,-5.39 -3,-4.81 -3,-4.8 -3,-5.39 -2.398,-5.41 -3,-6 -3,-6 -3,-6 -2.403,-5.4 -2.398,-6 -1.801,-5.4 -1.801,-4.79 -2.398,-6.61 -1.801,-7.2 -2.398,-7.19 -1.801,-7.81 -1.801,-7.8 -1.199,-7.2 -1.199,-7.19 -0.602,-6.61 -0.597,-7.2 v -7.19 l -0.602,-7.21 0.602,-8.4 v -7.8 l 0.597,-7.2 0.602,-7.8 1.199,-6.59 0.602,-5.41 1.199,-6 1.199,-6 1.199,-6 1.801,-6 1.801,-6.59 1.801,-6 1.796,-6 1.801,-6 1.801,-5.41 2.398,-5.4 1.801,-5.4 2.403,-6 3,-6 2.398,-6.6 3,-6 3,-6 3,-6 2.398,-5.4 3,-5.4 3,-5.39 3,-5.41 3,-6 4.204,-6.59 3.597,-6.61 4.801,-6.6 4.801,-7.2 4.801,-7.2 5.398,-6.6 5.398,-7.2 4.801,-6.59 6,-6.61 5.403,-7.2 6.597,-7.8 6.602,-7.8 6.597,-7.8 6.602,-7.79 6.602,-7.21 6,-7.2 5.398,-6.59 4.801,-5.41 4.801,-5.4 6,-6.6 4.796,-6.59 4.801,-5.41 4.199,-4.8 3.602,-4.79 3,-3.61 2.398,-3 1.801,-3 3,-3.6 3,-4.2 3,-4.8 3,-4.2 2.403,-4.2 2.398,-3.6 2.398,-3.6 1.801,-4.19 2.403,-4.81 2.398,-4.19 1.801,-4.21 1.801,-3.6 1.199,-4.19 1.199,-4.21 1.801,-4.79 1.199,-4.21 0.602,-4.2 0.597,-4.2 0.602,-4.2 0.597,-4.19 0.602,-4.81 v -13.19 l -0.602,-4.21 -0.597,-4.79 -0.602,-4.81 -0.597,-4.8 -1.204,-4.2 -0.597,-4.19 -1.199,-4.81 -1.204,-4.8 -1.199,-4.8 -1.801,-5.4 -1.199,-4.8 -1.199,-4.2 -1.801,-4.8 -1.801,-4.8 -1.796,-5.4 -1.204,-5.4 -1.796,-4.79 -1.801,-4.81 -1.199,-4.8 -1.801,-4.8 -1.801,-5.4 -1.801,-5.4 -1.199,-4.79 -1.199,-4.81 -1.199,-4.8 -1.204,-4.8 -1.199,-4.8 -1.199,-5.4 -0.602,-4.8 -1.199,-4.8 -0.597,-4.2 v -4.8 L 763,1940 v -18.6 l 0.602,-4.79 0.597,-4.81 1.199,-4.8 1.204,-4.2 1.199,-4.19 1.199,-4.21 1.199,-4.2 1.801,-4.8 2.398,-4.2 1.801,-4.2 2.403,-3.6 2.398,-4.2 2.398,-3.59 3,-4.21 3,-4.2 3,-4.2 3,-3 3,-3.6 3.602,-3.6 3.602,-3.6 4.199,-4.2 3.597,-3 3.602,-3.6 2.398,-2.4 3.602,-2.39 3.602,-3 4.199,-3 5.398,-3.61 6,-4.2 6.602,-4.19 7.801,-4.81 6,-3 6,-4.19 7.796,-4.21 7.801,-4.2 9,-4.8 9,-5.4 9.602,-4.8 10.199,-5.4 9.602,-5.4 9.597,-4.79 9,-4.81 9.602,-4.19 7.801,-4.21 7.796,-3.6 7.801,-4.19 8.403,-3.61 8.998,-4.2 8.4,-3.6 8.4,-4.2 8.4,-3.6 8.4,-3.6 7.8,-3.6 7.2,-3.59 6.6,-3 6,-2.41 6,-3 7.8,-3.59 7.2,-3 7.2,-3.61 6.6,-3.6 6.6,-3 6.6,-3 5.4,-3 5.4,-3 4.8,-2.4 4.8,-2.39 5.4,-3 6,-3 6.6,-3.61 6,-3.6 6,-3.6 6,-3.6 5.4,-3 5.4,-3.59 4.8,-3 5.4,-3.61 5.4,-3.6 5.4,-3.6 5.4,-4.19 4.8,-3.61 4.2,-3.6 4.2,-3.6 4.2,-4.19 4.2,-3.61 4.2,-4.2 4.2,-4.8 3.6,-4.8 4.2,-4.2 3,-4.8 3.6,-4.2 2.4,-4.2 3,-4.8 3,-5.39 3,-5.41 3,-5.4 2.4,-5.4 2.4,-5.4 2.4,-4.8 1.8,-5.4 1.8,-5.4 1.8,-6 1.8,-6 1.8,-6.6 1.8,-6.6 1.8,-6 1.2,-5.4 1.2,-6 1.2,-6.6 1.2,-6.59 1.2,-7.21 1.2,-7.2 1.2,-6.59 0.6,-7.21 1.2,-6 0.6,-5.4 0.6,-5.39 0.6,-6 1.2,-6 0.6,-7.21 0.6,-7.2 1.2,-7.8 0.6,-7.79 0.6,-7.81 0.6,-8.4 0.6,-7.79 0.6,-7.81 0.6,-8.4 0.6,-9 0.6,-9.6 1.2,-9.6 0.6,-9.59 0.6,-9.61 0.6,-8.39 0.6,-7.81 0.6,-7.19 0.6,-6.61 0.6,-8.39 1.2,-7.81 0.6,-6.6 1.2,-6.59 1.2,-4.81 0.6,-4.8 1.2,-3.6 1.2,-3.6 1.2,-4.19 1.2,-4.81 1.8,-4.8 1.8,-4.8 1.8,-4.8 1.8,-4.2 1.8,-4.2 1.8,-3.6 2.4,-4.79 2.4,-4.21 2.4,-3.6 2.4,-3.6 2.4,-3 3,-3.59 3,-3.61 3,-3.6 3,-3 3,-2.4 3.6,-3 3,-2.39 4.2,-2.41 3.6,-2.4 4.2,-2.4 3.6,-1.79 4.2,-1.81 4.2,-1.8 4.2,-1.8 4.8,-1.2 4.8,-1.8 4.2,-1.2 4.2,-0.6 4.8,-1.2 4.8,-1.2 5.4,-0.6 4.8,-0.6 4.2,-0.6 4.8,-0.59 5.4,-0.61 5.4,-0.6 6.6,-0.6 h 6 l 6.6,-0.6 5.4,-0.59 h 6.6 l 6.6,-0.61 7.2,-0.6 h 7.8 l 7.2,-0.6 7.2,-0.6 h 6.6 l 6.6,-0.59 7.2,-0.61 7.2,-0.6 7.8,-0.6 7.2,-1.19 7.2,-0.61 6.6,-0.6 6.6,-0.6 6,-1.19 6,-1.21 7.2,-1.2 6.6,-1.2 6.6,-1.8 6.6,-1.2 6,-1.8 5.4,-1.2 6,-1.8 5.4,-2.4 6,-2.4 6,-2.4 6,-2.39 5.4,-3 5.4,-2.41 5.4,-3 4.8,-2.4 4.8,-3.6 5.4,-3 5.4,-4.2 4.8,-3.6 5.4,-4.2 4.8,-3.59 4.2,-3.61 4.2,-4.2 4.2,-4.19 4.8,-4.81 4.8,-4.8 4.8,-5.39 4.8,-4.81 4.2,-4.8 3.6,-4.8 4.2,-5.4 4.2,-4.796 4.2,-6 4.2,-6 4.8,-6 4.2,-6 4.2,-6 3.6,-5.399 3,-4.203 3.6,-4.797 3,-5.402 4.2,-5.398 3.6,-6 4.2,-6.602 4.8,-6.598 4.2,-6.601 4.2,-7.199 4.8,-7.2 4.2,-6.601 4.2,-7.199 4.8,-7.801 4.8,-7.801 5.4,-9 5.4,-8.398 5.4,-9 5.4,-8.403 4.8,-8.398 5.4,-7.801 4.2,-6.598 4.8,-6.601 4.8,-7.199 4.8,-7.2 4.8,-6.601 5.4,-6 4.8,-6.602 4.8,-5.398 4.8,-5.399 4.2,-4.8 4.2,-4.801 4.2,-3.602 4.2,-4.199 4.2,-4.199 4.2,-4.801 4.8,-4.199 4.8,-4.199 4.8,-4.801 5.4,-4.199 4.2,-3.602 4.8,-3.598 4.2,-3.601 5.4,-4.199 6,-4.2 6.6,-4.203 6.6,-4.199 6.6,-4.199 6.6,-3.602 6,-3 6,-3 6,-3 6.6,-2.398 6.6,-3 7.2,-2.399 7.2,-2.402 7.2,-1.801 6.6,-1.797 6.6,-1.203 6,-1.199 7.2,-1.199 7.2,-0.602 7.2,-0.597 h 7.8 l 7.2,-0.602 h 6.6 l 7.2,0.602 6.6,0.597 6.6,0.602 7.8,1.199 7.8,1.199 7.2,1.203 7.8,1.797 7.2,1.801 6.6,1.801 5.4,1.199 5.4,1.801 6,1.801 6,2.398 6,1.801 6,2.398 6,2.403 6,2.398 5.4,1.801 5.4,2.398 6.6,3 6.6,3 7.2,3.602 7.2,3 7.2,3.601 6.6,3 5.4,3 5.4,2.399 6,3.601 6,3 6,3 5.4,3 4.8,2.399 4.2,1.801 4.2,2.398 4.2,2.402 4.8,1.797 4.8,2.403 4.8,1.8 4.2,1.797 4.2,1.203 4.2,1.797 4.8,1.801 4.8,1.199 4.2,1.203 4.2,1.2 4.2,0.597 4.2,0.602 4.8,1.199 h 4.8 l 4.2,0.602 h 8.4 l 4.2,-0.602 h 4.8 l 4.2,-1.199 4.2,-0.602 4.2,-0.597 4.2,-1.2 4.2,-1.203 4.8,-1.199 4.8,-1.801 4.2,-1.797 4.2,-1.203 4.2,-1.797 4.8,-1.8 4.8,-2.403 4.8,-1.797 4.2,-2.402 4.2,-2.398 3,-1.2 3.6,-2.402 4.2,-1.801 5.4,-3 5.4,-3 6,-4.199 7.2,-4.199 7.8,-4.199 6,-4.2 6.6,-3.601 7.2,-4.801 7.8,-4.801 8.4,-4.797 9,-5.402 9,-5.398 8.4,-5.403 8.4,-4.797 8.4,-4.8 7.2,-4.2 7.2,-4.203 7.8,-4.199 7.8,-4.199 7.8,-3.602 7.8,-3.597 7.2,-3.602 7.2,-3 7.2,-2.398 6,-2.403 6,-2.398 5.4,-1.801 6,-1.801 6,-1.797 6,-1.8 6.6,-1.801 6.6,-1.801 6.6,-1.801 6,-1.797 6.6,-1.203 5.4,-1.199 6,-1.199 5.4,-1.199 6,-0.602 6,-1.199 6.6,-0.602 6.6,-0.597 6.6,-0.602 6,-0.598 h 24.6 l 7.2,0.598 7.8,0.602 7.8,1.199 7.8,0.601 7.8,1.797 7.2,1.203 6.6,1.797 6.6,1.801 6.6,1.801 7.2,2.398 7.8,3 7.2,3 7.2,3 6,3 6.6,3.602 4.8,2.398 4.8,3 5.4,3.602 5.4,3 5.4,3.601 5.4,4.2 4.8,3.597 4.8,3.602 4.8,4.199 4.8,3.602 4.2,3.597 4.2,4.203 4.8,4.2 4.8,4.8 4.8,4.797 4.8,4.801 4.8,4.801 4.2,4.801 4.2,4.199 4.2,4.801 4.2,4.199 3.6,4.801 4.8,5.398 4.2,5.402 4.8,6 4.8,6.598 5.4,7.199 4.8,7.203 4.8,7.2 4.8,7.8 3.6,6 3.6,6 4.2,6.598 4.2,7.801 4.2,7.801 4.8,7.8 4.8,9 4.8,8.399 4.8,9 4.2,9 4.8,8.398 4.2,8.403 4.2,8.398 3.6,7.801 4.2,8.398 3.6,7.801 4.2,9 3.6,8.402 4.2,8.399 4.2,9 3.6,8.398 3.6,8.403 3.6,8.398 3.6,7.199 3,7.203 2.4,6 2.4,6 2.4,4.797 3.6,8.403 3.6,7.195 3,6 2.4,6 2.4,4.8 2.4,4.2 1.8,3 1.2,3 2.4,4.2 2.4,4.2 3,4.21 2.4,4.19 2.4,4.2 2.4,3.61 2.4,3.59 3,3.6 3,3.6 3,3.6 2.4,3.61 3,3 2.4,2.39 3.6,3 3,3 3.6,3 3.6,2.4 3,2.4 3,1.81 3.6,1.79 4.2,2.4 3.6,1.81 4.2,1.19 3.6,1.81 3.6,1.19 4.2,1.2 4.8,1.2 4.2,1.2 4.8,1.21 4.2,0.59 4.2,0.6 4.8,1.2 4.8,0.61 5.4,0.59 4.8,0.6 4.2,0.6 h 4.8 l 4.8,0.6 h 5.4 l 5.4,0.61 4.8,0.59 h 4.8 l 4.8,0.6 h 4.8 l 5.4,0.6 5.4,0.6 4.8,0.61 4.8,0.59 4.2,0.6 4.8,0.6 5.4,0.6 4.8,1.2 4.8,1.2 4.2,0.6 4.2,1.2 4.8,1.8 4.8,1.2 4.2,1.8 4.2,1.8 4.2,1.81 3.6,1.79 4.2,2.4 3.6,2.4 4.2,2.41 3,2.39 3.6,3 3,2.4 3,3 3,3.6 3,3.61 3,3.59 2.4,3 2.4,3.6 2.4,3.6 2.4,4.21 2.4,4.79 1.8,3.6 1.8,4.2 1.8,4.2 1.8,4.8 1.8,4.8 1.8,4.8 1.2,4.81 1.2,4.19 1.2,3.6 1.2,3.6 0.6,4.8 1.2,4.81 1.2,6.59 0.6,6.6 1.2,7.81 0.6,8.39 0.6,6.61 0.6,7.19 0.6,7.81 0.6,8.39 0.6,9.61 1.2,9.59 0.6,9.6 0.6,9.6 0.6,9 0.6,8.4 0.6,7.81 0.6,7.79 0.6,8.4 0.6,7.81 0.6,7.79 1.2,7.8 0.6,7.2 0.6,7.21 1.2,6 0.6,6 0.6,5.39 0.6,5.4 1.2,6 0.6,7.21 1.2,6.59 1.2,7.2 1.2,7.21 1.2,6.59 1.2,6.6 1.2,6 1.2,5.4 1.8,6 1.8,6.6 1.8,6.6 1.8,6 1.8,6 1.8,5.4 1.8,5.4 2.4,4.8 2.4,5.4 2.4,5.4 3,5.4 3,5.41 3,5.39 3,4.8 3,4.2 3,4.2 3,4.8 4.2,4.2 3.6,4.8 4.2,4.8 4.2,4.2 4.2,3.61 4.2,4.19 4.2,3.6 4.2,3.6 4.8,3.61 5.4,4.19 5.4,3.6 5.4,3.6 5.4,3.61 4.8,3 5.4,3.59 5.4,3 6,3.6 6,3.6 6,3.6 6.6,3.61 6,3 5.4,3 4.8,2.39 4.8,2.4 5.4,3 5.4,3 6.6,3 6.6,3 6.6,3.6 7.2,3.61 7.2,3 7.8,3.59 6,3 6,2.41 6.6,3 7.2,3.59 7.8,3.6 8.4,3.6 8.4,3.6 8.4,4.2 8.4,3.6 9,4.2 8.4,3.61 7.8,4.19 7.8,3.6 8.4,4.21 7.8,3.59 7.8,4.2 8.4,4.21 8.4,4.19 8.4,4.81 9,4.79 9,4.8 9,5.41 9,4.79 9,5.4 8.4,4.81 7.8,4.79 8.4,4.8 7.2,4.2 7.8,4.8 7.8,4.8 8.4,5.4 8.4,5.4 8.4,5.4 8.4,6 9,5.41 9,6 9,6 8.4,6 7.8,6 8.4,5.39 7.2,5.4 7.8,6 7.2,5.4 7.8,5.4 7.8,6 7.8,6.6 8.4,6 8.4,7.2 9,6.61 8.4,7.19 8.4,6.6 8.4,6.6 7.8,7.2 7.2,6 7.8,6.6 7.2,6.6 7.2,6 7.2,6.6 7.2,6.61 7.8,7.19 7.8,7.81 8.4,7.19 8.4,7.81 7.8,8.39 8.4,7.8 7.8,7.81 7.2,7.19 7.2,7.2 7.2,7.2 6.6,7.2 7.2,7.21 6.6,7.79 7.2,7.21 7.2,8.39 7.8,8.4 7.8,8.4 7.2,8.4 7.8,9 7.8,9 7.2,8.41 7.2,8.39 6.6,8.4 6.6,7.8 6.6,7.8 5.4,7.2 6,7.2 5.4,7.21 6,7.79 6,7.8 6.6,9 6.6,9 6,9 6.6,9.6 6.6,9.6 6,10.21 6.6,9.59 6,10.2 6,10.21 5.4,10.19 6,10.2 4.8,8.4 4.8,9 4.8,9.6 4.8,10.2 4.8,10.2 5.4,10.8 5.4,11.41 5.4,12 5.4,12 5.4,12 5.4,12.59 5.4,12.6 4.8,12.6 4.8,12.6 5.4,12.61 4.2,12.59 4.8,12 4.2,11.41 4.2,12 3.6,12 4.2,11.39 3.6,12 3.6,12 3.6,12.61 3.6,12.59 3.6,13.2 3.6,13.8 3.6,13.8 3.6,13.8 3,14.4 3,13.8 3,14.4 3,13.8 2.4,13.8 2.4,13.2 2.4,13.2 1.8,13.21 1.8,12.59 1.8,12 z"
       style="fill:none;stroke:#000000;stroke-width:27;stroke-linecap:butt;stroke-linejoin:bevel;stroke-miterlimit:10;stroke-dasharray:none;stroke-opacity:1"
       transform="matrix(0.13333333,0,0,-0.13333333,0,634.66667)" />
    <path
       id="path3"
       d="m 4168,896.605 10.2,6.598 10.2,6.602 10.8,7.199 10.8,7.801 10.8,7.199 10.8,8.398 11.4,8.403 11.4,8.398 10.8,9 11.4,9 11.4,9 10.8,9.602 10.8,8.995 10.2,9.6 10.2,9 9.6,9 9,9 9,9 9,9 8.4,8.4 8.4,9 8.4,9.6 8.4,9 8.4,10.21 8.4,10.19 8.4,10.2 8.4,10.8 9,11.4 8.4,11.41 8.4,11.39 8.4,12 7.8,11.4 7.8,12 7.2,11.4 7.2,11.4 7.2,11.41 6.6,11.39 6,10.8 6,10.81 5.4,10.79 6,10.8 5.4,10.8 5.4,11.4 5.4,12 5.4,12 4.8,12.6 5.4,12.61 5.4,13.19 4.8,13.2 4.8,13.2 4.8,13.8 4.8,13.8 4.2,13.2 3.6,13.2 4.2,13.2 3,12.6 3.6,12.61 3,12 2.4,12 3,12.59 2.4,12 2.4,12 1.8,12.6 2.4,12.6 1.8,13.21 1.8,13.19 1.8,13.81 1.2,14.39 1.2,14.4 1.2,14.4 1.2,14.4 0.6,13.8 1.2,14.4 v 13.8 l 0.6,13.8 v 39 l -0.6,12.61 -0.6,12.59 -0.6,12 -0.6,12.6 -1.2,12.6 -1.2,13.21 -1.2,13.19 -1.2,13.81 -1.8,13.79 -1.8,13.8 -2.4,14.41 -1.8,14.39 -2.4,14.4 -2.4,13.8 -3,14.41 -2.4,13.19 -3,13.81 -2.4,12.59 -3,12.6 -3,12.6 -3,12 -3,12 -3.6,12 -3,12 -3.6,12 -3.6,12.6 -4.2,12.61 -3.6,12.59 -4.2,12.6 -4.8,13.2 -4.2,12.61 -4.8,13.19 -4.2,12.6 -4.8,12.6 -4.8,12 -4.2,11.4 -4.8,11.4 -4.2,10.81 -4.2,9.59 -4.2,10.2 -4.2,9 -4.2,9 -4.8,10.8 -5.4,10.8 -5.4,10.2 -5.4,10.2 -5.4,10.21 -6,10.79 -5.4,9.6 -6,10.2 -6,9.6 -5.4,9.6 -6,9 -5.4,8.4 -5.4,7.81 -5.4,7.79 -5.4,7.8 -4.8,7.2 -6,8.4 -6,8.4 -6.6,8.41 -6.6,9 -6.6,9 -7.2,9 -7.2,9.59 -7.2,9 -6.6,9 -7.2,9 -6.6,8.41 -6.6,7.79 -6.6,7.8 -6.6,7.8 -6,7.2 -6.6,7.8 -6.6,7.8 -7.2,7.81 -7.2,8.39 -7.8,8.4 -7.2,8.4 -7.8,8.4 -7.8,8.41 -7.2,7.79 -7.2,7.21 -7.2,7.79 -7.2,6.6 -6.6,7.2 -6.6,6.6 -7.2,6.6 -7.2,7.21 -7.2,7.19 -7.8,7.2 -7.8,7.8 -8.4,7.2 -7.8,7.2 -8.4,7.8 -7.8,6.61 -7.8,7.19 -7.2,6 -7.2,6.6 -7.2,6 -7.2,6 -7.2,6 -7.8,6 -7.8,6 -7.8,6.6 -8.4,6.61 -8.4,6.59 -8.4,6.6 -8.4,6 -8.4,6.6 -7.8,5.4 -7.8,6 -7.8,5.4 -7.2,4.8 -7.2,5.4 -7.8,5.4 -7.8,4.81 -7.8,5.39 -8.4,5.4 -9,6 -8.4,5.4 -9,5.4 -8.4,5.41 -8.4,5.39 -8.4,4.8 -7.8,4.81 -7.8,4.19 -7.2,4.81 -7.8,4.19 -7.8,4.2 -7.8,4.2 -8.4,4.8 -8.4,4.8 -9,4.2 -9,4.8 -8.4,4.81 -9,4.19 -8.4,4.2 -8.4,4.2 -8.4,3.6 -7.8,4.2 -7.2,3.61 -7.8,3 -7.8,3.59 -8.4,3.6 -8.4,3.6 -8.4,3.6 -9,3.61 -9,4.19 -9,3.6 -9,3 -8.4,3.6 -8.4,3 -8.4,3 -7.8,3 -7.8,3 -7.8,2.4 -7.8,2.4 -8.4,3 -8.4,2.4 -8.4,3 -9,3 -9,2.41 -9,2.39 -9,3 -8.4,2.4 -8.4,2.4 -8.4,1.81 -7.8,2.39 -7.8,1.8 -7.8,1.81 -7.8,1.79 -7.8,1.8 -8.4,1.8 -9,1.8 -8.4,2.4 -9,1.8 -9,1.2 -9,1.8 -8.4,1.8 -8.4,1.2 -8.4,1.8 -7.8,1.2 -7.2,1.2 -7.8,0.6 -7.8,1.2 -7.8,1.2 -8.4,1.2 -9,0.6 -9,1.2 -9,1.2 -9.6,0.6 -9,1.2 -9.6,1.2 -9,0.6 -9.6,1.2 -9,0.6 -9,1.2 -8.4,0.61 -8.4,0.59 -9,1.2 -9,0.6 -9.6,1.2 -10.2,0.6 -10.8,1.2 -10.2,0.61 -10.8,1.19 -10.8,0.6 -10.2,1.21 -10.2,0.59 -10.2,0.6 -9.6,0.6 -9,0.6 -9,0.61 -10.8,0.59 -10.2,0.6 -10.8,0.6 -10.8,0.6 h -11.4 l -11.4,0.61 -11.4,0.59 H 3070 l -11.4,0.6 h -10.2 l -10.2,0.6 h -9.6 l -9.6,0.6 h -8.4 l -9,0.61 h -9 l -9,0.59 -9,0.6 -9.6,0.6 -9,0.6 -9.6,0.61 -9,0.59 -9,1.2 -9,0.6 -8.4,1.2 -7.8,0.6 -7.2,1.2 -7.2,1.2 -8.4,1.2 -8.4,1.8 -8.4,1.8 -9,1.8 -9,2.4 -8.4,2.41 -9,2.39 -8.4,3 -7.8,3 -7.8,3 -7.2,3 -7.2,3.61 -6.6,3 -7.2,3.59 -6.6,4.2 -7.2,4.21 -7.8,4.79 -7.2,5.4 -7.8,5.4 -7.2,5.41 -7.2,5.39 -6.6,6 -6.6,5.4 -6,5.4 -5.4,4.81 -5.4,5.39 -6,5.4 -5.4,6 -6,6.6 -6.6,6.61 -6,6.59 -6.6,7.2 -6.6,6.6 -6,7.2 -6,7.2 -6,6.6 -6,6.61 -5.4,6.59 -6,7.2 -6,6.6 -6.6,7.8 -6.6,7.81 -6.6,7.79 -7.2,8.4 -7.2,8.4 -7.2,9 -7.2,8.41 -7.8,8.39 -7.2,8.4 -6.6,7.8 -7.2,7.8 -6.6,7.8 -6.6,6.6 -6,7.21 -6.6,6.59 -6.6,7.2 -7.2,7.8 -7.2,7.8 -7.2,7.2 -7.2,7.8 -7.8,7.8 -7.2,7.81 -6.6,7.19 -7.2,7.2 -6.6,6.61 -6,6 -6,6.59 -5.4,6 -6.6,6 -6.6,6.6 -6,6.6 -6.6,7.21 -6.6,6.59 -6.6,6.6 -6.6,6.6 -6.6,6.6 -6.6,6.61 -6.6,6 -6,6 -5.4,6 -6,5.39 -5.4,4.8 -5.4,5.4 -6,5.41 -6,5.39 -6.6,5.4 -6,6 -7.2,6 -6.6,6 -7.2,5.4 -6.6,6 -7.2,5.4 -6.6,5.41 -6.6,5.39 -6,4.8 -6.6,4.81 -6,4.79 -6.6,4.8 -6.6,5.41 -7.2,4.79 -7.2,5.4 -7.2,5.4 -7.8,5.41 -7.8,5.39 -7.8,5.4 -7.2,4.8 -7.8,4.8 -7.2,4.8 -6.6,4.81 -7.2,4.19 -6.6,4.2 -7.2,4.2 -7.8,4.8 -7.8,4.8 -7.8,4.2 -8.4,4.8 -8.4,4.81 -8.4,4.79 -8.4,4.8 -8.4,4.8 -7.8,4.2 -7.8,4.2 -7.8,3.6 -7.2,4.2 -7.8,3.6 -7.8,3.6 -8.4,4.21 -7.8,3.59 -9,4.2 -9,4.21 -9,4.19 -9,4.2 -9.6,3.61 -9,4.19 -8.4,3.6 -8.4,3.6 -8.4,3 -7.8,3.61 -8.4,3 -8.4,3 -8.4,3.59 -9,3 -9.6,3.6 -9.6,3.6 -9.6,3 -9.6,3.6 -10.2,3 -9.6,3 -9,3 -9,3 -9,3 -8.4,2.4 -8.4,2.4 -9,2.4 -9,2.41 -9.6,3 -9.6,2.39 -9.6,2.4 -9.6,2.4 -9.6,2.4 -9,1.8 -9,2.4 -8.4,1.8 -7.2,1.2 -7.2,1.8 -7.2,1.2 -9,1.21 -8.4,1.79 -8.4,1.21 -8.4,0.59 -8.4,1.2 -7.8,0.6 h -7.2 l -6.6,0.61 h -31.2 l -6.6,-0.61 h -6.6 l -7.2,-0.6 -6.6,-0.6 -6,-0.6 -6,-0.59 -6,-0.61 -5.4,-0.6 -6,-1.2 -6,-1.2 -6.6,-1.2 -6.6,-1.19 -6,-1.81 -6,-1.8 -6,-1.8 -5.4,-1.2 -5.4,-1.8 -6.6,-2.4 -6.6,-3 -7.2,-3 -7.2,-3 -7.2,-3.6 -6.6,-3.59 -6,-3.61 -6,-3.6 -5.4,-4.2 -6,-4.2 -6,-4.8 -6,-4.8 -6,-5.4 -6,-4.8 -4.8,-5.4 -4.8,-4.8 -4.2,-4.2 -3.6,-4.19 -4.2,-4.81 -3.6,-4.8 -4.2,-5.39 -3.6,-5.41 -4.2,-4.8 -3,-5.4 -3.6,-4.8 -3,-4.8 -3,-5.4 -3,-4.8 -3,-6 -3,-5.4 -3,-6 -3.6,-6.6 -3,-6 -2.4,-6 -2.4,-5.4 -2.4,-5.4 -2.4,-5.4 -3,-6 -2.4,-6 -2.4,-7.2 -2.4,-7.19 -3,-7.81 -2.4,-8.4 -2.4,-7.79 -2.4,-8.41 -1.8,-9 -1.8,-7.8 -1.8,-8.4 -2.4,-9 -1.8,-10.2 -1.8,-9.6 -1.8,-10.2 -2.4,-10.2 -1.8,-9.6 -1.2,-9 -1.8,-8.4 -1.2,-7.8 -1.2,-6.6 -1.8,-9 -1.8,-7.79 -1.8,-7.21 -1.2,-6.6 -1.2,-5.4 -1.2,-4.2 -1.2,-4.2 -0.6,-3.6 -1.2,-4.2 -1.8,-4.8 -1.2,-5.4 -1.8,-4.8 -1.2,-4.8 -1.8,-4.2 -1.2,-4.2 -1.8,-4.2 -2.4,-4.8 -1.8,-4.2 -2.4,-4.19 -1.8,-3.61 -2.4,-3.6 -2.4,-3.6 -2.4,-4.19 -3,-3.61 -3,-3.6 -2.4,-3 -3,-3 -3,-3 -3.6,-3 -3.6,-3 -3.6,-3 -3,-2.4 -3.6,-2.39 -3.6,-2.41 -4.2,-2.4 -4.8,-2.4 -3.6,-2.4 -4.2,-1.8 -4.2,-2.4 -4.8,-1.8 -4.8,-1.8 -4.8,-2.4 -4.8,-1.8 -4.2,-1.8 -4.8,-1.2 -4.8,-1.8 -5.4,-2.4 -4.8,-1.8 -4.8,-1.8 -4.8,-1.2 -4.8,-1.8 -4.8,-1.8 -4.8,-2.4 -5.4,-1.8 -4.8,-1.8 -4.2,-1.79 -4.8,-2.41 -4.8,-1.8 -4.8,-2.4 -4.8,-2.39 -4.2,-2.41 -4.2,-2.4 -3.6,-2.4 -4.2,-2.4 -4.2,-3 -4.2,-3 -3.6,-3 -3.6,-3 -3,-3 -3.6,-3 -3,-3.6 -3,-3.6 -3,-3.6 -2.4,-3.59 -2.4,-3.61 -2.4,-4.2 -2.401,-4.19 -2.398,-4.21 -1.801,-4.2 -1.801,-4.2 -1.199,-4.2 -1.801,-4.19 -1.199,-4.81 -1.199,-4.8 -1.199,-4.8 -1.204,-4.8 -0.597,-4.2 -0.602,-5.4 -0.597,-5.4 -0.602,-5.4 -0.602,-4.8 v -8.4 l -0.597,-4.19 0.597,-4.81 v -5.4 l 0.602,-6.6 0.602,-7.19 0.597,-7.81 1.199,-9 1.204,-6.6 1.199,-7.2 1.199,-8.39 1.199,-9 1.801,-10.21 1.801,-10.2 2.398,-10.8 1.801,-10.79 1.801,-10.81 2.399,-10.8 1.8,-10.2 2.4,-9.6 1.8,-9 1.8,-8.4 2.4,-9 1.8,-9 2.4,-9 2.4,-9 2.4,-9.6 1.8,-9 2.4,-8.4 1.8,-8.4 2.4,-7.2 1.8,-7.2 1.2,-6.6 1.8,-6 1.8,-8.4 1.8,-7.8 1.8,-7.8 1.8,-7.2 1.8,-7.2 1.2,-7.2 1.2,-6 1.2,-6 1.2,-5.4 0.6,-4.79 1.2,-6.61 1.2,-6.6 1.2,-7.2 1.2,-7.2 1.2,-7.2 1.2,-6.6 0.6,-6.59 0.6,-6 0.6,-6 0.6,-6 0.6,-6.61 v -6.6 l 0.6,-6.6 v -12 l -0.6,-5.4 v -5.4 l -0.6,-6 -0.6,-6 -1.2,-6 -1.2,-6 -1.2,-5.39 -1.2,-5.41 -1.2,-5.4 -1.8,-4.8 -1.8,-5.39 -1.8,-5.41 -2.4,-6 -3,-5.4 -2.4,-5.4 -2.4,-5.4 -3,-4.2 -3,-4.8 -3,-5.39 -3,-4.81 -4.2,-5.4 -3.6,-5.4 -4.2,-5.39 -3.6,-4.81 -3.6,-4.8 -4.2,-4.8 -4.199,-4.8 -4.199,-5.4 -4.801,-5.39 -5.403,-4.81 -4.796,-5.4 -4.204,-4.79 -4.796,-4.81 -3.602,-3.6 -3.602,-4.2 -4.199,-4.2 -4.801,-4.8 -4.796,-4.8 -5.403,-4.8 -5.398,-5.4 -5.403,-5.39 -6,-5.41 -6,-6 -5.398,-4.8 -6,-6 -6,-5.4 -7.199,-6.6 -6.602,-6 -7.199,-6.6 -7.199,-6.6 -6.602,-6.59 -6.597,-6 -6,-5.41 -4.801,-4.8 -4.801,-4.2 -6,-6 -5.398,-6 -4.801,-4.8 -4.199,-4.79 -3.602,-3.61 -3,-3.6 -2.398,-3.6 -1.801,-2.4 -3,-4.2 -2.403,-4.2 -3,-4.2 -2.398,-4.19 -2.398,-4.21 -2.403,-4.2 -1.801,-4.2 -1.796,-4.2 -2.403,-4.19 -1.801,-4.81 -1.199,-4.19 -1.199,-3.61 -1.199,-4.2 -1.199,-4.19 -0.602,-4.81 -0.602,-4.19 -0.597,-4.21 v -12.6 l 0.597,-4.8 v -4.8 l 0.602,-4.2 1.199,-4.2 0.602,-4.19 1.199,-4.21 1.801,-4.79 1.801,-4.81 1.796,-4.19 1.801,-4.21 1.801,-3.6 1.801,-4.19 2.398,-4.81 3,-4.19 2.403,-4.21 2.398,-4.2 2.398,-4.2 2.403,-4.2 3.597,-4.8 3.602,-5.39 3.602,-5.41 3.597,-5.4 3,-4.19 3.602,-4.81 4.199,-6 4.199,-6 4.199,-6 4.204,-6 4.199,-6 3.597,-5.4 4.204,-6 3.597,-5.4 4.199,-6 4.204,-6.6 4.199,-6 3.597,-6 3.602,-6 3.602,-5.4 3,-5.39 3,-5.41 3.597,-6 3,-6.59 3,-6 3,-6 2.403,-5.41 2.398,-5.4 1.801,-5.4 2.398,-6 1.801,-6 1.801,-6.6 1.801,-6 1.199,-6 1.199,-6 1.199,-5.4 0.602,-6 0.597,-5.4 0.602,-6.6 0.602,-6.6 v -18.6 l -0.602,-6 v -6 l -0.602,-6 -1.199,-6.59 -0.597,-6.61 -1.204,-7.2 -1.199,-6.6 -1.199,-6.59 -1.199,-6 -1.199,-6 -1.801,-6.61 -1.801,-7.2 -1.801,-7.19 -1.801,-7.21 -1.796,-7.2 -2.403,-6.59 -1.801,-6.61 -1.199,-4.8 -1.801,-5.4 -1.796,-6 -2.403,-6.6 -1.801,-6.59 -2.398,-7.21 -2.398,-7.79 -3,-7.81 -2.403,-7.8 -3,-7.8 -3,-7.2 -2.398,-7.8 -3.602,-8.4 -3,-9 -3.597,-9.6 -3.602,-9.59 -3.602,-9.61 -3,-9.6 -3,-9 -3,-9 -3,-7.79 -2.398,-7.21 -2.398,-8.4 -2.403,-8.39 -1.801,-7.81 -1.796,-8.4 -1.801,-7.79 -1.801,-7.21 -1.199,-6.6 -1.199,-6.6 -0.602,-6 -0.602,-6 -0.597,-5.4 -0.602,-6 -0.597,-6.6 -0.602,-6 -0.602,-6.59 V 1709 l -0.597,-6.6 v -24.6 l 0.597,-7.19 0.602,-7.81 0.602,-7.8 1.199,-7.8 1.199,-7.2 1.199,-6.6 1.801,-6.6 1.199,-6.6 2.403,-6.59 1.796,-7.21 2.403,-7.2 3,-6.59 3,-6.61 3,-6.6 3,-5.4 3,-6 3,-6 4.199,-6 4.199,-6 4.199,-6.6 4.801,-5.4 4.199,-5.39 4.204,-5.41 4.796,-4.8 4.801,-4.79 5.403,-5.41 6,-5.4 6,-5.4 6,-4.79 5.398,-4.21 5.398,-4.2 4.801,-3 4.801,-3.59 4.801,-3 5.398,-3.61 5.403,-3.6 6,-3.6 5.398,-3 5.398,-3 5.403,-3 4.801,-2.4 6.597,-3.6 6.602,-3.6 7.199,-3 7.2,-3.59 6.6,-3.61 6.6,-3 6,-2.39 4.8,-2.41 6.6,-3 6,-3 6,-2.4 5.4,-2.4 4.8,-2.4 4.8,-1.8 4.2,-2.4 4.2,-1.8 4.8,-2.39 4.8,-2.41 4.2,-2.4 4.2,-1.8 3.6,-2.39 4.2,-2.41 4.2,-3 4.2,-2.4 3.6,-3 3.6,-2.4 3,-2.4 3.6,-3 3,-3.6 3.6,-3 2.4,-3.6 3,-3 2.4,-3.6 2.4,-3.59 2.4,-3.61 2.4,-4.2 2.4,-4.19 1.8,-3.61 1.8,-3.6 1.8,-4.2 1.8,-4.8 1.8,-4.2 1.8,-4.8 1.2,-4.2 1.2,-4.2 1.2,-4.8 1.2,-5.4 1.2,-4.8 1.2,-5.39 1.2,-4.21 0.6,-3.6 0.6,-4.19 0.6,-4.81 1.2,-5.4 0.6,-6 1.2,-7.2 1.2,-8.4 1.2,-9 0.6,-6.6 1.2,-7.8 0.6,-8.4 1.2,-9 1.2,-10.2 1.8,-10.19 1.2,-10.21 1.2,-10.2 1.2,-9.59 1.8,-9 1.2,-9 1.2,-7.81 1.8,-9 1.8,-8.4 1.8,-8.4 1.8,-8.39 1.8,-7.81 2.4,-7.19 1.8,-7.21 2.4,-6.6 1.8,-6 2.4,-5.4 1.8,-6 2.4,-5.4 2.4,-6 2.4,-6.6 3,-6 2.4,-6.6 3,-6 2.4,-5.4 3,-5.4 2.4,-5.39 3,-4.805 3,-5.403 3,-5.398 3.6,-5.399 3.6,-5.402 3.6,-5.398 3.6,-5.403 3.6,-4.797 3.6,-4.8 3.6,-4.2 4.2,-5.402 4.8,-5.398 5.4,-5.403 5.4,-5.398 6,-5.399 5.4,-4.8 6,-4.801 5.4,-4.199 5.4,-3.602 6,-4.199 6,-4.199 7.2,-4.2 6.6,-3.601 7.2,-3.602 6,-3 6.6,-3 5.4,-1.797 5.4,-2.402 5.4,-1.801 6,-1.797 6,-2.402 6.6,-1.801 6,-1.199 6,-1.801 6,-1.199 6,-1.199 5.4,-1.199 6,-1.2 6,-0.601 6.6,-1.199 7.2,-0.602 6.6,-1.199 6.6,-0.602 6.6,-0.597 6,-0.602 h 6 l 6,-0.598 h 36.6 l 8.4,0.598 8.4,0.602 9,0.597 9,1.203 6.6,0.598 7.2,1.199 7.8,1.203 8.4,1.2 9,1.199 9,1.801 9.6,1.8 10.2,1.797 9.6,1.801 9.6,1.801 9.6,1.801 9.6,2.398 9,1.801 8.4,1.801 9,1.8 9,2.399 9,1.801 9,2.398 9.6,2.402 9,2.399 9,2.398 9,2.403 8.4,1.8 8.4,2.399 7.2,1.801 6.6,1.8 6,1.2 5.4,1.8 8.4,1.797 7.8,2.403 7.2,1.199 6,1.801 5.4,1.199 4.2,0.601 4.2,0.598 3.6,1.199 4.2,0.602 4.8,0.601 4.8,0.598 5.4,0.602 4.2,0.597 4.8,0.602 h 4.2 l 4.2,0.601 h 9.6 l 4.2,-0.601 h 4.2 l 3.6,-0.602 4.2,-0.597 4.2,-0.602 4.8,-1.199 3.6,-1.199 4.2,-1.2 3.6,-1.203 3.6,-1.199 4.2,-1.801 4.2,-2.398 3.6,-1.801 3.6,-1.801 3,-2.398 3.6,-2.399 3.6,-3 4.2,-3 3,-2.402 3.6,-3 3,-3 3.6,-3 3.6,-3.598 3.6,-3.601 3.6,-3 3,-3.602 3,-3 3.6,-4.199 3.6,-3.598 3.6,-4.203 3.6,-3.597 3,-3.602 3,-3.598 3.6,-3.601 3.6,-3.602 3.6,-4.199 3.6,-3.598 3.6,-3 3,-3 3.6,-3.601 4.2,-3.602 3.6,-3 3.6,-3 3.6,-3 3.6,-2.398 4.2,-2.399 4.2,-3 4.2,-2.402 3.6,-1.801 4.2,-1.797 3.6,-1.8 4.2,-1.801 4.2,-1.801 4.8,-1.199 4.2,-1.199 3.6,-0.602 4.2,-0.598 4.2,-0.601 4.8,-0.602 h 16.8 l 4.8,0.602 4.8,0.601 4.8,1.2 4.8,1.199 4.2,0.601 4.2,1.2 4.8,1.8 4.8,1.2 4.8,1.8 4.8,1.797 4.2,1.801 3,1.199 3.6,1.801 4.2,1.801 4.8,2.398 5.4,3 6,3.602 6.6,4.199 7.2,4.801 5.4,3 6,4.199 6.6,4.801 7.2,4.801 7.8,5.398 7.8,5.402 7.8,5.399 7.8,5.398 7.8,5.403 7.2,4.8 6.6,4.2 6,4.8 7.2,4.2 6.6,4.8 6.6,4.2 6,4.199 6.6,4.199 6,3.602 5.4,3 4.8,3.597 4.8,2.403 4.8,3 5.4,3 6,3.597 6,3.602 6,3.601 6.6,3 6,3.598 6,3 5.4,2.402 4.8,2.399 6,3 6,2.398 6,2.403 6,2.398 6,2.402 5.4,1.797 5.4,1.801 5.4,1.801 5.4,1.199 5.4,1.801 6.6,1.199 6,0.602 5.4,1.199 6,0.601 4.8,0.598 h 23.4 l 6,-0.598 6,-0.601 5.4,-0.602 5.4,-1.199 5.4,-1.199 6,-1.199 6,-1.2 6.6,-1.8 6,-1.801 6.6,-1.801 5.4,-1.801 6,-1.797 5.4,-1.8 6,-2.403 6.6,-2.398 6.6,-2.399 6.6,-3 6.6,-2.402 6.6,-3 6,-2.398 4.8,-1.801 4.8,-2.399 5.4,-2.402 6,-3 6,-3 7.2,-3 6.6,-3 7.2,-3.598 7.2,-3.601 7.2,-3.602 6,-3 6,-3 6.6,-3.597 6.6,-3.602 7.8,-3.598 7.8,-4.203 8.4,-4.199 8.4,-4.199 8.4,-4.199 8.4,-4.2 8.4,-4.203 7.8,-4.199 8.4,-3.598 7.8,-3.601 7.8,-3.602 7.8,-4.199 8.4,-3.598 9,-3.601 9,-4.199 9.6,-4.2 9.6,-3.601 9.6,-4.199 9,-3.602 9.6,-3.598 9,-3.601 9,-3.602 8.4,-3 8.4,-3 8.4,-3 9,-3.597 9,-3 9,-3 10.2,-3 9.6,-3.602 10.2,-3 10.2,-3.598 10.2,-3 9.6,-3 10.2,-2.402 9,-3 9,-2.398 9,-2.403 9,-2.398 9,-2.399 9.6,-2.402 10.2,-2.398 10.2,-2.403 10.8,-2.398 10.8,-2.399 10.8,-2.402 10.2,-2.398 10.8,-1.801 10.2,-2.399 9.6,-1.8 9.6,-1.801 9.6,-1.801 9.6,-1.801 9.6,-1.199 9.6,-1.801 10.8,-1.797 10.8,-1.203 10.8,-1.797 11.4,-1.8 11.4,-1.2 10.8,-1.203 11.4,-1.797 10.2,-0.601 10.2,-1.199 10.2,-1.2 9.6,-0.601 10.2,-1.199 9.6,-0.602 10.8,-1.199 10.8,-0.602 10.8,-0.597 12,-0.602 11.4,-0.598 11.4,-0.601 12,-0.602 h 10.8 l 11.4,-0.597 h 31.2 l 8.4,-0.602 9,0.602 h 19.2 l 10.2,0.597 h 10.8 l 10.8,0.602 11.4,0.601 11.4,1.2 12,1.199 11.4,1.199 12,1.199 11.4,1.203 11.4,1.797 12,1.801 11.4,1.801 9.6,1.801 10.2,1.8 10.2,2.399 11.4,2.398 10.8,2.403 12,2.398 12,3 12.6,3 13.2,3.602 12.6,3.597 13.2,3.602 13.2,3.601 13.2,3.598 13.2,4.199 12.6,4.203 12.6,3.598 12,4.199 12,4.203 12,4.2 11.4,4.199 11.4,4.199 12,4.199 11.4,4.801 12,4.801 12.6,5.398 12.6,5.403 12.6,5.398 13.2,6 12.6,6 13.2,6 13.2,6.602 12.6,6.597 12.6,6.602 12.6,6.601 12,6.598 11.4,6.602 11.4,6 10.8,6.597 10.8,6.602 z"
       style="fill:none;stroke:#000000;stroke-width:27;stroke-linecap:butt;stroke-linejoin:bevel;stroke-miterlimit:10;stroke-dasharray:none;stroke-opacity:1"
       transform="matrix(0.13333333,0,0,-0.13333333,0,634.66667)" />
    <path
       id="path4"
       d="m 3475,4429.4 -9,9 -9,8.4 -9,9 -9.6,8.4 -10.2,9 -10.2,9 -10.8,9 -10.8,9 -11.4,9 -11.4,9 -11.4,8.41 -11.4,9 -11.4,8.39 -11.4,7.8 -10.8,7.81 -11.4,7.19 -10.8,7.2 -10.2,6.61 -10.8,6.59 -10.8,6.6 -10.2,6 -10.8,6 -11.4,6 -11.4,6 -12,6 -12,6 -12.6,6 -12.6,6 -13.2,5.4 -13.2,6 -13.2,5.41 -13.2,5.39 -13.2,4.8 -12.6,4.81 -12.6,4.19 -12.6,4.2 -12.6,4.2 -12,3.6 -12,3 -11.4,3.6 -12,3 -12,2.4 -12.6,3 -12.6,2.4 -12.6,3 -13.2,1.8 -13.8,2.4 -13.8,2.4 -14.4,1.81 -13.8,1.79 -14.4,1.8 -14.4,1.2 -13.8,1.21 -13.8,0.59 -13.2,1.2 h -13.2 l -13.2,0.6 h -49.8 l -12,-0.6 -12.6,-0.6 -13.2,-1.19 -13.2,-0.61 -13.2,-1.2 -14.4,-1.8 -13.8,-1.8 -14.4,-1.8 -13.8,-1.79 -14.4,-2.41 -14.4,-2.4 -13.8,-2.4 -13.8,-2.4 -13.2,-3 -13.2,-3 -12.6,-3 -12,-3 -12.6,-3 -11.4,-3 -12,-3.6 -12,-3.6 -12.6,-3.6 -12,-4.2 -12.6,-4.2 -13.2,-4.19 -13.2,-4.81 -13.2,-5.4 -13.2,-4.79 -13.8,-5.41 -13.2,-5.4 -13.2,-5.4 -13.2,-6 -12.6,-5.4 -12.6,-6 -12,-5.39 -12,-6 -11.4,-5.41 -10.8,-5.4 -10.8,-6 -11.4,-5.4 -10.8,-6 -10.8,-6 -11.4,-6.6 -11.4,-6.6 -11.4,-6.59 -11.4,-7.21 -12,-7.2 -11.4,-7.2 -12,-7.2 -10.8,-7.19 -11.4,-7.21 -10.8,-7.2 -10.2,-7.2 -10.2,-6.6 -9,-6.6 -9,-6.6 -9,-6.59 -7.8,-6 -7.8,-6 -9.6,-7.21 -9,-7.2 -9,-7.8 -9,-7.2 -9,-7.8 -8.4,-7.79 -9,-7.81 -8.4,-7.8 -7.8,-8.39 -7.8,-7.21 -7.8,-7.79 -6.6,-7.21 -7.2,-7.2 -6,-6.59 -6,-7.21 -6,-6.6 -7.2,-7.19 -6.6,-7.81 -7.2,-8.4 -7.2,-8.4 -7.2,-8.39 -7.2,-9 -7.8,-9 -7.2,-9 -7.2,-9 -7.2,-9 -6.6,-8.41 -6,-8.4 -6.6,-7.8 -6,-7.8 -6,-7.8 -6,-8.4 -6,-8.39 -6,-8.41 -6.6,-9 -6.6,-9 -6.6,-9.59 -6,-9 -6.6,-9.61 -6,-9 -6,-8.39 -5.4,-9 -5.4,-7.81 -4.8,-8.4 -5.4,-7.79 -4.8,-8.41 -5.4,-8.4 -5.4,-9 -5.4,-9.6 -5.4,-9 -5.4,-9.59 -5.4,-9.61 -5.4,-9.6 -4.8,-9 -4.8,-9 -4.8,-9 -4.2,-8.4 -4.2,-7.8 -4.8,-8.4 -4.2,-8.4 -4.2,-9 -4.2,-9 -4.8,-9 -4.2,-9.6 -4.8,-10.19 -4.2,-9.61 -4.2,-9.6 -4.2,-9 -4.2,-9 -3.6,-9 -3.6,-8.4 -3,-8.39 -3.6,-8.41 -3.6,-8.4 -3.6,-9 -3,-9 -3.6,-9 -3.6,-9.6 -3.6,-10.2 -3.6,-9.6 -3,-9.6 -3.6,-9 -3,-9 -2.4,-9 -3,-8.4 -2.4,-8.4 -3,-8.39 -2.4,-8.41 -2.4,-9 -2.4,-9 -3,-9.59 -2.4,-9.61 -2.4,-9.6 -2.4,-9.6 -2.4,-9.6 -2.4,-9.59 -1.8,-9 -2.4,-8.41 -1.8,-9 -1.2,-7.8 -1.8,-8.4 -1.8,-8.39 -1.8,-9 -1.8,-9 -1.2,-9 -1.8,-9.61 -1.8,-9.6 -1.2,-9.6 -1.2,-9 -1.8,-9.6 -1.2,-9 -0.6,-8.4 -1.2,-8.4 -1.2,-7.79 -0.6,-8.41 -1.2,-8.4 -0.6,-8.4 -0.6,-9 -0.6,-9 -1.2,-9 -0.6,-9.6 -0.6,-9 v -9.6 l -0.6,-9 -0.6,-8.4 v -8.4 l -0.6,-8.4 v -58.2 l 0.6,-9.6 v -9 l 0.6,-9 0.6,-8.4 v -8.4 l 0.6,-8.4 0.6,-7.8 0.6,-7.8 0.6,-7.2 0.6,-7.8 0.6,-8.4 1.2,-8.39 0.6,-8.41 1.2,-9 1.2,-9.59 1.2,-9.61 0.6,-9 1.2,-9.6 1.2,-9 1.2,-9 1.2,-9.6 1.2,-9 1.2,-7.8 1.2,-9 0.6,-8.39 1.2,-9.61 1.8,-9.6 1.2,-10.2 1.2,-10.2 1.8,-10.8 1.2,-10.2 1.8,-10.8 1.2,-10.2 1.8,-10.2 1.2,-9.6 1.8,-9.59 1.2,-9.61 1.8,-9 1.2,-10.2 1.8,-10.19 2.4,-10.21 1.8,-10.79 1.8,-11.41 2.4,-10.8 1.8,-11.4 2.4,-10.8 2.4,-10.8 1.8,-10.2 1.8,-10.2 1.8,-9 1.8,-9.6 1.8,-8.4 1.8,-9 1.8,-8.39 1.2,-9 1.8,-9 1.8,-9 1.2,-9.61 1.8,-9 1.2,-9.6 1.2,-9 1.2,-8.4 0.6,-8.39 1.2,-7.81 0.6,-7.19 0.6,-7.81 0.6,-8.4 V 2639 l -0.6,-9 -0.6,-9 -0.6,-9 -1.2,-8.39 -1.2,-8.41 -1.8,-7.2 -1.2,-7.8 -1.8,-7.2 -2.4,-7.8 -2.4,-7.8 -2.4,-7.79 -3,-8.41 -3.6,-8.4 -3.6,-9 -3.6,-7.8 -4.2,-8.39 -3.6,-7.81 -4.2,-7.19 -4.2,-7.81 -3.6,-6 -3.6,-6.6 -4.2,-6.59 -4.8,-7.21 -4.2,-7.2 -5.4,-7.8 -4.8,-7.2 -5.4,-7.8 -5.4,-7.79 -5.4,-7.81 -5.4,-7.19 -5.4,-7.21 -5.4,-7.2 -5.4,-7.2 -5.4,-7.2 -5.4,-7.19 -5.4,-7.81 -6.6,-8.4 -6,-8.4 -6.6,-9 -6.6,-9 -7.2,-9 -6.6,-9 -6.6,-9 -6.6,-9 -6,-8.39 -6,-9 -6,-8.41 -5.4,-7.2 -5.4,-7.8 -5.4,-7.8 -5.4,-8.4 -6,-8.39 -6,-9 -6,-8.41 -5.4,-9 -6,-9 -6,-9 -5.4,-8.4 -5.4,-7.8 -5.4,-7.8 -4.8,-7.8 -4.8,-7.2 -4.2,-6.59 -4.8,-7.81 -5.4,-7.8 -4.8,-7.8 -5.4,-7.8 -4.8,-7.79 -5.4,-7.81 -4.8,-8.4 -4.8,-7.79 -4.8,-7.81 -4.8,-7.19 -4.8,-7.21 -4.2,-6.6 -3.6,-7.19 -4.2,-6.61 -3.6,-6.6 -4.2,-6.6 -3.6,-7.19 -4.2,-7.21 -4.2,-7.79 -4.2,-7.81 -4.2,-8.4 -4.2,-7.79 -4.2,-8.41 -3.6,-7.8 -3.6,-7.79 -3.6,-7.21 -3.6,-7.2 -3.6,-7.2 -3,-7.2 -3.6,-7.8 -3,-7.8 -3.6,-7.8 -3.6,-8.4 -3.6,-8.39 -3.6,-9 -3.6,-8.41 -3,-9 -3.6,-8.4 -3,-8.4 -3,-7.79 -3,-7.81 -2.4,-7.8 -3,-7.8 -2.4,-7.8 -3,-8.4 -2.4,-8.39 -3,-9 -3,-9 -2.4,-9.61 -3,-9 -2.4,-9 -2.4,-9.6 -2.4,-8.4 -2.4,-8.39 -2.4,-8.41 -1.8,-8.4 -2.4,-8.4 -1.8,-8.4 -1.8,-8.39 -2.4,-9 -1.8,-9.61 -1.8,-9.6 -2.4,-9.6 -1.8,-10.19 -1.8,-9.61 -1.8,-9.6 -1.8,-9.6 -1.2,-9 -1.8,-8.4 -1.2,-8.4 -1.2,-9 -1.2,-9 -1.2,-9 -1.2,-9.6 -1.2,-9.6 -1.2,-10.19 -1.2,-10.21 -1.2,-10.2 -1.2,-10.2 -0.6,-10.2 -0.6,-9.6 -1.2,-9 -0.6,-9.59 -0.6,-8.41 -0.6,-9 v -9.59 l -0.6,-9 -0.6,-10.21 v -9.6 l -0.6,-10.19 v -61.81 l 0.6,-6.6 v -9 l 0.6,-9 1.2,-8.4 0.6,-8.4 1.2,-8.4 1.2,-7.8 1.2,-7.2 1.2,-6.6 1.2,-6 1.2,-6 1.2,-6 1.8,-6 1.2,-6 1.8,-6.6 2.4,-6.6 1.8,-6.59 1.8,-6.61 2.4,-6 1.8,-5.39 1.8,-5.41 2.4,-5.4 2.4,-6 2.4,-5.4 2.4,-6 3,-6 3,-6 3,-5.4 2.4,-5.39 3,-4.81 3,-4.8 3.6,-6 4.2,-6 4.8,-6 4.8,-6.6 4.8,-6 5.4,-5.4 4.8,-5.39 4.8,-4.81 4.8,-4.8 5.4,-4.8 6,-4.8 6,-4.79 6.6,-4.21 6,-4.79 6.6,-3.61 6,-3.6 4.8,-3 4.8,-2.4 5.4,-3 6,-3 6,-2.39 6,-3 6,-2.41 5.4,-2.4 6,-1.8 5.4,-1.8 5.4,-1.8 5.4,-1.795 6.6,-1.8 6,-1.801 6.6,-1.801 6.6,-1.801 6.6,-1.199 6.6,-1.199 6,-1.199 6,-1.2 5.4,-1.203 6.6,-1.199 6.6,-1.199 7.2,-0.602 7.8,-1.199 8.4,-0.598 8.4,-0.601 8.4,-0.602 h 9 l 9,-0.597 h 16.2 l 9.6,0.597 h 19.8 l 10.8,0.602 h 10.2 l 9.6,0.601 9.6,0.598 h 8.4 l 7.8,0.602 h 15.6 l 8.4,0.597 h 31.8 l 4.8,-0.597 h 4.8 l 5.4,-0.602 h 5.4 l 4.8,-0.598 4.2,-0.601 4.2,-0.602 4.8,-0.597 4.8,-1.2 4.8,-1.203 4.8,-0.597 3.6,-1.2 4.2,-1.203 4.2,-1.797 4.2,-1.8 4.2,-1.801 4.2,-1.801 3.6,-1.801 3.6,-2.398 3.6,-2.399 3.6,-2.402 4.2,-3 3,-3 3.6,-2.398 3,-3 3,-3.602 3.6,-3.598 3,-3.601 3.6,-3.602 3,-3.597 2.4,-3.602 3,-3.598 3,-4.203 3.6,-4.199 2.4,-4.199 3,-4.199 2.4,-3.602 3,-4.199 3,-4.801 2.4,-4.801 3,-4.199 3,-4.199 2.4,-4.199 3,-4.2 3,-4.8 3,-4.801 3,-4.199 3,-3.602 3,-4.199 3,-4.199 3.6,-4.2 3,-4.203 3.6,-3.597 3,-3.602 3,-3 3.6,-3.598 3.6,-3.601 4.2,-3 3.6,-3 3.6,-2.399 3.6,-3 3.6,-2.402 4.2,-2.398 4.2,-2.403 4.2,-1.797 4.2,-1.8 4.2,-1.2 4.2,-1.8 4.8,-1.2 4.8,-1.203 4.2,-0.597 4.8,-0.602 4.2,-0.598 4.8,-0.601 4.8,-0.602 h 15 l 4.2,0.602 h 5.4 l 5.4,0.601 5.4,0.598 4.8,1.199 4.8,0.602 3.6,0.601 4.2,1.2 4.2,0.597 5.4,1.801 6,1.801 7.2,2.398 7.2,2.403 8.4,3 6.6,2.398 6.6,3 7.8,3 8.4,3.602 9.6,3.597 9.6,4.203 10.2,4.2 10.2,4.8 10.2,4.2 9.6,4.199 9.6,4.801 9,4.199 7.8,3.601 8.4,3.598 7.8,4.199 8.4,4.203 8.4,4.2 8.4,4.199 8.4,4.199 8.4,4.199 7.8,4.203 7.8,3.598 6.6,3.602 6.6,3.597 6,3 6,3 7.2,3.602 7.2,3.601 7.2,3.598 6.6,3 7.2,3 6,3 6,3 5.4,2.402 4.8,2.399 4.8,1.801 6,2.398 6.6,3 6.6,2.402 6.6,3 6.6,2.399 6.6,2.398 6,2.403 5.4,1.8 6,1.797 5.4,1.801 6.6,1.801 6,1.801 6.6,1.8 6,1.2 6,1.199 5.4,1.199 5.4,1.199 5.4,0.602 6,0.601 6,0.598 h 23.4 l 4.8,-0.598 6,-0.601 5.4,-1.199 6.6,-0.602 6,-1.199 5.4,-1.801 6,-1.199 4.8,-1.801 5.4,-1.801 5.4,-1.797 6,-2.402 6.6,-2.398 6,-2.403 6,-2.398 5.4,-3 5.4,-2.399 5.4,-2.402 6,-3 6,-3.598 6,-3 6.6,-3.601 6,-3.602 5.4,-3.597 6,-3 4.2,-3 4.8,-2.403 4.8,-3.597 6,-3 5.4,-3.602 6.6,-4.199 6,-4.199 6.6,-4.2 6.6,-4.8 7.2,-4.2 6,-4.8 6.6,-4.2 7.2,-4.8 7.8,-5.403 7.8,-5.398 7.8,-5.399 7.8,-5.402 7.8,-5.398 7.2,-4.801 6.6,-4.801 6,-4.199 5.4,-3 7.2,-4.801 6.6,-4.199 6,-3.602 5.4,-3 4.8,-2.398 4.2,-1.801 3.6,-1.801 3,-1.199 4.2,-1.801 4.8,-1.797 4.8,-1.8 4.8,-1.2 4.8,-1.8 4.2,-1.2 4.2,-0.601 4.8,-1.199 4.8,-1.2 4.8,-0.601 4.8,-0.602 h 16.8 l 4.8,0.602 4.2,0.601 4.2,0.598 3.6,0.602 4.2,1.199 4.8,1.199 4.2,1.801 4.2,1.801 4.2,1.8 3.6,1.797 3.6,1.801 4.2,2.402 4.2,3 4.2,2.399 3.6,2.398 3.6,3 3.6,3 3.6,3 4.2,3.602 3.6,3.601 3.6,3 3,3 3.6,3.598 4.2,4.199 4.2,4.801 4.2,4.801 4.8,4.801 3.6,4.199 3.6,4.801 4.8,4.8 4.8,5.399 5.4,6 4.8,5.398 4.8,5.403 4.8,4.8 4.2,4.797 4.8,5.403 4.8,5.398 5.4,5.402 5.4,5.399 4.8,5.398 4.8,4.801 4.8,4.199 4.2,4.203 4.8,4.2 5.4,4.8 5.4,4.2 5.4,4.8 4.8,3.598 5.4,4.199 4.8,3 4.8,3.602 4.8,3 5.4,3 6,3.601 5.4,3 6,2.399 5.4,2.398 4.8,2.403 5.4,1.8 5.4,2.399 6,1.801 6.6,1.8 6,1.795 6.6,1.21 6,1.19 5.4,1.2 6,0.61 6,1.19 6.6,0.6 6.6,0.6 7.2,0.61 h 6.6 l 6.6,0.59 h 26.4 l 7.8,-0.59 h 7.2 l 7.8,-0.61 6.6,-0.6 h 7.2 l 5.4,-0.6 5.4,-0.6 6,-0.59 7.2,-0.61 6.6,-0.6 7.8,-0.6 7.8,-0.6 8.4,-1.2 7.8,-0.6 9,-1.197 7.2,-0.598 8.4,-1.203 9,-1.199 9.6,-1.199 10.2,-1.199 10.2,-1.2 10.2,-1.203 10.2,-1.199 9,-1.199 9,-0.602 8.4,-1.199 7.8,-0.598 9,-0.601 8.4,-0.602 h 31.8 l 7.2,0.602 6.6,0.601 6,0.598 6,0.602 5.4,0.597 6,0.602 6,0.601 6.6,1.2 6.6,1.199 6.6,1.199 6,0.602 6,1.8 5.4,1.2 6,1.199 6.6,1.801 6.6,1.805 7.8,2.39 7.2,2.4 7.2,3 7.2,3 6.6,2.4 6,3 6,3 6,3.6 6,3.6 6.6,3.61 6,4.19 6,4.2 5.4,4.2 4.8,4.2 4.8,4.21 5.4,4.79 4.8,5.4 5.4,5.4 4.8,5.41 4.8,6 4.2,5.39 3.6,5.4 4.2,5.4 3.6,6 3.6,6 4.2,7.2 3.6,6.61 3.6,7.19 3,6 3,6.6 1.8,5.4 2.4,5.4 2.4,5.41 1.8,6 2.4,6 1.8,6.59 2.4,6 1.8,6 1.8,6 1.2,5.41 1.8,6.59 1.8,7.8 1.8,7.2 1.8,7.8 1.8,7.8 1.8,7.2 1.2,6 1.2,5.4 1.2,7.21 1.2,6.59 1.2,6 1.2,6 1.2,5.41 0.6,4.79 1.2,4.21 1.2,5.39 1.2,4.8 1.2,5.4 1.2,4.8 1.2,4.2 1.2,4.2 1.8,4.8 1.8,4.2 1.8,4.8 1.8,4.2 1.8,3.6 1.8,3.61 2.4,4.19 2.4,4.2 2.4,3.61 2.4,3.59 2.4,3.6 3,3 2.4,3.6 3.6,3 3,3.6 3.6,3 3,2.4 3.6,2.4 3.6,3 4.2,2.4 4.2,3 4.2,2.41 3.6,2.39 4.2,1.8 4.2,2.4 4.8,2.41 4.8,2.39 4.2,1.8 4.8,2.4 3,1.2 3.6,1.8 4.2,1.8 5.4,2.4 6,2.4 6.6,2.4 7.8,3 9,3 6,2.41 7.2,2.39 8.4,3 8.4,3 9.6,3.61 9.6,3.59 9.6,3.6 9.6,3.6 9,3 9,3.6 7.8,3 7.2,3 8.4,3.61 8.4,3.59 7.8,3.6 7.2,3.6 7.2,4.21 7.2,3.59 6,3.6 6,3.6 5.4,3 5.4,3.6 4.8,3 4.8,3.61 5.4,3.59 5.4,3.6 5.4,4.2 6,4.2 4.8,4.2 5.4,3.6 4.2,4.2 4.8,3.6 4.2,3.6 4.2,4.21 4.8,4.19 4.2,4.81 4.8,4.79 4.8,4.21 4.2,4.79 4.2,4.8 3.6,4.8 3.6,4.2 3.6,5.41 4.2,6 4.8,6.59 3.6,6.6 4.2,6.6 3.6,7.21 3,6 3,6.59 3,6 2.4,6.6 2.4,7.2 2.4,7.2 2.4,7.8 1.8,7.2 1.2,7.2 1.8,7.21 0.6,5.39 0.6,5.4 1.2,6 0.6,6.6 0.6,6.61 v 6.59 l 0.6,6.6 v 23.4 l -0.6,6 -0.6,6.6 -0.6,6.6 -0.6,6.6 -0.6,6.61 -0.6,7.19 -1.2,6 -0.6,6 -1.2,6 -1.2,6 -0.6,6 -1.8,6.6 -1.2,7.21 -1.8,7.79 -2.4,7.8 -2.4,8.41 -2.4,7.79 -2.4,8.4 -3,9 -2.4,6 -3,7.2 -2.4,7.2 -3,7.8 -3.6,8.4 -3.6,9 -3.6,9 -4.2,9 -4.2,9 -3.6,9 -4.2,9 -4.2,8.4 -3.6,8.4 -4.2,8.41 -3.6,7.79 -4.2,8.4 -4.2,8.4 -4.2,8.41 -4.2,8.39 -4.8,9 -4.2,8.4 -4.2,7.8 -4.2,7.8 -3.6,7.2 -3.6,7.2 -3,6 -3,5.4 -2.4,5.4 -4.2,7.8 -3.6,6.61 -3,6.59 -3,5.41 -2.4,5.39 -1.8,3.61 -1.2,3.59 -1.2,3.6 -1.8,4.2 -1.8,4.2 -1.8,4.8 -1.8,4.8 -1.8,4.2 -1.2,4.2 -1.2,4.2 -1.2,4.21 -1.2,4.19 -1.2,4.81 -0.6,4.19 -0.6,4.2 -0.6,3.61 -0.6,4.19 v 13.2 l 0.6,4.2 v 3.6 l 1.2,4.2 0.6,4.2 1.2,4.8 1.2,4.2 1.2,3.6 1.2,3.6 1.8,4.21 1.8,4.19 1.8,4.2 2.4,4.2 1.8,3.6 1.8,3.6 2.4,4.21 3,4.19 2.4,4.2 3,4.2 2.4,3.6 2.4,4.2 3,4.2 3,4.2 3,4.21 2.4,4.19 3,4.2 2.4,4.2 3,4.2 3,4.21 3,4.79 2.4,4.21 2.4,3.59 2.4,4.2 2.4,4.21 3,4.79 2.4,4.21 1.8,4.19 2.4,4.2 1.2,4.2 1.8,4.2 1.8,4.8 1.8,4.2 1.2,4.21 0.6,4.19 1.2,4.2 0.6,4.2 v 4.8 l 0.6,4.8 v 12.6 l -0.6,4.21 -0.6,4.19 -0.6,4.81 -1.2,4.19 -1.2,4.2 -1.2,3.61 -1.2,4.19 -1.8,4.81 -2.4,4.19 -1.8,4.2 -1.8,4.2 -2.4,4.2 -2.4,4.21 -2.4,4.19 -3,4.2 -2.4,4.2 -3,4.2 -1.8,2.4 -2.4,3.6 -3,3.6 -3.6,3.61 -4.2,4.79 -4.8,4.8 -5.4,6 -6,6 -4.8,4.2 -4.8,4.8 -6,5.41 -6.6,6 -6.6,6.59 -7.2,6.6 -7.2,6.6 -6.6,6 -7.2,6.6 -6,5.4 -6,6 -5.4,4.8 -6,6 -6,5.41 -5.4,5.39 -5.4,5.4 -5.4,4.8 -4.8,4.8 -4.8,4.8 -4.2,4.2 -3.6,4.2 -3.6,3.6 -4.8,4.81 -4.2,4.79 -4.8,5.4 -5.4,4.81 -4.8,5.39 -4.2,5.4 -4.2,4.8 -4.2,4.8 -3.6,4.8 -3.6,4.81 -4.2,5.39 -3.6,5.4 -4.2,5.4 -3,4.81 -3,5.39 -3,4.8 -3,4.2 -2.4,5.4 -2.4,5.4 -3,5.4 -2.4,6 -1.8,5.41 -1.8,5.39 -1.8,4.8 -1.2,5.4 -1.2,5.41 -1.2,5.39 -1.2,6 -1.2,6 -0.6,6 -0.6,6 v 5.4 l -0.6,5.4 v 12 l 0.6,6.6 v 6.6 l 0.6,6.61 0.6,6 0.6,6 0.6,6 0.6,6.59 1.2,6.6 1.2,7.2 1.2,7.2 1.2,7.2 1.2,6.6 1.2,6.61 0.6,4.79 1.2,5.4 1.2,6 1.2,6 1.2,7.2 1.8,7.2 1.8,7.2 1.8,7.8 1.8,7.8 1.8,8.4 1.8,6 1.2,6.6 1.8,7.2 2.4,7.2 1.8,8.4 2.4,8.4 1.8,9 2.4,9.6 2.4,9 2.4,9 1.8,9 2.4,9 1.8,8.4 1.8,9 1.8,8.41 1.8,8.39 1.8,9.61 1.8,9 1.8,9.59 1.8,10.2 1.8,10.21 1.8,10.19 1.8,10.2 1.2,9.61 1.8,9.59 1.2,9.6 1.2,9 1.2,9 1.2,9 0.6,9 1.2,9.6 1.2,9.6 1.2,10.2 0.6,10.8 1.2,10.2 0.6,10.8 0.6,10.8 0.6,10.2 0.6,10.2 0.6,9.6 0.6,9.6 0.6,9 v 9.6 l 0.6,9.61 v 19.79 l 0.6,10.21 v 22.19 l -0.6,10.81 v 21.59 l -0.6,10.2 v 10.21 l -0.6,9.59 v 9.6 l -0.6,9.6 -0.6,9.6 -0.6,10.2 -0.6,10.8 -1.2,10.8 -0.6,10.81 -1.2,11.39 -1.2,11.4 -1.2,11.4 -1.2,10.81 -1.2,10.79 -1.2,10.21 -1.2,9.59 -1.2,10.2 -1.2,9.6 -1.2,10.2 -1.8,10.2 -1.8,10.8 -1.8,10.8 -1.8,11.4 -2.4,11.4 -1.8,11.4 -2.4,11.41 -1.8,11.39 -2.4,10.8 -1.8,10.2 -2.4,10.2 -2.4,10.2 -1.8,8.4 -1.8,9 -2.4,9 -2.4,9.6 -2.4,9.6 -3,10.2 -3,10.8 -3,10.8 -3.6,10.81 -3.6,11.39 -3.6,10.8 -4.2,11.4 -3.6,10.8 -4.2,10.8 -4.8,10.81 -4.2,11.39 -4.2,9 -4.2,9 -4.2,10.2 -4.8,9.6 -4.8,10.81 -5.4,10.79 -5.4,11.4 -6,11.4 -6,11.41 -6,12 -6.6,12 -6.6,12 -6.6,12 -7.2,12 -6.6,11.39 -6.6,11.4 -6.6,10.8 -6.6,10.8 -6.6,10.8 -6.6,10.2 -7.2,10.2 -6.6,10.8 -7.2,10.2 -7.8,10.8 -7.8,10.8 -7.8,10.81 -8.4,11.39 -8.4,11.4 -9,11.4 -9,11.4 -9,11.41 -9,10.79 -9.6,10.8 -9,10.8 -9,10.2 -9,9.6 -9,9.6 -8.4,9.6 -9,9 z"
       style="fill:none;stroke:#000000;stroke-width:27;stroke-linecap:butt;stroke-linejoin:bevel;stroke-miterlimit:10;stroke-dasharray:none;stroke-opacity:1"
       transform="matrix(0.13333333,0,0,-0.13333333,0,634.66667)" />
    <path
       id="path5"
       d="m 569.801,1007 3.597,-11.395 4.801,-12 4.199,-12 4.801,-12 5.403,-12 5.398,-12.601 5.398,-12.602 6,-13.199 6,-12.598 6.602,-13.203 6.602,-12.597 6.597,-13.2 6.602,-12 6.597,-12.601 6.602,-11.399 7.199,-12 6.602,-10.8 6.597,-10.801 6.602,-10.199 6.602,-10.2 7.199,-10.203 7.199,-10.199 7.199,-10.199 7.801,-10.801 7.801,-10.199 8.398,-10.801 9,-10.801 9,-10.797 9,-10.8 9.602,-10.801 9.597,-10.199 9.602,-10.801 9.602,-10.199 9.597,-9.602 9.602,-9.598 9.597,-9 9,-9 9.602,-8.402 9,-8.398 9.602,-7.801 9,-7.801 9.597,-7.801 9.602,-7.797 10.199,-7.8 10.801,-8.403 10.801,-7.797 11.398,-7.8 11.398,-7.801 12,-7.801 12,-7.801 12,-7.797 12.602,-7.203 12,-7.199 12,-7.199 12,-6.602 11.4,-6 11.4,-6 11.4,-5.398 10.8,-5.399 11.4,-5.402 11.4,-4.801 11.4,-5.398 11.4,-4.801 12,-4.801 12.6,-4.797 12.6,-4.8 13.2,-4.801 13.2,-4.199 13.8,-4.801 13.8,-4.199 13.8,-4.2 13.8,-4.203 13.8,-3.597 13.2,-3.602 13.2,-3 13.2,-3.598 12.6,-2.402 12.6,-3 12,-2.398 12,-1.801 12.6,-2.399 12,-1.8 12.6,-2.403 13.2,-1.199 13.2,-1.801 13.2,-1.797 14.4,-1.203 13.8,-1.199 14.4,-1.199 14.4,-1.199 14.4,-1.2 14.4,-0.601 14.4,-0.602 h 13.8 l 13.8,-0.597 h 51.6 l 12,0.597 12.6,0.602 12.6,0.601 12.6,0.598 12.6,0.602 13.2,1.199 13.2,1.199 13.2,1.199 13.8,1.203 13.8,1.797 13.2,1.203 13.8,1.797 12.6,1.801 13.2,1.801 12,1.801 12,1.8 11.4,1.797 10.8,2.403 10.8,1.8 9.6,1.797 9.6,1.801 12,3 11.4,2.402 11.4,3 11.4,3 10.8,3 11.4,3 11.4,3.598 10.8,3.602 10.8,3.597 10.2,3.602 10.2,3 9.6,3.601 9,3.598 9,3.602 8.4,3 8.4,3.597 9,3.602 9.6,4.199 9.6,4.199 10.2,4.801 10.2,4.199 10.8,4.801 10.8,4.801 10.2,4.801 10.8,5.398 10.2,4.801 9.6,4.801 9,4.199 9.6,4.801 8.4,4.8 9,4.2 9,4.8 9,4.797 9,4.801 9.6,5.402 10.2,5.399 9.6,6 10.2,5.398 9.6,5.403 9,6 9,5.398 9,4.801 8.4,5.398 7.8,4.801 8.4,5.402 8.4,5.399 8.4,5.398 8.4,5.403 9,6 9,6 9,6.597 9,6 9,6 8.4,6.602 8.4,6 8.4,5.398 7.2,6 7.8,5.403 7.2,5.398 7.2,6 7.8,6 7.8,6 8.4,6.602 7.8,6.597 8.4,7.203 8.4,6.598 7.8,6.602 7.8,6.597 7.2,6.602 7.2,6 7.2,6.601 6.6,6 6.6,6 6.6,6 7.2,6.598 7.2,6.602 7.2,6.597 7.2,7.203 7.2,7.2 7.2,7.8 7.2,7.2 7.2,6.597 6.6,7.203 6.6,6.598 6,6.602 6,6.597 6,6 6,6.602 6,7.199 6,6.602 6.6,7.8 6.6,7.2 6.6,7.8 6,7.797 6.6,7.203 6,7.797 6,7.203 5.4,6.598 5.4,7.199 5.4,6.602 4.8,6.601 5.4,7.2 4.8,6.597 5.4,7.801 6,7.199 5.4,8.403 5.4,7.8 5.4,7.797 5.4,7.801 5.4,7.801 4.8,7.199 4.8,7.797 4.8,6.61 4.2,7.19 4.2,6.6 4.2,7.21 4.8,7.19 4.2,7.81 4.8,7.79 4.8,8.4 4.8,7.81 4.2,8.39 4.8,7.8 4.2,8.4 4.2,7.2 3.6,7.8 4.2,7.2 3.6,7.21 3,7.19 3.6,7.2 3.6,7.2 3.6,7.8 4.2,7.8 3.6,8.4 3.6,8.41 3.6,8.39 3.6,8.4 3.6,7.8 3,7.8 3,7.8 3,7.2 3,7.2 2.4,7.2 3,7.21 2.4,7.79 3,7.8 3,8.41 3,8.39 3,9 3,9 3,9 3,9 3,8.4 3,9 3,8.4 3,9 2.4,7.81 3,8.39 2.4,8.4 3,8.4 3,9.6 3.6,9.6 3,9.61 3,10.19 3.6,10.2 3,10.2 3.6,10.2 3,9.6 3,9.61 2.4,9 3,9 2.4,9 3,9.59 3,10.2 2.4,10.21 3,10.79 3,10.8 3,10.8 3,10.8 3,10.81 2.4,10.79 3,10.21 2.4,10.19 2.4,9 2.4,9 2.4,8.4 1.8,8.41 2.4,9 2.4,8.39 3,9 2.4,9 2.4,9 3,9 3,9 2.4,8.4 3,8.4 2.4,7.81 3,7.19 2.4,7.2 3,6.61 3,7.79 3.6,7.8 3.6,8.41 3.6,7.79 4.2,8.4 4.8,7.81 4.2,7.79 4.8,7.8 4.8,7.2 4.2,6.6 4.8,6.61 4.8,6 4.8,6 4.8,6 6,6 5.4,6 6.6,6 6.6,6 7.2,6 6.6,6 7.2,6 7.2,4.79 6.6,5.4 7.2,4.81 6,4.19 6,4.2 6.6,4.2 7.2,4.2 7.2,4.8 7.8,4.2 8.4,4.8 7.8,4.8 8.4,4.2 8.4,4.8 7.8,4.2 7.8,4.2 7.8,4.21 7.8,4.19 8.4,4.2 7.8,4.2 8.4,4.8 9,4.2 9.6,5.41 9.6,4.79 10.2,5.4 10.2,4.81 9.6,5.39 10.2,5.4 9.6,5.4 9.6,4.81 9,4.79 9,5.4 7.8,4.2 8.4,4.8 8.4,4.81 8.4,4.79 9,5.4 9,5.4 9,5.41 9.6,5.39 9,5.4 9,5.4 8.4,5.4 8.4,4.8 8.4,4.8 7.2,4.81 7.8,4.19 6.6,4.2 7.8,4.8 7.8,4.81 8.4,4.79 7.8,4.8 7.8,5.41 8.4,4.79 7.8,4.8 7.8,5.41 7.8,4.79 7.2,4.8 7.2,4.2 7.2,4.8 6,4.2 6.6,4.21 6.6,4.19 6,4.81 6.6,4.19 7.2,5.4 7.2,4.8 7.2,5.4 7.2,5.4 7.2,5.4 7.2,5.41 6.6,5.39 7.2,5.4 6,5.4 6.6,4.81 6,4.79 6,5.4 6.6,5.4 6,5.41 6.6,5.39 6.6,6 7.2,6 7.2,6.61 6.6,6 7.2,6.59 6.6,6.6 6,6 6.6,6 6,5.4 5.4,6 6,6 6,6 6,6 6,6.6 6.6,6.6 6.6,7.21 6.6,7.19 6,7.2 6.6,7.2 6,7.2 6,6.6 6,6.61 5.4,6.59 5.4,6.6 5.4,6.6 5.4,6.6 5.4,7.2 6,7.2 6,7.21 6,8.39 6,7.8 6,7.81 6,7.79 5.4,8.4 5.4,7.2 5.4,7.8 5.4,7.2 4.8,7.2 4.8,7.2 4.8,7.21 5.4,7.79 5.4,7.8 5.4,8.41 5.4,9 5.4,8.39 5.4,9 5.4,9 4.8,8.4 5.4,8.4 4.8,7.81 4.2,8.39 4.8,7.8 4.2,7.81 4.2,7.79 4.8,8.4 4.2,8.4 4.8,9 4.2,9 4.8,9 4.2,8.41 4.2,8.39 4.2,8.4 3.6,7.21 3,7.19 3,7.2 3,6 3.6,8.4 3,8.4 3,7.81 3,7.79 3,7.8 1.8,7.8 2.4,6.61 1.8,6.59 1.8,6 1.2,6 1.2,6 1.2,6 1.2,6.6 1.2,6.6 1.2,6.6 1.2,6.61 1.2,6.59 0.6,6.6 0.6,6 0.6,5.4 0.6,6 v 6 l 0.6,6 v 25.8 l -0.6,6 -0.6,6 -0.6,5.4 -0.6,7.21 -1.2,7.19 -1.2,7.2 -1.8,7.8 -1.8,7.81 -2.4,7.19 -1.8,7.2 -2.4,6.61 -2.4,6 -3,6.59 -3,7.2 -3.6,7.21 -3.6,6.59 -4.2,6.6 -3.6,6.6 -3.6,5.4 -3.6,4.81 -3,4.79 -3.6,4.8 -4.2,4.8 -4.2,5.4 -4.2,4.8 -4.2,4.8 -4.2,4.2 -4.2,4.8 -4.2,3.61 -4.2,4.19 -4.2,4.2 -4.8,4.2 -4.8,4.2 -5.4,4.8 -5.4,4.2 -5.4,4.21 -4.8,3.59 -4.8,4.2 -4.8,3.6 -4.8,3.61 -5.4,3.59 -5.4,3.6 -6.6,4.2 -6.6,4.2 -6.6,4.2 -7.2,4.21 -7.8,3.59 -7.8,4.2 -7.8,4.21 -7.8,3.59 -7.8,3.6 -8.4,3.6 -9,4.21 -9,4.19 -9.6,4.2 -9.6,4.2 -9,4.2 -8.4,3.6 -7.8,3 -7.2,3 -6,3 -8.4,3.61 -7.2,3.59 -6.6,3 -6,2.41 -4.8,3 -4.2,1.79 -3.6,1.8 -3,1.8 -4.2,2.4 -4.8,2.4 -4.2,3 -4.8,2.4 -4.2,2.41 -3.6,3 -3.6,2.39 -4.2,2.4 -3.6,3 -4.2,3 -3.6,3 -3,3 -3,3 -3,3 -3.6,3.6 -3,3.61 -2.4,3 -2.4,3.59 -2.4,3 -2.4,4.2 -2.4,3.6 -1.8,4.2 -1.8,4.2 -1.8,3.6 -1.8,4.2 -1.2,4.2 -1.8,4.8 -1.2,4.8 -1.2,4.2 -1.2,4.8 -1.2,4.2 -0.6,4.8 -1.2,5.4 -0.6,4.8 -1.2,5.41 -0.6,4.79 -0.6,4.21 -0.6,5.39 -0.6,5.4 -0.6,5.4 -0.6,5.4 -0.6,4.8 -0.6,4.8 -0.6,5.4 -1.2,5.41 -0.6,5.39 -0.6,5.4 -1.2,4.8 -0.6,4.2 -1.2,5.4 -1.2,4.81 -1.2,5.39 -1.8,4.8 -1.2,4.2 -1.2,4.8 -1.8,4.2 -1.8,4.8 -2.4,4.81 -1.8,4.19 -1.8,4.2 -2.4,3.61 -2.4,4.19 -3,4.2 -3,3.61 -3,3.59 -2.4,3.6 -3,3 -3.6,3 -3.6,3.6 -3.6,3 -3.6,3 -3.6,2.4 -3.6,2.4 -4.2,2.41 -4.2,2.39 -4.8,2.4 -4.2,1.8 -4.2,1.8 -4.2,1.8 -4.8,1.81 -5.4,1.79 -4.8,1.8 -5.4,1.2 -4.2,1.21 -3.6,1.19 -4.2,1.2 -4.2,0.61 -6,1.19 -6,1.2 -7.2,0.61 -7.8,1.19 -9,0.6 -6.6,0.6 -7.2,0.61 -8.4,0.59 -9.6,0.6 -9.6,0.6 -10.8,0.6 h -10.8 l -11.4,0.61 -10.8,0.59 h -21 l -10.2,0.6 h -36 l -9,-0.6 h -19.2 l -9,-0.59 h -25.8 l -7.2,-0.61 h -66 l -6,0.61 h -10.8 l -6.6,0.59 h -6.6 l -7.2,0.6 -7.2,0.6 -7.2,0.6 -6.6,0.61 -6.6,0.59 -5.4,0.6 -6,0.6 -6.6,0.6 -6,1.2 -6.6,1.2 -6.6,1.21 -6,1.79 -5.4,1.21 -5.4,1.19 -5.4,1.81 -5.4,1.79 -5.4,1.8 -6,2.41 -5.4,2.39 -5.4,2.4 -5.4,2.4 -4.2,3 -4.8,2.4 -4.8,3 -4.8,3 -5.4,3.6 -4.8,3.6 -4.8,4.21 -4.2,3.59 -4.2,3.6 -4.2,3.6 -4.2,4.21 -4.2,4.79 -4.2,4.8 -4.8,4.8 -4.2,4.8 -3.6,4.81 -3.6,4.79 -3.6,4.8 -4.2,5.41 -4.2,5.39 -3.6,6 -4.2,6 -4.2,6 -3.6,5.4 -3.6,5.4 -3,4.2 -3,4.8 -3,4.81 -3.6,5.39 -3.6,6 -4.2,6.61 -3.6,6 -4.2,7.19 -4.2,6.6 -4.2,7.21 -3.6,6.59 -4.2,6.6 -4.2,7.81 -4.8,7.79 -4.8,8.4 -4.8,8.4 -4.2,8.41 -4.8,7.79 -4.2,7.8 -4.2,6.6 -3.6,6.6 -3.6,5.4 -4.2,7.2 -4.2,6.61 -3.6,5.39 -3.6,5.4 -3.6,4.21 -2.4,3.59 -3,3 -1.8,2.41 -3.6,3.59 -3,3.6 -4.2,3.6 -3.6,3.6 -3.6,3.61 -3,3 -3.6,2.39 -3.6,3 -4.2,3 -3.6,3 -4.2,2.4 -3.6,1.8 -3.6,2.41 -3.6,1.79 -4.8,1.8 -4.2,1.8 -4.2,1.2 -3.6,1.2 -4.2,1.21 -4.2,0.59 -4.8,0.6 -4.2,0.6 h -17.4 l -4.8,-0.6 -4.8,-0.6 -4.8,-0.59 -4.2,-0.61 -4.2,-1.2 -4.8,-1.19 -5.4,-1.21 -4.8,-1.2 -4.8,-1.2 -4.2,-1.8 -4.2,-1.2 -4.8,-1.8 -6,-2.4 -5.4,-1.8 -6,-2.39 -6,-2.41 -5.4,-2.4 -5.4,-2.4 -6.6,-2.4 -6.6,-3 -7.2,-3 -6.6,-2.39 -6.6,-3 -6,-2.41 -6.6,-2.4 -6.6,-3 -6.6,-2.4 -7.2,-3 -7.2,-2.4 -6.6,-2.39 -6.6,-2.41 -6,-1.8 -6,-1.79 -6.6,-1.81 -6.6,-1.8 -6.6,-1.8 -6.6,-1.8 -6.6,-1.2 -6,-1.2 -5.4,-1.2 -6,-0.6 -6,-1.2 h -6.6 l -6,-0.6 -6.6,-0.6 h -6.6 l -5.4,0.6 h -6 l -5.4,0.6 -6,0.61 -6,1.19 -6.6,0.6 -6.6,1.21 -6,1.79 -6,1.21 -5.4,1.79 -5.4,1.8 -6,1.8 -6.6,2.4 -6.6,2.4 -6,2.4 -6.6,2.41 -6,3 -5.4,2.39 -6,3 -6,3 -6.6,3 -6.6,3.61 -6.6,3.59 -6.6,3.6 -6,3 -5.4,3.6 -4.8,2.4 -5.4,3 -4.8,3 -6,3.6 -6,3.6 -6.6,3.61 -6.6,4.19 -7.2,4.2 -7.2,4.8 -7.2,4.81 -6.6,3.59 -6.6,4.8 -7.8,4.8 -7.8,5.4 -8.4,5.41 -9,5.39 -8.4,6 -9,5.4 -7.8,4.8 -7.8,4.8 -7.2,4.2 -6.6,4.2 -7.8,4.21 -7.2,4.19 -7.8,4.2 -7.2,3.61 -7.2,3 -6.6,3 -6.6,3 -6,2.39 -6,2.4 -5.4,1.8 -5.4,1.8 -5.4,1.8 -6,2.4 -6,1.8 -6.6,1.8 -6.6,1.81 -6,1.19 -6,1.81 -5.4,1.19 -5.4,1.2 -6.6,1.2 -7.2,1.2 -7.8,1.21 -7.8,1.19 -7.8,0.6 -7.2,0.6 h -20.4 l -7.2,-0.6 -7.2,-0.6 -7.8,-0.6 -7.2,-1.2 -7.2,-1.2 -6.6,-1.19 -6.6,-1.81 -6,-1.8 -6.6,-1.8 -6.6,-2.4 -7.2,-3 -7.2,-3 -6.6,-3 -6,-3 -6,-3 -5.4,-3.6 -6,-3.59 -6.6,-4.21 -6.6,-4.2 -6,-4.8 -6,-4.79 -6,-4.21 -4.8,-4.79 -4.2,-3.61 -4.8,-3.6 -4.2,-4.2 -4.2,-4.8 -4.8,-4.79 -4.8,-4.21 -4.2,-4.79 -4.2,-4.81 -4.2,-4.19 -3.6,-4.21 -4.8,-6 -4.8,-5.4 -4.8,-6 -5.4,-6.6 -4.8,-6 -4.2,-5.4 -4.2,-5.39 -3,-4.21 -4.2,-6 -4.2,-5.4 -4.2,-4.8 -3.6,-5.4 -3,-4.19 -3,-3.61 -3,-3.6 -3,-4.2 -3.6,-4.2 -3,-3.6 -3,-3.6 -3,-3.6 -3.6,-3 -3,-3.59 -3.6,-3.61 -3.6,-3 -3.6,-3 -3,-3 -3.6,-2.39 -3.6,-2.41 -4.2,-3 -3.6,-2.4 -4.2,-1.8 -3.6,-1.8 -3.6,-1.8 -3.6,-1.79 -4.8,-1.81 -4.2,-1.19 -4.2,-1.21 -4.2,-1.2 -4.2,-0.59 -4.2,-0.61 -4.8,-1.2 -4.8,-0.6 -4.8,-0.59 h -4.8 l -4.2,-0.61 h -15.6 l -4.8,-0.6 -4.8,0.6 h -12.6 l -5.4,0.61 h -6.6 l -7.2,0.59 -8.4,1.2 -9,0.6 -6.6,0.61 -7.8,1.19 -8.4,0.6 -9,1.21 -10.2,1.19 -10.2,0.6 -10.2,1.21 -10.2,1.19 -9.6,0.6 -9.6,0.6 -8.4,0.61 -8.4,0.59 -9,0.6 h -34.2 l -7.8,-0.6 -7.2,-0.59 -6.6,-0.61 -6,-0.6 -6,-0.6 -6,-0.6 -6,-1.2 -6.6,-0.6 -6.6,-1.2 -6.6,-1.2 -6.6,-1.2 -6.6,-1.8 -6,-1.2 -6,-1.19 -5.4,-1.81 -6,-1.19 -5.4,-1.81 -6,-1.8 -6,-2.39 -6,-1.81 -6.6,-2.4 -5.4,-2.4 -6,-2.39 -5.4,-2.41 -4.8,-2.4 -6,-3.6 -6.6,-3.59 -6.6,-3.61 -6.6,-4.2 -6.6,-4.8 -6,-4.2 -6,-4.8 -4.8,-4.2 -5.4,-4.8 -5.4,-4.8 -5.4,-5.4 -5.4,-5.4 -5.4,-6 -4.8,-6 -4.2,-5.4 -4.2,-6 -3,-4.2 -3.6,-4.8 -3,-5.39 -3.6,-5.41 -3,-5.4 -3.6,-6 -3,-5.4 -2.4,-5.4 -3,-5.39 -2.4,-5.41 -2.4,-5.4 -1.8,-5.4 -2.4,-6 -2.4,-6 -2.4,-6.6 -2.4,-6.6 -2.4,-6 -1.8,-6 -1.8,-6 -1.8,-6 -1.8,-5.4 -1.8,-6.6 -1.2,-6 -1.8,-7.2 -1.8,-7.8 -1.2,-7.8 -1.8,-8.4 -1.2,-8.39 -1.2,-9 -1.2,-9 -0.6,-6.61 -0.6,-7.8 -0.6,-7.8 -0.6,-8.4 -0.6,-9 -0.6,-9 -0.6,-10.2 v -9.6 l -0.6,-10.2 -0.6,-10.2 v -83.4 l 0.6,-9.6 v -9.6 l 0.6,-9.59 v -8.41 l 0.6,-8.4 v -14.4 l 0.6,-6 v -6 l 0.6,-9 V 3266 l -0.6,-4.2 v -4.8 l -0.6,-5.39 -0.6,-4.81 -0.6,-4.8 -0.6,-4.2 -0.6,-4.19 -1.2,-4.81 -0.6,-4.19 -1.2,-4.81 -1.2,-4.19 -1.2,-3.61 -1.2,-3.6 -1.8,-4.2 -1.8,-4.2 -1.8,-3.6 -1.8,-4.2 -1.8,-3 -2.4,-3.59 -2.4,-3 -2.4,-3.61 -3,-3.6 -3,-3 -2.4,-3 -3,-3 -3,-3 -3.6,-3 -3.6,-3 -3.6,-2.4 -3.6,-3 -3.6,-2.39 -3.6,-2.41 -4.2,-3 -4.2,-2.4 -4.2,-3 -4.2,-2.4 -3.6,-2.4 -4.2,-2.39 -4.8,-2.41 -4.8,-2.4 -4.2,-2.4 -4.2,-2.4 -4.202,-2.39 -4.199,-3 -4.801,-2.41 -4.796,-3 -4.204,-2.4 -3.597,-2.4 -4.199,-3 -3.602,-2.4 -4.199,-3 -4.199,-3 -3.602,-3 -3.602,-3 -3.597,-3 -3,-3 -3.602,-3.6 -3.597,-3.6 -3,-3 -2.403,-3.6 -3,-3 -2.398,-3.59 -2.403,-4.21 -2.398,-3.6 -1.801,-4.19 -1.801,-3.61 -1.796,-3.6 -1.204,-4.2 -1.796,-4.8 -1.204,-4.2 -0.597,-4.8 -0.602,-3.6 -0.597,-4.19 -0.602,-4.81 -0.602,-4.8 v -18.6 l 0.602,-4.79 0.602,-4.81 0.597,-5.4 0.602,-4.79 0.597,-4.21 0.602,-3.6 0.602,-3.6 1.199,-4.8 1.199,-5.4 1.801,-5.39 2.398,-7.21 2.403,-7.2 3,-7.8 2.398,-6 2.398,-6.6 3,-7.8 3,-7.8 3.602,-9 3,-8.4 3.602,-9 3.597,-9 3.602,-8.4 3,-8.4 3,-7.2 3,-7.19 2.398,-7.81 3,-7.19 3,-7.21 2.403,-7.2 2.398,-7.2 2.398,-6.6 2.403,-6 1.801,-5.4 1.796,-5.39 1.204,-4.81 2.398,-6.6 1.801,-6 2.398,-7.2 1.801,-6.6 1.801,-7.2 2.399,-6.59 1.2,-6 1.8,-6 1.2,-6 1.2,-6 1.2,-6 1.2,-6.61 1.2,-6.6 0.6,-6 0.6,-6 0.6,-5.4 0.6,-5.39 v -18 l -0.6,-6.61 -0.6,-5.39 -0.6,-6 -0.6,-4.81 -1.2,-5.4 -0.6,-5.4 -1.8,-6 -1.2,-6 -1.8,-6 -1.8,-5.39 -2.402,-5.41 -1.796,-5.4 -2.403,-4.8 -2.398,-5.39 -2.403,-5.41 -3,-6 -3.597,-6 -3,-5.4 -3,-5.4 -3,-4.79 -3.602,-5.41 -3.597,-5.4 -3.602,-5.4 -4.199,-6 -4.199,-6 -4.204,-6 -3.597,-5.4 -4.199,-4.8 -3,-4.2 -3,-4.8 -3.602,-4.8 -4.199,-4.79 -4.199,-6 -4.801,-5.41 -4.801,-6 -4.801,-6 -4.801,-6.59 -5.398,-6.61 -4.199,-4.8 -4.199,-5.4 -4.801,-5.4 -4.801,-6 -5.398,-6.6 -6,-6.6 -6,-7.2 -6,-7.2 -6,-7.19 -6,-7.21 -6,-7.2 -5.403,-7.2 -5.398,-7.2 -5.403,-6.6 -5.398,-7.2 -5.398,-7.2 -5.403,-7.19 -6,-7.81 -6,-7.8 -6,-8.39 -6,-8.41 -6,-8.4 -6,-8.4 -5.398,-8.4 -5.403,-7.8 -5.398,-7.8 -4.801,-7.79 -5.398,-7.81 -4.801,-7.19 -4.801,-7.81 -4.801,-8.4 -5.398,-8.4 -5.398,-8.39 -5.403,-9 -5.398,-9.61 -5.403,-9 -5.398,-9 -4.801,-9 -4.801,-9 -4.796,-8.39 -4.204,-8.41 -4.796,-8.4 -4.204,-7.8 -4.199,-8.39 -4.801,-9 -4.199,-9 -4.801,-9.61 -4.796,-9.6 -4.801,-10.2 -4.801,-9.59 -4.199,-10.21 -4.801,-9.6 -4.199,-9.6 -3.602,-9 -4.199,-9 -3.602,-8.4 -3.597,-9 -4.199,-9 -3.602,-9.6 -3.602,-9.59 -4.199,-10.21 -4.199,-10.79 -3.602,-10.21 -4.199,-10.79 -3.597,-10.81 -3.602,-10.19 -3.602,-10.21 -3.597,-9.6 -3,-9.6 -3,-9 -3,-9.59 -3,-9.61 -3,-10.2 -3.602,-10.19 -3,-10.81 -3,-10.8 -3.597,-11.39 -3,-11.41 -3,-11.4 -3,-10.8 -2.403,-10.8 -3,-10.2 -2.398,-10.2 -2.403,-9.6 -1.796,-8.4 -1.801,-9 -2.403,-9.6 -1.796,-9 -1.801,-10.2 -1.801,-10.8 -2.398,-10.8 -1.801,-10.79 -1.199,-11.41 -1.801,-11.4 -1.199,-12 -1.801,-11.4 -0.602,-12 -1.199,-11.4 -0.602,-12 -0.597,-11.39 -0.602,-10.21 -0.597,-10.2 V 1487 L 496,1475.61 v -23.41 l 0.602,-12.59 v -13.21 l 0.597,-13.2 V 1400 l 0.602,-13.8 1.199,-13.8 0.602,-13.79 1.199,-13.21 0.597,-13.2 1.204,-13.2 1.199,-12.6 1.199,-12.6 1.801,-12.6 1.199,-12 1.801,-12.59 1.801,-12 1.796,-12.61 2.403,-13.2 2.398,-13.19 2.403,-13.21 2.398,-13.79 3,-13.81 3,-13.8 3,-14.39 3.602,-14.41 3.597,-13.8 3.602,-13.79 3.597,-13.21 3.602,-13.2 3.602,-13.2 4.199,-12 3.597,-12.6 4.204,-11.4 z"
       style="fill:none;stroke:#000000;stroke-width:27;stroke-linecap:butt;stroke-linejoin:bevel;stroke-miterlimit:10;stroke-dasharray:none;stroke-opacity:1"
       transform="matrix(0.13333333,0,0,-0.13333333,0,634.66667)" />
    <path
       id="path6"
       d="m 184.602,2967.8 -6,-10.8 -6.602,-10.8 -6.602,-10.8 -6.597,-11.4 -6,-11.39 -6.602,-12 -6.597,-12.61 -6,-12.6 -6.602,-12.6 -6,-13.19 -6,-13.21 -6,-13.2 -5.398,-12.59 -5.4028,-13.21 -4.8008,-12.6 -4.7968,-12 -4.8008,-12.6 -4.1992,-11.4 -4.2032,-12 -3.5976,-11.4 -3.6016,-12 -3.5976,-12 -3,-12 -3.6016,-12.6 -3,-12.6 -3,-13.2 -3,-13.8 -3,-13.8 -3,-13.79 -2.3984,-13.81 -2.4024,-14.4 -1.8008,-13.79 L 34,2553.2 32.8008,2540 31,2526.2 29.8008,2513 28.6016,2500.4 28,2487.8 l -0.6016,-12 -0.5976,-12.6 -0.6016,-12 v -37.8 l 0.6016,-13.2 0.5976,-13.8 1.2032,-13.79 0.5976,-13.81 1.1992,-14.4 1.8008,-13.79 1.1992,-14.41 1.8008,-14.4 2.4024,-13.8 1.7968,-13.8 2.4024,-13.2 2.3984,-13.2 2.4024,-12.6 2.3984,-12 3,-12.59 3,-11.41 3,-12 3,-12 3.6016,-12.59 3.5976,-12 4.1992,-12.61 4.2032,-13.2 4.1992,-13.19 4.8008,-13.21 4.7968,-13.2 5.4024,-13.8 5.3982,-13.2 5.403,-13.2 5.398,-13.2 6,-12.6 5.398,-12.59 6,-12 5.403,-11.41 6,-11.4 5.398,-11.4 6,-10.79 6,-10.81 6,-10.8 6.602,-11.39 6.597,-10.81 6.602,-11.4 7.199,-12 7.801,-11.4 7.801,-12 7.801,-12 8.398,-12 8.398,-12 8.403,-11.39 8.398,-11.41 8.403,-11.4 8.398,-10.8 7.801,-10.8 8.398,-10.2 7.801,-9.6 8.398,-9.6 7.801,-9.6 7.801,-9 8.398,-9.59 8.403,-9.61 8.398,-9.6 9,-9.6 9,-9.6 9.602,-9.59 9.597,-9.61 9.602,-10.2 9.602,-9.6 9.597,-9 9.602,-9.59 9.597,-8.41 9,-9 9,-7.8 8.403,-7.79 8.398,-7.21 7.801,-7.2 7.801,-6.59 7.801,-6 9,-7.81 9.597,-7.19 9,-7.21 9.602,-6.6 9.597,-7.19 9.602,-6.61 9.602,-6.6 9.597,-6.6 9.602,-6 9,-6 9,-5.4 9,-5.4 8.398,-5.39 7.801,-4.21 8.398,-4.79 7.801,-4.21 8.403,-4.79 9,-5.41 9.597,-4.8 9.602,-5.4 10.199,-4.8 10.199,-5.4 10.801,-5.4 10.199,-5.4 10.199,-4.8 10.204,-4.8 9.597,-4.79 9.602,-4.21 9,-4.2 9,-4.2 9,-4.2 9.597,-4.19 9,-3.61 10.204,-4.2 10.199,-4.19 10.199,-4.21 10.801,-4.2 10.199,-4.2 10.199,-4.2 10.199,-4.19 10.204,-3.61 9.597,-3.6 9,-3 9,-3 9,-3.6 9,-3 9.602,-3 10.199,-3 10.199,-3.6 10.199,-3 10.204,-3.59 10.796,-3 10.204,-3 10.199,-3 10.199,-2.41 9,-3 9.6,-2.4 9,-1.8 9,-2.39 9,-2.41 9.6,-2.4 9.6,-2.4 10.2,-1.79 10.2,-2.41 10.2,-2.4 10.8,-2.4 10.2,-1.79 10.2,-1.81 9.6,-1.8 9.6,-1.8 9,-1.8 9,-1.2 8.4,-1.8 9,-1.2 9.6,-1.2 9.6,-1.8 10.2,-1.2 10.2,-1.2 10.2,-1.19 10.2,-1.21 10.2,-1.2 9.6,-0.59 9.6,-1.21 9.6,-0.6 8.4,-1.19 9,-0.61 9,-0.6 8.4,-0.6 h 9.6 l 9,-0.6 9.6,-0.59 10.2,-0.61 h 19.8 l 10.2,-0.6 h 45 l 8.4,0.6 h 8.4 l 9,0.61 h 9 l 9.6,0.59 9.6,0.6 9.6,0.6 9.6,0.6 9.6,0.61 9,0.59 9,1.2 8.4,0.6 8.4,1.2 8.4,0.6 7.8,1.2 8.4,0.61 8.4,1.19 9,1.2 9,1.2 9,1.2 9.6,1.8 9,1.2 9,1.8 9,1.8 8.4,1.2 8.4,1.8 7.8,1.2 7.8,1.8 7.8,1.8 7.8,1.81 8.4,1.79 8.4,1.8 8.4,1.8 9,2.4 8.4,2.4 9,2.4 9,2.41 8.4,2.39 7.8,1.8 7.8,2.4 7.8,2.41 7.2,2.39 7.2,2.4 7.8,2.4 7.2,2.4 8.4,3 8.4,2.41 8.4,3 9,3.59 8.4,3 9,3 9,3.6 9,3 8.4,3 8.4,3.6 9,3 7.8,3 7.8,2.4 8.4,3.6 9,3 9,3.6 9.6,3.61 9.6,3.59 10.2,3.6 9.6,3.6 10.2,3.6 9.6,4.2 9.6,3.6 9,3.6 9,3.6 9,3 8.4,3.61 9.6,4.19 9.6,3.6 9.6,4.21 10.2,4.79 10.2,4.21 10.2,4.19 10.8,4.81 10.2,4.79 10.2,4.21 9.6,4.19 9,4.2 9,4.2 8.4,3.6 8.4,3.6 7.8,3.6 8.4,3.61 7.8,3.59 9,3 8.4,3.6 9,3.6 8.4,3.6 9,3.61 8.4,3 7.8,3 7.8,3 7.8,2.39 7.2,2.4 7.2,2.4 7.8,2.4 8.4,2.41 8.4,1.79 8.4,1.8 9,1.8 9,1.8 9.6,1.2 8.4,1.2 8.4,1.2 8.4,0.6 h 31.2 l 7.8,-0.6 8.4,-1.2 9,-1.2 9,-1.2 9,-1.8 9,-1.8 8.4,-1.8 9,-1.79 7.8,-2.41 8.4,-2.4 6.6,-2.4 7.2,-2.4 7.8,-2.39 7.8,-3 7.8,-3 8.4,-3 9,-3.61 8.4,-3.6 9,-3.6 8.4,-3.6 9,-3 7.8,-3.59 8.4,-3.61 7.8,-3.6 8.4,-3.6 8.4,-3.6 9,-4.2 9,-4.2 9.6,-4.19 10.2,-4.21 10.2,-4.79 10.8,-4.81 10.2,-4.19 10.2,-4.21 10.2,-4.79 9.6,-4.21 9.6,-3.6 9.6,-4.19 8.4,-3.61 9,-3 9,-3.6 9,-3.6 9.6,-3.6 9.6,-4.2 10.2,-3.6 9.6,-3.6 10.2,-3.6 9.6,-3.59 9.6,-3.61 9,-3.6 9,-3 8.4,-3.6 7.8,-2.4 7.8,-3 9,-3 8.4,-3.6 8.4,-3 9,-3 9,-3.6 9,-3 8.4,-3 9,-3.59 8.4,-3 8.4,-2.41 8.4,-3 7.2,-2.4 7.8,-2.4 7.2,-2.4 7.2,-2.39 7.8,-2.41 7.8,-2.4 7.8,-1.8 8.4,-2.39 9,-2.41 9,-2.4 8.4,-2.4 9,-2.4 8.4,-1.8 8.4,-1.8 8.4,-1.79 7.8,-1.81 7.8,-1.8 7.8,-1.8 7.8,-1.2 8.4,-1.8 8.4,-1.2 9,-1.8 9,-1.8 9,-1.2 9.6,-1.8 9,-1.2 9,-1.2 9,-1.2 8.4,-1.19 8.4,-0.61 7.8,-1.2 8.4,-0.6 8.4,-1.2 8.4,-0.6 9,-1.2 9,-0.59 9.6,-0.61 9.6,-0.6 9.6,-0.6 9.6,-0.6 9.6,-0.59 h 9 l 9,-0.61 h 8.4 l 8.4,-0.6 h 45 l 10.2,0.6 h 19.8 l 10.2,0.61 9.6,0.59 9,0.6 h 9.6 l 8.4,0.6 9,0.6 9,0.61 8.4,1.19 9.6,0.6 9.6,1.21 9.6,0.59 10.2,1.2 10.2,1.21 10.2,1.19 10.2,1.2 10.2,1.2 9.6,1.8 9.6,1.2 9,1.2 9,1.8 8.4,1.2 9,1.8 9.6,1.8 9.6,1.8 9.6,1.81 9.6,1.79 10.2,1.8 9.6,2.41 9,1.79 9,1.8 7.8,2.41 7.8,1.79 7.2,1.8 6.6,1.8 9,2.4 8.4,2.4 7.8,2.4 8.4,3 7.2,3 7.8,2.41 6.6,3 6,2.39 6,3 5.4,2.4 5.4,2.4 5.4,3 6,3 5.4,3 6.6,3.6 5.4,3 6,3.6 5.4,3 5.4,3.61 4.8,3 4.8,3 4.8,3.59 4.8,3.6 5.4,4.2 4.8,4.2 5.4,4.2 4.8,3.6 4.2,4.2 4.2,4.2 4.2,3.6 4.8,4.8 4.8,5.4 5.4,6 4.8,6 4.8,6.6 4.8,6 3.6,6 3.6,5.4 3.6,6 3.6,6.6 3,6.6 3.6,7.21 3,7.19 3,7.2 2.4,7.2 2.4,6.6 1.2,4.81 1.8,6 1.2,5.39 1.2,6.61 1.8,6 1.2,6.59 0.6,6.6 1.2,6 0.6,6 0.6,5.4 0.6,6 0.6,6 v 6 l 0.6,6.6 v 7.2 l 0.6,6.61 v 13.19 l -0.6,6 v 12 l -0.6,6.6 -0.6,6.6 -0.6,7.2 -0.6,7.8 -1.2,8.4 -1.2,8.4 -1.2,8.4 -1.8,8.41 -1.8,9 -1.8,7.79 -1.8,8.4 -2.4,9 -2.4,9.6 -2.4,10.21 -3,10.19 -2.4,9.6 -2.4,9.6 -2.4,9 -2.4,8.4 -1.8,7.21 -1.8,6.59 -2.4,9 -2.4,7.8 -1.8,7.2 -1.2,6 -1.2,6 -1.2,4.2 -0.6,4.21 -0.6,3.59 -1.2,4.2 -0.6,5.4 -0.6,4.81 -0.6,5.39 -0.6,4.8 -0.6,4.81 -0.6,4.19 v 23.4 l 0.6,4.2 0.6,4.21 0.6,4.79 0.6,4.8 1.2,4.2 1.2,3.6 1.2,4.2 1.2,4.2 1.8,4.21 1.8,4.19 1.8,4.2 2.4,3.61 1.8,3.59 2.4,3.6 3,4.2 3,4.2 2.4,3.6 3,3.6 3,3.6 3,3.61 3.6,3.59 3.6,4.2 3,3.6 3.6,3.61 3,3.59 3.6,3.6 4.2,4.2 3.6,3.61 3.6,3.59 3.6,3.6 3,3.6 4.2,3.6 3.6,4.2 3.6,4.2 3.6,3.6 3,3.61 3,3.59 3.6,4.2 3,4.21 3.6,4.19 2.4,4.2 3,3.61 2.4,4.19 2.4,4.2 3,4.2 2.4,4.8 1.8,4.2 1.8,4.2 1.8,3.6 1.8,4.8 1.2,4.81 1.2,4.79 1.2,4.21 0.6,4.19 0.6,4.2 0.6,4.8 v 4.81 l 0.6,4.79 v 4.8 l -0.6,4.2 -0.6,4.21 -0.6,4.79 -0.6,5.4 -1.2,4.81 -1.2,4.79 -0.6,4.21 -1.8,4.79 -1.2,4.8 -1.8,4.8 -1.8,4.8 -2.4,4.81 -1.8,4.79 -1.2,3 -1.8,3.6 -1.8,4.2 -3,5.41 -3,5.39 -3.6,6 -4.2,6.61 -4.8,7.79 -3.6,5.4 -4.2,6 -4.8,7.2 -5.4,7.8 -6,7.81 -6,9 -6.6,9 -6.6,9 -6.6,8.39 -6.6,9 -6,7.8 -6.6,8.4 -5.4,6.6 -5.4,7.2 -5.4,7.2 -6,7.2 -6,7.21 -6,7.19 -6,7.2 -6,7.2 -6,6.6 -5.4,6.6 -4.8,6 -4.8,5.4 -4.2,5.4 -4.2,4.8 -5.4,6.61 -4.8,6.59 -4.8,6 -4.8,6 -4.8,5.41 -4.2,6 -4.2,4.79 -3.6,4.8 -3,4.8 -3,4.2 -4.2,4.8 -3.6,5.4 -4.2,6 -4.2,6 -4.2,6 -3.6,5.4 -3.6,5.4 -3.6,5.41 -3,4.79 -3,5.4 -3,5.4 -3.6,6 -3,6 -2.4,5.41 -2.4,5.39 -2.4,4.8 -1.8,5.4 -2.4,5.41 -1.8,5.39 -1.8,6 -1.2,6 -1.8,6 -0.6,5.4 -1.2,5.4 -0.6,4.81 -0.6,6 -0.6,5.39 -0.6,6.61 v 18 l 0.6,5.39 0.6,5.4 0.6,6 0.6,6 1.2,6.6 1.2,6.61 1.2,6 1.2,6 1.2,6 1.8,6 1.2,6 2.4,6.59 1.8,7.2 1.8,6.6 2.4,7.2 1.8,6 2.4,6.6 1.2,4.81 1.8,5.39 1.8,5.4 2.4,6 2.4,6.6 2.4,7.2 2.4,7.2 3,7.21 3,7.19 3,7.81 2.4,7.19 3,7.2 3,8.4 3.6,8.4 3.6,9 3.6,9 3,8.4 3.6,9 3,7.8 3,7.8 2.4,6.6 2.4,6 3,7.8 2.4,7.2 2.4,7.21 1.8,5.39 1.2,5.4 1.2,4.8 0.6,3.6 0.6,3.6 0.6,4.21 0.6,4.79 0.6,5.4 0.6,4.81 0.6,4.79 v 18.6 l -0.6,4.8 -0.6,4.81 -0.6,4.19 -0.6,3.6 -0.6,4.8 -1.2,4.2 -1.8,4.8 -1.2,4.2 -1.8,3.6 -1.8,3.61 -1.8,4.19 -2.4,3.6 -2.4,4.21 -2.4,3.59 -3,3 -2.4,3.6 -3,3 -3.6,3.6 -3.6,3.6 -3,3 -3.6,3 -3.6,3 -3.6,3 -4.2,3 -4.2,3 -3.6,2.4 -4.2,3 -3.6,2.4 -4.8,2.4 -4.8,3 -5.4,3.6 -6,3 -5.4,3.6 -4.8,2.4 -5.4,3 -6,3.6 -6.6,3.6 -6.6,3.61 -6.6,3.59 -6,3 -6,3.6 -6,3.6 -6,3 -6,4.21 -6.6,3.59 -6.6,4.2 -6,3.6 -5.4,3.61 -5.4,3.59 -5.4,3 -5.4,4.2 -5.4,3.6 -5.4,4.2 -6,4.2 -4.8,4.21 -4.8,4.19 -4.2,4.2 -4.2,3.61 -4.8,4.19 -4.2,4.81 -4.2,4.79 -4.2,4.8 -4.2,4.8 -3.6,4.8 -3,4.81 -3.6,4.19 -3,5.4 -3,5.41 -3,5.39 -3,6 -3,5.4 -2.4,5.4 -2.4,5.4 -1.8,5.41 -2.4,6 -2.4,6 -1.8,6.59 -1.8,6.6 -1.8,6.6 -1.8,6.6 -1.8,6 -1.2,6 -1.2,6.61 -1.8,7.19 -1.2,7.2 -1.8,7.2 -1.2,7.2 -1.2,7.21 -1.2,6.59 -0.6,5.41 -1.2,5.39 -0.6,6.61 -1.2,6.59 -1.2,7.2 -0.6,7.21 -1.2,7.79 -1.2,8.4 -0.6,7.81 -1.2,9 -0.6,7.79 -0.6,7.8 -1.2,9 -0.6,9.6 -1.2,10.2 -1.2,10.2 -1.2,10.2 -0.6,10.21 -1.2,9.59 -1.2,9 -1.2,8.41 -0.6,7.79 -1.8,8.4 -1.2,8.4 -1.8,8.41 -1.2,7.79 -1.8,7.8 -2.4,7.2 -1.8,7.21 -1.8,6 -1.8,6 -1.8,5.39 -1.8,5.4 -1.8,5.4 -2.4,6 -2.4,6 -2.4,6 -2.4,6 -3,6 -2.4,5.4 -2.4,5.41 -2.4,4.79 -3.6,6 -3,6.6 -4.2,6.61 -4.2,6.59 -4.2,6.6 -4.2,6 -4.2,5.4 -4.2,5.41 -4.2,5.39 -4.2,4.8 -5.4,5.4 -5.4,5.41 -5.4,5.39 -5.4,4.8 -5.4,4.2 -4.8,4.2 -5.4,3.6 -6,3.6 -6,4.21 -6.6,3.59 -6.6,3.6 -6.6,3.6 -6,2.4 -6,3 -6.6,2.4 -6.6,2.41 -6.6,2.39 -7.8,2.4 -7.8,1.8 -7.2,1.8 -7.2,1.8 -6.6,1.2 -5.4,1.2 -6,0.6 -6,1.2 -6,0.61 -6.6,0.59 -6.6,0.6 -6.6,0.6 -6,0.6 -6,0.61 h -13.2 l -7.2,0.59 h -24 l -7.2,-0.59 h -19.2 L 3226,3845 h -22.8 l -4.8,-0.6 -4.8,0.6 H 3178 l -4.2,0.61 h -4.8 l -4.8,0.59 -4.8,0.6 -4.8,1.2 -4.2,0.61 -4.2,0.59 -4.2,1.2 -4.2,1.21 -4.2,1.19 -4.8,1.81 -3.6,1.79 -3.6,1.8 -3.6,1.8 -4.2,1.8 -3.6,2.4 -4.2,3 -3.6,2.41 -3,2.39 -3.6,3 -3.6,3 -3.6,3 -3.6,3.61 -3,3.59 -3,3 -3.6,3.6 -3,3.6 -3,3.6 -3.6,4.2 -3,4.2 -3,3.6 -2.4,3 -2.4,3 -2.4,3.61 -3.6,4.79 -3.6,5.4 -4.2,6 -4.2,7.2 -4.8,7.8 -4.2,5.4 -3.6,6.6 -4.8,7.2 -4.8,7.8 -5.4,8.4 -5.4,8.41 -6,8.39 -5.4,9 -5.4,7.8 -5.4,7.81 -4.8,7.19 -4.8,6.6 -5.4,7.21 -4.8,7.19 -5.4,6.6 -5.4,6.6 -5.4,6.61 -5.4,5.39 -4.8,5.4 -4.8,5.4 -4.2,4.2 -4.2,4.2 -4.2,4.2 -4.8,4.21 -4.8,4.19 -4.8,4.81 -5.4,4.19 -5.4,4.81 -4.8,4.19 -4.8,3.6 -4.8,3.6 -4.8,3.61 -4.8,3.59 -4.8,3 -5.4,3.6 -5.4,3.6 -5.4,3.6 -6,3 -5.4,3 -5.4,3 -5.4,2.4 -4.8,2.4 -6.6,3 -6.6,3 -7.2,2.4 -7.2,2.41 -7.8,2.39 -7.2,2.4 -7.2,1.8 -6.6,1.2 -6.6,1.21 -7.2,1.19 -7.2,0.6 -7.8,0.6 -7.8,0.61 h -22.2 l -5.4,-0.61 h -6 l -6,-0.6 -6,-1.2 -6.6,-0.59 -6.6,-1.21 -6.6,-1.2 -6,-1.2 -5.4,-1.8 -6,-1.2 -5.4,-1.2 -6,-1.8 -6,-1.8 -6.6,-2.4 -6,-1.8 -6.6,-2.39 -6.6,-2.41 -6,-1.8 -5.4,-2.4 -6,-2.39 -5.4,-2.41 -6,-2.4 -6,-2.4 -6.6,-3.6 -7.2,-3 -7.2,-4.19 -7.2,-3.61 -7.2,-4.2 -7.8,-4.8 -7.8,-4.8 -5.4,-3.59 -6.6,-4.21 -6.6,-4.2 -6.6,-4.8 -7.8,-5.4 -7.2,-5.39 -8.4,-5.41 -7.8,-6 -7.8,-6 -8.4,-6 -7.8,-6 -7.2,-5.4 -7.2,-6 -7.2,-5.4 -7.8,-6.6 -8.4,-6.6 -8.4,-7.2 -9,-7.2 -8.4,-7.19 -8.4,-7.21 -8.4,-6.6 -7.2,-6.6 -7.2,-6 -6.6,-5.4 -5.4,-4.8 -4.8,-4.2 -7.2,-6 -6,-4.8 -5.4,-4.8 -4.8,-3.59 -4.2,-3.61 -3.6,-2.39 -3,-2.41 -3,-1.8 -3.6,-3 -4.2,-3 -4.2,-2.4 -4.2,-3 -4.2,-2.39 -3.6,-2.41 -3.6,-1.8 -4.2,-2.4 -4.2,-2.39 -4.2,-1.81 -4.2,-1.8 -3.6,-1.2 -3.6,-1.8 -4.2,-1.2 -4.2,-1.19 -4.2,-0.61 -4.2,-0.6 -3.6,-0.6 -4.2,-0.6 h -4.2 l -4.2,-0.59 -4.8,0.59 h -4.2 l -3.6,0.6 h -4.2 l -4.2,0.6 -4.8,1.21 -4.2,1.19 -4.8,0.6 -3.6,1.21 -4.2,1.19 -4.8,1.81 -4.8,1.19 -4.8,1.81 -4.2,1.79 -4.2,1.8 -4.8,1.2 -4.2,1.8 -5.4,2.41 -4.8,1.79 -4.8,1.8 -4.2,1.8 -4.2,1.8 -4.8,1.81 -5.4,1.79 -4.8,1.8 -4.8,1.8 -4.2,1.2 -4.2,1.8 -4.8,1.2 -4.8,1.2 -5.4,1.21 -4.8,1.19 -4.2,1.2 -4.2,0.61 -4.8,0.59 -4.8,0.6 -4.8,0.6 h -17.4 l -4.2,-0.6 -4.8,-0.6 -4.2,-0.59 -4.2,-1.21 -3.6,-1.2 -4.2,-1.2 -4.2,-1.8 -4.8,-1.8 -3.6,-1.79 -3.6,-2.41 -3.6,-1.8 -4.2,-2.4 -3.6,-3 -4.2,-3 -3.6,-3 -3.6,-2.39 -3,-3 -3.6,-3.61 -3.6,-3.6 -4.2,-3.6 -3,-3.6 -3,-3.59 -2.4,-2.41 -3,-3 -2.4,-3.59 -3.6,-4.21 -3.6,-5.4 -3.6,-5.39 -4.2,-6.61 -4.2,-7.2 -3.6,-5.4 -3.6,-6.6 -4.2,-6.6 -4.2,-7.8 -4.8,-7.79 -4.2,-8.41 -4.8,-8.4 -4.8,-8.4 -4.8,-7.79 -4.2,-7.81 -4.2,-6.6 -3.6,-6.59 -4.2,-7.21 -4.2,-6.6 -4.2,-7.19 -3.6,-6 -4.2,-6.61 -3.6,-6 -3.6,-5.39 -3,-4.81 -3,-4.8 -3,-4.2 -3.6,-5.4 -3.6,-5.4 -4.2,-6 -4.2,-6 -3.6,-6 -4.2,-5.39 -4.2,-5.41 -3.6,-4.8 -3.6,-4.79 -3.6,-4.81 -4.2,-4.8 -4.8,-4.8 -4.2,-4.8 -4.2,-4.79 -4.2,-4.21 -4.2,-3.6 -4.2,-3.6 -4.2,-3.59 -4.8,-4.21 -4.8,-3.6 -5.4,-3.6 -4.8,-3 -4.8,-3 -4.2,-2.4 -4.8,-3 -5.4,-2.4 -5.4,-2.4 -5.4,-2.39 -6,-2.41 -5.4,-1.8 -5.4,-1.79 -5.4,-1.81 -5.4,-1.19 -5.4,-1.21 -6,-1.79 -6.6,-1.21 -6.6,-1.2 -6,-1.2 -6.6,-0.6 -5.4,-0.6 -6,-0.6 -6.6,-0.59 -6.6,-0.61 -7.2,-0.6 -7.2,-0.6 -7.2,-0.6 h -6.6 l -6.6,-0.59 h -10.8 l -6,-0.61 h -66 l -7.2,0.61 h -25.8 l -9,0.59 h -19.2 l -9,0.6 h -36 l -9,-0.6 h -18 l -9.6,-0.59 h -9.6 l -10.2,-0.61 -10.2,-0.6 -10.2,-0.6 -10.2,-0.6 -10.2,-0.59 -9.6,-0.61 -9.6,-1.2 -9,-0.6 -9,-0.59 -9,-1.21 -9,-0.6 -9.6,-1.19 -9.6,-1.21 -10.2,-1.2 -10.8,-1.8 -10.2,-1.2 -10.8,-1.8 -10.2,-1.2 -10.2,-1.8 -10.2,-1.79 -9.6,-1.21 -9,-1.79 -9,-1.81 -9.6,-1.8 -9,-1.8 -9.6,-1.8 -10.2,-2.4 -10.2,-1.8 -10.8,-2.4 -10.8,-3 -10.2,-2.4 -10.8,-2.4 -10.2,-2.39 -10.201,-3 -9.597,-2.41 -9.602,-2.4 -9,-3 -9.602,-2.4 -9,-3 -10.199,-2.4 -9.597,-3.6 -10.801,-3 -10.801,-3.6 -10.801,-3.6 -10.801,-3 -10.199,-3.59 -10.801,-3.61 -9.597,-3.6 -10.199,-3.6 -9,-3.6 -9.602,-3.59 -9,-3.61 -9.602,-3.6 -9.597,-3.6 -10.199,-4.19 -10.204,-4.21 -10.796,-4.2 -10.801,-4.8 -10.801,-4.2 -10.801,-4.8 -10.199,-4.79 -10.199,-4.21 -9.602,-4.2 -9,-4.8 -9.597,-4.2 -7.801,-3.59 -8.403,-4.21 -8.398,-4.2 -8.398,-4.2 -9,-4.8 -9.602,-4.8 -9.602,-5.4 -9.597,-5.39 -10.199,-6 -10.204,-6 -9.597,-6 -10.199,-6.61 -9.602,-6 -9.602,-6.6 -10.199,-6.6 -9.597,-7.19 -7.801,-5.41 -8.403,-6.59 -8.398,-6 -8.398,-6.61 -9,-7.2 -9.602,-7.8 -9.602,-7.8 -10.199,-8.4 -10.199,-8.4 -10.199,-9 -10.199,-9 -10.204,-9 -10.199,-9 -9.597,-9 -10.204,-9.6 -9,-9 -9.597,-9 -9,-8.4 -8.403,-9 -9,-9 -8.398,-8.4 -8.398,-9.6 -9,-9 -8.403,-9.6 -9,-10.19 -9,-10.21 -9,-10.79 -9,-10.81 -9.597,-10.8 -9,-11.39 -9,-11.41 -8.403,-11.4 -8.398,-11.4 -8.403,-11.4 -7.796,-10.8 -7.801,-11.4 -7.199,-10.8 -7.204,-10.2 -7.199,-10.8 z"
       style="fill:none;stroke:#000000;stroke-width:27;stroke-linecap:butt;stroke-linejoin:bevel;stroke-miterlimit:10;stroke-dasharray:none;stroke-opacity:1"
       transform="matrix(0.13333333,0,0,-0.13333333,0,634.66667)" />
    <path
       id="path7"
       d="m 1477.6,4490.61 -12,-1.21 -12.6,-1.79 -12.6,-1.81 -12.6,-1.8 -13.2,-2.39 -13.2,-2.41 -13.8,-3 -13.8,-2.4 -14.4,-3.6 -13.8,-3 -13.8,-3.59 -14.4,-3.61 -13.2,-3.6 -13.8,-3.6 -12.6,-4.19 -12.6,-4.21 -12.6,-3.6 -12,-4.19 -11.4,-4.21 -11.4,-4.2 -11.4,-4.8 -12,-4.79 -11.4,-4.81 -12,-5.4 -12,-5.4 -12,-5.39 -12.6,-6 -12.6,-6.61 -12.6,-6.6 -12.6,-6.6 -12.6,-7.19 -12,-7.21 -12,-7.2 -12,-7.2 -11.4,-7.2 -10.8,-7.19 -10.8,-7.21 -10.2,-7.2 -10.198,-7.2 -9.602,-7.2 -10.199,-7.19 -9.602,-7.81 -9.597,-7.8 -10.204,-8.39 -10.199,-8.41 -10.199,-9 -10.199,-9 -10.199,-9.59 -10.204,-9.61 -10.199,-10.2 -10.199,-10.19 -9.602,-10.21 -10.199,-10.2 -9,-10.2 -9,-10.2 -9,-10.19 -8.398,-9.61 -7.801,-9.6 -7.801,-9.6 -7.199,-9.6 -7.801,-10.2 -7.199,-9.6 -7.199,-10.79 -7.199,-10.21 -7.801,-11.4 -7.199,-11.39 -7.801,-11.41 -7.199,-12 -7.204,-12.59 -7.796,-12 -7.204,-12.61 -6.597,-12.6 -6.602,-12.6 -6.597,-12 -6,-12.6 -6,-12 -5.403,-11.4 -5.398,-11.4 -5.403,-11.4 -4.796,-11.39 -4.801,-11.41 -4.801,-12 -4.801,-11.4 -4.199,-12.6 -4.801,-12.59 -4.801,-12.61 -4.199,-13.2 -4.199,-13.8 -4.801,-13.8 -4.199,-13.8 -4.199,-13.79 -3.602,-13.81 -3.597,-13.8 -3.602,-13.2 -3.602,-13.19 -3,-13.21 -3,-12.6 -3,-12.6 -2.398,-12 -2.398,-12 -2.403,-12.59 -1.801,-12 L 577,3587 l -1.801,-12.6 -2.398,-13.2 -1.801,-13.2 -1.801,-13.2 -1.801,-13.8 -1.199,-13.2 -1.801,-13.8 -1.199,-13.2 -1.199,-13.19 -1.199,-13.21 -0.602,-12.6 -1.199,-12 -0.602,-11.4 -0.597,-10.79 -0.602,-10.81 v -55.19 l 0.602,-12 0.597,-11.41 0.602,-12 0.602,-11.4 1.199,-11.4 1.199,-11.4 1.199,-10.8 1.199,-10.2 1.204,-10.2 1.199,-9.6 1.801,-9.59 1.199,-9 1.199,-8.41 1.801,-10.2 1.801,-10.2 1.796,-10.19 2.403,-10.81 2.398,-11.4 1.801,-11.4 2.398,-11.39 2.403,-11.41 3,-11.4 2.398,-10.8 2.403,-10.8 2.398,-10.2 2.398,-9.6 2.403,-9.6 2.398,-9.6 2.403,-9.59 3,-10.21 3,-10.2 3,-10.2 3,-10.8 3,-10.8 3.597,-10.79 3,-10.81 3.602,-10.8 3,-9.6 3.597,-9.6 3,-9.6 3,-9 3,-9 3.602,-9 3.602,-9.59 3.597,-9.61 3.602,-10.2 4.199,-10.19 3.602,-10.21 4.199,-10.2 4.199,-10.2 4.199,-9.6 3.602,-9.6 4.199,-9 3.602,-8.4 4.199,-8.4 3.597,-8.39 3.602,-9 4.199,-8.41 4.801,-9.59 4.199,-9 4.801,-9.61 4.801,-9.6 4.801,-9.6 4.796,-9 4.801,-9 4.199,-9 4.801,-8.4 4.199,-7.79 4.801,-7.81 4.199,-7.8 4.204,-8.39 4.796,-7.81 5.403,-8.4 4.801,-8.4 5.398,-9 5.398,-9 5.403,-8.39 5.398,-9 5.403,-8.41 5.398,-7.8 5.398,-7.79 4.801,-7.21 4.801,-7.2 4.801,-7.2 5.398,-7.2 5.403,-7.8 5.398,-7.2 5.398,-8.4 6,-7.79 6,-7.81 6,-7.8 6,-8.39 6,-7.21 6,-7.2 5.403,-7.2 5.398,-6.6 5.403,-6.6 5.398,-6.6 5.398,-6.59 6,-6.61 6,-6.6 6,-7.2 6.602,-7.2 6,-7.2 6.602,-7.19 6.597,-7.21 6.602,-6.6 6,-6.6 6,-6 6,-6 6,-6 5.399,-6 6,-5.4 6.6,-6 6,-6 6.6,-6.6 7.2,-6.59 6.6,-6 7.2,-6.61 7.2,-6 6.6,-6 6.6,-5.39 6,-5.41 6.6,-5.4 6,-5.4 6,-4.79 6.6,-4.81 6,-5.4 7.2,-5.4 6.6,-5.39 7.2,-5.41 7.2,-5.4 7.2,-5.4 7.2,-5.4 7.2,-4.8 7.2,-5.4 6.6,-4.19 6,-4.81 6.6,-4.19 6.6,-4.21 6,-4.2 7.2,-4.8 7.2,-4.2 7.2,-4.8 7.8,-4.79 7.8,-5.41 7.8,-4.8 8.4,-4.79 7.8,-5.41 7.8,-4.8 8.4,-4.79 7.8,-4.81 7.8,-4.8 6.6,-4.2 7.8,-4.19 7.2,-4.81 8.4,-4.8 8.4,-4.8 8.4,-5.4 9,-5.4 9,-5.4 9.6,-5.39 9,-5.41 9,-5.4 9,-5.4 8.4,-4.79 8.4,-4.81 8.4,-4.8 7.8,-4.2 9,-5.4 9,-4.79 9.6,-4.81 9.6,-5.4 10.2,-5.4 9.6,-5.39 10.2,-4.81 10.2,-5.4 9.6,-4.79 9.6,-5.41 9,-4.2 8.4,-4.8 7.8,-4.2 8.4,-4.2 7.8,-4.19 7.8,-4.21 7.8,-4.2 7.8,-4.2 8.4,-4.8 8.4,-4.2 7.8,-4.8 8.4,-4.8 7.8,-4.2 7.2,-4.8 7.2,-4.2 6.6,-4.2 6,-4.2 6.6,-4.19 6.6,-4.81 6.6,-5.4 7.2,-4.79 7.2,-6 6.6,-6 7.2,-6 6.6,-6 6.6,-6 5.4,-6 6,-6 4.8,-6 4.8,-6 4.8,-6 4.8,-6.61 4.2,-6.6 4.8,-7.2 4.8,-7.8 4.2,-7.79 4.8,-7.81 4.2,-8.4 3.6,-7.79 3.6,-8.41 3.6,-7.8 3,-7.79 3,-6.61 2.4,-7.2 3,-7.19 2.4,-7.81 3,-8.4 2.4,-8.4 3,-9 3,-9 2.4,-9 2.4,-9 3,-9 2.4,-8.39 2.4,-9 1.8,-8.41 2.4,-8.4 2.4,-9 2.4,-9 2.4,-10.19 3,-10.21 2.4,-10.79 3,-10.81 3,-10.8 3,-10.8 3,-10.8 3,-10.79 2.4,-10.21 3,-10.2 3,-9.59 2.4,-9 3,-9 2.4,-9 3,-9.61 3,-9.6 3.6,-10.2 3,-10.2 3.6,-10.2 3,-10.19 3,-9.61 3.6,-9.6 3,-9.6 3,-8.4 2.4,-8.4 3,-8.39 2.4,-7.81 3,-9 3,-8.4 3,-9 3,-8.4 3,-9 3,-9 3,-9 3,-9 3,-8.39 3,-8.41 3,-7.8 2.4,-7.79 3,-7.21 2.4,-7.2 3,-7.2 3,-7.2 3,-7.8 3,-7.8 3.6,-7.8 3.6,-8.4 3.6,-8.39 3.6,-8.41 3.6,-8.4 4.2,-7.8 3.6,-7.8 3.6,-7.2 3.6,-7.2 3.6,-7.19 3,-7.21 4.2,-7.2 3.6,-7.8 4.2,-7.2 4.2,-8.4 4.8,-7.8 4.2,-8.39 4.8,-7.81 4.8,-8.4 4.8,-7.79 4.2,-7.81 4.8,-7.19 4.2,-7.21 4.2,-6.6 4.2,-7.19 4.8,-6.61 4.8,-7.797 4.8,-7.199 5.4,-7.801 5.4,-7.801 5.4,-7.797 5.4,-7.8 5.4,-8.403 6,-7.199 5.4,-7.801 4.8,-6.597 5.4,-7.2 5.4,-6.601 4.8,-6.602 5.4,-7.199 5.4,-6.598 6,-7.203 6,-7.797 6.6,-7.203 6,-7.797 6.6,-7.8 6.6,-7.2 6.6,-7.8 6,-6.602 6,-7.199 6,-6.602 6,-6 6,-6.597 6,-6.602 6.6,-6.598 6.6,-7.203 7.2,-6.597 7.2,-7.2 7.2,-7.8 7.2,-7.2 7.2,-7.203 7.8,-6.597 6.6,-6.602 7.2,-6.598 6.6,-6 6.6,-6 6.6,-6 7.2,-6.601 7.2,-6 7.2,-6 7.2,-6.602 7.8,-6.597 7.8,-6.602 7.8,-6 7.2,-6 7.2,-5.398 6.6,-5.403 6,-4.797 6,-4.203 5.4,-4.199 7.2,-5.398 7.2,-4.801 7.2,-4.801 7.2,-4.801 7.2,-4.199 6.6,-4.199 6,-3.602 6,-3 6,-3 5.4,-2.398 5.4,-2.399 5.4,-3 6,-2.402 6,-2.398 6.6,-3 6,-2.403 6.6,-2.398 5.4,-2.399 6,-1.8 5.4,-1.801 5.4,-1.801 6,-1.801 6,-1.199 6,-1.801 6.6,-1.797 6.6,-1.203 6,-1.199 6,-1.199 6,-0.602 5.4,-0.597 6.6,-0.602 7.2,-0.598 7.8,-0.601 h 16.2 l 7.2,0.601 7.2,0.598 7.2,0.602 6.6,1.199 7.2,1.199 7.2,1.199 7.8,2.403 7.8,1.8 7.2,2.399 6.6,2.398 6.6,2.403 5.4,1.8 4.8,2.399 6,2.398 5.4,3 6,3 5.4,3 6,3 5.4,3.602 4.8,3 4.8,3 4.8,3 5.4,3.601 4.8,3.598 5.4,3.602 5.4,4.199 5.4,4.199 5.4,4.199 5.4,4.203 4.8,3.598 4.2,4.199 4.8,3.602 4.8,4.199 4.8,4.801 5.4,4.801 5.4,5.398 6,6 5.4,6 6,6.602 5.4,6.597 6,7.203 5.4,6 4.8,7.2 6,7.199 6,7.801 6,8.398 6,8.402 6.6,7.797 5.4,8.403 5.4,7.199 5.4,7.199 4.2,6 4.2,5.402 5.4,7.2 4.8,6.597 4.8,6 3.6,4.801 3.6,4.801 3,3.601 2.4,3 2.4,2.399 3,3.601 3.6,3.598 3.6,4.199 3.6,3.602 3.6,3.601 3,3 3.6,3 3.6,3 3.6,3.598 4.2,3 3.6,2.402 3,3 3.6,1.797 3.6,2.403 4.2,2.398 4.2,2.402 4.2,1.797 3.6,1.801 3.6,1.199 4.2,1.203 4.8,1.797 4.2,1.203 4.8,0.598 4.2,1.199 3.6,0.602 h 4.8 l 4.8,0.601 4.8,0.598 h 18.6 l 5.4,-0.598 h 5.4 l 4.8,-0.601 h 4.8 l 4.8,-0.602 5.4,-0.597 5.4,-0.602 h 5.4 l 5.4,-0.598 4.8,-0.601 4.8,-0.602 5.4,-0.597 h 5.4 l 5.4,-0.602 5.4,-0.598 h 9.6 l 4.8,-0.601 h 10.8 l 5.4,0.601 h 4.2 l 4.8,0.598 4.8,0.602 4.8,0.597 5.4,1.203 4.2,1.2 4.2,1.199 4.2,1.199 4.8,1.199 4.2,1.801 4.8,2.402 4.2,1.797 3.6,2.403 3.6,1.8 4.2,2.399 3.6,3 4.2,3 3.6,3 3,3 3,3 3.6,3.601 3,3.598 3.6,3.602 3,4.199 2.4,3.601 3,3.598 2.4,4.199 3,4.801 3,4.199 2.4,4.801 2.4,4.199 1.8,3 1.8,3.602 2.4,4.199 1.8,5.402 2.4,5.399 2.4,7.199 3,7.199 3,8.403 1.8,6.595 2.4,7.21 2.4,7.79 2.4,9 3,9.6 2.4,10.2 3,10.8 3,10.8 3,10.81 2.4,10.19 2.4,10.2 2.4,10.2 2.4,8.41 1.8,8.39 1.8,9 1.8,9 2.4,9 1.8,9.61 1.8,9 1.8,9 1.8,9 1.8,7.79 1.8,7.8 1.2,7.2 1.2,6.6 1.2,6.61 1.8,7.79 1.8,8.4 1.8,7.2 1.8,7.8 1.8,7.2 1.2,6.61 1.8,6 1.8,6 1.2,5.39 1.2,4.8 1.8,6 1.8,6.6 1.8,6.6 2.4,7.2 1.8,7.2 2.4,6 1.8,6.6 1.8,5.4 2.4,6 1.8,5.4 3,6 2.4,6 2.4,6 3,6 2.4,5.4 3,4.8 2.4,4.8 3,4.81 3.6,4.79 3.6,5.4 3.6,4.81 3.6,4.79 3.6,4.21 3,4.19 3.6,3.6 4.2,4.21 4.2,4.19 4.8,3.6 4.8,4.21 4.2,3.59 4.8,3.6 4.8,3 4.2,3 4.8,3 6,3.6 5.4,3 6,3 6,3 5.4,3 5.4,2.4 5.4,2.4 6,3 6,2.41 6.6,3 7.2,2.39 6.6,3 6,2.4 6,2.4 4.8,1.81 5.4,1.79 5.4,1.8 6,2.41 6.6,2.39 6.6,2.4 7.8,2.4 7.2,2.4 7.8,2.41 7.8,2.39 7.2,1.8 7.8,2.4 7.8,3 9,2.41 9,3 9.6,2.39 9,3 9,2.4 8.4,3 7.8,2.4 6.6,1.81 6.6,2.39 7.8,2.4 7.2,3 6.6,2.4 6,2.4 4.8,1.8 4.2,2.4 3,1.8 3,1.8 4.2,1.8 4.2,3 4.2,2.4 4.2,3 4.2,2.41 3.6,3 3.6,2.39 3.6,3 3.6,3 3.6,3.61 3.6,3 2.4,3 3,3 2.4,3.59 3,3.6 2.4,4.2 2.4,3.61 1.8,3.59 1.8,3.6 1.8,4.2 1.8,4.2 1.8,4.8 1.2,4.2 0.6,4.2 1.2,3.6 0.6,4.8 0.6,4.81 0.6,4.79 0.6,4.21 v 19.19 l -0.6,4.81 v 4.79 l -0.6,4.8 -0.6,4.8 -0.6,5.4 -0.6,5.4 -0.6,6.6 -1.2,6 -1.2,6.6 -0.6,5.4 -1.2,6 -1.2,6.6 -1.2,7.2 -1.2,7.8 -1.2,7.2 -1.2,7.2 -1.2,6.6 -1.2,6.61 -1.2,7.19 -0.6,7.2 -1.2,7.2 -1.2,7.8 -0.6,6.61 -0.6,7.19 -0.6,6 -0.6,6 -0.6,6.6 v 33.6 l 0.6,6 v 5.4 l 1.2,6 0.6,6.6 1.2,6.61 1.2,6 1.2,6.59 1.2,5.41 1.8,5.39 1.8,5.4 1.8,5.4 2.4,6 2.4,6 2.4,6 3,6 2.4,5.4 3,4.8 3,5.4 3,5.4 3.6,5.4 3.6,5.41 4.2,6 3.6,5.39 4.2,5.4 3.6,4.8 4.2,4.8 4.2,5.4 4.2,5.4 4.8,6 5.4,6 4.8,5.4 4.8,5.41 4.2,4.79 3.6,4.21 3.6,4.19 4.2,4.2 4.8,5.4 4.8,4.8 5.4,6 5.4,5.41 6,6 6,5.39 6,6.61 5.4,4.79 6,6 6.6,6 6.6,7.21 7.2,6.59 7.8,7.2 7.2,7.21 7.2,7.19 7.2,7.2 6,6 6,6 5.4,6 6,6 5.4,6.61 5.4,6.59 5.4,6 4.8,6.6 4.2,6 4.2,5.4 3.6,5.41 3.6,5.39 3,4.8 3,4.81 3.6,4.79 3,5.4 3,6 3.6,5.4 3,6 3,5.41 3,5.39 2.4,5.4 2.4,5.4 3,6 2.4,6.6 3,7.21 2.4,7.79 2.4,7.21 2.4,7.19 1.8,6.6 1.2,6.6 1.2,6.61 1.2,6.59 1.2,7.2 0.6,7.8 0.6,7.8 0.6,7.2 v 13.2 l -0.6,6.6 v 6.61 l -1.2,7.19 -1.2,7.2 -1.2,7.8 -1.2,7.2 -1.8,6.61 -1.8,6.59 -1.8,6 -2.4,6.6 -2.4,7.2 -3,7.2 -3,7.2 -3,6.6 -3.6,6.61 -3,6 -2.4,4.79 -3,5.4 -3,5.4 -3.6,5.41 -3.6,5.39 -3.6,5.4 -3.6,5.4 -3,4.81 -3.6,5.39 -3.6,4.2 -4.2,6 -4.8,6 -4.8,6 -4.8,6.6 -4.8,6 -4.8,5.4 -3.6,5.41 -3.6,4.19 -4.8,5.4 -4.2,4.8 -4.2,5.4 -4.2,4.21 -3,4.19 -3,3.6 -3.6,3.6 -3,4.2 -3,4.2 -3.6,3.6 -2.4,4.2 -3,3.6 -2.4,3.6 -2.4,4.21 -3,4.19 -2.4,4.2 -1.8,4.2 -1.8,3.6 -1.8,4.2 -1.8,4.2 -1.8,4.2 -1.8,4.8 -1.2,4.2 -0.6,3.6 -1.2,4.2 -0.6,4.2 -0.6,4.8 v 4.2 l -0.6,4.8 v 8.41 l 0.6,4.19 v 5.4 l 0.6,4.8 0.6,4.8 0.6,4.2 0.6,4.8 1.2,4.81 0.6,4.79 1.2,5.4 1.2,4.81 1.2,4.79 0.6,3 1.2,4.21 1.2,4.19 1.8,5.4 1.8,6.6 1.8,7.2 3,7.8 3,8.4 1.8,6.6 2.4,7.2 3,7.8 3,9 3,9.6 3.6,9.6 3,9.61 3,9.59 3,9.6 3,9 2.4,8.4 2.4,7.8 2.4,8.4 2.4,8.4 1.8,8.4 1.8,8.41 1.8,7.79 1.2,7.8 1.2,7.2 1.2,6.6 0.6,6.61 0.6,6 0.6,6 0.6,6 0.6,6.59 v 6.6 l 0.6,6.6 v 37.8 l -0.6,5.41 -0.6,6.59 -0.6,6 -0.6,6.6 -1.2,6.6 -1.2,6 -1.2,6 -1.2,6 -1.2,5.4 -1.8,6.6 -1.8,6.6 -2.4,7.8 -2.4,7.2 -3,7.2 -3,7.2 -3,6.6 -3,6 -3.6,6 -3.6,6 -4.2,6.61 -4.2,6.59 -4.8,6.6 -4.2,6 -4.8,5.4 -4.2,5.41 -4.2,4.19 -3.6,4.2 -4.2,4.2 -4.8,4.2 -4.8,4.8 -4.8,4.2 -4.8,4.21 -4.8,4.19 -4.8,3.6 -4.2,3.6 -4.8,3.61 -4.8,3.59 -5.4,3.6 -5.4,3.6 -6,3.6 -5.4,3.61 -6,3.59 -5.4,3.6 -5.4,3 -4.8,3 -5.4,3 -6,3 -6,3 -6.6,3 -7.2,3.6 -7.2,3 -7.8,3.6 -8.4,3 -7.8,3 -9,3 -6.6,2.4 -6.6,2.4 -7.8,2.4 -7.8,2.41 -9,2.39 -9,2.4 -9,3 -9.6,2.4 -9.6,2.4 -9.6,3 -9.6,2.41 -9,1.79 -9,2.4 -9,1.81 -8.4,2.39 -9,1.8 -9,1.81 -9.6,1.79 -9.6,2.4 -9,1.81 -9.6,1.79 -9,1.8 -8.4,1.8 -8.4,1.2 -7.2,1.8 -7.2,1.2 -6,1.2 -5.4,1.21 -8.4,1.19 -7.8,1.81 -7.2,1.79 -6,1.21 -5.4,1.19 -4.2,1.2 -3.6,1.2 -3.6,0.6 -4.2,1.2 -4.8,1.8 -4.8,1.2 -4.8,1.8 -4.2,1.2 -4.2,1.8 -4.2,1.2 -4.2,1.8 -4.2,2.4 -4.2,1.8 -3.6,2.4 -3.6,1.8 -3,2.41 -3.6,1.79 -3.6,3 -3.6,2.4 -3,3 -3,2.4 -2.4,3 -3,3 -3,3.6 -2.4,3.6 -2.4,3 -2.4,3.6 -2.4,3.61 -1.8,3.59 -2.4,4.2 -1.8,4.21 -1.8,4.19 -1.8,3.6 -1.8,4.21 -1.8,4.19 -1.8,4.81 -1.8,4.79 -1.2,4.21 -1.8,4.79 -1.2,4.21 -1.2,4.79 -1.8,4.8 -1.8,5.41 -1.2,4.79 -1.2,4.21 -1.8,4.79 -1.2,4.8 -1.8,4.8 -1.8,5.4 -1.8,4.8 -1.2,4.2 -1.8,4.8 -1.8,4.2 -2.4,4.8 -1.8,4.8 -2.4,4.2 -1.8,4.2 -1.8,3.6 -2.4,4.2 -2.4,4.2 -3,4.21 -2.4,3.59 -2.4,3.6 -3,3 -3,3 -3,3.6 -3.6,3 -3.6,3 -3,2.4 -3.6,2.4 -3.6,2.41 -3.6,2.39 -4.2,1.8 -4.2,2.4 -3.6,1.2 -3.6,1.8 -4.8,1.2 -4.2,1.8 -4.8,1.2 -4.8,1.21 -4.2,0.59 -4.2,0.6 -4.8,1.2 -5.4,0.61 -4.8,0.59 -4.8,0.6 h -4.8 l -3.6,0.6 h -13.8 l -6,-0.6 -7.2,-0.6 -7.2,-0.59 -8.4,-1.21 -6.6,-1.2 -7.2,-0.59 -7.8,-1.21 -8.4,-1.2 -9.6,-1.8 -9.6,-1.2 -9.6,-1.8 -9,-1.2 -9,-1.8 -9,-1.2 -7.8,-1.2 -7.2,-1.2 -8.4,-1.19 -7.8,-1.21 -7.8,-0.6 -7.8,-1.19 -7.2,-0.61 -7.2,-1.2 -6,-0.6 -6,-0.59 -5.4,-0.61 h -5.4 l -6.6,-0.6 -6.6,-0.6 -7.2,-0.6 -7.2,-0.59 -7.2,-0.61 h -7.2 l -6,-0.6 h -25.2 l -6.6,0.6 h -6.6 l -6,0.61 -6,0.59 -5.4,1.2 -5.4,0.6 -5.4,1.2 -6,1.2 -6,1.8 -5.4,1.8 -6,1.8 -5.4,1.81 -4.8,1.79 -4.8,1.8 -4.8,2.41 -5.4,3 -5.4,3 -5.4,3 -5.4,3 -4.8,3 -4.2,3.59 -4.8,3 -4.2,3.6 -4.8,4.2 -5.4,4.2 -4.8,4.2 -4.8,4.21 -4.8,4.19 -4.2,4.2 -4.2,4.2 -4.2,4.8 -4.8,4.8 -4.8,5.4 -5.4,5.41 -4.8,5.39 -4.2,4.8 -4.2,4.81 -3.6,4.19 -3.6,4.2 -3.6,4.2 -4.2,5.41 -4.8,5.39 -4.2,5.4 -4.8,6 -4.8,6 -5.4,6.6 -4.8,6.61 -4.2,4.79 -3.6,6 -4.8,5.4 -4.8,6.6 -4.8,6.6 -5.4,7.2 -6,7.2 -5.4,7.8 -6,7.2 -5.4,7.8 -6,7.2 -5.4,7.21 -5.4,6.59 -5.4,7.2 -6,6.6 -5.4,6.61 -6,7.19 -6.6,7.2 -6,7.8 -6.6,7.81 -7.2,7.79 -6.6,7.21 -7.2,7.79 -6.6,7.21 -6.6,7.19 -6.6,7.2 -6.6,6.61 -6,6.59 -6.6,6 -6.6,6.6 -6.6,6.6 -7.2,7.21 -7.2,7.19 -7.2,7.2 -7.8,7.2 -7.8,7.2 -7.8,7.21 -7.8,7.19 -7.8,6.6 -7.2,6.6 -6.6,6 -7.2,6 -7.2,6 -7.2,6 -7.8,6.61 -7.8,6.59 -7.8,6.6 -8.4,6.6 -9,6.6 -8.4,7.2 -9,6.6 -8.4,6.6 -8.4,6 -7.8,6 -7.8,6 -7.8,5.4 -7.8,5.4 -7.8,6 -8.4,5.41 -9,6 -9,6.59 -9,6 -9.6,6 -9.6,6.6 -9,6 -9.6,6 -9,5.4 -9,5.41 -8.4,5.39 -8.4,5.4 -8.4,4.8 -8.4,4.8 -9.6,5.4 -9,5.4 -9.6,5.4 -10.2,5.41 -10.2,6 -10.2,5.39 -10.2,5.4 -10.2,5.4 -9.6,4.81 -9.6,4.79 -9.6,4.8 -9,4.2 -7.8,4.21 -8.4,3.59 -8.4,4.2 -9,4.21 -9,4.19 -10.2,4.2 -10.2,4.2 -10.2,4.2 -10.8,4.21 -10.8,3.59 -10.8,4.2 -11.4,4.21 -11.4,3.59 -10.8,3.6 -11.4,3 -11.4,3.6 -9.6,2.4 -9.6,2.4 -10.2,3 -10.8,2.41 -11.4,2.39 -12,3 -12,2.4 -12.6,3 -13.2,2.4 -13.2,2.4 -13.2,2.41 -13.8,2.39 -13.2,2.4 -13.8,1.8 -13.2,2.41 -12.6,1.79 -13.2,1.21 -12,1.79 -12.6,1.21 -12,1.19 -12.6,1.2 -12.6,1.2 -12.6,0.6 -12.6,1.2 -13.8,0.61 -13.2,0.59 -14.4,0.6 h -13.8 l -14.4,0.6 h -15 l -14.4,-0.6 h -14.4 l -13.8,-0.6 -14.4,-0.59 -13.2,-0.61 -13.8,-0.6 -12.6,-1.2 -12.6,-0.59 -12.6,-1.21 z"
       style="fill:none;stroke:#000000;stroke-width:27;stroke-linecap:butt;stroke-linejoin:bevel;stroke-miterlimit:10;stroke-dasharray:none;stroke-opacity:1"
       transform="matrix(0.13333333,0,0,-0.13333333,0,634.66667)" />
  </g>
</svg>
