<?xml version="1.0" encoding="UTF-8" standalone="no"?>
<!-- Created with Inkscape (http://www.inkscape.org/) -->

<svg
   version="1.1"
   id="svg1"
   width="634.66669"
   height="624"
   viewBox="0 0 634.66669 624"
   sodipodi:docname="SSM_7Venn_15.svg"
   inkscape:version="1.3.2 (091e20e, 2023-11-25, custom)"
   xmlns:inkscape="http://www.inkscape.org/namespaces/inkscape"
   xmlns:sodipodi="http://sodipodi.sourceforge.net/DTD/sodipodi-0.dtd"
   xmlns="http://www.w3.org/2000/svg"
   xmlns:svg="http://www.w3.org/2000/svg">
  <defs
     id="defs1" />
  <sodipodi:namedview
     id="namedview1"
     pagecolor="#ffffff"
     bordercolor="#111111"
     borderopacity="1"
     inkscape:showpageshadow="0"
     inkscape:pageopacity="0"
     inkscape:pagecheckerboard="1"
     inkscape:deskcolor="#d1d1d1"
     inkscape:zoom="2.213141"
     inkscape:cx="317.42216"
     inkscape:cy="312"
     inkscape:window-width="3840"
     inkscape:window-height="1577"
     inkscape:window-x="-8"
     inkscape:window-y="-8"
     inkscape:window-maximized="1"
     inkscape:current-layer="g1">
    <inkscape:page
       x="0"
       y="0"
       inkscape:label="1"
       id="page1"
       width="634.66669"
       height="624"
       margin="0"
       bleed="0" />
  </sodipodi:namedview>
  <g
     id="g1"
     inkscape:groupmode="layer"
     inkscape:label="1">
    <path
       id="path1"
       d="m 3805.4,623.801 12,4.199 12,4.199 12,4.199 12,4.801 12,5.403 12.6,5.398 13.2,5.398 12.6,6 13.2,6.602 13.2,6 12.6,6.602 13.2,6.597 12,7.199 12.6,6.602 11.4,6.602 11.4,7.199 11.4,6.597 10.8,6.602 10.2,7.199 10.2,6.602 10.2,7.199 10.2,7.199 10.2,7.801 10.2,7.801 10.2,8.398 10.2,8.403 10.8,9 10.8,9 10.8,9.597 10.2,9.602 10.8,9.597 10.2,10.204 9.6,9.597 9.6,10.199 9.6,9.602 8.4,9.602 9,9.597 7.8,9.602 8.4,9.597 7.2,9.602 7.8,9.602 7.2,9.597 7.8,10.199 7.2,10.204 7.8,11.398 7.2,10.801 7.8,12 7.2,11.399 7.2,12.6 7.2,12 7.2,12.6 7.2,12.6 6,12 6.6,12.6 6,12 5.4,12 5.4,12 5.4,11.4 4.8,11.4 4.8,11.4 4.2,11.4 4.2,11.4 4.2,12 4.2,12.6 4.2,12.6 4.2,12.6 3.6,13.8 4.2,13.8 3.6,13.8 3.6,13.8 3,14.4 3,13.8 3,13.8 3,13.8 2.4,13.8 2.4,13.2 1.8,12.6 1.8,12.6 1.8,12.6 1.2,12.6 1.2,12 1.2,12.6 1.2,13.2 0.6,13.2 1.2,13.2 0.6,13.8 v 13.8 l 0.6,14.4 v 29.4 l -0.6,14.4 v 15 l -0.6,14.4 -0.6,13.8 -0.6,13.8 -1.2,13.2 -1.2,13.2 -0.6,13.2 -1.8,12.6 -1.2,12 -1.2,12.6 -1.8,12.6 -1.8,12.6 -1.8,12.6 -2.4,13.2 -1.8,13.2 -2.4,13.8 -2.4,13.2 -3,13.8 -3,13.8 -2.4,13.2 -3,13.2 -3,12.6 -3,12 -3,12 -3,11.4 -3,10.8 -3,10.2 -2.4,10.2 -3,9.6 -3.6,11.4 -4.2,11.4 -3.6,11.4 -4.2,10.8 -4.2,11.4 -4.8,11.4 -4.2,10.8 -4.8,10.8 -4.8,10.8 -4.2,10.2 -4.8,9.6 -4.8,9.6 -4.2,9 -4.2,8.4 -4.8,8.4 -4.2,7.8 -4.2,7.8 -4.2,8.4 -4.8,8.4 -4.8,8.4 -4.8,8.4 -4.8,9 -5.4,9 -5.4,9 -5.4,9 -4.8,9 -5.4,8.4 -5.4,8.4 -4.8,8.4 -4.8,7.8 -5.4,7.2 -4.2,7.8 -6,8.4 -5.4,8.4 -6,9 -6,9 -6.6,9 -6.6,9.6 -6.6,9.6 -6.6,9 -7.2,9.6 -6.6,8.4 -6,9 -6.6,7.8 -6,8.4 -6,7.8 -6,7.2 -6.6,7.8 -6,7.8 -6.6,7.8 -6.6,8.4 -6.6,7.8 -6.6,7.8 -6.6,7.8 -6,7.2 -6,6.6 -5.4,6.6 -4.8,5.4 -4.2,5.4 -4.2,4.8 -6,7.2 -5.4,6.6 -4.8,6 -4.2,5.4 -3.6,4.2 -3,4.2 -2.4,3.6 -1.8,3 -3,3.6 -3,4.2 -3,4.8 -3,4.2 -3,4.8 -1.8,3.6 -2.4,4.2 -2.4,4.2 -2.4,4.8 -1.8,4.2 -1.8,4.2 -1.2,4.2 -1.8,4.2 -1.2,4.2 -1.2,4.8 -0.6,4.2 -0.6,4.2 -0.6,4.2 -0.6,4.2 v 13.8 l 0.6,4.2 0.6,4.2 0.6,4.2 1.2,4.8 0.6,4.8 1.8,4.8 1.2,4.2 1.2,4.8 1.8,4.2 1.8,4.8 1.8,4.8 2.4,5.4 1.8,4.8 2.4,4.2 1.2,3.6 1.8,3.6 2.4,4.2 2.4,5.4 3.6,6 3.6,6.6 3.6,7.2 4.8,8.4 3.6,6.6 4.2,6.6 4.2,7.8 4.8,8.4 4.8,9 4.8,9 5.4,9 4.8,9 4.8,8.4 4.2,7.8 3.6,7.2 3.6,6.6 4.2,8.4 4.2,7.8 3,7.2 3,6 2.4,6 1.8,4.8 1.2,4.2 1.2,3.6 1.2,4.8 1.8,5.4 1.2,5.4 1.2,6 1.2,5.4 1.2,4.8 0.6,4.8 0.6,4.8 0.6,5.4 v 19.8 l -0.6,4.8 -0.6,5.4 -1.2,4.8 -0.6,4.8 -1.2,4.8 -1.2,4.2 -1.8,4.2 -2.4,4.8 -1.8,4.8 -2.4,4.8 -2.4,3.6 -2.4,4.2 -3,4.2 -3,4.2 -3.6,4.8 -3.6,3.6 -3,3.6 -3.6,3.6 -3.6,4.2 -4.2,3.6 -4.2,4.2 -4.2,3.6 -4.2,3.6 -3,2.4 -3,2.4 -3.6,3 -4.2,3 -4.2,3 -4.2,3.6 -4.2,3 -4.8,3.6 -3.6,3 -4.2,3 -4.8,3.6 -4.8,3.6 -5.4,3.6 -5.4,4.2 -5.4,3.6 -5.4,4.2 -5.4,3.6 -4.8,3.6 -4.8,3.6 -4.8,3.6 -4.8,4.2 -5.4,4.2 -5.4,4.2 -5.4,4.2 -4.8,3.6 -4.8,4.2 -4.8,3.6 -4.2,4.2 -5.4,4.2 -5.4,4.8 -5.4,5.4 -5.4,5.4 -5.4,5.4 -5.4,5.4 -4.8,5.4 -4.2,4.8 -4.2,5.4 -4.2,4.8 -4.2,6 -4.2,6 -3.6,6 -3.6,6 -3.6,5.4 -3,6 -3,5.4 -2.4,6 -3,6 -2.4,6.6 -2.4,7.2 -2.4,6.6 -1.8,6.6 -1.8,6 -1.8,6.6 -1.8,6.6 -1.2,7.2 -1.2,7.8 -1.2,7.2 -1.2,7.8 -1.2,7.2 -0.6,7.2 -0.6,5.4 -0.6,6 -0.6,6 v 6.6 l -0.6,6.6 -0.6,7.2 v 6.6 l -0.6,6.6 v 12 l -0.6,6 v 13.2 l -0.6,7.8 v 25.2 l 0.6,9.6 v 18.6 l 0.6,7.8 v 7.8 l 0.6,8.4 v 9 l 0.6,9.6 v 10.8 l 0.6,10.2 v 11.4 l 0.6,10.8 v 10.8 l 0.6,10.8 v 57.6 l -0.6,9.6 v 10.2 l -0.6,10.2 -0.6,10.2 -0.6,10.8 -0.6,10.8 -0.6,10.8 -1.2,10.2 -1.2,10.2 -1.2,10.2 -1.2,9.6 -1.2,10.2 -1.2,9.6 -1.8,9.6 -1.8,9.6 -2.4,10.2 -1.8,10.8 -2.4,10.8 -3,11.4 -3,11.4 -3,12 -3,12 -3,11.4 -3.6,11.4 -3.6,11.4 -3,10.8 -3.6,10.2 -3.6,10.2 -3.6,10.2 -3.6,10.2 -3.6,9.6 -4.2,10.8 -4.2,10.2 -4.2,10.8 -4.8,11.4 -4.8,10.8 -5.4,11.4 -5.4,11.4 -4.8,10.8 -5.4,10.8 -5.4,10.2 -5.4,10.2 -5.4,9.6 -4.8,9 -5.4,9 -5.4,9 -5.4,9 -6,9.6 -6.6,9 -6,9.6 -7.2,9.6 -6.6,9.6 -7.2,9.6 -7.8,9.6 -7.2,9.6 -7.8,9 -7.2,8.4 -7.2,8.4 -7.2,7.8 -7.2,7.8 -7.2,7.2 -7.2,7.2 -7.2,7.2 -7.8,7.2 -8.4,7.2 -8.4,7.2 -8.4,7.8 -9.6,7.2 -9,7.2 -9.6,7.2 -9.6,6.6 -9,6.6 -9.6,6.6 -9,5.4 -9,6 -8.4,4.8 -9,5.4 -9,4.8 -9,4.8 -9,4.8 -9.6,4.8 -10.2,4.2 -10.8,4.8 -10.8,4.8 -10.8,4.2 -10.8,4.2 -11.4,4.2 -10.8,3.6 -10.8,3.6 -10.2,3 -10.2,3 -10.2,2.4 -9.6,2.4 -10.2,2.4 -10.2,2.4 -10.2,1.8 -10.8,1.8 -11.4,1.8 -11.4,1.8 -12,1.2 -12,1.8 -12,1.2 -12,0.6 -11.4,1.2 -11.4,0.6 h -11.4 l -10.8,0.6 h -31.8 l -10.2,-0.6 -11.4,-0.6 -10.8,-0.6 -12,-0.6 -12,-1.2 -12,-1.2 -12,-1.2 -12.6,-1.8 -12,-1.2 -12,-1.8 -11.4,-1.8 -11.4,-1.8 -10.8,-2.4 -10.8,-1.8 -10.2,-1.8 -10.2,-2.4 -10.8,-2.4 -10.8,-2.4 -10.8,-3 -11.4,-2.4 -11.4,-3 -12,-3.6 -11.4,-3.6 -12,-3 -10.8,-3.6 -11.4,-3.6 -10.8,-3.6 -10.2,-3.6 -9.6,-3.6 -9.6,-3.6 -9,-3.6 -9,-3.6 -9,-4.2 -9,-4.2 -9,-4.2 -9.6,-4.2 -9.6,-4.8 -9.6,-4.8 -9,-4.8 -9.6,-4.8 -9.6,-4.8 -8.4,-5.4 -9,-4.8 -8.4,-4.8 -7.8,-4.2 -7.8,-4.8 -7.8,-4.8 -8.4,-4.8 -9,-5.4 -8.4,-6 -9,-5.4 -9.6,-6 -9,-6 -9,-6 -9,-6 -9,-5.4 -7.8,-5.4 -7.8,-4.8 -7.2,-4.8 -6.6,-4.2 -6,-4.2 -8.4,-5.4 -7.8,-4.8 -7.8,-4.8 -7.8,-4.8 -7.2,-4.2 -6.6,-4.2 -6.6,-3.6 -6,-3.6 -6,-3 -4.8,-3 -5.4,-3 -5.4,-3 -6,-3 -5.4,-3.6 -6,-3 -6,-3 -6,-3 -5.4,-3 -5.4,-2.4 -4.8,-2.4 -6.6,-3 -6.6,-3 -7.2,-3 -7.2,-3 -7.2,-3 -7.2,-2.4 -6,-2.4 -6.6,-1.8 -6,-1.8 -6.6,-1.2 -7.2,-1.8 -7.2,-1.2 -6.6,-1.2 -7.2,-1.2 -6.6,-0.6 h -6 l -6.6,-0.6 h -21 l -7.2,0.6 -7.2,0.6 -6.6,1.2 -6,0.6 -6.6,1.2 -7.2,1.2 -7.2,1.8 -7.2,1.8 -7.8,1.8 -7.2,1.8 -7.2,2.4 -6.6,1.8 -5.4,1.8 -5.4,1.8 -6,2.4 -6,2.4 -6,1.8 -6.6,2.4 -6,2.4 -6,2.4 -6,2.4 -5.4,2.4 -5.4,2.4 -6,2.4 -6,2.4 -6,2.4 -6,3 -6.6,2.4 -5.4,2.4 -5.4,2.4 -4.8,1.8 -4.8,1.8 -4.8,2.4 -5.4,1.8 -4.8,1.8 -4.8,1.8 -4.8,1.8 -4.2,1.8 -4.2,1.2 -3.6,1.2 -4.8,1.8 -5.4,1.8 -5.4,1.2 -6,1.8 -5.4,1.2 -4.8,1.2 -4.8,0.6 -4.8,0.6 -5.4,1.2 h -5.4 l -5.4,0.6 h -9 l -5.4,-0.6 -4.8,-0.6 -5.4,-0.6 -4.8,-0.6 -4.2,-1.2 -4.8,-1.2 -4.2,-1.8 -4.8,-1.8 -4.8,-2.4 -4.8,-1.8 -3.6,-2.4 -4.2,-2.4 -4.2,-2.4 -4.8,-3 -4.2,-3.6 -4.2,-3 -3.6,-3 -4.2,-3.6 -3.6,-3.6 -4.2,-4.2 -4.2,-4.2 -3.6,-3.6 -3.6,-4.2 -2.4,-3 -3,-3 -3,-4.2 -3.6,-4.8 -3.6,-5.4 -4.8,-6.6 -4.2,-7.2 -5.4,-7.8 -3.6,-6.6 -4.2,-6.6 -4.2,-7.8 -4.8,-8.4 -4.8,-9 -5.4,-9 -4.8,-9 -5.4,-9 -4.8,-8.4 -4.2,-7.8 -3.6,-6.6 -3.6,-6.6 -4.8,-8.4 -4.2,-7.2 -4.2,-6.6 -3.6,-6 -3,-4.8 -3,-4.2 -1.8,-3 -2.4,-3 -3,-4.2 -3,-4.2 -3,-4.8 -3,-4.2 -3.6,-4.2 -2.4,-3.6 -3,-3 -3.6,-3.6 -3.6,-4.2 -3.6,-3 -3,-3.6 -3.6,-2.4 -3,-3 -3.6,-2.4 -4.2,-3 -3.6,-2.4 -4.2,-1.8 -3.6,-1.8 -3.6,-1.8 -4.2,-1.8 -4.2,-1.8 -4.8,-1.2 -4.2,-1.2 -4.2,-0.6 -4.2,-1.2 -4.2,-0.6 -4.8,-0.6 h -5.4 l -4.2,-0.6 H 1598 l -5.4,0.6 h -5.4 l -4.8,0.6 h -4.2 l -3.6,0.6 h -5.4 l -5.4,0.6 -7.2,1.2 -7.2,1.2 -8.4,1.2 -9.6,1.2 -6,1.2 -6.6,0.6 -7.2,1.2 -8.4,1.2 -9,1.8 -9,1.2 -10.2,1.8 -10.2,1.2 -10.2,1.8 -10.2,1.8 -10.2,1.2 -10.2,1.2 -9.6,1.2 -9.6,1.8 -9.6,0.6 -10.2,1.2 -10.2,1.2 -10.8,1.2 -10.8,1.2 -11.4,0.6 -11.4,1.2 -12,0.6 -11.4,1.2 -11.4,0.6 -10.8,0.6 -10.2,0.6 -10.8,0.6 h -9.6 l -10.2,0.6 h -21 l -10.8,0.6 H 1169 l -10.2,-0.6 h -26.4 l -7.2,-0.6 h -6.6 l -10.2,-0.6 -9,-0.6 -8.4,-0.6 -7.2,-1.2 -6.6,-0.6 -5.4,-1.2 -4.8,-0.6 -3.6,-1.2 -6,-1.2 -5.4,-1.8 -6,-1.8 -6,-1.8 -6,-1.8 -4.8,-1.8 -4.8,-1.8 -5.4,-2.4 -5.4,-2.4 -5.4,-2.4 -4.8,-2.4 -4.798,-3 -4.204,-2.4 -4.199,-3 -4.801,-3.6 -4.796,-3.6 -3.602,-3.6 -3.602,-3 -3.597,-3.6 -3.602,-4.2 -4.199,-4.2 -3,-4.8 -3.602,-4.2 -2.398,-4.2 -3,-4.8 -3,-4.8 -2.398,-4.8 -2.403,-5.4 -2.398,-5.4 -2.403,-4.8 -1.796,-5.4 -1.801,-5.4 -2.403,-6 -1.796,-6 -1.801,-5.4 -1.199,-5.4 -1.204,-4.2 -1.199,-4.8 -1.199,-5.4 -1.199,-6 -1.199,-7.2 -0.602,-8.4 -1.199,-9 -0.602,-10.2 -0.597,-7.8 -0.602,-9 -0.602,-9 -0.597,-10.2 -0.602,-10.8 -0.597,-11.4 -0.602,-11.4 -0.602,-10.8 -0.597,-10.2 -0.602,-9 v -9 l -0.597,-7.2 -0.602,-10.2 -0.602,-9.6 -0.597,-7.8 -0.602,-7.2 -0.597,-6.6 -0.602,-4.8 -0.602,-4.8 -0.597,-3.6 -0.602,-5.4 -0.597,-6 -1.204,-5.4 -1.199,-6 -1.199,-5.4 -1.199,-4.8 -1.199,-4.8 -1.204,-5.4 -1.796,-5.4 -1.801,-4.8 -1.199,-5.4 -1.801,-4.2 -1.801,-4.2 -2.398,-4.2 -2.403,-4.8 -2.398,-4.8 -2.403,-4.2 -2.398,-3.6 -3,-3.6 -3,-4.2 -3,-3.6 -3.602,-4.2 -3.597,-3.6 -3.602,-3 -3.597,-3 -3.602,-3.6 -4.199,-3 -4.801,-3.6 -4.199,-3 -4.199,-2.4 -4.204,-3 -4.796,-3 -4.801,-3 -5.403,-3 -4.796,-2.4 -4.801,-3 -3.602,-1.8 -3.597,-1.8 -4.204,-2.4 -4.796,-2.4 -4.801,-2.4 -4.801,-2.4 -5.398,-2.4 -4.801,-3 -4.801,-2.4 -4.801,-2.4 -5.398,-3 -5.403,-3 -6,-3.6 -6.597,-3.6 -6,-3.6 -6,-3 -5.403,-3.6 -6,-3.6 -5.398,-3 -5.398,-3.6 -6,-4.2 -6,-3.6 -6,-4.8 -6,-4.2 -6,-4.2 -5.403,-4.2 -4.801,-3.6 -4.796,-4.2 -4.801,-4.2 -4.801,-4.2 -4.801,-4.2 -5.398,-4.8 -4.801,-5.4 -4.801,-4.8 -4.801,-4.8 -4.199,-4.8 -4.199,-4.8 -3.602,-4.8 -3.597,-4.8 -3.602,-4.8 -3.597,-5.4 -3.602,-5.4 -3.602,-6 -3.597,-5.4 -3,-6 -3,-5.4 -3,-5.4 -2.403,-5.4 -1.796,-5.4 -2.403,-5.4 -2.398,-6 -1.801,-6 -1.801,-6.6 -1.801,-6.6 -1.796,-6 -1.204,-6.6 -1.199,-6 -1.199,-5.4 -1.199,-6 -0.602,-6 -0.597,-6.6 -0.602,-7.2 -0.602,-6.6 -0.597,-7.2 v -19.8 l 0.597,-6.6 v -6 l 0.602,-6.6 0.602,-6.6 0.597,-7.2 0.602,-7.2 1.199,-7.2 1.199,-7.2 0.602,-7.2 1.199,-6.6 1.199,-6 1.199,-6.6 1.801,-6.6 1.199,-7.2 1.801,-7.8 2.403,-7.8 2.398,-8.4 3,-9 3,-9 3,-9 3.602,-9 3,-7.2 3,-7.2 3,-7.8 3.597,-8.4 4.199,-9 4.204,-9.6 4.199,-9.6 4.801,-9.6 4.796,-10.2 4.204,-9.6 4.796,-9 4.801,-9.6 4.199,-9 4.801,-8.4 4.199,-9 4.801,-8.4 4.801,-9 4.801,-9.6 5.398,-9.6 5.403,-9.6 5.398,-9.6 6,-9.6 5.398,-9.6 5.403,-9.6 5.398,-9 5.403,-8.4 4.796,-7.8 5.403,-8.4 4.801,-7.8 5.398,-8.4 5.398,-7.8 6,-8.4 5.403,-9 6.597,-9 6,-9 6.602,-8.4 6,-9 6,-8.4 6,-7.8 6,-7.8 6,-7.8 5.398,-7.2 5.403,-7.2 6,-7.2 6,-7.2 6.597,-7.8 6,-7.8 7.204,-8.4 6.597,-7.8 6.602,-7.8 7.199,-7.8 6.602,-7.8 6.597,-7.2 6,-7.2 6.602,-6.6 6,-6.6 6,-6 6,-6.6 6.597,-6.6 7.204,-7.2 6.597,-6.6 7.199,-7.2 7.204,-7.2 7.796,-7.2 7.204,-6.6 7.199,-6.6 6.597,-6.6 7.204,-6 6.597,-6 6,-5.4 6.602,-6 6.597,-5.4 7.202,-6 7.2,-6 7.2,-6 7.8,-6 7.2,-6.6 7.8,-6 7.8,-6 7.8,-5.4 7.2,-5.4 7.2,-5.4 6.6,-4.8 6.6,-4.8 7.2,-5.4 6.6,-4.8 7.2,-4.8 7.8,-4.8 7.8,-5.4 8.4,-5.4 8.4,-6 8.4,-5.4 9,-5.4 8.4,-5.4 8.4,-6 8.4,-4.8 8.4,-5.4 8.4,-5.4 7.8,-4.8 7.8,-4.8 7.8,-5.4 8.4,-5.4 9,-5.4 9.6,-6 9.6,-6 9.6,-6 9.6,-6 9.6,-6 9.6,-5.4 9.6,-6 9,-5.4 9,-5.4 8.4,-4.8 8.4,-4.8 8.4,-4.8 8.4,-4.8 9,-4.8 9,-5.4 9,-4.8 9,-4.8 9,-5.4 9.6,-4.8 9,-4.8 9,-5.4 9,-4.2 8.4,-4.8 7.8,-4.2 7.8,-4.2 7.8,-4.2 7.2,-3.6 7.8,-4.8 8.4,-4.2 8.4,-4.8 8.4,-4.8 8.4,-4.8 8.4,-4.8 8.4,-4.8 8.4,-5.4 7.8,-4.8 7.8,-4.8 7.2,-4.8 6.6,-4.2 6.6,-4.8 6,-4.2 6.6,-5.4 7.2,-4.8 6.6,-6 7.2,-6 6.6,-6 6.6,-6.6 6.6,-6.6 6,-6 6,-6.6 5.4,-6.6 4.8,-6 4.2,-6 4.2,-6.6 4.2,-6.6 4.2,-7.2 4.2,-7.8 4.2,-7.8 3.6,-8.4 3.6,-8.4 3.6,-9 3,-8.4 3,-8.4 2.4,-8.4 3,-8.4 1.8,-7.2 1.8,-7.2 1.8,-8.4 1.8,-8.4 2.4,-8.4 1.8,-9.6 1.8,-9 1.8,-10.2 1.8,-9.6 1.2,-9.6 1.8,-9.6 1.2,-9 1.8,-9.6 1.2,-9 1.2,-7.8 1.2,-8.4 1.2,-9 1.2,-9 1.2,-9.6 1.8,-9.6 1.2,-10.2 1.8,-10.2 1.2,-10.8 1.8,-10.2 1.2,-10.8 1.8,-10.2 1.8,-9.6 1.2,-10.2 1.8,-9.6 1.8,-9 1.8,-9.6 1.8,-10.2 1.8,-10.2 1.8,-10.2 2.4,-10.8 1.8,-10.8 2.4,-11.4 2.4,-11.4 2.4,-10.8 1.8,-11.4 2.4,-10.2 2.4,-10.2 1.8,-10.2 2.4,-9.6 1.8,-9 1.8,-8.4 1.8,-9.6 2.4,-9.6 1.8,-9.6 2.4,-10.2 2.4,-10.2 1.8,-9.6 2.4,-10.2 2.4,-9.6 2.4,-9.6 1.8,-9.6 2.4,-9 2.4,-8.4 1.8,-8.4 2.4,-7.8 2.4,-7.8 1.8,-8.4 3,-8.4 2.4,-9 3,-9 2.4,-9 3.6,-9.6 3,-9.6 3,-9 3,-9 3,-9 3.6,-8.4 3,-7.8 3,-8.4 3,-7.8 3,-8.4 3.6,-8.4 3.6,-8.4 3.6,-9 4.2,-9.6 4.2,-9 3.6,-9.6 4.2,-9 4.2,-9 4.2,-9 4.2,-8.4 3.6,-7.8 4.2,-7.8 3.6,-8.399 4.2,-7.801 4.8,-8.398 4.2,-9 4.8,-8.403 5.4,-9 4.8,-9.597 5.4,-9 4.8,-9 5.4,-9 4.8,-8.403 5.4,-8.398 4.8,-7.801 4.8,-7.801 4.8,-7.801 4.8,-7.796 5.4,-8.403 5.4,-8.398 6,-8.403 6,-9 6,-9 6,-9 6.6,-9 6,-8.398 6,-8.398 6,-7.801 5.4,-7.801 6,-7.801 5.4,-7.199 6,-7.801 6.6,-7.801 6.6,-8.398 6.6,-8.398 7.2,-8.403 7.2,-8.398 7.2,-8.403 7.2,-9 7.2,-7.796 6.6,-7.801 7.2,-7.801 6.6,-7.199 6.6,-7.199 6.6,-7.204 6.6,-7.796 7.2,-7.204 7.2,-7.796 7.8,-7.204 7.2,-7.796 7.8,-7.801 7.8,-7.801 7.2,-7.199 7.2,-6.602 6.6,-6 6,-6 6,-5.398 6,-4.801 7.2,-6.602 7.2,-6 7.2,-6 7.2,-5.398 7.2,-5.398 7.2,-4.801 6.6,-4.801 6,-3.602 5.4,-3.597 6,-3.602 5.4,-3 6,-3.597 6,-3.602 6,-3 6.6,-3.602 6.6,-3.597 6.6,-3 6,-3 6,-2.403 5.4,-2.398 6,-2.398 6,-2.403 6,-2.398 6.6,-2.403 6.6,-1.796 6.6,-2.403 6.6,-1.801 6.6,-1.199 6,-1.801 5.4,-1.199 6,-0.597 6,-1.204 6.6,-0.597 6.6,-0.602 6.6,-0.597 6.6,-0.602 h 19.2 l 6,0.602 h 5.4 l 6,1.199 6,0.597 6.6,1.204 6.6,1.199 6.6,1.199 6.6,1.801 6,1.199 6,1.801 6,1.801 5.4,1.796 6,2.403 6,2.398 6,2.403 6.6,3 6,3 6.6,3 6,3 5.4,3 5.4,3 5.4,3.597 5.4,3 6,3.602 6,4.199 6,4.199 6,4.199 6,4.204 5.4,4.199 5.4,3.597 4.8,4.204 5.4,4.199 4.8,4.199 5.4,4.199 5.4,4.801 5.4,4.199 5.4,4.801 4.8,4.199 4.8,4.199 4.2,3.602 3.6,3.602 4.8,3.597 4.2,4.199 4.2,3.602 3.6,3.602 4.2,3.597 3.6,3 3,3 3,2.403 3.6,3.597 4.8,3.602 4.2,4.199 4.8,3.602 4.2,3.597 3.6,3 4.2,3 4.2,3 4.8,3 4.8,2.403 4.2,3 4.2,1.796 4.2,2.403 4.8,1.801 4.8,2.398 4.8,1.801 4.8,1.199 4.2,1.199 4.8,1.199 4.8,1.204 4.8,0.597 5.4,0.602 4.8,0.597 h 4.8 l 4.2,0.602 5.4,-0.602 h 5.4 l 5.4,-0.597 h 5.4 l 5.4,-0.602 4.8,-1.199 5.4,-0.602 6,-1.199 5.4,-1.199 6,-1.199 4.8,-0.602 4.2,-1.199 4.2,-1.199 5.4,-1.199 6,-1.801 7.2,-1.801 7.8,-2.398 8.4,-2.403 10.2,-3 6,-1.801 7.2,-2.398 7.2,-2.398 8.4,-2.403 9,-2.398 9.6,-3 10.2,-3.602 10.8,-3 10.2,-3 10.8,-3 10.8,-3 10.2,-3 10.2,-3 10.2,-3 8.4,-2.398 9,-2.403 9.6,-1.796 9.6,-2.403 10.2,-2.398 10.2,-2.403 11.4,-2.398 11.4,-2.398 11.4,-1.801 12,-1.801 11.4,-1.801 12,-1.801 12,-1.796 12,-1.204 11.4,-1.199 12.6,-0.597 9.6,-1.204 10.2,-0.597 h 10.8 l 11.4,-0.602 12,-0.597 h 64.8 l 13.8,0.597 h 13.8 l 14.4,0.602 13.2,0.597 13.8,1.204 13.2,0.597 12.6,1.199 13.2,1.204 12.6,1.199 12,1.199 12.6,1.199 12.6,1.801 12.6,1.801 13.2,1.801 13.2,2.398 13.2,1.801 13.8,3 14.4,2.398 14.4,3 13.8,3 14.4,3 14.4,3.602 13.8,3.597 13.8,3.602 13.2,3.602 12.6,3.597 12.6,3.602 12.6,3.597 12,4.204 z"
       style="fill:none;stroke:#000000;stroke-width:27;stroke-linecap:butt;stroke-linejoin:bevel;stroke-miterlimit:10;stroke-dasharray:none;stroke-opacity:1"
       transform="matrix(0.13333333,0,0,-0.13333333,0,624)" />
    <path
       id="path2"
       d="m 3800,4205.8 -6.6,10.8 -6.6,10.2 -7.2,10.8 -7.2,10.8 -7.8,10.8 -8.4,11.4 -8.4,10.8 -8.4,11.4 -9,11.4 -9,11.4 -9.6,10.8 -9,10.8 -9.6,10.8 -9,10.2 -9.6,10.2 -9,9.6 -9,9 -9,9 -9,9 -9,8.4 -9,7.8 -9.6,8.4 -9.6,8.4 -9.6,8.4 -10.2,7.8 -10.8,8.4 -10.8,8.4 -11.4,8.4 -12,8.4 -11.4,7.8 -12,8.4 -12,7.8 -12,7.2 -11.4,7.2 -12,7.2 -11.4,6 -11.4,6.6 -10.8,6 -10.8,5.4 -11.4,5.4 -10.8,5.4 -11.4,4.8 -11.4,4.8 -12,5.4 -12,4.8 -12.6,4.8 -13.2,4.8 -13.2,4.8 -13.2,4.2 -13.8,4.2 -13.8,4.2 -13.8,4.2 -13.2,3.6 -13.8,3 -12.6,3.6 -13.2,2.4 -12.6,3 -12.6,2.4 -12,1.8 -12,2.4 -12.6,1.8 -12,1.2 -12.6,1.8 -13.2,1.2 -13.2,1.2 -13.2,1.2 -14.4,0.6 -13.8,0.6 -14.4,0.6 H 3023 l -15,0.6 -14.4,-0.6 h -13.8 l -14.4,-0.6 -13.2,-0.6 -13.8,-0.6 -13.2,-1.2 -12.6,-0.6 -12.6,-1.2 -12,-1.8 -12.6,-1.2 -12.6,-1.8 -12.6,-1.8 -13.2,-2.4 -13.2,-1.8 -13.2,-2.4 -13.8,-3 -14.4,-3 -13.8,-3 -14.4,-3.6 -14.4,-3 -13.8,-3.6 -13.8,-3.6 -13.8,-4.2 -13.2,-3.6 -12.6,-3.6 -12.6,-4.2 -12.6,-3.6 -12,-4.2 -11.4,-4.2 -12,-4.2 -12,-4.2 -11.4,-4.8 -12.6,-4.2 -12,-5.4 -12.6,-4.8 -12.6,-5.4 -12.6,-5.4 -13.2,-5.4 -12.6,-6 -12,-5.4 -12.6,-6 -11.4,-5.4 -11.4,-6 -10.8,-5.4 -10.8,-5.4 -9.6,-5.4 -9.6,-4.8 -9,-5.4 -9,-4.8 -10.2,-6 -10.2,-6.6 -10.2,-6 -10.2,-6.6 -9.6,-6.6 -10.2,-6.6 -9.6,-7.2 -9.6,-6.6 -9,-7.2 -9,-6.6 -8.4,-6.6 -8.4,-6.6 -7.8,-6.6 -7.2,-6 -7.2,-6 -6.6,-6 -7.2,-6 -6.6,-6 -7.2,-6.6 -7.2,-6 -7.2,-7.2 -7.8,-6.6 -7.2,-7.2 -7.8,-7.2 -7.8,-7.2 -7.2,-7.2 -7.2,-7.2 -7.2,-6.6 -6.6,-6.6 -6.6,-6.6 -6,-6.6 -6,-6.6 -7.2,-7.2 -7.2,-7.2 -7.2,-7.8 -7.2,-7.8 -7.8,-8.4 -7.8,-8.4 -7.8,-9 -7.2,-8.4 -7.8,-9 -7.2,-8.4 -6.6,-8.4 -6.6,-7.8 -6.6,-7.8 -6,-7.2 -6.6,-7.8 -6,-7.8 -6,-7.8 -6.6,-8.4 -6,-8.4 -6.6,-7.8 -6,-8.4 -6.6,-7.8 -5.4,-7.8 -5.4,-7.2 -4.8,-6.6 -4.8,-6 -4.2,-5.4 -3.6,-4.8 -5.4,-7.8 -5.4,-6.6 -4.8,-6 -4.2,-5.4 -3.6,-4.2 -3,-4.2 -3,-3 -2.4,-2.4 -3,-3.6 -3.6,-4.2 -4.2,-3.6 -3.6,-4.2 -3.6,-3.6 -3,-3 -3.6,-3 -3.6,-3 -4.2,-3.6 -3.6,-3 -4.2,-2.4 -3,-2.4 -4.2,-2.4 -3.6,-1.8 -4.2,-2.4 -4.2,-1.8 -4.2,-1.8 -3.6,-1.2 -4.2,-1.2 -4.2,-1.2 -4.8,-1.2 -4.2,-0.6 -4.8,-0.6 h -4.2 l -4.2,-0.6 h -14.4 l -4.8,0.6 h -4.2 l -4.8,0.6 -4.8,0.6 -5.4,1.2 -5.4,0.6 -5.4,1.2 -4.2,1.2 -4.2,0.6 -3.6,0.6 -4.8,1.2 -6,1.2 -6.6,1.8 -7.2,2.4 -8.4,1.8 -9,3 -7.2,1.8 -7.8,2.4 -8.4,2.4 -9,3 -9.6,2.4 -10.2,3 -10.2,3 -9.6,3 -9.6,2.4 -8.4,3 -7.8,1.8 -6.6,1.8 -9.6,2.4 -8.4,2.4 -7.8,1.8 -6.6,1.2 -6,1.2 -4.8,0.6 h -4.2 l -4.2,0.6 -4.8,0.6 H 1538 l -5.4,-0.6 -4.8,-0.6 -5.4,-0.6 -5.4,-0.6 -4.8,-1.2 -4.8,-1.2 -4.2,-1.2 -4.8,-1.8 -4.8,-1.8 -4.8,-1.8 -4.2,-2.4 -4.2,-2.4 -3.6,-2.4 -4.2,-2.4 -4.2,-3 -4.2,-3 -3.6,-3.6 -3.6,-3 -3.6,-3 -3,-4.2 -3.6,-3.6 -3.6,-4.8 -3,-3.6 -3,-4.2 -3,-4.2 -3,-4.8 -3,-4.8 -3,-4.8 -2.4,-4.8 -2.4,-4.8 -1.8,-3.6 -1.8,-3.6 -1.8,-4.2 -2.4,-4.2 -1.8,-4.8 -2.4,-5.4 -2.4,-4.8 -1.8,-4.8 -2.4,-4.8 -1.8,-4.8 -2.4,-5.4 -2.4,-5.4 -2.4,-6.6 -3,-6 -2.4,-6 -3,-6 -2.4,-6 -2.4,-5.4 -2.4,-5.4 -2.4,-5.4 -3,-6 -2.4,-6 -3,-6.6 -3,-6 -3,-5.4 -2.4,-6 -3,-5.4 -2.4,-4.8 -3.6,-6 -3.6,-6.6 -3.6,-6.6 -4.2,-6.6 -4.2,-6.6 -4.2,-6 -3.6,-5.4 -4.2,-5.4 -3.6,-5.4 -4.8,-4.8 -4.2,-5.4 -5.4,-5.4 -4.8,-5.4 -4.8,-4.8 -4.8,-4.8 -4.8,-3.6 -4.8,-4.2 -5.4,-4.2 -5.4,-4.2 -6,-4.2 -6,-3.6 -6,-4.2 -6,-3 -5.4,-3 -6,-3 -6.6,-3 -6.6,-3 -7.2,-3 -7.2,-3 -7.2,-3 -6.6,-2.4 -6.6,-2.4 -5.4,-1.8 -5.4,-1.8 -6,-1.8 -6.6,-1.8 -6,-1.8 -6.6,-1.8 -6.6,-1.8 -6,-1.8 -6,-1.8 -6,-1.2 -6,-1.8 -6,-1.8 -7.2,-1.2 -7.2,-1.8 -7.8,-1.8 -8.4,-2.4 -8.4,-1.8 -9,-1.8 -9,-1.8 -9.6,-1.8 -7.2,-1.8 -7.8,-1.2 -8.4,-1.8 -9,-1.8 -9.6,-1.8 -10.199,-1.8 -10.199,-1.8 -10.801,-2.4 -10.801,-2.4 -10.801,-1.8 -10.199,-2.4 -10.199,-2.4 -10.199,-1.8 -9.602,-2.4 -9,-1.8 -8.398,-2.4 -9,-1.8 -9.602,-2.4 -9.602,-3 -9.597,-2.4 -10.199,-3 -10.204,-3 -10.199,-3 -10.199,-3 -10.199,-3.6 -9.602,-3 -9.597,-3.6 -9,-3.6 -9.602,-3.6 -9,-3 -9,-4.2 -9,-3.6 -9.602,-4.2 -9.597,-4.8 -10.199,-4.8 -10.801,-5.4 -10.199,-4.8 -10.801,-6 -10.801,-5.4 -10.801,-6 -10.199,-6 -10.199,-5.4 -10.199,-6 -9,-5.4 -9.602,-6 -9,-5.4 -9,-6 -9,-6 -9,-6 -9.602,-6.6 -9.597,-6.6 -9.602,-7.2 -9.597,-7.2 -10.204,-7.2 -9.597,-7.8 -9.602,-7.8 -9,-7.2 -9,-7.8 -9,-7.2 -7.801,-7.2 -7.796,-7.2 -7.801,-7.2 -7.801,-7.2 -7.199,-7.8 -7.801,-7.8 -7.801,-7.8 -7.801,-8.4 -7.796,-9 -7.801,-9 -7.801,-9 -7.801,-9 -7.199,-9.6 -7.199,-9 -6.602,-9 -6.597,-9 -6,-9 -6,-8.4 -5.403,-8.4 -5.398,-9 -5.403,-8.4 -5.398,-9.6 -5.398,-9.6 -4.801,-9.6 -5.403,-10.2 -5.398,-10.8 -4.801,-10.2 -4.801,-10.8 -4.796,-10.8 -4.204,-10.8 -4.199,-10.2 -3.597,-10.2 -3,-10.2 -3.602,-9.6 -3,-9.6 -2.398,-9.6 -3,-10.2 -2.403,-10.2 -2.398,-10.2 -2.403,-11.4 -1.796,-11.4 -2.403,-11.4 -1.801,-11.4 -1.796,-12 -1.204,-11.4 -1.199,-11.4 -1.199,-11.4 -0.602,-10.8 -0.597,-10.8 V 2875 l -0.602,-10.2 v -10.2 l 0.602,-10.2 v -10.8 l 0.597,-10.8 0.602,-11.4 1.199,-12 1.199,-11.4 1.204,-12 1.199,-12 1.801,-12 1.796,-11.4 1.801,-11.4 2.403,-11.4 1.796,-10.2 2.403,-10.8 2.398,-9.6 2.403,-10.2 3,-10.8 3,-10.2 3,-10.8 3.597,-11.4 3.602,-11.4 3.597,-11.4 4.204,-11.4 4.199,-12 4.199,-11.4 4.199,-11.4 4.199,-10.8 4.204,-10.2 4.199,-10.2 4.801,-10.2 4.199,-9.6 4.199,-9.6 4.801,-9.6 4.801,-10.2 4.796,-10.2 5.403,-10.2 6,-10.8 5.398,-10.2 6,-10.8 6,-10.8 6,-10.2 6,-10.2 6,-9.6 6,-9 5.403,-9 5.398,-8.4 6,-7.8 5.398,-7.8 6,-8.4 5.403,-7.8 6.597,-7.8 6,-8.4 6.602,-7.8 7.199,-8.4 6.602,-8.4 7.199,-7.8 6.602,-7.8 7.199,-7.8 6.597,-7.2 6.602,-7.2 6,-6.6 6,-6.6 6.602,-6 6.597,-7.8 7.199,-7.2 7.801,-7.2 7.199,-7.8 7.801,-7.2 7.801,-7.8 7.801,-7.8 7.801,-7.2 7.199,-7.2 7.199,-7.2 6.602,-6 6,-6 6,-5.4 4.796,-5.4 7.204,-6.6 6.597,-6.6 6.602,-6.6 6,-6.6 6,-6 5.398,-6 5.403,-5.4 4.796,-4.8 4.204,-4.8 4.199,-4.2 4.199,-4.8 4.199,-4.8 4.199,-4.8 4.204,-4.8 4.199,-4.8 4.801,-5.4 4.199,-4.8 3.597,-4.8 4.204,-4.8 3.597,-4.2 4.199,-5.4 4.204,-6 4.199,-6 4.801,-6.6 4.199,-6.6 3.597,-6 3.602,-6 3.602,-5.4 3,-6 3,-6 3,-6.6 3,-6.6 3,-6.6 2.398,-6.6 2.398,-6 1.801,-6 1.801,-6 1.199,-6.6 1.801,-6.6 1.199,-7.2 1.199,-7.2 1.204,-7.2 0.597,-6.6 0.602,-6.6 v -6.6 l 0.597,-7.2 v -15 l -0.597,-7.8 v -7.8 l -0.602,-7.2 -0.597,-6.6 -0.602,-5.4 -0.602,-6 -0.597,-6 -0.602,-6.6 -1.199,-6.6 -0.602,-7.2 -1.199,-6 -1.199,-6.6 -0.602,-6 -1.199,-6 -0.597,-6 -1.204,-6 -1.199,-6.6 -1.199,-6.6 -1.199,-6.6 -1.199,-6.6 -1.204,-6.6 -0.597,-5.4 -1.199,-5.4 -0.602,-4.8 -1.199,-5.4 -0.602,-5.4 -0.597,-5.4 -1.204,-5.4 -0.597,-4.8 -0.602,-4.2 v -4.2 l -0.597,-4.2 -0.602,-4.8 -0.602,-5.4 v -6 l -0.597,-5.4 v -10.8 l 0.597,-4.8 v -5.4 l 0.602,-5.4 0.602,-5.4 0.597,-4.8 1.199,-4.8 1.204,-4.8 1.199,-4.2 1.801,-5.4 1.796,-4.8 1.801,-4.2 2.403,-4.2 1.796,-4.2 3,-4.2 3,-4.2 3,-4.2 3,-3.6 3,-3.6 3,-3.6 3.602,-3.6 4.199,-3.6 4.199,-3.6 4.204,-3 3.597,-3 4.199,-3 4.801,-3 4.801,-3 4.801,-3 4.801,-3 4.796,-2.4 3,-1.8 4.204,-2.4 4.199,-1.8 5.398,-2.4 6.602,-3 7.199,-2.4 8.398,-3 9,-3 6.602,-2.4 7.801,-2.4 8.398,-2.4 9.602,-3 9.597,-2.4 10.204,-3 9.597,-3 9.602,-3 9.597,-3 8.403,-2.4 7.801,-2.4 6.597,-1.8 9.602,-3 7.801,-2.4 7.198,-2.4 6.6,-1.8 5.4,-2.4 4.8,-1.2 4.2,-1.8 3,-1.2 4.8,-1.8 4.8,-2.4 4.8,-1.8 4.8,-2.4 4.8,-1.8 4.2,-2.4 4.2,-1.8 3.6,-2.4 4.8,-3 4.2,-2.4 3.6,-3 3.6,-2.4 3,-2.4 3.6,-3 3.6,-3 3,-3.6 3,-3 3,-3 2.4,-3.6 2.4,-3.6 2.4,-3.6 2.4,-4.2 2.4,-4.2 1.8,-3.6 1.8,-4.2 1.2,-4.2 1.8,-4.8 1.8,-4.8 1.2,-4.8 1.2,-4.2 1.2,-4.2 1.2,-4.8 0.6,-5.4 1.2,-5.4 0.6,-5.4 1.2,-4.8 0.6,-3.6 0.6,-4.2 0.6,-4.8 0.6,-5.4 0.6,-7.2 0.6,-7.8 0.6,-8.4 0.6,-9.6 0.6,-6 v -6.6 l 0.6,-7.8 0.6,-7.8 0.6,-9 0.6,-9.6 0.6,-10.2 0.6,-10.2 1.2,-10.2 0.6,-10.2 0.6,-10.2 1.2,-10.2 0.6,-10.2 1.2,-9.6 1.2,-9.6 1.2,-10.2 1.2,-10.2 1.2,-10.2 1.2,-11.4 1.8,-11.4 1.8,-11.4 1.8,-11.4 1.8,-11.4 1.8,-10.8 1.8,-10.8 1.8,-10.2 1.8,-10.2 1.8,-10.199 1.8,-9.602 2.4,-10.199 1.8,-10.199 2.4,-10.801 2.4,-10.199 2.4,-10.801 2.4,-10.801 2.4,-10.199 2.4,-10.199 2.4,-9 2.4,-8.403 1.8,-7.796 1.8,-7.204 1.8,-6 3,-10.199 2.4,-8.398 2.4,-8.403 2.4,-6.597 2.4,-6 2.4,-5.403 1.8,-4.199 1.8,-3.597 2.4,-5.403 3,-5.398 3,-5.403 3,-5.398 3,-4.801 3,-4.801 3,-4.199 3,-4.801 3.6,-4.796 3.6,-4.801 4.2,-4.199 3,-3.602 3.6,-3.602 4.2,-3.597 4.2,-4.199 4.8,-3 4.2,-3.602 4.2,-2.398 4.2,-3 4.8,-2.403 4.8,-3 5.4,-2.398 4.8,-1.801 4.8,-1.801 4.8,-1.801 5.4,-1.796 6,-1.801 6,-1.199 5.4,-1.204 5.4,-0.597 5.4,-1.199 5.4,-0.602 6.6,-0.602 6,-0.597 6,-0.602 h 19.8 l 6.6,0.602 7.2,0.597 8.4,0.602 9,1.199 10.8,1.801 7.2,0.602 8.4,1.796 9.6,1.204 10.2,1.796 10.8,1.801 10.8,1.801 10.8,1.801 10.8,1.801 10.2,1.796 9,1.801 8.4,1.199 7.8,1.801 10.2,1.199 9,1.801 7.8,1.199 7.2,1.204 6.6,0.597 4.8,0.602 4.8,0.597 h 4.2 l 4.8,0.602 6,0.602 h 5.4 l 6,0.597 h 21 l 5.4,-0.597 5.4,-0.602 5.4,-0.602 4.2,-0.597 4.8,-0.602 4.8,-1.199 5.4,-1.199 4.8,-1.199 4.8,-1.801 4.2,-1.801 4.2,-1.801 4.8,-1.801 4.2,-2.398 4.8,-3 4.2,-2.398 3.6,-2.403 4.2,-3 3.6,-3 4.2,-3.597 4.2,-3.602 4.2,-3.602 3.6,-3 3.6,-3.597 3.6,-4.199 4.2,-4.204 4.2,-4.796 3.6,-4.204 3.6,-3.597 2.4,-3.602 3,-3 3,-3.597 3,-4.204 3.6,-3.597 3.6,-4.801 3.6,-4.199 4.2,-4.199 3,-3.602 3.6,-4.199 4.2,-4.801 4.2,-4.801 4.8,-5.398 4.8,-5.403 4.8,-4.796 4.8,-5.403 4.8,-4.801 4.2,-4.199 4.8,-4.801 4.8,-4.796 4.8,-4.801 5.4,-4.801 5.4,-4.801 5.4,-4.801 5.4,-4.796 5.4,-4.801 4.8,-3.602 4.8,-4.199 5.4,-3.602 4.8,-3.597 5.4,-3.602 6,-4.199 6,-3.602 6,-3.597 6,-3.602 5.4,-3 5.4,-3 5.4,-2.398 5.4,-2.403 5.4,-2.398 6,-2.398 6.6,-2.403 6,-2.398 6.6,-1.801 6.6,-1.801 6,-1.801 6,-1.199 5.4,-1.199 6,-1.199 5.4,-1.199 6.6,-0.602 6.6,-0.602 6.6,-0.597 h 7.2 l 6.6,-0.602 h 6 l 6,0.602 h 6 l 6,0.597 6,0.602 6.6,0.602 7.2,1.199 6.6,1.199 7.2,1.199 6.6,1.199 6.6,1.204 6,1.796 6,1.801 6,1.199 6,1.801 6.6,2.403 6.6,2.398 7.2,2.398 6.6,2.403 7.2,2.398 6.6,3 6,2.403 6,2.398 6,3 6,2.398 6.6,3.602 7.2,3.602 7.2,3.597 7.8,4.199 7.8,4.801 8.4,4.801 7.8,5.398 8.4,5.403 6,4.199 6.6,4.199 6.6,5.403 7.8,5.398 7.8,6 8.4,6 8.4,6.602 8.4,6.597 8.4,6.602 8.4,6.597 8.4,6.602 7.8,6.602 7.8,6 7.8,6.597 7.2,6 7.2,6.602 7.8,6.597 8.4,7.204 7.8,7.199 8.4,7.199 8.4,7.801 7.8,7.801 8.4,7.199 7.8,7.801 7.2,7.199 7.2,6.597 6.6,7.204 7.2,6.597 6.6,6.602 6.6,7.199 6.6,7.199 7.2,7.199 7.2,7.801 7.2,7.801 7.2,7.801 7.2,8.398 7.2,7.801 6.6,7.801 6.6,7.801 6.6,7.796 6,7.204 6,6.597 5.4,7.199 6,7.204 6,7.796 6,7.801 6,7.801 6.6,8.398 6,8.403 6.6,8.398 6,8.403 6,8.398 5.4,7.801 5.4,7.801 5.4,7.796 4.8,7.204 4.8,7.199 5.4,7.801 4.8,7.796 5.4,7.801 4.8,8.403 5.4,8.998 5.4,8.4 5.4,9 4.8,8.4 4.8,8.4 4.8,8.4 4.2,7.8 4.8,7.8 3.6,7.8 4.2,7.2 4.2,7.8 4.2,8.4 4.2,8.4 4.2,8.4 4.2,9 4.2,9 4.2,9 4.2,8.4 3.6,9 3.6,8.4 3.6,7.8 3.6,7.8 3,7.8 3.6,7.8 3,7.8 3,8.4 3.6,8.4 3.6,9 3,9 3.6,9.6 3.6,9.6 3.6,9.6 3.6,9.6 3,9.6 3.6,9.6 3.6,9 3,9.6 3,8.4 3,8.4 3.6,9 3,9.6 3.6,10.2 3.6,10.2 3.6,10.2 3.6,10.8 4.2,10.8 3.6,10.8 3.6,10.8 3,10.8 3.6,9.6 3,10.2 3,9 3,9.6 3,9 3,9.6 2.4,9.6 3,9.6 3,9.6 3,10.2 2.4,10.2 3,10.2 3,10.2 2.4,9.6 3,9.6 2.4,9.6 2.4,8.4 2.4,9 2.4,7.8 1.8,7.8 3,9 2.4,9 2.4,9 3,9.6 3,9 2.4,9.6 3,9 3.6,9.6 3,9 3,8.4 3,7.8 2.4,7.8 3,7.2 3,7.2 3.6,7.8 3.6,7.8 4.2,7.8 4.2,7.8 4.2,8.4 4.8,7.8 4.8,7.8 5.4,7.2 4.8,7.2 4.8,6.6 5.4,6 4.8,6 5.4,5.4 5.4,5.4 6,6 6.6,5.4 6.6,6 7.2,5.4 7.8,5.4 7.8,5.4 7.2,4.8 7.8,4.8 7.2,4.2 7.8,4.8 6.6,3 6.6,3.6 7.8,3.6 7.2,4.2 8.4,3.6 8.4,3.6 9,4.2 9,3.6 9,4.2 9,3.6 9,3.6 9,3.6 8.4,3 9,3.6 7.2,3 8.4,3 7.8,3 9,3.6 9,3 9,3.6 9.6,3.6 9.6,4.2 10.2,3.6 9.6,3.6 9.6,4.2 9.6,3.6 9.6,3.6 9,4.2 9,3.6 9,3.6 9,3.6 9.6,4.2 9,4.2 10.2,4.2 9.6,4.2 10.2,4.8 10.8,4.8 10.2,4.2 10.2,4.8 10.2,4.8 10.2,4.8 9.6,4.2 9,4.2 9,4.2 7.8,3.6 8.4,4.2 9,4.2 9,4.2 9,4.2 9,4.2 9,4.2 9.6,4.8 9,4.2 9,4.2 9,4.8 8.4,4.2 8.4,4.2 7.8,3.6 7.2,4.2 7.8,4.2 7.2,3.6 7.2,4.2 7.8,4.2 7.8,4.8 8.4,4.2 8.4,5.4 8.4,4.8 8.4,4.8 8.4,5.4 8.4,4.8 7.8,5.4 7.8,4.8 7.2,4.8 7.2,4.8 7.2,4.8 7.2,4.8 7.2,5.4 7.8,5.4 7.8,5.4 8.4,6 8.4,6 7.8,6 8.4,6 7.8,6 7.2,6 7.2,6 7.2,5.4 7.2,6 6.6,5.4 7.2,6 7.2,6 7.2,6.6 7.8,6.6 7.8,6.6 7.8,7.2 7.8,7.2 7.2,7.2 7.8,6.6 7.2,7.2 6.6,6.6 6.6,6.6 6.6,6 6.6,6.6 6.6,6.6 6.6,7.2 7.2,7.2 7.2,7.8 7.2,7.8 7.2,7.8 7.8,7.8 7.2,8.4 6.6,7.8 7.2,7.8 6,7.2 6.6,7.2 6,7.8 6,7.2 6,7.2 6.6,7.8 6.6,8.4 6.6,8.4 6.6,9 6.6,8.4 7.2,9 6.6,9 6.6,9 6,8.4 6,8.4 5.4,8.4 6,7.8 5.4,7.8 5.4,8.4 6,8.4 5.4,9 6,9 6,9 6,9.6 5.4,9 5.4,8.4 4.8,8.4 4.8,7.8 4.2,7.8 4.2,6.6 3.6,6.6 4.2,9 4.8,8.4 3.6,8.4 4.2,8.4 3.6,7.8 3,7.8 3,7.8 2.4,6.6 2.4,6.6 1.8,6 1.8,6 2.4,6.6 1.8,6.6 1.8,7.2 1.8,6.6 1.8,7.2 1.8,7.2 1.2,6.6 1.2,6.6 1.2,6 1.2,6 0.6,6 1.2,6.6 0.6,7.2 0.6,6.6 0.6,7.2 v 31.2 l -0.6,6 -0.6,6.6 -1.2,6.6 -0.6,6.6 -1.2,6.6 -1.2,6.6 -1.2,6 -1.8,6 -1.2,6 -1.8,5.4 -2.4,5.4 -1.8,6 -2.4,6 -3,6.6 -2.4,6 -3,6 -3,5.4 -3,5.4 -3,5.4 -3,4.8 -3.6,5.4 -3.6,4.8 -3.6,6 -4.2,5.4 -4.8,5.4 -4.2,5.4 -4.2,5.4 -4.2,4.8 -4.2,4.2 -4.2,4.8 -4.8,4.8 -4.8,4.8 -5.4,4.8 -5.4,4.8 -5.4,4.8 -5.4,4.8 -5.4,4.8 -4.8,4.2 -5.4,4.2 -4.8,3.6 -5.4,4.2 -5.4,4.2 -6,4.2 -5.4,4.2 -5.4,4.2 -5.4,4.2 -5.4,3.6 -4.2,3 -4.2,3 -4.8,3.6 -4.8,3 -4.2,3 -4.8,3.6 -4.2,3 -3.6,2.4 -3.6,2.4 -3,2.4 -4.2,3 -4.8,3.6 -4.8,3.6 -4.2,3.6 -4.8,3.6 -3.6,3 -3.6,3.6 -4.2,3.6 -4.2,3.6 -3.6,4.2 -3.6,3.6 -3,3.6 -3,3.6 -3,4.2 -3,4.2 -3,4.2 -2.4,4.2 -1.8,4.2 -2.4,4.2 -1.8,4.2 -2.4,4.8 -1.8,4.8 -1.2,4.8 -1.2,4.8 -1.2,4.2 -1.2,5.4 -1.2,5.4 -0.6,5.4 -0.6,4.8 -0.6,5.4 -0.6,4.8 v 5.4 l -0.6,6 v 16.8 l -0.6,3.6 0.6,4.8 v 11.4 l 0.6,7.2 v 8.4 l 0.6,9 1.2,10.2 v 6.6 l 0.6,7.2 0.6,8.4 0.6,8.4 0.6,9.6 1.2,10.2 0.6,10.2 0.6,11.4 0.6,10.8 1.2,11.4 0.6,10.8 0.6,10.8 v 10.2 l 0.6,10.8 0.6,9 v 9 l 0.6,9.6 v 31.2 l -0.6,11.4 v 11.4 l -0.6,12 -1.2,12 -0.6,11.4 -1.2,12 -1.2,12 -1.2,12 -1.8,11.4 -1.2,12.6 -1.8,9.6 -1.8,10.2 -1.8,10.8 -2.4,10.8 -1.8,11.4 -2.4,12 -3,12.6 -3,12.6 -3,13.2 -3,13.2 -3.6,13.2 -3.6,13.8 -3.6,13.2 -3.6,13.2 -4.2,12.6 -3.6,13.2 -3.6,12 -4.2,12.6 -4.2,12 -3.6,11.4 -4.2,12 -4.2,12 -4.8,12 -4.8,12 -4.8,12.6 -5.4,12.6 -5.4,13.2 -6,13.2 -6,13.2 -6,13.2 -6.6,13.2 -6,13.2 -6.6,12.6 -6.6,12.6 -6.6,12 -6.6,12 -6,11.4 -6.6,10.8 -6.6,10.8 z"
       style="fill:none;stroke:#000000;stroke-width:27;stroke-linecap:butt;stroke-linejoin:bevel;stroke-miterlimit:10;stroke-dasharray:none;stroke-opacity:1"
       transform="matrix(0.13333333,0,0,-0.13333333,0,624)" />
    <path
       id="path3"
       d="m 4665.2,2416.6 4.2,11.4 4.2,12 3.6,12 3.6,12.6 4.2,13.2 3.6,13.2 3.6,13.2 3,13.8 3.6,14.4 3,13.8 3,14.4 2.4,14.4 3,13.8 1.8,13.8 2.4,13.2 1.8,13.2 1.8,13.2 1.2,12.6 1.2,12 0.6,12.6 1.2,12 0.6,12.6 v 12.6 l 0.6,12.6 v 27 l -0.6,13.8 -0.6,13.8 -0.6,14.4 -1.2,14.4 -0.6,14.4 -1.8,13.8 -1.2,14.4 -1.8,13.2 -1.8,13.8 -2.4,12.6 -1.8,12.6 -2.4,12.6 -2.4,12 -3,12 -3,12 -3,12 -3,12 -3.6,12.6 -3.6,12.6 -4.2,12.6 -4.2,13.2 -4.8,13.2 -4.8,13.2 -5.4,13.2 -5.4,13.8 -5.4,12.6 -5.4,13.2 -5.4,12.6 -6,12 -6,12 -5.4,11.4 -6,11.4 -6,10.8 -6,10.8 -6,10.8 -6.6,10.2 -6.6,10.8 -7.2,11.4 -7.2,10.8 -7.8,11.4 -7.8,11.4 -8.4,11.4 -8.4,11.4 -9,11.4 -9,11.4 -9,11.4 -9,10.8 -9,10.8 -9,10.2 -9,10.2 -9,9.6 -9,9 -8.4,9 -9,9 -9,9 -9,8.4 -9,9 -10.2,9 -9.6,8.4 -10.8,9.6 -10.8,9 -10.8,9 -11.4,9 -11.4,9 -11.4,9 -11.4,9 -12,8.4 -11.4,8.4 -10.8,7.8 -11.4,7.8 -10.8,7.2 -10.8,7.2 -10.8,7.2 -10.2,6.6 -10.8,6.6 -10.8,6 -10.8,6.6 -11.4,6.6 -11.4,6.6 -12,6.6 -12,6.6 -12,6.6 -12.6,6 -12,6.6 -12.6,6 -12,6 -11.4,5.4 -12,5.4 -10.8,5.4 -10.8,4.8 -10.2,4.2 -10.2,4.2 -9.6,4.2 -9,3.6 -11.4,4.2 -11.4,4.2 -10.8,4.2 -11.4,3.6 -11.4,3.6 -11.4,3.6 -11.4,3 -11.4,3.6 -11.4,3 -10.8,2.4 -10.2,2.4 -10.2,2.4 -10.2,2.4 -9,1.8 -9.6,1.8 -8.4,1.8 -9,1.8 -9.6,1.2 -9,1.8 -9.6,1.8 -9.6,1.2 -10.2,1.8 -10.2,1.2 -10.8,1.8 -10.2,1.2 -10.2,1.2 -10.2,1.8 -9.6,1.2 -9.6,0.6 -9,1.2 -9,1.2 -9,0.6 -10.2,1.2 -10.2,0.6 -10.2,0.6 -11.4,1.2 -10.8,0.6 -11.4,0.6 -12,0.6 -11.4,0.6 -11.4,0.6 h -10.8 l -10.8,0.6 h -81 l -10.2,-0.6 h -10.2 l -10.2,-0.6 h -9.6 l -9,-0.6 h -15.6 l -6.6,-0.6 H 3389 l -8.4,-0.6 h -15 l -5.4,0.6 h -9 l -3.6,0.6 h -5.4 l -4.8,0.6 -5.4,0.6 -5.4,0.6 -5.4,0.6 -4.2,0.6 -4.8,0.6 -4.8,1.2 -4.8,0.6 -4.8,1.2 -4.2,1.2 -4.2,1.8 -4.2,1.2 -4.2,1.8 -4.2,1.8 -4.2,1.8 -3.6,2.4 -3.6,2.4 -3,2.4 -3.6,2.4 -3.6,3 -3.6,3 -3,3 -3,3.6 -3,3 -3,3.6 -3,3.6 -3,4.2 -2.4,4.2 -2.4,3.6 -3,3.6 -2.4,4.8 -2.4,4.2 -3,4.8 -2.4,4.8 -2.4,4.2 -1.2,3 -1.8,4.2 -2.4,4.2 -2.4,5.4 -3,6 -3,7.2 -3,7.8 -3.6,9 -3,6.6 -3,7.2 -3,8.4 -3.6,9 -4.2,9 -3.6,9.6 -4.2,10.2 -3.6,9 -3.6,9 -3.6,8.4 -3,7.2 -3,6.6 -4.2,9 -3.6,7.8 -3,7.2 -3.6,6 -3,5.4 -2.4,4.2 -2.4,3.6 -1.8,3 -3,4.2 -3.6,4.8 -3.6,4.8 -3.6,4.2 -3,4.2 -3.6,4.2 -3,3.6 -4.2,3.6 -3.6,3.6 -4.2,3.6 -4.2,3 -3.6,3 -3.6,3 -4.2,2.4 -4.8,2.4 -4.2,3 -4.8,1.8 -4.2,1.8 -4.2,1.8 -4.2,1.8 -5.4,1.2 -4.8,1.2 -4.8,1.2 -4.8,0.6 -4.8,0.6 h -4.8 l -5.4,0.6 -5.4,-0.6 h -10.2 l -5.4,-0.6 -5.4,-0.6 -5.4,-0.6 -6,-1.2 -5.4,-0.6 -4.8,-1.2 -4.2,-0.6 -3.6,-1.2 -4.8,-0.6 -4.8,-1.2 -4.8,-1.2 -5.4,-1.2 -5.4,-1.8 -5.4,-1.2 -4.8,-1.2 -4.8,-1.2 -5.4,-1.8 -6,-1.8 -6.6,-1.8 -6.6,-1.8 -6.6,-1.8 -6,-1.8 -6,-1.2 -6,-1.8 -6,-1.8 -6,-1.2 -6,-1.8 -6.6,-1.2 -6.6,-1.8 -6.6,-1.8 -6,-1.2 -6,-1.2 -6,-1.2 -5.4,-1.2 -7.2,-1.2 -7.2,-1.2 -7.2,-1.2 -7.8,-0.6 -7.8,-1.2 -7.2,-0.6 h -7.2 l -6.6,-0.6 h -13.2 l -7.2,0.6 h -7.2 l -7.2,1.2 -6.6,0.6 -6.6,1.2 -6,1.2 -6.6,1.2 -6,1.2 -7.2,1.8 -6.6,2.4 -7.2,2.4 -6.6,2.4 -6.6,2.4 -5.4,2.4 -6,3 -6.6,3 -6.6,3 -6.6,3.6 -6.6,4.2 -6.6,3.6 -6,3.6 -6,4.2 -4.8,3 -4.8,3 -5.4,3.6 -5.4,3.6 -5.4,3.6 -5.4,4.2 -5.4,4.2 -5.4,3.6 -4.8,3.6 -4.8,3.6 -5.4,3.6 -4.8,3.6 -5.4,4.2 -6,4.8 -6.6,4.8 -6.6,5.4 -7.2,6 -6.6,5.4 -7.2,6 -7.8,6.6 -5.4,4.2 -6,5.4 -6.6,5.4 -7.2,6 -7.2,6.6 -7.8,6.6 -8.4,6.6 -8.4,7.2 -8.4,7.2 -8.4,7.2 -8.4,6.6 -7.8,6.6 -7.8,6.6 -7.8,6.6 -7.2,5.4 -7.2,5.4 -7.2,6 -7.8,5.4 -7.8,6 -8.4,6 -8.4,6 -8.4,6.6 -9,6 -9,6 -8.4,5.4 -9,5.4 -8.4,5.4 -8.4,5.4 -8.4,4.8 -8.4,4.8 -8.4,4.8 -9,4.8 -9.6,4.8 -9.6,4.8 -10.2,4.8 -10.2,5.4 -10.8,4.8 -11.4,4.8 -10.8,4.8 -11.4,4.8 -10.8,4.8 -10.8,4.2 -10.8,4.2 -10.2,3.6 -10.2,3.6 -10.2,3.6 -9.6,3.6 -10.2,3 -10.8,3.6 -10.8,3 -11.4,3.6 -11.4,3 -12,3 -12,3 -12,3 -12,3 -11.4,2.4 -11.4,2.4 -11.4,1.8 -10.8,1.8 -10.2,1.8 -10.2,1.8 -10.8,1.2 -10.2,1.2 -10.8,1.2 -11.4,1.2 -11.4,0.6 -12,0.6 -12,0.6 -12,0.6 h -35.4 l -11.4,-0.6 -10.8,-0.6 -10.8,-0.6 -10.2,-0.6 -10.2,-1.2 -10.2,-1.2 -10.2,-1.2 -10.8,-1.8 -10.8,-1.8 -10.8,-1.8 -11.4,-2.4 -11.4,-2.4 -11.4,-3 -11.4,-2.4 -11.4,-3.6 -10.8,-3 -10.8,-3.6 -10.2,-3 -9.6,-3.6 -9.6,-3.6 -9.6,-3.6 -9,-4.2 -9.6,-3.6 -9.6,-4.8 -9.6,-4.8 -10.2,-4.8 -10.2,-5.4 -10.2,-5.4 -10.2,-6 -10.2,-6 -9.6,-6 -9.6,-6.6 -9.6,-6 -9,-6 -8.4,-6.6 -8.4,-6 -8.4,-6 -7.8,-6.6 -7.8,-6.6 -8.4,-6.6 -8.4,-7.2 -8.4,-7.8 -8.4,-8.4 -8.4,-7.8 -8.4,-9 -8.4,-8.4 -8.4,-9 -7.8,-8.4 -7.8,-8.4 -7.2,-9 -7.2,-7.8 -6.6,-8.4 -6.6,-8.4 -6,-8.4 -6.6,-8.4 -6.6,-9 -6.6,-9 -6.6,-9.6 -6.6,-10.2 -6.6,-10.2 -6.6,-10.2 -6.6,-10.8 -6,-10.2 -6,-10.2 -6,-10.2 -5.4,-10.2 -5.4,-9.6 -5.4,-9.6 -4.8,-9.6 -4.8,-9.6 -4.8,-9.6 -4.8,-9.6 -4.8,-10.8 -4.8,-10.2 -4.8,-11.4 -4.2,-10.8 -4.8,-11.4 -4.8,-11.4 -4.2,-10.8 -4.2,-10.8 -3.6,-10.8 -3.6,-10.2 -3.6,-9.6 -3,-9.6 -3,-9.6 -2.4,-9.6 -3,-9 -2.4,-9.6 -2.4,-10.2 -2.4,-9.6 -2.4,-10.2 -1.8,-10.8 -2.4,-10.2 -1.8,-10.8 -1.8,-10.2 -1.8,-9.6 -1.8,-10.2 -1.2,-9.6 -1.2,-9 -1.2,-9 -1.2,-8.4 -1.2,-10.2 -1.2,-10.2 -1.2,-10.2 -1.2,-10.8 -1.2,-10.8 -1.2,-10.8 -1.2,-10.8 -1.2,-10.8 -0.6,-10.2 -1.2,-9.6 -0.6,-9 -1.2,-8.4 -0.6,-7.8 -0.6,-7.8 -1.2,-9.6 -1.2,-9 -0.6,-9 -1.2,-9 -1.2,-8.4 -1.2,-8.4 -0.6,-7.2 -1.2,-6.6 -1.2,-6.6 -0.6,-6 -1.2,-6 -1.2,-6 -0.6,-6.6 -1.2,-6.6 -1.2,-6.6 -1.2,-6.6 -1.2,-6.6 -1.8,-6 -1.2,-6 -1.2,-5.4 -1.2,-6.6 -1.8,-7.2 -2.4,-7.2 -2.4,-7.8 -2.4,-7.2 -2.4,-7.2 -1.8,-6.6 -2.4,-6 -3,-6 -2.4,-6 -3.6,-6.6 -3,-6 -3.6,-6.6 -3.6,-6 -3.598,-5.4 -3.602,-5.4 -3.602,-4.8 -4.199,-5.4 -4.199,-5.4 -4.801,-5.4 -4.801,-5.4 -4.796,-4.8 -4.801,-4.8 -4.801,-4.8 -4.801,-4.2 -5.398,-4.2 -6,-4.8 -6,-4.8 -6,-4.8 -6.602,-4.8 -5.398,-3.6 -6,-4.2 -4.801,-3 -4.801,-3 -5.398,-3.6 -5.403,-3.6 -6,-3 -6,-3.6 -5.398,-3.6 -6,-3 -5.398,-3 -4.801,-3 -5.403,-3 -5.398,-3 -6,-3 -6,-3.6 -6,-3 -5.398,-3 -5.403,-3 -5.398,-3 -4.801,-2.4 -4.199,-2.4 -4.801,-3 -4.801,-2.4 -4.801,-3 -4.199,-2.4 -4.199,-2.4 -4.199,-2.4 -3.602,-2.4 -3,-1.8 -4.199,-3 -4.801,-3.6 -4.801,-3 -4.199,-3.6 -4.199,-3 -4.199,-3.6 -3.602,-3 -3.597,-3.6 -4.204,-3.6 -3.597,-4.2 -3.602,-3.6 -3,-3.6 -3,-3.6 -2.398,-4.2 -3,-4.2 -2.403,-4.8 -2.398,-4.2 -1.801,-4.2 -1.801,-4.2 -1.796,-4.2 -1.204,-5.4 -1.796,-4.8 -1.204,-4.8 -0.597,-4.8 -0.602,-4.2 -0.597,-5.4 -0.602,-5.4 v -5.4 l -0.602,-4.8 0.602,-5.4 v -4.8 l 0.602,-5.4 0.597,-6 0.602,-5.4 0.597,-5.4 1.204,-5.4 0.597,-3.6 0.602,-4.8 1.199,-4.8 1.801,-5.4 1.801,-6.6 2.398,-7.8 3,-7.8 3.602,-9 2.398,-7.2 3,-7.2 3,-8.4 3.602,-9 3.597,-9.6 4.199,-9.6 3.602,-9.6 3.602,-9.6 3.597,-9 3.602,-7.8 3,-7.8 2.398,-6.6 3.602,-9 3,-7.8 3,-7.2 2.398,-6 1.801,-6 1.801,-4.2 1.199,-4.2 1.199,-3.6 1.199,-4.8 1.204,-4.8 1.796,-5.4 1.204,-5.4 1.199,-4.8 1.199,-4.2 0.602,-4.8 0.597,-4.8 1.199,-4.8 v -4.8 L 785,2806.6 V 2794 l -0.602,-4.8 v -4.8 l -1.199,-4.2 -0.597,-4.2 -1.204,-3.6 -1.199,-4.2 -1.199,-4.8 -1.801,-4.2 -1.801,-4.2 -1.796,-3.6 -2.403,-4.2 -2.398,-3.6 -2.403,-4.2 -2.398,-4.2 -3,-4.2 -2.398,-3.6 -3,-3.6 -3,-4.2 -3.602,-4.2 -3.602,-3.6 -3.597,-4.2 -3.602,-3.6 -2.398,-3 -3,-3 -3,-3 -4.199,-4.2 -5.403,-4.8 -5.398,-5.4 -6,-6 -7.199,-6 -4.801,-4.2 -4.801,-4.8 -5.398,-4.8 -6,-5.4 -6.602,-6 -7.199,-6.6 -7.199,-6.6 -7.801,-7.2 -7.199,-7.2 -7.801,-7.2 -7.801,-6.6 -7.199,-7.2 -7.199,-6.6 -6.602,-7.2 -7.199,-6.6 -7.199,-7.2 -7.204,-7.2 -7.199,-7.8 -7.801,-7.8 -7.796,-8.4 -7.801,-8.4 -8.403,-8.4 -7.796,-8.4 -7.204,-8.4 -7.199,-8.4 -7.199,-7.8 -6.602,-7.8 -6.597,-7.8 -6.602,-7.8 -6.597,-7.8 -6.602,-7.8 -6.602,-8.4 -7.199,-8.4 -6.597,-9 -7.204,-8.4 -6.597,-8.4 -6,-7.8 -6,-7.8 -4.801,-6.6 -4.801,-6.6 -4.801,-6 -3.597,-5.4 -6,-8.4 -5.403,-7.2 -4.199,-7.2 -4.199,-6 -3,-6 -3,-4.8 -1.801,-4.2 -1.801,-3.6 -2.398,-4.8 -2.398,-5.4 -2.403,-6 -2.398,-6 -2.403,-5.4 -1.199,-4.8 -1.801,-5.4 -1.796,-5.4 -1.204,-6 -1.796,-5.4 -1.204,-5.4 -0.597,-5.4 -0.602,-4.8 -0.597,-5.4 v -16.8 l 0.597,-5.4 0.602,-4.8 1.199,-5.4 1.199,-5.4 1.199,-6 1.204,-5.4 1.796,-4.8 1.801,-4.8 1.801,-4.8 2.398,-5.4 2.403,-5.4 2.398,-5.4 3,-4.8 2.403,-4.2 3,-5.4 3.597,-4.8 3.602,-5.4 3,-4.8 3.597,-4.8 2.403,-3 3,-4.2 3.597,-4.2 4.204,-4.8 5.398,-5.4 6,-6 6.602,-6.6 7.199,-6.6 6,-5.4 6,-6 7.199,-6.6 7.801,-6.6 7.801,-7.2 8.398,-7.2 8.398,-7.8 7.801,-7.2 7.801,-6.6 7.199,-6 6.602,-6 5.398,-4.8 7.801,-7.2 6.602,-6 6,-5.4 5.398,-5.4 4.199,-4.2 4.199,-3.6 3,-3 2.403,-3 3.597,-4.2 4.204,-4.2 3.597,-4.2 4.199,-4.2 3.602,-4.2 3,-4.2 3,-4.2 3,-4.2 3.602,-4.2 3,-4.8 2.398,-4.2 2.398,-3.6 2.403,-4.2 1.801,-4.8 2.398,-4.8 1.801,-4.8 1.801,-4.2 1.199,-4.8 1.199,-4.2 1.199,-4.8 1.199,-5.4 0.602,-4.8 0.602,-5.4 0.597,-4.2 0.602,-4.8 V 1849 l -0.602,-5.4 v -5.4 l -0.597,-4.8 -0.602,-5.4 -0.602,-5.4 -1.199,-6 -0.597,-5.4 -1.204,-6 -0.597,-4.8 -1.199,-4.2 -0.602,-4.2 -1.199,-4.8 -0.602,-4.8 -1.199,-5.4 -1.199,-5.4 -1.199,-5.4 -0.602,-6 -1.199,-4.8 -0.602,-5.4 -1.199,-6 -1.199,-6.6 -1.199,-6.6 -1.204,-7.2 -1.199,-7.2 -0.597,-6.6 -1.204,-6.6 -0.597,-6.6 -0.602,-6 -0.597,-7.2 -0.602,-6.6 -0.602,-7.2 -0.597,-7.2 -0.602,-7.8 v -6.6 l -0.597,-7.2 v -12.6 l 0.597,-6 v -6.6 l 0.602,-6.6 0.597,-6.6 0.602,-7.2 0.602,-7.2 1.199,-6.6 1.199,-6.6 1.199,-6 1.199,-5.4 1.204,-6 1.796,-6 1.801,-6 1.801,-6.6 2.398,-6 2.403,-6.6 2.398,-6 3,-6 2.403,-5.4 2.398,-5.4 3,-4.8 3,-5.4 3,-5.4 3.602,-5.4 4.199,-5.4 3.597,-6 4.204,-4.8 4.199,-5.4 3.597,-4.2 4.204,-4.8 3.597,-4.2 4.801,-4.8 4.199,-4.2 5.403,-4.8 4.796,-4.8 5.403,-4.8 5.398,-4.2 5.403,-4.2 4.796,-4.2 5.403,-3.6 4.801,-3.6 5.398,-3.6 5.398,-3.6 6,-4.2 6.602,-3.6 6,-3.6 6,-3.6 6.602,-3.6 5.398,-3 6,-3 5.398,-3 6,-3.6 6.602,-3 7.199,-3 7.801,-3.6 8.398,-3.6 8.403,-3 9,-3 9,-3.6 9.597,-3 7.204,-1.8 7.199,-2.4 8.398,-2.4 9,-2.4 9,-2.4 10.199,-2.4 10.204,-3 10.796,-2.4 10.204,-2.4 10.796,-2.4 10.204,-2.4 9.597,-2.4 10.199,-1.8 9.602,-1.8 9.602,-1.8 9.598,-1.8 10.2,-1.8 10.2,-2.4 10.8,-1.8 10.8,-1.8 11.4,-1.2 10.8,-1.8 11.4,-1.8 10.2,-1.2 10.8,-1.8 9.6,-1.2 9.6,-0.6 9.6,-1.2 9.6,-1.2 9.6,-0.6 9.6,-1.2 10.2,-0.6 10.8,-1.2 10.8,-0.6 10.8,-0.6 10.8,-0.6 10.8,-0.6 10.2,-0.6 h 10.2 l 9.6,-0.6 h 27.6 l 9.6,-0.6 9.6,0.6 h 30.6 l 10.2,0.6 10.8,0.6 h 10.2 l 10.2,0.6 9.6,0.6 9.6,0.6 9,0.6 9,1.2 8.4,0.6 9,0.6 9.6,1.2 9.6,0.6 9.6,1.2 10.2,1.2 10.2,1.2 9.6,1.8 10.2,1.2 9.6,1.2 9.6,1.8 9,1.2 8.4,1.8 8.4,1.2 8.4,1.8 9,1.8 8.4,1.8 9,1.8 9.6,1.8 9.6,2.4 9.6,1.8 9.6,2.4 9.6,2.4 9,2.4 9,2.4 8.4,2.4 8.4,1.8 7.8,2.4 7.8,2.4 8.4,2.4 8.4,2.4 8.4,3 9.6,3 9,3 9.6,3 9.6,3.6 10.2,3 9.6,3 9.6,3.6 9,3 9.6,3.6 9.6,3 8.4,3 8.4,3 9,3 9.6,3.6 10.2,3 10.2,3.6 10.8,4.2 10.2,3.6 11.4,3.6 10.2,4.2 10.8,3.6 10.2,3.6 10.2,4.2 9.6,3.6 9,3.6 9.6,3.6 9,3 9,3.6 9,4.2 9,3.6 9.6,4.2 9.6,3.6 10.2,4.2 9.6,4.2 9.6,4.2 9.6,4.2 9,3.6 9,3.6 8.4,3.6 7.8,3.6 7.8,3.6 7.8,3 8.4,3.6 8.4,3.6 9,3.6 9,3.6 9,3.6 9,3.6 9,3.6 9,3.6 9,3 8.4,3 8.4,2.4 7.8,3 7.2,1.8 7.2,2.4 8.4,1.8 8.4,2.4 9,1.8 9,1.8 9,1.2 9,1.2 9.6,1.2 8.4,0.6 9,0.6 h 16.2 l 7.2,-0.6 7.8,-0.6 7.8,-0.6 8.4,-1.2 8.4,-1.8 8.4,-1.8 9,-1.8 9,-2.4 9,-3 9,-2.4 8.4,-3 7.8,-3.6 8.4,-3 6.6,-3 7.2,-3 7.2,-3.6 7.8,-3.6 8.4,-4.2 8.4,-4.2 8.4,-4.8 8.4,-4.2 9,-4.8 8.4,-4.8 8.4,-4.8 8.4,-4.8 7.8,-4.8 8.4,-4.2 6.6,-4.2 7.2,-4.8 7.8,-4.2 7.8,-4.8 8.4,-4.8 8.4,-4.8 9,-5.4 9,-5.4 9,-5.4 9,-4.8 9,-5.4 9,-5.4 9,-4.8 8.4,-4.8 9,-4.8 8.4,-4.8 8.4,-4.2 9,-4.8 9,-4.8 9,-5.4 10.2,-4.8 9.6,-5.4 10.2,-4.8 10.2,-5.4 10.2,-5.4 10.2,-4.8 9.6,-4.8 9.6,-4.8 9,-4.8 8.4,-4.2 8.4,-4.2 7.8,-3.6 9,-4.8 9,-4.2 9,-4.2 9,-4.8 9,-4.2 9.6,-4.8 9,-4.2 9,-4.2 9,-4.2 8.4,-4.2 8.4,-4.2 8.4,-3.6 7.8,-3 7.2,-3.6 7.8,-3 7.8,-3.6 8.4,-3.6 8.4,-3 9,-3.6 9,-3.6 9,-3.6 9.6,-3 9,-3.6 9,-3 9,-3 8.4,-3 8.4,-3 7.8,-2.4 8.4,-2.4 8.4,-3 8.4,-2.4 9,-2.4 9.6,-3 9.6,-2.4 10.2,-3 9.6,-2.4 9.6,-2.4 9.6,-2.4 9.6,-2.4 9,-1.8 9,-2.4 8.4,-1.8 9,-1.8 9,-1.8 9,-1.8 9.6,-1.8 10.2,-1.8 10.2,-1.8 10.2,-1.8 10.2,-1.2 10.8,-1.8 10.2,-1.2 9.6,-1.8 9.6,-1.2 9,-1.2 9.6,-1.2 9,-0.6 9,-1.2 9.6,-1.2 10.2,-0.6 10.8,-1.2 10.2,-0.6 10.8,-1.2 11.4,-0.6 10.2,-0.6 10.8,-0.6 10.2,-0.6 h 10.2 l 9.6,-0.6 h 18.6 l 9.6,-0.6 h 31.2 l 11.4,0.6 h 10.8 l 11.4,0.6 h 11.4 l 10.8,0.6 10.2,0.6 10.2,0.6 10.2,0.6 9.6,0.6 9.6,0.6 10.2,0.6 10.2,1.2 10.2,0.6 10.8,1.2 10.8,1.2 10.8,1.2 10.8,1.2 10.2,1.2 9.6,1.8 9,1.2 8.4,1.2 7.8,1.2 7.2,1.2 9.6,1.8 9.6,1.8 9,2.4 9,1.8 8.4,2.4 8.4,2.4 7.2,2.4 7.2,2.4 6.6,1.8 6,2.4 6,2.4 6,2.4 6.6,2.4 6.6,3 6.6,3 6.6,3 6.6,3 6,3 6,3 5.4,3 5.4,3 5.4,3.6 5.4,3.6 6,3.6 6,3.6 5.4,4.2 6,4.2 4.8,3.6 4.8,3.6 4.8,4.2 4.2,3.6 4.8,4.2 4.2,4.8 4.8,4.8 4.8,4.8 4.8,4.8 4.2,5.4 3.6,4.8 3.6,4.8 3.6,4.8 3,4.8 3.6,4.8 3,5.4 3.6,6 3,6 3,6 3,6 2.4,5.4 2.4,6 1.8,5.4 2.4,5.4 1.8,6 1.8,6 1.8,6.6 1.8,6.6 1.8,7.2 1.2,6.6 1.2,6.6 1.2,6 1.2,6.6 0.6,6 1.2,6 0.6,7.2 0.6,7.2 0.6,7.2 0.6,7.2 v 7.2 l 0.6,7.2 v 40.2 l -0.6,7.2 v 6.6 l -0.6,6.6 v 6 l -0.6,6 v 4.8 l -0.6,6 v 6 l -0.6,5.4 v 5.4 l -0.6,5.4 -0.6,4.8 v 7.8 l -0.6,5.4 v 33 l 0.6,5.4 0.6,5.4 0.6,5.4 0.6,4.8 1.2,4.8 0.6,4.8 1.2,4.8 1.2,4.8 1.8,5.4 1.8,4.2 1.8,4.2 1.8,4.2 2.4,4.2 2.4,4.8 3,4.2 2.4,4.2 3,4.2 2.4,3.6 3.6,3.6 3.6,4.2 3.6,4.2 3.6,4.2 3.6,3.6 3.6,3 4.2,3.6 4.2,4.2 4.8,3.6 4.2,3.6 4.2,3.6 3,2.4 3.6,3 4.2,3 5.4,3.6 5.4,4.8 7.2,4.8 7.2,4.8 8.4,6 5.4,3.6 6,4.2 6.6,4.2 7.2,5.4 7.8,4.8 8.4,6 9,6 9,6 9,6.6 9,6.6 9,6 9,6.6 8.4,6 8.4,6 7.2,5.4 7.2,5.4 7.8,6 7.8,6 8.4,6.6 8.4,6.6 8.4,7.2 9,7.8 9,7.8 8.4,7.8 9,8.4 9,7.8 8.4,8.4 8.4,8.4 8.4,9 8.4,8.4 6.6,7.8 6.6,7.2 7.2,8.4 7.2,8.4 7.8,9 7.8,9.6 7.8,9.6 8.4,10.2 8.4,10.8 8.4,10.8 8.4,10.8 8.4,11.4 7.8,10.8 8.4,11.4 7.8,10.8 7.2,10.8 7.2,10.8 7.2,10.8 7.2,10.2 6.6,10.8 6.6,10.8 6.6,10.8 6.6,10.8 6.6,11.4 6.6,12 6.6,12 6.6,12 6.6,13.2 6.6,12.6 6.6,13.2 6,13.2 6.6,13.2 6,13.2 5.4,12.6 5.4,12.6 5.4,12.6 4.8,12 4.8,12 4.2,12 z"
       style="fill:none;stroke:#000000;stroke-width:27;stroke-linecap:butt;stroke-linejoin:bevel;stroke-miterlimit:10;stroke-dasharray:none;stroke-opacity:1"
       transform="matrix(0.13333333,0,0,-0.13333333,0,624)" />
    <path
       id="path4"
       d="m 1861.4,4645 -12,1.8 -12.6,1.2 -12.6,0.6 -13.2,1.2 -13.8,0.6 -13.2,0.6 -14.4,0.6 h -13.8 l -14.4,0.6 -15,-0.6 H 1712 l -14.4,-0.6 -13.8,-0.6 -14.4,-0.6 -13.2,-1.2 -13.2,-1.2 -13.2,-1.2 -12.6,-1.8 -12,-1.2 -12.6,-1.8 -12,-2.4 -12,-1.8 -12.6,-2.4 -12.6,-3 -13.2,-2.4 -12.6,-3.6 -13.8,-3 -13.2,-3.6 -13.8,-4.2 -13.8,-4.2 -13.8,-4.2 -13.2,-4.2 -13.2,-4.8 -13.2,-4.8 -12.6,-4.8 -12,-4.8 -12,-5.4 -11.4,-4.8 -11.4,-4.8 -10.8,-5.4 -11.4,-5.4 -10.8,-5.4 -10.8,-6 -11.4,-6.6 -11.4,-6 -12,-7.2 -11.4,-7.2 -12,-7.2 -12,-7.8 -12,-8.4 -11.4,-7.8 -12,-8.4 -11.4,-8.4 -10.8,-8.4 -10.8,-8.4 -10.2,-7.8 -9.6,-8.4 -9.6,-8.4 -9.6,-8.4 -9,-7.8 -9,-8.4 -9,-9 -9,-9 -9,-9 -9,-9.6 -9.6,-10.2 -9,-10.2 -9.6,-10.8 -9,-10.8 -9.6,-10.8 -9,-11.4 -9,-11.4 -8.4,-11.4 -8.401,-10.8 -8.398,-11.4 -7.801,-10.8 -7.199,-10.8 -7.199,-10.8 -6.602,-10.2 -6.602,-10.8 -6.597,-10.8 -6.602,-10.8 -6.597,-10.8 -6,-11.4 -6.602,-12 -6.602,-12 -6.597,-12.6 -6.602,-12.6 -6,-13.2 -6.597,-13.2 -6,-13.2 -6,-13.2 -6,-13.2 -5.403,-13.2 -5.398,-12.6 -4.801,-12.6 -4.801,-12 -4.801,-12 -4.199,-12 -4.199,-12 -3.602,-11.4 -4.199,-12 -4.199,-12.6 -3.602,-12 -3.597,-13.2 -4.199,-12.6 -3.602,-13.2 -3.602,-13.2 -3.597,-13.8 -3.602,-13.2 -3,-13.2 -3,-13.2 -3,-12.6 -3,-12.6 -2.398,-12 -1.801,-11.4 -2.398,-10.8 -1.801,-10.8 -1.801,-10.2 -1.199,-9.6 -1.801,-12.6 -1.801,-11.4 -1.199,-12 -1.199,-12 -1.199,-12 -0.602,-11.4 -1.199,-12 -0.602,-12 V 3610 l -0.597,-11.4 v -31.2 l 0.597,-9.6 v -9 l 0.602,-9 v -9.6 l 0.597,-9 0.602,-9.6 0.602,-9.6 0.597,-9.6 0.602,-10.2 1.199,-10.8 0.602,-10.2 1.199,-10.2 0.597,-10.8 1.204,-9.6 0.597,-10.2 1.199,-9 1.204,-9.6 1.199,-9 1.199,-8.4 1.199,-10.2 1.199,-10.2 1.801,-10.2 1.801,-10.8 1.801,-11.4 1.801,-10.8 1.796,-11.4 1.801,-11.4 2.403,-11.4 1.796,-10.8 2.403,-10.8 1.801,-10.2 2.398,-9.6 1.801,-9.6 2.398,-9.6 2.403,-9.6 2.398,-9.6 2.398,-10.2 2.403,-10.2 2.398,-10.2 2.403,-9.6 2.398,-10.2 2.398,-9 2.403,-8.4 1.801,-8.4 2.398,-7.2 1.199,-6.6 1.801,-5.4 2.398,-9.6 1.801,-8.4 1.801,-7.2 1.801,-6.6 1.199,-6 0.602,-4.8 1.199,-4.2 0.597,-3.6 0.602,-4.8 0.602,-4.8 1.199,-5.4 0.597,-5.4 0.602,-5.4 0.602,-4.2 v -4.8 l 0.597,-4.8 v -4.8 l -0.597,-5.4 v -4.2 l -0.602,-4.2 -0.602,-4.2 -0.597,-4.8 -0.602,-4.2 -1.199,-4.8 -1.801,-4.2 -1.199,-3.6 -1.199,-4.2 -1.801,-3.6 -2.398,-4.2 -2.403,-4.2 -2.398,-4.2 -1.801,-3 -3,-3.6 -2.398,-3.6 -3,-4.2 -3.602,-3.6 -3,-3.6 -3,-3.6 -3.602,-3 -3.597,-3.6 -3.602,-3.6 -4.199,-3.6 -4.199,-3.6 -3.602,-3 -3,-2.4 -3,-2.4 -4.199,-3 -4.199,-3.6 -5.403,-4.2 -6.597,-4.8 -6.602,-4.8 -7.801,-5.4 -6,-4.2 -6.597,-4.8 -7.199,-4.8 -7.801,-5.4 -8.403,-6 -8.398,-6 -9,-6 -8.398,-6 -7.801,-5.4 -7.199,-5.4 -6,-4.8 -6,-4.2 -7.801,-5.4 -6.602,-5.4 -6,-4.8 -5.398,-4.8 -4.801,-3.6 -3.602,-3.6 -3,-3.6 -2.398,-2.4 -3.602,-4.2 -3.597,-4.2 -3.602,-4.2 -3.597,-4.8 -3.602,-4.2 -2.398,-3.6 -3,-4.2 -3,-4.2 -3,-4.8 -2.403,-4.8 -2.398,-4.2 -1.801,-4.2 -1.801,-4.8 -1.801,-4.2 -1.796,-5.4 -1.204,-4.8 -1.199,-4.8 -1.199,-4.2 -0.602,-4.8 v -4.8 l -0.597,-5.4 v -10.2 l 0.597,-4.2 0.602,-4.8 0.602,-5.4 1.199,-5.4 1.199,-5.4 1.199,-4.8 1.801,-4.8 1.199,-4.8 1.801,-4.8 1.801,-5.4 2.398,-5.4 1.801,-5.4 2.398,-4.8 1.204,-3.6 1.796,-3.6 2.403,-4.2 1.801,-4.2 2.398,-4.8 2.398,-4.8 2.403,-4.8 3,-4.8 2.398,-4.2 2.403,-4.8 2.398,-5.4 3,-5.4 3.602,-6 3,-5.4 3,-6 3,-6 3,-5.4 3,-5.4 2.398,-5.4 3,-5.4 3,-6 3,-6 3,-6 3,-6 3,-6 2.398,-5.4 2.403,-5.4 2.398,-5.4 2.403,-6 3,-7.2 2.398,-7.2 3,-7.2 2.398,-7.2 2.403,-7.2 1.801,-6.6 1.796,-6 1.204,-6.6 1.796,-6.6 1.204,-6.6 1.199,-7.2 1.199,-7.2 0.602,-7.2 0.597,-6.6 v -6 l 0.602,-6.6 -0.602,-6.6 v -6.6 l -0.597,-7.8 -0.602,-7.2 -1.199,-7.2 -0.602,-6.6 -1.199,-6 -1.199,-6.6 -1.801,-6.6 -1.801,-7.2 -1.801,-7.8 -2.398,-7.2 -2.398,-7.2 -1.801,-7.2 -2.403,-6.6 -2.398,-4.8 -1.801,-6 -2.398,-5.4 -2.403,-6 -2.398,-6.6 -2.398,-6 -3,-6 -2.403,-6 -2.398,-6 -2.403,-5.4 -2.398,-5.4 -3,-6 -3,-6 -3,-7.2 -3.602,-7.2 -3.597,-7.8 -4.199,-7.8 -3.602,-8.4 -4.199,-8.4 -4.801,-8.4 -3,-6.6 -4.199,-7.2 -3.602,-7.2 -4.199,-8.4 -4.801,-8.4 -4.801,-9 -4.796,-9.6 -4.801,-9.6 -4.801,-10.2 -5.398,-9.6 -4.801,-9.6 -4.199,-9 -4.801,-9.6 -4.199,-9 -4.204,-7.8 -3.597,-8.4 -4.199,-8.4 -3.602,-8.4 -4.199,-9 -4.199,-9.6 -3.602,-9.6 -4.199,-9.6 -4.199,-10.2 -3.602,-10.2 -3.602,-9.6 -3.597,-9.6 -3.602,-9.6 -3,-9.6 -3,-9 -2.398,-9.6 -3,-9.6 -2.403,-9.6 -3,-10.2 -2.398,-10.2 -3,-10.8 -2.398,-11.4 -2.403,-12 -2.398,-12 -2.403,-12 -1.796,-11.4 -1.801,-12 -1.801,-11.4 -1.801,-11.4 -1.199,-10.8 -1.801,-10.8 -1.199,-10.8 -0.602,-10.2 -1.199,-10.8 -1.199,-10.8 -0.602,-11.4 -0.597,-12 -0.602,-12 -0.597,-12 v -12.6 l -0.602,-12 v -12.6 l 0.602,-12 v -11.4 l 0.597,-11.4 0.602,-10.8 0.597,-10.8 0.602,-10.2 1.199,-10.2 1.199,-10.8 1.204,-10.8 1.796,-10.8 1.204,-11.4 2.398,-12 1.801,-11.4 2.398,-12 2.403,-12 3,-11.4 3,-11.4 2.398,-10.8 3,-10.8 3,-10.2 3.602,-10.2 3,-9.6 3.597,-9.6 3.602,-9.6 3.597,-9.6 4.204,-10.2 4.199,-10.2 4.801,-10.8 5.398,-10.2 4.801,-10.8 5.398,-10.8 5.403,-10.2 6,-9.6 5.398,-10.2 5.398,-9 6,-9 5.403,-8.4 6,-8.4 5.398,-8.4 6.602,-7.8 6,-8.4 6.597,-8.4 7.204,-9 7.796,-8.4 7.801,-9 7.801,-8.4 7.801,-8.4 8.398,-8.4 8.403,-8.4 7.796,-7.8 8.403,-7.2 7.801,-6.6 7.796,-7.2 7.801,-6 7.801,-6.6 8.398,-6.6 8.403,-6 9,-6.6 9.597,-6.6 9.602,-6.602 10.199,-6.597 10.199,-6 10.204,-6.602 10.199,-6 10.199,-6 10.199,-5.398 9.602,-5.403 9.597,-4.796 9.602,-4.801 9.602,-4.199 9.597,-4.801 9.602,-4.199 L 872,918.398 882.199,914.199 893,910 l 11.398,-4.801 11.403,-4.199 11.398,-4.199 12,-3.602 11.403,-4.199 11.398,-3.602 11.398,-3 10.801,-3.597 10.801,-3 10.2,-2.403 10.2,-3 10.8,-2.398 10.2,-2.398 10.8,-2.403 11.4,-2.398 11.4,-2.403 11.4,-1.796 12,-2.403 12,-1.801 12,-1.796 12,-1.801 11.4,-1.801 11.4,-1.199 10.8,-1.199 10.2,-1.204 10.2,-0.597 9.6,-0.602 9.6,-0.597 10.2,-0.602 h 9.6 l 10.2,-0.602 h 31.2 l 10.8,0.602 10.8,0.602 h 10.2 l 10.2,0.597 10.2,0.602 9.6,1.199 9,0.602 9,0.597 9,1.199 9.6,0.602 10.2,1.199 10.2,1.199 10.8,1.204 10.8,1.199 11.4,1.199 10.8,1.199 10.2,1.801 10.2,1.199 9.6,1.199 9.6,1.204 8.4,1.199 7.8,0.597 7.2,1.204 9.6,1.199 9.6,0.597 9,1.204 8.4,0.597 9,1.199 7.8,0.602 7.8,0.602 6.6,0.597 6.6,0.602 6,0.597 h 6 l 6,0.602 h 6.6 l 6.6,0.602 6.6,0.597 h 13.2 l 6.6,0.602 h 18 l 7.2,-0.602 h 7.8 l 7.8,-0.597 7.8,-0.602 7.2,-1.199 7.2,-0.602 6.6,-1.199 6,-1.199 6.6,-1.199 7.2,-1.801 7.2,-1.801 6.6,-1.801 6.6,-2.398 6.6,-2.403 6,-1.796 5.4,-2.403 6,-3 6,-3 6.6,-3.597 6.6,-3.602 6,-3.602 5.4,-3.597 5.4,-3.602 5.4,-3.597 5.4,-4.204 6,-4.796 6,-4.801 6,-4.801 5.4,-4.801 5.4,-5.398 5.4,-4.199 4.2,-4.204 4.2,-4.199 4.2,-4.199 4.8,-4.801 4.8,-4.801 4.2,-4.796 4.8,-4.801 4.2,-4.801 4.2,-4.801 4.2,-4.199 4.2,-4.801 4.2,-4.801 4.2,-4.796 4.8,-4.801 4.2,-5.403 4.8,-4.796 3.6,-4.801 4.2,-4.199 3.6,-4.204 3,-3.597 3.6,-4.199 3.6,-3.602 3.6,-4.199 3.6,-3.602 3.6,-3.597 3,-3.602 3,-3 3,-2.398 3.6,-3.602 3.6,-3.602 4.8,-4.199 4.2,-3.597 4.2,-3.602 4.2,-3 3.6,-3 4.2,-3 4.8,-3 4.8,-2.398 4.2,-2.403 4.2,-2.398 4.2,-1.801 4.8,-1.801 4.8,-1.801 4.8,-1.199 4.8,-1.199 4.8,-1.199 4.2,-0.602 4.8,-0.597 5.4,-0.602 h 14.4 l 4.8,0.602 5.4,0.597 5.4,0.602 5.4,1.199 4.8,1.199 4.8,1.199 4.8,1.204 5.4,1.199 5.4,1.801 5.4,2.398 5.4,1.801 4.8,1.801 3.6,1.796 3.6,1.204 4.8,2.398 5.4,3 6,3 6.6,4.199 7.2,4.801 8.4,5.398 6,3.602 6.6,4.801 7.2,4.801 7.8,5.398 8.4,6 8.4,6 9,6 8.4,5.398 7.8,5.403 7.2,5.398 6.6,4.199 6,4.204 7.8,5.398 6.6,4.801 6.6,4.199 5.4,3.602 5.4,3 4.2,3 3.6,1.796 3,1.801 4.2,2.403 4.8,2.398 4.8,3 4.8,2.398 4.8,2.403 4.2,1.801 4.2,1.796 4.2,1.801 4.8,1.801 4.8,1.801 4.2,1.199 4.2,1.199 4.2,1.199 4.2,0.602 4.8,0.602 4.8,0.597 4.2,0.602 h 8.4 l 4.2,-0.602 4.8,-0.597 4.2,-0.602 4.2,-0.602 4.2,-1.199 4.2,-1.199 4.2,-1.199 4.8,-1.801 4.8,-1.801 4.2,-1.801 4.2,-1.796 4.2,-1.801 4.8,-2.403 4.8,-2.398 4.8,-3 4.8,-2.398 4.2,-2.403 3,-1.801 3.6,-1.796 4.2,-3 5.4,-3 5.4,-3.602 6.6,-4.199 6.6,-4.801 8.4,-5.398 4.8,-3.602 5.4,-3.602 6,-4.199 7.2,-4.801 7.2,-4.796 7.8,-5.403 7.8,-6 9,-5.398 8.4,-6 8.4,-6 9,-6 8.4,-5.403 8.4,-5.398 7.8,-5.398 8.4,-4.801 8.4,-5.403 9,-5.398 9,-6 9.6,-5.398 9.6,-6 10.2,-6 10.2,-5.403 9.6,-6 10.2,-5.398 9,-5.403 9.6,-4.796 9,-4.801 9,-4.801 9,-4.801 9,-4.801 9.6,-4.796 9.6,-4.801 9.6,-4.801 10.2,-4.801 9.6,-4.199 9.6,-4.801 9,-4.199 8.4,-4.199 7.8,-3.602 7.8,-3 6.6,-3 6,-2.398 9,-4.199 9,-3.602 7.8,-3 6.6,-2.398 6.6,-1.801 4.8,-1.199 4.8,-1.204 4.2,-1.199 5.4,-1.199 6,-1.199 6,-1.199 6.6,-0.602 6,-1.199 h 5.4 l 4.8,-0.602 6,-0.597 h 17.4 l 5.4,0.597 4.8,0.602 5.4,0.597 5.4,1.204 6,1.199 4.8,1.801 4.8,1.199 4.8,1.801 5.4,1.796 4.8,2.403 5.4,2.398 4.8,3 4.2,2.403 4.8,2.398 4.2,3.602 4.8,3 4.8,4.199 4.8,3.597 3.6,3.602 4.2,3.602 4.2,3.597 4.2,4.801 4.8,4.199 3.6,4.801 3.6,4.199 3,3 3,3.602 3,4.801 3.6,4.796 4.2,6.602 4.8,6.602 4.8,7.796 4.8,9 4.2,6.602 4.2,7.801 4.2,8.398 5.4,8.403 4.8,9.597 5.4,10.199 5.4,9.602 5.4,9.602 4.8,9 4.8,7.796 3.6,7.801 4.2,6.602 4.8,9 4.2,7.801 4.2,7.199 3.6,6.597 3.6,5.403 2.4,4.199 2.4,4.199 2.4,3 3,4.199 3,4.801 3.6,4.801 3.6,4.801 3,4.199 3.6,4.199 3,3.602 3.6,4.199 3.6,4.199 4.2,4.199 3.6,3.602 3.6,3 3,3 4.2,3.602 4.2,3 4.2,3 4.2,2.398 3.6,2.398 4.2,2.403 4.2,2.398 4.8,1.801 4.8,1.801 4.8,1.801 4.8,1.796 4.2,1.204 5.4,1.199 5.4,1.199 5.4,0.602 4.8,1.199 5.4,0.597 4.8,0.602 5.4,0.602 6,0.597 5.4,0.602 h 6 l 5.4,0.597 h 12.6 l 5.4,0.602 h 16.8 l 6,0.602 h 10.2 l 6.6,0.597 h 6.6 l 6.6,0.602 7.2,0.597 h 7.2 l 6.6,0.602 6.6,0.602 6.6,0.597 6.6,0.602 6.6,1.199 6.6,0.602 7.2,1.199 7.2,1.199 7.2,1.199 7.2,1.199 6.6,1.204 6,1.796 6.6,1.204 5.4,1.796 6.6,1.801 6,1.801 6.6,2.398 6.6,1.801 6.6,2.403 6.6,3 6,2.398 6,2.398 5.4,2.403 4.8,3 5.4,3 6,3 5.4,3 6,3.597 5.4,4.204 5.4,3.597 5.4,3.602 4.2,3.597 4.8,4.204 4.2,3.597 4.2,4.199 4.8,4.204 4.8,4.796 4.2,4.801 4.8,4.801 4.2,5.398 3.6,4.801 3.6,4.801 3.6,4.801 3.6,4.801 3,5.398 3.6,5.398 3.6,6 3.6,6 3,6.602 3.6,6 2.4,6 3,6 2.4,5.4 2.4,6 2.4,6 2.4,6 2.4,6.6 2.4,7.2 2.4,7.2 2.4,6.6 1.8,6.6 1.8,6.6 1.8,6 1.8,6.6 1.2,6.6 1.8,7.2 1.8,7.2 1.2,8.4 1.8,9 1.2,9 1.2,9 0.6,9.6 1.2,10.2 0.6,7.2 0.6,7.8 v 9 l 0.6,9 0.6,9.6 v 10.2 l 0.6,10.8 v 63 l -0.6,10.2 v 9.6 l -0.6,10.2 -0.6,10.2 -0.6,10.2 -0.6,10.8 -0.6,11.4 -0.6,11.4 -0.6,10.8 -1.2,11.4 -1.2,10.2 -0.6,10.8 -1.2,9.6 -1.2,9.6 -0.6,9.6 -1.2,9.6 -1.2,9.6 -1.8,9.6 -1.2,10.2 -1.8,10.2 -1.8,10.8 -1.2,10.8 -1.8,10.8 -2.4,10.2 -1.8,10.2 -1.8,10.2 -1.8,9.6 -1.8,9 -1.8,9 -2.4,9 -1.8,9 -2.4,9.6 -2.4,9.6 -2.4,9.6 -2.4,10.2 -2.4,10.2 -3,10.2 -3,9.6 -2.4,10.2 -3,9 -2.4,9 -3,9 -2.4,8.4 -3,8.4 -2.4,8.4 -3,9 -3,9 -3.6,9.6 -3,9 -3.6,9.6 -3.6,9.6 -3.6,9.6 -3.6,9 -3.6,9 -3.6,8.4 -3,7.8 -3.6,8.4 -3,7.8 -3.6,7.8 -3.6,8.4 -4.2,8.4 -4.2,9 -4.2,8.4 -4.2,9 -4.2,9 -4.2,9 -4.2,8.4 -4.2,7.8 -4.2,7.8 -4.2,7.8 -4.2,7.2 -3.6,7.2 -4.2,7.2 -4.8,7.8 -4.2,7.8 -4.8,8.4 -5.4,8.4 -5.4,8.4 -4.8,9 -5.4,9 -5.4,8.4 -5.4,8.4 -5.4,8.4 -4.8,8.4 -5.4,8.4 -4.8,7.8 -4.8,7.8 -5.4,7.8 -4.8,9 -6,9 -5.4,9 -6,9.6 -6.6,9.6 -6,9.6 -6,9.6 -6,9.6 -6,9 -6,9 -5.4,8.4 -6,8.4 -5.4,8.4 -5.4,7.8 -5.4,7.8 -6,8.4 -5.4,8.4 -6,8.4 -6,8.4 -6.6,8.4 -6,9 -6,8.4 -6,8.4 -6,7.8 -6,7.8 -5.4,7.2 -4.8,7.2 -5.4,7.2 -4.8,6.6 -5.4,7.2 -5.4,7.8 -5.4,7.8 -5.4,7.8 -5.4,8.4 -6,7.8 -5.4,8.4 -5.4,7.8 -4.8,7.8 -4.8,7.8 -4.2,7.2 -4.2,7.2 -4.2,6.6 -3.6,6.6 -4.2,7.8 -3.6,7.8 -3.6,7.8 -3.6,8.4 -3.6,8.4 -3.6,9 -3,8.4 -2.4,9 -2.4,7.8 -1.8,8.4 -1.8,7.2 -1.2,7.8 -1.2,7.8 -0.6,7.8 -1.2,7.8 v 36.6 l 0.6,9 1.2,9 0.6,9 1.8,8.4 1.2,8.4 1.2,7.8 1.8,7.2 1.8,8.4 1.8,8.4 1.8,8.4 2.4,9 2.4,9.6 3,9.6 2.4,9 3,9.6 2.4,9 3,9 2.4,9 3,9 2.4,7.8 2.4,8.4 3,8.4 2.4,8.4 3,9 3,9.6 3.6,9.6 3,10.2 3,10.2 3,10.2 3,10.2 3,9.6 3,9.6 3,9.6 3,9.6 2.4,9 2.4,9.6 3,9.6 2.4,9.6 3,10.8 3,10.2 2.4,10.8 3,11.4 3,10.8 2.4,11.4 3,10.8 2.4,10.8 2.4,10.2 2.4,9.6 2.4,9.6 2.4,8.4 1.8,9 2.4,9.6 2.4,9.6 2.4,9.6 2.4,9.6 1.8,10.2 2.4,10.2 2.4,9.6 2.4,10.2 1.8,9.6 2.4,9 1.8,9 1.8,8.4 1.2,8.4 1.8,8.4 1.2,7.8 1.8,8.4 1.2,9 1.8,9 1.2,9.6 1.2,9.6 1.8,9.6 1.2,9.6 1.2,9.6 1.2,9.6 0.6,9.6 1.2,9 0.6,8.4 1.2,9 0.6,8.4 0.6,8.4 0.6,9.6 0.6,9 0.6,10.2 v 9.6 l 0.6,10.2 0.6,10.2 v 30 l 0.6,9 -0.6,9 v 27 l -0.6,9.6 v 9.6 l -0.6,10.2 -0.6,10.2 -0.6,10.8 -0.6,10.2 -0.6,10.8 -1.2,10.2 -0.6,9.6 -1.2,9.6 -0.6,9 -1.2,9.6 -1.2,9 -0.6,9 -1.2,9.6 -1.8,10.2 -1.2,10.2 -1.8,10.8 -1.8,10.8 -1.2,10.8 -1.8,10.2 -1.8,10.8 -2.4,9.6 -1.8,9.6 -1.8,9.6 -1.8,9.6 -1.8,9 -1.8,9.6 -2.4,9.6 -2.4,10.2 -2.4,10.8 -3,10.2 -2.4,11.4 -3,10.8 -2.4,10.8 -3,10.2 -3,10.2 -3,10.2 -2.4,9.6 -3,9 -3,9.6 -3,9.6 -3,9.6 -3,10.2 -3.6,10.2 -3.6,10.2 -3.6,10.2 -3,10.2 -3.6,9.6 -3.6,9 -3,8.4 -3,8.4 -3,7.2 -3,6.6 -4.2,9 -3.6,9 -4.2,8.4 -4.2,8.4 -4.2,7.8 -4.2,7.2 -3.6,6.6 -4.2,6.6 -3.6,5.4 -3,5.4 -3.6,5.4 -4.2,5.4 -4.2,6 -4.2,6 -4.2,5.4 -4.2,6 -4.8,5.4 -4.2,5.4 -4.2,5.4 -4.2,4.2 -4.2,4.8 -4.2,4.8 -4.8,4.8 -4.8,4.8 -5.4,4.8 -4.8,4.8 -5.4,4.8 -4.8,4.2 -4.8,3.6 -4.8,3.6 -4.8,3.6 -4.8,3.6 -5.4,3 -6,3.6 -6,3.6 -5.4,3 -6,3 -6,3 -5.4,2.4 -5.4,2.4 -5.4,1.8 -5.4,2.4 -6,1.8 -6.6,1.8 -6,1.8 -6.6,1.8 -6.6,1.2 -6.6,1.2 -6,1.2 -5.4,0.6 -6,0.6 -6,0.6 -6.6,0.6 -7.2,0.6 h -27.6 l -6,-0.6 h -6 l -6.6,-0.6 -6.6,-0.6 -6.6,-1.2 -7.2,-0.6 -7.2,-1.2 -7.2,-1.2 -7.2,-1.2 -6.6,-1.8 -6.6,-1.2 -6,-1.2 -6.6,-1.8 -6,-1.2 -7.2,-1.8 -6.6,-1.8 -7.2,-1.8 -6.6,-1.8 -6.6,-1.8 -5.4,-1.8 -5.4,-1.2 -4.8,-1.2 -6,-1.8 -5.4,-1.8 -5.4,-1.8 -5.4,-1.2 -4.8,-1.2 -4.2,-1.8 -4.2,-1.2 -4.2,-0.6 -4.8,-1.8 -5.4,-1.2 -6,-1.8 -5.4,-1.2 -5.4,-1.2 -4.8,-1.2 -5.4,-0.6 -4.8,-0.6 -5.4,-1.2 -5.4,-0.6 H 2753 l -4.2,-0.6 -5.4,0.6 h -4.8 l -5.4,0.6 -4.8,0.6 -4.8,0.6 -4.2,1.2 -4.8,1.2 -4.8,1.2 -5.4,1.8 -4.8,1.8 -4.2,1.8 -4.2,1.8 -4.8,2.4 -4.8,2.4 -4.8,3 -4.8,3 -4.2,2.4 -4.2,3 -4.2,3 -4.8,3.6 -4.8,3.6 -4.2,3 -4.2,3.6 -3.6,2.4 -3,2.4 -4.2,3.6 -4.8,4.2 -6,4.8 -6,5.4 -6.6,6 -7.8,7.2 -4.8,4.2 -4.8,4.8 -6,5.4 -6.6,6 -6.6,6.6 -7.8,6.6 -7.8,7.8 -7.8,7.2 -8.4,7.2 -8.4,7.8 -7.8,7.2 -8.4,7.2 -7.8,7.2 -7.8,6.6 -6.6,6 -7.2,6 -7.2,6 -7.8,6.6 -8.4,6.6 -8.4,6.6 -9,6.6 -9,7.2 -9.6,6.6 -9.6,7.2 -10.2,6.6 -9.6,6.6 -10.2,6.6 -10.2,6 -10.2,6.6 -10.2,6 -9,4.8 -9,5.4 -9.6,4.8 -9.6,5.4 -10.8,5.4 -10.8,5.4 -11.4,6 -11.4,5.4 -12.6,6 -12,5.4 -12.6,6 -13.2,5.4 -12.6,5.4 -12.6,5.4 -12.6,4.8 -12,5.4 -12.6,4.2 -11.4,4.8 -12,4.2 -12,4.2 -11.4,4.2 -12,4.2 -12.6,3.6 -12.6,4.2 -12.6,3.6 -13.2,3.6 -13.8,4.2 -13.8,3.6 -13.8,3.6 -14.4,3 -14.4,3.6 -13.8,3 -14.4,3 -13.8,3 -13.2,2.4 -13.2,1.8 -13.2,2.4 -12.6,1.8 -12.6,1.8 z"
       style="fill:none;stroke:#000000;stroke-width:27;stroke-linecap:butt;stroke-linejoin:bevel;stroke-miterlimit:10;stroke-dasharray:none;stroke-opacity:1"
       transform="matrix(0.13333333,0,0,-0.13333333,0,624)" />
    <path
       id="path5"
       d="m 1868.6,178.602 10.2,-6.602 10.8,-6.602 10.8,-6.597 11.4,-6 12,-6.602 12,-6.597 12.6,-6.602 12.6,-6 12.6,-6.602 13.2,-6 13.2,-6 13.2,-6 13.2,-5.398 12.6,-5.3984 12.6,-4.8008 12.6,-4.8008 12,-4.8008 12,-3.5976 12,-4.2032 12,-3.5976 11.4,-3.6016 12,-3 12.6,-3.5976 12.6,-3 12.6,-3 13.2,-3 13.8,-2.4024 13.8,-3 13.8,-2.3984 14.4,-1.8008 13.8,-2.3984 14.4,-1.8008 13.8,-1.8008 13.8,-1.1992 13.8,-1.1992 13.2,-0.6016 12.6,-0.6016 12.6,-0.5976 12,-0.6016 h 24.6 l 12.6,0.6016 12.6,0.5976 12.6,0.6016 13.2,0.6016 13.2,1.1992 13.8,1.1992 14.4,1.8008 13.8,1.8008 14.4,2.3984 13.8,1.8008 14.4,2.3984 13.8,3 13.2,2.4024 13.2,3 13.2,3 12.6,3 12,3.5976 12,3 12,3.6016 11.4,3.5976 12,4.2032 12,3.5976 12,4.8008 12.6,4.8008 12.6,4.8008 12.6,5.3984 13.2,5.398 13.2,6 13.2,6 13.2,6 12.6,6.602 12.6,6 12.6,6.602 12,6.597 12,6.602 11.4,6 10.8,6.597 10.8,6.602 10.8,6.602 10.2,6.597 10.2,7.199 10.8,7.204 10.8,7.199 10.8,7.801 11.4,8.398 11.4,8.398 11.4,8.403 11.4,9 11.4,9.597 10.8,9 11.4,9.602 10.8,9 10.8,9.602 10.2,9 10.2,9 9.6,9 9,9 9,8.398 9,9 8.4,9 9,9 9,9 8.4,9.602 9,9.597 9,10.199 9.6,10.204 9,10.796 9,10.204 9,10.796 8.4,10.801 8.4,10.199 8.4,10.204 7.8,10.199 7.2,9.597 7.2,9.602 6.6,9 6,8.398 6,8.403 6,8.398 6.6,10.199 6.6,10.204 6.6,9.597 6,10.199 6,10.801 6,10.199 6,10.204 5.4,10.796 5.4,10.204 4.8,9.597 4.8,10.199 4.8,9 4.2,9 4.2,9 3.6,8.403 3.6,8.398 3.6,8.403 3.6,8.398 3.6,9 3.6,9 3.6,9 4.2,9.602 3.6,9.597 3.6,10.199 4.2,9.602 3.6,9.602 3,9.597 3.6,9 3,9 3,9 3,8.403 3,8.398 3,9.602 3,9.597 3.6,10.199 3,10.204 3,10.796 3.6,10.801 3,11.403 3,10.796 3,11.403 3,10.801 2.4,10.199 2.4,10.199 2.4,9.602 2.4,9.597 2.4,9 1.8,10.201 2.4,9.6 2.4,10.2 1.8,10.2 2.4,10.2 1.8,10.2 2.4,9.6 1.8,9 1.2,9 1.8,7.8 1.8,7.8 1.2,6.6 1.2,6 1.8,9.6 1.8,7.8 1.2,7.8 1.8,6.6 1.2,6 1.2,4.8 1.2,3.6 1.2,3.6 1.2,4.8 1.2,5.4 1.8,4.8 1.8,5.4 1.8,4.8 1.8,4.2 1.8,4.2 1.8,4.2 1.8,4.8 2.4,4.2 2.4,4.2 1.8,3.6 2.4,3.6 3,3.6 2.4,3.6 3,3.6 3,3.6 3,3 3,2.4 3.6,3 3.6,3 3.6,2.4 3.6,2.4 3.6,2.4 4.2,1.8 3.6,2.4 4.8,1.8 4.8,2.4 4.2,1.8 4.2,1.2 4.2,1.8 5.4,1.2 4.8,1.8 5.4,1.2 4.8,1.8 4.8,1.2 3.6,0.6 4.2,1.2 4.8,1.2 5.4,1.2 6.6,1.2 7.8,1.2 8.4,1.2 9.6,1.8 7.2,1.2 7.8,1.2 8.4,1.8 9.6,1.2 10.2,1.8 10.2,1.8 10.2,1.2 10.2,1.8 9.6,1.8 8.4,1.2 8.4,1.8 7.2,1.2 9,1.8 8.4,1.8 7.8,1.8 6.6,1.8 6,1.8 4.8,1.8 3.6,1.2 4.2,1.8 4.2,1.8 5.4,1.8 5.4,2.4 4.8,2.4 5.4,2.4 4.2,2.4 4.2,2.4 4.2,3 4.8,3 4.8,3 3.6,3 3.6,3 3.6,3 3.6,3.6 3.6,3.6 3.6,4.2 3,3.6 2.4,3.6 2.4,4.2 2.4,4.2 3,4.2 1.8,4.8 2.4,4.8 1.8,4.2 1.2,4.2 1.8,4.8 1.2,5.4 1.2,5.4 1.2,5.4 1.2,4.8 0.6,4.8 0.6,5.4 0.6,5.4 v 6 l 0.6,5.4 v 39 l -0.6,5.4 v 4.8 l -0.6,5.4 v 12 l -0.6,6.6 -0.6,6.6 v 13.2 l -0.6,6.6 v 12 l -0.6,6 v 45.6 l 0.6,5.4 v 7.2 l 0.6,7.2 0.6,7.8 0.6,7.8 1.2,7.2 0.6,7.2 1.2,7.2 1.2,6.6 1.2,6 1.8,6.6 1.8,6.6 1.8,7.2 2.4,7.2 2.4,6.6 2.4,6 2.4,6 3,5.4 2.4,6 3.6,6 3.6,6.6 3.6,6 4.2,6 3.6,5.4 3.6,5.4 4.2,5.4 4.2,5.4 4.8,5.4 4.8,6 5.4,5.4 5.4,6 4.8,4.8 5.4,5.4 3.6,3.6 4.2,4.2 4.8,4.2 4.8,4.2 4.8,4.8 5.4,4.8 4.8,4.2 5.4,4.2 4.2,4.2 4.8,3.6 4.8,4.2 4.8,4.2 5.4,4.2 5.4,4.8 6.6,4.8 6.6,5.4 7.2,5.4 6.6,6 7.8,5.4 7.8,6 5.4,4.2 6.6,4.8 6.6,5.4 7.8,5.4 7.8,5.4 7.8,6.6 9,6 8.4,6.6 9,6.6 8.4,6.6 8.4,6.6 8.4,6.6 8.4,6 7.8,6.6 6.6,5.4 7.2,5.4 7.2,6 7.2,6.6 7.2,6 7.8,6.6 7.8,7.2 8.4,7.2 7.8,7.2 7.8,7.2 7.2,7.2 7.8,7.2 7.2,7.2 6.6,7.2 6.6,7.2 6.6,7.2 6.6,7.2 6.6,7.8 6.6,7.8 7.2,8.4 7.2,9 7.2,9 7.2,9.6 7.2,9.6 7.2,9.6 7.2,10.2 7.2,9.6 6.6,9.6 6,9.6 6,9 6,9 6,9 5.4,9 5.4,9.6 5.4,9.6 6,9.6 5.4,10.2 6,10.8 5.4,10.8 5.4,10.8 6,11.4 4.8,10.8 5.4,10.8 4.8,10.8 4.2,10.2 4.2,10.2 4.2,10.2 3.6,9.6 3.6,9.6 3.6,10.2 3.6,10.2 3.6,10.8 3,10.8 3.6,11.4 3,11.4 3,11.4 3,12 2.4,11.4 2.4,11.4 2.4,11.4 1.8,10.8 1.8,10.8 1.8,10.2 1.2,10.2 1.2,9.6 0.6,10.8 0.6,10.2 1.2,10.8 v 11.4 l 0.6,11.4 v 23.4 l -0.6,12 -0.6,11.4 -0.6,11.4 -0.6,11.4 -1.2,10.8 -1.2,10.2 -1.2,10.2 -1.8,10.2 -1.8,9.6 -1.8,10.2 -1.8,10.2 -2.4,10.8 -3,10.8 -3,10.8 -3,11.4 -3.6,11.4 -3.6,11.4 -3.6,10.8 -3.6,10.8 -4.2,10.8 -4.2,10.2 -4.2,9.6 -3.6,9.6 -4.2,9 -4.8,9 -4.8,9.6 -4.8,9.6 -5.4,9.6 -5.4,9.6 -6,10.2 -6,10.2 -6.6,10.2 -6,10.2 -7.2,9.6 -6.6,10.2 -6.6,9 -6.6,9 -6.6,9 -6.6,7.8 -6,8.4 -7.2,7.8 -6.6,8.4 -7.2,8.4 -7.8,8.4 -7.8,8.4 -7.8,9 -9,8.4 -8.4,9 -9,8.4 -8.4,8.4 -9,8.4 -8.4,7.8 -9,7.8 -7.8,7.2 -8.4,7.2 -7.8,7.2 -8.4,6.6 -8.4,6.6 -9,7.2 -9,6.6 -9,7.2 -9.6,7.2 -9.6,7.2 -10.2,6.6 -10.2,7.2 -9.6,6.6 -9.6,6.6 -9.6,6 -9,5.4 -9,5.4 -9,5.4 -8.4,4.8 -8.4,4.8 -8.4,4.8 -9,4.2 -9,4.8 -9.6,4.2 -9,4.8 -9.6,4.2 -10.2,4.8 -9.6,4.2 -9.6,4.2 -9.6,3.6 -9,3.6 -9,3.6 -8.4,3.6 -8.4,3 -8.4,3 -9.6,3.6 -9.6,3 -10.2,3.6 -9.6,3.6 -10.8,3.6 -10.2,3.6 -10.2,3.6 -10.2,3 -10.2,3.6 -9,3 -9,3 -7.8,2.4 -7.8,2.4 -6.6,2.4 -9,3 -9,3 -8.4,3 -8.4,3 -8.4,3 -7.2,3 -7.2,2.4 -6.6,3 -6,1.8 -5.4,2.4 -5.4,2.4 -6,2.4 -6,2.4 -6,2.4 -6.6,3 -6,2.4 -6,3 -5.4,2.4 -5.4,2.4 -5.4,2.4 -6,3 -6.6,3.6 -6.6,3.6 -6.6,3.6 -6.6,4.2 -6.6,4.2 -6,3.6 -4.8,3.6 -5.4,3.6 -5.4,4.2 -5.4,4.8 -6,4.8 -5.4,4.8 -4.8,4.8 -4.8,4.8 -4.2,4.2 -4.2,4.8 -4.2,5.4 -4.2,5.4 -4.2,6 -4.2,6 -4.2,6 -3.6,5.4 -3,6 -3,5.4 -3.6,6 -3,6.6 -3.6,7.2 -3,7.2 -3,7.2 -2.4,6.6 -3,6.6 -1.8,5.4 -1.8,5.4 -2.4,6 -1.8,6 -2.4,6 -1.8,6.6 -2.4,6.6 -1.8,6 -1.8,6 -1.8,5.4 -1.8,6 -1.2,6 -1.8,6 -2.4,6.6 -1.8,6.6 -1.8,6.6 -1.8,6 -1.2,5.4 -1.8,4.8 -1.2,4.8 -1.2,5.4 -1.8,5.4 -1.8,4.8 -1.2,5.4 -1.8,4.8 -1.2,4.2 -1.2,3.6 -1.8,4.2 -1.8,4.8 -1.8,4.8 -2.4,5.4 -2.4,5.4 -1.8,4.8 -2.4,4.8 -2.4,4.2 -2.4,4.8 -3,4.8 -3,4.2 -3,4.2 -2.4,3.6 -3,3.6 -3.6,3.6 -3.6,4.2 -3.6,3 -3.6,3.6 -3.6,2.4 -4.2,3 -3.6,2.4 -4.8,3 -4.8,2.4 -4.2,1.8 -4.2,1.8 -4.2,1.8 -5.4,1.8 -4.8,1.8 -5.4,1.2 -5.4,1.2 -4.8,1.2 -4.8,0.6 -5.4,0.6 -5.4,0.6 -6,0.6 -5.4,0.6 h -4.8 l -4.2,0.6 h -9.6 l -6,-0.6 h -6.6 l -7.8,-0.6 -9,-1.2 -9,-1.2 -7.2,-1.2 -8.4,-1.2 -8.4,-1.2 -9.6,-1.2 -10.2,-1.8 -10.2,-1.8 -10.2,-1.2 -10.2,-1.8 -9,-1.8 -9,-1.2 -7.8,-1.2 -7.2,-1.2 -9.6,-1.2 -8.4,-1.2 -7.2,-1.2 -7.2,-1.2 -5.4,-0.6 h -5.4 l -3.6,-0.6 h -4.2 l -4.8,-0.6 h -5.4 l -5.4,-0.6 h -19.8 l -4.2,0.6 h -5.4 l -4.8,0.6 -4.2,0.6 -4.2,1.2 -4.2,0.6 -4.2,1.2 -4.8,1.2 -4.2,1.8 -4.2,1.8 -3.6,1.8 -3.6,1.8 -4.2,1.8 -3.6,2.4 -4.2,3 -3.6,2.4 -3,3 -3.6,2.4 -3,3.6 -3.6,3 -3.6,4.2 -3.6,3.6 -2.4,3 -3,3.6 -3.6,4.2 -3,4.2 -3,4.8 -3,4.2 -3,4.2 -2.4,3 -1.8,3 -3,4.2 -3,4.8 -3.6,6 -4.2,6.6 -4.2,7.2 -4.8,8.4 -3,5.4 -3,6 -3.6,6.6 -4.2,7.2 -4.2,7.8 -4.8,7.8 -5.4,9 -4.8,9 -5.4,9 -5.4,9 -4.8,9 -5.4,8.4 -4.8,8.4 -5.4,8.4 -4.8,8.4 -5.4,8.4 -5.4,8.4 -6,9 -6,9.6 -6.6,9.6 -6.6,9.6 -6,9.6 -6.6,9 -6.6,9.6 -6.6,8.4 -6,9 -6,8.4 -6,7.8 -6,7.8 -6,8.4 -6.6,8.4 -6.6,8.4 -6.6,9 -7.2,8.4 -6.6,8.4 -6.6,8.4 -6.6,7.8 -6,7.2 -5.4,6.6 -4.8,6 -4.8,6 -4.2,4.8 -7.2,7.8 -6,6.6 -6,6 -5.4,5.4 -4.8,4.8 -4.2,3.6 -3.6,3 -3,2.4 -4.8,3.6 -4.8,3.6 -4.8,3.6 -5.4,3.6 -4.8,3 -4.2,3 -4.8,2.4 -4.8,3 -5.4,3 -5.4,2.4 -5.4,2.4 -4.2,1.8 -5.4,1.8 -4.8,1.2 -6,1.8 -5.4,1.2 -5.4,1.2 -4.8,0.6 -5.4,0.6 h -22.2 l -4.8,-0.6 -5.4,-0.6 -5.4,-0.6 -6,-1.2 -5.4,-1.2 -5.4,-1.2 -5.4,-1.8 -5.4,-1.8 -5.4,-1.8 -6,-1.8 -5.4,-2.4 -5.4,-2.4 -5.4,-2.4 -3.6,-1.8 -4.2,-1.8 -5.4,-2.4 -5.4,-3 -6.6,-3.6 -7.2,-4.2 -7.8,-5.4 -8.4,-5.4 -6.6,-4.2 -6.6,-5.4 -7.8,-5.4 -8.4,-5.4 -9,-6.6 -9,-6.6 -9.6,-6 -8.4,-6.6 -8.4,-6 -7.8,-5.4 -7.2,-4.8 -6,-4.8 -8.4,-6 -7.2,-4.8 -7.2,-4.8 -6,-4.2 -4.8,-3.6 -4.8,-3 -3.6,-2.4 -3.6,-1.8 -4.8,-3 -4.8,-2.4 -4.8,-3 -5.4,-3 -4.8,-2.4 -4.8,-2.4 -4.2,-1.8 -4.8,-2.4 -5.4,-1.8 -5.4,-1.8 -4.8,-1.8 -4.2,-1.2 -4.2,-1.2 -4.8,-1.2 -5.4,-1.2 -5.4,-0.6 -4.8,-0.6 -4.2,-0.6 h -15 l -4.8,0.6 -5.4,0.6 -4.2,0.6 -4.8,0.6 -5.4,1.2 -5.4,1.2 -5.4,1.2 -4.8,1.8 -4.8,1.2 -4.8,1.8 -4.8,1.8 -6,1.8 -5.4,2.4 -4.8,1.8 -4.8,2.4 -3.6,1.2 -4.2,1.8 -4.2,2.4 -4.8,1.8 -4.8,2.4 -5.4,2.4 -4.8,2.4 -5.4,2.4 -4.8,1.8 -5.4,2.4 -5.4,1.8 -6,3 -6.6,2.4 -6.6,3 -6.6,2.4 -6.6,2.4 -6,2.4 -6,2.4 -6,1.8 -6.6,2.4 -6.6,2.4 -7.2,1.8 -7.2,2.4 -6.6,1.8 -7.2,1.8 -6.6,1.8 -6.6,1.2 -6,1.8 -6,0.6 -6,1.2 -6.6,1.2 -7.2,1.2 -6.6,0.6 -7.2,0.6 -6.6,0.6 h -6.6 l -6,0.6 h -12 l -6,-0.6 h -6.6 l -6.6,-0.6 -6.6,-1.2 -6.6,-0.6 -6.6,-1.2 -6,-1.2 -6,-1.2 -5.4,-1.2 -5.4,-1.8 -6,-1.8 -6,-1.8 -6,-2.4 -6.6,-2.4 -6,-3 -6,-2.4 -6,-3 -5.4,-2.4 -4.8,-3 -5.4,-3 -5.4,-3 -5.4,-3.6 -6,-3.6 -5.4,-4.2 -6,-4.2 -5.4,-4.2 -4.8,-4.2 -5.4,-3.6 -4.2,-4.2 -4.8,-4.2 -4.8,-4.2 -4.8,-4.8 -5.4,-4.8 -5.4,-5.4 -4.8,-5.4 -4.8,-5.4 -4.8,-4.8 -4.8,-5.4 -4.2,-4.8 -4.2,-4.8 -4.2,-5.4 -4.2,-5.4 -4.8,-6.6 -5.4,-6.6 -4.8,-7.2 -5.4,-7.8 -4.8,-7.8 -5.4,-8.4 -4.8,-8.4 -3.6,-6.6 -4.2,-6.6 -4.2,-7.8 -4.2,-7.8 -4.2,-9 -4.8,-9 -4.8,-9.6 -5.4,-9.6 -4.8,-9.6 -4.2,-9.6 -4.8,-9.6 -4.2,-9 -4.2,-9 -4.2,-9 -4.2,-9 -3.6,-9 -4.2,-9.6 -4.2,-9.6 -4.2,-10.2 -4.2,-10.2 -4.2,-10.8 -4.2,-10.2 -3.6,-10.2 -4.2,-10.2 -3.6,-9.6 -3,-9.6 -3.6,-9 -3,-9 -3,-9 -3,-9 -3,-9.6 -3,-9.6 -3.6,-10.2 -3,-10.2 -3,-10.2 -3,-10.8 -3,-10.2 -2.4,-10.2 -3,-9.6 -2.4,-9.6 -2.4,-9 -1.8,-9 -2.4,-9 -1.8,-9 -2.4,-9 -1.8,-9.6 -2.4,-10.2 -1.8,-10.2 -1.8,-10.2 -2.4,-10.8 -1.8,-10.2 -1.8,-9.6 -1.2,-9.6 -1.8,-9.6 -1.2,-9 -1.2,-8.4 -1.2,-9 -1.2,-9 -1.2,-9 -1.2,-9.6 -1.2,-10.2 -0.6,-9.6 -1.2,-10.2 -0.6,-10.2 -1.2,-10.2 -0.6,-9.6 -0.6,-9.6 -0.6,-9 -0.6,-9 v -8.4 l -0.6,-8.4 -0.6,-9 v -27.6 l -0.6,-10.2 v -9.6 l 0.6,-10.2 V 3379 l 0.6,-9 v -9 l 0.6,-8.4 0.6,-8.4 v -8.4 l 0.6,-8.4 0.6,-8.4 0.6,-9.6 1.2,-9 0.6,-10.2 1.2,-9.6 0.6,-10.2 1.2,-10.2 1.2,-10.2 0.6,-10.2 1.2,-10.2 1.2,-9.6 1.2,-9.6 0.6,-9 1.2,-9 1.2,-9.6 0.6,-10.2 1.2,-10.8 1.2,-10.8 1.2,-10.8 1.8,-11.4 1.2,-11.4 1.2,-11.4 1.8,-11.4 1.2,-10.8 1.2,-10.2 1.2,-10.2 1.8,-10.2 1.2,-9.6 1.8,-9.6 1.2,-9.6 1.8,-9.6 1.2,-10.2 1.8,-10.2 1.8,-10.2 1.8,-10.2 2.4,-10.2 1.8,-10.8 1.8,-9.6 1.8,-10.2 1.8,-9 1.2,-9 1.8,-9 1.2,-8.4 1.8,-7.8 1.8,-9 1.2,-9 1.8,-9.6 1.2,-9.6 1.8,-9.6 1.2,-9.6 1.2,-9.6 1.8,-9.6 0.6,-9.6 1.2,-9 0.6,-8.4 1.2,-8.4 0.6,-7.8 v -7.2 l 0.6,-9 v -17.4 l -0.6,-9 -0.6,-9.6 -0.6,-9 -1.2,-9 -1.2,-9 -1.2,-8.4 -1.8,-8.4 -1.8,-7.2 -2.4,-7.8 -1.8,-7.2 -3,-7.2 -3,-7.8 -3,-7.8 -4.2,-8.4 -3.6,-7.8 -4.8,-8.4 -4.2,-7.8 -4.8,-7.8 -4.8,-7.8 -4.8,-7.2 -4.8,-6.6 -4.8,-6.6 -4.8,-6 -4.8,-6.6 -5.4,-6.6 -5.4,-7.2 -6,-7.2 -6.6,-7.2 -6.6,-7.2 -6.6,-7.8 -6,-7.2 -6.6,-7.2 -6.6,-6.6 -6,-7.2 -6.6,-6.6 -5.4,-6 -6,-6 -6,-6.6 -6.6,-6.6 -6.6,-7.2 -6.6,-7.2 -7.2,-7.2 -7.2,-7.8 -7.2,-7.8 -7.2,-7.2 -7.2,-7.8 -6.6,-7.8 -7.2,-7.2 -6.6,-7.8 -6.6,-7.2 -6,-7.2 -6.6,-7.2 -6.6,-7.2 -6.6,-7.8 -7.2,-8.4 -7.2,-8.4 -7.2,-8.4 -7.2,-9 -7.2,-8.4 -7.2,-9 -7.2,-8.4 -7.2,-8.4 -6.6,-8.4 -6.6,-7.8 -6,-7.2 -6,-7.2 -5.4,-7.2 -6,-7.8 -6.6,-7.2 -6,-7.8 -6.6,-7.8 -6.6,-8.4 -6,-7.8 -6.6,-7.8 -6,-7.8 -6,-7.8 -6,-7.8 -5.4,-7.2 -5.4,-7.2 -5.4,-6.6 -4.8,-6.6 -4.8,-6.6 -4.8,-7.2 -5.4,-7.2 -5.4,-7.8 -5.4,-7.8 -5.4,-7.8 -5.4,-8.4 -5.4,-8.4 -5.4,-7.8 -4.8,-8.4 -5.4,-7.8 -4.2,-7.8 -4.8,-7.2 -4.2,-7.8 -4.8,-7.2 -4.2,-7.8 -4.2,-7.8 -4.8,-8.4 -4.8,-8.4 -4.8,-9 -4.8,-9 -4.8,-9 -4.2,-9 -4.798,-8.4 -4.204,-9 -4.199,-8.4 -3.597,-7.8 -3.602,-8.4 -4.199,-7.8 -3.602,-8.4 -3.597,-8.4 -4.204,-9 -3.597,-9.6 -4.199,-9.6 -4.204,-9.6 -3.597,-9.6 -4.199,-9.6 -3.602,-9.6 -3.602,-9 -3,-9 -3.597,-9 -3,-8.4 -3,-9 -3,-9 -3,-9 -3,-9.6 -3.602,-10.2 -3,-10.2 -3,-10.2 -3,-10.8 -3,-10.2 -3,-10.2 -3,-9.6 -2.398,-9.6 -2.403,-9.6 -2.398,-9 -2.398,-9 -1.801,-9.6 -2.403,-9.6 -2.398,-10.2 -2.398,-10.8 -2.403,-10.8 -2.398,-10.8 -1.801,-10.8 -2.398,-11.4 -1.801,-10.2 -1.801,-10.8 -1.801,-10.2 -1.801,-9.6 -1.199,-9.6 -1.801,-9.6 -1.199,-10.2 -1.801,-9.6 -1.199,-10.8 -1.199,-10.8 -1.199,-10.8 -1.199,-10.8 -1.204,-10.2 -1.199,-10.2 -0.597,-10.2 -0.602,-9 -0.602,-8.4 -0.597,-7.8 -0.602,-7.8 -0.597,-9.6 v -28.2 l 0.597,-8.4 v -8.4 l 0.602,-7.8 1.199,-7.2 0.602,-7.2 0.597,-6 1.199,-6.6 0.602,-6.6 1.199,-6.6 1.199,-7.2 1.801,-7.2 1.199,-7.2 1.801,-7.2 1.199,-6.6 1.801,-6 1.801,-6 1.801,-6 1.801,-6 1.796,-6.6 2.403,-6.6 2.398,-6.6 3,-6.6 2.403,-6 3,-6 2.398,-5.4 3,-5.4 2.398,-5.4 3,-5.4 3.602,-5.4 3.602,-5.4 3.597,-6 4.199,-5.4 3.602,-5.4 4.199,-4.8 3.602,-4.8 4.199,-4.2 3.602,-4.2 4.199,-4.2 4.801,-4.2 4.796,-4.8 4.801,-4.2 5.403,-4.2 5.398,-4.2 4.801,-3.6 5.398,-3.6 4.801,-3.6 4.801,-3 5.398,-3 5.403,-3.6 6,-3 6.597,-3.6 6.001,-3 6.6,-3 6,-2.4 6,-2.4 5.4,-2.4 6,-2.4 6,-1.8 6.6,-2.4 6.6,-2.4 7.2,-1.8 7.2,-2.4 6.6,-1.8 7.2,-1.8 6,-1.8 6.6,-1.2 6,-1.802 6.6,-1.199 6.6,-1.199 7.2,-1.801 7.2,-1.199 6.6,-1.199 6.6,-1.199 6,-1.204 5.4,-1.199 4.8,-0.597 6,-1.204 5.4,-0.597 6,-1.199 5.4,-0.602 4.8,-1.199 4.8,-0.602 4.2,-0.597 3.6,-0.602 5.4,-1.199 5.4,-1.199 6,-1.204 5.4,-1.199 5.4,-1.199 4.8,-1.199 4.8,-1.199 5.4,-1.204 5.4,-1.796 4.8,-1.801 4.8,-1.801 4.8,-1.801 4.2,-2.398 4.2,-2.403 4.8,-2.398 4.2,-2.398 4.2,-3 3.6,-2.403 3.6,-3 3.6,-3.597 4.2,-3 3.6,-4.204 3.6,-3.597 3,-3 3,-3.602 3,-4.199 3.6,-4.199 3,-4.801 3,-4.199 2.4,-4.199 3,-4.204 2.4,-4.796 3,-5.403 2.4,-4.801 3,-5.398 2.4,-4.801 1.8,-3.597 1.8,-3.602 1.8,-4.801 3,-6 2.4,-6.597 3,-7.801 3.6,-8.403 4.2,-9.597 2.4,-6 2.4,-6.602 3,-7.199 3,-8.398 3.6,-9 3.6,-9 4.2,-10.204 3.6,-10.199 4.2,-10.199 4.2,-10.199 4.2,-10.199 4.2,-10.204 4.2,-9.597 4.2,-9.602 3.6,-8.398 3.6,-8.403 4.2,-9 4.2,-9 4.8,-9 4.8,-10.199 4.8,-9.597 5.4,-10.204 5.4,-10.796 6,-10.204 6,-10.199 6,-10.801 6,-10.199 6.6,-9.597 6.6,-10.204 6.6,-10.199 6,-8.398 6,-8.403 6,-8.398 6.6,-9 7.2,-9.602 7.2,-9.597 7.8,-10.199 8.4,-10.204 8.4,-10.199 8.4,-10.801 9,-10.796 9,-10.204 9,-10.796 9.6,-10.204 9,-10.199 9,-9.597 8.4,-9.602 9,-9 9,-9 8.4,-9 9,-9 9,-8.398 9,-9 9.6,-9 10.2,-9 10.2,-9 10.8,-9.602 10.8,-9 11.4,-9.602 10.8,-9 11.4,-9.597 11.4,-9 11.4,-8.403 11.4,-8.398 11.4,-8.398 10.8,-7.801 10.8,-7.199 10.8,-7.204 10.2,-7.199 z"
       style="fill:none;stroke:#000000;stroke-width:27;stroke-linecap:butt;stroke-linejoin:bevel;stroke-miterlimit:10;stroke-dasharray:none;stroke-opacity:1"
       transform="matrix(0.13333333,0,0,-0.13333333,0,624)" />
    <path
       id="path6"
       d="m 312.199,1415.8 1.199,-12.6 1.801,-12.6 1.801,-12.6 1.801,-12.6 2.398,-13.2 2.403,-13.8 3,-13.8 3,-13.8 3,-13.8 3,-14.4 3.597,-13.8 3.602,-13.8 4.199,-13.8 3.602,-13.8 4.199,-12.6 4.199,-12.6 4.199,-12.6 4.199,-12 4.204,-11.4 4.796,-11.4 4.204,-11.4 4.796,-11.4 5.403,-11.4 5.398,-12 5.403,-12 6,-12 6.597,-12.6 6,-12 7.199,-12.6 7.204,-12.6 7.199,-12 7.199,-12.6 7.199,-11.399 7.801,-12 L 471.199,976 479,964.602 486.199,954.398 494,944.199 501.199,934.602 509,925 l 7.199,-9.602 8.403,-9.597 7.796,-9.602 9,-9.597 8.403,-9.602 9.597,-9.602 9.602,-10.199 9.602,-9.597 10.199,-10.204 10.801,-9.597 10.199,-9.602 10.801,-9.597 10.796,-9 10.801,-9 10.199,-8.403 10.204,-8.398 L 672.801,766 683,758.199 693.199,751 l 10.199,-7.199 10.204,-6.602 10.199,-7.199 10.801,-6.602 11.398,-6.597 11.398,-7.199 11.403,-6.602 12.597,-6.602 12,-7.199 13.204,-6.597 12.597,-6.602 13.199,-6 13.204,-6.602 12.597,-6 13.199,-5.398 12.602,-5.398 12,-5.403 12,-4.801 12,-4.199 12,-4.199 12,-4.199 11.398,-4.199 12,-4.204 12.602,-3.597 12.602,-3.602 12.598,-3.597 13.2,-3.602 13.8,-3.602 13.8,-3.597 14.4,-3.602 14.4,-3 13.8,-3 14.4,-3 14.4,-2.398 13.8,-3 13.2,-1.801 13.2,-2.398 13.2,-1.801 12.6,-1.801 12.6,-1.801 12.6,-1.199 12,-1.199 12.6,-1.199 13.2,-1.204 12.6,-1.199 13.2,-0.597 13.8,-1.204 13.2,-0.597 14.4,-0.602 h 13.8 l 13.8,-0.597 h 64.8 l 12,0.597 11.4,0.602 h 10.8 l 10.2,0.597 9.6,1.204 12.6,0.597 11.4,1.199 12,1.204 12,1.796 12,1.801 11.4,1.801 12,1.801 11.4,1.801 11.4,2.398 11.4,2.398 10.2,2.403 10.2,2.398 9.6,2.403 9.6,1.796 9,2.403 9,2.398 8.4,2.403 9,2.398 9,3 9,2.398 9.6,3 10.2,3 9.6,3 10.2,3 9.6,3.602 10.2,3 9.6,3 9,3.602 9,3 9,3 8.4,3 8.4,3 9,3.597 9.6,3.602 10.2,3.597 10.2,4.204 10.2,4.199 10.8,4.199 10.8,4.801 10.8,4.199 10.2,4.801 10.2,4.199 9.6,4.801 9.6,4.199 9,4.199 9,4.199 9,4.204 8.4,4.199 9.6,4.801 9,4.199 9,4.801 9.6,4.796 9,4.801 9,4.199 8.4,4.801 7.8,3.602 7.2,4.199 6.6,3.602 6,3 6,3 8.4,4.199 7.2,3.597 7.2,3.602 6,3 5.4,2.398 4.8,1.801 3.6,1.801 3.6,1.199 4.2,1.801 4.8,2.398 5.4,1.801 4.8,1.801 4.8,1.199 4.8,1.801 4.2,1.199 4.8,1.199 4.8,1.204 4.8,1.199 4.8,0.597 4.2,0.602 4.2,0.602 h 18 l 4.2,-0.602 3.6,-0.602 4.2,-0.597 4.8,-1.199 4.2,-1.204 4.2,-1.199 4.2,-1.801 4.2,-1.796 4.2,-1.801 4.2,-1.801 4.2,-2.398 4.2,-2.403 4.2,-2.398 4.2,-2.403 4.2,-3 4.2,-3 4.2,-3.597 4.2,-3 4.2,-3 3,-1.801 3,-3 4.2,-3 4.2,-3.602 5.4,-4.199 5.4,-5.398 6.6,-5.403 7.2,-6.597 5.4,-4.801 6,-5.398 6.6,-6 7.2,-6 7.2,-7.204 7.8,-6.597 7.8,-7.199 7.8,-6.602 7.2,-6.602 6.6,-6 6,-5.398 5.4,-4.801 7.2,-6 6.6,-5.398 6,-4.801 5.4,-4.199 5.4,-3.602 4.2,-3 3.6,-2.398 3,-1.801 4.8,-2.398 4.8,-3 5.4,-2.403 4.8,-2.398 4.8,-2.403 4.8,-1.796 4.8,-1.801 4.8,-1.801 5.4,-1.801 4.8,-1.199 4.8,-1.199 4.8,-1.199 4.8,-0.602 4.8,-0.602 4.8,-0.597 h 15 l 4.2,0.597 4.8,0.602 5.4,0.602 4.8,1.199 4.8,1.199 4.8,1.199 4.2,1.801 4.8,1.801 4.8,2.398 5.4,1.801 4.2,2.398 4.8,3 4.2,2.403 4.2,3 4.8,3 4.8,3 4.8,3.597 4.2,3 3,2.403 3,2.398 3.6,3 4.2,3 4.2,3.602 4.2,3 4.2,3.597 4.2,3.602 3.6,3.602 3.6,3 4.8,4.199 4.8,3.597 4.8,4.801 4.8,4.199 5.4,4.204 4.8,4.796 4.8,3.602 4.8,4.199 4.2,3.602 4.8,4.199 5.4,4.199 4.8,4.199 5.4,4.204 5.4,4.199 4.8,4.199 4.8,3.602 4.8,3.597 4.8,3.602 5.4,4.199 6,3.602 6.6,4.796 6.6,4.204 6,4.199 6.6,3.597 6,3.602 6,3 5.4,3 6.6,2.398 6,3 7.2,3 6.6,2.403 6.6,2.398 6.6,1.801 6,1.801 6,1.199 6.6,1.801 6.6,1.199 7.2,1.199 7.2,0.602 7.2,0.597 6.6,0.602 6.6,0.602 h 21 l 7.8,-0.602 7.8,-0.602 7.8,-0.597 7.2,-0.602 6.6,-0.597 5.4,-0.602 6,-1.199 6,-0.602 6.6,-1.199 6.6,-1.199 6.6,-1.199 6.6,-1.204 6.6,-1.199 6,-1.199 6,-1.199 6,-1.199 6,-1.204 6.6,-1.199 7.8,-1.801 7.8,-1.796 8.4,-1.801 8.4,-1.801 9,-2.398 9,-1.801 9,-2.403 7.2,-2.398 7.8,-1.801 8.4,-2.398 8.4,-1.801 9.6,-3 10.2,-2.398 10.2,-3 10.8,-2.403 10.2,-3 10.8,-2.398 10.2,-2.403 10.2,-3 10.2,-2.398 9.6,-1.801 9,-2.398 8.4,-1.801 9,-1.801 9.6,-1.801 9.6,-1.796 10.2,-1.801 10.2,-1.801 10.8,-1.801 10.2,-1.801 10.8,-1.199 10.2,-1.801 10.2,-1.199 10.2,-1.199 9.6,-0.602 10.2,-0.597 9.6,-0.602 9.6,-0.597 10.2,-0.602 10.2,-0.602 h 45.6 l 12.6,0.602 12,0.602 12,0.597 12,0.602 11.4,0.597 11.4,1.204 11.4,1.199 10.2,0.597 10.8,1.204 10.8,1.199 10.2,1.801 11.4,1.796 10.8,1.204 12,2.398 11.4,1.801 12.6,2.398 12,2.403 12,2.398 12,3 11.4,3 11.4,2.398 10.8,3 10.8,3 10.2,3 9.6,3 10.2,3.602 10.2,3 10.2,4.199 10.2,3.602 10.8,4.199 10.8,4.199 10.8,4.801 11.4,4.801 10.8,5.398 10.8,4.801 10.2,5.398 10.2,5.403 9.6,5.398 9.6,4.801 9,5.398 8.4,5.403 9,5.398 8.4,5.403 9,6 8.4,6.597 9.6,6.602 9,6.597 9,7.204 9,7.796 9.6,7.204 8.4,7.796 8.4,7.801 8.4,7.801 7.8,7.199 7.2,7.801 7.2,7.199 7.2,7.801 6.6,7.199 6.6,7.801 6.6,7.801 6.6,9 7.2,8.398 6.6,9.602 6.6,9.597 6.6,9.602 6.6,9.6 6.6,10.2 6,9.6 5.4,9.6 5.4,9.6 5.4,9 4.8,9.6 4.8,9 4.2,9 4.2,9.6 4.2,9.6 4.2,10.2 4.2,10.8 4.2,10.8 4.2,10.8 4.2,11.4 3.6,12 3.6,11.4 3.6,10.8 3,11.4 3,10.8 2.4,10.2 3,10.2 1.8,10.8 2.4,10.2 1.8,10.2 2.4,10.8 1.8,11.4 1.8,11.4 1.2,11.4 1.8,12.6 1.2,12 1.8,12.6 0.6,12 1.2,12 0.6,11.4 1.2,11.4 v 11.4 l 0.6,10.8 0.6,10.2 v 43.8 l -0.6,12 v 12 l -0.6,12 -0.6,12 -1.2,12 -0.6,12 -1.2,11.4 -1.2,11.4 -1.2,10.8 -1.2,10.2 -1.2,10.2 -1.8,9.6 -1.2,9.6 -1.8,9.6 -1.8,9.6 -2.4,10.2 -2.4,10.2 -2.4,10.2 -2.4,10.2 -2.4,10.2 -3,10.2 -2.4,10.2 -3,10.2 -3,9 -2.4,9.6 -3,8.4 -3,9 -2.4,8.4 -3.6,9 -3,10.2 -3.6,9.6 -3.6,10.2 -3.6,10.2 -3.6,10.2 -4.2,10.2 -3.6,10.2 -3.6,9.6 -3,9 -3.6,9 -3,7.8 -2.4,7.2 -2.4,7.2 -3.6,9 -3,9 -3,8.4 -3,8.4 -3,7.8 -2.4,7.8 -2.4,7.2 -1.8,6.6 -1.8,6 -1.8,6 -1.8,6 -1.8,6 -1.8,6 -1.8,6.6 -1.8,6.6 -1.2,6.6 -1.8,6 -1.8,6 -1.2,6 -1.2,5.4 -1.2,6.6 -1.8,7.2 -1.2,7.8 -1.2,7.8 -1.2,7.8 -0.6,7.2 -0.6,6.6 -0.6,6.6 v 6.6 l -0.6,6.6 0.6,7.2 v 7.2 l 0.6,7.2 0.6,7.2 0.6,6.6 1.2,6 0.6,6.6 1.8,6 1.2,7.2 1.8,6.6 2.4,7.2 2.4,6.6 1.8,6.6 2.4,6 2.4,6 3,6 3,6.6 3.6,7.2 3.6,7.2 3.6,6.6 3.6,6 3.6,6 2.4,4.8 3,5.4 3.6,5.4 3.6,5.4 3.6,5.4 3.6,6 4.2,5.4 3.6,5.4 3,4.8 3.6,5.4 3.6,4.8 3.6,4.8 3.6,5.4 4.2,5.4 3.6,6 4.2,5.4 3.6,4.8 3.6,4.8 3,4.2 2.4,4.2 3.6,4.2 3,4.8 3,4.2 3,4.8 3,3.6 2.4,4.2 2.4,3.6 1.8,3 2.4,4.8 3,4.8 3,4.8 2.4,5.4 2.4,4.8 2.4,4.2 1.8,4.2 1.8,4.8 1.8,5.4 1.8,5.4 1.2,4.8 1.2,4.2 1.2,4.8 0.6,4.8 0.6,5.4 0.6,4.8 v 9.6 l -0.6,4.2 v 4.8 l -1.2,5.4 -0.6,5.4 -1.2,4.8 -1.2,4.2 -1.2,4.2 -1.8,4.8 -1.8,5.4 -2.4,4.8 -2.4,4.8 -1.8,4.8 -2.4,4.2 -3,4.8 -3,4.8 -3,4.8 -3,4.8 -3,4.2 -2.4,3 -2.4,3.6 -3.6,4.2 -3.6,4.2 -4.8,5.4 -5.4,5.4 -6,6 -6.6,7.2 -5.4,4.8 -6,5.4 -6.6,6 -7.2,6.6 -7.2,6.6 -7.8,7.2 -7.8,7.2 -7.2,6.6 -7.2,6.6 -6.6,5.4 -6,5.4 -5.4,5.4 -7.2,6 -6,6 -5.4,5.4 -5.4,4.8 -4.2,4.2 -3,3 -3,3 -2.4,3 -3.6,3.6 -3.6,4.2 -3.6,4.2 -3.6,3.6 -3,4.2 -2.4,3.6 -3,3.6 -3,4.2 -2.4,4.2 -2.4,4.2 -2.4,3.6 -1.8,4.2 -2.4,3.6 -1.8,4.2 -1.8,4.2 -1.2,4.8 -1.2,4.2 -1.2,3.6 -0.6,4.2 -1.2,4.2 v 4.8 l -0.6,4.8 v 12.6 l 0.6,4.8 v 4.8 l 1.2,4.8 0.6,4.8 0.6,4.8 1.2,4.2 1.2,4.8 1.2,5.4 1.8,5.4 1.2,4.8 1.8,4.8 0.6,3.6 1.2,4.2 1.8,4.2 1.8,6 2.4,6 3,7.2 3,7.8 3.6,9 1.8,6 3,6 2.4,7.2 3,7.2 3.6,8.4 3.6,9 3.6,9 3.6,9.6 3.6,10.2 4.2,9.6 3.6,9.6 3.6,9.6 3,9 3.6,9 3,9.6 3.6,9 3.6,10.2 3,10.2 3.6,10.2 3.6,10.8 3.6,11.4 3,10.8 3.6,10.8 3,10.8 3,10.8 3,10.2 2.4,9.6 3,10.2 2.4,9.6 2.4,9.6 3,10.2 2.4,10.8 2.4,10.8 2.4,10.8 2.4,10.2 2.4,10.8 2.4,9.6 1.8,9.6 1.8,8.4 1.8,7.8 1.2,7.2 1.2,6.6 1.8,10.2 1.2,9 1.2,8.4 1.2,7.2 0.6,6.6 v 25.8 l -0.6,6 -0.6,6.6 v 5.4 l -0.6,5.4 -1.2,5.4 -0.6,5.4 -1.2,6 -1.8,6 -1.2,5.4 -1.8,4.8 -1.2,4.8 -2.4,4.8 -2.4,5.4 -2.4,5.4 -2.4,4.8 -2.4,4.2 -3,4.2 -3,4.8 -3,4.2 -4.2,4.8 -3.6,4.2 -3,3.6 -4.2,3.6 -3.6,3.6 -4.8,4.2 -4.8,3.6 -4.2,3.6 -4.2,3 -4.8,3 -4.8,3 -5.4,3.6 -5.4,3 -4.8,3 -5.4,2.4 -3.6,2.4 -4.2,1.8 -4.8,2.4 -6,2.4 -7.2,2.4 -7.8,3 -8.4,3 -10.2,3 -7.2,2.4 -8.4,2.4 -9,2.4 -9.6,3 -10.8,3 -10.8,3 -10.2,3 -10.8,3 -9.6,3 -9,2.4 -8.4,2.4 -7.2,2.4 -10.2,2.4 -8.4,3 -7.8,2.4 -7.2,1.8 -6,2.4 -4.8,1.2 -4.2,1.8 -3.6,1.2 -5.4,1.8 -5.4,2.4 -5.4,2.4 -5.4,2.4 -4.8,1.8 -4.8,2.4 -4.2,2.4 -4.8,2.4 -4.8,2.4 -4.8,3 -4.2,3 -4.2,2.4 -3.6,3 -3.6,3 -4.2,3 -4.2,3.6 -3,3.6 -3.6,3 -3,3.6 -3,3.6 -3,4.2 -3,4.8 -3,4.2 -2.4,3.6 -1.8,4.2 -2.4,4.8 -2.4,4.8 -2.4,5.4 -1.8,4.8 -1.8,4.8 -1.8,4.8 -1.8,4.8 -1.8,6 -1.8,5.4 -1.2,5.4 -1.8,5.4 -0.6,3.6 -1.2,4.2 -1.2,4.8 -1.2,4.8 -1.8,5.4 -1.2,5.4 -1.2,5.4 -1.8,5.4 -1.2,4.8 -1.8,5.4 -1.2,6 -1.8,6.6 -2.4,6.6 -1.8,6.6 -2.4,6.6 -1.8,6.6 -1.8,6.6 -2.4,6 -1.8,6 -2.4,6.6 -2.4,6 -3,7.2 -2.4,6.6 -3,6.6 -3,6.6 -2.4,6.6 -3,5.4 -2.4,6 -3,5.4 -3,5.4 -3.6,6 -3.6,6 -3.6,6 -3.6,6 -3.6,5.4 -4.2,5.4 -3.6,4.8 -3.6,4.8 -3.6,4.2 -4.2,4.8 -4.2,4.8 -4.8,4.8 -4.8,4.8 -4.8,4.8 -4.8,4.2 -4.8,4.2 -4.8,3.6 -4.8,3.6 -4.2,3.6 -5.4,3.6 -5.4,3.6 -5.4,3 -6,3.6 -6,3 -5.4,3 -6,3 -5.4,2.4 -5.4,2.4 -6,2.4 -5.4,1.8 -6,2.4 -6.6,1.8 -7.2,2.4 -6.6,1.8 -6.6,1.2 -6.6,1.8 -6,1.2 -6,1.2 -6.6,1.2 -6,0.6 -6.6,1.2 -7.2,0.6 -7.2,1.2 -7.2,0.6 -7.2,0.6 -7.2,0.6 h -6.6 l -6.6,0.6 h -36.6 l -9,-0.6 -9,-1.2 -9,-0.6 -9.6,-1.2 -9.6,-1.2 -7.8,-1.2 -7.8,-1.2 -8.4,-1.8 -9,-1.8 -9.6,-1.8 -10.2,-1.8 -10.2,-2.4 -10.8,-1.8 -10.8,-2.4 -10.2,-2.4 -10.2,-2.4 -10.2,-2.4 -9.6,-2.4 -9.6,-2.4 -9.6,-2.4 -9.6,-3 -9.6,-2.4 -10.2,-3 -10.8,-3 -10.2,-3 -10.8,-3 -10.8,-3.6 -10.8,-3 -10.2,-3.6 -9.6,-3 -9.6,-3.6 -9.6,-3 -8.4,-3 -9,-3.6 -9,-3 -9.6,-3.6 -9.6,-3.6 -9.6,-3.6 -10.2,-4.2 -10.2,-4.2 -9.6,-4.2 -10.2,-4.2 -9.6,-4.2 -9,-3.6 -9,-4.2 -8.4,-3.6 -8.4,-4.2 -8.4,-3.6 -8.4,-4.2 -8.4,-4.2 -9,-4.2 -9,-4.8 -9.6,-4.8 -9,-4.8 -9.6,-4.8 -9,-5.4 -9,-4.8 -8.4,-4.8 -7.8,-4.2 -8.4,-4.8 -7.2,-4.2 -7.8,-4.8 -7.8,-4.8 -7.8,-4.8 -8.4,-4.8 -8.4,-5.4 -8.4,-5.4 -8.4,-5.4 -8.4,-5.4 -8.4,-6 -8.4,-5.4 -7.8,-5.4 -7.2,-4.8 -7.2,-5.4 -7.2,-4.8 -6.6,-5.4 -7.2,-4.8 -7.2,-5.4 -7.2,-6 -7.8,-6 -7.8,-6 -7.8,-6 -7.2,-6 -7.8,-6.6 -7.2,-6 -7.2,-6 -6.6,-5.4 -6,-6 -6.6,-5.4 -6,-5.4 -6.6,-6 -6,-6 -7.2,-6 -6.6,-6.6 -7.2,-7.2 -7.2,-6.6 -7.2,-7.2 -7.8,-7.2 -7.2,-7.2 -7.2,-7.2 -7.2,-7.2 -6.6,-6.6 -7.2,-7.2 -6.6,-6 -6,-6.6 -7.2,-6.6 -7.2,-7.2 -7.2,-7.8 -7.8,-7.2 -7.8,-8.4 -8.4,-7.8 -7.8,-8.4 -7.8,-7.8 -7.8,-8.4 -7.8,-7.8 -7.2,-7.8 -7.2,-7.2 -7.2,-7.2 -6.6,-7.2 -6.6,-7.2 -6.6,-7.2 -6.6,-7.2 -6.6,-7.2 -7.2,-7.8 -6.6,-7.8 -7.2,-7.8 -7.2,-8.4 -6.6,-7.8 -7.2,-7.8 -6.6,-7.2 -6,-7.2 -6,-7.2 -6,-6.6 -5.4,-6 -5.4,-6.6 -6.6,-6.6 -6,-7.2 -6,-7.2 -6.6,-7.2 -6.6,-7.2 -7.2,-7.2 -6.6,-7.2 -6.6,-6.6 -6.6,-6.6 -6.6,-6.6 -6,-6 -6,-5.4 -5.4,-5.4 -6,-4.8 -6.6,-6 -6.6,-5.4 -6.6,-5.4 -7.8,-5.4 -7.2,-5.4 -7.8,-5.4 -7.8,-4.8 -7.8,-4.2 -7.2,-4.2 -7.8,-3.6 -6.6,-3.6 -7.2,-3 -7.2,-2.4 -7.2,-3 -7.8,-2.4 -8.4,-1.8 -9,-2.4 -9,-1.8 -9,-1.8 -9,-1.2 -9,-1.2 -9,-1.2 -8.4,-0.6 -8.4,-0.6 h -7.8 l -7.8,-0.6 h -25.8 l -9.6,0.6 h -9.6 l -9.6,0.6 -10.2,0.6 -9.6,0.6 -9.6,0.6 -9.6,0.6 -9,0.6 -9,0.6 -8.4,0.6 -8.4,0.6 -9,1.2 -9,0.6 -9.6,0.6 -10.2,1.2 -10.2,0.6 -10.2,0.6 -10.8,1.2 -10.2,0.6 -10.8,0.6 -10.2,1.2 -10.2,0.6 -9.6,0.6 -9.6,0.6 -9.6,0.6 h -10.2 l -9.6,0.6 -10.2,0.6 h -10.8 l -10.8,0.6 -11.4,0.6 h -22.8 l -11.4,0.6 h -11.4 l -10.8,0.6 h -39.6 l -8.4,0.6 h -109.2 l -9,-0.6 H 1361 l -8.4,-0.6 -8.4,-0.6 -9,-0.6 -9,-0.6 -9.6,-0.6 -9.6,-0.6 -9.6,-1.2 -10.2,-0.6 -9.6,-1.2 -9.6,-0.6 -9,-1.2 -9,-1.2 -8.4,-1.2 -9,-1.2 -8.4,-1.2 -8.4,-1.2 -9,-1.2 -9.6,-1.8 -9.6,-1.8 -9.6,-1.8 -10.2,-1.8 -10.2,-1.8 -9.6,-2.4 -9.6,-1.8 -9.6,-1.8 -9,-2.4 -9,-1.8 -8.4,-2.4 -9,-1.8 -8.4,-2.4 -9.6,-2.4 -9,-2.4 -10.2,-3 -9.6,-2.4 -10.2,-3 -10.2,-3 -10.2,-3 -9.6,-3 -9.599,-3 -9,-3 -9,-3 -8.403,-3 -8.398,-3 -9,-3 -9,-3.6 -9.602,-3.6 -9.597,-3.6 -10.199,-3.6 -10.204,-4.2 -10.199,-4.2 -9.597,-4.2 -10.204,-4.2 -9,-3.6 -9,-4.2 -9,-3.6 -8.398,-4.2 -9,-3.6 -8.398,-4.2 -9.602,-4.2 -9,-4.8 -9.602,-4.8 -10.199,-4.8 -9.597,-5.4 -10.204,-4.8 -9.597,-5.4 -9.602,-4.8 -9.597,-5.4 -9,-4.8 -8.403,-4.8 -8.398,-4.8 -9,-4.8 -8.403,-5.4 -9,-4.8 -9,-5.4 -9,-6 -9.597,-5.4 -9,-6 -9,-5.4 -8.403,-6 -8.398,-5.4 -7.801,-4.8 -7.199,-4.8 -6.602,-4.8 -6,-4.2 -7.796,-6 -7.801,-5.4 -7.199,-6 -7.204,-6 -6.597,-5.4 -6,-6 -6,-5.4 -5.403,-4.8 -4.796,-4.8 -4.204,-4.8 -4.796,-4.8 -4.204,-4.8 -4.796,-4.8 -4.801,-6 -4.801,-5.4 -4.801,-5.4 -4.199,-5.4 -4.199,-5.4 -4.199,-5.4 -3.602,-4.8 -3.602,-5.4 -3,-5.4 -3.597,-5.4 -4.199,-6 -3,-6 -3.602,-6 -3,-6 -3,-6 -3,-5.4 -2.398,-5.4 -2.403,-5.4 -1.801,-6 -2.398,-6 -1.801,-6 -2.398,-6.6 -1.801,-6.6 -1.801,-6 -1.199,-6 -1.199,-6 -0.602,-6 -1.199,-5.4 -0.602,-6 -0.597,-6.6 -0.602,-6.6 v -6.6 l -0.597,-6.6 0.597,-7.2 v -12 l 0.602,-6 0.597,-6 0.602,-6 1.199,-6.6 1.199,-6.6 1.204,-7.2 1.796,-6.6 1.204,-6.6 1.796,-6.6 1.801,-6 1.801,-6 1.801,-6 1.801,-6 2.398,-6.6 2.398,-6.6 3,-6.6 2.403,-7.2 3,-6.6 3,-6.6 2.398,-6 3,-5.4 3,-6 3,-6 3,-6 3,-6.6 3.602,-6 3,-6 3,-6 3,-5.4 3,-4.8 2.398,-4.2 2.403,-5.4 3,-4.8 3,-4.8 2.398,-4.8 3,-4.8 1.801,-4.2 2.398,-3.6 1.801,-3.6 2.398,-4.8 3,-4.8 2.403,-5.4 3,-5.4 1.801,-4.8 2.398,-4.8 1.801,-4.2 1.801,-4.8 2.398,-5.4 1.801,-5.4 1.199,-4.8 1.199,-4.2 1.199,-4.8 1.204,-4.8 0.597,-5.4 0.602,-4.8 0.597,-4.8 v -14.4 l -0.597,-5.4 v -4.8 l -0.602,-4.8 -1.199,-4.8 -0.602,-4.8 -1.199,-4.8 -1.801,-5.4 -1.796,-5.4 -1.204,-4.8 -1.796,-4.8 -1.801,-4.8 -2.403,-5.4 -1.796,-5.4 -2.403,-5.4 -2.398,-4.8 -2.403,-4.8 -1.796,-3.6 -1.801,-4.2 -2.403,-4.8 -3,-5.4 -3,-6.6 -4.199,-7.2 -4.199,-7.8 -5.398,-9 -3,-5.4 -3.602,-6.6 -4.199,-6.6 -4.199,-7.8 -4.801,-7.8 -4.801,-9 -5.398,-9 -5.403,-9.6 -5.398,-9.6 -5.403,-10.2 -5.398,-9.6 -5.398,-9 -4.801,-9.6 -4.801,-9 -4.199,-7.8 -4.801,-8.4 -4.199,-8.4 -4.199,-9 -4.801,-9.6 L 407,2044 402.801,2033.8 398,2023 393.199,2012.2 389,2001.4 384.199,1990 380,1978.6 l -4.199,-10.8 -3.602,-11.4 -4.199,-11.4 -3.602,-11.4 -3,-9.6 -2.398,-10.2 -3,-10.2 -3,-10.8 -3,-11.4 -3,-12 -3,-12 -3,-12.6 -3,-13.2 -2.398,-13.2 -3,-13.8 -3,-13.8 -2.403,-13.2 -2.398,-13.8 -1.801,-13.2 -2.398,-13.2 -1.801,-12.6 -1.801,-12.6 -1.801,-12.6 -1.199,-12.6 -1.199,-12 -1.801,-12.6 -0.602,-13.2 -1.199,-13.2 -1.199,-13.2 -0.602,-13.8 -0.597,-13.8 -0.602,-14.4 v -15 l -0.597,-14.4 V 1522 l 0.597,-14.4 v -13.8 l 0.602,-13.8 1.199,-13.2 0.602,-13.2 1.199,-13.2 1.199,-12.6 z"
       style="fill:none;stroke:#000000;stroke-width:27;stroke-linecap:butt;stroke-linejoin:bevel;stroke-miterlimit:10;stroke-dasharray:none;stroke-opacity:1"
       transform="matrix(0.13333333,0,0,-0.13333333,0,624)" />
    <path
       id="path7"
       d="m 309.199,3403.6 -9,-9 -8.398,-9 -9,-9 -9,-9.6 -9,-10.2 -9,-10.2 -9,-10.8 -9,-10.8 -9,-11.4 -9,-11.4 -9,-11.4 -8.403,-11.4 -8.398,-11.4 -7.801,-11.4 -7.801,-11.4 -7.199,-10.8 -7.199,-11.4 -6.602,-10.8 -6.597,-10.2 -6,-10.8 -6,-10.8 -6,-10.8 -6,-11.4 -5.403,-11.4 -6,-12 -6,-12 -5.398,-12.6 -5.3984,-13.2 -5.4024,-12.6 -5.3984,-13.8 -5.4024,-13.2 -4.7968,-13.2 -4.8008,-13.2 -4.1992,-13.2 -4.2032,-12.6 -3.5976,-12.6 -3.6016,-12.6 -3,-12 -3,-12 -3,-12 -3,-12 -2.3984,-12 -2.4024,-12.6 -1.7968,-12.6 -2.4024,-12.6 -1.8008,-13.8 -1.7968,-13.2 -1.2032,-14.4 L 29.6016,2827 29,2812.6 27.8008,2798.2 27.1992,2783.8 26.6016,2770 26,2756.2 v -27 l 0.6016,-12.6 V 2704 l 0.5976,-12.6 1.1992,-12 0.6016,-12.6 1.1992,-12.6 1.1992,-12.6 1.8008,-12.6 1.8008,-13.2 2.3984,-13.8 1.8008,-13.8 3,-13.8 2.4024,-13.8 3,-14.4 3,-14.4 3.5976,-13.8 3,-13.8 3.6016,-13.8 3.5976,-13.2 4.2032,-12.6 3.5976,-12.6 3.6016,-12.6 4.1992,-12 4.1992,-11.4 4.1992,-12 4.2032,-11.4 4.7968,-12 4.8006,-12.6 5.403,-12 5.398,-12.6 5.398,-13.2 6,-13.2 6.602,-13.2 6,-12.6 6.602,-13.2 6.597,-13.2 6.602,-12.6 6.597,-12.6 6.602,-12 6.602,-11.4 6.597,-11.4 6.602,-11.4 6.597,-10.8 6.602,-10.2 6.602,-10.8 7.199,-10.2 7.199,-10.8 7.199,-10.8 7.199,-10.8 7.801,-10.8 8.403,-11.4 7.796,-11.4 8.403,-10.8 8.398,-10.8 8.403,-10.8 8.398,-10.8 8.398,-10.2 7.801,-9.6 7.801,-9.6 7.801,-9 7.199,-8.4 7.199,-8.4 6.602,-7.2 7.199,-7.8 7.801,-8.4 8.398,-9 8.403,-8.4 8.398,-8.4 9,-7.8 9,-8.4 8.398,-7.8 9,-7.8 9,-7.8 8.403,-7.2 8.398,-6.6 8.403,-6.6 7.796,-6 7.801,-6 7.199,-5.4 7.204,-5.4 7.199,-5.4 7.801,-5.4 7.796,-5.4 7.801,-5.4 7.801,-6 9,-5.4 8.398,-6 8.403,-6 9,-6 8.398,-5.4 8.403,-5.4 8.398,-5.4 8.398,-4.8 7.801,-5.4 7.199,-4.8 7.801,-4.2 8.403,-5.4 9,-5.4 9,-4.8 9.597,-5.4 9.602,-6 10.199,-5.4 10.199,-5.4 10.199,-6 10.204,-5.4 9.597,-4.8 9.602,-4.8 9.597,-4.8 9,-4.8 8.403,-4.2 9,-4.2 9,-4.2 9,-4.2 9.597,-4.8 9,-4.2 9.602,-4.2 9.602,-4.2 9,-4.2 9,-4.2 7.796,-3.6 7.801,-3 6.602,-3 6,-3 6,-2.4 8.398,-4.2 7.801,-3.6 7.199,-3 6,-3 5.403,-2.4 4.199,-2.4 3.597,-1.8 3,-1.8 4.204,-2.4 4.796,-2.4 4.801,-3 4.199,-3 4.204,-2.4 4.199,-2.4 3.597,-3 4.204,-3 3.597,-3 4.199,-3 3,-3 3.602,-3 2.398,-3 3,-3.6 3.602,-3.6 2.398,-3.6 3,-3.6 1.801,-3.6 2.403,-3.6 1.796,-3.6 1.801,-4.2 1.801,-4.2 1.801,-4.2 1.199,-4.2 1.199,-4.2 0.602,-4.2 1.199,-4.8 1.199,-4.8 0.602,-4.8 0.597,-4.8 0.602,-4.2 0.602,-5.4 v -5.4 l 0.597,-5.4 v -4.8 l 0.602,-4.8 v -18.6 l -0.602,-7.2 v -7.8 l -0.597,-8.4 -0.602,-9.6 -0.602,-7.2 -0.597,-7.8 -0.602,-9 -0.597,-9.6 -0.602,-10.2 -0.602,-10.2 -0.597,-10.2 -0.602,-10.2 -0.597,-9.6 -0.602,-9 v -8.4 l -0.602,-7.2 v -33 l 0.602,-6 0.602,-4.8 0.597,-4.2 0.602,-4.2 0.597,-4.8 1.204,-5.4 1.199,-6 1.199,-5.4 1.199,-5.4 1.199,-4.8 1.801,-4.8 1.201,-4.8 1.8,-5.4 2.4,-4.8 1.8,-4.8 2.4,-4.2 1.8,-3.6 3,-4.2 2.4,-4.8 3.6,-4.2 3,-3.6 3,-3.6 3,-3 3.6,-3.6 3.6,-3.6 4.2,-3 4.2,-3 3.6,-2.4 4.2,-3 4.2,-2.4 4.8,-2.4 5.4,-2.4 4.2,-2.4 4.8,-1.8 4.8,-1.8 4.8,-1.8 5.4,-1.8 5.4,-1.8 5.4,-1.2 5.4,-1.2 3.6,-1.2 3.6,-1.2 4.8,-0.6 4.8,-1.2 4.8,-1.2 5.4,-1.2 5.4,-0.6 5.4,-1.2 4.8,-1.2 5.4,-0.6 5.4,-1.2 6.6,-1.2 6.6,-1.2 6.6,-1.2 6.6,-1.2 6,-1.2 6.6,-1.2 6,-0.6 6,-1.2 6,-1.2 6,-1.8 6.6,-1.2 6.6,-1.2 6.6,-1.8 6.6,-1.2 6,-1.8 5.4,-1.2 5.4,-1.2 6.6,-2.4 7.2,-1.8 7.2,-2.4 7.2,-2.4 7.8,-2.4 6.6,-3 6.6,-2.4 6,-2.4 6,-3 6,-3 6,-3 6.6,-3.6 6,-3.6 6,-4.2 5.4,-3.6 5.4,-3.6 4.8,-3.6 5.4,-4.2 4.8,-4.8 5.4,-4.8 5.4,-5.4 4.8,-4.8 4.8,-5.4 4.2,-4.8 4.2,-4.8 4.2,-5.4 4.8,-6 4.2,-6 4.8,-6.601 4.2,-6 3.6,-6 3.6,-6 3,-4.801 3,-5.398 3,-5.398 3.6,-5.403 3,-6 3.6,-6 3,-6 3,-5.398 3,-5.403 3,-5.398 3,-5.398 2.4,-6 3.6,-6 3,-7.204 3.6,-7.199 3.6,-7.801 4.2,-7.796 3.6,-8.403 4.2,-8.398 3.6,-9 3,-6.602 3.6,-7.199 3,-7.801 3.6,-8.398 4.2,-9 4.2,-9.602 4.2,-9.597 4.8,-10.204 4.2,-9.597 4.8,-10.199 4.2,-9.602 4.8,-9.602 4.2,-9 4.2,-9 3.6,-8.398 4.2,-7.801 4.2,-8.398 4.2,-8.403 4.8,-9 4.8,-9 4.8,-9 5.4,-9.597 5.4,-9 5.4,-9 5.4,-9 5.4,-9 5.4,-8.403 5.4,-8.398 5.4,-8.398 5.4,-7.801 5.4,-7.801 6,-8.398 6.6,-8.403 6.6,-8.398 6.6,-9 7.2,-9 7.8,-9 7.8,-9.602 7.8,-9 8.4,-9 7.8,-9 7.8,-8.398 7.8,-8.403 7.8,-7.796 7.2,-7.801 7.8,-7.801 7.8,-7.199 7.8,-7.801 7.8,-7.199 8.4,-7.801 9,-7.801 9,-7.801 9,-8.398 9.6,-7.801 9.6,-7.801 9.6,-7.199 9.6,-7.801 9,-6.597 9,-7.199 9,-6 9,-6 8.4,-6 9,-6 9,-5.403 9,-6 9.6,-5.398 10.2,-6 10.2,-5.403 10.2,-6 10.8,-5.398 10.8,-5.398 10.8,-4.801 10.8,-5.403 10.2,-4.199 10.2,-4.199 9.6,-4.199 10.2,-3.602 9.6,-3.597 9.6,-3.602 9.6,-3 10.2,-3 10.2,-3 10.8,-3 11.4,-3 11.4,-3 11.4,-2.398 11.4,-2.403 12,-1.801 10.8,-1.796 11.4,-1.801 10.8,-1.199 10.2,-1.204 10.2,-1.199 10.2,-0.597 10.2,-0.602 10.2,-0.602 h 32.4 l 11.4,0.602 11.4,0.602 12,0.597 11.4,1.199 12,1.204 11.4,1.199 10.8,1.801 10.8,1.796 10.8,1.801 10.2,1.801 9.6,1.801 10.2,2.398 10.2,2.403 10.2,3 10.8,3 10.8,3 10.8,3.597 11.4,3.602 11.4,4.199 11.4,4.199 11.4,4.199 10.8,4.204 10.8,4.796 10.2,4.204 9.6,4.199 9.6,4.801 9.6,4.796 9.6,4.801 9,4.801 9.6,4.801 10.2,6 10.2,5.398 10.2,6 10.2,6.602 10.8,6.597 10.2,6.602 10.2,6.602 10.2,6.597 9.6,7.199 9,6 9,6.602 9,6.602 8.4,6.597 8.4,6 8.4,7.199 8.4,6.602 9,7.199 9,7.801 9,7.801 9,7.801 9,8.398 9,7.801 8.4,8.398 8.4,7.801 8.4,7.801 7.2,7.801 7.8,7.199 6.6,7.801 6.6,7.199 6.6,7.199 6.6,7.199 6,7.199 6.6,7.801 6.6,8.403 6.6,8.398 6.6,8.398 6.6,8.403 6,8.398 6,8.403 6,8.398 6,7.801 5.4,8.398 4.8,7.199 5.4,7.801 4.8,7.199 5.4,8.403 5.4,9 5.4,8.398 6,9.602 5.4,9 6,9.597 5.4,9 6,9.602 5.4,8.398 4.8,8.403 4.8,7.801 4.2,7.199 4.2,7.199 3.6,6 5.4,8.398 4.8,7.801 4.8,7.801 4.8,7.199 4.8,7.199 4.2,7.204 4.2,6 4.2,6 3.6,5.398 3.6,4.801 3.6,4.801 3.6,5.398 3.6,4.801 3.6,5.398 4.2,5.403 4.2,6 3.6,4.796 4.2,4.801 3.6,4.801 3.6,4.801 4.2,4.801 4.8,6 4.8,5.398 5.4,6 5.4,5.398 4.8,5.403 5.4,4.801 4.8,4.199 4.8,4.199 4.8,4.199 6,4.801 5.4,4.199 6,4.199 6,4.204 5.4,3.597 6,3 5.4,3 5.4,3 6.6,3 6.6,3 6.6,2.403 6.6,2.398 6.6,2.398 6,1.801 6.6,1.801 6.6,1.801 7.2,1.801 7.8,1.796 7.2,1.204 7.8,1.796 7.2,1.204 7.2,0.597 5.4,0.602 6,1.199 6,0.602 6.6,0.597 6.6,0.602 6.6,0.597 h 6.6 l 6.6,0.602 6,0.602 6,0.597 h 6 l 6.6,0.602 h 6 l 7.2,0.597 h 6.6 l 6.6,0.602 6,0.602 h 6 l 5.4,0.597 h 4.8 l 5.4,0.602 h 5.4 l 5.4,0.597 5.4,0.602 h 4.8 l 4.2,0.602 4.2,0.597 4.2,0.602 4.8,0.597 5.4,0.602 6,1.199 5.4,1.199 5.4,0.602 4.8,1.199 4.8,1.199 4.8,1.802 5.4,1.8 5.4,1.8 4.8,1.8 4.2,2.4 4.2,1.8 4.2,2.4 4.2,3 4.2,3 4.2,3 3.6,3 3,3 3.6,3 3.6,3.6 3.6,4.2 3,3.6 3,4.2 2.4,3.6 3,4.2 2.4,4.8 2.4,4.8 2.4,4.8 2.4,4.2 1.8,4.8 1.8,4.8 1.8,5.4 1.8,5.4 1.8,5.4 1.8,5.4 0.6,3.6 1.2,4.2 1.2,4.8 1.2,6 1.2,6.6 1.2,7.8 0.6,8.4 1.2,10.2 0.6,7.2 0.6,7.8 0.6,9 0.6,9.6 0.6,10.2 0.6,10.2 0.6,10.2 0.6,10.2 0.6,9.6 0.6,9 0.6,7.8 0.6,7.2 0.6,9.6 0.6,8.4 0.6,7.8 0.6,7.2 0.6,5.4 0.6,4.8 0.6,4.2 0.6,3.6 1.2,4.8 0.6,5.4 1.2,5.4 0.6,5.4 1.2,4.8 1.2,4.2 1.2,4.2 1.2,4.8 1.8,4.8 1.8,4.8 1.2,4.2 1.8,4.2 1.8,3.6 2.4,4.2 2.4,4.2 2.4,3.6 2.4,3.6 3,3.6 2.4,3 3,3 3,3.6 3.6,3 3.6,3 3,2.4 3.6,2.4 3.6,3 4.2,2.4 4.8,3 3.6,2.4 4.2,1.8 4.2,2.4 4.8,1.8 4.8,2.4 4.8,1.8 4.8,2.4 4.8,1.8 3,1.2 4.2,1.8 4.8,1.2 5.4,2.4 6.6,1.8 7.2,2.4 7.8,2.4 9.6,3 5.4,1.8 6.6,1.8 7.2,2.4 7.8,2.4 9,2.4 9,2.4 9.6,3 9.6,3 10.2,3 9.6,3 10.2,3.6 9.6,3 9.6,3 9,3 9,3 9.6,3.6 9.6,3 10.2,4.2 10.8,3.6 10.2,4.2 10.8,4.2 10.8,4.2 10.8,4.2 10.8,4.2 9.6,4.2 10.2,4.2 9,3.6 9.6,4.2 9,4.2 9.6,4.2 9.6,4.2 9.6,4.8 9.6,4.8 10.2,4.8 9.6,4.8 9.6,4.8 9,4.2 8.4,4.2 7.8,4.2 7.2,3.6 6.6,3 5.4,3.6 9,4.8 8.4,4.8 7.2,4.2 6,3.6 5.4,3.6 4.2,3 4.2,3 3,3 4.2,3 4.8,4.2 4.8,4.2 4.2,4.2 4.2,3.6 4.2,4.2 3.6,3.6 3.6,4.2 4.2,4.8 3.6,4.8 3,4.8 3,4.2 3,4.2 2.4,4.8 3,4.8 2.4,5.4 2.4,4.8 1.8,4.8 1.8,4.8 1.2,4.8 1.2,6 1.2,5.4 1.2,5.4 0.6,5.4 0.6,4.8 0.6,5.4 v 23.4 l -0.6,4.8 -0.6,6 -0.6,6.6 -1.2,6 -0.6,6 -1.2,5.4 -0.6,4.2 -1.2,4.8 -1.2,4.8 -1.8,6.6 -2.4,6.6 -2.4,8.4 -3.6,8.4 -3.6,9.6 -3,7.2 -3,7.8 -3.6,9 -3.6,9.6 -4.2,9.6 -4.8,10.2 -4.2,10.8 -4.2,9.6 -3.6,9.6 -4.2,8.4 -3,7.8 -3,7.2 -3.6,9.6 -3.6,8.4 -3,7.8 -2.4,6.6 -2.4,6 -1.8,4.8 -1.2,4.2 -1.2,4.2 -1.8,4.8 -1.8,5.4 -1.8,6 -1.2,5.4 -1.8,5.4 -1.2,5.4 -0.6,4.8 -1.2,4.8 -1.2,5.4 -0.6,5.4 -0.6,5.4 v 19.2 l 0.6,5.4 0.6,4.8 0.6,4.8 0.6,4.2 1.2,4.8 1.2,5.4 1.2,4.8 1.8,4.8 1.8,4.8 1.8,4.2 1.8,4.8 2.4,4.8 3,4.8 2.4,4.8 2.4,4.2 3,4.2 2.4,4.8 3.6,4.8 3,4.8 3.6,4.8 3,4.2 2.4,3 2.4,3.6 3,3.6 3,4.2 3,4.2 3.6,4.8 3.6,4.2 3.6,4.8 2.4,4.2 3.6,4.8 3.6,4.8 3.6,5.4 4.2,5.4 4.2,6 4.2,6 3.6,5.4 3.6,6 3.6,5.4 3.6,5.4 3.6,5.4 3.6,6 3.6,6 3.6,6.6 3.6,6.6 3,6 3,6.6 3,5.4 3,6 2.4,5.4 2.4,6 2.4,6 2.4,6.6 2.4,6.6 2.4,6.6 1.8,6.6 1.8,6.6 1.8,6 1.2,5.4 1.2,6 1.2,6 0.6,6 1.2,6.6 0.6,7.2 0.6,6.6 0.6,6.6 v 23.4 l -0.6,6 -0.6,6.6 -0.6,6.6 -1.2,6.6 -1.2,6.6 -1.2,6.6 -1.2,6 -1.8,6 -1.2,6 -1.8,5.4 -1.8,6 -2.4,6 -2.4,6 -3,6.6 -2.4,6.6 -3,6.6 -3,6 -3,5.4 -2.4,5.4 -3,5.4 -3.6,6 -3,5.4 -4.2,6 -3.6,6.6 -4.2,6 -4.2,6 -3.6,5.4 -4.2,6 -3.6,4.8 -3.6,5.4 -4.2,5.4 -4.8,5.4 -4.8,6 -6,6.6 -5.4,6.6 -6.6,6.6 -6.6,6.6 -6.6,6.6 -7.2,7.2 -5.4,4.8 -6,5.4 -6.6,5.4 -6.6,6.6 -7.8,6 -7.8,6.6 -7.8,7.2 -8.4,6.6 -9,7.2 -8.4,6.6 -7.8,6.6 -8.4,6 -7.8,6 -7.8,6 -7.8,6 -7.8,6 -8.4,6 -8.4,6 -9,6.6 -9,6 -9.6,6.6 -9,6 -9,6.6 -9,6 -9,5.4 -8.4,5.4 -8.4,5.4 -7.8,4.8 -7.8,4.8 -8.4,5.4 -8.4,4.8 -9,5.4 -9,5.4 -9.6,5.4 -9.6,4.8 -9.6,5.4 -9,5.4 -9.6,4.8 -8.4,4.8 -9,4.2 -8.4,4.2 -7.8,4.2 -8.4,4.2 -8.4,4.2 -9,4.2 -9,4.2 -9,4.2 -9.6,4.2 -9.6,4.2 -9.6,4.2 -9.6,4.2 -9.6,3.6 -9,3.6 -8.4,3.6 -8.4,3.6 -8.4,3 -8.4,3.6 -8.4,3 -9,3 -9,3.6 -9,3 -9.6,3.6 -9.6,3 -10.2,3 -9.6,3 -9,3 -9,3 -9,2.4 -8.4,2.4 -8.4,2.4 -7.8,2.4 -9,1.8 -8.4,2.4 -9,2.4 -9.6,2.4 -9,1.8 -9.6,2.4 -9.6,1.8 -9.6,2.4 -9.6,1.8 -9,1.8 -8.4,1.8 -8.4,1.2 -8.4,1.8 -7.8,1.2 -8.4,1.2 -9,1.2 -9,1.8 -9.6,1.2 -9.6,1.2 -10.2,1.2 -10.2,1.2 -10.2,1.8 -9.6,1.2 -10.2,1.2 -10.2,1.2 -9.6,1.2 -9.6,1.2 -9,0.6 -9,1.2 -9.6,1.2 -10.2,1.2 -10.8,1.2 -10.8,1.2 -10.8,1.2 -11.4,1.2 -11.4,1.2 -11.4,1.2 -11.4,1.2 -10.8,1.2 -10.8,0.6 -10.2,1.2 -9.6,0.6 -10.2,1.2 -9.6,0.6 -9.6,0.6 -9.6,0.6 -10.2,0.6 -10.2,0.6 -10.8,0.6 -10.2,0.6 -10.8,0.6 h -10.2 l -10.2,0.6 -10.2,0.6 -9.6,0.6 h -9 l -9,0.6 -8.4,0.6 h -7.8 l -9.6,0.6 -9,0.6 -9.6,0.6 -9.6,0.6 -9.6,0.6 -10.2,0.6 -9.6,1.2 -9.6,0.6 -9.6,1.2 -9,0.6 -8.4,1.2 -7.8,1.2 -7.8,1.2 -7.8,1.2 -8.4,1.8 -8.4,1.8 -8.4,1.8 -9,2.4 -9,2.4 -9,3 -8.4,3 -8.4,3.6 -7.8,3 -7.8,3.6 -6.6,3.6 -6.6,3.6 -6.6,3.6 -7.2,4.2 -6.6,4.8 -6.6,4.8 -7.2,6 -7.2,5.4 -7.2,6 -6.6,6.6 -6.6,6 -6,6.6 -6,6 -6,6.6 -4.8,6 -5.4,6 -4.8,6 -5.4,6.6 -5.4,7.2 -6,7.8 -5.4,7.8 -6,7.8 -6,7.8 -5.4,7.8 -5.4,8.4 -5.4,7.8 -5.4,7.2 -4.8,7.8 -4.8,7.2 -4.8,6.6 -4.8,7.2 -5.4,7.8 -5.4,8.4 -5.4,7.8 -5.4,9 -6,8.4 -6,9 -6,8.4 -6,9 -5.4,8.4 -6,8.4 -5.4,7.8 -6,8.4 -5.4,7.8 -5.4,7.8 -6,7.8 -6,8.4 -6.6,8.4 -6.6,9 -6.6,9 -7.2,9 -6.6,9 -7.2,9 -6.6,9 -6.6,8.4 -6.6,8.4 -6,8.4 -6,7.2 -6,7.2 -5.4,7.2 -6,7.8 -6,7.8 -6,7.8 -6.6,7.8 -6,8.4 -6.6,7.8 -6.6,8.4 -6,7.8 -6.6,7.8 -6,7.2 -5.4,7.2 -6,6.6 -5.4,6.6 -5.4,6 -5.4,6.6 -6,6 -6,6.6 -6,7.2 -6.6,6.6 -6.6,7.2 -6.6,7.2 -6.6,7.2 -7.2,7.2 -6.6,6.6 -6.6,6.6 -6.6,6 -6,6 -6,6 -6.6,6 -6.6,6 -6.6,6 -7.2,6.6 -7.2,6 -7.8,6.6 -7.2,6.6 -7.8,6.6 -7.8,6.6 -7.8,6.6 -7.2,6 -7.8,6 -6.6,5.4 -7.2,5.4 -7.2,5.4 -7.2,5.4 -7.2,6 -7.8,5.4 -8.4,6 -8.4,6 -8.4,6 -9,6 -8.4,6 -8.4,6 -8.4,5.4 -7.8,5.4 -7.8,4.8 -7.8,5.4 -7.8,4.8 -7.8,4.8 -8.4,4.8 -9,5.4 -9,5.4 -9,5.4 -9.6,5.4 -9.6,5.4 -9,4.8 -9.6,5.4 -9,4.8 -8.4,4.8 -9,4.2 -8.4,4.2 -8.4,4.2 -8.4,4.8 -9,4.2 -9.6,4.8 -9.6,4.2 -10.2,4.8 -10.2,4.8 -10.2,4.2 -10.2,4.8 -9.6,4.2 -10.2,4.2 -9,4.2 -9.6,3.6 -9,3.6 -9,3.6 -9,3.6 -9.6,3.6 -10.2,3.6 -9.6,3.6 -10.8,3.6 -10.2,3.6 -9.6,3.6 -10.2,3 -9,3 -9,3 -7.8,2.4 -7.8,2.4 -7.2,1.8 -9.6,2.4 -9,2.4 -9,2.4 -9,1.8 -9,1.8 -8.4,1.2 -7.8,1.2 -7.2,1.2 -6.6,0.6 -6.6,0.6 -6,0.6 -6.6,0.6 h -7.2 l -7.2,0.6 h -7.2 l -7.8,0.6 h -13.8 l -6.6,-0.6 h -6 l -6,-0.6 -6.6,-0.6 -6.6,-0.6 -6.6,-0.6 -7.2,-1.2 -7.2,-0.6 -6.6,-1.2 -6.6,-1.2 -6,-1.8 -5.4,-1.2 -6,-1.8 -5.4,-1.8 -6.6,-1.8 -6,-2.4 -6,-2.4 -6.6,-2.4 -6,-3 -5.4,-3 -5.4,-2.4 -5.4,-3 -4.8,-3 -5.4,-3 -5.4,-3.6 -5.4,-3.6 -5.4,-4.2 -5.4,-3.6 -4.8,-4.2 -5.4,-4.2 -4.2,-4.2 -4.2,-4.2 -4.2,-4.2 -4.8,-4.2 -4.2,-4.8 -4.2,-4.8 -4.8,-5.4 -4.2,-5.4 -4.2,-6 -4.2,-4.8 -3.6,-5.4 -3.6,-4.8 -3.6,-5.4 -3.6,-5.4 -3.6,-6 -3.6,-6 -3.6,-6.6 -3.6,-6 -3.6,-6.6 -3,-6 -3,-6 -3,-5.4 -3,-6 -3,-6 -2.4,-6.6 -3,-6.6 -3,-6 -3,-6.6 -2.4,-6 -2.4,-6 -2.4,-4.8 -1.8,-4.8 -2.4,-5.4 -1.8,-5.4 -2.4,-5.4 -1.8,-4.8 -1.8,-4.8 -1.8,-4.2 -1.8,-4.2 -1.2,-3.6 -2.4,-4.8 -2.4,-5.4 -2.4,-5.4 -2.4,-5.4 -2.4,-4.8 -2.4,-4.2 -2.4,-4.2 -2.4,-4.8 -3,-4.8 -3,-4.8 -2.4,-4.2 -3,-3.6 -3,-4.2 -3,-3.6 -3.6,-4.2 -3.6,-3.6 -3.6,-3 -3,-3 -3.6,-3 -4.2,-3 -4.2,-3 -4.2,-3 -4.2,-2.4 -4.2,-2.4 -4.2,-1.8 -4.8,-2.4 -4.8,-2.4 -5.4,-1.8 -4.8,-1.8 -4.8,-1.8 -4.8,-1.8 -5.4,-1.2 -5.4,-1.8 -6,-1.2 -5.4,-1.8 -4.8,-1.2 -4.2,-0.6 -4.2,-1.2 -5.4,-1.2 -6,-1.2 -7.2,-1.2 -8.4,-1.2 -9,-1.2 -9.6,-1.8 -6.6,-1.2 -7.2,-0.6 -7.8,-1.2 -9,-1.8 -9,-1.2 -10.2,-1.2 -10.8,-1.8 -10.801,-1.8 -10.801,-1.8 -10.796,-1.8 -10.801,-1.8 -10.801,-1.8 -10.199,-1.8 -10.199,-1.8 -9,-1.8 -9.602,-1.8 -9,-1.8 -10.199,-2.4 -10.199,-2.4 -10.204,-2.4 -10.796,-2.4 -11.403,-3 -11.398,-3.6 -11.403,-3 -11.398,-3.6 -11.398,-3.6 -11.403,-3.6 -10.801,-4.2 -11.398,-4.2 -11.398,-4.2 -9,-3.6 -9.602,-4.2 -10.199,-4.2 -10.199,-4.2 -10.801,-4.8 -10.801,-5.4 -12,-5.4 -11.398,-5.4 -12,-6 -12.602,-6 -12,-6.6 -12.602,-6 -12,-6.6 -12,-6.6 -12,-6.6 -11.398,-6.6 -11.398,-6.6 -10.801,-6.6 -10.801,-6 -10.801,-6.6 -10.199,-6.6 -10.801,-7.2 -10.801,-7.2 -10.796,-7.2 -11.403,-7.8 -10.801,-7.8 -11.398,-8.4 -12,-8.4 -11.398,-9 -11.403,-9 -11.398,-9 -11.403,-9 -10.796,-9 -10.801,-9 -10.801,-9.6 -9.602,-8.4 -10.199,-9 -9,-9 -9,-8.4 z"
       style="fill:none;stroke:#000000;stroke-width:27;stroke-linecap:butt;stroke-linejoin:bevel;stroke-miterlimit:10;stroke-dasharray:none;stroke-opacity:1"
       transform="matrix(0.13333333,0,0,-0.13333333,0,624)" />
  </g>
</svg>
