<?xml version="1.0" encoding="UTF-8" standalone="no"?>
<svg
   xmlns:dc="http://purl.org/dc/elements/1.1/"
   xmlns:cc="http://creativecommons.org/ns#"
   xmlns:rdf="http://www.w3.org/1999/02/22-rdf-syntax-ns#"
   xmlns:svg="http://www.w3.org/2000/svg"
   xmlns="http://www.w3.org/2000/svg"
   xmlns:sodipodi="http://sodipodi.sourceforge.net/DTD/sodipodi-0.dtd"
   xmlns:inkscape="http://www.inkscape.org/namespaces/inkscape"
   width="130"
   height="100"
   viewBox="0 0 404.44445 27.777779"
   version="1.1"
   id="svg2"
   inkscape:version="0.48.2 r9819"
   sodipodi:docname="VD_11_Slice_Filled.svg">
  <metadata
     id="metadata435">
    <rdf:RDF>
      <cc:Work
         rdf:about="">
        <dc:format>image/svg+xml</dc:format>
        <dc:type
           rdf:resource="http://purl.org/dc/dcmitype/StillImage" />
      </cc:Work>
    </rdf:RDF>
  </metadata>
  <sodipodi:namedview
     pagecolor="#ffffff"
     bordercolor="#666666"
     borderopacity="1"
     objecttolerance="10"
     gridtolerance="10"
     guidetolerance="10"
     inkscape:pageopacity="0"
     inkscape:pageshadow="2"
     inkscape:window-width="1280"
     inkscape:window-height="698"
     id="namedview433"
     showgrid="true"
     inkscape:zoom="8.8498342"
     inkscape:cx="64.816453"
     inkscape:cy="50.225759"
     inkscape:window-x="0"
     inkscape:window-y="0"
     inkscape:window-maximized="1"
     inkscape:current-layer="svg2">
    <inkscape:grid
       type="xygrid"
       id="grid3389" />
  </sodipodi:namedview>
  <defs
     id="defs4">
    <inkscape:path-effect
       effect="spiro"
       id="path-effect3393"
       is_visible="true" />
    <filter
       id="filter"
       x="0"
       y="0"
       color-interpolation-filters="sRGB">
      <feGaussianBlur
         stdDeviation="2"
         id="feGaussianBlur7" />
      <feOffset
         dx="2"
         dy="2"
         id="feOffset9" />
    </filter>
    <linearGradient
       id="grad0"
       x1="0"
       y1="0"
       x2="0"
       y2="1">
      <stop
         offset="0%"
         style="stop-color:#DE5AAD;stop-opacity:1"
         id="stop12" />
      <stop
         offset="50%"
         style="stop-color:#8C007B;stop-opacity:1"
         id="stop14" />
    </linearGradient>
    <linearGradient
       id="grad1"
       x1="0"
       y1="0"
       x2="0"
       y2="1">
      <stop
         offset="0%"
         style="stop-color:#E31230;stop-opacity:1"
         id="stop17" />
      <stop
         offset="50%"
         style="stop-color:#DE5AAD;stop-opacity:1"
         id="stop19" />
    </linearGradient>
    <linearGradient
       id="grad2"
       x1="0"
       y1="0"
       x2="0"
       y2="1">
      <stop
         offset="0%"
         style="stop-color:#FF8429;stop-opacity:1"
         id="stop22" />
      <stop
         offset="50%"
         style="stop-color:#E31230;stop-opacity:1"
         id="stop24" />
    </linearGradient>
    <linearGradient
       id="grad3"
       x1="0"
       y1="0"
       x2="0"
       y2="1">
      <stop
         offset="0%"
         style="stop-color:#FFFF10;stop-opacity:1"
         id="stop27" />
      <stop
         offset="50%"
         style="stop-color:#FF8429;stop-opacity:1"
         id="stop29" />
    </linearGradient>
    <linearGradient
       id="grad4"
       x1="0"
       y1="0"
       x2="0"
       y2="1">
      <stop
         offset="0%"
         style="stop-color:#ADDE63;stop-opacity:1"
         id="stop32" />
      <stop
         offset="50%"
         style="stop-color:#FFFF10;stop-opacity:1"
         id="stop34" />
    </linearGradient>
    <linearGradient
       id="grad5"
       x1="0"
       y1="0"
       x2="0"
       y2="1">
      <stop
         offset="0%"
         style="stop-color:#52B552;stop-opacity:1"
         id="stop37" />
      <stop
         offset="50%"
         style="stop-color:#ADDE63;stop-opacity:1"
         id="stop39" />
    </linearGradient>
    <linearGradient
       id="grad6"
       x1="0"
       y1="0"
       x2="0"
       y2="1">
      <stop
         offset="0%"
         style="stop-color:#31ADA5;stop-opacity:1"
         id="stop42" />
      <stop
         offset="50%"
         style="stop-color:#52B552;stop-opacity:1"
         id="stop44" />
    </linearGradient>
    <linearGradient
       id="grad7"
       x1="0"
       y1="0"
       x2="0"
       y2="1">
      <stop
         offset="0%"
         style="stop-color:#63C6DE;stop-opacity:1"
         id="stop47" />
      <stop
         offset="50%"
         style="stop-color:#31ADA5;stop-opacity:1"
         id="stop49" />
    </linearGradient>
    <linearGradient
       id="grad8"
       x1="0"
       y1="0"
       x2="0"
       y2="1">
      <stop
         offset="0%"
         style="stop-color:#357EC7;stop-opacity:1"
         id="stop52" />
      <stop
         offset="50%"
         style="stop-color:#63C6DE;stop-opacity:1"
         id="stop54" />
    </linearGradient>
    <linearGradient
       id="grad9"
       x1="0"
       y1="0"
       x2="0"
       y2="1">
      <stop
         offset="0%"
         style="stop-color:#522994;stop-opacity:1"
         id="stop57" />
      <stop
         offset="50%"
         style="stop-color:#357EC7;stop-opacity:1"
         id="stop59" />
    </linearGradient>
  </defs>
  <g
     id="g3412"
     transform="translate(-55.999999,6.2222147)">
    <path
       style="fill:#8c007b;stroke:none"
       inkscape:connector-curvature="0"
       id="path61"
       d="m 196.69079,97.000001 c 57.11986,62.499999 171.3596,62.499999 228.47946,0 l -27.41753,-36 c -17.51676,19.166667 -52.55028,19.166667 -70.06704,0 l -25.89434,-34 c -9.13918,10 -27.41754,10 -36.55671,0 -3.0464,3.333333 -9.13918,3.333333 -12.18558,0 -0.76159,0.833333 -2.28479,0.833333 -3.04639,0 l -53.31187,70" />
    <path
       style="fill:#de5aad;stroke:none"
       inkscape:connector-curvature="0"
       id="path63"
       d="m 169.27325,61.000001 27.41754,36 53.31187,-70 -1.52319,-2 c -0.7616,0.833333 -2.2848,0.833333 -3.0464,0 -3.04639,3.333333 -9.13918,3.333333 -12.18557,0 -9.13918,10 -27.41754,10 -36.55671,0 l -27.41754,36" />
    <path
       style="fill:#de5aad;stroke:none"
       inkscape:connector-curvature="0"
       id="path65"
       d="m 250.00266,27.000001 c 0.7616,0.833333 2.2848,0.833333 3.04639,0 l -1.52319,-2 -1.5232,2" />
    <path
       style="fill:#de5aad;stroke:none"
       inkscape:connector-curvature="0"
       id="path67"
       d="m 253.04905,27.000001 c 3.0464,3.333333 9.13918,3.333333 12.18558,0 l -1.5232,-2 c -1.5232,1.666667 -4.56959,1.666667 -6.09279,0 -0.76159,0.833333 -2.28479,0.833333 -3.04639,0 l -1.5232,2" />
    <path
       style="fill:#de5aad;stroke:none"
       inkscape:connector-curvature="0"
       id="path69"
       d="m 265.23463,27.000001 c 9.13917,10 27.41753,10 36.55671,0 l -1.5232,-2 c -6.09278,6.666667 -18.27835,6.666667 -24.37114,0 -1.5232,1.666667 -4.56959,1.666667 -6.09278,0 -0.7616,0.833333 -2.2848,0.833333 -3.0464,0 l -1.52319,2" />
    <path
       style="fill:#de5aad;stroke:none"
       inkscape:connector-curvature="0"
       id="path71"
       d="m 301.79134,27.000001 25.89434,34 c 17.51676,19.166667 52.55028,19.166667 70.06704,0 l -13.70877,-18 c -10.66238,11.666667 -31.98713,11.666667 -42.6495,0 l -13.70877,-18 c -6.09279,6.666667 -18.27836,6.666667 -24.37114,0 l -1.5232,2" />
    <path
       style="fill:#e31230;stroke:none"
       inkscape:connector-curvature="0"
       id="path73"
       d="m 155.56448,43.000001 13.70877,18 27.41754,-36 -1.5232,-2 c -6.09279,6.666667 -18.27836,6.666667 -24.37114,0 l -15.23197,20" />
    <path
       style="fill:#e31230;stroke:none"
       inkscape:connector-curvature="0"
       id="path75"
       d="m 196.69079,25.000001 c 9.13917,10 27.41753,10 36.55671,0 l -1.5232,-2 c -0.76159,0.833333 -2.28479,0.833333 -3.04639,0 -1.52319,1.666667 -4.56959,1.666667 -6.09278,0 -6.09279,6.666667 -18.27836,6.666667 -24.37115,0 l -1.52319,2" />
    <path
       style="fill:#e31230;stroke:none"
       inkscape:connector-curvature="0"
       id="path77"
       d="m 233.2475,25.000001 c 3.04639,3.333333 9.13918,3.333333 12.18557,0 l -1.52319,-2 c -0.7616,0.833333 -2.2848,0.833333 -3.0464,0 -1.52319,1.666667 -4.56959,1.666667 -6.09278,0 l -1.5232,2" />
    <path
       style="fill:#e31230;stroke:none"
       inkscape:connector-curvature="0"
       id="path79"
       d="m 245.43307,25.000001 c 0.7616,0.833333 2.2848,0.833333 3.0464,0 l -1.5232,-2 -1.5232,2" />
    <path
       style="fill:#e31230;stroke:none"
       inkscape:connector-curvature="0"
       id="path81"
       d="m 248.47947,25.000001 1.52319,2 1.5232,-2 -1.5232,-2 -1.52319,2" />
    <path
       style="fill:#e31230;stroke:none"
       inkscape:connector-curvature="0"
       id="path83"
       d="m 251.52586,25.000001 1.52319,2 1.5232,-2 c -0.7616,-0.833333 -2.28479,-0.833333 -3.04639,0" />
    <path
       style="fill:#e31230;stroke:none"
       inkscape:connector-curvature="0"
       id="path85"
       d="m 254.57225,25.000001 c 0.7616,0.833333 2.2848,0.833333 3.04639,0 l -1.52319,-2 -1.5232,2" />
    <path
       style="fill:#e31230;stroke:none"
       inkscape:connector-curvature="0"
       id="path87"
       d="m 257.61864,25.000001 c 1.5232,1.666667 4.56959,1.666667 6.09279,0 l -1.5232,-2 c -0.7616,0.833333 -2.28479,0.833333 -3.04639,0 l -1.5232,2" />
    <path
       style="fill:#e31230;stroke:none"
       inkscape:connector-curvature="0"
       id="path89"
       d="m 263.71143,25.000001 1.5232,2 1.52319,-2 c -0.7616,-0.833333 -2.28479,-0.833333 -3.04639,0" />
    <path
       style="fill:#e31230;stroke:none"
       inkscape:connector-curvature="0"
       id="path91"
       d="m 266.75782,25.000001 c 0.7616,0.833333 2.2848,0.833333 3.0464,0 l -1.5232,-2 -1.5232,2" />
    <path
       style="fill:#e31230;stroke:none"
       inkscape:connector-curvature="0"
       id="path93"
       d="m 269.80422,25.000001 c 1.52319,1.666667 4.56958,1.666667 6.09278,0 l -1.5232,-2 c -0.76159,0.833333 -2.28479,0.833333 -3.04639,0 l -1.52319,2" />
    <path
       style="fill:#e31230;stroke:none"
       inkscape:connector-curvature="0"
       id="path95"
       d="m 275.897,25.000001 c 6.09279,6.666667 18.27836,6.666667 24.37114,0 l -1.52319,-2 c -3.0464,3.333333 -9.13918,3.333333 -12.18557,0 -1.5232,1.666667 -4.56959,1.666667 -6.09279,0 -0.7616,0.833333 -2.28479,0.833333 -3.04639,0 l -1.5232,2" />
    <path
       style="fill:#e31230;stroke:none"
       inkscape:connector-curvature="0"
       id="path97"
       d="m 300.26814,25.000001 1.5232,2 1.5232,-2 -1.5232,-2 -1.5232,2" />
    <path
       style="fill:#e31230;stroke:none"
       inkscape:connector-curvature="0"
       id="path99"
       d="m 303.31454,25.000001 c 6.09278,6.666667 18.27835,6.666667 24.37114,0 l -1.5232,-2 c -4.56959,5 -13.70876,5 -18.27835,0 -0.7616,0.833333 -2.2848,0.833333 -3.0464,0 l -1.52319,2" />
    <path
       style="fill:#e31230;stroke:none"
       inkscape:connector-curvature="0"
       id="path101"
       d="m 327.68568,25.000001 13.70877,18 c 10.66237,11.666667 31.98712,11.666667 42.6495,0 l -13.70877,-18 c -3.80799,4.166667 -11.42397,4.166667 -15.23196,0 l -1.5232,-2 c -3.04639,3.333333 -9.13918,3.333333 -12.18557,0 -1.5232,1.666667 -4.56959,1.666667 -6.09279,0 -1.52319,1.666667 -4.56959,1.666667 -6.09278,0 l -1.5232,2" />
    <path
       style="fill:#ff8429;stroke:none"
       inkscape:connector-curvature="0"
       id="path103"
       d="m 141.85571,25.000001 13.70877,18 15.23197,-20 -1.5232,-2 c -1.5232,1.666667 -4.56959,1.666667 -6.09279,0 -1.52319,1.666667 -4.56958,1.666667 -6.09278,0 -3.04639,3.333333 -9.13918,3.333333 -12.18557,0 l -3.0464,4" />
    <path
       style="fill:#ff8429;stroke:none"
       inkscape:connector-curvature="0"
       id="path105"
       d="m 170.79645,23.000001 c 6.09278,6.666667 18.27835,6.666667 24.37114,0 l -1.5232,-2 c -0.76159,0.833333 -2.28479,0.833333 -3.04639,0 -4.56959,5 -13.70877,5 -18.27836,0 l -1.52319,2" />
    <path
       style="fill:#ff8429;stroke:none"
       inkscape:connector-curvature="0"
       id="path107"
       d="m 195.16759,23.000001 1.5232,2 1.52319,-2 -1.52319,-2 -1.5232,2" />
    <path
       style="fill:#ff8429;stroke:none"
       inkscape:connector-curvature="0"
       id="path109"
       d="m 198.21398,23.000001 c 6.09279,6.666667 18.27836,6.666667 24.37115,0 l -1.5232,-2 c -0.7616,0.833333 -2.2848,0.833333 -3.04639,0 -1.5232,1.666667 -4.56959,1.666667 -6.09279,0 -3.04639,3.333333 -9.13918,3.333333 -12.18557,0 l -1.5232,2" />
    <path
       style="fill:#ff8429;stroke:none"
       inkscape:connector-curvature="0"
       id="path111"
       d="m 222.58513,23.000001 c 1.52319,1.666667 4.56959,1.666667 6.09278,0 l -1.52319,-2 c -0.7616,0.833333 -2.2848,0.833333 -3.0464,0 l -1.52319,2" />
    <path
       style="fill:#ff8429;stroke:none"
       inkscape:connector-curvature="0"
       id="path113"
       d="m 228.67791,23.000001 c 0.7616,0.833333 2.2848,0.833333 3.04639,0 l -1.52319,-2 -1.5232,2" />
    <path
       style="fill:#ff8429;stroke:none"
       inkscape:connector-curvature="0"
       id="path115"
       d="m 231.7243,23.000001 1.5232,2 1.5232,-2 c -0.7616,-0.833333 -2.2848,-0.833333 -3.0464,0" />
    <path
       style="fill:#ff8429;stroke:none"
       inkscape:connector-curvature="0"
       id="path117"
       d="m 234.7707,23.000001 c 1.52319,1.666667 4.56959,1.666667 6.09278,0 l -1.52319,-2 c -0.7616,0.833333 -2.2848,0.833333 -3.0464,0 l -1.52319,2" />
    <path
       style="fill:#ff8429;stroke:none"
       inkscape:connector-curvature="0"
       id="path119"
       d="m 240.86348,23.000001 c 0.7616,0.833333 2.2848,0.833333 3.0464,0 l -1.5232,-2 -1.5232,2" />
    <path
       style="fill:#ff8429;stroke:none"
       inkscape:connector-curvature="0"
       id="path121"
       d="m 243.90988,23.000001 1.52319,2 1.5232,-2 c -0.7616,-0.833333 -2.2848,-0.833333 -3.04639,0" />
    <path
       style="fill:#ff8429;stroke:none"
       inkscape:connector-curvature="0"
       id="path123"
       d="m 246.95627,23.000001 1.5232,2 1.52319,-2 -1.52319,-2 -1.5232,2" />
    <path
       style="fill:#ff8429;stroke:none"
       inkscape:connector-curvature="0"
       id="path125"
       d="m 250.00266,23.000001 1.5232,2 c 0.7616,-0.833333 2.28479,-0.833333 3.04639,0 l 1.5232,-2 c -1.5232,-1.666667 -4.56959,-1.666667 -6.09279,0" />
    <path
       style="fill:#ff8429;stroke:none"
       inkscape:connector-curvature="0"
       id="path127"
       d="m 256.09545,23.000001 1.52319,2 1.5232,-2 c -0.7616,-0.833333 -2.28479,-0.833333 -3.04639,0" />
    <path
       style="fill:#ff8429;stroke:none"
       inkscape:connector-curvature="0"
       id="path129"
       d="m 259.14184,23.000001 c 0.7616,0.833333 2.28479,0.833333 3.04639,0 l -1.52319,-2 -1.5232,2" />
    <path
       style="fill:#ff8429;stroke:none"
       inkscape:connector-curvature="0"
       id="path131"
       d="m 262.18823,23.000001 1.5232,2 c 0.7616,-0.833333 2.28479,-0.833333 3.04639,0 l 1.5232,-2 c -1.5232,-1.666667 -4.56959,-1.666667 -6.09279,0" />
    <path
       style="fill:#ff8429;stroke:none"
       inkscape:connector-curvature="0"
       id="path133"
       d="m 268.28102,23.000001 1.5232,2 1.52319,-2 c -0.7616,-0.833333 -2.28479,-0.833333 -3.04639,0" />
    <path
       style="fill:#ff8429;stroke:none"
       inkscape:connector-curvature="0"
       id="path135"
       d="m 271.32741,23.000001 c 0.7616,0.833333 2.2848,0.833333 3.04639,0 l -1.52319,-2 -1.5232,2" />
    <path
       style="fill:#ff8429;stroke:none"
       inkscape:connector-curvature="0"
       id="path137"
       d="m 274.3738,23.000001 1.5232,2 1.5232,-2 c -0.7616,-0.833333 -2.2848,-0.833333 -3.0464,0" />
    <path
       style="fill:#ff8429;stroke:none"
       inkscape:connector-curvature="0"
       id="path139"
       d="m 277.4202,23.000001 c 0.7616,0.833333 2.28479,0.833333 3.04639,0 l -1.5232,-2 -1.52319,2" />
    <path
       style="fill:#ff8429;stroke:none"
       inkscape:connector-curvature="0"
       id="path141"
       d="m 280.46659,23.000001 c 1.5232,1.666667 4.56959,1.666667 6.09279,0 l -1.5232,-2 c -0.7616,0.833333 -2.28479,0.833333 -3.04639,0 l -1.5232,2" />
    <path
       style="fill:#ff8429;stroke:none"
       inkscape:connector-curvature="0"
       id="path143"
       d="m 286.55938,23.000001 c 3.04639,3.333333 9.13917,3.333333 12.18557,0 l -1.5232,-2 c -1.5232,1.666667 -4.56959,1.666667 -6.09278,0 -0.7616,0.833333 -2.2848,0.833333 -3.0464,0 l -1.52319,2" />
    <path
       style="fill:#ff8429;stroke:none"
       inkscape:connector-curvature="0"
       id="path145"
       d="m 298.74495,23.000001 1.52319,2 1.5232,-2 -1.5232,-2 -1.52319,2" />
    <path
       style="fill:#ff8429;stroke:none"
       inkscape:connector-curvature="0"
       id="path147"
       d="m 301.79134,23.000001 1.5232,2 1.52319,-2 c -0.76159,-0.833333 -2.28479,-0.833333 -3.04639,0" />
    <path
       style="fill:#ff8429;stroke:none"
       inkscape:connector-curvature="0"
       id="path149"
       d="m 304.83773,23.000001 c 0.7616,0.833333 2.2848,0.833333 3.0464,0 l -1.5232,-2 -1.5232,2" />
    <path
       style="fill:#ff8429;stroke:none"
       inkscape:connector-curvature="0"
       id="path151"
       d="m 307.88413,23.000001 c 4.56959,5 13.70876,5 18.27835,0 l -1.52319,-2 c -0.7616,0.833333 -2.2848,0.833333 -3.0464,0 -3.04639,3.333333 -9.13917,3.333333 -12.18557,0 l -1.52319,2" />
    <path
       style="fill:#ff8429;stroke:none"
       inkscape:connector-curvature="0"
       id="path153"
       d="m 326.16248,23.000001 1.5232,2 1.5232,-2 c -0.7616,-0.833333 -2.2848,-0.833333 -3.0464,0" />
    <path
       style="fill:#ff8429;stroke:none"
       inkscape:connector-curvature="0"
       id="path155"
       d="m 329.20888,23.000001 c 1.52319,1.666667 4.56959,1.666667 6.09278,0 l -1.52319,-2 c -0.7616,0.833333 -2.2848,0.833333 -3.0464,0 l -1.52319,2" />
    <path
       style="fill:#ff8429;stroke:none"
       inkscape:connector-curvature="0"
       id="path157"
       d="m 335.30166,23.000001 c 1.5232,1.666667 4.56959,1.666667 6.09279,0 l -1.5232,-2 c -0.7616,0.833333 -2.28479,0.833333 -3.04639,0 l -1.5232,2" />
    <path
       style="fill:#ff8429;stroke:none"
       inkscape:connector-curvature="0"
       id="path159"
       d="m 341.39445,23.000001 c 3.04639,3.333333 9.13918,3.333333 12.18557,0 l -1.5232,-2 c -1.52319,1.666667 -4.56959,1.666667 -6.09278,0 -0.7616,0.833333 -2.2848,0.833333 -3.0464,0 l -1.52319,2" />
    <path
       style="fill:#ff8429;stroke:none"
       inkscape:connector-curvature="0"
       id="path161"
       d="m 353.58002,23.000001 1.5232,2 c 3.80799,4.166667 11.42397,4.166667 15.23196,0 l -3.04639,-4 c -2.2848,2.5 -6.85439,2.5 -9.13918,0 -0.7616,0.833333 -2.28479,0.833333 -3.04639,0 l -1.5232,2" />
    <path
       style="fill:#ffff10;stroke:none"
       inkscape:connector-curvature="0"
       id="path163"
       d="m 138.80932,21.000001 3.04639,4 3.0464,-4 -1.5232,-2 c -0.7616,0.833333 -2.28479,0.833333 -3.04639,0 l -1.5232,2" />
    <path
       style="fill:#ffff10;stroke:none"
       inkscape:connector-curvature="0"
       id="path165"
       d="m 144.90211,21.000001 c 3.04639,3.333333 9.13918,3.333333 12.18557,0 l -1.5232,-2 c -0.7616,0.833333 -2.28479,0.833333 -3.04639,0 -1.5232,1.666667 -4.56959,1.666667 -6.09279,0 l -1.52319,2" />
    <path
       style="fill:#ffff10;stroke:none"
       inkscape:connector-curvature="0"
       id="path167"
       d="m 157.08768,21.000001 c 1.5232,1.666667 4.56959,1.666667 6.09278,0 l -1.52319,-2 c -0.7616,0.833333 -2.2848,0.833333 -3.04639,0 l -1.5232,2" />
    <path
       style="fill:#ffff10;stroke:none"
       inkscape:connector-curvature="0"
       id="path169"
       d="m 163.18046,21.000001 c 1.5232,1.666667 4.56959,1.666667 6.09279,0 l -1.5232,-2 c -0.76159,0.833333 -2.28479,0.833333 -3.04639,0 l -1.5232,2" />
    <path
       style="fill:#ffff10;stroke:none"
       inkscape:connector-curvature="0"
       id="path171"
       d="m 169.27325,21.000001 1.5232,2 1.52319,-2 c -0.76159,-0.833333 -2.28479,-0.833333 -3.04639,0" />
    <path
       style="fill:#ffff10;stroke:none"
       inkscape:connector-curvature="0"
       id="path173"
       d="m 172.31964,21.000001 c 4.56959,5 13.70877,5 18.27836,0 l -1.5232,-2 c -3.04639,3.333333 -9.13917,3.333333 -12.18557,0 -0.7616,0.833333 -2.28479,0.833333 -3.04639,0 l -1.5232,2" />
    <path
       style="fill:#ffff10;stroke:none"
       inkscape:connector-curvature="0"
       id="path175"
       d="m 190.598,21.000001 c 0.7616,0.833333 2.2848,0.833333 3.04639,0 l -1.52319,-2 -1.5232,2" />
    <path
       style="fill:#ffff10;stroke:none"
       inkscape:connector-curvature="0"
       id="path177"
       d="m 193.64439,21.000001 1.5232,2 1.5232,-2 c -0.7616,-0.833333 -2.2848,-0.833333 -3.0464,0" />
    <path
       style="fill:#ffff10;stroke:none"
       inkscape:connector-curvature="0"
       id="path179"
       d="m 196.69079,21.000001 1.52319,2 1.5232,-2 -1.5232,-2 -1.52319,2" />
    <path
       style="fill:#ffff10;stroke:none"
       inkscape:connector-curvature="0"
       id="path181"
       d="m 199.73718,21.000001 c 3.04639,3.333333 9.13918,3.333333 12.18557,0 l -1.5232,-2 c -0.76159,0.833333 -2.28479,0.833333 -3.04639,0 -1.5232,1.666667 -4.56959,1.666667 -6.09278,0 l -1.5232,2" />
    <path
       style="fill:#ffff10;stroke:none"
       inkscape:connector-curvature="0"
       id="path183"
       d="m 211.92275,21.000001 c 1.5232,1.666667 4.56959,1.666667 6.09279,0 l -1.5232,-2 c -0.7616,0.833333 -2.28479,0.833333 -3.04639,0 l -1.5232,2" />
    <path
       style="fill:#ffff10;stroke:none"
       inkscape:connector-curvature="0"
       id="path185"
       d="m 218.01554,21.000001 c 0.76159,0.833333 2.28479,0.833333 3.04639,0 l -1.5232,-2 -1.52319,2" />
    <path
       style="fill:#ffff10;stroke:none"
       inkscape:connector-curvature="0"
       id="path187"
       d="m 221.06193,21.000001 1.5232,2 1.52319,-2 c -0.7616,-0.833333 -2.28479,-0.833333 -3.04639,0" />
    <path
       style="fill:#ffff10;stroke:none"
       inkscape:connector-curvature="0"
       id="path189"
       d="m 224.10832,21.000001 c 0.7616,0.833333 2.2848,0.833333 3.0464,0 l -1.5232,-2 -1.5232,2" />
    <path
       style="fill:#ffff10;stroke:none"
       inkscape:connector-curvature="0"
       id="path191"
       d="m 227.15472,21.000001 1.52319,2 1.5232,-2 c -0.7616,-0.833333 -2.2848,-0.833333 -3.04639,0" />
    <path
       style="fill:#ffff10;stroke:none"
       inkscape:connector-curvature="0"
       id="path193"
       d="m 230.20111,21.000001 1.52319,2 c 0.7616,-0.833333 2.2848,-0.833333 3.0464,0 l 1.52319,-2 c -1.52319,-1.666667 -4.56959,-1.666667 -6.09278,0" />
    <path
       style="fill:#ffff10;stroke:none"
       inkscape:connector-curvature="0"
       id="path195"
       d="m 236.29389,21.000001 c 0.7616,0.833333 2.2848,0.833333 3.0464,0 l -1.5232,-2 -1.5232,2" />
    <path
       style="fill:#ffff10;stroke:none"
       inkscape:connector-curvature="0"
       id="path197"
       d="m 239.34029,21.000001 1.52319,2 1.5232,-2 c -0.7616,-0.833333 -2.2848,-0.833333 -3.04639,0" />
    <path
       style="fill:#ffff10;stroke:none"
       inkscape:connector-curvature="0"
       id="path199"
       d="m 242.38668,21.000001 1.5232,2 c 0.76159,-0.833333 2.28479,-0.833333 3.04639,0 l 1.5232,-2 c -1.5232,-1.666667 -4.56959,-1.666667 -6.09279,0" />
    <path
       style="fill:#ffff10;stroke:none"
       inkscape:connector-curvature="0"
       id="path201"
       d="m 248.47947,21.000001 1.52319,2 c 1.5232,-1.666667 4.56959,-1.666667 6.09279,0 0.7616,-0.833333 2.28479,-0.833333 3.04639,0 l 1.5232,-2 -6.09279,-8 -6.09278,8" />
    <path
       style="fill:#ffff10;stroke:none"
       inkscape:connector-curvature="0"
       id="path203"
       d="m 260.66504,21.000001 1.52319,2 c 1.5232,-1.666667 4.56959,-1.666667 6.09279,0 0.7616,-0.833333 2.28479,-0.833333 3.04639,0 l 1.5232,-2 c -3.04639,-3.333333 -9.13918,-3.333333 -12.18557,0" />
    <path
       style="fill:#ffff10;stroke:none"
       inkscape:connector-curvature="0"
       id="path205"
       d="m 272.85061,21.000001 1.52319,2 c 0.7616,-0.833333 2.2848,-0.833333 3.0464,0 l 1.52319,-2 c -1.52319,-1.666667 -4.56959,-1.666667 -6.09278,0" />
    <path
       style="fill:#ffff10;stroke:none"
       inkscape:connector-curvature="0"
       id="path207"
       d="m 278.94339,21.000001 1.5232,2 1.5232,-2 c -0.7616,-0.833333 -2.2848,-0.833333 -3.0464,0" />
    <path
       style="fill:#ffff10;stroke:none"
       inkscape:connector-curvature="0"
       id="path209"
       d="m 281.98979,21.000001 c 0.7616,0.833333 2.28479,0.833333 3.04639,0 l -1.5232,-2 -1.52319,2" />
    <path
       style="fill:#ffff10;stroke:none"
       inkscape:connector-curvature="0"
       id="path211"
       d="m 285.03618,21.000001 1.5232,2 1.52319,-2 c -0.7616,-0.833333 -2.28479,-0.833333 -3.04639,0" />
    <path
       style="fill:#ffff10;stroke:none"
       inkscape:connector-curvature="0"
       id="path213"
       d="m 288.08257,21.000001 c 0.7616,0.833333 2.2848,0.833333 3.0464,0 l -1.5232,-2 -1.5232,2" />
    <path
       style="fill:#ffff10;stroke:none"
       inkscape:connector-curvature="0"
       id="path215"
       d="m 291.12897,21.000001 c 1.52319,1.666667 4.56958,1.666667 6.09278,0 l -1.5232,-2 c -0.76159,0.833333 -2.28479,0.833333 -3.04639,0 l -1.52319,2" />
    <path
       style="fill:#ffff10;stroke:none"
       inkscape:connector-curvature="0"
       id="path217"
       d="m 297.22175,21.000001 1.5232,2 1.52319,-2 c -0.76159,-0.833333 -2.28479,-0.833333 -3.04639,0" />
    <path
       style="fill:#ffff10;stroke:none"
       inkscape:connector-curvature="0"
       id="path219"
       d="m 300.26814,21.000001 1.5232,2 c 0.7616,-0.833333 2.2848,-0.833333 3.04639,0 l 1.5232,-2 -3.04639,-4 -3.0464,4" />
    <path
       style="fill:#ffff10;stroke:none"
       inkscape:connector-curvature="0"
       id="path221"
       d="m 306.36093,21.000001 1.5232,2 1.52319,-2 c -0.76159,-0.833333 -2.28479,-0.833333 -3.04639,0" />
    <path
       style="fill:#ffff10;stroke:none"
       inkscape:connector-curvature="0"
       id="path223"
       d="m 309.40732,21.000001 c 3.0464,3.333333 9.13918,3.333333 12.18557,0 l -1.52319,-2 c -1.5232,1.666667 -4.56959,1.666667 -6.09279,0 -0.7616,0.833333 -2.28479,0.833333 -3.04639,0 l -1.5232,2" />
    <path
       style="fill:#ffff10;stroke:none"
       inkscape:connector-curvature="0"
       id="path225"
       d="m 321.59289,21.000001 c 0.7616,0.833333 2.2848,0.833333 3.0464,0 l -1.5232,-2 -1.5232,2" />
    <path
       style="fill:#ffff10;stroke:none"
       inkscape:connector-curvature="0"
       id="path227"
       d="m 324.63929,21.000001 1.52319,2 c 0.7616,-0.833333 2.2848,-0.833333 3.0464,0 l 1.52319,-2 c -1.52319,-1.666667 -4.56959,-1.666667 -6.09278,0" />
    <path
       style="fill:#ffff10;stroke:none"
       inkscape:connector-curvature="0"
       id="path229"
       d="m 330.73207,21.000001 c 0.7616,0.833333 2.2848,0.833333 3.0464,0 l -1.5232,-2 -1.5232,2" />
    <path
       style="fill:#ffff10;stroke:none"
       inkscape:connector-curvature="0"
       id="path231"
       d="m 333.77847,21.000001 1.52319,2 1.5232,-2 -1.5232,-2 -1.52319,2" />
    <path
       style="fill:#ffff10;stroke:none"
       inkscape:connector-curvature="0"
       id="path233"
       d="m 336.82486,21.000001 c 0.7616,0.833333 2.28479,0.833333 3.04639,0 l -1.52319,-2 -1.5232,2" />
    <path
       style="fill:#ffff10;stroke:none"
       inkscape:connector-curvature="0"
       id="path235"
       d="m 339.87125,21.000001 1.5232,2 1.52319,-2 c -0.76159,-0.833333 -2.28479,-0.833333 -3.04639,0" />
    <path
       style="fill:#ffff10;stroke:none"
       inkscape:connector-curvature="0"
       id="path237"
       d="m 342.91764,21.000001 c 0.7616,0.833333 2.2848,0.833333 3.0464,0 l -1.5232,-2 -1.5232,2" />
    <path
       style="fill:#ffff10;stroke:none"
       inkscape:connector-curvature="0"
       id="path239"
       d="m 345.96404,21.000001 c 1.52319,1.666667 4.56959,1.666667 6.09278,0 l -1.52319,-2 c -0.7616,0.833333 -2.2848,0.833333 -3.0464,0 l -1.52319,2" />
    <path
       style="fill:#ffff10;stroke:none"
       inkscape:connector-curvature="0"
       id="path241"
       d="m 352.05682,21.000001 1.5232,2 1.5232,-2 -1.5232,-2 -1.5232,2" />
    <path
       style="fill:#ffff10;stroke:none"
       inkscape:connector-curvature="0"
       id="path243"
       d="m 355.10322,21.000001 c 0.7616,0.833333 2.28479,0.833333 3.04639,0 l -1.5232,-2 -1.52319,2" />
    <path
       style="fill:#ffff10;stroke:none"
       inkscape:connector-curvature="0"
       id="path245"
       d="m 358.14961,21.000001 c 2.28479,2.5 6.85438,2.5 9.13918,0 l -1.5232,-2 c -1.5232,1.666667 -4.56959,1.666667 -6.09278,0 l -1.5232,2" />
    <path
       style="fill:#adde63;stroke:none"
       inkscape:connector-curvature="0"
       id="path247"
       d="m 137.28613,19.000001 1.52319,2 1.5232,-2 -1.5232,-2 -1.52319,2" />
    <path
       style="fill:#adde63;stroke:none"
       inkscape:connector-curvature="0"
       id="path249"
       d="m 140.33252,19.000001 c 0.7616,0.833333 2.28479,0.833333 3.04639,0 l -1.5232,-2 -1.52319,2" />
    <path
       style="fill:#adde63;stroke:none"
       inkscape:connector-curvature="0"
       id="path251"
       d="m 143.37891,19.000001 1.5232,2 1.52319,-2 -1.52319,-2 -1.5232,2" />
    <path
       style="fill:#adde63;stroke:none"
       inkscape:connector-curvature="0"
       id="path253"
       d="m 146.4253,19.000001 c 1.5232,1.666667 4.56959,1.666667 6.09279,0 l -1.5232,-2 c -0.7616,0.833333 -2.28479,0.833333 -3.04639,0 l -1.5232,2" />
    <path
       style="fill:#adde63;stroke:none"
       inkscape:connector-curvature="0"
       id="path255"
       d="m 152.51809,19.000001 c 0.7616,0.833333 2.28479,0.833333 3.04639,0 l -1.52319,-2 -1.5232,2" />
    <path
       style="fill:#adde63;stroke:none"
       inkscape:connector-curvature="0"
       id="path257"
       d="m 155.56448,19.000001 1.5232,2 1.5232,-2 c -0.7616,-0.833333 -2.2848,-0.833333 -3.0464,0" />
    <path
       style="fill:#adde63;stroke:none"
       inkscape:connector-curvature="0"
       id="path259"
       d="m 158.61088,19.000001 c 0.76159,0.833333 2.28479,0.833333 3.04639,0 l -1.5232,-2 -1.52319,2" />
    <path
       style="fill:#adde63;stroke:none"
       inkscape:connector-curvature="0"
       id="path261"
       d="m 161.65727,19.000001 1.52319,2 1.5232,-2 -1.5232,-2 -1.52319,2" />
    <path
       style="fill:#adde63;stroke:none"
       inkscape:connector-curvature="0"
       id="path263"
       d="m 164.70366,19.000001 c 0.7616,0.833333 2.2848,0.833333 3.04639,0 l -1.52319,-2 -1.5232,2" />
    <path
       style="fill:#adde63;stroke:none"
       inkscape:connector-curvature="0"
       id="path265"
       d="m 167.75005,19.000001 1.5232,2 c 0.7616,-0.833333 2.2848,-0.833333 3.04639,0 l 1.5232,-2 c -1.5232,-1.666667 -4.56959,-1.666667 -6.09279,0" />
    <path
       style="fill:#adde63;stroke:none"
       inkscape:connector-curvature="0"
       id="path267"
       d="m 173.84284,19.000001 c 0.7616,0.833333 2.28479,0.833333 3.04639,0 l -1.52319,-2 -1.5232,2" />
    <path
       style="fill:#adde63;stroke:none"
       inkscape:connector-curvature="0"
       id="path269"
       d="m 176.88923,19.000001 c 3.0464,3.333333 9.13918,3.333333 12.18557,0 l -1.52319,-2 c -0.7616,0.833333 -2.2848,0.833333 -3.0464,0 -1.52319,1.666667 -4.56958,1.666667 -6.09278,0 l -1.5232,2" />
    <path
       style="fill:#adde63;stroke:none"
       inkscape:connector-curvature="0"
       id="path271"
       d="m 189.0748,19.000001 1.5232,2 1.5232,-2 c -0.7616,-0.833333 -2.2848,-0.833333 -3.0464,0" />
    <path
       style="fill:#adde63;stroke:none"
       inkscape:connector-curvature="0"
       id="path273"
       d="m 192.1212,19.000001 1.52319,2 c 0.7616,-0.833333 2.2848,-0.833333 3.0464,0 l 1.52319,-2 -3.04639,-4 -3.04639,4" />
    <path
       style="fill:#adde63;stroke:none"
       inkscape:connector-curvature="0"
       id="path275"
       d="m 198.21398,19.000001 1.5232,2 1.5232,-2 c -0.7616,-0.833333 -2.2848,-0.833333 -3.0464,0" />
    <path
       style="fill:#adde63;stroke:none"
       inkscape:connector-curvature="0"
       id="path277"
       d="m 201.26038,19.000001 c 1.52319,1.666667 4.56958,1.666667 6.09278,0 l -1.5232,-2 c -0.76159,0.833333 -2.28479,0.833333 -3.04639,0 l -1.52319,2" />
    <path
       style="fill:#adde63;stroke:none"
       inkscape:connector-curvature="0"
       id="path279"
       d="m 207.35316,19.000001 c 0.7616,0.833333 2.2848,0.833333 3.04639,0 l -1.52319,-2 -1.5232,2" />
    <path
       style="fill:#adde63;stroke:none"
       inkscape:connector-curvature="0"
       id="path281"
       d="m 210.39955,19.000001 1.5232,2 1.5232,-2 c -0.7616,-0.833333 -2.2848,-0.833333 -3.0464,0" />
    <path
       style="fill:#adde63;stroke:none"
       inkscape:connector-curvature="0"
       id="path283"
       d="m 213.44595,19.000001 c 0.7616,0.833333 2.28479,0.833333 3.04639,0 l -1.5232,-2 -1.52319,2" />
    <path
       style="fill:#adde63;stroke:none"
       inkscape:connector-curvature="0"
       id="path285"
       d="m 216.49234,19.000001 1.5232,2 1.52319,-2 c -0.7616,-0.833333 -2.28479,-0.833333 -3.04639,0" />
    <path
       style="fill:#adde63;stroke:none"
       inkscape:connector-curvature="0"
       id="path287"
       d="m 219.53873,19.000001 1.5232,2 c 0.7616,-0.833333 2.28479,-0.833333 3.04639,0 l 1.5232,-2 c -1.5232,-1.666667 -4.56959,-1.666667 -6.09279,0" />
    <path
       style="fill:#adde63;stroke:none"
       inkscape:connector-curvature="0"
       id="path289"
       d="m 225.63152,19.000001 1.5232,2 c 0.76159,-0.833333 2.28479,-0.833333 3.04639,0 1.52319,-1.666667 4.56959,-1.666667 6.09278,0 l 1.5232,-2 c -3.04639,-3.333333 -9.13918,-3.333333 -12.18557,0" />
    <path
       style="fill:#adde63;stroke:none"
       inkscape:connector-curvature="0"
       id="path291"
       d="m 237.81709,19.000001 1.5232,2 c 0.76159,-0.833333 2.28479,-0.833333 3.04639,0 1.5232,-1.666667 4.56959,-1.666667 6.09279,0 l 6.09278,-8 -6.09278,-8 -10.66238,14" />
    <path
       style="fill:#adde63;stroke:none"
       inkscape:connector-curvature="0"
       id="path293"
       d="m 254.57225,13.000001 6.09279,8 c 3.04639,-3.333333 9.13918,-3.333333 12.18557,0 1.52319,-1.666667 4.56959,-1.666667 6.09278,0 0.7616,-0.833333 2.2848,-0.833333 3.0464,0 l 1.52319,-2 -4.56959,-6 c -6.09278,-6.666667 -18.27835,-6.666667 -24.37114,0" />
    <path
       style="fill:#adde63;stroke:none"
       inkscape:connector-curvature="0"
       id="path295"
       d="m 283.51298,19.000001 1.5232,2 c 0.7616,-0.833333 2.28479,-0.833333 3.04639,0 l 1.5232,-2 c -1.5232,-1.666667 -4.56959,-1.666667 -6.09279,0" />
    <path
       style="fill:#adde63;stroke:none"
       inkscape:connector-curvature="0"
       id="path297"
       d="m 289.60577,19.000001 1.5232,2 1.52319,-2 c -0.7616,-0.833333 -2.28479,-0.833333 -3.04639,0" />
    <path
       style="fill:#adde63;stroke:none"
       inkscape:connector-curvature="0"
       id="path299"
       d="m 292.65216,19.000001 c 0.7616,0.833333 2.2848,0.833333 3.04639,0 l -1.52319,-2 -1.5232,2" />
    <path
       style="fill:#adde63;stroke:none"
       inkscape:connector-curvature="0"
       id="path301"
       d="m 295.69855,19.000001 1.5232,2 c 0.7616,-0.833333 2.2848,-0.833333 3.04639,0 l 3.0464,-4 c -1.5232,-1.666667 -4.56959,-1.666667 -6.09279,0 l -1.5232,2" />
    <path
       style="fill:#adde63;stroke:none"
       inkscape:connector-curvature="0"
       id="path303"
       d="m 303.31454,17.000001 3.04639,4 c 0.7616,-0.833333 2.2848,-0.833333 3.04639,0 l 1.5232,-2 -1.5232,-2 c -1.52319,-1.666667 -4.56959,-1.666667 -6.09278,0" />
    <path
       style="fill:#adde63;stroke:none"
       inkscape:connector-curvature="0"
       id="path305"
       d="m 310.93052,19.000001 c 0.7616,0.833333 2.28479,0.833333 3.04639,0 l -1.52319,-2 -1.5232,2" />
    <path
       style="fill:#adde63;stroke:none"
       inkscape:connector-curvature="0"
       id="path307"
       d="m 313.97691,19.000001 c 1.5232,1.666667 4.56959,1.666667 6.09279,0 l -1.5232,-2 c -0.7616,0.833333 -2.28479,0.833333 -3.04639,0 l -1.5232,2" />
    <path
       style="fill:#adde63;stroke:none"
       inkscape:connector-curvature="0"
       id="path309"
       d="m 320.0697,19.000001 1.52319,2 1.5232,-2 c -0.7616,-0.833333 -2.28479,-0.833333 -3.04639,0" />
    <path
       style="fill:#adde63;stroke:none"
       inkscape:connector-curvature="0"
       id="path311"
       d="m 323.11609,19.000001 1.5232,2 c 1.52319,-1.666667 4.56959,-1.666667 6.09278,0 l 1.5232,-2 -4.56959,-6 -4.56959,6" />
    <path
       style="fill:#adde63;stroke:none"
       inkscape:connector-curvature="0"
       id="path313"
       d="m 332.25527,19.000001 1.5232,2 1.52319,-2 c -0.7616,-0.833333 -2.28479,-0.833333 -3.04639,0" />
    <path
       style="fill:#adde63;stroke:none"
       inkscape:connector-curvature="0"
       id="path315"
       d="m 335.30166,19.000001 1.5232,2 1.5232,-2 -1.5232,-2 -1.5232,2" />
    <path
       style="fill:#adde63;stroke:none"
       inkscape:connector-curvature="0"
       id="path317"
       d="m 338.34806,19.000001 1.52319,2 c 0.7616,-0.833333 2.2848,-0.833333 3.04639,0 l 1.5232,-2 -3.04639,-4 -3.04639,4" />
    <path
       style="fill:#adde63;stroke:none"
       inkscape:connector-curvature="0"
       id="path319"
       d="m 344.44084,19.000001 1.5232,2 1.52319,-2 c -0.76159,-0.833333 -2.28479,-0.833333 -3.04639,0" />
    <path
       style="fill:#adde63;stroke:none"
       inkscape:connector-curvature="0"
       id="path321"
       d="m 347.48723,19.000001 c 0.7616,0.833333 2.2848,0.833333 3.0464,0 l -1.5232,-2 -1.5232,2" />
    <path
       style="fill:#adde63;stroke:none"
       inkscape:connector-curvature="0"
       id="path323"
       d="m 350.53363,19.000001 1.52319,2 1.5232,-2 c -0.7616,-0.833333 -2.28479,-0.833333 -3.04639,0" />
    <path
       style="fill:#adde63;stroke:none"
       inkscape:connector-curvature="0"
       id="path325"
       d="m 353.58002,19.000001 1.5232,2 1.52319,-2 -1.52319,-2 -1.5232,2" />
    <path
       style="fill:#adde63;stroke:none"
       inkscape:connector-curvature="0"
       id="path327"
       d="m 356.62641,19.000001 1.5232,2 1.5232,-2 c -0.7616,-0.833333 -2.2848,-0.833333 -3.0464,0" />
    <path
       style="fill:#adde63;stroke:none"
       inkscape:connector-curvature="0"
       id="path329"
       d="m 359.67281,19.000001 c 1.52319,1.666667 4.56958,1.666667 6.09278,0 l -1.5232,-2 c -0.76159,0.833333 -2.28479,0.833333 -3.04639,0 l -1.52319,2" />
    <path
       style="fill:#52b552;stroke:none"
       inkscape:connector-curvature="0"
       id="path331"
       d="m 135.76293,17.000001 1.5232,2 1.52319,-2 -1.52319,-2 -1.5232,2" />
    <path
       style="fill:#52b552;stroke:none"
       inkscape:connector-curvature="0"
       id="path333"
       d="m 138.80932,17.000001 1.5232,2 1.52319,-2 c -0.76159,-0.833333 -2.28479,-0.833333 -3.04639,0" />
    <path
       style="fill:#52b552;stroke:none"
       inkscape:connector-curvature="0"
       id="path335"
       d="m 141.85571,17.000001 1.5232,2 1.5232,-2 -1.5232,-2 -1.5232,2" />
    <path
       style="fill:#52b552;stroke:none"
       inkscape:connector-curvature="0"
       id="path337"
       d="m 144.90211,17.000001 1.52319,2 1.5232,-2 c -0.7616,-0.833333 -2.28479,-0.833333 -3.04639,0" />
    <path
       style="fill:#52b552;stroke:none"
       inkscape:connector-curvature="0"
       id="path339"
       d="m 147.9485,17.000001 c 0.7616,0.833333 2.28479,0.833333 3.04639,0 l -1.52319,-2 -1.5232,2" />
    <path
       style="fill:#52b552;stroke:none"
       inkscape:connector-curvature="0"
       id="path341"
       d="m 150.99489,17.000001 1.5232,2 1.5232,-2 c -0.7616,-0.833333 -2.2848,-0.833333 -3.0464,0" />
    <path
       style="fill:#52b552;stroke:none"
       inkscape:connector-curvature="0"
       id="path343"
       d="m 154.04129,17.000001 1.52319,2 c 0.7616,-0.833333 2.2848,-0.833333 3.0464,0 l 1.52319,-2 -3.04639,-4 -3.04639,4" />
    <path
       style="fill:#52b552;stroke:none"
       inkscape:connector-curvature="0"
       id="path345"
       d="m 160.13407,17.000001 1.5232,2 1.52319,-2 -1.52319,-2 -1.5232,2" />
    <path
       style="fill:#52b552;stroke:none"
       inkscape:connector-curvature="0"
       id="path347"
       d="m 163.18046,17.000001 1.5232,2 1.5232,-2 c -0.7616,-0.833333 -2.2848,-0.833333 -3.0464,0" />
    <path
       style="fill:#52b552;stroke:none"
       inkscape:connector-curvature="0"
       id="path349"
       d="m 166.22686,17.000001 1.52319,2 c 1.5232,-1.666667 4.56959,-1.666667 6.09279,0 l 1.5232,-2 -4.56959,-6 -4.56959,6" />
    <path
       style="fill:#52b552;stroke:none"
       inkscape:connector-curvature="0"
       id="path351"
       d="m 175.36604,17.000001 1.52319,2 1.5232,-2 c -0.7616,-0.833333 -2.2848,-0.833333 -3.04639,0" />
    <path
       style="fill:#52b552;stroke:none"
       inkscape:connector-curvature="0"
       id="path353"
       d="m 178.41243,17.000001 c 1.5232,1.666667 4.56959,1.666667 6.09278,0 l -1.52319,-2 c -0.7616,0.833333 -2.2848,0.833333 -3.04639,0 l -1.5232,2" />
    <path
       style="fill:#52b552;stroke:none"
       inkscape:connector-curvature="0"
       id="path355"
       d="m 184.50521,17.000001 c 0.7616,0.833333 2.2848,0.833333 3.0464,0 l -1.5232,-2 -1.5232,2" />
    <path
       style="fill:#52b552;stroke:none"
       inkscape:connector-curvature="0"
       id="path357"
       d="m 187.55161,17.000001 1.52319,2 c 0.7616,-0.833333 2.2848,-0.833333 3.0464,0 l 3.04639,-4 c -1.5232,-1.666667 -4.56959,-1.666667 -6.09279,0 l -1.52319,2" />
    <path
       style="fill:#52b552;stroke:none"
       inkscape:connector-curvature="0"
       id="path359"
       d="m 195.16759,15.000001 3.04639,4 c 0.7616,-0.833333 2.2848,-0.833333 3.0464,0 l 1.52319,-2 -1.52319,-2 c -1.5232,-1.666667 -4.56959,-1.666667 -6.09279,0" />
    <path
       style="fill:#52b552;stroke:none"
       inkscape:connector-curvature="0"
       id="path361"
       d="m 202.78357,17.000001 c 0.7616,0.833333 2.2848,0.833333 3.04639,0 l -1.52319,-2 -1.5232,2" />
    <path
       style="fill:#52b552;stroke:none"
       inkscape:connector-curvature="0"
       id="path363"
       d="m 205.82996,17.000001 1.5232,2 1.5232,-2 c -0.7616,-0.833333 -2.2848,-0.833333 -3.0464,0" />
    <path
       style="fill:#52b552;stroke:none"
       inkscape:connector-curvature="0"
       id="path365"
       d="m 208.87636,17.000001 1.52319,2 c 0.7616,-0.833333 2.2848,-0.833333 3.0464,0 l 1.52319,-2 c -1.52319,-1.666667 -4.56959,-1.666667 -6.09278,0" />
    <path
       style="fill:#52b552;stroke:none"
       inkscape:connector-curvature="0"
       id="path367"
       d="m 214.96914,17.000001 1.5232,2 c 0.7616,-0.833333 2.28479,-0.833333 3.04639,0 1.5232,-1.666667 4.56959,-1.666667 6.09279,0 3.04639,-3.333333 9.13918,-3.333333 12.18557,0 l 10.66238,-14 c -6.09279,-6.666667 -18.27836,-6.666667 -24.37115,0 l -9.13918,12" />
    <path
       style="fill:#52b552;stroke:none"
       inkscape:connector-curvature="0"
       id="path369"
       d="m 248.47947,5.000001 6.09278,8 c 6.09279,-6.666667 18.27836,-6.666667 24.37114,0 l 4.56959,6 c 1.5232,-1.666667 4.56959,-1.666667 6.09279,0 0.7616,-0.833333 2.28479,-0.833333 3.04639,0 l 1.5232,-2 -27.41754,-35.999997 -18.27835,23.999997" />
    <path
       style="fill:#52b552;stroke:none"
       inkscape:connector-curvature="0"
       id="path371"
       d="m 294.17536,17.000001 1.52319,2 1.5232,-2 c 1.5232,-1.666667 4.56959,-1.666667 6.09279,0 1.52319,-1.666667 4.56959,-1.666667 6.09278,0 l 1.5232,2 1.5232,-2 c -4.56959,-5 -13.70877,-5 -18.27836,0" />
    <path
       style="fill:#52b552;stroke:none"
       inkscape:connector-curvature="0"
       id="path373"
       d="m 312.45372,17.000001 1.52319,2 1.5232,-2 c -0.7616,-0.833333 -2.2848,-0.833333 -3.04639,0" />
    <path
       style="fill:#52b552;stroke:none"
       inkscape:connector-curvature="0"
       id="path375"
       d="m 315.50011,17.000001 c 0.7616,0.833333 2.28479,0.833333 3.04639,0 l -1.5232,-2 -1.52319,2" />
    <path
       style="fill:#52b552;stroke:none"
       inkscape:connector-curvature="0"
       id="path377"
       d="m 318.5465,17.000001 1.5232,2 c 0.7616,-0.833333 2.28479,-0.833333 3.04639,0 l 4.56959,-6 c -1.5232,-1.666667 -4.56959,-1.666667 -6.09279,0 l -3.04639,4" />
    <path
       style="fill:#52b552;stroke:none"
       inkscape:connector-curvature="0"
       id="path379"
       d="m 327.68568,13.000001 4.56959,6 c 0.7616,-0.833333 2.28479,-0.833333 3.04639,0 l 1.5232,-2 -6.09279,-8 -3.04639,4" />
    <path
       style="fill:#52b552;stroke:none"
       inkscape:connector-curvature="0"
       id="path381"
       d="m 336.82486,17.000001 1.5232,2 3.04639,-4 c -0.7616,-0.833333 -2.2848,-0.833333 -3.04639,0 l -1.5232,2" />
    <path
       style="fill:#52b552;stroke:none"
       inkscape:connector-curvature="0"
       id="path383"
       d="m 341.39445,15.000001 3.04639,4 c 0.7616,-0.833333 2.2848,-0.833333 3.04639,0 l 1.5232,-2 -4.56959,-6 -3.04639,4" />
    <path
       style="fill:#52b552;stroke:none"
       inkscape:connector-curvature="0"
       id="path385"
       d="m 349.01043,17.000001 1.5232,2 c 0.7616,-0.833333 2.28479,-0.833333 3.04639,0 l 1.5232,-2 c -1.5232,-1.666667 -4.56959,-1.666667 -6.09279,0" />
    <path
       style="fill:#52b552;stroke:none"
       inkscape:connector-curvature="0"
       id="path387"
       d="m 355.10322,17.000001 1.52319,2 c 0.7616,-0.833333 2.2848,-0.833333 3.0464,0 l 1.52319,-2 c -1.52319,-1.666667 -4.56959,-1.666667 -6.09278,0" />
    <path
       style="fill:#52b552;stroke:none"
       inkscape:connector-curvature="0"
       id="path389"
       d="m 361.196,17.000001 c 0.7616,0.833333 2.2848,0.833333 3.04639,0 l -1.52319,-2 -1.5232,2" />
    <path
       style="fill:#31ada5;stroke:none"
       inkscape:connector-curvature="0"
       id="path391"
       d="m 134.23973,15.000001 1.5232,2 1.5232,-2 c -0.7616,-0.833333 -2.2848,-0.833333 -3.0464,0" />
    <path
       style="fill:#31ada5;stroke:none"
       inkscape:connector-curvature="0"
       id="path393"
       d="m 137.28613,15.000001 1.52319,2 c 0.7616,-0.833333 2.2848,-0.833333 3.04639,0 l 1.5232,-2 c -1.5232,-1.666667 -4.56959,-1.666667 -6.09278,0" />
    <path
       style="fill:#31ada5;stroke:none"
       inkscape:connector-curvature="0"
       id="path395"
       d="m 143.37891,15.000001 1.5232,2 c 0.7616,-0.833333 2.28479,-0.833333 3.04639,0 l 1.5232,-2 c -1.5232,-1.666667 -4.56959,-1.666667 -6.09279,0" />
    <path
       style="fill:#31ada5;stroke:none"
       inkscape:connector-curvature="0"
       id="path397"
       d="m 149.4717,15.000001 1.52319,2 c 0.7616,-0.833333 2.2848,-0.833333 3.0464,0 l 3.04639,-4 -3.04639,-4 -4.56959,6" />
    <path
       style="fill:#31ada5;stroke:none"
       inkscape:connector-curvature="0"
       id="path399"
       d="m 157.08768,13.000001 3.04639,4 1.5232,-2 -1.5232,-2 c -0.7616,-0.833333 -2.28479,-0.833333 -3.04639,0" />
    <path
       style="fill:#31ada5;stroke:none"
       inkscape:connector-curvature="0"
       id="path401"
       d="m 161.65727,15.000001 1.52319,2 c 0.7616,-0.833333 2.2848,-0.833333 3.0464,0 l 4.56959,-6 -3.0464,-4 -6.09278,8" />
    <path
       style="fill:#31ada5;stroke:none"
       inkscape:connector-curvature="0"
       id="path403"
       d="m 170.79645,11.000001 4.56959,6 c 0.76159,-0.833333 2.28479,-0.833333 3.04639,0 l 1.5232,-2 -3.0464,-4 c -1.52319,-1.666667 -4.56959,-1.666667 -6.09278,0" />
    <path
       style="fill:#31ada5;stroke:none"
       inkscape:connector-curvature="0"
       id="path405"
       d="m 179.93563,15.000001 c 0.76159,0.833333 2.28479,0.833333 3.04639,0 l -1.5232,-2 -1.52319,2" />
    <path
       style="fill:#31ada5;stroke:none"
       inkscape:connector-curvature="0"
       id="path407"
       d="m 182.98202,15.000001 1.52319,2 1.5232,-2 c -0.7616,-0.833333 -2.28479,-0.833333 -3.04639,0" />
    <path
       style="fill:#31ada5;stroke:none"
       inkscape:connector-curvature="0"
       id="path409"
       d="m 186.02841,15.000001 1.5232,2 1.52319,-2 c 1.5232,-1.666667 4.56959,-1.666667 6.09279,0 1.5232,-1.666667 4.56959,-1.666667 6.09279,0 l 1.52319,2 1.5232,-2 c -4.56959,-5 -13.70877,-5 -18.27836,0" />
    <path
       style="fill:#31ada5;stroke:none"
       inkscape:connector-curvature="0"
       id="path411"
       d="m 204.30677,15.000001 1.52319,2 c 0.7616,-0.833333 2.2848,-0.833333 3.0464,0 1.52319,-1.666667 4.56959,-1.666667 6.09278,0 l 9.13918,-12 c 6.09279,-6.666667 18.27836,-6.666667 24.37115,0 l 18.27835,-23.999997 -18.27835,-24 -44.1727,57.999997" />
    <path
       style="fill:#31ada5;stroke:none"
       inkscape:connector-curvature="0"
       id="path413"
       d="m 266.75782,-18.999996 27.41754,35.999997 c 4.56959,-5 13.70877,-5 18.27836,0 0.76159,-0.833333 2.28479,-0.833333 3.04639,0 l 1.52319,-2 -25.89433,-33.999997 c -6.09279,-6.66667 -18.27836,-6.66667 -24.37115,0" />
    <path
       style="fill:#31ada5;stroke:none"
       inkscape:connector-curvature="0"
       id="path415"
       d="m 317.0233,15.000001 1.5232,2 3.04639,-4 c 1.5232,-1.666667 4.56959,-1.666667 6.09279,0 l 3.04639,-4 c -2.28479,-2.5 -6.85438,-2.5 -9.13918,0 l -4.56959,6" />
    <path
       style="fill:#31ada5;stroke:none"
       inkscape:connector-curvature="0"
       id="path417"
       d="m 330.73207,9.000001 6.09279,8 1.5232,-2 c 0.76159,-0.833333 2.28479,-0.833333 3.04639,0 l 3.04639,-4 -1.5232,-2 c -3.04639,-3.333333 -9.13917,-3.333333 -12.18557,0" />
    <path
       style="fill:#31ada5;stroke:none"
       inkscape:connector-curvature="0"
       id="path419"
       d="m 344.44084,11.000001 4.56959,6 c 1.5232,-1.666667 4.56959,-1.666667 6.09279,0 1.52319,-1.666667 4.56959,-1.666667 6.09278,0 l 1.5232,-2 -10.66238,-14 -7.61598,10" />
    <path
       style="fill:#63c6de;stroke:none"
       inkscape:connector-curvature="0"
       id="path421"
       d="m 123.57736,1.000001 10.66237,14 c 0.7616,-0.833333 2.2848,-0.833333 3.0464,0 1.52319,-1.666667 4.56958,-1.666667 6.09278,0 1.5232,-1.666667 4.56959,-1.666667 6.09279,0 l 4.56959,-6 -6.09279,-8 c -6.09279,-6.666667 -18.27836,-6.666667 -24.37114,0" />
    <path
       style="fill:#63c6de;stroke:none"
       inkscape:connector-curvature="0"
       id="path423"
       d="m 154.04129,9.000001 3.04639,4 c 0.7616,-0.833333 2.28479,-0.833333 3.04639,0 l 1.5232,2 6.09278,-8 c -3.04639,-3.333333 -9.13917,-3.333333 -12.18557,0 l -1.52319,2" />
    <path
       style="fill:#63c6de;stroke:none"
       inkscape:connector-curvature="0"
       id="path425"
       d="m 167.75005,7.000001 3.0464,4 c 1.52319,-1.666667 4.56959,-1.666667 6.09278,0 l 3.0464,4 1.52319,-2 -4.56959,-6 c -2.28479,-2.5 -6.85438,-2.5 -9.13918,0" />
    <path
       style="fill:#63c6de;stroke:none"
       inkscape:connector-curvature="0"
       id="path427"
       d="m 181.45882,13.000001 1.5232,2 c 0.7616,-0.833333 2.28479,-0.833333 3.04639,0 4.56959,-5 13.70877,-5 18.27836,0 l 44.1727,-57.999997 c -6.09279,-6.66667 -18.27836,-6.66667 -24.37115,0 l -42.6495,55.999997" />
    <path
       style="fill:#63c6de;stroke:none"
       inkscape:connector-curvature="0"
       id="path429"
       d="m 248.47947,-42.999996 18.27835,24 c 6.09279,-6.66667 18.27836,-6.66667 24.37115,0 l 25.89433,33.999997 4.56959,-6 c 2.2848,-2.5 6.85439,-2.5 9.13918,0 3.0464,-3.333333 9.13918,-3.333333 12.18557,0 l 1.5232,2 7.61598,-10 -68.54384,-89.999997 -35.03351,46" />
    <path
       style="fill:#357ec7;stroke:none"
       inkscape:connector-curvature="0"
       id="path431"
       d="M 55.033518,-88.999996 123.57736,1.000001 c 6.09278,-6.666667 18.27835,-6.666667 24.37114,0 l 6.09279,8 1.52319,-2 c 3.0464,-3.333333 9.13918,-3.333333 12.18557,0 2.2848,-2.5 6.85439,-2.5 9.13918,0 l 4.56959,6 42.6495,-55.999997 c 6.09279,-6.66667 18.27836,-6.66667 24.37115,0 l 35.03351,-46 C 226.39312,-151.5 112.15339,-151.5 55.033518,-88.999996" />
  </g>
</svg>
