<?xml version="1.0" encoding="UTF-8" standalone="no"?>
<!-- Created with Inkscape (http://www.inkscape.org/) -->

<svg
   xmlns:dc="http://purl.org/dc/elements/1.1/"
   xmlns:cc="http://creativecommons.org/ns#"
   xmlns:rdf="http://www.w3.org/1999/02/22-rdf-syntax-ns#"
   xmlns:svg="http://www.w3.org/2000/svg"
   xmlns="http://www.w3.org/2000/svg"
   xmlns:sodipodi="http://sodipodi.sourceforge.net/DTD/sodipodi-0.dtd"
   xmlns:inkscape="http://www.inkscape.org/namespaces/inkscape"
   id="svg9076"
   version="1.1"
   inkscape:version="0.48.2 r9819"
   width="790"
   height="971"
   xml:space="preserve"
   sodipodi:docname="VD_11_SliceSym.svg"><metadata
     id="metadata9082"><rdf:RDF><cc:Work
         rdf:about=""><dc:format>image/svg+xml</dc:format><dc:type
           rdf:resource="http://purl.org/dc/dcmitype/StillImage" /><dc:title /></cc:Work></rdf:RDF></metadata><defs
     id="defs9080" /><sodipodi:namedview
     pagecolor="#ffffff"
     bordercolor="#666666"
     borderopacity="1"
     objecttolerance="10"
     gridtolerance="10"
     guidetolerance="10"
     inkscape:pageopacity="0"
     inkscape:pageshadow="2"
     inkscape:window-width="1280"
     inkscape:window-height="699"
     id="namedview9078"
     showgrid="true"
     inkscape:zoom="0.54769955"
     inkscape:cx="823.36116"
     inkscape:cy="685.98275"
     inkscape:window-x="36"
     inkscape:window-y="63"
     inkscape:window-maximized="0"
     inkscape:current-layer="g9084"><inkscape:grid
       type="xygrid"
       id="grid9110"
       empspacing="5"
       visible="true"
       enabled="true"
       snapvisiblegridlinesonly="true" /></sodipodi:namedview><g
     id="g9084"
     inkscape:groupmode="layer"
     inkscape:label="VD_11_Slice"
     transform="matrix(1.25,0,0,-1.25,0,971)"><path
       d="m 1639.9594,848 0,0"
       style="fill:none;stroke:#000000;stroke-width:0.89999998;stroke-linecap:butt;stroke-linejoin:miter;stroke-miterlimit:10;stroke-opacity:1;stroke-dasharray:none"
       id="path11007"
       inkscape:connector-curvature="0"
       sodipodi:nodetypes="cc" /><path
       sodipodi:nodetypes="cc"
       inkscape:connector-curvature="0"
       id="path11009"
       style="fill:none;stroke:#000000;stroke-width:0.89999998;stroke-linecap:butt;stroke-linejoin:miter;stroke-miterlimit:10;stroke-opacity:1;stroke-dasharray:none"
       d="m 1639.9594,848 0,0" /><path
       sodipodi:nodetypes="cc"
       inkscape:connector-curvature="0"
       id="path11011"
       style="fill:none;stroke:#000000;stroke-width:0.89999998;stroke-linecap:butt;stroke-linejoin:miter;stroke-miterlimit:10;stroke-opacity:1;stroke-dasharray:none"
       d="m 1639.9594,848 0,0" /><path
       d="m 1639.9594,848 0,0"
       style="fill:none;stroke:#000000;stroke-width:0.89999998;stroke-linecap:butt;stroke-linejoin:miter;stroke-miterlimit:10;stroke-opacity:1;stroke-dasharray:none"
       id="path11013"
       inkscape:connector-curvature="0"
       sodipodi:nodetypes="cc" /><g
       id="g3011"
       transform="translate(-415.90032,-79.90345)"><path
         style="fill:none;stroke:#bf6100;stroke-width:0.89999998;stroke-linecap:butt;stroke-linejoin:miter;stroke-miterlimit:4;stroke-opacity:1;stroke-dasharray:none"
         d="M 1031.8937,95.90345 612.02,515.98 608,520 l -4.02,4.02 -3.96,3.96 -4.02,4.02 -4.02,4.02 -160.02,159.96"
         id="path11005"
         inkscape:connector-curvature="0"
         sodipodi:nodetypes="cccccccc" /><path
         d="m 1040.0001,848 0,0"
         style="fill:none;stroke:#000000;stroke-width:0.89999998;stroke-linecap:butt;stroke-linejoin:miter;stroke-miterlimit:10;stroke-opacity:1;stroke-dasharray:none"
         id="path10884"
         inkscape:connector-curvature="0"
         sodipodi:nodetypes="cc" /><path
         sodipodi:nodetypes="cc"
         inkscape:connector-curvature="0"
         id="path10902"
         style="fill:none;stroke:#000000;stroke-width:0.89999998;stroke-linecap:butt;stroke-linejoin:miter;stroke-miterlimit:10;stroke-opacity:1;stroke-dasharray:none"
         d="m 1040.0001,848 0,0" /><path
         sodipodi:nodetypes="cc"
         inkscape:connector-curvature="0"
         id="path10904"
         style="fill:none;stroke:#000000;stroke-width:0.89999998;stroke-linecap:butt;stroke-linejoin:miter;stroke-miterlimit:10;stroke-opacity:1;stroke-dasharray:none"
         d="m 1040.0001,848 0,0" /><path
         d="m 1040.0001,848 0,0"
         style="fill:none;stroke:#000000;stroke-width:0.89999998;stroke-linecap:butt;stroke-linejoin:miter;stroke-miterlimit:10;stroke-opacity:1;stroke-dasharray:none"
         id="path10906"
         inkscape:connector-curvature="0"
         sodipodi:nodetypes="cc" /><path
         d="m 1039.9593,848 0,0"
         style="fill:none;stroke:#000000;stroke-width:0.89999998;stroke-linecap:butt;stroke-linejoin:miter;stroke-miterlimit:10;stroke-opacity:1;stroke-dasharray:none"
         id="path10979"
         inkscape:connector-curvature="0"
         sodipodi:nodetypes="cc" /><path
         sodipodi:nodetypes="cc"
         inkscape:connector-curvature="0"
         id="path10995"
         style="fill:none;stroke:#000000;stroke-width:0.89999998;stroke-linecap:butt;stroke-linejoin:miter;stroke-miterlimit:10;stroke-opacity:1;stroke-dasharray:none"
         d="m 1039.9593,848 0,0" /><path
         sodipodi:nodetypes="cc"
         inkscape:connector-curvature="0"
         id="path10997"
         style="fill:none;stroke:#000000;stroke-width:0.89999998;stroke-linecap:butt;stroke-linejoin:miter;stroke-miterlimit:10;stroke-opacity:1;stroke-dasharray:none"
         d="m 1039.9593,848 0,0" /><path
         d="m 1039.9593,848 0,0"
         style="fill:none;stroke:#000000;stroke-width:0.89999998;stroke-linecap:butt;stroke-linejoin:miter;stroke-miterlimit:10;stroke-opacity:1;stroke-dasharray:none"
         id="path10999"
         inkscape:connector-curvature="0"
         sodipodi:nodetypes="cc" /><g
         id="g10857"><path
           d="m 440,848 0,0"
           style="fill:none;stroke:#000000;stroke-width:0.89999998;stroke-linecap:butt;stroke-linejoin:miter;stroke-miterlimit:10;stroke-opacity:1;stroke-dasharray:none"
           id="path9149"
           inkscape:connector-curvature="0"
           sodipodi:nodetypes="cc" /><path
           d="m 431.96,512.02 4.02,3.96 4.02,4.02 3.96,4.02 4.02,3.96 4.02,-3.96 3.96,-4.02 4.02,-4.02 4.02,4.02 3.96,4.02 4.02,-4.02 4.02,-4.02 4.02,4.02 3.96,4.02 4.02,3.96 7.98,8.04 8.04,-8.04 3.96,-3.96 4.02,-4.02 12,-12 7.98,-7.98 16.02,15.96 4.02,4.02 3.96,-4.02 4.02,-3.96 4.02,3.96 3.96,4.02 4.02,4.02 4.02,3.96 3.96,4.02 4.02,-4.02 4.02,-3.96 3.96,3.96 4.02,4.02 31.98,31.98 32.04,-31.98 3.96,-4.02 4.02,-3.96 16.02,-16.02 15.96,16.02 4.02,3.96 4.02,4.02 3.96,4.02 4.02,-4.02 4.02,-4.02 3.96,4.02 4.02,4.02 8.03524,0.0202 3.88518,3.9398 3.96,-3.96 4.02,-4.02 4.02,-4.02 3.96,-3.96 4.02,3.96 4.02,4.02 3.96,-4.02 8.04,-7.98 7.98,7.98 4.02,4.02 7.98,7.98 7.98,-7.98 4.02,-4.02 4.02,-3.96 3.96,-4.02 4.02,4.02 4.02,3.96 3.96,-3.96 4.02,-4.02 4.02,4.02 3.96,3.96 4.02,-3.96 4.02,-4.02 3.96,-4.02 24,-24 24,24 4.02,4.02 7.98,7.98 8.04,-7.98 3.96,-4.02 4.02,4.02 4.02,4.02 3.96,3.96 4.02,4.02 92.02938,91.98"
           style="fill:none;stroke:#ffa1a1;stroke-width:0.89999998;stroke-linecap:butt;stroke-linejoin:miter;stroke-miterlimit:10;stroke-opacity:1;stroke-dasharray:none"
           id="path9151"
           inkscape:connector-curvature="0"
           sodipodi:nodetypes="cccccccccccccccccccccccccccccccccccccccccccccccccccccccccccccccccccccccccccccccccccc" /><path
           d="M 431.96,623.98 524,532 l 4.02,-4.02 3.96,-3.96 4.02,-4.02 4.02,-4.02 3.96,4.02 8.04,7.98 7.98,-7.98 4.02,-4.02 24,-24 24,24 3.96,4.02 4.02,4.02 4.02,3.96 3.96,-3.96 4.02,-4.02 4.02,4.02 3.96,3.96 4.02,-3.96 4.02,-4.02 3.96,4.02 4.02,3.96 4.02,4.02 7.98,7.98 7.98,-7.98 4.02,-4.02 7.98,-7.98 8.04,7.98 3.96,4.02 4.02,-4.02 4.02,-3.96 3.96,3.96 4.02,4.02 4.02,4.02 3.96,3.96 4.02,-3.96 7.85266,-8.01662 8.02776,-8.00338 8.04,7.98 3.96,4.02 8.04,7.98 7.98,-7.98 4.02,-4.02 3.96,4.02 4.02,4.02 4.02,-4.02 3.96,-4.02 4.02,-3.96 7.98,-8.04 8.04,8.04 3.96,3.96 8.04,8.04 7.98,-8.04 4.02,-3.96 3.96,-4.02 4.02,-4.02 4.02,4.02 3.96,4.02 4.02,-4.02 12,-12 7.98,7.98 8.04,8.04 3.96,3.96 24,24 24,-24 4.02,-3.96 4.02,3.96 7.98,8.04 7.98,-8.04 4.02,-3.96 4.02,-4.02 7.98,-7.98 7.98,-8.04 20.03998,-19.98 28.0095,-27.79968"
           style="fill:none;stroke:#0000ff;stroke-width:0.89999998;stroke-linecap:butt;stroke-linejoin:miter;stroke-miterlimit:10;stroke-opacity:1;stroke-dasharray:none"
           id="path9153"
           inkscape:connector-curvature="0"
           sodipodi:nodetypes="cccccccccccccccccccccccccccccccccccccccccccccccccccccccccccccccccccccccccccc" /><path
           d="M 431.90032,456.20032 459.98,484 l 20.04,19.98 7.98,8.04 7.98,7.98 4.02,4.02 4.02,3.96 7.98,8.04 7.98,-8.04 4.02,-3.96 4.02,3.96 24,24 24,-24 3.96,-3.96 8.04,-8.04 7.98,-7.98 12,12 4.02,4.02 3.96,-4.02 4.02,-4.02 4.02,4.02 3.96,4.02 4.02,3.96 7.98,8.04 8.04,-8.04 3.96,-3.96 8.04,-8.04 7.98,8.04 4.02,3.96 3.96,4.02 4.02,4.02 4.02,-4.02 3.96,-4.02 4.02,4.02 7.98,7.98 8.04,-7.98 3.96,-4.02 8.04,-7.98 7.98,7.98 7.95021,0.01 3.97021,4.01 3.96,4.02 16.02,15.96 16.02,-15.96 3.96,-4.02 4.02,-4.02 4.02,-3.96 3.96,3.96 4.02,4.02 4.02,-4.02 3.96,-3.96 4.02,3.96 4.02,4.02 3.96,-4.02 4.02,-3.96 4.02,-4.02 7.98,-7.98 7.98,7.98 4.02,4.02 7.98,7.98 8.04,-7.98 3.96,-4.02 4.02,4.02 4.02,3.96 3.96,4.02 32.04,31.98 31.98,-31.98 4.02,-4.02 3.96,-3.96 4.02,-4.02 4.02,-4.02 3.96,4.02 4.02,4.02 4.02,3.96 3.96,-3.96 4.02,-4.02 4.02,4.02 3.96,3.96 4.02,-3.96 4.02,-4.02 4.02,-4.02 7.97998,-7.98 7.98,7.98 4.02,4.02 4.02,4.02 11.9895,12"
           style="fill:none;stroke:#00ff00;stroke-width:0.89999998;stroke-linecap:butt;stroke-linejoin:miter;stroke-miterlimit:10;stroke-opacity:1;stroke-dasharray:none"
           id="path9155"
           inkscape:connector-curvature="0"
           sodipodi:nodetypes="cccccccccccccccccccccccccccccccccccccccccccccccccccccccccccccccccccccccccccccccccccccc" /><path
           d="m 431.96,536.02 12,-12 4.02,-4.02 4.02,-4.02 7.98,-7.98 7.98,7.98 4.02,4.02 4.02,4.02 4.02,3.96 3.96,-3.96 4.02,-4.02 4.02,4.02 3.96,3.96 4.02,-3.96 4.02,-4.02 3.96,-4.02 4.02,4.02 4.02,4.02 3.96,3.96 4.02,4.02 31.98,31.98 32.04,-31.98 3.96,-4.02 4.02,-3.96 4.02,-4.02 3.96,4.02 8.04,7.98 7.98,-7.98 4.02,-4.02 7.98,-7.98 7.98,7.98 4.02,4.02 4.02,3.96 3.96,4.02 4.02,-4.02 4.02,-3.96 3.96,3.96 4.02,4.02 4.02,-4.02 3.96,-3.96 4.02,3.96 4.02,4.02 3.96,4.02 16.02,15.96 16.02,-15.96 3.96,-4.02 4.02,-4.02 19.95021,-19.98 31.93021,-31.98 44.04,43.98 3.96,4.02 4.02,3.96 16.02,16.02 15.96,-16.02 4.02,-3.96 7.98,-8.04 8.04,-7.98 12,12 3.96,4.02 4.02,-4.02 4.02,-4.02 3.96,-3.96 24,-24 12,12 16.02,15.96 4.02,4.02 3.96,4.02 4.02,3.96 16.02,16.02 16.01998,-16.02 3.96,-3.96 4.02,-4.02 4.02,-4.02 3.96,4.02 8.0294,7.98"
           style="fill:none;stroke:#ff0000;stroke-width:0.89999998;stroke-linecap:butt;stroke-linejoin:miter;stroke-miterlimit:10;stroke-opacity:1;stroke-dasharray:none"
           id="path9157"
           inkscape:connector-curvature="0"
           sodipodi:nodetypes="ccccccccccccccccccccccccccccccccccccccccccccccccccccccccccccccccccccccccccc" /><path
           d="M 431.96,527.98 440,520 l 3.96,-4.02 4.02,4.02 4.02,4.02 3.96,3.96 16.02,16.02 16.02,-16.02 4.02,-3.96 3.96,-4.02 4.02,-4.02 16.02,-15.96 12,-12 24,24 3.96,3.96 4.02,4.02 4.02,4.02 3.96,-4.02 12,-12 8.04,7.98 7.98,8.04 4.02,3.96 15.96,16.02 16.02,-16.02 4.02,-3.96 3.96,-4.02 44.04,-43.98 31.98,31.98 31.95021,0 15.97021,16.02 3.96,3.96 4.02,4.02 4.02,4.02 48,48 48,-48 3.96,-4.02 4.02,-4.02 4.02,-3.96 3.96,-4.02 4.02,4.02 16.02,15.96 15.96,-15.96 4.02,-4.02 12,-12 7.98,-7.98 16.02,-16.02 19.98,19.98 12.06,12 3.96,4.02 4.01998,4.02 4.02,3.96 23.9895,24"
           style="fill:none;stroke:#ff00ff;stroke-width:0.89999998;stroke-linecap:butt;stroke-linejoin:miter;stroke-miterlimit:10;stroke-opacity:1;stroke-dasharray:none"
           id="path9159"
           inkscape:connector-curvature="0"
           sodipodi:nodetypes="cccccccccccccccccccccccccccccccccccccccccccccccccccc" /><path
           d="m 431.96,551.98 24,-24 4.02,-3.96 4.02,-4.02 3.96,-4.02 12.06,-12 L 500,484 l 16.02,16.02 7.98,7.98 12,12 4.02,4.02 15.96,15.96 16.02,-15.96 4.02,-4.02 3.96,4.02 4.02,3.96 4.02,4.02 3.96,4.02 48,48 48,-48 4.02,-4.02 4.02,-4.02 3.96,-3.96 L 716,508 779.94021,443.99 811.92042,412 l 99.96,100.02 4.02,3.96 4.02,4.02 3.96,4.02 4.02,3.96 4.02,-3.96 7.98,-8.04 7.98,8.04 4.02,3.96 4.02,-3.96 3.96,-4.02 4.02,-4.02 7.98,-7.98 4.02,4.02 7.98,7.98 4.02,4.02 8.04,7.98 7.97998,-7.98 4.02,-4.02 3.96,-4.02 8.04,-7.98 7.98,7.98 4.0095,4.02"
           style="fill:none;stroke:#87cfff;stroke-width:0.89999998;stroke-linecap:butt;stroke-linejoin:miter;stroke-miterlimit:10;stroke-opacity:1;stroke-dasharray:none"
           id="path9161"
           inkscape:connector-curvature="0"
           sodipodi:nodetypes="ccccccccccccccccccccccccccccccccccccccccccccccccc" /><path
           d="m 431.96,520 4.02,-4.02 7.98,-7.98 8.04,7.98 3.96,4.02 4.02,4.02 7.98,7.98 8.04,-7.98 4.02,-4.02 7.98,-7.98 4.02,-4.02 7.98,7.98 4.02,4.02 3.96,4.02 4.02,3.96 4.02,-3.96 7.98,-8.04 7.98,8.04 4.02,3.96 4.02,-3.96 3.96,-4.02 4.02,-4.02 4.02,-3.96 99.96,-100.02 32.04,31.98 95.98,0.02 0,0 71.88042,71.98 4.02,4.02 4.02,4.02 3.96,3.96 4.02,4.02 4.02,4.02 160.00948,159.96"
           style="fill:none;stroke:#008f00;stroke-width:0.89999998;stroke-linecap:butt;stroke-linejoin:miter;stroke-miterlimit:10;stroke-opacity:1;stroke-dasharray:none"
           id="path9163"
           inkscape:connector-curvature="0"
           sodipodi:nodetypes="cccccccccccccccccccccccccccccccccc" /><path
           sodipodi:nodetypes="cc"
           inkscape:connector-curvature="0"
           id="path9617"
           style="fill:none;stroke:#000000;stroke-width:0.89999998;stroke-linecap:butt;stroke-linejoin:miter;stroke-miterlimit:10;stroke-opacity:1;stroke-dasharray:none"
           d="m 440,848 0,0" /><path
           sodipodi:nodetypes="cc"
           inkscape:connector-curvature="0"
           id="path9709"
           style="fill:none;stroke:#000000;stroke-width:0.89999998;stroke-linecap:butt;stroke-linejoin:miter;stroke-miterlimit:10;stroke-opacity:1;stroke-dasharray:none"
           d="m 440,848 0,0" /><path
           d="m 440,848 0,0"
           style="fill:none;stroke:#000000;stroke-width:0.89999998;stroke-linecap:butt;stroke-linejoin:miter;stroke-miterlimit:10;stroke-opacity:1;stroke-dasharray:none"
           id="path9753"
           inkscape:connector-curvature="0"
           sodipodi:nodetypes="cc" /><path
           style="fill:none;stroke:#000000;stroke-width:1.125;stroke-linecap:butt;stroke-linejoin:miter;stroke-miterlimit:4;stroke-opacity:1;stroke-dasharray:none"
           d="m 540,1098.75 0,-930 749.9746,0"
           id="path9803"
           inkscape:connector-curvature="0"
           transform="matrix(0.8,0,0,-0.8,0,975)"
           sodipodi:nodetypes="ccc" /><path
           style="fill:none;stroke:#ffd600;stroke-width:1.125;stroke-linecap:butt;stroke-linejoin:miter;stroke-miterlimit:4;stroke-opacity:1;stroke-dasharray:none"
           d="m 540,168.75 379.93776,379.9875 4.96277,5.0125 4.95,5.025 5.025,-5.025 5.025,-5.025 4.95,5.025 5.025,5.025 5.025,4.95 19.95,20.025 20.025,-20.025 5.025,-4.95 4.94997,-5.025 40.05,-39.975 39.975,39.975 5.025,5.025 4.95,4.95 5.025,-4.95 5.025,-5.025 4.95,5.025 5.025,4.95 5.025,5.025 4.95,5.025 5.025,4.95 5.025,-4.95 4.95,-5.025 5.025,5.025 20.025,19.95 9.975,-9.975 15,-15 5.025,-5.025 4.95,-4.95 10.05,-10.05 9.975,10.05 5.025,4.95 4.95,5.025 5.025,5.025 5.025,-5.025 5.025,-5.025 4.95,5.025 5.025,5.025 5.025,-5.025 4.95,-5.025 5.025,-4.95 5.025,4.95 4.95,5.025 5.025,5.025 5.0118,4.95"
           id="path9805"
           inkscape:connector-curvature="0"
           transform="matrix(0.8,0,0,-0.8,0,975)"
           sodipodi:nodetypes="cccccccccccccccccccccccccccccccccccccccccccccccc" /><path
           style="fill:none;stroke:#00ffff;stroke-width:1.125;stroke-linecap:butt;stroke-linejoin:miter;stroke-miterlimit:4;stroke-opacity:1;stroke-dasharray:none"
           d="m 540,1098.75 750,0 -0.025,-930"
           id="path9807"
           inkscape:connector-curvature="0"
           transform="matrix(0.8,0,0,-0.8,0,975)"
           sodipodi:nodetypes="ccc" /></g></g></g></svg>