<?xml version="1.0" encoding="UTF-8" standalone="no"?>
<!-- Created with Inkscape (http://www.inkscape.org/) -->

<svg
   width="500"
   height="150"
   id="svg2"
   version="1.1"
   inkscape:version="1.3.2 (091e20e, 2023-11-25, custom)"
   sodipodi:docname="VD_7_Cluster2.svg"
   inkscape:export-filename="VD_7_Cluster2.pdf"
   inkscape:export-xdpi="96"
   inkscape:export-ydpi="96"
   xmlns:inkscape="http://www.inkscape.org/namespaces/inkscape"
   xmlns:sodipodi="http://sodipodi.sourceforge.net/DTD/sodipodi-0.dtd"
   xmlns="http://www.w3.org/2000/svg"
   xmlns:svg="http://www.w3.org/2000/svg"
   xmlns:rdf="http://www.w3.org/1999/02/22-rdf-syntax-ns#"
   xmlns:cc="http://creativecommons.org/ns#"
   xmlns:dc="http://purl.org/dc/elements/1.1/"
   xmlns:ns0="http://www.iki.fi/pav/software/textext/">
  <sodipodi:namedview
     id="base"
     pagecolor="#ffffff"
     bordercolor="#666666"
     borderopacity="1.0"
     inkscape:pageopacity="0.0"
     inkscape:pageshadow="2"
     inkscape:zoom="2"
     inkscape:cx="212.5"
     inkscape:cy="103.25"
     inkscape:document-units="px"
     inkscape:current-layer="layer1"
     showgrid="true"
     inkscape:window-width="1918"
     inkscape:window-height="1561"
     inkscape:window-x="-7"
     inkscape:window-y="0"
     inkscape:window-maximized="0"
     inkscape:snap-bbox="true"
     inkscape:bbox-nodes="true"
     inkscape:showpageshadow="2"
     inkscape:pagecheckerboard="0"
     inkscape:deskcolor="#d1d1d1">
    <inkscape:grid
       snapvisiblegridlinesonly="true"
       enabled="true"
       visible="true"
       empspacing="5"
       id="grid2985"
       type="xygrid"
       originx="0"
       originy="0"
       spacingy="1"
       spacingx="1"
       units="px" />
  </sodipodi:namedview>
  <defs
     id="defs4">
    <inkscape:path-effect
       effect="spiro"
       id="path-effect39689"
       is_visible="true" />
    <inkscape:path-effect
       effect="spiro"
       id="path-effect39685"
       is_visible="true" />
    <inkscape:perspective
       sodipodi:type="inkscape:persp3d"
       inkscape:vp_x="0 : 75 : 1"
       inkscape:vp_y="0 : 1000 : 0"
       inkscape:vp_z="500 : 75 : 1"
       inkscape:persp3d-origin="250 : 50 : 1"
       id="perspective39651" />
    <inkscape:path-effect
       effect="spiro"
       id="path-effect39647"
       is_visible="true" />
    <inkscape:path-effect
       effect="spiro"
       id="path-effect39637"
       is_visible="true" />
    <inkscape:path-effect
       effect="spiro"
       id="path-effect39632"
       is_visible="true" />
    <inkscape:path-effect
       effect="spiro"
       id="path-effect39622"
       is_visible="true" />
    <inkscape:path-effect
       effect="spiro"
       id="path-effect39609"
       is_visible="true" />
    <inkscape:path-effect
       effect="spiro"
       id="path-effect39593"
       is_visible="true" />
    <inkscape:path-effect
       effect="spiro"
       id="path-effect39564"
       is_visible="true" />
    <inkscape:path-effect
       effect="spiro"
       id="path-effect39550"
       is_visible="true" />
    <inkscape:path-effect
       effect="spiro"
       id="path-effect39529"
       is_visible="true" />
    <inkscape:path-effect
       is_visible="true"
       id="path-effect39516"
       effect="spiro" />
    <inkscape:path-effect
       effect="spiro"
       id="path-effect39496"
       is_visible="true" />
    <inkscape:path-effect
       effect="spiro"
       id="path-effect39486"
       is_visible="true" />
    <inkscape:path-effect
       is_visible="true"
       id="path-effect39482"
       effect="spiro" />
    <inkscape:path-effect
       is_visible="true"
       id="path-effect39480"
       effect="spiro" />
    <inkscape:path-effect
       is_visible="true"
       id="path-effect39444"
       effect="spiro" />
    <inkscape:path-effect
       is_visible="true"
       id="path-effect39442"
       effect="spiro" />
    <inkscape:path-effect
       effect="spiro"
       id="path-effect39416"
       is_visible="true" />
    <inkscape:path-effect
       is_visible="true"
       id="path-effect39414"
       effect="spiro" />
    <inkscape:path-effect
       effect="spiro"
       id="path-effect38878"
       is_visible="true" />
    <inkscape:path-effect
       effect="spiro"
       id="path-effect4858"
       is_visible="true" />
    <inkscape:path-effect
       effect="spiro"
       id="path-effect4854"
       is_visible="true" />
    <inkscape:path-effect
       effect="spiro"
       id="path-effect4850"
       is_visible="true" />
    <inkscape:path-effect
       is_visible="true"
       id="path-effect4846"
       effect="spiro" />
    <inkscape:path-effect
       is_visible="true"
       id="path-effect4842"
       effect="spiro" />
    <inkscape:path-effect
       effect="spiro"
       id="path-effect4838"
       is_visible="true" />
    <inkscape:path-effect
       effect="spiro"
       id="path-effect4834"
       is_visible="true" />
    <inkscape:path-effect
       is_visible="true"
       id="path-effect4062"
       effect="spiro" />
    <inkscape:path-effect
       is_visible="true"
       id="path-effect4058"
       effect="spiro" />
    <inkscape:path-effect
       is_visible="true"
       id="path-effect4054"
       effect="spiro" />
    <inkscape:path-effect
       is_visible="true"
       id="path-effect4050"
       effect="spiro" />
    <inkscape:path-effect
       is_visible="true"
       id="path-effect4046"
       effect="spiro" />
    <inkscape:path-effect
       is_visible="true"
       id="path-effect4042"
       effect="spiro" />
    <inkscape:path-effect
       is_visible="true"
       id="path-effect4038"
       effect="spiro" />
    <inkscape:path-effect
       is_visible="true"
       id="path-effect4034"
       effect="spiro" />
    <inkscape:path-effect
       effect="spiro"
       id="path-effect4007"
       is_visible="true" />
    <inkscape:path-effect
       effect="spiro"
       id="path-effect4004"
       is_visible="true" />
    <inkscape:path-effect
       effect="spiro"
       id="path-effect4000"
       is_visible="true" />
    <inkscape:path-effect
       effect="spiro"
       id="path-effect3997"
       is_visible="true" />
    <inkscape:path-effect
       is_visible="true"
       id="path-effect3994"
       effect="spiro" />
    <inkscape:path-effect
       is_visible="true"
       id="path-effect3973"
       effect="spiro" />
    <inkscape:path-effect
       is_visible="true"
       id="path-effect3970"
       effect="spiro" />
    <inkscape:path-effect
       is_visible="true"
       id="path-effect3966"
       effect="spiro" />
    <inkscape:path-effect
       is_visible="true"
       id="path-effect3963"
       effect="spiro" />
    <inkscape:path-effect
       effect="spiro"
       id="path-effect3955"
       is_visible="true" />
    <inkscape:path-effect
       is_visible="true"
       id="path-effect3228"
       effect="spiro" />
    <inkscape:path-effect
       effect="spiro"
       id="path-effect3220"
       is_visible="true" />
    <inkscape:path-effect
       effect="spiro"
       id="path-effect3210"
       is_visible="true" />
    <inkscape:path-effect
       effect="spiro"
       id="path-effect3208"
       is_visible="true" />
    <inkscape:path-effect
       effect="spiro"
       id="path-effect3206"
       is_visible="true" />
    <inkscape:path-effect
       effect="spiro"
       id="path-effect3204"
       is_visible="true" />
    <inkscape:path-effect
       is_visible="true"
       id="path-effect3144"
       effect="spiro" />
    <inkscape:path-effect
       is_visible="true"
       id="path-effect3140"
       effect="spiro" />
    <inkscape:path-effect
       is_visible="true"
       id="path-effect3134"
       effect="spiro" />
    <inkscape:path-effect
       is_visible="true"
       id="path-effect3130"
       effect="spiro" />
  </defs>
  <metadata
     id="metadata7">
    <rdf:RDF>
      <cc:Work
         rdf:about="">
        <dc:format>image/svg+xml</dc:format>
        <dc:type
           rdf:resource="http://purl.org/dc/dcmitype/StillImage" />
        <dc:title />
      </cc:Work>
    </rdf:RDF>
  </metadata>
  <g
     transform="translate(0,-902.36218)"
     id="layer1"
     inkscape:groupmode="layer"
     inkscape:label="Layer 1">
    <path
       sodipodi:nodetypes="cc"
       inkscape:connector-curvature="0"
       id="path3860"
       d="m 159.97716,1032.305 c -10,-0.01 -10,-0.01 -19.99428,-10.0114"
       style="fill:none;stroke:#000000;stroke-width:1px;stroke-linecap:round;stroke-linejoin:miter;stroke-opacity:1" />
    <path
       inkscape:connector-curvature="0"
       id="path3862"
       d="M 139.98858,1022.3508 160,1002.3622"
       style="fill:none;stroke:#000000;stroke-width:1px;stroke-linecap:round;stroke-linejoin:miter;stroke-opacity:1"
       sodipodi:nodetypes="cc" />
    <path
       sodipodi:nodetypes="cc"
       inkscape:connector-curvature="0"
       id="path3864"
       d="m 140.02288,952.29358 c 9.99999,0.01 9.99999,0.01 19.99428,10.0114"
       style="fill:none;stroke:#000000;stroke-width:1px;stroke-linecap:butt;stroke-linejoin:miter;stroke-opacity:1" />
    <path
       sodipodi:nodetypes="cc"
       inkscape:connector-curvature="0"
       id="path3868"
       d="m 159.97716,1032.305 99.99998,0.057"
       style="fill:none;stroke:#000000;stroke-width:1px;stroke-linecap:butt;stroke-linejoin:miter;stroke-opacity:1" />
    <path
       sodipodi:nodetypes="ccc"
       inkscape:connector-curvature="0"
       id="path3872"
       d="M 140.02288,952.29358 40,952.36218 z"
       style="fill:none;stroke:#000000;stroke-width:1.11245227px;stroke-linecap:round;stroke-linejoin:miter;stroke-opacity:1" />
    <path
       sodipodi:nodetypes="cc"
       inkscape:connector-curvature="0"
       id="path3874"
       d="M 259.91879,932.36208 60,932.36218"
       style="fill:none;stroke:#000000;stroke-width:1.10950172px;stroke-linecap:round;stroke-linejoin:miter;stroke-opacity:1" />
    <path
       style="fill:none;stroke:#000000;stroke-width:1px;stroke-linecap:butt;stroke-linejoin:miter;stroke-opacity:1"
       d="m 460,1032.3622 -200.07502,-0.1258"
       id="path3922"
       inkscape:connector-curvature="0"
       sodipodi:nodetypes="cc" />
    <path
       sodipodi:nodetypes="cc"
       style="fill:none;stroke:#000000;stroke-width:1.05090225px;stroke-linecap:round;stroke-linejoin:miter;stroke-opacity:1"
       d="m 260.03432,932.23648 99.94779,0.057"
       id="path3924"
       inkscape:connector-curvature="0" />
    <path
       inkscape:connector-curvature="0"
       id="path3942"
       d="m 379.97639,942.30498 -20.01142,19.9886"
       style="fill:none;stroke:#000000;stroke-width:1px;stroke-linecap:butt;stroke-linejoin:miter;stroke-opacity:1" />
    <path
       sodipodi:nodetypes="cc"
       inkscape:connector-curvature="0"
       id="path3948"
       d="m 379.93639,1012.305 c -10,-0.01 -10,-0.01 -19.99428,-10.0114"
       style="fill:none;stroke:#000000;stroke-width:1px;stroke-linecap:butt;stroke-linejoin:miter;stroke-opacity:1" />
    <path
       style="fill:none;stroke:#000000;stroke-width:1.11245227px;stroke-linecap:round;stroke-linejoin:miter;stroke-opacity:1"
       d="m 479.93642,1012.3621 -100.00003,-0.057 z"
       id="path3950"
       inkscape:connector-curvature="0"
       sodipodi:nodetypes="ccc" />
    <path
       inkscape:connector-curvature="0"
       inkscape:original-d="m 260.03432,932.23648 0,-10"
       inkscape:path-effect="#path-effect4034"
       id="path4032"
       d="m 260.03432,932.23648 0,-10"
       style="fill:none;stroke:#000000;stroke-width:1;stroke-linecap:butt;stroke-linejoin:miter;stroke-miterlimit:4;stroke-opacity:1;stroke-dasharray:2, 2;stroke-dashoffset:0" />
    <path
       inkscape:connector-curvature="0"
       inkscape:original-d="m 260.03432,1032.2365 0,10"
       inkscape:path-effect="#path-effect4038"
       id="path4036"
       d="m 260.03432,1032.2365 0,10"
       style="fill:none;stroke:#000000;stroke-width:1;stroke-linecap:butt;stroke-linejoin:miter;stroke-miterlimit:4;stroke-opacity:1;stroke-dasharray:2, 2;stroke-dashoffset:0" />
    <path
       inkscape:connector-curvature="0"
       inkscape:original-d="m 40.03432,952.23648 0,10"
       inkscape:path-effect="#path-effect4042"
       id="path4040"
       d="m 40.03432,952.23648 0,10"
       style="fill:none;stroke:#000000;stroke-width:1;stroke-linecap:butt;stroke-linejoin:miter;stroke-miterlimit:4;stroke-opacity:1;stroke-dasharray:2, 2;stroke-dashoffset:0" />
    <path
       inkscape:connector-curvature="0"
       inkscape:original-d="m 40.03432,952.23648 -10,0"
       inkscape:path-effect="#path-effect4046"
       id="path4044"
       d="m 40.03432,952.23648 -10,0"
       style="fill:none;stroke:#000000;stroke-width:1;stroke-linecap:butt;stroke-linejoin:miter;stroke-miterlimit:4;stroke-opacity:1;stroke-dasharray:2, 2;stroke-dashoffset:0" />
    <path
       inkscape:connector-curvature="0"
       inkscape:original-d="m 480.03432,1012.2365 0,-10"
       inkscape:path-effect="#path-effect4050"
       id="path4048"
       d="m 480.03432,1012.2365 0,-10"
       style="fill:none;stroke:#000000;stroke-width:1;stroke-linecap:butt;stroke-linejoin:miter;stroke-miterlimit:4;stroke-opacity:1;stroke-dasharray:2, 2;stroke-dashoffset:0" />
    <path
       inkscape:connector-curvature="0"
       inkscape:original-d="m 480.03432,1012.2365 10,0"
       inkscape:path-effect="#path-effect4054"
       id="path4052"
       d="m 480.03432,1012.2365 10,0"
       style="fill:none;stroke:#000000;stroke-width:1;stroke-linecap:butt;stroke-linejoin:miter;stroke-miterlimit:4;stroke-opacity:1;stroke-dasharray:2, 2;stroke-dashoffset:0" />
    <path
       inkscape:connector-curvature="0"
       inkscape:original-d="m 140.03432,1022.2365 -5,-5"
       inkscape:path-effect="#path-effect4058"
       id="path4056"
       d="m 140.03432,1022.2365 -5,-5"
       style="fill:none;stroke:#000000;stroke-width:1;stroke-linecap:butt;stroke-linejoin:miter;stroke-miterlimit:4;stroke-opacity:1;stroke-dasharray:2, 1;stroke-dashoffset:0" />
    <path
       inkscape:connector-curvature="0"
       inkscape:original-d="m 140.03432,1022.2365 -5,5"
       inkscape:path-effect="#path-effect4062"
       id="path4060"
       d="m 140.03432,1022.2365 -5,5"
       style="fill:none;stroke:#000000;stroke-width:1;stroke-linecap:butt;stroke-linejoin:miter;stroke-miterlimit:4;stroke-opacity:1;stroke-dasharray:2, 1;stroke-dashoffset:0" />
    <path
       style="fill:none;stroke:#000000;stroke-width:1;stroke-linecap:butt;stroke-linejoin:miter;stroke-miterlimit:4;stroke-opacity:1;stroke-dasharray:2, 1;stroke-dashoffset:0"
       d="m 380.53432,981.73648 5,-5"
       id="path4832"
       inkscape:path-effect="#path-effect4834"
       inkscape:original-d="m 380.53432,981.73648 5,-5"
       inkscape:connector-curvature="0" />
    <path
       style="fill:none;stroke:#000000;stroke-width:1;stroke-linecap:butt;stroke-linejoin:miter;stroke-miterlimit:4;stroke-opacity:1;stroke-dasharray:2, 1;stroke-dashoffset:0"
       d="m 380.03432,982.23648 5,5"
       id="path4836"
       inkscape:path-effect="#path-effect4838"
       inkscape:original-d="m 380.03432,982.23648 5,5"
       inkscape:connector-curvature="0" />
    <path
       inkscape:connector-curvature="0"
       inkscape:original-d="m 380.53432,941.73648 5,-5"
       inkscape:path-effect="#path-effect4842"
       id="path4840"
       d="m 380.53432,941.73648 5,-5"
       style="fill:none;stroke:#000000;stroke-width:1;stroke-linecap:butt;stroke-linejoin:miter;stroke-miterlimit:4;stroke-opacity:1;stroke-dasharray:2, 1;stroke-dashoffset:0" />
    <path
       inkscape:connector-curvature="0"
       inkscape:original-d="m 380.53432,942.73648 5,5"
       inkscape:path-effect="#path-effect4846"
       id="path4844"
       d="m 380.53432,942.73648 5,5"
       style="fill:none;stroke:#000000;stroke-width:1;stroke-linecap:butt;stroke-linejoin:miter;stroke-miterlimit:4;stroke-opacity:1;stroke-dasharray:2, 1;stroke-dashoffset:0" />
    <path
       style="fill:none;stroke:#000000;stroke-width:1;stroke-linecap:butt;stroke-linejoin:miter;stroke-miterlimit:4;stroke-opacity:1;stroke-dasharray:2, 1;stroke-dashoffset:0"
       d="m 140.03432,982.23648 -5,5"
       id="path4848"
       inkscape:path-effect="#path-effect4850"
       inkscape:original-d="m 140.03432,982.23648 -5,5"
       inkscape:connector-curvature="0" />
    <path
       style="fill:none;stroke:#000000;stroke-width:1;stroke-linecap:butt;stroke-linejoin:miter;stroke-miterlimit:4;stroke-opacity:1;stroke-dasharray:2, 1;stroke-dashoffset:0"
       d="m 140.03432,982.23648 -5,-5"
       id="path4856"
       inkscape:path-effect="#path-effect4858"
       inkscape:original-d="m 140.03432,982.23648 -5,-5"
       inkscape:connector-curvature="0" />
    <g
       ns0:preamble=""
       ns0:text="$C_1$\n"
       word-spacing="normal"
       letter-spacing="normal"
       font-size-adjust="none"
       font-stretch="normal"
       font-weight="normal"
       font-variant="normal"
       font-style="normal"
       stroke-miterlimit="10.433"
       xml:space="preserve"
       transform="matrix(1,0,0,-1,31.61,1574.6022)"
       id="content"
       style="font-style:normal;font-variant:normal;font-weight:normal;font-stretch:normal;letter-spacing:normal;word-spacing:normal;text-anchor:start;fill:none;stroke:#000000;stroke-linecap:butt;stroke-linejoin:miter;stroke-miterlimit:10.43299961;stroke-opacity:1;stroke-dasharray:none;stroke-dashoffset:0">
<path
   id="path3202"
   d="m 230.99,664.14 0,0 0,0.01 0,0 0,0 0,0.01 0,0 0,0 0,0.01 0,0 0,0.01 -0.01,0 0,0 0,0.01 0,0 -0.01,0.01 0,0 0,0 0,0.01 -0.01,0 0,0 -0.01,0.01 0,0 -0.01,0 0,0.01 -0.01,0 0,0 0,0 -0.01,0 0,0 0,0 -0.01,0 0,0.01 0,0 -0.01,0 0,0 0,0 -0.01,0 0,0 -0.01,0 c -0.03,0 -0.04,-0.01 -0.14,-0.12 l -0.7,-0.77 c -0.09,0.14 -0.55,0.89 -1.65,0.89 -2.22,0 -4.46,-2.2 -4.46,-4.5 0,-1.64 1.17,-2.72 2.7,-2.72 0.86,0 1.62,0.39 2.14,0.85 0.93,0.81 1.1,1.72 1.1,1.75 0,0.1 -0.1,0.1 -0.12,0.1 -0.06,0 -0.11,-0.02 -0.13,-0.1 -0.09,-0.29 -0.32,-0.99 -1,-1.57 -0.69,-0.56 -1.32,-0.73 -1.83,-0.73 -0.9,0 -1.95,0.52 -1.95,2.07 0,0.57 0.2,2.18 1.2,3.34 0.61,0.7 1.54,1.2 2.43,1.2 1.01,0 1.6,-0.77 1.6,-1.92 0,-0.39 -0.03,-0.4 -0.03,-0.5 0,-0.1 0.11,-0.1 0.15,-0.1 0.13,0 0.13,0.02 0.18,0.2 z"
   inkscape:connector-curvature="0"
   style="fill:#000000;stroke-width:0" />
<path
   id="path3204"
   d="m 232.89,660.16 0,0.01 0,0.01 0,0.01 0,0.01 0,0 0,0.01 0,0.01 0,0.01 -0.01,0 0,0.01 0,0.01 0,0 0,0.01 0,0 0,0.01 0,0 0,0.01 0,0 0,0.01 -0.01,0.01 0,0.01 0,0 -0.01,0.01 0,0.01 -0.01,0 0,0.01 -0.01,0 0,0 -0.01,0.01 -0.01,0 -0.01,0 -0.01,0 0,0 -0.01,0 0,0 -0.01,0.01 -0.01,0 0,0 -0.01,0 0,0 -0.01,0 -0.01,0 -0.01,0 0,0 -0.01,0 -0.01,0 -0.01,0 -0.01,0 0,0 -0.01,0 c -0.45,-0.44 -1.08,-0.45 -1.37,-0.45 v -0.25 c 0.17,0 0.63,0 1.01,0.2 v -3.55 c 0,-0.23 0,-0.32 -0.69,-0.32 h -0.27 v -0.25 c 0.13,0.01 0.98,0.03 1.24,0.03 0.22,0 1.09,-0.02 1.25,-0.03 v 0.25 h -0.27 c -0.69,0 -0.69,0.09 -0.69,0.32 z"
   inkscape:connector-curvature="0"
   style="fill:#000000;stroke-width:0" />
</g>
    <path
       sodipodi:type="arc"
       style="fill:none;stroke:#000000;stroke-width:1;stroke-linecap:round;stroke-miterlimit:4;stroke-opacity:1;stroke-dasharray:none;stroke-dashoffset:0"
       id="path3319"
       sodipodi:cx="40"
       sodipodi:cy="40"
       sodipodi:rx="20"
       sodipodi:ry="20"
       d="M 20.001602,40.253144 C 19.86181,29.209601 28.700091,20.143227 39.743611,20.001643"
       transform="translate(20,912.36218)"
       sodipodi:start="3.1289351"
       sodipodi:end="4.6995692"
       sodipodi:open="true" />
    <path
       sodipodi:type="arc"
       style="fill:none;stroke:#000000;stroke-width:1;stroke-linecap:round;stroke-miterlimit:4;stroke-opacity:1;stroke-dasharray:none;stroke-dashoffset:0"
       id="path4091"
       sodipodi:cx="440"
       sodipodi:cy="100"
       sodipodi:rx="20"
       sodipodi:ry="20"
       d="m 420.0016,100.25314 c -0.13979,-11.043539 8.69849,-20.109913 19.74201,-20.251497"
       transform="matrix(-1,0,0,-1,900,1112.3622)"
       sodipodi:start="3.1289351"
       sodipodi:end="4.6995692"
       sodipodi:open="true" />
    <g
       style="font-style:normal;font-variant:normal;font-weight:normal;font-stretch:normal;letter-spacing:normal;word-spacing:normal;text-anchor:start;fill:none;stroke:#000000;stroke-linecap:butt;stroke-linejoin:miter;stroke-miterlimit:10.43299961;stroke-opacity:1;stroke-dasharray:none;stroke-dashoffset:0"
       id="g4208"
       transform="matrix(1,0,0,-1,-101.63,1673.0922)"
       xml:space="preserve"
       stroke-miterlimit="10.433"
       font-style="normal"
       font-variant="normal"
       font-weight="normal"
       font-stretch="normal"
       font-size-adjust="none"
       letter-spacing="normal"
       word-spacing="normal"
       ns0:text="$C_2$\n"
       ns0:preamble="">
<path
   style="fill:#000000;stroke-width:0"
   inkscape:connector-curvature="0"
   d="m 230.99,664.14 0,0 0,0.01 0,0 0,0 0,0.01 0,0 0,0 0,0.01 0,0 0,0.01 -0.01,0 0,0 0,0.01 0,0 -0.01,0.01 0,0 0,0 0,0.01 -0.01,0 0,0 -0.01,0.01 0,0 -0.01,0 0,0.01 -0.01,0 0,0 0,0 -0.01,0 0,0 0,0 -0.01,0 0,0.01 0,0 -0.01,0 0,0 0,0 -0.01,0 0,0 -0.01,0 c -0.03,0 -0.04,-0.01 -0.14,-0.12 l -0.7,-0.77 c -0.09,0.14 -0.55,0.89 -1.65,0.89 -2.22,0 -4.46,-2.2 -4.46,-4.5 0,-1.64 1.17,-2.72 2.7,-2.72 0.86,0 1.62,0.39 2.14,0.85 0.93,0.81 1.1,1.72 1.1,1.75 0,0.1 -0.1,0.1 -0.12,0.1 -0.06,0 -0.11,-0.02 -0.13,-0.1 -0.09,-0.29 -0.32,-0.99 -1,-1.57 -0.69,-0.56 -1.32,-0.73 -1.83,-0.73 -0.9,0 -1.95,0.52 -1.95,2.07 0,0.57 0.2,2.18 1.2,3.34 0.61,0.7 1.54,1.2 2.43,1.2 1.01,0 1.6,-0.77 1.6,-1.92 0,-0.39 -0.03,-0.4 -0.03,-0.5 0,-0.1 0.11,-0.1 0.15,-0.1 0.13,0 0.13,0.02 0.18,0.2 z"
   id="path4210" />
<path
   style="fill:#000000;stroke-width:0"
   inkscape:connector-curvature="0"
   d="m 234.07,657.01 h -0.24 c -0.02,-0.16 -0.09,-0.57 -0.18,-0.64 -0.05,-0.04 -0.59,-0.04 -0.69,-0.04 h -1.28 c 0.73,0.65 0.98,0.84 1.39,1.17 0.52,0.41 1,0.84 1,1.5 0,0.84 -0.74,1.36 -1.63,1.36 -0.86,0 -1.45,-0.61 -1.45,-1.25 0,-0.35 0.3,-0.39 0.37,-0.39 0.17,0 0.37,0.12 0.37,0.37 0,0.13 -0.05,0.37 -0.41,0.37 0.22,0.5 0.69,0.65 1.02,0.65 0.69,0 1.05,-0.54 1.05,-1.11 0,-0.6 -0.43,-1.08 -0.65,-1.33 l -1.68,-1.66 c -0.07,-0.06 -0.07,-0.07 -0.07,-0.27 h 2.87 z"
   id="path4212" />
</g>
    <g
       ns0:preamble=""
       ns0:text="\\[\nC_3\n\\]\n"
       word-spacing="normal"
       letter-spacing="normal"
       font-size-adjust="none"
       font-stretch="normal"
       font-weight="normal"
       font-variant="normal"
       font-style="normal"
       stroke-miterlimit="10.433"
       xml:space="preserve"
       transform="matrix(1,0,0,-1,-267.69,1690.1022)"
       id="g4448"
       style="font-style:normal;font-variant:normal;font-weight:normal;font-stretch:normal;letter-spacing:normal;word-spacing:normal;text-anchor:start;fill:none;stroke:#000000;stroke-linecap:butt;stroke-linejoin:miter;stroke-miterlimit:10.43299961;stroke-opacity:1;stroke-dasharray:none;stroke-dashoffset:0">
<path
   id="path4450"
   d="m 397.05,664.14 0,0 0,0.01 0,0 0,0 0,0.01 0,0 0,0 0,0.01 0,0 0,0.01 -0.01,0 0,0 0,0.01 0,0 0,0.01 -0.01,0 0,0 0,0.01 -0.01,0 0,0 -0.01,0.01 0,0 -0.01,0 0,0.01 -0.01,0 0,0 0,0 0,0 -0.01,0 0,0 0,0 -0.01,0.01 0,0 -0.01,0 0,0 0,0 -0.01,0 0,0 0,0 c -0.03,0 -0.05,-0.01 -0.15,-0.12 l -0.7,-0.77 c -0.09,0.14 -0.55,0.89 -1.65,0.89 -2.22,0 -4.46,-2.2 -4.46,-4.5 0,-1.64 1.17,-2.72 2.7,-2.72 0.86,0 1.62,0.39 2.15,0.85 0.92,0.81 1.09,1.72 1.09,1.75 0,0.1 -0.1,0.1 -0.12,0.1 -0.06,0 -0.11,-0.02 -0.13,-0.1 -0.09,-0.29 -0.32,-0.99 -1,-1.57 -0.69,-0.56 -1.32,-0.73 -1.83,-0.73 -0.9,0 -1.95,0.52 -1.95,2.07 0,0.57 0.21,2.18 1.2,3.34 0.61,0.7 1.54,1.2 2.43,1.2 1.01,0 1.6,-0.77 1.6,-1.92 0,-0.39 -0.03,-0.4 -0.03,-0.5 0,-0.1 0.11,-0.1 0.15,-0.1 0.13,0 0.13,0.02 0.18,0.2 z"
   inkscape:connector-curvature="0"
   style="fill:#000000;stroke-width:0" />
<path
   id="path4452"
   d="m 398.51,658.06 0.05,0 0.05,0 0.05,-0.01 0.05,0 0.05,-0.01 0.04,-0.02 0.05,-0.01 0.04,-0.02 0.04,-0.02 0.04,-0.02 0.04,-0.02 0.04,-0.02 0.03,-0.03 0.04,-0.03 0.03,-0.03 0.04,-0.04 0.03,-0.03 0.02,-0.04 0.03,-0.04 0.03,-0.05 0.02,-0.04 0.02,-0.05 0.02,-0.05 0.02,-0.05 0.01,-0.05 0.02,-0.06 0.01,-0.05 0.01,-0.06 0.01,-0.07 0,-0.06 0.01,-0.07 0,-0.07 c 0,-0.86 -0.5,-1.12 -0.91,-1.12 -0.28,0 -0.89,0.08 -1.18,0.49 0.32,0.02 0.4,0.24 0.4,0.39 0,0.22 -0.16,0.38 -0.38,0.38 -0.2,0 -0.39,-0.11 -0.39,-0.4 0,-0.65 0.72,-1.08 1.57,-1.08 0.96,0 1.63,0.65 1.63,1.34 0,0.55 -0.44,1.09 -1.21,1.25 0.73,0.26 1,0.78 1,1.21 0,0.55 -0.64,0.96 -1.41,0.96 -0.77,0 -1.37,-0.38 -1.37,-0.93 0,-0.24 0.16,-0.37 0.37,-0.37 0.21,0 0.35,0.16 0.35,0.35 0,0.2 -0.14,0.35 -0.35,0.36 0.24,0.31 0.72,0.39 0.98,0.39 0.31,0 0.75,-0.16 0.75,-0.76 0,-0.29 -0.1,-0.61 -0.28,-0.83 -0.23,-0.26 -0.42,-0.28 -0.77,-0.3 -0.17,-0.01 -0.19,-0.01 -0.22,-0.02 -0.02,0 -0.07,-0.01 -0.07,-0.09 0,-0.1 0.06,-0.1 0.18,-0.1 z"
   inkscape:connector-curvature="0"
   style="fill:#000000;stroke-width:0" />
</g>
    <g
       id="g4694"
       transform="matrix(1,0,0,-1,-101.63,1632.3822)"
       xml:space="preserve"
       stroke-miterlimit="10.433"
       font-style="normal"
       font-variant="normal"
       font-weight="normal"
       font-stretch="normal"
       font-size-adjust="none"
       letter-spacing="normal"
       word-spacing="normal"
       ns0:text="$C_4$\n"
       ns0:preamble=""
       style="font-style:normal;font-variant:normal;font-weight:normal;font-stretch:normal;letter-spacing:normal;word-spacing:normal;text-anchor:start;fill:none;stroke:#000000;stroke-linecap:butt;stroke-linejoin:miter;stroke-miterlimit:10.43299961;stroke-opacity:1;stroke-dasharray:none;stroke-dashoffset:0">
<path
   d="m 230.99,664.14 0,0 0,0.01 0,0 0,0 0,0.01 0,0 0,0 0,0.01 0,0 0,0.01 -0.01,0 0,0 0,0.01 0,0 -0.01,0.01 0,0 0,0 0,0.01 -0.01,0 0,0 -0.01,0.01 0,0 -0.01,0 0,0.01 -0.01,0 0,0 0,0 -0.01,0 0,0 0,0 -0.01,0 0,0.01 0,0 -0.01,0 0,0 0,0 -0.01,0 0,0 -0.01,0 c -0.03,0 -0.04,-0.01 -0.14,-0.12 l -0.7,-0.77 c -0.09,0.14 -0.55,0.89 -1.65,0.89 -2.22,0 -4.46,-2.2 -4.46,-4.5 0,-1.64 1.17,-2.72 2.7,-2.72 0.86,0 1.62,0.39 2.14,0.85 0.93,0.81 1.1,1.72 1.1,1.75 0,0.1 -0.1,0.1 -0.12,0.1 -0.06,0 -0.11,-0.02 -0.13,-0.1 -0.09,-0.29 -0.32,-0.99 -1,-1.57 -0.69,-0.56 -1.32,-0.73 -1.83,-0.73 -0.9,0 -1.95,0.52 -1.95,2.07 0,0.57 0.2,2.18 1.2,3.34 0.61,0.7 1.54,1.2 2.43,1.2 1.01,0 1.6,-0.77 1.6,-1.92 0,-0.39 -0.03,-0.4 -0.03,-0.5 0,-0.1 0.11,-0.1 0.15,-0.1 0.13,0 0.13,0.02 0.18,0.2 z"
   id="path4696"
   inkscape:connector-curvature="0"
   style="fill:#000000;stroke-width:0" />
<path
   d="m 234.24,656.88 v 0.25 h -0.78 v 3.1 c 0,0.15 0,0.2 -0.15,0.2 -0.08,0 -0.11,0 -0.18,-0.1 l -2.31,-3.2 v -0.25 h 2.05 l 0.05,0.25 h -1.84 l 1.84,2.55 v -2.55 l -0.05,-0.25 v -0.57 c 0,-0.23 0,-0.32 -0.56,-0.32 h -0.19 v -0.25 c 0.35,0.02 0.79,0.03 1.04,0.03 0.26,0 0.71,-0.01 1.06,-0.03 v 0.25 h -0.19 c -0.57,0 -0.57,0.09 -0.57,0.32 v 0.57 z"
   id="path4698"
   inkscape:connector-curvature="0"
   style="fill:#000000;stroke-width:0" />
</g>
    <g
       ns0:preamble=""
       ns0:text="$C_5$\n"
       word-spacing="normal"
       letter-spacing="normal"
       font-size-adjust="none"
       font-stretch="normal"
       font-weight="normal"
       font-variant="normal"
       font-style="normal"
       stroke-miterlimit="10.433"
       xml:space="preserve"
       transform="matrix(1,0,0,-1,-101.63,1647.2122)"
       id="g4946"
       style="font-style:normal;font-variant:normal;font-weight:normal;font-stretch:normal;letter-spacing:normal;word-spacing:normal;text-anchor:start;fill:none;stroke:#000000;stroke-linecap:butt;stroke-linejoin:miter;stroke-miterlimit:10.43299961;stroke-opacity:1;stroke-dasharray:none;stroke-dashoffset:0">
<path
   id="path4948"
   d="m 230.99,664.14 0,0 0,0.01 0,0 0,0 0,0.01 0,0 0,0 0,0.01 0,0 0,0.01 -0.01,0 0,0 0,0.01 0,0 -0.01,0.01 0,0 0,0 0,0.01 -0.01,0 0,0 -0.01,0.01 0,0 -0.01,0 0,0.01 -0.01,0 0,0 0,0 -0.01,0 0,0 0,0 -0.01,0 0,0.01 0,0 -0.01,0 0,0 0,0 -0.01,0 0,0 -0.01,0 c -0.03,0 -0.04,-0.01 -0.14,-0.12 l -0.7,-0.77 c -0.09,0.14 -0.55,0.89 -1.65,0.89 -2.22,0 -4.46,-2.2 -4.46,-4.5 0,-1.64 1.17,-2.72 2.7,-2.72 0.86,0 1.62,0.39 2.14,0.85 0.93,0.81 1.1,1.72 1.1,1.75 0,0.1 -0.1,0.1 -0.12,0.1 -0.06,0 -0.11,-0.02 -0.13,-0.1 -0.09,-0.29 -0.32,-0.99 -1,-1.57 -0.69,-0.56 -1.32,-0.73 -1.83,-0.73 -0.9,0 -1.95,0.52 -1.95,2.07 0,0.57 0.2,2.18 1.2,3.34 0.61,0.7 1.54,1.2 2.43,1.2 1.01,0 1.6,-0.77 1.6,-1.92 0,-0.39 -0.03,-0.4 -0.03,-0.5 0,-0.1 0.11,-0.1 0.15,-0.1 0.13,0 0.13,0.02 0.18,0.2 z"
   inkscape:connector-curvature="0"
   style="fill:#000000;stroke-width:0" />
<path
   id="path4950"
   d="m 231.63,659.62 0.04,-0.01 0.03,0 0.03,-0.01 0.03,-0.01 0.03,0 0.03,-0.01 0.03,-0.01 0.02,0 0.03,-0.01 0.02,0 0.03,0 0.02,-0.01 0.03,0 0.02,0 0.02,-0.01 0.02,0 0.02,0 0.02,0 0.02,0 0.02,0 0.02,-0.01 0.01,0 0.02,0 0.02,0 0.01,0 0.01,0 0.02,0 0.01,0 0.01,0 0.02,0 0.01,0 0.01,0 c 0.92,0 1.46,0.63 1.46,0.73 0,0.08 -0.05,0.1 -0.08,0.1 -0.02,0 -0.03,0 -0.06,-0.02 -0.17,-0.06 -0.53,-0.2 -1.05,-0.2 -0.2,0 -0.56,0.01 -1.02,0.18 -0.07,0.04 -0.08,0.04 -0.09,0.04 -0.09,0 -0.09,-0.08 -0.09,-0.19 v -2.05 c 0,-0.12 0,-0.2 0.11,-0.2 0.07,0 0.07,0.01 0.14,0.1 0.3,0.38 0.73,0.43 0.97,0.43 0.42,0 0.61,-0.33 0.64,-0.39 0.13,-0.23 0.17,-0.49 0.17,-0.89 0,-0.21 0,-0.62 -0.21,-0.93 -0.18,-0.25 -0.47,-0.42 -0.82,-0.42 -0.45,0 -0.92,0.26 -1.09,0.71 0.27,-0.02 0.4,0.16 0.4,0.34 0,0.3 -0.26,0.36 -0.35,0.36 -0.01,0 -0.35,0 -0.35,-0.38 0,-0.62 0.57,-1.25 1.41,-1.25 0.89,0 1.67,0.66 1.67,1.54 0,0.78 -0.6,1.51 -1.46,1.51 -0.31,0 -0.67,-0.08 -0.98,-0.34 z"
   inkscape:connector-curvature="0"
   style="fill:#000000;stroke-width:0" />
</g>
    <g
       id="g5204"
       transform="matrix(1,0,0,-1,-206.93,1609.1022)"
       xml:space="preserve"
       stroke-miterlimit="10.433"
       font-style="normal"
       font-variant="normal"
       font-weight="normal"
       font-stretch="normal"
       font-size-adjust="none"
       letter-spacing="normal"
       word-spacing="normal"
       ns0:text="$C_6$\n"
       ns0:preamble=""
       style="font-style:normal;font-variant:normal;font-weight:normal;font-stretch:normal;letter-spacing:normal;word-spacing:normal;text-anchor:start;fill:none;stroke:#000000;stroke-linecap:butt;stroke-linejoin:miter;stroke-miterlimit:10.43299961;stroke-opacity:1;stroke-dasharray:none;stroke-dashoffset:0">
<path
   d="m 230.99,664.14 0,0 0,0.01 0,0 0,0 0,0.01 0,0 0,0 0,0.01 0,0 0,0.01 -0.01,0 0,0 0,0.01 0,0 -0.01,0.01 0,0 0,0 0,0.01 -0.01,0 0,0 -0.01,0.01 0,0 -0.01,0 0,0.01 -0.01,0 0,0 0,0 -0.01,0 0,0 0,0 -0.01,0 0,0.01 0,0 -0.01,0 0,0 0,0 -0.01,0 0,0 -0.01,0 c -0.03,0 -0.04,-0.01 -0.14,-0.12 l -0.7,-0.77 c -0.09,0.14 -0.55,0.89 -1.65,0.89 -2.22,0 -4.46,-2.2 -4.46,-4.5 0,-1.64 1.17,-2.72 2.7,-2.72 0.86,0 1.62,0.39 2.14,0.85 0.93,0.81 1.1,1.72 1.1,1.75 0,0.1 -0.1,0.1 -0.12,0.1 -0.06,0 -0.11,-0.02 -0.13,-0.1 -0.09,-0.29 -0.32,-0.99 -1,-1.57 -0.69,-0.56 -1.32,-0.73 -1.83,-0.73 -0.9,0 -1.95,0.52 -1.95,2.07 0,0.57 0.2,2.18 1.2,3.34 0.61,0.7 1.54,1.2 2.43,1.2 1.01,0 1.6,-0.77 1.6,-1.92 0,-0.39 -0.03,-0.4 -0.03,-0.5 0,-0.1 0.11,-0.1 0.15,-0.1 0.13,0 0.13,0.02 0.18,0.2 z"
   id="path5206"
   inkscape:connector-curvature="0"
   style="fill:#000000;stroke-width:0" />
<path
   d="m 231.6,658.02 0,0.1 0,0.11 0,0.1 0.01,0.1 0.01,0.1 0.01,0.1 0.01,0.1 0.02,0.09 0.01,0.1 0.03,0.09 0.02,0.09 0.03,0.09 0.02,0.04 0.01,0.05 0.02,0.04 0.02,0.04 0.02,0.04 0.02,0.04 0.03,0.04 0.02,0.04 c 0.24,0.38 0.61,0.64 1.06,0.64 0.21,0 0.49,-0.06 0.63,-0.25 -0.18,-0.01 -0.32,-0.13 -0.32,-0.33 0,-0.17 0.11,-0.33 0.32,-0.33 0.21,0 0.34,0.14 0.34,0.34 0,0.41 -0.29,0.77 -0.98,0.77 -1.01,0 -2.03,-0.92 -2.03,-2.41 0,-1.81 0.85,-2.35 1.61,-2.35 0.85,0 1.59,0.65 1.59,1.56 0,0.88 -0.7,1.54 -1.52,1.54 l -0.03,-0.2 c 0.32,0 0.54,-0.12 0.71,-0.38 0.17,-0.27 0.17,-0.56 0.17,-0.96 0,-0.4 0,-0.69 -0.18,-0.96 -0.17,-0.24 -0.39,-0.38 -0.74,-0.38 h 0 c -0.34,0 -0.61,0.21 -0.76,0.51 -0.11,0.21 -0.16,0.56 -0.16,0.98 0,0.67 0.4,1.19 0.96,1.19 l 0.03,0.2 c -0.55,0 -0.86,-0.37 -1.01,-0.68 z"
   id="path5208"
   inkscape:connector-curvature="0"
   style="fill:#000000;stroke-width:0" />
</g>
    <g
       ns0:preamble=""
       ns0:text="$C_7$\n"
       word-spacing="normal"
       letter-spacing="normal"
       font-size-adjust="none"
       font-stretch="normal"
       font-weight="normal"
       font-variant="normal"
       font-style="normal"
       stroke-miterlimit="10.433"
       xml:space="preserve"
       transform="matrix(1,0,0,-1,-188.63,1629.3822)"
       id="g5468"
       style="font-style:normal;font-variant:normal;font-weight:normal;font-stretch:normal;letter-spacing:normal;word-spacing:normal;text-anchor:start;fill:none;stroke:#000000;stroke-linecap:butt;stroke-linejoin:miter;stroke-miterlimit:10.43299961;stroke-opacity:1;stroke-dasharray:none;stroke-dashoffset:0">
<path
   id="path5470"
   d="m 230.99,664.14 0,0 0,0.01 0,0 0,0 0,0.01 0,0 0,0 0,0.01 0,0 0,0.01 -0.01,0 0,0 0,0.01 0,0 -0.01,0.01 0,0 0,0 0,0.01 -0.01,0 0,0 -0.01,0.01 0,0 -0.01,0 0,0.01 -0.01,0 0,0 0,0 -0.01,0 0,0 0,0 -0.01,0 0,0.01 0,0 -0.01,0 0,0 0,0 -0.01,0 0,0 -0.01,0 c -0.03,0 -0.04,-0.01 -0.14,-0.12 l -0.7,-0.77 c -0.09,0.14 -0.55,0.89 -1.65,0.89 -2.22,0 -4.46,-2.2 -4.46,-4.5 0,-1.64 1.17,-2.72 2.7,-2.72 0.86,0 1.62,0.39 2.14,0.85 0.93,0.81 1.1,1.72 1.1,1.75 0,0.1 -0.1,0.1 -0.12,0.1 -0.06,0 -0.11,-0.02 -0.13,-0.1 -0.09,-0.29 -0.32,-0.99 -1,-1.57 -0.69,-0.56 -1.32,-0.73 -1.83,-0.73 -0.9,0 -1.95,0.52 -1.95,2.07 0,0.57 0.2,2.18 1.2,3.34 0.61,0.7 1.54,1.2 2.43,1.2 1.01,0 1.6,-0.77 1.6,-1.92 0,-0.39 -0.03,-0.4 -0.03,-0.5 0,-0.1 0.11,-0.1 0.15,-0.1 0.13,0 0.13,0.02 0.18,0.2 z"
   inkscape:connector-curvature="0"
   style="fill:#000000;stroke-width:0" />
<path
   id="path5472"
   d="m 234.28,659.94 0.01,0.01 0,0.01 0.01,0 0,0.01 0.01,0.01 0,0 0.01,0.01 0,0 0,0.01 0.01,0.01 0,0 0,0.01 0,0 0.01,0.01 0,0.01 0,0 0,0.01 0,0.01 0,0.01 0.01,0 0,0.01 0,0.01 0,0.01 0,0.01 0,0.01 0,0.01 0,0.02 0,0.01 0,0.01 0,0.01 0,0.01 0,0 0,0.01 0,0.01 0,0.01 h -1.83 c -0.28,0 -0.35,0.01 -0.6,0.03 -0.36,0.03 -0.38,0.07 -0.4,0.19 h -0.24 l -0.24,-1.49 h 0.24 c 0.01,0.11 0.08,0.57 0.19,0.64 0.06,0.04 0.62,0.04 0.73,0.04 h 1.51 c -0.22,-0.29 -0.57,-0.72 -0.72,-0.92 -0.91,-1.2 -1,-2.3 -1,-2.71 0,-0.08 0,-0.4 0.33,-0.4 0.34,0 0.34,0.31 0.34,0.41 v 0.27 c 0,1.35 0.27,1.97 0.57,2.35 z"
   inkscape:connector-curvature="0"
   style="fill:#000000;stroke-width:0" />
</g>
    <path
       id="path39412"
       style="fill:#ffcc00;fill-opacity:1;stroke:#000000;stroke-width:1px;stroke-linecap:butt;stroke-linejoin:miter;stroke-opacity:1"
       inkscape:path-effect="#path-effect39416"
       inkscape:original-d="m 160,1002.3622 -19.98857,-20.01152 20.01143,-19.9886 19.98857,20.0116 z"
       d="m 160,1002.3622 -19.98857,-20.01152 20.01143,-19.9886 19.98857,20.0116 L 160,1002.3622"
       inkscape:connector-curvature="0"
       sodipodi:nodetypes="ccccc" />
    <path
       id="path39425"
       style="fill:#abc837;fill-opacity:1;stroke:#000000;stroke-width:1px;stroke-linecap:butt;stroke-linejoin:miter;stroke-opacity:1"
       d="m 200.01142,962.37358 c -9.99428,-10.0014 -9.99428,-10.0014 -19.99428,-10.0114 -10,-0.01 -10,-0.01 -20.00571,9.9885 L 180,982.36218 z"
       inkscape:connector-curvature="0"
       sodipodi:nodetypes="ccccc" />
    <path
       sodipodi:nodetypes="ccccc"
       inkscape:connector-curvature="0"
       d="M 359.98857,1002.3507 340,982.33918 360.01143,962.35058 380,982.36218 359.98857,1002.3507"
       inkscape:original-d="M 359.98857,1002.3507 340,982.33918 360.01143,962.35058 380,982.36218 z"
       inkscape:path-effect="#path-effect39516"
       style="fill:#ffcc00;fill-opacity:1;stroke:#000000;stroke-width:1px;stroke-linecap:butt;stroke-linejoin:miter;stroke-opacity:1"
       id="path39514" />
    <path
       sodipodi:nodetypes="ccccc"
       inkscape:connector-curvature="0"
       d="M 359.99428,962.37358 C 350,952.37218 350,952.37218 340,952.36218 c -10,-0.01 -10,-0.01 -20.00571,9.9885 l 19.98857,20.0115 z"
       style="fill:#abc837;fill-opacity:1;stroke:#000000;stroke-width:1px;stroke-linecap:butt;stroke-linejoin:miter;stroke-opacity:1"
       id="path39518" />
    <path
       id="path39522"
       style="fill:#ff5555;fill-opacity:1;stroke:#000000;stroke-width:1px;stroke-linecap:butt;stroke-linejoin:miter;stroke-opacity:1"
       d="m 259.99714,1012.3679 c -10.00285,0 -10.00285,0 -19.99714,-10.0057 10.00571,-9.99852 10.00571,-9.99852 20.00285,-9.99422 z"
       inkscape:connector-curvature="0"
       sodipodi:nodetypes="cccc" />
    <path
       sodipodi:nodetypes="ccccc"
       inkscape:connector-curvature="0"
       d="m 299.98858,982.35078 c 9.99428,10.0014 9.99428,10.0014 19.99428,10.0114 10,0.01 10,0.01 20.00571,-9.9886 L 320,962.36218 z"
       style="fill:#ffcc00;fill-opacity:1;stroke:#000000;stroke-width:1px;stroke-linecap:butt;stroke-linejoin:miter;stroke-opacity:1"
       id="path39524" />
    <path
       sodipodi:nodetypes="cccc"
       inkscape:connector-curvature="0"
       d="m 260.00571,1012.3621 c 10.00285,0 10.00285,0 19.99714,-10.0057 C 269.99714,992.35788 269.99714,992.35788 260,992.36218 z"
       style="fill:#ff5555;fill-opacity:1;stroke:#000000;stroke-width:1px;stroke-linecap:butt;stroke-linejoin:miter;stroke-opacity:1"
       id="path39540" />
    <path
       sodipodi:nodetypes="ccccccc"
       inkscape:connector-curvature="0"
       d="m 240.00285,972.37218 19.99715,-0.01 0,-20 -40,0 c -10,-0.01 -10,-0.01 -20.00286,9.9943 l 19.99714,20.0114 c 10.01143,-10.0042 10.01143,-10.0042 20.00857,-9.9999 z"
       style="fill:#abc837;fill-opacity:1;stroke:#000000;stroke-width:1px;stroke-linecap:butt;stroke-linejoin:miter;stroke-opacity:1"
       id="path39558" />
    <path
       id="path39560"
       style="fill:#abc837;fill-opacity:1;stroke:#000000;stroke-width:1px;stroke-linecap:butt;stroke-linejoin:miter;stroke-opacity:1"
       d="m 280,972.36638 -19.99715,-0.01 0,-20 40,0 c 10,-0.01 10,-0.01 20.00286,9.9943 l -19.99714,20.0114 C 289.99714,972.35788 289.99714,972.35788 280,972.36218 z"
       inkscape:connector-curvature="0"
       sodipodi:nodetypes="ccccccc" />
    <path
       style="fill:none;stroke:#000000;stroke-width:1px;stroke-linecap:butt;stroke-linejoin:miter;stroke-opacity:1"
       d="m 360,932.36218 c 10,0.01 10,0.01 19.99428,10.0114"
       id="path39589"
       inkscape:connector-curvature="0"
       sodipodi:nodetypes="cc" />
    <path
       sodipodi:nodetypes="cccccccc"
       inkscape:connector-curvature="0"
       d="m 160.00856,1002.3795 19.98859,-20.01152 c 10.00571,9.9985 10.00571,9.9985 20.00285,9.9942 9.99715,0.016 9.99715,0.016 20,-9.9885 l 19.99427,19.98862 c -9.99712,9.9957 -9.99712,9.9957 -19.99712,10.0057 l -39.99145,0 c -9.99145,0.01 -9.99145,0.01 -19.99714,-9.9885 z"
       style="fill:#ff5555;fill-opacity:1;stroke:#000000;stroke-width:1px;stroke-linecap:butt;stroke-linejoin:miter;stroke-opacity:1"
       id="path39694" />
    <path
       sodipodi:nodetypes="cccccccc"
       inkscape:connector-curvature="0"
       d="M 280.01141,1002.3737 300,982.36218 c 10.00571,9.9985 10.00571,9.9985 20.00285,9.9942 9.99715,0.016 9.99715,0.016 20,-9.9885 l 19.99427,19.98862 C 350,1012.3522 350,1012.3522 340,1012.3622 l -39.99145,0 c -9.99145,0.01 -9.99145,0.01 -19.99714,-9.9885 z"
       style="fill:#ff5555;fill-opacity:1;stroke:#000000;stroke-width:1px;stroke-linecap:butt;stroke-linejoin:miter;stroke-opacity:1"
       id="path39696" />
    <path
       sodipodi:nodetypes="cccccc"
       inkscape:connector-curvature="0"
       d="m 259.98859,972.37368 -19.99145,0 c -9.99145,-0.01 -9.99145,-0.01 -19.99714,9.9885 l 19.98859,20.01152 c 10.00571,-9.99852 10.00571,-9.99852 20.00143,-9.99712 z"
       style="fill:#ffcc00;fill-opacity:1;stroke:#000000;stroke-width:1px;stroke-linecap:butt;stroke-linejoin:miter;stroke-opacity:1"
       id="path39713" />
    <path
       sodipodi:nodetypes="cccccc"
       inkscape:connector-curvature="0"
       d="m 260.00143,972.35928 19.99145,0 c 9.99145,-0.01 9.99145,-0.01 19.99714,9.9885 l -19.98859,20.01152 C 269.99572,992.36078 269.99572,992.36078 260,992.36218 z"
       style="fill:#ffcc00;fill-opacity:1;stroke:#000000;stroke-width:1px;stroke-linecap:butt;stroke-linejoin:miter;stroke-opacity:1"
       id="path39715" />
    <path
       id="path39717"
       style="fill:#ffcc00;fill-opacity:1;stroke:#000000;stroke-width:1px;stroke-linecap:butt;stroke-linejoin:miter;stroke-opacity:1"
       d="M 180.00572,982.35078 C 190,992.35218 190,992.35218 200,992.36218 c 10,0.01 10,0.01 20.00571,-9.9886 l -19.98857,-20.0114 z"
       inkscape:connector-curvature="0"
       sodipodi:nodetypes="ccccc" />
    <path
       sodipodi:nodetypes="cc"
       inkscape:connector-curvature="0"
       id="path3866"
       d="M 259.9429,1032.3622 260,932.36218"
       style="fill:none;stroke:#000000;stroke-width:1px;stroke-linecap:butt;stroke-linejoin:miter;stroke-opacity:1" />
  </g>
</svg>
