<?xml version="1.0" encoding="UTF-8" standalone="no"?>
<!-- Created with Inkscape (http://www.inkscape.org/) -->

<svg
   width="213.8185mm"
   height="180.04816mm"
   viewBox="0 0 213.8185 180.04816"
   version="1.1"
   id="svg1"
   inkscape:version="1.3.2 (091e20e, 2023-11-25, custom)"
   sodipodi:docname="VennGeneralConstruction.svg"
   inkscape:export-filename="VennGeneralConstruction.pdf"
   inkscape:export-xdpi="96"
   inkscape:export-ydpi="96"
   xmlns:inkscape="http://www.inkscape.org/namespaces/inkscape"
   xmlns:sodipodi="http://sodipodi.sourceforge.net/DTD/sodipodi-0.dtd"
   xmlns="http://www.w3.org/2000/svg"
   xmlns:svg="http://www.w3.org/2000/svg">
  <sodipodi:namedview
     id="namedview1"
     pagecolor="#ffffff"
     bordercolor="#000000"
     borderopacity="0.25"
     inkscape:showpageshadow="2"
     inkscape:pageopacity="0.0"
     inkscape:pagecheckerboard="0"
     inkscape:deskcolor="#d1d1d1"
     inkscape:document-units="mm"
     showgrid="true"
     inkscape:zoom="4.9210718"
     inkscape:cx="375.62955"
     inkscape:cy="195.99389"
     inkscape:window-width="3840"
     inkscape:window-height="1577"
     inkscape:window-x="-8"
     inkscape:window-y="-8"
     inkscape:window-maximized="1"
     inkscape:current-layer="layer1">
    <inkscape:grid
       id="grid1"
       units="mm"
       originx="18.568208"
       originy="-20.701848"
       spacingx="0.99999998"
       spacingy="1"
       empcolor="#0099e5"
       empopacity="0.30196078"
       color="#0099e5"
       opacity="0.14901961"
       empspacing="5"
       dotted="false"
       gridanglex="30"
       gridanglez="30"
       visible="true" />
  </sodipodi:namedview>
  <defs
     id="defs1" />
  <g
     inkscape:label="Layer 1"
     inkscape:groupmode="layer"
     id="layer1"
     transform="translate(18.568207,-20.701847)">
    <ellipse
       style="font-variation-settings:normal;opacity:1;fill:none;fill-opacity:1;fill-rule:evenodd;stroke:#000000;stroke-width:1.5;stroke-linecap:butt;stroke-linejoin:miter;stroke-miterlimit:4;stroke-dasharray:none;stroke-dashoffset:0;stroke-opacity:1;stop-color:#000000;stop-opacity:1"
       id="ellipse32"
       cx="85.32296"
       cy="81.451843"
       rx="60"
       ry="59.999996" />
    <ellipse
       style="font-variation-settings:normal;opacity:1;fill:none;fill-opacity:1;fill-rule:evenodd;stroke:#000000;stroke-width:1.5;stroke-linecap:butt;stroke-linejoin:miter;stroke-miterlimit:4;stroke-dasharray:none;stroke-dashoffset:0;stroke-opacity:1;stop-color:#000000;stop-opacity:1"
       id="ellipse31"
       cx="42.181793"
       cy="123.81753"
       rx="60"
       ry="59.999996" />
    <ellipse
       style="font-variation-settings:normal;opacity:1;fill:none;fill-opacity:1;fill-rule:evenodd;stroke:#000000;stroke-width:1.5;stroke-linecap:butt;stroke-linejoin:miter;stroke-miterlimit:4;stroke-dasharray:none;stroke-dashoffset:0;stroke-opacity:1;stop-color:#000000;stop-opacity:1"
       id="path1"
       cx="100"
       cy="140"
       rx="60"
       ry="59.999996" />
    <path
       style="font-variation-settings:normal;opacity:1;fill:none;fill-opacity:1;fill-rule:evenodd;stroke:#00ff00;stroke-width:0.496887;stroke-linecap:round;stroke-linejoin:miter;stroke-miterlimit:4;stroke-dasharray:none;stroke-dashoffset:0;stroke-opacity:1;stop-color:#000000;stop-opacity:1"
       id="path2"
       sodipodi:type="arc"
       sodipodi:cx="100"
       sodipodi:cy="-139.75156"
       sodipodi:rx="24.999502"
       sodipodi:ry="24.751057"
       sodipodi:start="0"
       sodipodi:end="3.1415927"
       sodipodi:arc-type="arc"
       d="m 124.9995,-139.75156 a 24.999502,24.751057 0 0 1 -12.49975,21.43505 24.999502,24.751057 0 0 1 -24.999501,0 24.999502,24.751057 0 0 1 -12.499751,-21.43505"
       transform="scale(1,-1)"
       sodipodi:open="true" />
    <path
       style="font-variation-settings:normal;opacity:1;fill:none;fill-opacity:1;fill-rule:evenodd;stroke:#ff0000;stroke-width:1.5;stroke-linecap:round;stroke-linejoin:miter;stroke-miterlimit:4;stroke-dasharray:none;stroke-dashoffset:0;stroke-opacity:1;stop-color:#000000;stop-opacity:1"
       id="path3"
       sodipodi:type="arc"
       sodipodi:cx="100"
       sodipodi:cy="-139.97842"
       sodipodi:rx="30"
       sodipodi:ry="29.97542"
       sodipodi:start="0"
       sodipodi:end="3.1415927"
       sodipodi:arc-type="arc"
       d="m 130,-139.97842 a 30,29.97542 0 0 1 -15,25.95947 30,29.97542 0 0 1 -30.000001,0 A 30,29.97542 0 0 1 70,-139.97842"
       transform="scale(1,-1)"
       sodipodi:open="true" />
    <path
       style="font-variation-settings:normal;opacity:1;fill:none;fill-opacity:1;fill-rule:evenodd;stroke:#00ff00;stroke-width:0.5;stroke-linecap:butt;stroke-linejoin:miter;stroke-miterlimit:4;stroke-dasharray:none;stroke-dashoffset:0;stroke-opacity:1;stop-color:#000000;stop-opacity:1"
       id="path4"
       sodipodi:type="arc"
       sodipodi:cx="100"
       sodipodi:cy="-140.00191"
       sodipodi:rx="34.999996"
       sodipodi:ry="35.001911"
       sodipodi:start="0"
       sodipodi:end="3.1415927"
       sodipodi:arc-type="arc"
       d="m 135,-140.00191 a 34.999996,35.001911 0 0 1 -17.5,30.31255 34.999996,35.001911 0 0 1 -34.999999,0 34.999996,35.001911 0 0 1 -17.499997,-30.31255"
       transform="scale(1,-1)"
       sodipodi:open="true" />
    <path
       style="font-variation-settings:normal;opacity:1;fill:none;fill-opacity:1;fill-rule:evenodd;stroke:#0000ff;stroke-width:2;stroke-linecap:butt;stroke-linejoin:miter;stroke-miterlimit:4;stroke-dasharray:none;stroke-dashoffset:0;stroke-opacity:1;stop-color:#000000;stop-opacity:1"
       id="path5"
       sodipodi:type="arc"
       sodipodi:cx="100.00081"
       sodipodi:cy="-139.78358"
       sodipodi:rx="40.000809"
       sodipodi:ry="39.752453"
       sodipodi:start="6.2750193"
       sodipodi:end="3.1470368"
       sodipodi:arc-type="arc"
       d="m 140.00028,-140.1082 a 40.000809,39.752453 0 0 1 -19.87347,34.67889 40.000809,39.752453 0 0 1 -40.157832,0.0543 A 40.000809,39.752453 0 0 1 60.000593,-140"
       transform="scale(1,-1)"
       sodipodi:open="true" />
    <path
       style="font-variation-settings:normal;opacity:1;fill:none;fill-opacity:1;fill-rule:evenodd;stroke:#00ff00;stroke-width:0.5;stroke-linecap:round;stroke-linejoin:miter;stroke-miterlimit:4;stroke-dasharray:none;stroke-dashoffset:0;stroke-opacity:1;stop-color:#000000;stop-opacity:1"
       id="path6"
       sodipodi:type="arc"
       sodipodi:cx="100.00133"
       sodipodi:cy="-139.51437"
       sodipodi:rx="45.001324"
       sodipodi:ry="44.463276"
       sodipodi:start="6.2722632"
       sodipodi:end="3.1470368"
       sodipodi:arc-type="arc"
       d="m 144.99997,-140 a 45.001324,44.463276 0 0 1 -22.28527,38.86984 45.001324,44.463276 0 0 1 -45.213595,0.12236 45.001324,44.463276 0 0 1 -22.500434,-38.74864"
       transform="scale(1,-1)"
       sodipodi:open="true" />
    <path
       style="font-variation-settings:normal;opacity:1;fill:none;fill-opacity:1;fill-rule:evenodd;stroke:#ff0000;stroke-width:1.5;stroke-linecap:butt;stroke-linejoin:miter;stroke-miterlimit:4;stroke-dasharray:none;stroke-dashoffset:0;stroke-opacity:1;stop-color:#000000;stop-opacity:1"
       id="path7"
       sodipodi:type="arc"
       sodipodi:cx="99.939697"
       sodipodi:cy="-139.99988"
       sodipodi:rx="50.060303"
       sodipodi:ry="49.999886"
       sodipodi:start="0"
       sodipodi:end="3.1470368"
       sodipodi:arc-type="arc"
       d="M 150,-139.99988 A 50.060303,49.999886 0 0 1 124.89113,-96.65341 50.060303,49.999886 0 0 1 74.752363,-96.789727 50.060303,49.999886 0 0 1 49.880136,-140.27208"
       transform="scale(1,-1)"
       sodipodi:open="true" />
    <path
       style="font-variation-settings:normal;opacity:1;fill:none;fill-opacity:1;fill-rule:evenodd;stroke:#00ff00;stroke-width:0.502905;stroke-linecap:round;stroke-linejoin:miter;stroke-miterlimit:4;stroke-dasharray:none;stroke-dashoffset:0;stroke-opacity:1;stop-color:#000000;stop-opacity:1"
       id="path8"
       sodipodi:type="arc"
       sodipodi:cx="100.00025"
       sodipodi:cy="-139.70137"
       sodipodi:rx="54.999752"
       sodipodi:ry="54.689457"
       sodipodi:start="0"
       sodipodi:end="3.1470368"
       sodipodi:arc-type="arc"
       d="M 155,-139.70137 A 54.999752,54.689457 0 0 1 127.41365,-92.289366 54.999752,54.689457 0 0 1 72.327683,-92.438469 54.999752,54.689457 0 0 1 45.001315,-139.99911"
       transform="scale(1,-1)"
       sodipodi:open="true" />
    <path
       style="font-variation-settings:normal;opacity:1;fill:none;fill-opacity:1;fill-rule:evenodd;stroke:#00ff00;stroke-width:0.501758;stroke-linecap:butt;stroke-linejoin:miter;stroke-miterlimit:4;stroke-dasharray:none;stroke-dashoffset:0;stroke-opacity:1;stop-color:#000000;stop-opacity:1"
       id="path9"
       sodipodi:type="arc"
       sodipodi:cx="99.993263"
       sodipodi:cy="-139.99837"
       sodipodi:rx="65.006744"
       sodipodi:ry="64.998375"
       sodipodi:start="0"
       sodipodi:end="3.1470368"
       sodipodi:arc-type="arc"
       d="M 165.00001,-139.99837 A 65.006744,64.998375 0 0 1 132.39442,-83.649239 65.006744,64.998375 0 0 1 67.285778,-83.826447 65.006744,64.998375 0 0 1 34.987482,-140.35223"
       transform="scale(1,-1)"
       sodipodi:open="true" />
    <path
       style="font-variation-settings:normal;opacity:1;fill:none;fill-opacity:1;fill-rule:evenodd;stroke:#ff0000;stroke-width:1.5;stroke-linecap:butt;stroke-linejoin:miter;stroke-miterlimit:4;stroke-dasharray:none;stroke-dashoffset:0;stroke-opacity:1;stop-color:#000000;stop-opacity:1"
       id="path10"
       sodipodi:type="arc"
       sodipodi:cx="99.981468"
       sodipodi:cy="-140"
       sodipodi:rx="70.018532"
       sodipodi:ry="69.999992"
       sodipodi:start="0"
       sodipodi:end="3.1470368"
       sodipodi:arc-type="arc"
       d="M 170,-140 A 70.018532,69.999992 0 0 1 134.88064,-79.314813 70.018532,69.999992 0 0 1 64.752353,-79.505657 70.018532,69.999992 0 0 1 29.963974,-140.38109"
       transform="scale(1,-1)"
       sodipodi:open="true" />
    <path
       style="font-variation-settings:normal;opacity:1;fill:none;fill-opacity:1;fill-rule:evenodd;stroke:#00ff00;stroke-width:0.500573;stroke-linecap:butt;stroke-linejoin:miter;stroke-miterlimit:4;stroke-dasharray:none;stroke-dashoffset:0;stroke-opacity:1;stop-color:#000000;stop-opacity:1"
       id="path11"
       sodipodi:type="arc"
       sodipodi:cx="100"
       sodipodi:cy="-140"
       sodipodi:rx="75"
       sodipodi:ry="74.995949"
       sodipodi:start="0"
       sodipodi:end="3.1470368"
       sodipodi:arc-type="arc"
       d="M 175,-140 A 75,74.995949 0 0 1 137.38207,-74.983662 75,74.995949 0 0 1 62.264509,-75.188127 75,74.995949 0 0 1 25.001111,-140.40829"
       transform="scale(1,-1)"
       sodipodi:open="true" />
    <path
       style="font-variation-settings:normal;opacity:1;fill:none;fill-opacity:1;fill-rule:evenodd;stroke:#0000ff;stroke-width:2;stroke-linecap:round;stroke-linejoin:miter;stroke-miterlimit:4;stroke-dasharray:none;stroke-dashoffset:0;stroke-opacity:1;stop-color:#000000;stop-opacity:1"
       id="path12"
       sodipodi:type="arc"
       sodipodi:cx="99.999405"
       sodipodi:cy="-139.40561"
       sodipodi:rx="80.000595"
       sodipodi:ry="79.397469"
       sodipodi:start="6.2743884"
       sodipodi:end="3.1470368"
       sodipodi:arc-type="arc"
       d="m 179.9969,-140.10405 a 80.000595,79.397469 0 0 1 -39.71694,69.297327 80.000595,79.397469 0 0 1 -80.329142,0.133647 80.000595,79.397469 0 0 1 -39.950823,-69.164784"
       transform="scale(1,-1)"
       sodipodi:open="true" />
    <path
       style="font-variation-settings:normal;opacity:1;fill:none;fill-opacity:1;fill-rule:evenodd;stroke:#00ff00;stroke-width:0.500599;stroke-linecap:butt;stroke-linejoin:miter;stroke-miterlimit:4;stroke-dasharray:none;stroke-dashoffset:0;stroke-opacity:1;stop-color:#000000;stop-opacity:1"
       id="path13"
       sodipodi:type="arc"
       sodipodi:cx="100.00063"
       sodipodi:cy="-139.35245"
       sodipodi:rx="85.001884"
       sodipodi:ry="84.352448"
       sodipodi:start="6.2755085"
       sodipodi:end="3.1470368"
       sodipodi:arc-type="arc"
       d="m 185.00001,-140 a 85.001884,84.352448 0 0 1 -42.25551,73.559202 85.001884,84.352448 0 0 1 -85.323588,0.09452 85.001884,84.352448 0 0 1 -42.420904,-73.465394"
       transform="scale(1,-1)"
       sodipodi:open="true" />
    <path
       style="font-variation-settings:normal;opacity:1;fill:none;fill-opacity:1;fill-rule:evenodd;stroke:#ff0000;stroke-width:1.5;stroke-linecap:butt;stroke-linejoin:miter;stroke-miterlimit:4;stroke-dasharray:none;stroke-dashoffset:0;stroke-opacity:1;stop-color:#000000;stop-opacity:1"
       id="path14"
       sodipodi:type="arc"
       sodipodi:cx="99.981316"
       sodipodi:cy="-140"
       sodipodi:rx="90.018684"
       sodipodi:ry="89.991867"
       sodipodi:start="0"
       sodipodi:end="3.1470368"
       sodipodi:arc-type="arc"
       d="M 190,-140 A 90.018684,89.991867 0 0 1 144.84911,-61.983231 90.018684,89.991867 0 0 1 54.689326,-62.22858 90.018684,89.991867 0 0 1 9.9639652,-140.48993"
       transform="scale(1,-1)"
       sodipodi:open="true" />
    <path
       style="font-variation-settings:normal;opacity:1;fill:none;fill-opacity:1;fill-rule:evenodd;stroke:#00ff00;stroke-width:0.500574;stroke-linecap:butt;stroke-linejoin:miter;stroke-miterlimit:4;stroke-dasharray:none;stroke-dashoffset:0;stroke-opacity:1;stop-color:#000000;stop-opacity:1"
       id="path15"
       sodipodi:type="arc"
       sodipodi:cx="99.999298"
       sodipodi:cy="-139.99998"
       sodipodi:rx="95.000702"
       sodipodi:ry="94.991844"
       sodipodi:start="0"
       sodipodi:end="3.1470368"
       sodipodi:arc-type="arc"
       d="M 195,-139.99998 A 95.000702,94.991844 0 0 1 147.35027,-57.648578 95.000702,94.991844 0 0 1 52.200656,-57.907559 95.000702,94.991844 0 0 1 5.000004,-140.51713"
       transform="scale(1,-1)"
       sodipodi:open="true" />
    <path
       style="font-variation-settings:normal;opacity:1;fill:none;fill-opacity:1;fill-rule:evenodd;stroke:#0000ff;stroke-width:2;stroke-linecap:butt;stroke-linejoin:miter;stroke-miterlimit:4;stroke-dasharray:none;stroke-dashoffset:0;stroke-opacity:1;stop-color:#000000;stop-opacity:1"
       id="path16"
       sodipodi:type="arc"
       sodipodi:cx="160"
       sodipodi:cy="139.99998"
       sodipodi:rx="20"
       sodipodi:ry="20.000011"
       sodipodi:start="0"
       sodipodi:end="3.1415927"
       sodipodi:open="true"
       sodipodi:arc-type="arc"
       d="m 180,139.99998 a 20,20.000011 0 0 1 -10,17.32052 20,20.000011 0 0 1 -20,0 20,20.000011 0 0 1 -10,-17.32052" />
    <path
       style="font-variation-settings:normal;opacity:1;fill:none;fill-opacity:1;fill-rule:evenodd;stroke:#00ff01;stroke-width:0.5;stroke-linecap:butt;stroke-linejoin:miter;stroke-miterlimit:4;stroke-dasharray:none;stroke-dashoffset:0;stroke-opacity:1;stop-color:#000000;stop-opacity:1"
       id="path17"
       sodipodi:type="arc"
       sodipodi:cx="160"
       sodipodi:cy="139.99998"
       sodipodi:rx="25"
       sodipodi:ry="25.000011"
       sodipodi:start="0"
       sodipodi:end="3.1415927"
       sodipodi:open="true"
       sodipodi:arc-type="arc"
       d="m 185,139.99998 a 25,25.000011 0 0 1 -12.5,21.65065 25,25.000011 0 0 1 -25,0 25,25.000011 0 0 1 -12.5,-21.65065" />
    <path
       style="font-variation-settings:normal;opacity:1;fill:none;fill-opacity:1;fill-rule:evenodd;stroke:#ff0000;stroke-width:1.5;stroke-linecap:butt;stroke-linejoin:miter;stroke-miterlimit:4;stroke-dasharray:none;stroke-dashoffset:0;stroke-opacity:1;stop-color:#000000;stop-opacity:1"
       id="path18"
       sodipodi:type="arc"
       sodipodi:cx="160"
       sodipodi:cy="139.99998"
       sodipodi:rx="30"
       sodipodi:ry="30.00001"
       sodipodi:start="0"
       sodipodi:end="3.1415927"
       sodipodi:open="true"
       sodipodi:arc-type="arc"
       d="m 190,139.99998 a 30,30.00001 0 0 1 -15,25.98078 30,30.00001 0 0 1 -30,-1e-5 30,30.00001 0 0 1 -15,-25.98077" />
    <path
       style="font-variation-settings:normal;opacity:1;fill:none;fill-opacity:1;fill-rule:evenodd;stroke:#00ff00;stroke-width:0.5;stroke-linecap:round;stroke-linejoin:miter;stroke-miterlimit:4;stroke-dasharray:none;stroke-dashoffset:0;stroke-opacity:1;stop-color:#000000;stop-opacity:1"
       id="path19"
       sodipodi:type="arc"
       sodipodi:cx="160"
       sodipodi:cy="139.99998"
       sodipodi:rx="35"
       sodipodi:ry="35.000011"
       sodipodi:start="0"
       sodipodi:end="3.1415927"
       sodipodi:open="true"
       sodipodi:arc-type="arc"
       d="m 195,139.99998 a 35,35.000011 0 0 1 -17.5,30.3109 35,35.000011 0 0 1 -35,0 35,35.000011 0 0 1 -17.5,-30.3109" />
    <path
       style="font-variation-settings:normal;opacity:1;fill:none;fill-opacity:1;fill-rule:evenodd;stroke:#00ff00;stroke-width:0.5;stroke-linecap:round;stroke-linejoin:miter;stroke-miterlimit:4;stroke-dasharray:none;stroke-dashoffset:0;stroke-opacity:1;stop-color:#000000;stop-opacity:1"
       id="path20"
       sodipodi:type="arc"
       sodipodi:cx="160"
       sodipodi:cy="139.99998"
       sodipodi:rx="14.999999"
       sodipodi:ry="15.00001"
       sodipodi:start="0"
       sodipodi:end="3.1415927"
       sodipodi:open="true"
       sodipodi:arc-type="arc"
       d="m 175,139.99998 a 14.999999,15.00001 0 0 1 -7.5,12.99039 14.999999,15.00001 0 0 1 -15,0 14.999999,15.00001 0 0 1 -7.5,-12.99039" />
    <path
       style="font-variation-settings:normal;opacity:1;fill:none;fill-opacity:1;fill-rule:evenodd;stroke:#ff0001;stroke-width:1.5;stroke-linecap:round;stroke-linejoin:miter;stroke-miterlimit:4;stroke-dasharray:none;stroke-dashoffset:0;stroke-opacity:1;stop-color:#000000;stop-opacity:1"
       id="path21"
       sodipodi:type="arc"
       sodipodi:cx="160"
       sodipodi:cy="140.02026"
       sodipodi:rx="10.000002"
       sodipodi:ry="9.837841"
       sodipodi:start="0"
       sodipodi:end="3.1415927"
       sodipodi:open="true"
       sodipodi:arc-type="arc"
       d="m 170,140.02026 a 10.000002,9.837841 0 0 1 -5,8.51982 10.000002,9.837841 0 0 1 -10,0 10.000002,9.837841 0 0 1 -5,-8.51982" />
    <path
       style="font-variation-settings:normal;opacity:1;fill:none;fill-opacity:1;fill-rule:evenodd;stroke:#00ff00;stroke-width:0.5;stroke-linecap:round;stroke-linejoin:miter;stroke-miterlimit:4;stroke-dasharray:none;stroke-dashoffset:0;stroke-opacity:1;stop-color:#000000;stop-opacity:1"
       id="path22"
       sodipodi:type="arc"
       sodipodi:cx="160"
       sodipodi:cy="140.02026"
       sodipodi:rx="5.0000014"
       sodipodi:ry="4.979732"
       sodipodi:start="0"
       sodipodi:end="3.1415927"
       sodipodi:open="true"
       sodipodi:arc-type="arc"
       d="m 165,140.02026 a 5.0000014,4.979732 0 0 1 -2.5,4.31258 5.0000014,4.979732 0 0 1 -5,0 5.0000014,4.979732 0 0 1 -2.5,-4.31258" />
    <path
       style="font-variation-settings:normal;opacity:1;fill:none;fill-opacity:1;fill-rule:evenodd;stroke:#0000ff;stroke-width:2;stroke-linecap:round;stroke-linejoin:miter;stroke-miterlimit:4;stroke-dasharray:none;stroke-dashoffset:0;stroke-opacity:1;stop-color:#000000;stop-opacity:1"
       id="path23"
       sodipodi:type="arc"
       sodipodi:cx="40"
       sodipodi:cy="139.99998"
       sodipodi:rx="20"
       sodipodi:ry="20.000011"
       sodipodi:start="0"
       sodipodi:end="3.1389471"
       sodipodi:open="true"
       sodipodi:arc-type="arc"
       d="m 60,139.99998 a 20,20.000011 0 0 1 -19.973544,20 A 20,20.000011 0 0 1 20.00007,140.0529" />
    <path
       style="font-variation-settings:normal;opacity:1;vector-effect:none;fill:#ff0000;fill-opacity:1;fill-rule:evenodd;stroke-width:0.264583;stroke-linecap:butt;stroke-linejoin:miter;stroke-miterlimit:4;stroke-dasharray:none;stroke-dashoffset:0;stroke-opacity:1;-inkscape-stroke:none;stop-color:#000000;stop-opacity:1"
       id="path24"
       sodipodi:type="arc"
       sodipodi:cx="20.183544"
       sodipodi:cy="139.83873"
       sodipodi:rx="0.18354407"
       sodipodi:ry="0.16126835"
       sodipodi:start="0"
       sodipodi:end="3.1389471"
       sodipodi:open="true"
       sodipodi:arc-type="arc"
       d="M 20.367088,139.83873 A 0.18354407,0.16126835 0 0 1 20.183787,140 0.18354407,0.16126835 0 0 1 20.000001,139.83916" />
    <path
       style="font-variation-settings:normal;opacity:1;vector-effect:none;fill:#ff0000;fill-opacity:1;fill-rule:evenodd;stroke-width:0.264583;stroke-linecap:butt;stroke-linejoin:miter;stroke-miterlimit:4;stroke-dasharray:none;stroke-dashoffset:0;stroke-opacity:1;-inkscape-stroke:none;stop-color:#000000;stop-opacity:1"
       id="path25"
       sodipodi:type="arc"
       sodipodi:cx="20.183544"
       sodipodi:cy="139.83873"
       sodipodi:rx="0.18354407"
       sodipodi:ry="0.16126835"
       sodipodi:start="6.2743884"
       sodipodi:end="3.1470368"
       sodipodi:open="true"
       sodipodi:arc-type="arc"
       d="m 20.367081,139.83731 a 0.18354407,0.16126835 0 0 1 -0.09112,0.14075 0.18354407,0.16126835 0 0 1 -0.184298,2.8e-4 0.18354407,0.16126835 0 0 1 -0.09166,-0.14049" />
    <path
       style="font-variation-settings:normal;opacity:1;fill:none;fill-opacity:1;fill-rule:evenodd;stroke:#00ff00;stroke-width:0.5;stroke-linecap:round;stroke-linejoin:miter;stroke-miterlimit:4;stroke-dasharray:none;stroke-dashoffset:0;stroke-opacity:1;stop-color:#000000;stop-opacity:1"
       id="path26"
       sodipodi:type="arc"
       sodipodi:cx="60"
       sodipodi:cy="140.02026"
       sodipodi:rx="5.0000014"
       sodipodi:ry="4.979732"
       sodipodi:start="0"
       sodipodi:end="3.1415927"
       sodipodi:open="true"
       sodipodi:arc-type="arc"
       d="m 65.000001,140.02026 a 5.0000014,4.979732 0 0 1 -2.5,4.31258 5.0000014,4.979732 0 0 1 -5.000002,0 5.0000014,4.979732 0 0 1 -2.5,-4.31258" />
    <path
       style="font-variation-settings:normal;opacity:1;fill:none;fill-opacity:1;fill-rule:evenodd;stroke:#00ff00;stroke-width:0.5;stroke-linecap:round;stroke-linejoin:miter;stroke-miterlimit:4;stroke-dasharray:none;stroke-dashoffset:0;stroke-opacity:1;stop-color:#000000;stop-opacity:1"
       id="path29"
       sodipodi:type="arc"
       sodipodi:cx="60.000004"
       sodipodi:cy="140"
       sodipodi:rx="14.999999"
       sodipodi:ry="15.00001"
       sodipodi:start="0"
       sodipodi:end="3.1415927"
       sodipodi:open="true"
       sodipodi:arc-type="arc"
       d="m 75.000003,140 a 14.999999,15.00001 0 0 1 -7.5,12.99039 14.999999,15.00001 0 0 1 -14.999999,0 A 14.999999,15.00001 0 0 1 45.000005,140" />
    <path
       style="font-variation-settings:normal;opacity:1;fill:none;fill-opacity:1;fill-rule:evenodd;stroke:#ff0001;stroke-width:1.5;stroke-linecap:round;stroke-linejoin:miter;stroke-miterlimit:4;stroke-dasharray:none;stroke-dashoffset:0;stroke-opacity:1;stop-color:#000000;stop-opacity:1"
       id="path31"
       sodipodi:type="arc"
       sodipodi:cx="19.963974"
       sodipodi:cy="140.03946"
       sodipodi:rx="10.000002"
       sodipodi:ry="9.837841"
       sodipodi:start="0"
       sodipodi:end="3.1415927"
       sodipodi:open="true"
       sodipodi:arc-type="arc"
       d="m 29.963976,140.03946 a 10.000002,9.837841 0 0 1 -5.000001,8.51982 10.000002,9.837841 0 0 1 -10.000002,0 10.000002,9.837841 0 0 1 -5.0000009,-8.51982" />
    <path
       style="font-variation-settings:normal;opacity:1;fill:none;fill-opacity:1;fill-rule:evenodd;stroke:#ff0001;stroke-width:1.5;stroke-linecap:round;stroke-linejoin:miter;stroke-miterlimit:4;stroke-dasharray:none;stroke-dashoffset:0;stroke-opacity:1;stop-color:#000000;stop-opacity:1"
       id="path30"
       sodipodi:type="arc"
       sodipodi:cx="59.93866"
       sodipodi:cy="140.03946"
       sodipodi:rx="10.06134"
       sodipodi:ry="9.837841"
       sodipodi:start="0"
       sodipodi:end="3.1415927"
       sodipodi:open="true"
       sodipodi:arc-type="arc"
       d="m 70,140.03946 a 10.06134,9.837841 0 0 1 -5.03067,8.51982 10.06134,9.837841 0 0 1 -10.061341,0 10.06134,9.837841 0 0 1 -5.03067,-8.51982" />
    <path
       style="font-variation-settings:normal;opacity:1;fill:none;fill-opacity:1;fill-rule:evenodd;stroke:#00ff00;stroke-width:0.5;stroke-linecap:round;stroke-linejoin:miter;stroke-miterlimit:4;stroke-dasharray:none;stroke-dashoffset:0;stroke-opacity:1;stop-color:#000000;stop-opacity:1"
       id="path28"
       sodipodi:type="arc"
       sodipodi:cx="10"
       sodipodi:cy="140.02026"
       sodipodi:rx="5.0000014"
       sodipodi:ry="4.979732"
       sodipodi:start="0"
       sodipodi:end="3.1415927"
       sodipodi:open="true"
       sodipodi:arc-type="arc"
       d="m 15.000001,140.02026 a 5.0000014,4.979732 0 0 1 -2.5,4.31258 5.0000014,4.979732 0 0 1 -5.0000018,0 5.0000014,4.979732 0 0 1 -2.5000006,-4.31258" />
    <path
       style="font-variation-settings:normal;opacity:1;fill:none;fill-opacity:1;fill-rule:evenodd;stroke:#00ff00;stroke-width:0.5;stroke-linecap:round;stroke-linejoin:miter;stroke-miterlimit:4;stroke-dasharray:none;stroke-dashoffset:0;stroke-opacity:1;stop-color:#000000;stop-opacity:1"
       id="path27"
       sodipodi:type="arc"
       sodipodi:cx="30"
       sodipodi:cy="140"
       sodipodi:rx="5.0000014"
       sodipodi:ry="4.979732"
       sodipodi:start="0"
       sodipodi:end="3.1415927"
       sodipodi:open="true"
       sodipodi:arc-type="arc"
       d="m 35.000001,140 a 5.0000014,4.979732 0 0 1 -2.5,4.31257 5.0000014,4.979732 0 0 1 -5.000002,0 5.0000014,4.979732 0 0 1 -2.5,-4.31257" />
  </g>
</svg>
